<svg xmlns="http://www.w3.org/2000/svg" width="24" height="24" viewBox="0 0 24 24" fill="none">
  <path d="M19.4805 5.80519H17.2294V3.51948C17.2294 3.23259 16.9968 3 16.71 3H4.51948C4.23259 3 4 3.23259 4 3.51948V17.4069C4 17.6938 4.23259 17.9264 4.51948 17.9264H6.77056V20.2121C6.77056 20.499 7.00315 20.7316 7.29004 20.7316H19.4805C19.7674 20.7316 20 20.499 20 20.2121V6.32468C20 6.03778 19.7674 5.80519 19.4805 5.80519ZM5.03896 4.03896H16.1905V16.8874H5.03896V4.03896ZM18.961 19.6926H7.80952V17.9264H16.71C16.9968 17.9264 17.2294 17.6938 17.2294 17.4069V6.84416H18.961V19.6926Z" fill="#808284"/>
  <path d="M14.4935 5.25098H6.73591C6.44902 5.25098 6.21643 5.48357 6.21643 5.77046C6.21643 6.05735 6.44902 6.28994 6.73591 6.28994H14.4935C14.7804 6.28994 15.013 6.05735 15.013 5.77046C15.013 5.48357 14.7804 5.25098 14.4935 5.25098Z" fill="#808284"/>
  <path d="M14.4935 12.4541H11.723C11.4361 12.4541 11.2035 12.6867 11.2035 12.9736C11.2035 13.2605 11.4361 13.4931 11.723 13.4931H14.4935C14.7804 13.4931 15.013 13.2605 15.013 12.9736C15.013 12.6867 14.7804 12.4541 14.4935 12.4541Z" fill="#808284"/>
  <path d="M14.4935 14.6709H6.73591C6.44902 14.6709 6.21643 14.9035 6.21643 15.1904C6.21643 15.4773 6.44902 15.7099 6.73591 15.7099H14.4935C14.7804 15.7099 15.013 15.4773 15.013 15.1904C15.013 14.9035 14.7804 14.6709 14.4935 14.6709Z" fill="#808284"/>
  <path d="M6.73591 13.4937H9.50647C9.79337 13.4937 10.026 13.2612 10.026 12.9743V7.98725C10.026 7.70036 9.79337 7.46777 9.50647 7.46777H6.73591C6.44902 7.46777 6.21643 7.70036 6.21643 7.98725V12.9743C6.21643 13.2612 6.44902 13.4937 6.73591 13.4937ZM7.25539 8.50673H8.98699V12.4548H7.25539V8.50673Z" fill="#808284"/>
  <path d="M14.4935 7.74414H11.723C11.4361 7.74414 11.2035 7.97673 11.2035 8.26362C11.2035 8.55051 11.4361 8.7831 11.723 8.7831H14.4935C14.7804 8.7831 15.013 8.55051 15.013 8.26362C15.013 7.97673 14.7804 7.74414 14.4935 7.74414Z" fill="#808284"/>
  <path d="M14.4935 9.96094H11.723C11.4361 9.96094 11.2035 10.1935 11.2035 10.4804C11.2035 10.7673 11.4361 10.9999 11.723 10.9999H14.4935C14.7804 10.9999 15.013 10.7673 15.013 10.4804C15.013 10.1935 14.7804 9.96094 14.4935 9.96094Z" fill="#808284"/>
</svg>