<svg xmlns="http://www.w3.org/2000/svg" width="73" height="76" viewBox="0 0 73 76" fill="none">
  <rect x="1.63525" y="10.6523" width="69.8344" height="63.8642" fill="white"/>
  <rect x="3.90985" y="12.6172" width="65.1943" height="8.94797" rx="1" fill="#F3F3F3"/>
  <path d="M7.56827 26.1094H11.157C12.4478 26.1094 13.6624 26.7449 14.4325 27.7808C32.5855 52.1999 53.2317 59.1409 64.6401 59.8251C67.0212 59.9679 69.1041 61.8367 69.1041 64.222V68.4971C69.1041 70.7251 67.2837 72.5237 65.0558 72.4968L7.51996 71.8019C5.32982 71.7754 3.56827 69.9924 3.56827 67.8021V30.1094C3.56827 27.9002 5.35913 26.1094 7.56827 26.1094Z" fill="#A3A3A3" fill-opacity="0.07"/>
  <path fill-rule="evenodd" clip-rule="evenodd" d="M67.5 11.2344H5.5C3.84315 11.2344 2.5 12.5775 2.5 14.2344V70.501C2.5 72.1579 3.84315 73.501 5.5 73.501H67.5C69.1569 73.501 70.5 72.1579 70.5 70.501V14.2344C70.5 12.5775 69.1569 11.2344 67.5 11.2344ZM5.5 9.23438C2.73858 9.23438 0.5 11.473 0.5 14.2344V70.501C0.5 73.2624 2.73857 75.501 5.5 75.501H67.5C70.2614 75.501 72.5 73.2624 72.5 70.501V14.2344C72.5 11.473 70.2614 9.23438 67.5 9.23438H5.5Z" fill="#898B8E"/>
  <ellipse cx="12.5478" cy="10.1145" rx="4.59125" ry="9.61649" fill="#F9F9F9"/>
  <path fill-rule="evenodd" clip-rule="evenodd" d="M12.6965 4.11523C13.3813 4.11523 13.9364 4.67037 13.9364 5.35516L13.9364 14.8728C13.9364 15.5576 13.3813 16.1127 12.6965 16.1127C12.0117 16.1127 11.4566 15.5576 11.4566 14.8728L11.4566 5.35516C11.4566 4.67037 12.0117 4.11523 12.6965 4.11523Z" fill="#898B8E"/>
  <ellipse cx="60.709" cy="10.1145" rx="4.59125" ry="9.61649" fill="#F9F9F9"/>
  <path fill-rule="evenodd" clip-rule="evenodd" d="M60.8578 4.11523C61.5426 4.11523 62.0977 4.67037 62.0977 5.35516L62.0977 14.8728C62.0977 15.5576 61.5426 16.1127 60.8578 16.1127C60.173 16.1127 59.6179 15.5576 59.6179 14.8728L59.6179 5.35516C59.6179 4.67037 60.173 4.11523 60.8578 4.11523Z" fill="#898B8E"/>
  <path fill-rule="evenodd" clip-rule="evenodd" d="M21.151 35.7949H13.127L13.127 43.5408H21.151L21.151 35.7949ZM13.127 33.7949C12.0225 33.7949 11.127 34.6904 11.127 35.7949V43.5408C11.127 44.6454 12.0225 45.5408 13.127 45.5408H21.151C22.2556 45.5408 23.151 44.6454 23.151 43.5408V35.7949C23.151 34.6904 22.2556 33.7949 21.151 33.7949H13.127Z" fill="#A3A3A3"/>
  <path fill-rule="evenodd" clip-rule="evenodd" d="M21.151 54.0469H13.127L13.127 61.7928H21.151L21.151 54.0469ZM13.127 52.0469C12.0224 52.0469 11.127 52.9423 11.127 54.0469V61.7928C11.127 62.8973 12.0224 63.7928 13.127 63.7928H21.151C22.2556 63.7928 23.151 62.8973 23.151 61.7928V54.0469C23.151 52.9423 22.2556 52.0469 21.151 52.0469H13.127Z" fill="#A3A3A3"/>
  <path fill-rule="evenodd" clip-rule="evenodd" d="M40.2147 35.7949H32.1907L32.1907 43.5408H40.2147L40.2147 35.7949ZM32.1907 33.7949C31.0862 33.7949 30.1907 34.6904 30.1907 35.7949V43.5408C30.1907 44.6454 31.0862 45.5408 32.1907 45.5408H40.2147C41.3193 45.5408 42.2147 44.6454 42.2147 43.5408V35.7949C42.2147 34.6904 41.3193 33.7949 40.2147 33.7949H32.1907Z" fill="#A3A3A3"/>
  <path fill-rule="evenodd" clip-rule="evenodd" d="M40.2147 54.0469H32.1907L32.1907 61.7928H40.2147L40.2147 54.0469ZM32.1907 52.0469C31.0862 52.0469 30.1907 52.9423 30.1907 54.0469V61.7928C30.1907 62.8973 31.0862 63.7928 32.1907 63.7928H40.2147C41.3193 63.7928 42.2147 62.8973 42.2147 61.7928V54.0469C42.2147 52.9423 41.3193 52.0469 40.2147 52.0469H32.1907Z" fill="#A3A3A3"/>
  <path fill-rule="evenodd" clip-rule="evenodd" d="M59.2784 35.7949H51.2545L51.2545 43.5408H59.2784L59.2784 35.7949ZM51.2545 33.7949C50.1499 33.7949 49.2545 34.6904 49.2545 35.7949V43.5408C49.2545 44.6454 50.1499 45.5408 51.2545 45.5408H59.2784C60.383 45.5408 61.2784 44.6454 61.2784 43.5408V35.7949C61.2784 34.6904 60.383 33.7949 59.2784 33.7949H51.2545Z" fill="#A3A3A3"/>
  <path fill-rule="evenodd" clip-rule="evenodd" d="M1.42606 23.7676C1.42606 23.2153 1.87377 22.7676 2.42606 22.7676L64.3002 22.7676C64.8525 22.7676 65.3002 23.2153 65.3002 23.7676C65.3002 24.3199 64.8525 24.7676 64.3002 24.7676L2.42606 24.7676C1.87377 24.7676 1.42606 24.3199 1.42606 23.7676Z" fill="#898B8E"/>
</svg>