<svg xmlns="http://www.w3.org/2000/svg" width="24" height="24" viewBox="0 0 24 24" fill="none">
  <path fill-rule="evenodd" clip-rule="evenodd" d="M7.22866 5.15942C6.94508 5.15942 6.67312 5.27207 6.47259 5.47259C6.27207 5.67312 6.15942 5.94508 6.15942 6.22866V17.7713C6.15942 18.0915 5.89988 18.351 5.57971 18.351C5.25955 18.351 5 18.0915 5 17.7713V6.22866C5 5.63759 5.2348 5.07072 5.65276 4.65276C6.07072 4.2348 6.63759 4 7.22866 4H18.2766C18.5616 4 18.8349 4.11319 19.0364 4.31468C19.2379 4.51617 19.351 4.78945 19.351 5.0744V15.8866C19.351 16.2067 19.0915 16.4663 18.7713 16.4663C18.4512 16.4663 18.1916 16.2067 18.1916 15.8866V5.15942H7.22866Z" fill="#808284"/>
  <path fill-rule="evenodd" clip-rule="evenodd" d="M8.87774 4C9.19791 4 9.45745 4.25955 9.45745 4.57971V10.1162L10.6264 9.36809C10.8169 9.24617 11.0609 9.24617 11.2514 9.36809L12.4204 10.1162V4.57971C12.4204 4.25955 12.68 4 13.0001 4C13.3203 4 13.5798 4.25955 13.5798 4.57971V11.1755C13.5798 11.3874 13.4643 11.5824 13.2784 11.6841C13.0926 11.7858 12.8661 11.778 12.6876 11.6638L10.9389 10.5446L9.19024 11.6638C9.0118 11.778 8.78528 11.7858 8.59944 11.6841C8.4136 11.5824 8.29803 11.3874 8.29803 11.1755V4.57971C8.29803 4.25955 8.55758 4 8.87774 4Z" fill="#808284"/>
  <path fill-rule="evenodd" clip-rule="evenodd" d="M6.64899 16.1227C6.64899 15.8025 6.90853 15.543 7.2287 15.543H18.7714C19.0915 15.543 19.3511 15.8025 19.3511 16.1227C19.3511 16.4428 19.0915 16.7024 18.7714 16.7024H7.2287C6.90853 16.7024 6.64899 16.4428 6.64899 16.1227Z" fill="#808284"/>
  <path fill-rule="evenodd" clip-rule="evenodd" d="M6.64899 19.4205C6.64899 19.1004 6.90853 18.8408 7.2287 18.8408H18.7714C19.0915 18.8408 19.3511 19.1004 19.3511 19.4205C19.3511 19.7407 19.0915 20.0002 18.7714 20.0002H7.2287C6.90853 20.0002 6.64899 19.7407 6.64899 19.4205Z" fill="#808284"/>
  <path fill-rule="evenodd" clip-rule="evenodd" d="M7.22866 16.7024C6.94508 16.7024 6.67312 16.815 6.47259 17.0156C6.27207 17.2161 6.15942 17.4881 6.15942 17.7716C6.15942 18.0552 6.27207 18.3272 6.47259 18.5277C6.67312 18.7282 6.94508 18.8409 7.22866 18.8409C7.54883 18.8409 7.80837 19.1004 7.80837 19.4206C7.80837 19.7408 7.54883 20.0003 7.22866 20.0003C6.63758 20.0003 6.07072 19.7655 5.65276 19.3475C5.2348 18.9296 5 18.3627 5 17.7716C5 17.1806 5.2348 16.6137 5.65276 16.1957C6.07072 15.7778 6.63758 15.543 7.22866 15.543C7.54883 15.543 7.80837 15.8025 7.80837 16.1227C7.80837 16.4428 7.54883 16.7024 7.22866 16.7024Z" fill="#808284"/>
</svg>