<svg xmlns="http://www.w3.org/2000/svg" width="24" height="24" viewBox="0 0 24 24" fill="none">
  <path d="M18.7407 6.32687H14.8708L14.679 5.01012C14.5951 4.43428 14.093 4 13.5111 4H9.77103C9.18908 4 8.68699 4.43428 8.60311 5.01019L8.41135 6.32687H4.54145C3.69149 6.32687 3 7.01836 3 7.86828V17.4586C3 18.3085 3.69149 19 4.54145 19H18.7407C19.5906 19 20.2821 18.3085 20.2821 17.4586V7.86828C20.2821 7.01836 19.5906 6.32687 18.7407 6.32687ZM9.60911 5.15668C9.62072 5.07682 9.69036 5.0166 9.77107 5.0166H13.5111C13.5918 5.0166 13.6615 5.07686 13.6731 5.15668L13.8435 6.32687H9.43869L9.60911 5.15668ZM19.2655 17.4586C19.2655 17.748 19.0301 17.9834 18.7407 17.9834H4.54145C4.25204 17.9834 4.01657 17.748 4.01657 17.4586V12.6133C4.46388 12.9628 5.02592 13.1718 5.63626 13.1718H9.60776V13.6688C9.60776 13.8566 9.71122 14.029 9.87685 14.1173L11.4018 14.9306C11.4766 14.9704 11.5588 14.9904 11.641 14.9904C11.7233 14.9904 11.8055 14.9705 11.8803 14.9306L13.4052 14.1173C13.5709 14.029 13.6743 13.8566 13.6743 13.6688V13.1719H17.6458C18.2561 13.1719 18.8182 12.9628 19.2655 12.6134V17.4586ZM10.6244 13.3638V11.8955H12.6577V13.3638L11.641 13.9061L10.6244 13.3638ZM19.2655 10.5356C19.2655 11.4287 18.5389 12.1552 17.6458 12.1552H13.6743V11.3871C13.6743 11.1064 13.4467 10.8788 13.166 10.8788H10.1161C9.83537 10.8788 9.60776 11.1064 9.60776 11.3871V12.1552H5.63626C4.74316 12.1553 4.01657 11.4287 4.01657 10.5356V7.86828C4.01657 7.61506 4.19685 7.40315 4.43576 7.35414C4.46989 7.34712 4.50523 7.34347 4.54141 7.34347H18.7406C18.7768 7.34347 18.8121 7.34715 18.8462 7.35414C19.0852 7.40319 19.2654 7.61509 19.2654 7.86828V10.5356H19.2655Z" fill="#808284"/>
</svg>