<svg xmlns="http://www.w3.org/2000/svg" width="25" height="24" viewBox="0 0 25 24" fill="none">
  <path fill-rule="evenodd" clip-rule="evenodd" d="M8.5 1.25C8.91421 1.25 9.25 1.58579 9.25 2V3.25H15.75V2C15.75 1.58579 16.0858 1.25 16.5 1.25C16.9142 1.25 17.25 1.58579 17.25 2V3.25047C17.8296 3.25212 18.3183 3.2596 18.7315 3.29336C19.2781 3.33803 19.7582 3.43238 20.2025 3.65873C20.9081 4.01825 21.4817 4.59193 21.8413 5.29754C22.0676 5.74175 22.162 6.22189 22.2066 6.76853C22.25 7.29944 22.25 7.95505 22.25 8.76788V17.2321C22.25 18.045 22.25 18.7006 22.2066 19.2315C22.162 19.7781 22.0676 20.2582 21.8413 20.7025C21.4817 21.4081 20.9081 21.9817 20.2025 22.3413C19.7582 22.5676 19.2781 22.662 18.7315 22.7066C18.2006 22.75 17.545 22.75 16.7321 22.75H8.26788C7.45505 22.75 6.79944 22.75 6.26853 22.7066C5.7219 22.662 5.24175 22.5676 4.79754 22.3413C4.09193 21.9817 3.51825 21.4081 3.15873 20.7025C2.93239 20.2582 2.83803 19.7781 2.79336 19.2315C2.74999 18.7006 2.74999 18.0449 2.75 17.2321V8.76789C2.74999 7.95506 2.74999 7.29944 2.79336 6.76853C2.83803 6.22189 2.93239 5.74175 3.15873 5.29754C3.51825 4.59193 4.09193 4.01825 4.79754 3.65873C5.24175 3.43238 5.7219 3.33803 6.26853 3.29336C6.68171 3.2596 7.17043 3.25212 7.75 3.25047V2C7.75 1.58579 8.08579 1.25 8.5 1.25ZM7.75 4.75054C7.18053 4.75225 6.74665 4.7593 6.39068 4.78838C5.9368 4.82546 5.67604 4.8946 5.47852 4.99524C5.05516 5.21095 4.71095 5.55516 4.49524 5.97852C4.3946 6.17604 4.32547 6.4368 4.28838 6.89068C4.25058 7.35331 4.25 7.94755 4.25 8.8V9.25H20.75V8.8C20.75 7.94755 20.7494 7.35331 20.7116 6.89068C20.6745 6.4368 20.6054 6.17604 20.5048 5.97852C20.289 5.55516 19.9448 5.21095 19.5215 4.99524C19.324 4.8946 19.0632 4.82546 18.6093 4.78838C18.2534 4.7593 17.8195 4.75225 17.25 4.75054V6C17.25 6.41421 16.9142 6.75 16.5 6.75C16.0858 6.75 15.75 6.41421 15.75 6V4.75H9.25V6C9.25 6.41421 8.91421 6.75 8.5 6.75C8.08579 6.75 7.75 6.41421 7.75 6V4.75054ZM20.75 10.75H4.25V17.2C4.25 18.0525 4.25058 18.6467 4.28838 19.1093C4.32547 19.5632 4.3946 19.824 4.49524 20.0215C4.71095 20.4448 5.05516 20.789 5.47852 21.0048C5.67604 21.1054 5.9368 21.1745 6.39068 21.2116C6.85331 21.2494 7.44755 21.25 8.3 21.25H16.7C17.5525 21.25 18.1467 21.2494 18.6093 21.2116C19.0632 21.1745 19.324 21.1054 19.5215 21.0048C19.9448 20.789 20.289 20.4448 20.5048 20.0215C20.6054 19.824 20.6745 19.5632 20.7116 19.1093C20.7494 18.6467 20.75 18.0525 20.75 17.2V10.75Z" fill="#323232"/>
</svg>