<svg width="149" height="149" viewBox="0 0 149 149" fill="none" xmlns="http://www.w3.org/2000/svg">
<g clip-path="url(#clip0_637_5661)">
<path d="M118.564 146.74H137.393C141.209 146.74 144.038 142.756 143.196 138.569L126.703 54.6208H118.564V146.74Z" fill="#D8DCE5"/>
<path d="M118.564 54.6206V146.74H127.345C127.773 145.663 128.011 144.491 128.011 143.263L128.011 61.2761L126.703 54.6206H118.564Z" fill="#C3C8D1"/>
<path d="M122.04 55.029C107.372 55.029 95.48 43.1377 95.48 28.4686C95.48 28.1998 95.4852 27.9324 95.493 27.6655H3.72699C1.81476 27.6655 0.25 29.2303 0.25 31.1425V143.263C0.25 145.175 1.81476 146.74 3.72699 146.74H118.564C120.476 146.74 122.041 145.175 122.041 143.263V55.029H122.04Z" fill="#E4EAF8"/>
<path d="M6.22016 143.263V31.1425C6.22016 29.2303 7.78492 27.6655 9.69715 27.6655H3.72699C1.81476 27.6655 0.25 29.2303 0.25 31.1425V143.263C0.25 145.175 1.81476 146.74 3.72699 146.74H9.69715C7.78492 146.74 6.22016 145.176 6.22016 143.263Z" fill="#D8DCE5"/>
<path d="M95.4803 28.4691C95.4803 28.2003 95.4855 27.9329 95.4933 27.666H4.08635C1.97631 27.6657 0.25 29.392 0.25 31.5021V55.0295H122.04C107.372 55.0292 95.4803 43.1379 95.4803 28.4691Z" fill="#00C3FF"/>
<path d="M9.69657 27.6655H4.08606C1.97631 27.6655 0.25 29.3918 0.25 31.5019V55.0293H6.22016V31.1428C6.22016 29.2306 7.78434 27.6661 9.69657 27.6655Z" fill="#06B0F2"/>
<path d="M101.156 78.3839H21.1343C18.8273 78.3839 16.9568 76.5135 16.9568 74.2065C16.9568 71.8995 18.8273 70.0291 21.1343 70.0291H101.156C103.463 70.0291 105.334 71.8995 105.334 74.2065C105.334 76.5135 103.464 78.3839 101.156 78.3839Z" fill="#D8DCE5"/>
<path d="M101.156 74.2065H21.1343C19.5889 74.2065 18.2429 73.3651 17.5201 72.1177C17.1639 72.7326 16.9565 73.4446 16.9565 74.2065C16.9565 76.5135 18.827 78.384 21.134 78.384H101.156C103.463 78.384 105.333 76.5135 105.333 74.2065C105.333 73.4446 105.126 72.7328 104.77 72.1177C104.048 73.3654 102.702 74.2065 101.156 74.2065Z" fill="#C3C8D1"/>
<path d="M122.04 1.75928C107.313 1.75928 95.3309 13.7411 95.3309 28.469C95.3309 43.1966 107.313 55.1784 122.04 55.1784C136.768 55.1784 148.75 43.1966 148.75 28.469C148.75 13.7411 136.768 1.75928 122.04 1.75928Z" fill="#FF6161"/>
<path d="M101.301 28.469C101.301 14.7501 111.698 3.41598 125.025 1.92692C124.045 1.81729 123.049 1.75928 122.04 1.75928C107.313 1.75928 95.3309 13.7411 95.3309 28.469C95.3309 43.1966 107.313 55.1784 122.04 55.1784C123.049 55.1784 124.045 55.1201 125.025 55.0107C111.698 53.5217 101.301 42.1875 101.301 28.469Z" fill="#DD4343"/>
<path d="M134.256 23.7683H127.474C127.069 23.7683 126.741 23.4403 126.741 23.0357V16.2531C126.741 15.8485 126.413 15.5205 126.009 15.5205H118.072C117.668 15.5205 117.34 15.8485 117.34 16.2531V23.0354C117.34 23.44 117.012 23.7681 116.607 23.7681H109.825C109.42 23.7681 109.092 24.0961 109.092 24.5007V32.437C109.092 32.8416 109.42 33.1697 109.825 33.1697H116.607C117.012 33.1697 117.34 33.4977 117.34 33.9023V40.6846C117.34 41.0892 117.668 41.4172 118.072 41.4172H126.009C126.413 41.4172 126.741 41.0892 126.741 40.6846V33.9029C126.741 33.4983 127.069 33.1703 127.474 33.1703H134.256C134.661 33.1703 134.989 32.8422 134.989 32.4376V24.501C134.989 24.0964 134.661 23.7683 134.256 23.7683Z" fill="#E4EAF8"/>
<path d="M122.613 40.6853V33.903C122.613 33.4984 122.285 33.1704 121.88 33.1704H116.607C117.011 33.1704 117.34 33.4984 117.34 33.903V40.6853C117.34 41.0899 117.668 41.418 118.072 41.418H123.346C122.941 41.418 122.613 41.0899 122.613 40.6853Z" fill="#D8DCE5"/>
<path d="M122.613 23.0357V16.2531C122.613 15.8485 122.941 15.5205 123.346 15.5205H118.072C117.667 15.5205 117.339 15.8485 117.339 16.2531V23.0354C117.339 23.44 117.011 23.7681 116.606 23.7681H121.88C122.285 23.7683 122.613 23.4403 122.613 23.0357Z" fill="#D8DCE5"/>
<path d="M114.366 32.437V24.5007C114.366 24.0961 114.694 23.7681 115.099 23.7681H109.825C109.42 23.7681 109.092 24.0961 109.092 24.5007V32.437C109.092 32.8416 109.42 33.1697 109.825 33.1697H115.099C114.694 33.1697 114.366 32.8416 114.366 32.437Z" fill="#D8DCE5"/>
<path d="M20.3865 39.4823C19.1501 39.4823 18.1477 38.4802 18.1477 37.2435V18.8086C18.1477 17.5719 19.1501 16.5698 20.3865 16.5698C21.623 16.5698 22.6254 17.5719 22.6254 18.8086V37.2435C22.6254 38.4802 21.623 39.4823 20.3865 39.4823Z" fill="#FFC850"/>
<path d="M40.7662 39.4823C39.5297 39.4823 38.5273 38.4802 38.5273 37.2435V18.8086C38.5273 17.5719 39.5297 16.5698 40.7662 16.5698C42.0026 16.5698 43.005 17.5719 43.005 18.8086V37.2435C43.005 38.4802 42.0026 39.4823 40.7662 39.4823Z" fill="#FFC850"/>
<path d="M61.1455 39.4823C59.909 39.4823 58.9066 38.4802 58.9066 37.2435V18.8086C58.9066 17.5719 59.909 16.5698 61.1455 16.5698C62.3819 16.5698 63.3843 17.5719 63.3843 18.8086V37.2435C63.3843 38.4802 62.3819 39.4823 61.1455 39.4823Z" fill="#FFC850"/>
<path d="M81.5248 39.4823C80.2883 39.4823 79.2859 38.4802 79.2859 37.2435V18.8086C79.2859 17.5719 80.2883 16.5698 81.5248 16.5698C82.7612 16.5698 83.7636 17.5719 83.7636 18.8086V37.2435C83.7636 38.4802 82.7612 39.4823 81.5248 39.4823Z" fill="#FFC850"/>
<path d="M101.156 96.3158H21.1343C18.8273 96.3158 16.9568 94.4453 16.9568 92.1384C16.9568 89.8314 18.8273 87.9609 21.1343 87.9609H101.156C103.463 87.9609 105.334 89.8314 105.334 92.1384C105.334 94.4456 103.464 96.3158 101.156 96.3158Z" fill="#D8DCE5"/>
<path d="M101.156 92.1389H21.1343C19.5889 92.1389 18.2429 91.2975 17.5201 90.05C17.1639 90.6649 16.9565 91.377 16.9565 92.1389C16.9565 94.4459 18.827 96.3163 21.134 96.3163H101.156C103.463 96.3163 105.333 94.4459 105.333 92.1389C105.333 91.377 105.126 90.6652 104.77 90.05C104.048 91.2975 102.702 92.1389 101.156 92.1389Z" fill="#C3C8D1"/>
<path d="M101.156 114.248H21.1343C18.8273 114.248 16.9568 112.378 16.9568 110.071C16.9568 107.764 18.8273 105.893 21.1343 105.893H101.156C103.463 105.893 105.334 107.764 105.334 110.071C105.334 112.378 103.464 114.248 101.156 114.248Z" fill="#D8DCE5"/>
<path d="M101.156 110.071H21.1343C19.5889 110.071 18.2429 109.229 17.5201 107.982C17.1639 108.597 16.9565 109.309 16.9565 110.071C16.9565 112.378 18.827 114.248 21.134 114.248H101.156C103.463 114.248 105.333 112.378 105.333 110.071C105.333 109.309 105.126 108.597 104.77 107.982C104.048 109.229 102.702 110.071 101.156 110.071Z" fill="#C3C8D1"/>
<path d="M101.156 132.18H21.1343C18.8273 132.18 16.9568 130.31 16.9568 128.003C16.9568 125.696 18.8273 123.825 21.1343 123.825H101.156C103.463 123.825 105.334 125.696 105.334 128.003C105.334 130.31 103.464 132.18 101.156 132.18Z" fill="#D8DCE5"/>
<path d="M101.156 128.003H21.1343C19.5889 128.003 18.2429 127.161 17.5201 125.914C17.1639 126.529 16.9565 127.241 16.9565 128.003C16.9565 130.31 18.827 132.18 21.134 132.18H101.156C103.463 132.18 105.333 130.31 105.333 128.003C105.333 127.241 105.126 126.529 104.77 125.914C104.048 127.161 102.702 128.003 101.156 128.003Z" fill="#C3C8D1"/>
</g>
<defs>
<clipPath id="clip0_637_5661">
<rect width="148.5" height="148.5" fill="white" transform="translate(0.25)"/>
</clipPath>
</defs>
</svg>
