<svg width="20" height="16" viewBox="0 0 20 16" fill="none" xmlns="http://www.w3.org/2000/svg">
<path d="M20.0005 5.65019C20.0005 2.53465 17.4659 0 14.3504 0H5.9832C2.86766 3.84132e-05 0.333008 2.53469 0.333008 5.65023C0.333008 6.57022 1.08149 7.3187 2.00148 7.3187H3.59409L2.44101 9.92995C2.03352 10.8528 1.8269 11.8322 1.8269 12.841V13.911C1.8269 15.0629 2.76402 16 3.91592 16H16.4173C17.5693 16 18.5064 15.0629 18.5064 13.911V12.841C18.5064 11.8322 18.2998 10.8528 17.8922 9.92995L16.7391 7.3187H18.332C19.2521 7.31867 20.0005 6.57022 20.0005 5.65019ZM5.9832 1.28822H14.3504C16.1648 1.28822 17.7237 2.40194 18.3802 3.98148H14.668C14.3508 3.65309 13.9064 3.44827 13.4148 3.44827H6.91879C6.42629 3.44827 5.98116 3.6539 5.66375 3.98333C5.65139 3.98264 5.63913 3.98145 5.62661 3.98145H1.95335C2.60983 2.40186 4.16883 1.28822 5.9832 1.28822ZM2.00148 6.0304C1.79182 6.0304 1.62127 5.85989 1.62127 5.65019C1.62127 5.52201 1.62715 5.39517 1.63806 5.26975H5.17518V5.76693C5.17518 5.91221 5.05694 6.03037 4.9117 6.03037L2.00148 6.0304ZM17.2182 12.8409V13.9109C17.2182 14.3524 16.859 14.7116 16.4174 14.7116H3.91592C3.4744 14.7116 3.11516 14.3524 3.11516 13.9109V12.8409C3.11516 12.0124 3.28483 11.2081 3.61948 10.4503L5.0037 7.31571C5.81668 7.26792 6.46348 6.59166 6.46348 5.76697V5.192C6.46348 4.94089 6.66776 4.73661 6.91883 4.73661H13.4147C13.6658 4.73661 13.8701 4.94089 13.8701 5.192V5.76697C13.8701 6.59158 14.5167 7.26781 15.3295 7.31571L16.7138 10.4503C17.0485 11.2081 17.2182 12.0124 17.2182 12.8409ZM15.4219 6.03044C15.2766 6.03044 15.1584 5.91225 15.1584 5.76697V5.26978H18.6955C18.7064 5.3952 18.7123 5.52204 18.7123 5.65027C18.7123 5.85993 18.5418 6.03048 18.3321 6.03048L15.4219 6.03044Z" fill="#808284"/>
<path d="M7.91772 10.855C8.3113 10.855 8.63036 10.5359 8.63036 10.1423C8.63036 9.74875 8.3113 9.42969 7.91772 9.42969C7.52414 9.42969 7.20508 9.74875 7.20508 10.1423C7.20508 10.5359 7.52414 10.855 7.91772 10.855Z" fill="#808284"/>
<path d="M10.1667 10.855C10.5603 10.855 10.8794 10.5359 10.8794 10.1423C10.8794 9.74875 10.5603 9.42969 10.1667 9.42969C9.77316 9.42969 9.4541 9.74875 9.4541 10.1423C9.4541 10.5359 9.77316 10.855 10.1667 10.855Z" fill="#808284"/>
<path d="M12.4158 10.855C12.8093 10.855 13.1284 10.5359 13.1284 10.1423C13.1284 9.74875 12.8093 9.42969 12.4158 9.42969C12.0222 9.42969 11.7031 9.74875 11.7031 10.1423C11.7031 10.5359 12.0222 10.855 12.4158 10.855Z" fill="#808284"/>
</svg>
