<svg xmlns="http://www.w3.org/2000/svg" width="25" height="33" viewBox="0 0 25 33" fill="none">
  <path d="M22.3567 17.023L21.6122 15.7334C21.4793 15.5032 21.1849 15.4243 20.9547 15.5573C20.7245 15.6902 20.6456 15.9845 20.7785 16.2147L21.5231 17.5044C24.1408 22.0383 23.3752 27.7752 19.6614 31.4555C19.0619 32.0496 18.0819 32.0407 17.4767 31.4356L17.397 31.3559C16.4481 30.407 15.3133 29.6562 14.0243 29.1245C8.53647 26.8607 6.51262 22.3223 6.34191 22.1202C5.94973 21.354 6.2117 20.3889 6.98656 19.9416L10.104 18.1417C11.3048 17.4484 11.8349 16.0771 11.5468 14.8309C12.7849 15.3395 14.1994 15.2563 15.3833 14.5729L18.2127 12.9394C18.3479 12.8613 18.5054 12.8405 18.6562 12.881C18.807 12.9214 18.933 13.0181 19.0111 13.1533L19.6631 14.2825C19.7964 14.5134 20.091 14.5913 20.3206 14.4587C20.5508 14.3258 20.6296 14.0314 20.4967 13.8012L19.8448 12.672C19.6446 12.3252 19.3253 12.0742 18.9426 11.9616C19.0324 11.5892 18.9852 11.1832 18.7791 10.826C18.2646 9.935 17.4586 9.28156 16.5045 8.96248C17.3181 8.02789 18.5134 7.45364 19.8115 7.45364H20.556C21.0209 7.45364 21.399 7.07545 21.399 6.61063V5.12021C21.399 4.65532 21.0209 4.27713 20.556 4.27713H18.3305C17.8103 4.27713 17.3012 4.34888 16.8145 4.48756L17.6098 1.51898C17.6943 1.20349 17.5064 0.87799 17.1908 0.793342L15.2111 0.262864C14.8955 0.178537 14.5702 0.36638 14.4855 0.681933L13.8826 2.93213C13.87 2.97924 13.821 3.0033 13.7747 2.98938C13.6336 2.94689 13.4888 2.90954 13.3445 2.87822C13.3024 2.86911 13.2731 2.8351 13.2731 2.79556V0.592536C13.2731 0.265816 13.0073 0 12.6806 0H10.6312C10.3045 0 10.0386 0.265816 10.0386 0.592536V1.68879L9.40432 0.590097C9.24061 0.30644 8.87859 0.209406 8.59487 0.373118L6.81996 1.39788C6.53592 1.56198 6.43972 1.92438 6.60324 2.20726L7.89612 4.44662C7.93302 4.51054 7.92212 4.59332 7.86891 4.65275C7.68852 4.85426 7.52333 5.06822 7.37418 5.29233H5.05673C4.59306 5.29233 4.21583 5.66955 4.21583 6.13322V7.45454L1.98771 8.05157C1.77073 8.10971 1.58943 8.24884 1.47713 8.44336C1.36482 8.63788 1.33498 8.86448 1.39306 9.0814L1.9107 11.0132C2.03071 11.4611 2.49239 11.7278 2.94059 11.6079L4.19895 11.2707C4.18182 11.8704 4.15166 12.4518 4.10821 13.0183H1.67472C1.37271 13.0183 1.12698 13.264 1.12698 13.566V15.1448C1.12698 15.3154 1.20547 15.4681 1.32817 15.5687L1.23242 15.5943C0.940103 15.6727 0.7667 15.9727 0.845059 16.2652L1.25367 17.7902C1.33202 18.0826 1.63192 18.2558 1.9245 18.1776L3.58556 17.7324C3.62721 18.79 3.9185 19.8525 4.48338 20.831C5.18482 22.0429 5.86752 23.2321 6.00775 23.463V25.0604C6.00775 25.3262 6.22325 25.5417 6.48907 25.5417C6.75488 25.5417 6.97039 25.3262 6.97039 25.0604V24.873C7.64263 25.7536 8.40305 26.5621 9.23759 27.2857V29.2807C9.23759 29.2954 9.22565 29.3073 9.21102 29.3073H6.99689C6.98226 29.3073 6.97032 29.2954 6.97032 29.2807V27.3066C6.97032 27.0408 6.75482 26.8253 6.489 26.8253C6.22319 26.8253 6.00769 27.0408 6.00769 27.3066V29.2807C6.00769 29.8262 6.45146 30.27 6.99689 30.27H9.21102C9.75645 30.27 10.2002 29.8262 10.2002 29.2807V28.0582C11.262 28.8457 12.4222 29.5051 13.6571 30.0145C14.8283 30.4977 15.8575 31.178 16.7163 32.0368L16.796 32.1165C17.7712 33.0918 19.3606 33.1088 20.3389 32.1394C24.3632 28.1514 25.1929 21.9354 22.3567 17.023ZM17.9453 11.3073C18.1064 11.5864 18.0104 11.9446 17.7314 12.1057L14.9021 13.7392C14.8493 13.7697 14.7959 13.7986 14.7418 13.8262L15.5791 10.7013C15.6642 10.3833 15.7835 10.0813 15.932 9.79876C16.7806 10.004 17.5031 10.5415 17.9453 11.3073ZM20.4363 5.23977V6.49094H19.8114C17.4046 6.49094 15.276 8.11253 14.6492 10.4521L13.6542 14.1653C12.6204 14.3039 11.5781 13.959 10.8324 13.23L11.6574 10.151C11.7644 9.75146 11.6493 9.32167 11.3568 9.02922C10.9247 8.59713 10.9247 7.89402 11.3568 7.46192C11.789 7.02982 12.492 7.02989 12.9241 7.46192C13.0983 7.63616 13.3299 7.7321 13.5763 7.7321C13.8226 7.7321 14.0542 7.63616 14.2284 7.46198L15.1214 6.56898C15.9668 5.72365 17.1017 5.23983 18.3303 5.23983H20.4363V5.23977ZM2.80878 10.6465L2.35415 8.9499L4.61905 8.34305C4.94827 8.25481 5.17815 7.95518 5.17815 7.61434V6.25496H6.85795C6.61896 6.8251 6.47181 7.43343 6.42797 8.05304C6.40834 8.3308 6.62801 8.56838 6.90859 8.56838C7.15894 8.56838 7.37027 8.37463 7.38824 8.12101C7.46332 7.0605 7.87957 6.08387 8.58582 5.29476C8.91716 4.9246 8.97486 4.39033 8.72945 3.9653L7.62164 2.04644L8.75544 1.39185L9.84405 3.2774C9.98633 3.52377 10.2665 3.63986 10.5415 3.56619C10.8164 3.49251 11.001 3.25185 11.001 2.96724V0.962638H12.3102V2.79563C12.3102 3.29216 12.6515 3.71302 13.1401 3.81904C13.2599 3.84503 13.3801 3.87609 13.4973 3.91133C14.0654 4.08223 14.6592 3.75223 14.8122 3.18133L15.3193 1.28859L16.5839 1.62744L15.6945 4.9468C15.2396 5.19581 14.8176 5.51129 14.4407 5.8882L13.576 6.7529C13.1883 6.37966 12.6802 6.17462 12.1405 6.17462C11.5873 6.17462 11.0672 6.38999 10.6762 6.78121C10.285 7.17236 10.0696 7.69238 10.0696 8.24551C10.0696 8.79864 10.285 9.31872 10.6762 9.70981C10.7262 9.7598 10.7459 9.83335 10.7276 9.90169L10.0989 12.248C9.66423 11.6712 9.00521 11.3345 8.3166 11.2904C8.05355 10.9379 7.84157 10.5531 7.68518 10.1438C7.59033 9.89547 7.31212 9.77097 7.06376 9.86588C6.81547 9.96073 6.69103 10.2389 6.78588 10.4873C6.9152 10.8258 7.07608 11.1503 7.26669 11.4577C7.16054 11.5002 7.05619 11.5507 6.95434 11.6095C6.2031 12.0432 5.56673 12.6005 5.05602 13.2411C5.14118 12.191 5.17815 11.131 5.17815 10.0776V9.66989C5.17815 9.40407 4.96265 9.18857 4.69683 9.18857C4.43101 9.18857 4.21551 9.40407 4.21551 9.66989C4.21551 10.0702 4.21564 10.142 4.21506 10.2695L2.80878 10.6465ZM2.08962 13.9809H4.01984C3.99282 14.2332 3.96304 14.4828 3.93031 14.7299H2.08962V13.9809ZM1.88233 16.4168L3.74799 15.9169C3.69299 16.2305 3.68985 16.2237 3.68638 16.2738C3.65956 16.4238 3.6378 16.5747 3.62111 16.7263L2.07621 17.1403L1.88233 16.4168ZM5.31715 20.3496C3.72142 17.5857 4.6718 14.0389 7.43566 12.4432C8.13845 12.0375 9.03037 12.2863 9.42935 12.9774C9.43795 12.9923 9.38167 12.9033 10.3869 14.4828C10.9528 15.4735 10.6137 16.7359 9.62265 17.308L6.50518 19.1078C5.97836 19.412 5.5822 19.8792 5.36965 20.4407L5.31715 20.3496Z" fill="#D90506"/>
  <path d="M10.0555 22.029C9.69389 21.5225 9.02434 21.3499 8.47153 21.6079C7.74146 21.9466 7.4983 22.8646 7.96319 23.5161C8.08866 23.6919 8.21996 23.8675 8.35357 24.0379C8.82777 24.6431 9.72662 24.6958 10.2703 24.1521C10.7281 23.6942 10.7706 22.9618 10.369 22.4485C10.2618 22.3114 10.1563 22.1702 10.0555 22.029ZM9.58954 23.4715C9.45259 23.6085 9.22829 23.5935 9.1113 23.4442C8.98654 23.285 8.8639 23.1211 8.74678 22.9569C8.63094 22.7946 8.69499 22.5668 8.87449 22.4821C9.00926 22.4172 9.17907 22.4583 9.27193 22.5883C9.3809 22.7409 9.49494 22.8935 9.61078 23.0416C9.71301 23.1723 9.7039 23.3571 9.58954 23.4715Z" fill="#D90506"/>
  <path d="M10.8372 26.5238C11.8895 27.3506 13.0442 28.026 14.269 28.5313C14.7826 28.7431 15.2796 28.9912 15.7463 29.2686C16.2508 29.5685 16.8949 29.4916 17.3117 29.0748C17.3128 29.0737 17.314 29.0725 17.3152 29.0713C17.9045 28.4782 17.7779 27.4895 17.0564 27.0608C16.4842 26.7208 15.8758 26.4171 15.248 26.1582C14.2393 25.7421 13.2883 25.1856 12.4212 24.5043C11.8899 24.0868 11.1213 24.1567 10.6714 24.6637C10.1829 25.2146 10.2563 26.0675 10.8372 26.5238ZM11.3916 25.3026C11.5042 25.1758 11.6951 25.158 11.8264 25.2612C12.7629 25.9971 13.7906 26.5983 14.8809 27.0481C15.4658 27.2894 16.0322 27.5721 16.5646 27.8884C16.7456 27.996 16.7816 28.2435 16.6316 28.3936C16.5261 28.4991 16.3644 28.5162 16.2382 28.4411C15.7316 28.14 15.1926 27.8709 14.6361 27.6414C13.4929 27.1698 12.4148 26.5391 11.4319 25.7669C11.2873 25.6533 11.2691 25.4407 11.3916 25.3026Z" fill="#D90506"/>
</svg>