<svg width="64" height="64" viewBox="0 0 64 64" fill="none" xmlns="http://www.w3.org/2000/svg">
<path d="M38.6997 35.0796C37.4107 35.2385 36.2166 34.5217 35.3547 33.4988C35.166 33.2332 34.9195 33.0121 34.633 32.8513C34.3465 32.6905 34.0271 32.594 33.6979 32.5689C32.8834 32.4565 31.1002 34.3396 29.5937 35.6686C29.0797 36.1258 28.5183 36.6062 27.8145 36.6837C26.5927 36.8193 25.5291 35.7344 24.6948 34.7464C23.8605 33.7584 23.0578 32.6735 23.3425 31.5498C23.5381 30.9881 23.8851 30.4887 24.3468 30.1046C27.1146 27.3923 29.1707 26.3229 31.9345 23.5913C32.3257 23.1428 32.8131 22.7842 33.3619 22.5413C34.3701 22.181 35.5642 22.6575 36.4341 23.3937C37.5096 24.3081 37.5886 24.6103 38.2252 24.5561C38.8618 24.5019 40.9456 22.6188 42.6023 21.0689C40.3801 20.5614 37.8377 20.5807 35.8212 20.5032C29.5819 20.263 23.3465 20.1739 17.1071 20.015C12.0856 19.8949 9.1834 20.3831 8.35307 25.641C7.84301 28.9383 7.99721 33.0067 8.13164 36.3544C8.19886 37.9352 8.2898 41.3914 9.1834 42.8328C10.765 45.4443 16.1503 45.8937 18.922 46.0177C25.1574 46.2967 48.0271 50.0047 47.7108 40.9148C47.7108 37.7802 48.0706 34.6612 47.9876 31.5305C47.9638 30.6122 47.9876 29.163 47.9164 27.7721C45.4728 29.8721 43.0649 31.7862 40.6016 33.9715C40.052 34.4636 39.4549 34.975 38.7116 35.0641L38.6997 35.0796ZM43.3338 41.6897C43.3358 41.8236 43.311 41.9565 43.2607 42.0809C43.2103 42.2053 43.1355 42.3188 43.0404 42.4149C42.9453 42.511 42.8318 42.5877 42.7064 42.6408C42.5811 42.6939 42.4462 42.7223 42.3097 42.7243C41.2553 42.7398 40.2114 42.7475 39.1781 42.7475C30.225 42.7464 21.2812 42.1821 12.4019 41.0582C12.1684 40.9877 11.9676 40.8388 11.8349 40.6377C11.7022 40.4366 11.646 40.1961 11.6762 39.9584C11.7064 39.7207 11.821 39.5011 12 39.338C12.179 39.1749 12.4109 39.0789 12.655 39.0666C22.4724 40.3095 32.3682 40.8612 42.2662 40.7172C42.4029 40.7147 42.5388 40.7386 42.666 40.7878C42.7932 40.8369 42.9092 40.9102 43.0073 41.0035C43.1054 41.0968 43.1838 41.2082 43.2378 41.3313C43.2918 41.4544 43.3203 41.5868 43.3219 41.7207" fill="#82C832"/>
<path d="M58.7286 12.3487C58.3251 11.87 57.6681 11.9833 57.1225 12.1112L48.0357 14.417C46.5603 14.7825 39.9133 15.5718 42.6566 18.1078C43.0024 18.4294 43.8707 19.4015 44.1935 19.7267C44.0283 19.8692 43.8669 20.0227 43.7094 20.1725C43.3712 20.4977 42.9409 20.9034 42.476 21.3236C44.6161 21.7987 46.4527 22.7634 47.1904 24.7952C47.4565 25.7233 47.4881 27.038 47.5 28C47.988 27.5907 48.589 26.8233 49.0808 26.3957C49.3885 26.1411 49.681 25.8703 49.9568 25.5845L51.436 27.1449C51.8741 27.6053 52.4081 28.1023 52.9729 27.9817C53.5377 27.8611 53.8566 27.1741 54.091 26.5602L58.7017 14.5011C58.9668 13.8068 59.2011 12.8932 58.7286 12.3304" fill="#FFA046"/>
<path d="M42.6313 21C40.9475 22.5871 38.7735 24.4996 38.1828 24.5711C37.5921 24.6425 37.4514 24.333 36.3624 23.3807C35.4783 22.6228 34.2688 22.1388 33.24 22.5078C32.6824 22.7567 32.1871 23.1238 31.7893 23.5831C28.9764 26.3804 26.8827 27.4557 24.0778 30.253C23.6084 30.6463 23.2557 31.1577 23.0571 31.733C22.7678 32.8797 23.6318 34.0542 24.4314 35.0065C25.2311 35.9588 26.3603 37.1174 27.602 36.9904C28.3173 36.911 28.884 36.423 29.4104 35.9548C30.9374 34.5859 32.7538 32.6575 33.5816 32.7805C33.913 32.8096 34.2338 32.9103 34.5214 33.0756C34.8089 33.2408 35.056 33.4666 35.2453 33.7368C36.1253 34.7843 37.3349 35.5183 38.6449 35.3557C39.4004 35.2644 40.0072 34.7406 40.5658 34.2367C43.0693 31.987 45.5166 30.0268 48 27.8882C47.9879 26.8436 47.8407 25.8049 47.562 24.7972C46.7904 22.5871 44.8656 21.5436 42.6313 21.0278" fill="#507800"/>
</svg>
