<svg width="14" height="14" viewBox="0 0 14 14" fill="none" xmlns="http://www.w3.org/2000/svg">
<g clip-path="url(#clip0_6398_9419)">
<path d="M4.67622 0.0729927C4.87749 0.206245 5.00047 0.345352 5.08606 0.573832C5.12721 0.779591 5.1134 0.992905 5.1134 1.20274C6.62032 1.20274 8.12723 1.20274 9.67981 1.20274C9.67981 1.01325 9.67981 0.823754 9.67981 0.628519C9.80299 0.351353 9.92691 0.140399 10.2192 0.0248207C10.4405 -0.0375091 10.7052 -0.0380401 10.9106 0.0729927C11.1253 0.215114 11.2677 0.376479 11.3356 0.630429C11.3526 0.74229 11.3506 0.852232 11.3495 0.965189C11.3494 0.988048 11.3492 1.01091 11.3491 1.03446C11.3488 1.09055 11.3483 1.14665 11.3478 1.20274C11.376 1.20237 11.376 1.20237 11.4047 1.202C11.5833 1.1998 11.7619 1.19814 11.9404 1.19707C12.0322 1.1965 12.1239 1.19568 12.2157 1.19449C12.3216 1.19315 12.4275 1.19254 12.5334 1.19206C12.5658 1.19149 12.5982 1.19093 12.6316 1.19035C13.0054 1.19025 13.3257 1.31274 13.603 1.56515C13.8466 1.81899 14.0067 2.13372 14.0072 2.48951C14.0073 2.50805 14.0074 2.5266 14.0076 2.5457C14.0078 2.60763 14.0077 2.66956 14.0076 2.73149C14.0077 2.77642 14.0079 2.82136 14.0081 2.86629C14.0084 2.98962 14.0085 3.11294 14.0085 3.23627C14.0085 3.36934 14.0089 3.50241 14.0092 3.63548C14.0098 3.92638 14.01 4.21727 14.0102 4.50817C14.0103 4.68985 14.0104 4.87153 14.0106 5.05322C14.0112 5.55639 14.0116 6.05956 14.0117 6.56273C14.0117 6.59492 14.0117 6.62712 14.0117 6.66028C14.0117 6.72554 14.0117 6.7908 14.0117 6.85606C14.0117 6.88845 14.0118 6.92085 14.0118 6.95422C14.0118 7.00288 14.0118 7.00288 14.0118 7.05251C14.0119 7.57805 14.0126 8.10358 14.0136 8.62912C14.0147 9.16887 14.0152 9.70862 14.0152 10.2484C14.0152 10.5513 14.0155 10.8543 14.0162 11.1573C14.0169 11.4153 14.0171 11.6732 14.0167 11.9312C14.0165 12.0628 14.0165 12.1944 14.0172 12.3259C14.0177 12.4465 14.0176 12.5671 14.0171 12.6877C14.017 12.7312 14.0171 12.7746 14.0175 12.8181C14.0205 13.1738 13.9591 13.4634 13.7061 13.7269C13.4959 13.9115 13.2741 14.0082 12.994 14.0067C12.973 14.0068 12.9519 14.0069 12.9302 14.007C12.8596 14.0073 12.789 14.0072 12.7183 14.0071C12.6672 14.0072 12.6161 14.0074 12.565 14.0075C12.4245 14.0079 12.2839 14.008 12.1434 14.008C11.9919 14.008 11.8403 14.0084 11.6888 14.0087C11.3574 14.0093 11.026 14.0095 10.6946 14.0097C10.4876 14.0097 10.2807 14.0099 10.0738 14.0101C9.50081 14.0107 8.92786 14.0111 8.3549 14.0112C8.33658 14.0112 8.31825 14.0112 8.29938 14.0112C8.22512 14.0112 8.15086 14.0112 8.07661 14.0112C8.02072 14.0112 7.96483 14.0112 7.90894 14.0112C7.88124 14.0113 7.88124 14.0113 7.85298 14.0113C7.27288 14.0113 6.69279 14.0119 6.11269 14.0129C5.46082 14.014 4.80895 14.0147 4.15708 14.0147C3.81199 14.0147 3.4669 14.0149 3.1218 14.0157C2.82794 14.0164 2.53409 14.0166 2.24023 14.0162C2.09033 14.016 1.94044 14.016 1.79054 14.0166C1.6532 14.0172 1.51588 14.0171 1.37854 14.0166C1.32897 14.0165 1.2794 14.0166 1.22983 14.017C0.85694 14.0197 0.554488 13.976 0.272812 13.7056C0.0773069 13.483 -0.00825525 13.2549 -0.00906312 12.9622C-0.00933616 12.9275 -0.00933616 12.9275 -0.00961471 12.8921C-0.00989046 12.8435 -0.0100199 12.7948 -0.0100111 12.7462C-0.010131 12.6719 -0.0111263 12.5976 -0.0121607 12.5233C-0.0123211 12.4759 -0.0124296 12.4285 -0.0124811 12.3811C-0.0128741 12.359 -0.013267 12.3369 -0.0136719 12.3141C-0.0127916 12.2052 -0.00780966 12.1527 0.0521799 12.0585C0.146298 11.9682 0.208777 11.9716 0.337006 11.9675C0.371373 11.9664 0.405739 11.9652 0.441147 11.9641C0.477206 11.963 0.513264 11.9619 0.550416 11.9608C0.587052 11.9596 0.623689 11.9584 0.660325 11.9572C0.75015 11.9543 0.839978 11.9515 0.92981 11.9488C0.902112 11.9205 0.902112 11.9205 0.873854 11.8917C0.575105 11.5828 0.384653 11.2427 0.27356 10.8277C0.266863 10.8029 0.260166 10.778 0.253266 10.7524C0.131012 10.204 0.241065 9.6117 0.514634 9.12634C0.847 8.60597 1.34561 8.21388 1.95154 8.0669C2.56263 7.9447 3.16071 8.04852 3.69153 8.3668C3.77894 8.42549 3.85838 8.48905 3.93762 8.55821C3.95535 8.57174 3.97308 8.58528 3.99135 8.59922C4.39321 8.91753 4.63412 9.44243 4.71927 9.93629C4.78745 10.5293 4.67214 11.1396 4.30505 11.6224C4.27391 11.6585 4.24255 11.6943 4.21106 11.7301C4.18579 11.759 4.18579 11.759 4.16001 11.7884C4.14334 11.8075 4.12666 11.8266 4.10948 11.8462C4.09257 11.8655 4.07565 11.8848 4.05822 11.9048C4.04549 11.9193 4.03277 11.9338 4.01965 11.9488C4.05395 11.9489 4.08824 11.949 4.12358 11.9491C4.44666 11.9501 4.76974 11.9517 5.09282 11.9539C5.25892 11.9549 5.42502 11.9558 5.59113 11.9562C5.7514 11.9567 5.91167 11.9576 6.07195 11.9589C6.13312 11.9593 6.19429 11.9595 6.25546 11.9595C6.3411 11.9596 6.4267 11.9604 6.51233 11.9612C6.53767 11.9611 6.563 11.961 6.5891 11.9608C6.70404 11.9627 6.76543 11.9662 6.86484 12.0284C6.94666 12.1162 6.95637 12.1809 6.95505 12.3014C6.93769 12.4054 6.88499 12.452 6.80872 12.5231C6.73487 12.5481 6.66742 12.5538 6.5898 12.5538C6.56815 12.5538 6.5465 12.5539 6.5242 12.5539C6.50058 12.5538 6.47696 12.5538 6.45262 12.5537C6.4148 12.5537 6.4148 12.5537 6.37621 12.5538C6.29152 12.5538 6.20684 12.5536 6.12216 12.5535C6.06153 12.5535 6.0009 12.5535 5.94027 12.5535C5.77548 12.5535 5.6107 12.5534 5.44591 12.5532C5.27377 12.553 5.10163 12.553 4.92949 12.5529C4.6405 12.5529 4.35151 12.5527 4.06253 12.5525C3.76487 12.5522 3.46721 12.552 3.16955 12.5519C3.15121 12.5519 3.13286 12.5519 3.11395 12.5519C3.02191 12.5518 2.92986 12.5518 2.83781 12.5518C2.07421 12.5515 1.3106 12.551 0.546998 12.5504C0.550738 12.6156 0.554643 12.6807 0.55864 12.7459C0.559672 12.7641 0.560704 12.7824 0.561768 12.8012C0.573366 12.9862 0.587867 13.1825 0.729859 13.316C0.961923 13.4561 1.2198 13.433 1.48176 13.432C1.52718 13.432 1.57259 13.432 1.61801 13.4321C1.74253 13.4322 1.86705 13.432 1.99158 13.4317C2.12596 13.4315 2.26035 13.4316 2.39473 13.4316C2.62748 13.4317 2.86022 13.4315 3.09296 13.4312C3.42946 13.4307 3.76597 13.4306 4.10247 13.4305C4.64844 13.4304 5.19441 13.43 5.74037 13.4295C6.2707 13.429 6.80103 13.4286 7.33136 13.4284C7.36405 13.4284 7.39675 13.4284 7.43043 13.4284C7.59445 13.4283 7.75847 13.4282 7.92249 13.4281C9.283 13.4276 10.6435 13.4266 12.004 13.4254C11.9907 13.3927 11.9773 13.36 11.9635 13.3263C11.9269 13.2284 11.9123 13.1472 11.914 13.0417C11.9143 13.0128 11.9145 12.9839 11.9148 12.9541C11.9155 12.9247 11.9162 12.8952 11.9169 12.8648C11.9172 12.8345 11.9176 12.8042 11.918 12.773C11.919 12.6988 11.9203 12.6246 11.922 12.5504C11.9071 12.5505 11.8922 12.5505 11.8768 12.5506C11.5137 12.5524 11.1506 12.5538 10.7875 12.5546C10.6119 12.5551 10.4363 12.5557 10.2607 12.5566C10.0912 12.5575 9.9217 12.558 9.75221 12.5582C9.68757 12.5583 9.62293 12.5586 9.5583 12.5591C9.4677 12.5597 9.37712 12.5597 9.28652 12.5597C9.24652 12.5602 9.24652 12.5602 9.2057 12.5606C9.05108 12.5599 8.94081 12.5442 8.80481 12.4684C8.73705 12.3752 8.72278 12.3221 8.72278 12.2069C8.75754 12.0874 8.7858 12.0499 8.88684 11.9762C8.99574 11.9557 9.10342 11.9578 9.21395 11.9589C9.24709 11.9587 9.28023 11.9585 9.31437 11.9583C9.40506 11.9579 9.4957 11.9582 9.58639 11.9587C9.68139 11.9592 9.77639 11.9589 9.87139 11.9588C10.0309 11.9587 10.1904 11.9591 10.35 11.9599C10.5343 11.9607 10.7185 11.9607 10.9028 11.9603C11.0803 11.9598 11.2577 11.96 11.4352 11.9605C11.5107 11.9607 11.5861 11.9606 11.6615 11.9604C11.7669 11.9602 11.8723 11.9608 11.9777 11.9616C12.0246 11.9613 12.0246 11.9613 12.0724 11.961C12.2838 11.9636 12.2838 11.9636 12.3919 12.0284C12.4762 12.1255 12.4728 12.1883 12.4746 12.3154C12.4754 12.351 12.4762 12.3866 12.477 12.4233C12.4781 12.4797 12.4791 12.5361 12.4798 12.5925C12.4735 12.9566 12.4735 12.9566 12.617 13.2798C12.7476 13.3943 12.8631 13.4061 13.0293 13.4039C13.157 13.393 13.2332 13.3439 13.3234 13.2562C13.4578 13.0402 13.4336 12.7867 13.4328 12.5416C13.4329 12.4988 13.433 12.4559 13.4331 12.4131C13.4333 12.2956 13.4332 12.1782 13.4331 12.0607C13.4329 11.9339 13.4331 11.8071 13.4333 11.6804C13.4335 11.4321 13.4335 11.1838 13.4333 10.9355C13.4332 10.7337 13.4332 10.5319 13.4332 10.3301C13.4332 10.287 13.4332 10.287 13.4332 10.2431C13.4333 10.1847 13.4333 10.1263 13.4333 10.068C13.4335 9.52069 13.4333 8.97342 13.433 8.42614C13.4327 7.95673 13.4328 7.48731 13.433 7.01789C13.4333 6.47265 13.4334 5.92741 13.4333 5.38218C13.4333 5.32401 13.4332 5.26585 13.4332 5.20768C13.4332 5.17906 13.4332 5.15044 13.4332 5.12096C13.4331 4.91946 13.4332 4.71795 13.4334 4.51645C13.4335 4.27079 13.4335 4.02512 13.4332 3.77946C13.433 3.65416 13.433 3.52886 13.4332 3.40356C13.4333 3.28876 13.4332 3.17397 13.4329 3.05917C13.4329 3.01774 13.4329 2.9763 13.433 2.93486C13.434 2.59957 13.4272 2.29351 13.2072 2.02305C12.9416 1.79677 12.668 1.77395 12.3331 1.76831C12.2907 1.76745 12.2907 1.76745 12.2475 1.76658C12.1578 1.7648 12.0681 1.76319 11.9784 1.76158C11.9174 1.76039 11.8563 1.7592 11.7953 1.758C11.6461 1.75508 11.4969 1.7523 11.3478 1.74961C11.3483 1.7944 11.3483 1.7944 11.3489 1.84009C11.3491 1.87975 11.3494 1.91941 11.3497 1.95907C11.35 1.97869 11.3502 1.99831 11.3505 2.01853C11.3518 2.28307 11.2785 2.5056 11.1017 2.70664C10.903 2.87844 10.6955 2.94062 10.4357 2.93383C10.2008 2.90642 9.99576 2.80716 9.84387 2.62461C9.65427 2.3135 9.67981 2.16197 9.67981 1.74961C8.1729 1.74961 6.66598 1.74961 5.1134 1.74961C5.1134 1.89399 5.1134 2.03836 5.1134 2.18711C5.06116 2.43965 4.96205 2.648 4.74768 2.80064C4.53318 2.92991 4.29734 2.9646 4.05244 2.90756C3.84533 2.84081 3.68164 2.74299 3.56667 2.55433C3.49776 2.41967 3.44174 2.30051 3.44276 2.14749C3.4429 2.11272 3.4429 2.11272 3.44303 2.07726C3.44338 2.04112 3.44338 2.04112 3.44373 2.00425C3.44385 1.97984 3.44397 1.95543 3.4441 1.93028C3.44442 1.87006 3.44487 1.80984 3.44544 1.74961C3.28688 1.75219 3.12833 1.75509 2.96979 1.75829C2.91596 1.75933 2.86213 1.76029 2.80829 1.76115C2.73049 1.76241 2.65271 1.76399 2.57492 1.76563C2.55121 1.76595 2.5275 1.76627 2.50307 1.76659C2.21704 1.77336 1.94802 1.81568 1.72855 2.01216C1.53761 2.21815 1.50153 2.46575 1.49538 2.73794C1.49481 2.75899 1.49424 2.78004 1.49366 2.80172C1.49188 2.86858 1.49026 2.93544 1.48865 3.0023C1.48747 3.04778 1.48627 3.09327 1.48507 3.13875C1.48215 3.24992 1.47938 3.36109 1.47669 3.47227C1.49775 3.47222 1.51882 3.47217 1.54052 3.47211C2.78837 3.46905 4.03621 3.46671 5.28406 3.46529C5.4338 3.46512 5.58355 3.46494 5.73329 3.46476C5.77801 3.46471 5.77801 3.46471 5.82363 3.46465C6.3067 3.46406 6.78976 3.46298 7.27283 3.46172C7.76829 3.46044 8.26375 3.45968 8.75922 3.45941C9.06508 3.45922 9.37094 3.45862 9.67681 3.45752C9.88639 3.45679 10.096 3.45657 10.3056 3.45675C10.4266 3.45684 10.5476 3.4567 10.6686 3.45597C10.7794 3.45531 10.8901 3.45527 11.0008 3.45574C11.0409 3.4558 11.081 3.45562 11.1212 3.4552C11.1756 3.45465 11.23 3.45502 11.2845 3.45545C11.3299 3.45537 11.3299 3.45537 11.3762 3.45529C11.4844 3.47797 11.5252 3.52423 11.5939 3.60899C11.627 3.72276 11.629 3.77981 11.587 3.89097C11.5392 3.96446 11.5392 3.96446 11.4572 4.01914C11.383 4.02594 11.383 4.02594 11.2912 4.02587C11.2563 4.02598 11.2213 4.02609 11.1853 4.0262C11.1464 4.02605 11.1074 4.02589 11.0684 4.02572C11.0272 4.02574 10.9859 4.02579 10.9447 4.02586C10.8311 4.02598 10.7175 4.02577 10.6039 4.02549C10.4815 4.02526 10.359 4.02534 10.2366 4.02538C10.0245 4.02541 9.81231 4.02523 9.60014 4.02493C9.29338 4.02448 8.98662 4.02434 8.67985 4.02427C8.18218 4.02415 7.68452 4.02379 7.18685 4.02327C6.70333 4.02277 6.21981 4.02238 5.7363 4.02215C5.70651 4.02213 5.67672 4.02212 5.64602 4.0221C5.49658 4.02203 5.34713 4.02196 5.19769 4.0219C3.95736 4.02133 2.71702 4.02037 1.47669 4.01914C1.47681 4.03621 1.47694 4.05328 1.47707 4.07086C1.48009 4.48621 1.48235 4.90156 1.48377 5.31692C1.48447 5.51778 1.48543 5.71864 1.487 5.9195C1.48836 6.09458 1.48924 6.26966 1.48955 6.44474C1.48973 6.53744 1.49015 6.63013 1.49114 6.72282C1.49213 6.82634 1.49227 6.92982 1.49221 7.03333C1.4927 7.06403 1.49319 7.09474 1.4937 7.12637C1.49232 7.33371 1.49232 7.33371 1.41323 7.44184C1.32045 7.50511 1.26078 7.51914 1.14856 7.51914C1.04334 7.48475 0.997927 7.4588 0.939422 7.36431C0.897237 7.26014 0.892219 7.18465 0.892234 7.07246C0.892125 7.05286 0.892017 7.03326 0.891905 7.01307C0.891642 6.9477 0.891964 6.88236 0.892286 6.81699C0.89222 6.77 0.892118 6.723 0.891983 6.67601C0.891726 6.54855 0.891984 6.4211 0.892348 6.29364C0.892658 6.16005 0.892545 6.02647 0.892492 5.89288C0.892467 5.66845 0.89277 5.44401 0.893274 5.21957C0.893852 4.96053 0.893949 4.70148 0.893778 4.44244C0.893622 4.19287 0.893777 3.9433 0.894084 3.69373C0.89421 3.58772 0.894235 3.48171 0.894177 3.3757C0.894125 3.25064 0.894349 3.12559 0.89478 3.00053C0.894896 2.95479 0.89492 2.90905 0.894843 2.86331C0.894124 2.35609 0.973821 1.94053 1.33463 1.56098C1.62647 1.28367 1.96337 1.19374 2.35329 1.1974C2.38458 1.19747 2.41587 1.19755 2.4481 1.19763C2.54756 1.19794 2.64701 1.19862 2.74646 1.19932C2.81409 1.19959 2.88172 1.19984 2.94935 1.20007C3.11471 1.20067 3.28007 1.20158 3.44544 1.20274C3.44458 1.17858 3.44458 1.17858 3.4437 1.15393C3.4414 1.07963 3.44 1.00533 3.4386 0.93101C3.43768 0.905684 3.43677 0.880359 3.43582 0.854266C3.4321 0.589304 3.51783 0.403145 3.69719 0.21078C3.94939 -0.031535 4.36395 -0.0957887 4.67622 0.0729927ZM4.047 0.683207C4.01313 0.750934 4.01582 0.796695 4.01525 0.872457C4.01499 0.900479 4.01472 0.9285 4.01445 0.957371C4.01434 0.987761 4.01422 1.01815 4.0141 1.04946C4.01394 1.08062 4.01379 1.11178 4.01363 1.14388C4.01337 1.20992 4.01319 1.27596 4.01308 1.342C4.01282 1.443 4.01197 1.54399 4.01111 1.64499C4.01093 1.7091 4.01079 1.7732 4.01068 1.83731C4.01034 1.86753 4.01001 1.89775 4.00966 1.9289C4.00974 1.95718 4.00982 1.98546 4.00991 2.01459C4.00981 2.03938 4.00971 2.06417 4.00961 2.08972C4.02444 2.19316 4.06722 2.26941 4.14954 2.33409C4.24226 2.35984 4.30977 2.34701 4.40247 2.32383C4.48093 2.26189 4.50744 2.22766 4.53919 2.13243C4.54197 2.08926 4.54324 2.04598 4.54359 2.00272C4.54385 1.97643 4.54412 1.95015 4.54439 1.92306C4.5445 1.89469 4.54462 1.86632 4.54474 1.83709C4.54497 1.79324 4.54497 1.79324 4.54521 1.7485C4.54547 1.6866 4.54565 1.62471 4.54575 1.56281C4.54602 1.46829 4.54687 1.37378 4.54773 1.27927C4.54791 1.21912 4.54805 1.15896 4.54816 1.09881C4.54849 1.07061 4.54883 1.0424 4.54918 1.01335C4.54872 0.865228 4.54397 0.754816 4.45715 0.628519C4.30148 0.524738 4.17536 0.55484 4.047 0.683207ZM10.2814 0.683207C10.2475 0.750934 10.2502 0.796695 10.2496 0.872457C10.2494 0.900479 10.2491 0.9285 10.2488 0.957371C10.2487 0.987761 10.2486 1.01815 10.2485 1.04946C10.2483 1.08062 10.2482 1.11178 10.248 1.14388C10.2477 1.20992 10.2476 1.27596 10.2475 1.342C10.2472 1.443 10.2463 1.54399 10.2455 1.64499C10.2453 1.7091 10.2452 1.7732 10.2451 1.83731C10.2447 1.86753 10.2444 1.89775 10.244 1.9289C10.2441 1.95718 10.2442 1.98546 10.2443 2.01459C10.2442 2.03938 10.2441 2.06417 10.244 2.08972C10.2588 2.19316 10.3016 2.26941 10.3839 2.33409C10.4766 2.35984 10.5441 2.34701 10.6368 2.32383C10.7153 2.26189 10.7418 2.22766 10.7736 2.13243C10.7763 2.08926 10.7776 2.04598 10.778 2.00272C10.7782 1.97643 10.7785 1.95015 10.7788 1.92306C10.7789 1.89469 10.779 1.86632 10.7791 1.83709C10.7793 1.79324 10.7793 1.79324 10.7796 1.7485C10.7798 1.6866 10.78 1.62471 10.7801 1.56281C10.7804 1.46829 10.7812 1.37378 10.7821 1.27927C10.7823 1.21912 10.7824 1.15896 10.7825 1.09881C10.7829 1.07061 10.7832 1.0424 10.7836 1.01335C10.7831 0.865228 10.7783 0.754816 10.6915 0.628519C10.5359 0.524738 10.4097 0.55484 10.2814 0.683207ZM1.23059 9.13243C0.913103 9.53211 0.750644 9.95813 0.793091 10.4723C0.863308 10.936 1.08245 11.3458 1.4613 11.631C1.59739 11.7235 1.73471 11.8038 1.88684 11.8668C1.91841 11.8799 1.91841 11.8799 1.95061 11.8933C2.31471 12.0171 2.76749 11.9887 3.11731 11.8395C3.14064 11.8302 3.16398 11.8209 3.18802 11.8114C3.59147 11.6325 3.86983 11.302 4.04529 10.9046C4.21342 10.4611 4.19436 10.004 4.01186 9.568C3.80462 9.16276 3.48218 8.86881 3.06262 8.69493C3.04158 8.68618 3.02054 8.67744 2.99886 8.66844C2.38883 8.46093 1.66032 8.65946 1.23059 9.13243Z" fill="#808284"/>
<path d="M11.7958 8.40537C12.0427 8.55707 12.2142 8.75667 12.3085 9.03235C12.3744 9.3131 12.3605 9.61507 12.2227 9.87114C12.0782 10.1017 11.8811 10.2774 11.6237 10.3716C11.3163 10.441 10.99 10.4223 10.7188 10.254C10.4479 10.0648 10.3017 9.82389 10.2403 9.50029C10.2035 9.17843 10.2971 8.89934 10.4871 8.6379C10.8046 8.28557 11.377 8.19857 11.7958 8.40537ZM10.9171 9.04058C10.8255 9.16096 10.7897 9.29353 10.8093 9.44368C10.8526 9.60344 10.9354 9.70072 11.0743 9.78911C11.2067 9.83324 11.3528 9.84317 11.4864 9.7968C11.6209 9.72459 11.7097 9.63281 11.7579 9.48833C11.778 9.30007 11.7617 9.17649 11.6485 9.02349C11.5121 8.8971 11.405 8.87838 11.2247 8.881C11.0881 8.89252 11.0141 8.94797 10.9171 9.04058Z" fill="#808284"/>
<path d="M11.7958 5.56162C12.0427 5.71332 12.2142 5.91292 12.3085 6.1886C12.3744 6.46935 12.3605 6.77132 12.2227 7.02739C12.0782 7.25794 11.8811 7.43367 11.6237 7.52781C11.3163 7.59729 10.99 7.57858 10.7188 7.41021C10.4479 7.22109 10.3017 6.98014 10.2403 6.65654C10.2035 6.33468 10.2971 6.05559 10.4871 5.79415C10.8046 5.44182 11.377 5.35482 11.7958 5.56162ZM10.9171 6.19683C10.8255 6.31721 10.7897 6.44978 10.8093 6.59993C10.8526 6.75969 10.9354 6.85697 11.0743 6.94536C11.2067 6.98949 11.3528 6.99942 11.4864 6.95305C11.6209 6.88084 11.7097 6.78906 11.7579 6.64458C11.778 6.45632 11.7617 6.33274 11.6485 6.17974C11.5121 6.05335 11.405 6.03463 11.2247 6.03725C11.0881 6.04877 11.0141 6.10422 10.9171 6.19683Z" fill="#808284"/>
<path d="M4.13955 5.56162C4.38648 5.71332 4.55798 5.91292 4.65224 6.1886C4.71818 6.46935 4.70426 6.77132 4.56647 7.02739C4.42193 7.25794 4.22485 7.43367 3.96748 7.52781C3.66004 7.59729 3.33371 7.57858 3.06257 7.41021C2.79163 7.22109 2.64547 6.98014 2.58405 6.65654C2.54727 6.33468 2.64089 6.05559 2.83089 5.79415C3.1483 5.44182 3.72073 5.35482 4.13955 5.56162ZM3.26081 6.19683C3.16926 6.31721 3.13346 6.44978 3.15304 6.59993C3.19634 6.75969 3.27914 6.85697 3.41804 6.94536C3.55041 6.98949 3.69656 6.99942 3.83012 6.95305C3.96464 6.88084 4.05347 6.78906 4.10163 6.64458C4.12171 6.45632 4.10548 6.33274 3.99226 6.17974C3.85589 6.05335 3.74872 6.03463 3.56843 6.03725C3.43188 6.04877 3.35783 6.10422 3.26081 6.19683Z" fill="#808284"/>
<path d="M9.29057 8.43908C9.53668 8.60447 9.70751 8.82201 9.77699 9.11402C9.82787 9.41976 9.77955 9.70148 9.60641 9.95911C9.44283 10.1755 9.23141 10.3262 8.96875 10.3897C8.89167 10.3976 8.81548 10.3988 8.73804 10.3982C8.71747 10.3981 8.69691 10.3979 8.67572 10.3978C8.39459 10.3918 8.17132 10.273 7.96558 10.0838C7.77808 9.88685 7.68673 9.62729 7.67334 9.35915C7.68086 9.05394 7.79508 8.79717 8.0114 8.5868C8.35998 8.27104 8.8777 8.191 9.29057 8.43908ZM8.34497 9.06692C8.25955 9.17611 8.25094 9.29752 8.25781 9.43264C8.30267 9.60084 8.39399 9.68955 8.53125 9.78811C8.65069 9.84783 8.82008 9.83673 8.94525 9.79676C9.08847 9.72173 9.16472 9.61036 9.21484 9.45998C9.22497 9.30548 9.219 9.21091 9.13281 9.07717C9.03782 8.96999 8.96044 8.89534 8.81601 8.87658C8.59893 8.87354 8.50459 8.91794 8.34497 9.06692Z" fill="#808284"/>
<path d="M6.82904 8.50343C7.04807 8.6847 7.19735 8.91366 7.24112 9.19749C7.25799 9.44256 7.2312 9.65737 7.10942 9.87201C7.0942 9.89964 7.07897 9.92728 7.06328 9.95575C6.88587 10.1811 6.6629 10.3603 6.37059 10.3988C6.04722 10.4253 5.77983 10.3782 5.51494 10.1813C5.29196 9.99021 5.15664 9.76169 5.13202 9.46805C5.12277 9.24669 5.14025 9.05682 5.25005 8.86029C5.26101 8.83932 5.27197 8.81834 5.28327 8.79674C5.41232 8.57641 5.63835 8.39243 5.88718 8.32452C6.23425 8.27229 6.53616 8.29554 6.82904 8.50343ZM5.78656 9.06644C5.71188 9.17624 5.69518 9.28774 5.70079 9.41902C5.73273 9.578 5.82595 9.69461 5.95244 9.79169C6.12078 9.83933 6.27879 9.84923 6.43779 9.77118C6.55805 9.66265 6.63722 9.56804 6.67192 9.40716C6.67474 9.25112 6.63528 9.14666 6.5352 9.02435C6.3937 8.89969 6.30841 8.87614 6.12216 8.87834C5.97843 8.89522 5.88195 8.95997 5.78656 9.06644Z" fill="#808284"/>
<path d="M9.29057 5.59533C9.53668 5.76072 9.70751 5.97826 9.77699 6.27027C9.82787 6.57601 9.77955 6.85773 9.60641 7.11536C9.44283 7.3317 9.23141 7.48245 8.96875 7.54592C8.89167 7.55381 8.81548 7.55506 8.73804 7.55446C8.71747 7.55433 8.69691 7.5542 8.67572 7.55406C8.39459 7.54809 8.17132 7.42928 7.96558 7.24001C7.77808 7.0431 7.68673 6.78354 7.67334 6.5154C7.68086 6.21019 7.79508 5.95342 8.0114 5.74305C8.35998 5.42729 8.8777 5.34725 9.29057 5.59533ZM8.34497 6.22317C8.25955 6.33236 8.25094 6.45377 8.25781 6.58889C8.30267 6.75709 8.39399 6.8458 8.53125 6.94436C8.65069 7.00408 8.82008 6.99298 8.94525 6.95301C9.08847 6.87798 9.16472 6.76661 9.21484 6.61623C9.22497 6.46173 9.219 6.36716 9.13281 6.23342C9.03782 6.12624 8.96044 6.05159 8.81601 6.03283C8.59893 6.02979 8.50459 6.07419 8.34497 6.22317Z" fill="#808284"/>
<path d="M6.82904 5.65968C7.04807 5.84095 7.19735 6.06991 7.24112 6.35374C7.25799 6.59881 7.2312 6.81362 7.10942 7.02826C7.0942 7.05589 7.07897 7.08353 7.06328 7.112C6.88587 7.33735 6.6629 7.51656 6.37059 7.55507C6.04722 7.58155 5.77983 7.53448 5.51494 7.33758C5.29196 7.14646 5.15664 6.91794 5.13202 6.6243C5.12277 6.40294 5.14025 6.21307 5.25005 6.01654C5.26101 5.99557 5.27197 5.97459 5.28327 5.95299C5.41232 5.73266 5.63835 5.54868 5.88718 5.48077C6.23425 5.42854 6.53616 5.45179 6.82904 5.65968ZM5.78656 6.22269C5.71188 6.33249 5.69518 6.44399 5.70079 6.57527C5.73273 6.73425 5.82595 6.85086 5.95244 6.94794C6.12078 6.99558 6.27879 7.00548 6.43779 6.92743C6.55805 6.8189 6.63722 6.72429 6.67192 6.56341C6.67474 6.40737 6.63528 6.30291 6.5352 6.1806C6.3937 6.05594 6.30841 6.03239 6.12216 6.03459C5.97843 6.05147 5.88195 6.11622 5.78656 6.22269Z" fill="#808284"/>
<path d="M3.39077 9.54303C3.4698 9.60488 3.51586 9.65214 3.55483 9.74469C3.55483 9.94399 3.4282 10.0654 3.29608 10.1991C3.27241 10.2224 3.24874 10.2458 3.22436 10.2699C3.19991 10.2944 3.17547 10.3189 3.15028 10.3441C3.0987 10.3956 3.04701 10.447 2.99514 10.4983C2.92883 10.5638 2.86295 10.6298 2.7972 10.6959C2.73415 10.7592 2.67077 10.8221 2.60741 10.8851C2.58385 10.9088 2.56029 10.9324 2.53602 10.9568C2.51385 10.9786 2.49168 11.0004 2.46884 11.0229C2.44947 11.0421 2.43011 11.0613 2.41016 11.0811C2.32005 11.1549 2.24351 11.182 2.12783 11.1888C1.96606 11.1384 1.86865 11.0278 1.75014 10.9102C1.72526 10.8864 1.70037 10.8625 1.67473 10.8379C1.41199 10.5824 1.41199 10.5824 1.38282 10.4437C1.38261 10.3396 1.38817 10.2915 1.44594 10.201C1.537 10.1126 1.61012 10.1001 1.73423 10.1003C1.88041 10.1354 1.97517 10.2602 2.07827 10.3633C2.11444 10.3911 2.15085 10.4185 2.18764 10.4454C2.21246 10.4201 2.23728 10.3949 2.26285 10.3689C2.35529 10.2749 2.448 10.1813 2.54079 10.0877C2.58086 10.0472 2.62085 10.0067 2.66076 9.96607C2.71827 9.90757 2.77603 9.84934 2.83385 9.79115C2.86039 9.76398 2.86039 9.76398 2.88747 9.73625C3.03978 9.58389 3.16655 9.4778 3.39077 9.54303Z" fill="#808284"/>
<path d="M8.03479 11.962C8.12913 11.9839 8.1733 12.0373 8.23047 12.1124C8.2784 12.2082 8.25679 12.3118 8.23047 12.4132C8.16643 12.4843 8.1169 12.5134 8.02881 12.5482C7.92236 12.5507 7.85743 12.5206 7.76562 12.4678C7.69786 12.3747 7.68359 12.3215 7.68359 12.2064C7.73929 12.0149 7.84299 11.9518 8.03479 11.962Z" fill="#808284"/>
<path d="M12.7421 3.4719C12.8425 3.5409 12.8722 3.58593 12.9062 3.70261C12.9062 3.81454 12.8848 3.87086 12.8241 3.96408C12.7142 4.03734 12.6252 4.03781 12.496 4.01877C12.4175 3.96972 12.3732 3.93721 12.3319 3.85471C12.3161 3.66085 12.3161 3.66085 12.3832 3.55564C12.4898 3.45215 12.599 3.45039 12.7421 3.4719Z" fill="#808284"/>
</g>
<defs>
<clipPath id="clip0_6398_9419">
<rect width="14" height="14" fill="white"/>
</clipPath>
</defs>
</svg>
