<svg xmlns="http://www.w3.org/2000/svg" width="24" height="24" viewBox="0 0 24 24" fill="none">
  <path d="M8.82728 11.2922C8.70857 11.2923 8.59468 11.2452 8.51066 11.1613L6.46364 9.1132C6.16179 8.81088 5.99225 8.40113 5.99225 7.97392C5.99225 7.54671 6.16179 7.13696 6.46364 6.83465C6.77049 6.54151 7.17854 6.37793 7.60291 6.37793C8.02728 6.37793 8.43533 6.54151 8.74219 6.83465L8.82728 6.91975L8.91238 6.83465C9.21924 6.54151 9.62728 6.37793 10.0517 6.37793C10.476 6.37793 10.8841 6.54151 11.1909 6.83465C11.3407 6.98424 11.4595 7.16188 11.5406 7.35743C11.6217 7.55297 11.6634 7.76257 11.6634 7.97426C11.6634 8.18594 11.6217 8.39554 11.5406 8.59109C11.4595 8.78663 11.3407 8.96428 11.1909 9.11386L9.14457 11.1613C9.10288 11.2029 9.05339 11.2359 8.99895 11.2584C8.94451 11.2808 8.88618 11.2923 8.82728 11.2922ZM7.60213 7.25836C7.46051 7.25828 7.32206 7.30022 7.20428 7.37887C7.08651 7.45752 6.99472 7.56934 6.94053 7.70018C6.88634 7.83102 6.87218 7.97499 6.89985 8.11388C6.92753 8.25277 6.99578 8.38033 7.09599 8.4804L8.82662 10.2117L10.5572 8.4804C10.6238 8.41402 10.6767 8.33515 10.7127 8.24832C10.7488 8.16148 10.7673 8.06839 10.7673 7.97437C10.7673 7.88035 10.7488 7.78725 10.7127 7.70042C10.6767 7.61358 10.6238 7.53471 10.5572 7.46833C10.4211 7.33777 10.2398 7.26486 10.0512 7.26486C9.8626 7.26486 9.68129 7.33777 9.54518 7.46833L9.14279 7.86827C9.10136 7.9099 9.0521 7.94294 8.99786 7.96548C8.94362 7.98802 8.88547 7.99963 8.82673 7.99963C8.76799 7.99963 8.70983 7.98802 8.65559 7.96548C8.60135 7.94294 8.5521 7.9099 8.51066 7.86827L8.1085 7.46833C8.04219 7.40157 7.96329 7.34863 7.87637 7.31258C7.78944 7.27654 7.69623 7.25811 7.60213 7.25836Z" fill="#808284"/>
  <path d="M8.82767 15.6554C7.47725 15.6555 6.15716 15.2551 5.03433 14.5048C3.9115 13.7546 3.03638 12.6882 2.51963 11.4406C2.00289 10.1929 1.86774 8.82009 2.13127 7.49564C2.39481 6.1712 3.04519 4.95464 4.00016 3.99985C4.63419 3.36582 5.38689 2.86288 6.21529 2.51974C7.04369 2.17661 7.93157 2 8.82822 2C9.72487 2 10.6128 2.17661 11.4411 2.51974C12.2695 2.86288 13.0223 3.36582 13.6563 3.99985C14.2903 4.63388 14.7933 5.38658 15.1364 6.21498C15.4795 7.04338 15.6561 7.93125 15.6561 8.82791C15.6561 9.72456 15.4795 10.6124 15.1364 11.4408C14.7933 12.2692 14.2903 13.0219 13.6563 13.656C13.0236 14.2919 12.271 14.796 11.4422 15.1393C10.6134 15.4825 9.72473 15.6579 8.82767 15.6554ZM8.82767 2.89557C7.45519 2.89595 6.1253 3.3722 5.0646 4.24318C4.00389 5.11415 3.27799 6.32596 3.01058 7.67213C2.74316 9.0183 2.95078 10.4156 3.59805 11.6258C4.24532 12.8361 5.2922 13.7845 6.56032 14.3094C7.82844 14.8343 9.23935 14.9033 10.5526 14.5047C11.8659 14.106 13.0004 13.2643 13.7626 12.1229C14.5249 10.9816 14.8679 9.61128 14.7331 8.24544C14.5983 6.8796 13.9941 5.60274 13.0235 4.63242C12.4737 4.0798 11.8198 3.64174 11.0996 3.3436C10.3794 3.04546 9.60716 2.89318 8.82767 2.89557Z" fill="#808284"/>
  <path d="M8.82722 13.7539C7.68777 13.7542 6.58347 13.3594 5.70246 12.6368C4.82145 11.9142 4.21823 10.9085 3.99559 9.791C3.77294 8.67352 3.94463 7.51341 4.48142 6.50833C5.0182 5.50324 5.88686 4.71537 6.93941 4.27893C7.99196 3.8425 9.16327 3.78451 10.2538 4.11484C11.3443 4.44517 12.2865 5.14339 12.92 6.09053C13.5534 7.03767 13.8389 8.17515 13.7277 9.30915C13.6165 10.4432 13.1156 11.5035 12.3103 12.3096C11.8542 12.7689 11.3114 13.1331 10.7135 13.381C10.1156 13.6289 9.47447 13.7556 8.82722 13.7539ZM8.82722 4.79963C7.89498 4.80042 6.99186 5.12442 6.27173 5.71643C5.55161 6.30845 5.05904 7.13185 4.87795 8.04632C4.69687 8.9608 4.83847 9.90978 5.27863 10.7316C5.71879 11.5533 6.43028 12.1971 7.29187 12.5531C8.15345 12.9091 9.11182 12.9553 10.0037 12.6839C10.8955 12.4125 11.6657 11.8403 12.1829 11.0647C12.7001 10.2891 12.9325 9.35815 12.8402 8.43048C12.748 7.50282 12.337 6.63583 11.6772 5.97724C11.3038 5.60195 10.8596 5.3045 10.3704 5.10209C9.88116 4.89968 9.35665 4.79635 8.82722 4.79808V4.79963Z" fill="#808284"/>
  <path d="M18.8253 21.9971C18.7665 21.9971 18.7083 21.9855 18.654 21.963C18.5997 21.9405 18.5503 21.9074 18.5089 21.8657L13.0523 16.4108C12.9684 16.3268 12.9213 16.2129 12.9213 16.0942C12.9213 15.9754 12.9684 15.8615 13.0523 15.7775L15.7786 13.0513C15.8202 13.0096 15.8695 12.9766 15.9238 12.9541C15.9782 12.9315 16.0364 12.9199 16.0952 12.9199C16.154 12.9199 16.2123 12.9315 16.2666 12.9541C16.3209 12.9766 16.3703 13.0096 16.4118 13.0513L21.8688 18.5065C21.9104 18.548 21.9434 18.5974 21.9659 18.6517C21.9884 18.706 22 18.7642 22 18.823C22 18.8818 21.9884 18.94 21.9659 18.9943C21.9434 19.0486 21.9104 19.0979 21.8688 19.1395L19.1419 21.8657C19.1004 21.9074 19.051 21.9405 18.9967 21.963C18.9423 21.9855 18.8841 21.9971 18.8253 21.9971ZM14.0022 16.0942L18.8253 20.9157L20.919 18.8224L16.0961 14.0009L14.0022 16.0942Z" fill="#808284"/>
  <path d="M13.0211 13.6553L13.6541 13.0222L15.0458 14.4139L14.4127 15.0469L13.0211 13.6553Z" fill="#808284"/>
</svg>