<svg width="64" height="64" viewBox="0 0 64 64" fill="none" xmlns="http://www.w3.org/2000/svg">
<path d="M53.0277 26.2926C47.8463 36.1486 40.0895 48.8065 36.2149 48.603C30.0709 48.2791 23.7375 36.8449 20.0473 27.2628C18.4793 23.1899 21.3414 19.1796 30.7174 24.6759C37.1404 28.4417 44.2316 20.4289 48.6847 14.9927C44.641 12.1372 39.811 10.6064 34.8607 10.6113C21.5769 10.6113 10.8134 21.3761 10.8134 34.6535C10.8134 47.931 21.5769 58.6945 34.8556 58.6945C48.1343 58.6945 58.8965 47.931 58.8965 34.6535C58.9024 30.1479 57.6357 25.7323 55.2421 21.915C54.5953 23.2581 53.8572 24.7173 53.0277 26.2926Z" fill="#79CE4B"/>
<path d="M55.2321 21.9366C64.9819 1.77917 55.3601 7.08861 51.0875 12.0665C50.4193 12.846 49.604 13.8688 48.6772 15.0016C51.302 16.854 53.5305 19.2117 55.2321 21.9366Z" fill="#FFA742"/>
<path d="M48.677 15.0016L48.7666 14.8903C44.3199 20.329 37.18 28.4647 30.7186 24.6759C21.3413 19.1796 18.4805 23.1898 20.0485 27.2628C23.7375 36.8449 30.0722 48.2791 36.2149 48.6029C40.0895 48.8064 47.8475 36.1498 53.029 26.2925C53.8533 24.7233 54.588 23.2726 55.2331 21.9405C53.5313 19.2144 51.3023 16.8553 48.677 15.0016Z" fill="#318230"/>
<path d="M55.2473 21.9034L55.2395 21.9202L55.2473 21.9034Z" fill="#318230"/>
</svg>
