<svg width="24" height="24" viewBox="0 0 24 24" fill="none" xmlns="http://www.w3.org/2000/svg">
  <path d="M17.17 7.84987L10.49 14.5299L6.60997 10.6499C6.42261 10.4636 6.16916 10.3591 5.90497 10.3591C5.64079 10.3591 5.38733 10.4636 5.19997 10.6499C5.01372 10.8372 4.90918 11.0907 4.90918 11.3549C4.90918 11.6191 5.01372 11.8725 5.19997 12.0599L9.78997 16.6499C9.97733 16.8361 10.2308 16.9407 10.495 16.9407C10.7592 16.9407 11.0126 16.8361 11.2 16.6499L18.58 9.26988C18.6737 9.17691 18.7481 9.06631 18.7989 8.94445C18.8496 8.82259 18.8758 8.69189 18.8758 8.55988C18.8758 8.42786 18.8496 8.29716 18.7989 8.1753C18.7481 8.05344 18.6737 7.94284 18.58 7.84987C18.3926 7.66362 18.1392 7.55908 17.875 7.55908C17.6108 7.55908 17.3573 7.66362 17.17 7.84987Z" fill="#B4ADAD"/>
  </svg>
  