<svg width="25" height="24" viewBox="0 0 25 24" fill="none" xmlns="http://www.w3.org/2000/svg">
<path d="M12.6158 20.999C12.1725 20.9966 11.7319 20.9303 11.308 20.802C10.8431 20.6613 10.3938 20.4746 9.96686 20.2449C9.38298 19.9485 8.82519 19.6045 8.29931 19.2165C7.82599 18.8505 7.37864 18.4529 6.96039 18.0265C6.39386 17.4672 5.8654 16.895 5.43083 16.3695C4.95019 15.8102 4.53518 15.199 4.19373 14.5475L4.16486 14.488V14.4862L4.1582 14.4724V14.4693V14.4661L4.12458 14.395L4.12236 14.3903L4.12014 14.3856L4.08842 14.3171L4.08429 14.3083V14.3058L4.06082 14.2544L4.05352 14.2385L4.04813 14.2262L4.04369 14.2165V14.2147L4.01926 14.1598L4.01673 14.1536L4.01007 14.1476L3.9812 14.0812L3.97644 14.0703L3.94821 14.003L3.94631 13.9986L3.9444 13.9942L3.91776 13.9284L3.91459 13.9206L3.88889 13.8558V13.8536L3.8854 13.8448L3.86098 13.7822L3.85876 13.7759L3.8559 13.7687C3.84829 13.7487 3.841 13.7286 3.83338 13.708V13.7039L3.82894 13.6917C3.82038 13.6685 3.81372 13.6494 3.80769 13.6325V13.6287L3.80293 13.6146L3.77819 13.5526L3.77216 13.5345L3.75281 13.4768L3.74964 13.4678L3.7471 13.4587C3.74012 13.4374 3.73441 13.4189 3.72902 13.402L3.72363 13.3841L3.70809 13.3334L3.70523 13.3237V13.3218L3.70206 13.3109L3.6862 13.2608L3.68366 13.2523L3.68112 13.2395C3.67573 13.2197 3.67097 13.2025 3.66653 13.1862L3.66336 13.1768L3.66051 13.1665C3.65638 13.1505 3.65162 13.1333 3.64687 13.1139L3.64211 13.0951V13.0907C3.63862 13.0766 3.63386 13.0594 3.62942 13.0394L3.62276 13.0146C3.61895 12.9993 3.61515 12.9833 3.61102 12.9639L3.60848 12.952L3.60563 12.9395C3.60182 12.9225 3.59833 12.9056 3.59484 12.889L3.59104 12.8659C3.5885 12.854 3.58628 12.8421 3.58374 12.8302V12.8239V12.8186V12.8167L3.57898 12.7916V12.7885L3.57232 12.7519C3.5701 12.7403 3.5682 12.7287 3.5663 12.7171L3.55995 12.6789C3.55805 12.6679 3.55646 12.657 3.55456 12.6476C3.55266 12.6382 3.55044 12.6203 3.54822 12.6066L3.54631 12.5931L3.54441 12.5796C3.54219 12.5637 3.53997 12.5483 3.53806 12.5323L3.53077 12.5079V12.5035C3.5276 12.4854 3.5276 12.4703 3.52442 12.4566C3.52442 12.4481 3.52252 12.4396 3.52157 12.4312V12.4281C3.51998 12.413 3.5184 12.3967 3.51681 12.3817C3.51681 12.3729 3.51523 12.3639 3.51427 12.3551V12.3532C3.51301 12.3403 3.51184 12.3273 3.51078 12.3144C3.51078 12.3028 3.50888 12.2915 3.50825 12.2799C3.50761 12.2683 3.50666 12.2571 3.50571 12.2458C3.50571 12.233 3.50412 12.2201 3.50349 12.207C3.50285 12.1938 3.50349 12.1854 3.50159 12.1756C3.49968 12.1659 3.50159 12.1497 3.5 12.1368V12.1349C3.5 12.124 3.5 12.113 3.5 12.1021C3.5 12.0911 3.5 12.0848 3.5 12.0764V12.0638C3.5 12.0519 3.5 12.0397 3.5 12.0278C3.5 12.0159 3.5 12.0084 3.5 11.9987V11.9257C3.5 11.9107 3.5 11.8957 3.5 11.8806C3.5 11.87 3.5 11.8594 3.5 11.8493C3.5 11.8393 3.5 11.8227 3.5 11.8092C3.5 11.8017 3.5 11.7945 3.5 11.787V11.7761C3.5 11.7591 3.5 11.7447 3.50222 11.7303C3.50222 11.7219 3.50222 11.7131 3.50222 11.7046C3.50222 11.6909 3.50381 11.6762 3.50508 11.6586C3.50508 11.6505 3.50508 11.642 3.50698 11.6339C3.50698 11.6182 3.50952 11.6026 3.51078 11.5869V11.5716V11.5606C3.51227 11.5449 3.51385 11.5293 3.51554 11.5136L3.51808 11.4889V11.4839C3.51808 11.4698 3.52125 11.4544 3.52379 11.4363C3.52379 11.4306 3.52379 11.425 3.52601 11.4194V11.4112V11.4081C3.52791 11.3924 3.53013 11.3768 3.53235 11.3611L3.53553 11.3389C3.53806 11.322 3.5406 11.3051 3.54314 11.2885L3.54631 11.2697V11.2668C3.54885 11.2512 3.5517 11.234 3.55519 11.2142L3.559 11.1923C3.56217 11.1742 3.56566 11.1557 3.56915 11.1372L3.57201 11.1228V11.115C3.57549 11.0968 3.5793 11.078 3.58311 11.0598L3.58628 11.0442V11.0414C3.59009 11.0232 3.59421 11.0044 3.59833 10.9859V10.98L3.60087 10.9684C3.60468 10.9512 3.60912 10.933 3.61419 10.9117L3.61832 10.8951C3.62276 10.8773 3.62752 10.8579 3.63354 10.8341L3.63576 10.8256L3.63767 10.8187C3.64306 10.7977 3.64877 10.7764 3.65511 10.7533L3.6567 10.7473L3.6586 10.7407C3.66495 10.7179 3.67066 10.6975 3.67605 10.6781L3.68017 10.6637C3.68557 10.6452 3.69223 10.6233 3.69889 10.6011V10.5986L3.70238 10.5873C3.70936 10.5647 3.71633 10.5428 3.72268 10.5228L3.72617 10.5118C3.73315 10.4902 3.74076 10.467 3.74964 10.4407L3.75154 10.4348V10.4326C3.75947 10.4088 3.76804 10.3847 3.77565 10.3624L3.77946 10.3521C3.78739 10.3292 3.79595 10.3061 3.80388 10.2845L3.80579 10.2794L3.80769 10.2744C3.81752 10.2481 3.82577 10.2265 3.83338 10.2059L3.83655 10.1974C3.84575 10.1739 3.85527 10.1495 3.8651 10.1247L3.86701 10.12C3.87652 10.0959 3.88699 10.0706 3.89873 10.0424L3.90095 10.0371C3.91173 10.0111 3.92188 9.98664 3.93267 9.96284L3.93616 9.95469C3.94536 9.93308 3.95551 9.90991 3.96788 9.88204L3.97168 9.87358C3.9812 9.85229 3.99167 9.82849 4.00531 9.79905L4.00816 9.79279C4.02244 9.76147 4.03449 9.73579 4.04559 9.7123C4.70665 8.30933 5.69506 7.33226 6.6527 6.38776L6.67173 6.36897C7.22875 5.81906 7.74865 5.34963 8.26093 4.93406C8.84684 4.45366 9.47112 4.02082 10.1277 3.63976C10.4927 3.42533 10.8843 3.25859 11.2928 3.1437C11.6428 3.04818 12.0043 2.99951 12.3675 2.99902C12.8559 3.0025 13.3405 3.08393 13.8025 3.24016C14.2446 3.3893 14.6725 3.57678 15.0812 3.80041C15.7338 4.14644 16.36 4.53915 16.9546 4.9754C17.5142 5.38695 18.043 5.83794 18.5368 6.32482C19.0522 6.83958 19.524 7.39522 19.9474 7.98615C20.3431 8.51373 20.6696 9.08855 20.9193 9.69696C21.0821 10.1224 21.2204 10.5567 21.3336 10.9975C21.4323 11.3807 21.4878 11.7735 21.4992 12.1688C21.507 12.5561 21.4595 12.9426 21.358 13.3168C21.2385 13.745 21.0687 14.158 20.8521 14.5472C20.5435 15.1185 20.1825 15.6605 19.7736 16.1666C19.3663 16.6633 18.9304 17.1365 18.468 17.5837C17.9684 18.0768 17.4421 18.5428 16.8914 18.9797C16.3151 19.4379 15.7106 19.8604 15.0815 20.2449C14.3487 20.722 13.4935 20.9836 12.6158 20.999ZM13.9655 19.0042C13.5996 19.2169 13.2042 19.3759 12.7919 19.4764C13.2042 19.376 13.5996 19.2169 13.9655 19.0042ZM8.58068 18.2858C8.61906 18.3115 8.65871 18.3374 8.69836 18.3628C8.65458 18.3346 8.6162 18.3093 8.58068 18.2858ZM7.24143 17.1825L7.309 17.2473L7.24143 17.1825ZM7.88758 10.877L7.86665 10.9217V10.9252L7.84793 10.9665L7.84603 10.9712L7.82826 11.0116V11.0138V11.016L7.81082 11.0573V11.0602L7.79337 11.1031V11.1049L7.77751 11.1453V11.1482V11.1507L7.76324 11.1886L7.76133 11.1933L7.74769 11.2308V11.234V11.2365C7.74325 11.2484 7.73913 11.2612 7.73437 11.2753V11.2784C7.72898 11.2944 7.72486 11.3063 7.72137 11.3179L7.71946 11.3238L7.70836 11.3599L7.70614 11.3674C7.70255 11.3789 7.69906 11.3903 7.69567 11.4018V11.4059V11.41L7.68584 11.4444L7.66966 11.4544L7.66776 11.4619L7.66015 11.4901L7.65793 11.4986C7.65507 11.5099 7.65222 11.5211 7.64936 11.5324L7.64714 11.5415L7.63984 11.5728L7.63794 11.5816L7.6354 11.5935L7.63128 11.6126V11.6176V11.6229L7.62589 11.6489V11.6539L7.61954 11.6702L7.61574 11.6902L7.61383 11.7009V11.7056V11.7122C7.61225 11.7219 7.61066 11.7313 7.60908 11.741L7.60717 11.7529L7.60305 11.7811L7.60115 11.793C7.60115 11.8024 7.59861 11.8114 7.59734 11.8208V11.828V11.8352C7.59734 11.844 7.59512 11.8528 7.59417 11.8615V11.8703V11.8781V11.8866C7.59417 11.8925 7.59417 11.8985 7.59258 11.9041V11.9189V11.9267C7.59258 11.9326 7.59258 11.9389 7.59258 11.9448C7.59258 11.9508 7.59258 11.9539 7.59258 11.9586C7.59258 11.9633 7.59258 11.9749 7.59099 11.9831C7.59099 11.9862 7.59099 11.9893 7.59099 11.9928V11.9984C7.59099 12.0065 7.59099 12.0147 7.59099 12.0231C7.59099 12.0316 7.59099 12.035 7.59099 12.041C7.59099 12.0479 7.59099 12.0551 7.59099 12.062V12.0817C7.59099 12.0895 7.59099 12.0974 7.59099 12.1052V12.1619C7.59099 12.1684 7.59099 12.1753 7.59099 12.1819C7.59099 12.1885 7.59099 12.196 7.59099 12.2032V12.2214C7.59099 12.2289 7.59099 12.2364 7.59099 12.2439V12.253V12.2621C7.59099 12.2671 7.59099 12.2718 7.59099 12.2768V12.2843V12.294V12.3034C7.59099 12.3097 7.59099 12.3163 7.59099 12.3225V12.3332V12.3448V12.3592C7.59099 12.3676 7.59258 12.3761 7.59353 12.3845C7.59353 12.388 7.59353 12.3911 7.59353 12.3945V12.4002C7.59353 12.409 7.59544 12.4174 7.5967 12.4259V12.4324V12.4412L7.59861 12.4544L7.60019 12.4663L7.60241 12.4813V12.4888L7.60463 12.5032V12.5107V12.5198L7.60654 12.5305V12.5395V12.5486L7.60844 12.559L7.61257 12.5803V12.5862L7.61479 12.5981V12.6041L7.61796 12.6203L7.6205 12.6322C7.6224 12.6416 7.62441 12.6509 7.62652 12.6601L7.62938 12.6736L7.63382 12.6927L7.63572 12.7014V12.708V12.714L7.64238 12.7415L7.64555 12.7544C7.64841 12.7656 7.65095 12.775 7.65317 12.7835L7.65634 12.7954L7.66427 12.8239L7.66586 12.8295L7.66744 12.8352C7.66998 12.8446 7.67283 12.8536 7.67537 12.863L7.67886 12.8753L7.68743 12.9038L7.68901 12.9091V12.9138L7.69884 12.9451V12.9498V12.9548L7.70392 12.9698L7.70931 12.9858L7.71153 12.9921V12.9958L7.71978 13.0199L7.72232 13.0271L7.72581 13.0368V13.0412L7.73564 13.0688L7.73881 13.0779L7.7515 13.1117L7.7534 13.1164V13.1195L7.76704 13.1549L7.76958 13.1612L7.78386 13.1972L7.78576 13.2016L7.79845 13.2329L7.80067 13.2382V13.2404V13.2432C7.80574 13.2554 7.81114 13.268 7.81653 13.2805L7.81843 13.2852L7.83429 13.3221L7.83651 13.3275L7.84888 13.3553L7.85237 13.3632L7.85554 13.3701L7.87236 13.4073V13.4095L7.87426 13.4136L7.89202 13.4518V13.4549V13.4571L7.8971 13.4678L7.91074 13.4969V13.4988L7.9174 13.5122L7.93072 13.5401C8.3449 14.2546 8.86219 14.9058 9.46631 15.4733C9.94566 15.9773 10.5109 16.3943 11.1364 16.7052C11.5837 16.9641 12.0897 17.108 12.6079 17.1239C13.0955 17.1154 13.5705 16.9702 13.9776 16.7052C14.6598 16.2852 15.2909 15.7892 15.8586 15.2271C16.3862 14.7362 16.8332 14.1672 17.1833 13.5404C17.7035 12.5796 17.6039 11.8806 17.2207 10.8472C16.9101 10.1582 16.4726 9.53207 15.9303 9.0008C15.3632 8.44344 14.7166 7.97099 14.0109 7.59845C13.5537 7.32947 13.0362 7.17658 12.5045 7.15345C12.0677 7.15801 11.6402 7.2791 11.2674 7.50388C10.5628 7.9238 9.91738 8.43353 9.34768 9.0199L9.33753 9.02992C8.74466 9.55354 8.25371 10.1797 7.88885 10.8776L7.88758 10.877ZM7.03684 16.9836L7.15452 17.0989L7.03684 16.9836ZM17.3669 16.2978C17.2746 16.3918 17.1766 16.4901 17.0723 16.5934C16.9501 16.714 16.8248 16.834 16.6976 16.952C16.8245 16.834 16.9514 16.714 17.0723 16.5934C17.1773 16.4895 17.275 16.3911 17.3669 16.2972V16.2978ZM19.2207 13.8151C19.1985 13.858 19.1756 13.9015 19.1522 13.945C18.9989 14.2289 18.8305 14.5047 18.6478 14.7711C18.8305 14.5047 18.9989 14.2289 19.1522 13.945C19.176 13.9009 19.1975 13.8573 19.221 13.8141L19.2207 13.8151ZM19.4307 10.348C19.5455 10.6968 19.6296 11.0547 19.6822 11.4178C19.6303 11.0543 19.5462 10.696 19.4307 10.3471V10.348ZM16.6469 6.31855C16.8137 6.46637 16.9756 6.61783 17.1325 6.77295C17.5823 7.222 17.9939 7.70674 18.3633 8.22227C18.5238 8.4465 18.6688 8.66603 18.794 8.87522C18.3281 8.11087 17.7702 7.40498 17.1325 6.77295C16.976 6.61742 16.8142 6.46595 16.6469 6.31855ZM13.7549 4.38571C13.8707 4.44083 13.9897 4.50095 14.1181 4.56922C14.4743 4.75712 14.8249 4.96506 15.1595 5.18334C14.8255 4.96412 14.475 4.75869 14.1184 4.56922C13.9897 4.50221 13.871 4.43957 13.7549 4.38571ZM8.10074 13.0146C8.04093 12.8772 7.99048 12.7359 7.94975 12.5918C7.8987 12.413 7.86962 12.2288 7.86316 12.0432C7.88078 12.3785 7.96146 12.7078 8.10106 13.014L8.10074 13.0146Z" fill="#53B7D1"/>
</svg>
