<svg width="64" height="64" viewBox="0 0 64 64" fill="none" xmlns="http://www.w3.org/2000/svg">
<path d="M36.224 10.7393C33.303 7.69414 30.6765 6.37062 27.1974 8.35334C27.7376 9.10193 28.2342 9.88103 28.6848 10.6868C22.4166 15.2321 16.512 18.9364 11.2281 22.1569C10.7648 21.3351 10.3846 20.6452 10.0147 19.9706C8.99583 20.9101 8.19199 22.0033 7.93599 23.3485C7.49695 25.6705 8.87039 27.9105 10.1837 29.8765L26.1952 53.8573C27.1539 55.2935 28.2265 56.8205 29.8624 57.3761C32.0461 58.1197 34.3603 56.8743 36.3315 55.6749L50.5395 47.0273C52.8435 45.6193 55.3382 43.9911 56.1101 41.3953C56.9843 38.4743 42.7443 17.5361 36.224 10.7393ZM19.9398 37.1521C19.6377 36.5389 19.3472 35.826 19.8489 34.9825C20.2624 34.2874 21.1033 33.7025 21.888 33.1713L34.1683 24.8833C34.7942 24.4596 35.4483 24.0244 36.1254 23.794C37.2083 23.4266 38.1478 23.666 38.6649 24.178C39.3369 24.8372 40.2841 26.3719 39.2397 27.634C38.7443 28.2317 38.0403 28.7361 37.3542 29.2173C33.175 32.1421 28.8653 34.9082 24.4646 37.4874C23.6249 37.9802 22.7059 38.4909 21.8893 38.5537C20.7693 38.6369 20.2918 37.865 19.9398 37.1521ZM44.8 34.1466C44.3059 34.7444 43.6019 35.2487 42.9145 35.73C38.7366 38.6561 34.432 41.4209 30.0262 44.0001C29.1865 44.4929 28.2675 45.0036 27.4509 45.0676C26.3309 45.1533 25.8534 44.3815 25.5014 43.6698C25.1993 43.0567 24.9088 42.3425 25.4105 41.4938C25.824 40.7988 26.6649 40.2138 27.4496 39.6839L39.7286 31.3946C40.3558 30.9722 41.0086 30.5357 41.687 30.3053C42.7699 29.938 43.7094 30.1773 44.2265 30.6893C44.8985 31.3485 45.8457 32.8833 44.8 34.1466ZM35.7837 19.7914C35.2896 20.3892 34.5843 20.8935 33.8982 21.3735C29.719 24.2996 25.4105 27.0644 21.0099 29.6449C20.1702 30.1364 19.2512 30.6484 18.4333 30.7111C17.3145 30.7969 16.8358 30.0263 16.4851 29.3133C16.1817 28.7002 15.8912 27.9873 16.3929 27.1437C16.8077 26.4474 17.6473 25.8637 18.432 25.3325L30.7123 17.0433C31.3382 16.6209 31.9923 16.1857 32.6707 15.9553C33.7523 15.5866 34.6931 15.8273 35.2089 16.3329C35.8809 16.9921 36.8281 18.5281 35.7837 19.7914Z" fill="#9ED0FF"/>
<path d="M26.761 8.61832C26.9094 8.5236 27.0553 8.43656 27.2013 8.35336C26.4115 7.24489 25.7152 6.40009 25.7152 6.40009C25.7152 6.40009 11.6774 15.4881 8.49023 17.2186C9.08415 18.2708 9.54111 19.1079 10.0147 19.9706C10.8267 19.254 11.6933 18.6018 12.6067 18.0199C17.3222 14.8878 21.9866 11.6583 26.761 8.61832Z" fill="#FFA742"/>
<path d="M28.6886 10.6867C28.238 9.88097 27.7414 9.10186 27.2012 8.35327C27.0553 8.43647 26.9094 8.52351 26.7609 8.61823C21.9865 11.6582 17.3222 14.8902 12.6066 18.0198C11.6933 18.6009 10.8267 19.2522 10.0146 19.968C10.3846 20.6426 10.7647 21.3325 11.2281 22.1542C16.5119 18.9363 22.4166 15.232 28.6886 10.6867Z" fill="#318230"/>
</svg>
