<svg xmlns="http://www.w3.org/2000/svg" width="12" height="13" viewBox="0 0 12 13" fill="none">
  <g clip-path="url(#clip0_256_2467)">
    <path d="M5.9998 1.50018C4.67372 1.50018 3.40195 2.02697 2.46427 2.96465C1.52659 3.90233 0.999802 5.1741 0.999802 6.50018C0.999802 7.82627 1.52659 9.09804 2.46427 10.0357C3.40195 10.9734 4.67372 11.5002 5.9998 11.5002C7.32588 11.5002 8.59765 10.9734 9.53534 10.0357C10.473 9.09804 10.9998 7.82627 10.9998 6.50018C10.9998 5.1741 10.473 3.90233 9.53534 2.96465C8.59765 2.02697 7.32588 1.50018 5.9998 1.50018V1.50018Z" stroke="#66686C" stroke-width="1.23406" stroke-linecap="round" stroke-linejoin="round"/>
    <path d="M5.99997 3.5V6.5L7.99997 7.5" stroke="#66686C" stroke-width="1.23406" stroke-linecap="round" stroke-linejoin="round"/>
  </g>
  <defs>
    <clipPath id="clip0_256_2467">
      <rect width="12" height="12" fill="white" transform="translate(0 0.5)"/>
    </clipPath>
  </defs>
</svg>