<svg xmlns="http://www.w3.org/2000/svg" width="32" height="32" viewBox="0 0 32 32" fill="none">
  <g clip-path="url(#clip0_18_7850)">
    <path d="M16 8.32762L19.7996 5.16129H24.7742V0H12.3871V5.16129H16V8.32762ZM13.4193 4.12903V1.03226H23.7419V4.12903H19.4261L17.0322 6.12399V4.12903H13.4193Z" fill="#D90506"/>
    <path d="M14.4516 2.06445H15.4839V3.09671H14.4516V2.06445Z" fill="#D90506"/>
    <path d="M16.5161 2.06445H20.6451V3.09671H16.5161V2.06445Z" fill="#D90506"/>
    <path d="M21.6774 2.06445H22.7097V3.09671H21.6774V2.06445Z" fill="#D90506"/>
    <path d="M26.2734 30.968L25.8561 26.7898C27.5794 26.5174 28.9032 25.0252 28.9032 23.2261V16.5164H26.8387V15.8032C26.8387 15.1016 26.4531 14.4715 25.8332 14.1484C26.4496 13.5822 26.8387 12.7724 26.8387 11.8712V10.839C26.8387 9.13105 25.4498 7.74219 23.7419 7.74219C22.034 7.74219 20.6452 9.13105 20.6452 10.839V11.8712C20.6452 13.2074 21.4972 14.345 22.6855 14.7785L19.9153 17.5486H17.0209C16.9632 16.6883 16.3722 15.9383 15.535 15.6988L13.4194 15.095V14.1731C14.0512 13.6058 14.4516 12.7858 14.4516 11.8712V10.839C14.4516 9.13105 13.0628 7.74219 11.3548 7.74219C9.64692 7.74219 8.25806 9.13105 8.25806 10.839V11.8712C8.25806 12.7853 8.65852 13.6053 9.29032 14.1731V15.0955L7.17465 15.6993C6.29309 15.9506 5.67742 16.7671 5.67742 17.6845V19.6132H3.6129V22.7099H4.64516V30.968H0V32.0003H32V30.968H26.2734ZM21.6774 22.7099V20.343L25.3347 16.6857C25.599 16.4214 25.7563 16.0663 25.7916 15.6958C25.7961 15.7319 25.8064 15.7659 25.8064 15.8032V22.1938C25.8064 23.0474 25.1116 23.7422 24.2581 23.7422H20.129V22.7099H21.6774ZM20.129 26.839H22.7588L23.1716 30.968H20.129V26.839ZM23.7961 26.839H24.8233L25.2361 30.968H24.2089L23.7961 26.839ZM26.8387 22.1938V17.5486H27.871V23.2261C27.871 24.6489 26.7132 25.8067 25.2903 25.8067H20.129V24.7744H24.2581C25.6809 24.7744 26.8387 23.6167 26.8387 22.1938ZM21.6774 11.8712V10.839C21.6774 9.70035 22.6033 8.77445 23.7419 8.77445C24.8805 8.77445 25.8064 9.70035 25.8064 10.839V11.8712C25.8064 13.0098 24.8805 13.9357 23.7419 13.9357C22.6033 13.9357 21.6774 13.0098 21.6774 11.8712ZM20.3427 18.5809L23.7863 15.1373C23.8942 15.0295 24.0433 14.968 24.1956 14.968C24.5146 14.968 24.7742 15.2276 24.7742 15.5466C24.7742 15.6988 24.7127 15.848 24.6048 15.9559L20.9476 19.6132H15.4839C15.1991 19.6132 14.9677 19.3818 14.9677 19.097C14.9677 18.8122 15.1991 18.5809 15.4839 18.5809H20.3427ZM9.29032 10.839C9.29032 9.70035 10.2162 8.77445 11.3548 8.77445C12.4934 8.77445 13.4194 9.70035 13.4194 10.839V11.8712C13.4194 13.0098 12.4934 13.9357 11.3548 13.9357C10.2162 13.9357 9.29032 13.0098 9.29032 11.8712V10.839ZM11.3548 14.968C11.7172 14.968 12.0635 14.902 12.3871 14.7873V15.3417C12.2591 15.5393 11.9035 16.0003 11.3548 16.0003C10.8062 16.0003 10.4506 15.5393 10.3226 15.3417V14.7873C10.6462 14.902 10.9924 14.968 11.3548 14.968ZM6.70968 17.6845C6.70968 17.2256 7.01789 16.8178 7.45817 16.6918L9.58442 16.0844C9.88382 16.4745 10.4665 17.0325 11.3548 17.0325C12.2432 17.0325 12.8259 16.4745 13.1253 16.0839L15.2515 16.6913C15.6469 16.8044 15.9226 17.1482 15.9778 17.5481H15.4839C14.6303 17.5481 13.9355 18.2429 13.9355 19.0965C13.9355 19.2782 13.9725 19.4506 14.0305 19.6127H6.70968V17.6845ZM4.64516 20.6454H20.6452V21.6777H4.64516V20.6454ZM5.67742 24.7744H7.22581V23.7422H5.67742V22.7099H19.0968V23.7422H8.25806V24.7744H19.0968V30.968H17.8674L16.8352 28.9035H7.93901L6.90675 30.968H5.67742V24.7744ZM16.7132 30.968H8.06099L8.57712 29.9357H16.1971L16.7132 30.968Z" fill="#D90506"/>
  </g>
  <defs>
    <clipPath id="clip0_18_7850">
      <rect width="32" height="32" fill="white"/>
    </clipPath>
  </defs>
</svg>