<svg xmlns="http://www.w3.org/2000/svg" width="24" height="24" viewBox="0 0 24 24" fill="none">
  <path d="M9.97071 10.5385C9.32412 10.5385 8.69204 10.3467 8.15442 9.9875C7.6168 9.62827 7.19777 9.11769 6.95033 8.52031C6.70289 7.92294 6.63815 7.26561 6.76429 6.63144C6.89044 5.99727 7.2018 5.41475 7.65901 4.95754C8.11622 4.50033 8.69874 4.18896 9.33291 4.06282C9.96708 3.93667 10.6244 4.00142 11.2218 4.24886C11.8192 4.4963 12.3297 4.91532 12.689 5.45294C13.0482 5.99057 13.2399 6.62264 13.2399 7.26923C13.2389 8.13597 12.8942 8.96692 12.2813 9.5798C11.6684 10.1927 10.8374 10.5374 9.97071 10.5385ZM9.97071 5.15385C9.55232 5.15385 9.14334 5.27791 8.79546 5.51035C8.44759 5.7428 8.17646 6.07317 8.01635 6.45971C7.85624 6.84625 7.81435 7.27158 7.89597 7.68192C7.97759 8.09227 8.17906 8.46919 8.47491 8.76503C8.77075 9.06088 9.14767 9.26235 9.55802 9.34397C9.96836 9.42559 10.3937 9.3837 10.7802 9.22359C11.1668 9.06348 11.4971 8.79235 11.7296 8.44448C11.962 8.0966 12.0861 7.68762 12.0861 7.26923C12.0857 6.70832 11.8627 6.1705 11.4661 5.77388C11.0694 5.37726 10.5316 5.15425 9.97071 5.15385ZM13.0407 19H6.88686C5.02532 19 3.99994 17.9808 3.99994 16.13C3.99994 14.0823 5.1584 11.6923 8.42302 11.6923H11.4999C14.7646 11.6923 15.923 14.0823 15.923 16.13C15.9253 17.9808 14.8999 19 13.0407 19ZM8.42532 12.8462C7.98608 12.8122 7.5447 12.8739 7.13165 13.0272C6.7186 13.1804 6.34372 13.4214 6.0329 13.7336C5.72208 14.0459 5.48272 14.4218 5.33133 14.8355C5.17995 15.2493 5.12016 15.6909 5.15609 16.13C5.15609 17.3331 5.67455 17.8462 6.88917 17.8462H13.0407C14.2553 17.8462 14.7738 17.3331 14.7738 16.13C14.8098 15.6907 14.7499 15.2488 14.5984 14.8349C14.4469 14.421 14.2073 14.045 13.8962 13.7327C13.5851 13.4205 13.21 13.1795 12.7966 13.0264C12.3833 12.8733 11.9417 12.8118 11.5022 12.8462H8.42532ZM15.7792 10.8769C15.0893 10.8793 14.4261 10.6102 13.933 10.1277C13.8395 10.0185 13.7902 9.87827 13.7946 9.73456C13.7991 9.59085 13.8571 9.45399 13.9572 9.35079C14.0573 9.2476 14.1924 9.1855 14.3359 9.17668C14.4794 9.16785 14.621 9.21293 14.733 9.30308C15.0119 9.57492 15.3867 9.72584 15.7761 9.72308C15.9757 9.72524 16.1737 9.68752 16.3586 9.61213C16.5434 9.53674 16.7113 9.4252 16.8525 9.28405C16.9936 9.1429 17.1051 8.97499 17.1805 8.79015C17.2559 8.60532 17.2936 8.4073 17.2915 8.20769C17.2909 7.80598 17.131 7.42089 16.847 7.13683C16.5629 6.85277 16.1778 6.69292 15.7761 6.69231C15.5554 6.6888 15.337 6.73812 15.1392 6.83615C15.0028 6.90562 14.8444 6.91806 14.6988 6.87075C14.5533 6.82343 14.4325 6.72023 14.363 6.58385C14.2935 6.44747 14.2811 6.28907 14.3284 6.14352C14.3757 5.99796 14.4789 5.87716 14.6153 5.80769C14.9761 5.62608 15.3753 5.53375 15.7792 5.53846C16.4871 5.53846 17.166 5.81968 17.6666 6.32026C18.1672 6.82084 18.4484 7.49977 18.4484 8.20769C18.4484 8.91562 18.1672 9.59455 17.6666 10.0951C17.166 10.5957 16.4871 10.8769 15.7792 10.8769ZM18.1638 17.4615H17.6407C17.4877 17.4615 17.341 17.4008 17.2328 17.2926C17.1246 17.1844 17.0638 17.0376 17.0638 16.8846C17.0638 16.7316 17.1246 16.5849 17.2328 16.4767C17.341 16.3685 17.4877 16.3077 17.6407 16.3077H18.1638C19.0446 16.3077 19.3869 15.9692 19.3869 15.1C19.4132 14.7758 19.3689 14.4497 19.257 14.1443C19.145 13.8388 18.9681 13.5613 18.7385 13.331C18.5088 13.1006 18.2319 12.9228 17.9268 12.8099C17.6217 12.6969 17.2958 12.6516 16.9715 12.6769H15.8099C15.6569 12.6769 15.5102 12.6161 15.402 12.5079C15.2938 12.3998 15.233 12.253 15.233 12.1C15.233 11.947 15.2938 11.8002 15.402 11.6921C15.5102 11.5839 15.6569 11.5231 15.8099 11.5231H16.9715C17.449 11.4917 17.9277 11.5628 18.3754 11.7316C18.8232 11.9003 19.2297 12.1629 19.5677 12.5016C19.9057 12.8404 20.1674 13.2475 20.3352 13.6956C20.503 14.1437 20.5731 14.6226 20.5407 15.1C20.5736 15.4196 20.5346 15.7424 20.4265 16.045C20.3185 16.3475 20.1441 16.622 19.9162 16.8484C19.6883 17.0748 19.4127 17.2474 19.1095 17.3535C18.8062 17.4596 18.4831 17.4965 18.1638 17.4615Z" fill="#808284"/>
</svg>