<svg width="32" height="32" viewBox="0 0 32 32" fill="none" xmlns="http://www.w3.org/2000/svg">
<path d="M13.9529 16.1203L13.8148 16.2113C13.2534 16.5813 12.528 16.5813 11.9665 16.2112L11.8285 16.1203C11.6124 15.978 11.3217 16.0378 11.1792 16.2539C11.0368 16.4701 11.0966 16.7608 11.3129 16.9033L11.4507 16.994C11.8881 17.2823 12.3894 17.4265 12.8907 17.4265C13.392 17.4265 13.8933 17.2823 14.3306 16.9942L14.4686 16.9033C14.6848 16.7608 14.7447 16.4701 14.6022 16.2539C14.4597 16.0377 14.169 15.978 13.9529 16.1203Z" fill="#D90506"/>
<path d="M20.6872 16.9033C20.9034 16.7608 20.9632 16.4701 20.8208 16.2539C20.6784 16.0377 20.3877 15.978 20.1715 16.1203L20.0334 16.2113C19.472 16.5813 18.7466 16.5813 18.1852 16.2112L18.0472 16.1203C17.831 15.978 17.5403 16.0378 17.3979 16.2539C17.2554 16.4701 17.3152 16.7608 17.5315 16.9033L17.6693 16.994C18.1067 17.2823 18.608 17.4265 19.1094 17.4265C19.6106 17.4265 20.1119 17.2823 20.5492 16.9942L20.6872 16.9033Z" fill="#D90506"/>
<path d="M17.5779 21.583C17.7941 21.4405 17.854 21.1498 17.7115 20.9336C17.5691 20.7173 17.2784 20.6577 17.0622 20.8L16.9242 20.891C16.3628 21.261 15.6374 21.261 15.0759 20.8908L14.9379 20.8C14.7218 20.6577 14.431 20.7175 14.2886 20.9336C14.1462 21.1498 14.206 21.4405 14.4222 21.583L14.56 21.6737C14.9975 21.962 15.4987 22.1062 16.0001 22.1062C16.5014 22.1062 17.0027 21.962 17.44 21.6738L17.5779 21.583Z" fill="#D90506"/>
<path d="M28.287 4.66625C28.5459 4.66625 28.7558 4.45644 28.7558 4.1975V1.5905C28.7558 0.7135 28.0422 0 27.1652 0H24.4969C23.6198 0 22.9063 0.7135 22.9063 1.5905V6.83506C21.1672 4.86975 18.6717 3.72875 16 3.72875C13.3279 3.72875 10.8328 4.87087 9.0937 6.83681V4.7175C9.0937 4.45856 8.88382 4.24875 8.62495 4.24875C8.36607 4.24875 8.1562 4.45856 8.1562 4.7175V6.94869H4.18182V1.5905C4.18176 1.2305 4.47476 0.9375 4.83483 0.9375H7.50314C7.8632 0.9375 8.15614 1.2305 8.15614 1.5905V2.6475C8.15614 2.90644 8.36601 3.11625 8.62489 3.11625C8.88376 3.11625 9.09364 2.90644 9.09364 2.6475V1.5905C9.09364 0.7135 8.38014 0 7.50314 0H4.83483C3.95783 0 3.24426 0.7135 3.24426 1.5905V9.54069C3.24426 11.4917 3.54451 13.4236 4.13664 15.2826L4.45164 16.2715C4.85882 17.5499 5.55245 18.7491 6.45757 19.7395L9.23601 22.7798C9.50345 23.0724 9.8842 23.2409 10.2806 23.2422H10.2849C10.4254 23.2422 10.5639 23.2208 10.6963 23.1807C11.2668 23.7691 11.9226 24.2828 12.6519 24.7015V26.0116C12.6519 26.6418 12.2302 27.2079 11.6264 27.3883L6.98889 28.7736C6.47601 28.9268 6.00076 29.1684 5.5762 29.4919C5.09539 29.8581 4.91014 30.4666 5.10432 31.0419C5.30082 31.6239 5.82314 32 6.43507 32H25.5649C26.1769 32 26.6991 31.6239 26.8956 31.0421C27.0898 30.4668 26.9046 29.8583 26.4238 29.492C25.9992 29.1685 25.524 28.9269 25.0111 28.7737L23.9993 28.4714C23.7513 28.3972 23.4901 28.5384 23.416 28.7864C23.3419 29.0345 23.4829 29.2956 23.7309 29.3697L24.7428 29.672C25.1469 29.7927 25.5213 29.9831 25.8556 30.2377C26.0933 30.4188 26.0318 30.6697 26.0073 30.7423C25.9819 30.8174 25.8751 31.0625 25.5649 31.0625H6.43507C6.12495 31.0625 6.01808 30.8174 5.99276 30.7423C5.96826 30.6697 5.90682 30.4188 6.14451 30.2377C6.47882 29.9831 6.8532 29.7927 7.25732 29.672L11.8948 28.2867C12.8926 27.9886 13.5896 27.0531 13.5896 26.0117V25.2055C14.3776 25.5689 15.2302 25.751 16.0829 25.751C16.8765 25.751 17.6698 25.5931 18.4106 25.2791V26.0117C18.4106 27.0531 19.1074 27.9886 20.1053 28.2867L21.6684 28.7536C21.9163 28.8278 22.1776 28.6867 22.2517 28.4386C22.3258 28.1906 22.1848 27.9294 21.9367 27.8553L20.3736 27.3884C19.7698 27.208 19.3481 26.6419 19.3481 26.0117V24.7894L19.3728 24.7751C19.3728 24.7751 19.3728 24.7751 19.3728 24.7751C20.1193 24.3434 20.7876 23.8095 21.3666 23.1984C21.4797 23.2271 21.5966 23.2423 21.7151 23.2423H21.7195C22.1159 23.241 22.4966 23.0725 22.764 22.7799L25.5425 19.7396C26.4476 18.7492 27.1413 17.55 27.5484 16.2716L27.8634 15.2828C28.4556 13.4237 28.7558 11.4919 28.7558 9.54081V6.0975C28.7558 5.83856 28.5459 5.62875 28.287 5.62875C28.0281 5.62875 27.8183 5.83856 27.8183 6.0975V6.94875H23.8439V1.5905C23.8439 1.23044 24.1368 0.9375 24.4969 0.9375H27.1653C27.5253 0.9375 27.8183 1.2305 27.8183 1.5905V4.1975C27.8183 4.45644 28.0281 4.66625 28.287 4.66625ZM22.9063 8.36906V10.0776C22.9063 10.3708 22.7933 10.6477 22.588 10.8571C22.5316 10.9147 22.4783 10.9744 22.4263 11.0352C21.0133 8.99969 18.66 7.66394 16 7.66394C15.9337 7.66394 15.8678 7.66563 15.8018 7.66725C17.3088 6.95144 18.9543 6.5315 20.6215 6.44294L21.0997 6.4175C21.7923 6.95856 22.4038 7.61412 22.9063 8.36906ZM16 4.66625C17.3381 4.66625 18.6268 4.98525 19.7764 5.573C17.851 5.78919 15.9744 6.41469 14.306 7.40212L12.1946 8.65175C12.1814 8.65956 12.1688 8.66794 12.1566 8.67675C11.1287 9.25963 10.2452 10.0684 9.57382 11.0354C9.52182 10.9746 9.46845 10.9148 9.41195 10.8571C9.2067 10.6476 9.09364 10.3708 9.09364 10.0776V8.36906C10.6379 6.04906 13.2123 4.66625 16 4.66625ZM7.14964 19.1071C6.33532 18.2161 5.71126 17.1371 5.34495 15.987L5.02995 14.9981C4.46714 13.2312 4.18182 11.3951 4.18182 9.54075V7.88625H8.1562V10.0776C8.1562 10.6178 8.36445 11.1276 8.74245 11.5134C9.2097 11.9901 9.46701 12.6203 9.46701 13.2878V16.2181C9.46701 16.5029 9.28876 16.7464 9.03814 16.8442L8.3847 15.7141C8.09639 15.2154 7.94401 14.6475 7.94401 14.0715V13.2075C7.94401 12.9486 7.73414 12.7388 7.47526 12.7388C7.21639 12.7388 7.00651 12.9486 7.00651 13.2075V14.0713C7.00651 14.8119 7.20245 15.5421 7.57307 16.1832L10.7033 21.5781C10.8107 21.763 10.7853 21.9926 10.64 22.1496C10.5471 22.2501 10.4206 22.3043 10.2836 22.3047C10.1467 22.3043 10.0204 22.2484 9.92807 22.1473L7.14964 19.1071ZM18.9034 23.9634L18.5893 24.1451C17.0709 25.0233 15.1762 25.0379 13.6444 24.1831L13.2034 23.937C12.5554 23.5755 11.9719 23.1296 11.4608 22.6189C11.7663 22.1714 11.7933 21.588 11.5139 21.1072L9.51114 17.6595C10.0403 17.3954 10.4045 16.8484 10.4045 16.218V13.2876C10.4045 12.8071 10.3063 12.3411 10.121 11.9119C11.33 9.92887 13.5125 8.60144 16.0001 8.60144C18.4876 8.60144 20.6701 9.92875 21.8792 11.9117C21.6939 12.341 21.5956 12.8071 21.5956 13.2877V16.2181C21.5956 16.8486 21.9598 17.3956 22.4889 17.6596L20.4861 21.1073C20.1965 21.6059 20.2365 22.215 20.5749 22.6683C20.0831 23.1667 19.5236 23.6047 18.9034 23.9634ZM27.8183 7.88625V9.54075C27.8183 11.3951 27.5329 13.2312 26.9701 14.9981L26.6551 15.987C26.2888 17.1371 25.6647 18.2161 24.8504 19.1071L22.0719 22.1474C21.9796 22.2484 21.8533 22.3044 21.7164 22.3048C21.716 22.3048 21.7154 22.3048 21.7149 22.3048C21.5786 22.3048 21.4526 22.2498 21.36 22.1497C21.2148 21.9928 21.1894 21.7631 21.2968 21.5783L24.4269 16.1833C24.7976 15.5423 24.9935 14.812 24.9935 14.0714V13.2075C24.9935 12.9486 24.7836 12.7388 24.5248 12.7388C24.2659 12.7388 24.056 12.9486 24.056 13.2075V14.0713C24.056 14.6473 23.9036 15.2153 23.6153 15.7139L22.9619 16.8441C22.7113 16.7462 22.533 16.5028 22.533 16.2179V13.2876C22.533 12.6201 22.7903 11.9899 23.2576 11.5132C23.6356 11.1274 23.8438 10.6176 23.8438 10.0774V7.88625H27.8183Z" fill="#D90506"/>
</svg>
