<svg xmlns="http://www.w3.org/2000/svg" width="24" height="24" viewBox="0 0 24 24" fill="none">
  <path d="M12.4707 5.98828C12.7458 5.98828 12.9688 5.7653 12.9688 5.49023C12.9688 5.21517 12.7458 4.99219 12.4707 4.99219C12.1956 4.99219 11.9727 5.21517 11.9727 5.49023C11.9727 5.7653 12.1956 5.98828 12.4707 5.98828Z" fill="#808284"/>
  <path d="M17.6961 15.8022C17.9175 15.5862 18.1259 15.3562 18.3195 15.1133C19.3806 13.782 19.9414 12.1766 19.9414 10.4707C19.9414 8.82931 19.4187 7.27201 18.4299 5.96716C17.5484 4.80406 16.3248 3.91249 14.9554 3.42782C14.9212 3.1861 14.714 3 14.4629 3H10.4785C10.2274 3 10.0202 3.1861 9.98598 3.42779C8.61658 3.91246 7.39295 4.80406 6.51154 5.96713C5.52268 7.27201 5 8.82931 5 10.4707C5 12.1766 5.56083 13.782 6.62187 15.1133C6.81548 15.3562 7.02393 15.5862 7.24533 15.8022L6.02339 19.3393C5.97079 19.4915 5.99506 19.6598 6.0885 19.791C6.182 19.9221 6.33307 20 6.49414 20H18.4473C18.6083 20 18.7594 19.9221 18.8529 19.791C18.9463 19.6598 18.9706 19.4916 18.918 19.3393L17.6961 15.8022ZM14.6289 16.5688V15.5012C16.4762 14.7086 17.7435 12.9601 17.9262 10.9688H18.9261C18.7312 13.5293 17.0445 15.7198 14.6289 16.5688ZM11.3086 19.0039V13.293H13.6328V19.0039H11.3086ZM10.0617 6.69342C10.2923 7.43803 10.9873 7.98047 11.8066 7.98047H13.1348C13.9543 7.98047 14.6493 7.43786 14.8797 6.69308C16.1578 7.50792 16.9531 8.9257 16.9531 10.4707C16.9531 12.1173 16.043 13.6146 14.6289 14.3928V13.293H14.7949C15.07 13.293 15.293 13.07 15.293 12.7949C15.293 12.5199 15.07 12.2969 14.7949 12.2969H10.1465C9.87143 12.2969 9.64844 12.5199 9.64844 12.7949C9.64844 13.07 9.87143 13.293 10.1465 13.293H10.3125V14.3939C8.89821 13.6157 7.98828 12.1174 7.98828 10.4707C7.98828 8.92573 8.78376 7.50822 10.0617 6.69342ZM18.9256 9.97266H17.9265C17.7564 8.10651 16.6387 6.44934 14.9609 5.5926V4.4971C17.1849 5.42791 18.7362 7.56095 18.9256 9.97266ZM10.9766 3.99609H13.9648V6.1543C13.9648 6.612 13.5925 6.98438 13.1348 6.98438H11.8066C11.3489 6.98438 10.9766 6.612 10.9766 6.1543V3.99609ZM9.98047 4.49723V5.59263C8.30268 6.44934 7.18496 8.10651 7.01487 9.97266H6.01585C6.20521 7.56098 7.75646 5.42804 9.98047 4.49723ZM6.01532 10.9688H7.0152C7.19788 12.9601 8.46521 14.7086 10.3125 15.5012V16.5686C7.89697 15.7195 6.21029 13.5292 6.01532 10.9688ZM8.06096 16.4917C8.74166 16.9891 9.50434 17.3712 10.3125 17.6157V19.0039H7.19313L8.06096 16.4917ZM14.6289 19.0039V17.6157C15.4371 17.3712 16.1997 16.9891 16.8804 16.4917L17.7483 19.0039H14.6289Z" fill="#808284"/>
</svg>