<svg width="20" height="20" viewBox="0 0 20 20" fill="none" xmlns="http://www.w3.org/2000/svg">
<path opacity="0.3" d="M9.38 2.46994C9.56995 2.95334 9.90191 3.36784 10.3321 3.65881C10.7623 3.94979 11.2706 4.10359 11.79 4.09994H14.74C15.6835 4.10121 16.6093 4.35624 17.4204 4.83831C18.2315 5.32038 18.898 6.01175 19.35 6.83994C19.2659 5.44622 18.653 4.13716 17.6364 3.18005C16.6198 2.22293 15.2762 1.68996 13.88 1.68994H9.06L9.38 2.46994Z" fill="#1C0C07"/>
<path d="M14.74 4.1H11.79C11.2706 4.10365 10.7624 3.94985 10.3321 3.65887C9.90192 3.3679 9.56996 2.9534 9.38001 2.47L9.00001 1.63C8.80919 1.15525 8.48253 0.747357 8.06095 0.457409C7.63936 0.167461 7.1416 0.00834804 6.63001 0H4.63001C3.41797 0 2.25557 0.481481 1.39853 1.33852C0.541488 2.19556 0.0600071 3.35796 0.0600071 4.57V14.68C0.0586894 15.3711 0.193844 16.0557 0.457717 16.6945C0.72159 17.3332 1.10899 17.9136 1.59769 18.4023C2.08639 18.891 2.66677 19.2784 3.30553 19.5423C3.9443 19.8062 4.62888 19.9413 5.32001 19.94H14.74C16.135 19.94 17.4729 19.3858 18.4594 18.3994C19.4458 17.4129 20 16.075 20 14.68V9.37C20 7.97404 19.4462 6.63511 18.46 5.64708C17.4738 4.65905 16.136 4.10265 14.74 4.1ZM12.28 13.24C12.1426 13.3792 11.9556 13.4583 11.76 13.46C11.5774 13.457 11.4026 13.3856 11.27 13.26L10.15 12.19L9.09001 13.32C9.02336 13.3908 8.9427 13.4469 8.85317 13.4848C8.76365 13.5226 8.66721 13.5414 8.57001 13.54C8.38857 13.5407 8.21357 13.4728 8.08001 13.35C7.9481 13.217 7.87409 13.0373 7.87409 12.85C7.87409 12.6627 7.9481 12.483 8.08001 12.35L9.15001 11.21L8.00001 10.12C7.93349 10.0548 7.88064 9.97703 7.84456 9.89117C7.80849 9.80532 7.78991 9.71313 7.78991 9.62C7.78991 9.52687 7.80849 9.43468 7.84456 9.34883C7.88064 9.26297 7.93349 9.18518 8.00001 9.12C8.13299 8.9881 8.3127 8.91408 8.50001 8.91408C8.68731 8.91408 8.86703 8.9881 9.00001 9.12L10.12 10.2L11.15 9C11.2132 8.92425 11.2914 8.86249 11.3798 8.81866C11.4682 8.77483 11.5647 8.7499 11.6632 8.74545C11.7618 8.74099 11.8602 8.75712 11.9521 8.7928C12.0441 8.82848 12.1276 8.88293 12.1973 8.95268C12.2671 9.02242 12.3215 9.10594 12.3572 9.1979C12.3929 9.28985 12.409 9.38824 12.4046 9.48677C12.4001 9.58531 12.3752 9.68184 12.3313 9.7702C12.2875 9.85856 12.2258 9.93683 12.15 10L11.08 11.14L12.21 12.23C12.2828 12.2905 12.3426 12.3651 12.3857 12.4493C12.4289 12.5335 12.4545 12.6256 12.461 12.72C12.4676 12.8144 12.4549 12.9092 12.4238 12.9986C12.3927 13.0879 12.3438 13.1701 12.28 13.24Z" fill="#1C0C07"/>
</svg>
