<svg width="64" height="64" viewBox="0 0 64 64" fill="none" xmlns="http://www.w3.org/2000/svg">
<path d="M8 16.6515C8 15.0464 9.26351 13.7256 10.8671 13.6545L24.0714 13.069L47.2146 12.1921C50.0031 12.0865 52.3383 14.2837 52.4026 17.0734L52.9276 39.8571C52.967 41.5686 51.5686 42.966 49.8571 42.9253L10.9288 42.0006C9.30012 41.9619 8 40.6305 8 39.0015V16.6515Z" fill="#82C832"/>
<path d="M27 47.6237V40C27 38.8954 27.8954 38 29 38H31C32.1046 38 33 38.8954 33 40V47.25C33 48.3546 33.8954 49.25 35 49.25H38.8525C39.7103 49.25 40.3587 50.0269 40.2053 50.871C40.0864 51.5248 39.517 52 38.8525 52H21.8273C21.3704 52 21 51.6296 21 51.1727C21 50.7808 21.2749 50.4427 21.6586 50.3628L25.4079 49.5817C26.3353 49.3885 27 48.5711 27 47.6237Z" fill="#78A0BE"/>
<path fill-rule="evenodd" clip-rule="evenodd" d="M33 42.513L27 42.3705V40C27 38.8954 27.8954 38 29 38H31C32.1046 38 33 38.8954 33 40V42.513Z" fill="#507800"/>
<path d="M44 32C44 30.8954 44.8954 30 46 30H52.6687C53.7051 30 54.5699 30.7918 54.661 31.8242L55.8373 45.1558C55.9291 46.1965 55.2044 47.1326 54.1738 47.3044L46.3288 48.6119C45.1097 48.815 44 47.875 44 46.6391V32Z" fill="#FFA046"/>
<path fill-rule="evenodd" clip-rule="evenodd" d="M52.7005 30.0002L52.9276 39.8571C52.967 41.5686 51.5686 42.966 49.8571 42.9253L44 42.7862V32C44 30.8954 44.8954 30 46 30H52.6687C52.6793 30 52.6899 30.0001 52.7005 30.0002Z" fill="#507800"/>
<path d="M12 42.5V18.9524C12 17.8666 12.8663 16.9791 13.9518 16.953L53.5 16" stroke="white" stroke-linecap="round"/>
</svg>
