<svg width="32" height="32" viewBox="0 0 32 32" fill="none" xmlns="http://www.w3.org/2000/svg">
<g clip-path="url(#clip0_18_7856)">
<path d="M15.689 3.81445C15.344 3.81445 15.064 4.09445 15.064 4.43939C15.064 4.78433 15.344 5.06433 15.689 5.06433C16.034 5.06433 16.3139 4.78433 16.3139 4.43939C16.3139 4.09445 16.034 3.81445 15.689 3.81445Z" fill="#D90506"/>
<path d="M16.9389 11.3149H14.4392C14.1701 11.3149 13.9314 11.487 13.8463 11.7422L13.1892 13.7133L12.5322 11.7423C12.4472 11.487 12.2083 11.315 11.9394 11.315H11.1774L10.0459 6.78874C9.97643 6.51055 9.72643 6.31543 9.43968 6.31543C9.15287 6.31543 8.90293 6.51062 8.83343 6.78874L7.70194 11.315H5.68988C5.34475 11.315 5.06494 11.5949 5.06494 11.9399C5.06494 12.285 5.34482 12.5649 5.68988 12.5649H8.18962C8.47643 12.5649 8.72637 12.3697 8.79587 12.0915L9.4395 9.51717L10.0831 12.0915C10.1526 12.3697 10.4026 12.5649 10.6894 12.5649H11.4888L12.5962 15.8872C12.6813 16.1424 12.9202 16.3145 13.1891 16.3145C13.4581 16.3145 13.6969 16.1423 13.782 15.8872L14.8894 12.5649H16.9387C17.2839 12.5649 17.5637 12.285 17.5637 11.9399C17.5639 11.5948 17.284 11.3149 16.9389 11.3149Z" fill="#D90506"/>
<path d="M30.9673 26.5541C30.1588 25.8155 21.9453 18.3286 20.785 17.2709C23.5582 12.8691 22.9553 7.04627 19.2064 3.29727C14.8101 -1.09884 7.69438 -1.09934 3.29764 3.29727C-1.09848 7.69352 -1.09898 14.8093 3.29764 19.2061C7.0447 22.953 12.8602 23.555 17.2582 20.7927C17.2675 20.8029 26.6605 31.0788 26.668 31.0862C27.8885 32.3047 29.8634 32.3054 31.0838 31.0839C32.3816 29.7872 32.2623 27.7035 30.9673 26.5541ZM4.18151 18.3221C0.273959 14.4147 0.273272 8.08914 4.18151 4.18109C8.08901 0.273531 14.4145 0.272781 18.3225 4.18109C22.2544 8.11289 22.2472 14.4338 18.3407 18.3402C14.4314 22.2501 8.10482 22.2454 4.18151 18.3221ZM18.3609 20.1285C18.3544 20.1214 18.3477 20.1145 18.3409 20.1076L18.2921 20.0588C18.6166 19.7992 18.9285 19.5201 19.2246 19.2241C19.5187 18.9301 19.7963 18.6196 20.055 18.2965L21.4927 19.6072L19.606 21.494L18.3609 20.1285ZM30.2 30.2C29.427 30.9735 28.17 30.9127 27.4811 30.1282L20.449 22.4186L22.4174 20.4503L30.1287 27.4807C30.9688 28.2579 30.9233 29.4774 30.2 30.2Z" fill="#D90506"/>
<path d="M18.0295 5.71344C17.8102 5.447 17.4164 5.40863 17.1498 5.628C16.8833 5.84738 16.8451 6.24119 17.0644 6.50769C19.5284 9.50156 19.317 13.8283 16.5725 16.5721C13.6472 19.498 8.89323 19.4984 5.96742 16.572C3.04142 13.6466 3.04117 8.89262 5.96748 5.96694C7.85967 4.07482 10.6457 3.33438 13.2388 4.03482C13.572 4.12469 13.9152 3.92763 14.0052 3.59445C14.0951 3.26126 13.898 2.9182 13.5648 2.82814C10.5411 2.01126 7.29123 2.87539 5.08367 5.08301C1.66918 8.49687 1.6688 14.0417 5.08355 17.4558C8.49741 20.8704 14.0422 20.8707 17.4563 17.4559C20.6599 14.2528 20.8611 9.15394 18.0295 5.71344Z" fill="#D90506"/>
</g>
<defs>
<clipPath id="clip0_18_7856">
<rect width="32" height="32" fill="white"/>
</clipPath>
</defs>
</svg>
