<svg xmlns="http://www.w3.org/2000/svg" width="24" height="24" viewBox="0 0 24 24" fill="none">
  <path d="M18.2768 12.0188C18.2139 11.8901 18.2139 11.7425 18.2768 11.6139L18.8598 10.4211C19.1844 9.75701 18.9272 8.96546 18.2743 8.61902L17.1015 7.99677C16.975 7.92966 16.8883 7.81022 16.8635 7.66919L16.6342 6.36153C16.5064 5.63346 15.833 5.14422 15.1012 5.24775L13.7867 5.43369C13.6448 5.45372 13.5045 5.40811 13.4016 5.30854L12.4474 4.38549C11.9162 3.87152 11.0838 3.87149 10.5526 4.38549L9.5984 5.30863C9.49544 5.40823 9.35515 5.45375 9.2133 5.43378L7.8988 5.24784C7.16679 5.14425 6.49356 5.63356 6.36584 6.36162L6.13648 7.66922C6.11172 7.81028 6.02498 7.92969 5.89849 7.99683L4.72575 8.61908C4.07279 8.9655 3.81559 9.7571 4.1402 10.4212L4.72321 11.6139C4.78611 11.7426 4.78611 11.8902 4.72321 12.0189L4.14017 13.2116C3.81556 13.8757 4.07276 14.6672 4.72572 15.0137L5.89846 15.6359C6.02498 15.703 6.11172 15.8225 6.13648 15.9635L6.36584 17.2711C6.48211 17.9339 7.05043 18.3988 7.70361 18.3987C7.76794 18.3987 7.83321 18.3942 7.89883 18.3849L9.21333 18.199C9.35509 18.1788 9.49547 18.2245 9.59843 18.3241L10.5526 19.2472C10.8183 19.5042 11.1591 19.6327 11.5 19.6326C11.8408 19.6326 12.1818 19.5041 12.4474 19.2472L13.4016 18.3241C13.5046 18.2245 13.6449 18.179 13.7867 18.199L15.1012 18.3849C15.8333 18.4885 16.5064 17.9992 16.6342 17.2711L16.8635 15.9635C16.8883 15.8225 16.975 15.703 17.1015 15.6359L18.2743 15.0137C18.9272 14.6672 19.1844 13.8756 18.8598 13.2115L18.2768 12.0188ZM17.8517 14.2172L16.6789 14.8394C16.3051 15.0378 16.0486 15.3907 15.9755 15.8077L15.7461 17.1153C15.7029 17.3616 15.4752 17.5271 15.2275 17.4921L13.913 17.3062C13.4938 17.2468 13.079 17.3817 12.7747 17.676L11.8205 18.599C11.6408 18.7729 11.3592 18.7729 11.1794 18.599L10.2253 17.676C9.96814 17.4273 9.63198 17.2925 9.28105 17.2925C9.21675 17.2925 9.15193 17.297 9.08702 17.3062L7.77252 17.4921C7.52502 17.5271 7.2971 17.3616 7.25387 17.1153L7.02448 15.8076C6.95133 15.3907 6.69492 15.0378 6.32099 14.8394L5.14825 14.2171C4.92732 14.0999 4.84031 13.8321 4.95013 13.6074L5.53317 12.4147C5.71905 12.0344 5.71905 11.5982 5.53317 11.2179L4.95013 10.0252C4.84031 9.80049 4.92732 9.53269 5.14825 9.41548L6.32099 8.79323C6.69489 8.5948 6.95133 8.24191 7.02445 7.82497L7.25381 6.51734C7.29704 6.27101 7.52475 6.10552 7.77246 6.14051L9.08696 6.32645C9.50601 6.38578 9.92097 6.25092 10.2252 5.95662L11.1794 5.03357C11.3591 4.85972 11.6407 4.85972 11.8205 5.03357L12.7747 5.95662C13.0789 6.25095 13.4938 6.38578 13.9129 6.32645L15.2274 6.14051C15.4749 6.10549 15.7029 6.27101 15.7461 6.51734L15.9754 7.825C16.0486 8.24195 16.305 8.59487 16.6789 8.79323L17.8517 9.41548C18.0726 9.53269 18.1596 9.80049 18.0498 10.0252L17.4667 11.2179C17.2809 11.5982 17.2809 12.0344 17.4667 12.4147L18.0498 13.6074C18.1596 13.8321 18.0726 14.1 17.8517 14.2172Z" fill="#808284"/>
  <path d="M14.794 8.52168C14.618 8.34564 14.3325 8.34564 14.1564 8.52168L8.20607 14.4721C8.03002 14.6481 8.03002 14.9336 8.20607 15.1096C8.2941 15.1977 8.40948 15.2417 8.52483 15.2417C8.64018 15.2417 8.75559 15.1977 8.84358 15.1096L14.794 9.15926C14.9701 8.98318 14.9701 8.69776 14.794 8.52168Z" fill="#808284"/>
  <path d="M9.69668 7.75879C8.78523 7.75879 8.0437 8.50032 8.0437 9.41177C8.0437 10.3232 8.78523 11.0647 9.69668 11.0647C10.6081 11.0647 11.3497 10.3232 11.3497 9.41177C11.3497 8.50032 10.6081 7.75879 9.69668 7.75879ZM9.69668 10.1631C9.28239 10.1631 8.94534 9.82606 8.94534 9.41174C8.94534 8.99745 9.28239 8.6604 9.69668 8.6604C10.111 8.6604 10.448 8.99745 10.448 9.41174C10.448 9.82606 10.111 10.1631 9.69668 10.1631Z" fill="#808284"/>
  <path d="M13.3031 12.5674C12.3917 12.5674 11.6501 13.3089 11.6501 14.2204C11.6501 15.1318 12.3917 15.8733 13.3031 15.8733C14.2146 15.8733 14.9561 15.1318 14.9561 14.2204C14.9561 13.3089 14.2146 12.5674 13.3031 12.5674ZM13.3031 14.9717C12.8888 14.9717 12.5518 14.6347 12.5518 14.2204C12.5518 13.8061 12.8888 13.469 13.3031 13.469C13.7174 13.469 14.0545 13.8061 14.0545 14.2204C14.0545 14.6347 13.7174 14.9717 13.3031 14.9717Z" fill="#808284"/>
</svg>