<svg xmlns="http://www.w3.org/2000/svg" width="117" height="138" viewBox="0 0 117 138" fill="none">
  <path fill-rule="evenodd" clip-rule="evenodd" d="M58.5658 110.116L41.3026 93.063C38.1937 94.3348 33.937 96.0809 29.5132 97.9034V112.064C32.7198 112.477 35.1974 115.218 35.1974 118.537C35.1974 122.141 32.2754 125.063 28.6711 125.063C25.0667 125.063 22.1447 122.141 22.1447 118.537C22.1447 115.218 24.6223 112.477 27.8289 112.064V98.5976C19.5817 101.999 11.186 105.489 8.88158 106.537C5.17632 108.221 3.54825 112.01 3.19737 113.695L0.25 128.431C11.6184 133.695 30.9868 136.01 58.5658 137.063C80.6289 137.905 106.215 131.659 116.25 128.431C115.759 125.414 114.482 118.242 113.303 113.695C112.124 109.147 109.303 107.028 108.039 106.537L90.7835 99.5024L90.1076 109.773C92.1178 110.326 94.5013 111.862 96.0374 114.836C97.771 118.192 98.3747 123.273 96.3345 130.667C96.2261 131.06 95.852 131.319 95.4461 131.282L91.8759 130.955C91.4318 130.915 91.0964 130.535 91.1108 130.089L91.1858 127.775L92.8692 127.829L92.8199 129.35L94.8925 129.54C96.637 122.788 95.9709 118.377 94.541 115.609C93.0633 112.748 90.7189 111.536 89.0846 111.27C89.0549 111.265 89.0254 111.259 88.9964 111.251C87.3699 110.803 84.7262 110.954 82.2541 113.045C79.8515 115.077 77.5212 119.022 76.551 126.267L78.6842 126.97L79.3067 125.417L80.87 126.043L79.9533 128.331C79.788 128.743 79.3303 128.956 78.908 128.817L75.365 127.649C74.9847 127.524 74.7452 127.148 74.7925 126.75C75.7342 118.82 78.2507 114.225 81.1665 111.759C83.6599 109.65 86.3752 109.161 88.4425 109.428L89.1397 98.8323L74.9868 93.063L58.5658 110.116ZM33.5132 118.537C33.5132 121.211 31.3453 123.379 28.6711 123.379C25.9968 123.379 23.8289 121.211 23.8289 118.537C23.8289 115.862 25.9968 113.695 28.6711 113.695C31.3453 113.695 33.5132 115.862 33.5132 118.537Z" fill="#EDEDED"/>
  <path d="M24.8654 51.2398C24.8654 58.6131 18.3113 72.3357 15.0343 78.2753C33.0579 82.2077 42.3428 79.5041 44.7323 77.6608L60.5029 73.3597L72.1773 77.6608C82.3361 81.4294 95.9357 79.6407 101.466 78.2752C99.281 72.9501 94.5839 61.1938 93.2731 56.7698C91.9623 52.3458 91.4981 45.3685 91.4298 42.4328V32.8066C91.4298 31.1681 91.1235 29.3989 91.0202 28.7103C89.1768 16.4216 76.1917 -3.40445 52.1056 1.67493C21.998 8.02416 24.8654 42.0232 24.8654 51.2398Z" fill="#E6E6E6"/>
  <path d="M68.8933 29.2511L66.7612 24.89L64.4491 29.1584C63.6488 30.6359 62.0983 32.1954 59.8565 33.7564C57.644 35.297 54.9267 36.7235 52.015 37.9973C46.1892 40.5459 39.8363 42.3747 35.7947 43.2692L33.8349 43.7029V45.7101V67.6252V67.8967L33.8932 68.1618C34.6643 71.6704 36.8649 76.7444 41.0144 80.9145C45.2301 85.1512 51.4312 88.4171 59.9674 88.1476C68.4953 87.8783 74.4403 84.2707 78.3354 79.8129C82.1668 75.428 83.9802 70.271 84.4832 66.7499L84.5083 66.574V66.3963V43.8668V42.1683L82.9293 41.5426C74.9454 38.3792 70.185 31.8932 68.8933 29.2511Z" fill="white" stroke="#E6E6E6" stroke-width="5"/>
</svg>