<svg xmlns="http://www.w3.org/2000/svg" width="24" height="24" viewBox="0 0 24 24" fill="none">
  <path d="M17.8648 7.82745L14.1726 4.13523C14.0864 4.04902 13.9687 4 13.8462 4H7.38462C6.62114 4 6 4.62114 6 5.38462V18.3692C6 19.1327 6.62114 19.7538 7.38462 19.7538H16.6154C17.3789 19.7538 18 19.1327 18 18.3692V8.15385C18 8.028 17.9472 7.90982 17.8648 7.82745ZM14.3077 5.57578L16.4242 7.69231H14.7692C14.5147 7.69231 14.3077 7.48526 14.3077 7.23077V5.57578ZM16.6154 18.8308H7.38462C7.13012 18.8308 6.92308 18.6237 6.92308 18.3692V5.38462C6.92308 5.13012 7.13012 4.92308 7.38462 4.92308H13.3846V7.23077C13.3846 7.99425 14.0058 8.61538 14.7692 8.61538H17.0769V18.3692C17.0769 18.6237 16.8699 18.8308 16.6154 18.8308Z" fill="#808284"/>
  <path d="M14.7692 10.5234H9.23076C8.97587 10.5234 8.76923 10.7301 8.76923 10.985C8.76923 11.2399 8.97587 11.4465 9.23076 11.4465H14.7692C15.0241 11.4465 15.2308 11.2399 15.2308 10.985C15.2308 10.7301 15.0241 10.5234 14.7692 10.5234Z" fill="#808284"/>
  <path d="M14.7692 12.3691H9.23076C8.97587 12.3691 8.76923 12.5758 8.76923 12.8307C8.76923 13.0856 8.97587 13.2922 9.23076 13.2922H14.7692C15.0241 13.2922 15.2308 13.0856 15.2308 12.8307C15.2308 12.5758 15.0241 12.3691 14.7692 12.3691Z" fill="#808284"/>
  <path d="M14.7692 14.2158H9.23076C8.97587 14.2158 8.76923 14.4225 8.76923 14.6774C8.76923 14.9323 8.97587 15.1389 9.23076 15.1389H14.7692C15.0241 15.1389 15.2308 14.9323 15.2308 14.6774C15.2308 14.4225 15.0241 14.2158 14.7692 14.2158Z" fill="#808284"/>
  <path d="M12.9231 16.0615H9.23076C8.97587 16.0615 8.76923 16.2682 8.76923 16.5231C8.76923 16.778 8.97587 16.9846 9.23076 16.9846H12.9231C13.178 16.9846 13.3846 16.778 13.3846 16.5231C13.3846 16.2682 13.178 16.0615 12.9231 16.0615Z" fill="#808284"/>
</svg>