<svg width="49" height="48" viewBox="0 0 49 48" fill="none" xmlns="http://www.w3.org/2000/svg">
<g clip-path="url(#clip0_1411_5054)">
<path d="M24.5 48C37.7548 48 48.5 37.2548 48.5 24C48.5 10.7452 37.7548 0 24.5 0C11.2452 0 0.5 10.7452 0.5 24C0.5 37.2548 11.2452 48 24.5 48Z" fill="#EE3A3B"/>
<path d="M44.6 10.9121L23.375 32.8871L23.4125 35.2496H24.3875L47.375 16.7246C46.7 14.6621 45.7625 12.6746 44.6 10.9121Z" fill="#D90506"/>
<path d="M48.0501 9.86211L43.8126 5.66211C43.2501 5.09961 42.3126 5.09961 41.7126 5.66211L23.6001 24.3746L15.7626 16.6496C15.2001 16.0871 14.2626 16.0871 13.6626 16.6496L9.9126 20.3621C9.3501 20.9246 9.3501 21.8621 9.9126 22.4246L22.4376 34.8371C22.7751 35.1746 23.2251 35.2871 23.6751 35.2496C24.1251 35.2871 24.5751 35.1746 24.9126 34.8371L48.0501 11.9621C48.6126 11.3621 48.6126 10.4246 48.0501 9.86211Z" fill="#F2F1EF"/>
<path d="M24.9125 34.8377L48.05 11.9627C48.6125 11.4002 48.6125 10.4627 48.05 9.90019L47.375 9.2627L23.6375 32.5877L10.5125 19.8002L9.94995 20.3627C9.38745 20.9252 9.38745 21.8627 9.94995 22.4252L22.475 34.8377C22.8125 35.1752 23.2625 35.2877 23.7125 35.2502C24.125 35.2877 24.575 35.1752 24.9125 34.8377Z" fill="#E6E5E3"/>
</g>
<defs>
<clipPath id="clip0_1411_5054">
<rect width="48" height="48" fill="white" transform="translate(0.5)"/>
</clipPath>
</defs>
</svg>
