<svg xmlns="http://www.w3.org/2000/svg" width="20" height="21" viewBox="0 0 20 21" fill="none">
  <path d="M2.5 12.25C2.63261 12.25 2.75978 12.3027 2.85355 12.3964C2.94732 12.4902 3 12.6174 3 12.75V15.25C3 15.5152 3.10536 15.7696 3.29289 15.9571C3.48043 16.1446 3.73478 16.25 4 16.25H16C16.2652 16.25 16.5196 16.1446 16.7071 15.9571C16.8946 15.7696 17 15.5152 17 15.25V12.75C17 12.6174 17.0527 12.4902 17.1464 12.3964C17.2402 12.3027 17.3674 12.25 17.5 12.25C17.6326 12.25 17.7598 12.3027 17.8536 12.3964C17.9473 12.4902 18 12.6174 18 12.75V15.25C18 15.7804 17.7893 16.2891 17.4142 16.6642C17.0391 17.0393 16.5304 17.25 16 17.25H4C3.46957 17.25 2.96086 17.0393 2.58579 16.6642C2.21071 16.2891 2 15.7804 2 15.25V12.75C2 12.6174 2.05268 12.4902 2.14645 12.3964C2.24021 12.3027 2.36739 12.25 2.5 12.25Z" fill="black"/>
  <path d="M9.64666 14.2038C9.69311 14.2504 9.74831 14.2874 9.80908 14.3126C9.86986 14.3378 9.93502 14.3508 10.0008 14.3508C10.0666 14.3508 10.1318 14.3378 10.1926 14.3126C10.2533 14.2874 10.3085 14.2504 10.355 14.2038L13.355 11.2038C13.4015 11.1573 13.4384 11.1021 13.4636 11.0413C13.4887 10.9805 13.5017 10.9154 13.5017 10.8496C13.5017 10.7838 13.4887 10.7187 13.4636 10.6579C13.4384 10.5972 13.4015 10.542 13.355 10.4954C13.3085 10.4489 13.2533 10.412 13.1925 10.3869C13.1317 10.3617 13.0666 10.3487 13.0008 10.3487C12.935 10.3487 12.8699 10.3617 12.8092 10.3869C12.7484 10.412 12.6932 10.4489 12.6467 10.4954L10.5 12.6429V3.84961C10.5 3.717 10.4473 3.58982 10.3535 3.49606C10.2598 3.40229 10.1326 3.34961 9.99999 3.34961C9.86738 3.34961 9.74021 3.40229 9.64644 3.49606C9.55267 3.58982 9.49999 3.717 9.49999 3.84961V12.6429L7.35333 10.4954C7.30682 10.4489 7.2516 10.412 7.19083 10.3869C7.13006 10.3617 7.06493 10.3487 6.99916 10.3487C6.93338 10.3487 6.86825 10.3617 6.80748 10.3869C6.74672 10.412 6.6915 10.4489 6.64499 10.4954C6.59848 10.542 6.56159 10.5972 6.53642 10.6579C6.51125 10.7187 6.49829 10.7838 6.49829 10.8496C6.49829 10.9154 6.51125 10.9805 6.53642 11.0413C6.56159 11.1021 6.59848 11.1573 6.64499 11.2038L9.64499 14.2038H9.64666Z" fill="black"/>
</svg>