<svg xmlns="http://www.w3.org/2000/svg" width="16" height="16" viewBox="0 0 16 16" fill="none">
  <path d="M1.91732 12.0766C1.94795 11.801 1.96326 11.6631 2.00497 11.5343C2.04197 11.42 2.09425 11.3113 2.16038 11.211C2.23493 11.0979 2.33299 10.9999 2.52911 10.8037L11.3333 1.99955C12.0697 1.26317 13.2636 1.26317 14 1.99955C14.7364 2.73593 14.7364 3.92984 14 4.66622L5.19578 13.4704C4.99966 13.6665 4.9016 13.7646 4.78855 13.8391C4.68826 13.9053 4.57949 13.9575 4.46519 13.9945C4.33636 14.0362 4.19853 14.0516 3.92287 14.0822L1.66663 14.3329L1.91732 12.0766Z" fill="white" fill-opacity="0.3"/>
  <path d="M12 6.66622L9.33331 3.99955M1.66663 14.3329L3.92287 14.0822C4.19853 14.0516 4.33636 14.0362 4.46519 13.9945C4.57949 13.9575 4.68826 13.9053 4.78855 13.8391C4.9016 13.7646 4.99966 13.6665 5.19578 13.4704L14 4.66622C14.7364 3.92984 14.7364 2.73593 14 1.99955C13.2636 1.26317 12.0697 1.26317 11.3333 1.99955L2.52911 10.8037C2.33299 10.9999 2.23493 11.0979 2.16038 11.211C2.09425 11.3113 2.04197 11.42 2.00497 11.5343C1.96326 11.6631 1.94795 11.801 1.91732 12.0766L1.66663 14.3329Z" stroke="white" stroke-linecap="round" stroke-linejoin="round"/>
</svg>