<svg width="24" height="24" viewBox="0 0 24 24" fill="none" xmlns="http://www.w3.org/2000/svg">
<path opacity="0.3" d="M16.47 2H7.53C4.47587 2 2 4.47587 2 7.53V16.47C2 19.5241 4.47587 22 7.53 22H16.47C19.5241 22 22 19.5241 22 16.47V7.53C22 4.47587 19.5241 2 16.47 2Z" fill="#B4ADAD"/>
<path d="M8.5 10.1301C9.53829 10.1301 10.38 9.28841 10.38 8.25012C10.38 7.21182 9.53829 6.37012 8.5 6.37012C7.4617 6.37012 6.62 7.21182 6.62 8.25012C6.62 9.28841 7.4617 10.1301 8.5 10.1301Z" fill="#B4ADAD"/>
<path d="M15.44 10.1301C16.4783 10.1301 17.32 9.28841 17.32 8.25012C17.32 7.21182 16.4783 6.37012 15.44 6.37012C14.4017 6.37012 13.56 7.21182 13.56 8.25012C13.56 9.28841 14.4017 10.1301 15.44 10.1301Z" fill="#B4ADAD"/>
<path fill-rule="evenodd" clip-rule="evenodd" d="M8 17.75C8.41422 17.75 8.75 17.4142 8.75 17C8.75 16.139 9.09125 15.3132 9.69862 14.704C10.306 14.0948 11.1298 13.7518 11.9893 13.75L11.9908 13.75C12.4181 13.7483 12.8415 13.831 13.2368 13.9935C13.6321 14.156 13.9915 14.395 14.2943 14.6969C14.5972 14.9989 14.8375 15.3577 15.0016 15.753C15.1656 16.1482 15.25 16.572 15.25 17C15.25 17.4142 15.5858 17.75 16 17.75C16.4142 17.75 16.75 17.4142 16.75 17C16.75 16.3747 16.6266 15.7555 16.387 15.178C16.1473 14.6005 15.7961 14.076 15.3534 13.6346C14.9106 13.1933 14.3851 12.8437 13.807 12.6061C13.2292 12.3686 12.6101 12.2476 11.9854 12.25C10.7284 12.2528 9.52402 12.7546 8.63633 13.645C7.74849 14.5355 7.25 15.7422 7.25 17C7.25 17.4142 7.58579 17.75 8 17.75Z" fill="#B4ADAD"/>
</svg>
