<svg width="50" height="38" viewBox="0 0 50 38" fill="none" xmlns="http://www.w3.org/2000/svg">
<path d="M1.36024 37.5046H0.983948V34.2684H2.78574V34.6005H1.36024V35.7869H2.69942V36.1167H1.36024V37.5046Z" fill="#00040A"/>
<path d="M6.14895 37.5046L5.75051 36.4775H4.4534L4.05718 37.5046H3.67646L4.94258 34.2552H5.28125L6.53852 37.5046H6.14895ZM5.63763 36.1433L5.25912 35.1229C5.25026 35.0963 5.23551 35.0528 5.21485 34.9923C5.19566 34.9318 5.17574 34.869 5.15508 34.8041C5.13442 34.7392 5.11745 34.6868 5.10417 34.6469C5.08941 34.7075 5.07318 34.768 5.05547 34.8285C5.03924 34.8875 5.02301 34.9428 5.00678 34.9945C4.99054 35.0446 4.97652 35.0874 4.96472 35.1229L4.57957 36.1433H5.63763Z" fill="#00040A"/>
<path d="M9.20447 37.5046L8.11764 34.6403H8.09993C8.10583 34.7008 8.111 34.7746 8.11543 34.8617C8.11985 34.9487 8.12354 35.0439 8.12649 35.1472C8.12944 35.249 8.13092 35.3531 8.13092 35.4593V37.5046H7.78119V34.2684H8.33899L9.36384 36.9601H9.37934L10.4197 34.2684H10.9731V37.5046H10.6012V35.4327C10.6012 35.3368 10.6027 35.2409 10.6056 35.145C10.6086 35.0476 10.6123 34.9561 10.6167 34.8705C10.6211 34.7834 10.6255 34.7082 10.63 34.6447H10.6123L9.51215 37.5046H9.20447Z" fill="#00040A"/>
<path d="M12.6518 37.5046V34.2684H13.0281V37.5046H12.6518Z" fill="#00040A"/>
<path d="M14.7112 37.5046V34.2684H15.0875V37.1681H16.5241V37.5046H14.7112Z" fill="#00040A"/>
<path d="M18.6986 35.8909L19.5597 34.2684H19.9648L18.8868 36.2495V37.5046H18.5105V36.2672L17.4303 34.2684H17.842L18.6986 35.8909Z" fill="#00040A"/>
<path d="M25.6265 37.5046H25.2502V35.9795H23.5502V37.5046H23.1739V34.2684H23.5502V35.6475H25.2502V34.2684H25.6265V37.5046Z" fill="#00040A"/>
<path d="M30.1164 35.8821C30.1164 36.1315 30.0846 36.3587 30.0212 36.5638C29.9577 36.7675 29.8633 36.9431 29.7379 37.0907C29.6139 37.2368 29.4597 37.3496 29.2752 37.4293C29.0908 37.509 28.8768 37.5489 28.6333 37.5489C28.3824 37.5489 28.1633 37.509 27.9759 37.4293C27.79 37.3496 27.635 37.236 27.5111 37.0884C27.3886 36.9409 27.2964 36.7645 27.2344 36.5594C27.1739 36.3543 27.1436 36.127 27.1436 35.8777C27.1436 35.5471 27.1982 35.2571 27.3074 35.0078C27.4166 34.7584 27.5819 34.5643 27.8032 34.4256C28.0261 34.2869 28.305 34.2175 28.6399 34.2175C28.9602 34.2175 29.2295 34.2861 29.4479 34.4234C29.6678 34.5606 29.8338 34.7539 29.9459 35.0033C30.0595 35.2512 30.1164 35.5442 30.1164 35.8821ZM27.5398 35.8821C27.5398 36.1566 27.5789 36.3941 27.6572 36.5948C27.7354 36.7955 27.8549 36.9505 28.0157 37.0597C28.1781 37.1689 28.3839 37.2235 28.6333 37.2235C28.8842 37.2235 29.0893 37.1689 29.2487 37.0597C29.4095 36.9505 29.5283 36.7955 29.605 36.5948C29.6818 36.3941 29.7201 36.1566 29.7201 35.8821C29.7201 35.4645 29.6323 35.1383 29.4567 34.9037C29.2826 34.6676 29.0103 34.5496 28.6399 34.5496C28.3891 34.5496 28.1825 34.6034 28.0202 34.7111C27.8578 34.8189 27.7368 34.9723 27.6572 35.1716C27.5789 35.3693 27.5398 35.6061 27.5398 35.8821Z" fill="#00040A"/>
<path d="M33.4574 36.6435C33.4574 36.8354 33.4095 36.9992 33.3135 37.1349C33.2191 37.2692 33.0863 37.3718 32.9151 37.4426C32.7439 37.5134 32.5425 37.5489 32.3108 37.5489C32.1883 37.5489 32.0725 37.543 31.9633 37.5311C31.8541 37.5193 31.7538 37.5024 31.6623 37.4802C31.5708 37.4581 31.4904 37.4308 31.421 37.3983V37.0375C31.5317 37.0833 31.6667 37.1261 31.8261 37.1659C31.9854 37.2043 32.1522 37.2235 32.3263 37.2235C32.4886 37.2235 32.6259 37.2021 32.738 37.1593C32.8502 37.115 32.935 37.0523 32.9926 36.9711C33.0516 36.8885 33.0811 36.7896 33.0811 36.6745C33.0811 36.5638 33.0568 36.4716 33.0081 36.3978C32.9594 36.3226 32.8782 36.2547 32.7646 36.1942C32.6524 36.1322 32.499 36.0665 32.3042 35.9972C32.167 35.9485 32.0459 35.8954 31.9412 35.8378C31.8364 35.7788 31.7486 35.7124 31.6778 35.6386C31.6069 35.5648 31.5531 35.4792 31.5162 35.3818C31.4808 35.2844 31.4631 35.173 31.4631 35.0476C31.4631 34.8749 31.5066 34.7274 31.5937 34.6049C31.6822 34.4809 31.8039 34.3865 31.9589 34.3216C32.1153 34.2552 32.2946 34.222 32.4968 34.222C32.6694 34.222 32.8288 34.2382 32.9749 34.2707C33.1225 34.3031 33.2575 34.3467 33.38 34.4013L33.2626 34.7244C33.1461 34.6757 33.0221 34.6351 32.8908 34.6027C32.7609 34.5702 32.6266 34.554 32.4879 34.554C32.3492 34.554 32.2319 34.5746 32.136 34.616C32.0415 34.6558 31.9692 34.7126 31.919 34.7864C31.8689 34.8602 31.8438 34.948 31.8438 35.0498C31.8438 35.1634 31.8674 35.2579 31.9146 35.3331C31.9633 35.4084 32.04 35.4755 32.1448 35.5346C32.2511 35.5921 32.3913 35.6526 32.5654 35.7161C32.7557 35.7854 32.9173 35.8592 33.0501 35.9374C33.183 36.0142 33.284 36.1086 33.3534 36.2208C33.4227 36.3314 33.4574 36.4724 33.4574 36.6435Z" fill="#00040A"/>
<path d="M35.7581 34.2684C36.1758 34.2684 36.4805 34.3503 36.6723 34.5141C36.8656 34.6765 36.9623 34.9096 36.9623 35.2136C36.9623 35.3508 36.9394 35.4814 36.8937 35.6054C36.8494 35.7279 36.7771 35.8363 36.6768 35.9308C36.5764 36.0238 36.4443 36.0975 36.2805 36.1521C36.1182 36.2053 35.919 36.2318 35.6829 36.2318H35.2889V37.5046H34.9126V34.2684H35.7581ZM35.7227 34.5894H35.2889V35.9086H35.6408C35.8474 35.9086 36.0193 35.8865 36.1566 35.8422C36.2953 35.798 36.3993 35.7264 36.4687 35.6275C36.538 35.5272 36.5727 35.3944 36.5727 35.2291C36.5727 35.0137 36.5041 34.8535 36.3669 34.7488C36.2296 34.6425 36.0149 34.5894 35.7227 34.5894Z" fill="#00040A"/>
<path d="M38.4329 37.5046V34.2684H38.8092V37.5046H38.4329Z" fill="#00040A"/>
<path d="M41.4863 37.5046H41.1077V34.6005H40.0895V34.2684H42.5V34.6005H41.4863V37.5046Z" fill="#00040A"/>
<path d="M45.8123 37.5046L45.4139 36.4775H44.1168L43.7206 37.5046H43.3399L44.606 34.2552H44.9446L46.2019 37.5046H45.8123ZM45.301 36.1433L44.9225 35.1229C44.9137 35.0963 44.8989 35.0528 44.8782 34.9923C44.8591 34.9318 44.8391 34.869 44.8185 34.8041C44.7978 34.7392 44.7808 34.6868 44.7676 34.6469C44.7528 34.7075 44.7366 34.768 44.7189 34.8285C44.7026 34.8875 44.6864 34.9428 44.6702 34.9945C44.6539 35.0446 44.6399 35.0874 44.6281 35.1229L44.243 36.1433H45.301Z" fill="#00040A"/>
<path d="M47.4446 37.5046V34.2684H47.8209V37.1681H49.2574V37.5046H47.4446Z" fill="#00040A"/>
<circle cx="25.4242" cy="7.35497" r="5.35741" fill="white"/>
<path d="M31.6769 4.88115C31.6769 3.91571 31.6703 2.95027 31.6769 1.98483C31.6769 1.67885 31.5753 1.48554 31.277 1.39607C29.4681 0.844188 27.5952 0.529684 25.7053 0.460456C23.633 0.385342 21.6182 0.766436 19.6387 1.37729C19.0135 1.56949 18.8567 1.75286 18.8556 2.40348C18.8556 3.89362 18.8467 5.38596 18.8556 6.87278C18.8688 8.83459 19.4951 10.5722 20.7754 12.0711C21.9905 13.4917 23.5093 14.5477 25.0127 15.6236C25.0941 15.689 25.1954 15.7247 25.2999 15.7247C25.4044 15.7247 25.5057 15.689 25.5871 15.6236C26.7602 14.8205 27.919 14.0009 28.9496 13.0145C30.379 11.6525 31.4173 10.0751 31.6349 8.06577C31.7509 7.01307 31.6404 5.94269 31.6769 4.88115ZM28.7099 10.7036C28.7099 10.1425 28.7099 9.5802 28.7099 9.01685C28.7099 8.60372 28.8988 8.24361 29.0656 7.8824C29.1511 7.72542 29.1889 7.54688 29.1744 7.3687C29.1599 7.19053 29.0936 7.02047 28.9838 6.87941C28.4381 6.10065 27.9212 5.30201 27.3932 4.5111C27.3582 4.45177 27.3187 4.39526 27.275 4.34209C27.138 4.19739 26.9624 4.14105 26.7911 4.25151C26.6199 4.36198 26.6741 4.54313 26.7602 4.69336C27.0916 5.27881 27.4373 5.86095 27.772 6.4464C27.8958 6.66732 28.0051 6.88824 28.1178 7.10917C28.1557 7.17553 28.18 7.24878 28.1893 7.32465C28.1986 7.40051 28.1927 7.47746 28.1719 7.55102C28.1355 7.66921 28.1034 7.80618 27.9609 7.8338C27.8184 7.86141 27.7466 7.73549 27.6914 7.62392C27.4201 7.12792 27.1016 6.65923 26.7403 6.22437C26.621 6.06972 26.5017 5.851 26.2885 5.96368C26.0753 6.07635 26.1913 6.31495 26.2709 6.47622C27.1093 8.1685 26.7525 9.96572 26.7127 11.7287C26.7127 11.7419 26.7127 11.7552 26.7127 11.7674C26.684 12.1529 26.3405 12.0358 25.9461 12.0789C25.9261 12.0787 25.9061 12.0764 25.8865 12.0722C25.755 12.0413 25.776 11.9098 25.776 11.721C25.765 10.7268 25.7672 9.73264 25.776 8.73848C25.776 8.42919 25.7263 8.18617 25.3341 8.18617C24.942 8.18617 24.8923 8.4071 24.8923 8.72965C24.9011 9.73596 24.8813 10.7434 24.9045 11.7497C24.9122 12.0811 24.7852 12.1065 24.5189 12.0612C23.9269 11.9596 23.9258 11.9662 23.9103 11.3719C23.8893 10.5445 23.8628 9.71497 23.8484 8.89092C23.831 8.26875 23.9412 7.6496 24.1721 7.07161C24.2704 6.8297 24.3709 6.58779 24.4538 6.33925C24.4957 6.21442 24.5543 6.05205 24.4063 5.96368C24.2582 5.87531 24.1102 5.97914 24.0174 6.10286C23.6794 6.55465 23.3127 6.98655 23.0465 7.49026C22.9681 7.63939 22.9128 7.89566 22.6941 7.82165C22.4367 7.72555 22.4478 7.45491 22.4953 7.23399C22.552 7.04991 22.633 6.8742 22.7361 6.7115C23.1105 6.04873 23.495 5.39921 23.8672 4.73976C23.96 4.57627 24.0881 4.37192 23.8529 4.23605C23.6419 4.11565 23.4519 4.22169 23.3237 4.415C22.7427 5.28654 22.1661 6.1603 21.5862 7.03184C21.5126 7.13369 21.4702 7.25473 21.4641 7.38024C21.458 7.50575 21.4885 7.63032 21.5519 7.7388C22.0766 8.66779 21.912 9.69177 22.0115 10.7047C20.9897 10.0066 20.159 8.026 20.5975 6.20559C21.0924 4.15652 22.8598 2.61668 24.8901 2.46645C27.0872 2.30849 29.0932 3.54787 29.8487 5.52845C30.5546 7.37759 30.0498 9.64317 28.7099 10.7036Z" fill="#B82B2B"/>
<path d="M25.342 4.19618C25.1756 4.19633 25.0155 4.13217 24.8953 4.0171C24.7751 3.90203 24.704 3.74495 24.6969 3.57869C24.6939 3.49616 24.7075 3.41387 24.7367 3.33664C24.766 3.2594 24.8103 3.18878 24.8672 3.12891C24.9241 3.06904 24.9924 3.02113 25.068 2.98797C25.1437 2.95481 25.2251 2.93707 25.3077 2.93581C25.4746 2.93104 25.6365 2.99248 25.7582 3.10673C25.8799 3.22098 25.9515 3.37874 25.9572 3.54556C25.9572 3.71208 25.8935 3.87228 25.779 3.99327C25.6646 4.11426 25.5082 4.18686 25.342 4.19618Z" fill="#B82B2B"/>
<path d="M5.80376 25.5142C6.05119 24.9542 6.27875 24.4405 6.50409 23.9257C7.11053 22.5372 7.71033 21.1465 8.32561 19.7613C8.45927 19.4609 8.54653 19.1693 8.45153 18.8467C8.37642 18.5937 8.4924 18.5021 8.7299 18.4623C9.77929 18.2856 9.7826 18.2922 9.90521 19.346C10.1935 21.8237 10.4851 24.3013 10.7944 26.7768C10.843 27.1678 10.758 27.3158 10.3437 27.3379C9.45342 27.3843 9.449 27.4064 9.34959 26.5205C9.14081 24.7266 8.93978 22.9327 8.73321 21.1388C8.71664 20.9886 8.68682 20.8394 8.6592 20.6638C8.54211 20.7301 8.52996 20.8361 8.49351 20.9245C7.66836 22.9371 6.82774 24.9442 6.03021 26.969C5.87224 27.3711 5.60603 27.3589 5.29121 27.3865C4.9543 27.4164 4.92669 27.1579 4.84937 26.9447C4.09233 24.9468 3.33493 22.9496 2.57716 20.9532C2.53629 20.8428 2.53519 20.7047 2.35624 20.6075C2.24578 21.468 2.14084 22.3042 2.03479 23.1415C1.87131 24.4272 1.70782 25.7127 1.54434 26.9977C1.52888 27.1214 1.58742 27.3037 1.38086 27.3291C1.12348 27.3545 0.858372 27.4517 0.607623 27.3412C0.482801 27.286 0.568961 27.1435 0.587739 27.0419C1.02959 24.6426 1.46149 22.2445 1.91328 19.8475C1.97404 19.5238 1.9895 19.2201 1.84148 18.924C1.67469 18.5926 1.81166 18.4822 2.13973 18.4579C3.2797 18.3596 3.02343 18.2524 3.39458 19.2123C4.15456 21.1918 4.90902 23.1739 5.65795 25.1585C5.70213 25.2557 5.7419 25.3573 5.80376 25.5142Z" fill="#2C3D52"/>
<path d="M19.9187 23.3313C19.9187 22.1858 19.9187 21.0414 19.9187 19.8971C19.9187 19.3072 19.827 19.2078 19.2261 19.1835C19.0715 19.1768 19.014 19.147 18.9908 18.9891C18.9654 18.8112 19.0516 18.7781 19.1908 18.756C20.9703 18.4787 22.7565 18.2843 24.5338 18.714C26.8292 19.2663 27.9327 20.8879 27.6764 23.243C27.4356 25.4522 25.9521 26.9501 23.6998 27.319C22.509 27.5145 21.3337 27.308 20.1518 27.2814C19.8712 27.2748 19.9187 27.0605 19.9187 26.8904C19.9187 25.7055 19.9187 24.5192 19.9187 23.3313ZM21.3028 22.9723V25.704C21.3028 26.8009 21.3028 26.8009 22.4306 26.802C24.1328 26.802 25.3667 26.0564 25.8792 24.6679C26.2757 23.6258 26.2957 22.4778 25.9356 21.4225C25.5224 20.1975 24.6321 19.4795 23.3762 19.2034C22.8581 19.0929 22.3334 19.1271 21.8098 19.1117C21.411 19.1006 21.2895 19.2774 21.2962 19.664C21.3149 20.7653 21.3028 21.8688 21.3028 22.9723Z" fill="#2C3D52"/>
<path d="M41.3482 22.7869C41.2797 24.414 40.9064 25.5827 39.8824 26.4619C38.5138 27.6317 36.0162 27.846 34.4698 26.927C33.2016 26.1736 32.6758 24.9851 32.5764 23.5789C32.466 21.9717 32.7554 20.4926 34.0942 19.41C35.6672 18.1386 38.5767 18.1607 40.0293 19.4631C41.1129 20.4396 41.356 21.732 41.3482 22.7869ZM39.8161 22.9327C39.8062 22.2235 39.6703 21.2592 39.1301 20.402C38.541 19.4675 37.6905 19.0385 36.5785 19.1151C35.5976 19.1825 34.884 19.6785 34.5228 20.5511C33.7882 22.3262 33.8744 24.097 34.9127 25.7329C35.9069 27.307 38.5005 27.3269 39.3886 25.386C39.7046 24.6957 39.8216 23.9677 39.8161 22.9327Z" fill="#2C3D52"/>
<path d="M43.7717 20.6006C43.7717 21.0181 43.7628 21.4158 43.7717 21.8157C43.8136 23.5124 43.8634 25.2091 43.9031 26.9047C43.9031 27.0438 44.0003 27.257 43.8125 27.3067C43.5386 27.3797 43.2392 27.4592 42.9609 27.3432C42.836 27.2924 42.8946 27.1223 42.8968 26.9986C42.9465 24.7783 42.9819 22.5569 43.0625 20.3366C43.0824 19.7942 42.9929 19.3502 42.6295 18.9392C42.3445 18.6178 42.3964 18.5361 42.8283 18.4797C42.8548 18.4797 42.8836 18.4797 42.9101 18.4709C43.6016 18.3096 44.0511 18.5339 44.4864 19.1436C45.8947 21.1187 47.386 23.0363 48.8485 24.9727C48.9192 25.0666 48.959 25.1936 49.1026 25.2267C49.1865 25.1616 49.1434 25.0732 49.1412 25.0058C49.0871 23.0175 49.0308 21.0292 48.9733 19.0475C48.9733 18.9094 48.8772 18.6896 49.0727 18.6532C49.35 18.6034 49.6471 18.4841 49.9211 18.6211C50.0536 18.6874 49.9796 18.8763 49.9763 19.0077C49.9277 21.0771 49.8769 23.146 49.8239 25.2146C49.8117 25.7525 49.8239 26.2916 49.8007 26.8284C49.7918 27.0019 49.9586 27.2869 49.6361 27.3399C49.3401 27.3874 49.0274 27.5034 48.7756 27.1576C48.0631 26.1756 47.323 25.2124 46.594 24.2436L43.9804 20.7663C43.9329 20.7033 43.9031 20.6194 43.7717 20.6006Z" fill="#2C3D52"/>
<path d="M12.7131 23.4275C12.7131 22.3096 12.7131 21.1928 12.7131 20.0749C12.7131 19.5226 12.5927 19.3934 12.0404 19.3702C11.8714 19.3636 11.7951 19.3304 11.773 19.1493C11.751 18.9681 11.8636 18.956 11.994 18.9361C12.6755 18.8256 13.356 18.7152 14.0486 18.7074C15.1941 18.7074 16.3407 18.7141 17.485 18.6909C17.7988 18.6842 17.8971 18.7836 17.8993 19.0819C17.8993 19.5503 17.9346 20.0186 17.9578 20.487C17.9633 20.6063 17.9633 20.7024 17.7988 20.7079C17.6728 20.7145 17.5778 20.7013 17.548 20.5632C17.548 20.5499 17.5392 20.5367 17.537 20.5234C17.2553 19.3183 16.8565 19.3194 15.7762 19.3083C15.3343 19.3083 14.8925 19.315 14.4507 19.3083C14.2187 19.3028 14.0916 19.3569 14.0961 19.6276C14.1071 20.5245 14.1093 21.4215 14.0961 22.3173C14.0961 22.5902 14.2231 22.5935 14.4275 22.5802C15.2007 22.5316 15.9739 22.4963 16.7472 22.4521C16.9891 22.4377 17.2034 22.4422 17.189 22.7746C17.1735 23.053 17.1967 23.3137 16.756 23.2772C16.0004 23.2132 15.2393 23.2231 14.4816 23.18C14.2043 23.1646 14.0939 23.2209 14.1016 23.5291C14.1237 24.3973 14.1226 25.2678 14.1016 26.136C14.0939 26.5061 14.2121 26.6662 14.5976 26.6519C15.1764 26.6298 15.7574 26.6276 16.3362 26.6353C17.0576 26.6441 17.5403 26.3116 17.8175 25.6555C17.8761 25.5163 17.9534 25.3849 18.0086 25.2435C18.0639 25.1021 18.1611 25.133 18.2771 25.1463C18.4262 25.1684 18.4549 25.2479 18.4284 25.3749C18.3179 25.914 18.2075 26.4552 18.0893 26.9921C18.069 27.0885 18.0135 27.174 17.9337 27.2318C17.8538 27.2896 17.7553 27.3156 17.6574 27.3047C16.1109 27.297 14.5644 27.2859 13.018 27.2837C12.7363 27.2837 12.7175 27.1191 12.7186 26.9037C12.7153 25.745 12.7131 24.5862 12.7131 23.4275Z" fill="#2C3D52"/>
<path d="M30.7771 22.9249C30.7771 24.2063 30.7649 25.4876 30.7848 26.7679C30.7914 27.1468 30.6931 27.3014 30.291 27.3334C29.2218 27.4185 29.3963 27.4494 29.3941 26.4873C29.3875 24.3521 29.3941 22.2168 29.3941 20.0805C29.3941 19.3294 29.3797 19.3073 28.6573 19.2067C28.5071 19.1869 28.4795 19.1206 28.4673 18.9991C28.4552 18.8776 28.4883 18.8002 28.633 18.7781C29.2423 18.6632 29.8579 18.585 30.4766 18.544C30.7947 18.5252 30.7804 18.7461 30.7804 18.9604L30.7771 22.9249Z" fill="#2C3D52"/>
</svg>
