<svg width="50" height="57" viewBox="0 0 50 57" fill="none" xmlns="http://www.w3.org/2000/svg">
<path fill-rule="evenodd" clip-rule="evenodd" d="M38.2897 7.77589L43.5046 45.4731L43.9731 49.2551C44.1241 50.4735 43.2499 51.5824 42.0206 51.732L9.19021 55.7274C7.96094 55.877 6.84206 55.0105 6.69113 53.7922L1.63665 12.9917C1.56118 12.3825 1.99826 11.828 2.6129 11.7532C2.61678 11.7528 2.62066 11.7523 2.62455 11.7519L5.34828 11.4491M7.55204 11.2026L10.1237 10.9166L7.55204 11.2026Z" fill="white"/>
<path d="M39.1414 7.65994C39.0764 7.18967 38.6423 6.86036 38.1719 6.9244C37.7016 6.98844 37.373 7.42158 37.438 7.89184L39.1414 7.65994ZM43.5046 45.4731L44.358 45.3693L44.3563 45.3572L43.5046 45.4731ZM43.9731 49.2551L44.8264 49.1513L43.9731 49.2551ZM42.0206 51.732L42.1263 52.5851L42.0206 51.732ZM9.19021 55.7274L9.29589 56.5804L9.19021 55.7274ZM6.69113 53.7922L7.54441 53.6883L6.69113 53.7922ZM1.63665 12.9917L2.48993 12.8879L1.63665 12.9917ZM2.62455 11.7519L2.72137 12.606L2.62455 11.7519ZM5.4451 12.3031C5.91693 12.2507 6.25608 11.8258 6.20261 11.3541C6.14914 10.8824 5.7233 10.5425 5.25146 10.595L5.4451 12.3031ZM7.45522 10.3485C6.98339 10.4009 6.64424 10.8258 6.69771 11.2975C6.75118 11.7692 7.17703 12.1091 7.64886 12.0566L7.45522 10.3485ZM10.2205 11.7707C10.6923 11.7183 11.0315 11.2934 10.978 10.8217C10.9245 10.35 10.4987 10.0101 10.0268 10.0626L10.2205 11.7707ZM37.438 7.89184L42.6529 45.5891L44.3563 45.3572L39.1414 7.65994L37.438 7.89184ZM42.6513 45.577L43.1199 49.3589L44.8264 49.1513L44.3579 45.3693L42.6513 45.577ZM43.1199 49.3589C43.2116 50.0993 42.68 50.7859 41.915 50.879L42.1263 52.5851C43.8199 52.379 45.0366 50.8477 44.8264 49.1513L43.1199 49.3589ZM41.915 50.879L9.08453 54.8743L9.29589 56.5804L42.1263 52.5851L41.915 50.879ZM9.08453 54.8743C8.31955 54.9674 7.63612 54.4286 7.54441 53.6883L5.83785 53.896C6.04801 55.5924 7.60233 56.7865 9.29589 56.5804L9.08453 54.8743ZM7.54441 53.6883L2.48993 12.8879L0.783367 13.0955L5.83785 53.896L7.54441 53.6883ZM2.48993 12.8879C2.47368 12.7567 2.56823 12.6246 2.71857 12.6063L2.50722 10.9002C1.4283 11.0315 0.648676 12.0083 0.783367 13.0955L2.48993 12.8879ZM2.71857 12.6063C2.71951 12.6062 2.72044 12.6061 2.72137 12.606L2.52773 10.8978C2.52089 10.8986 2.51405 10.8994 2.50722 10.9002L2.71857 12.6063ZM2.72137 12.606L5.4451 12.3031L5.25146 10.595L2.52773 10.8978L2.72137 12.606ZM7.64886 12.0566L10.2205 11.7707L10.0268 10.0626L7.45522 10.3485L7.64886 12.0566Z" fill="#898B8E"/>
<path fill-rule="evenodd" clip-rule="evenodd" d="M36.8697 10.1555L41.5899 44.3193L42.0145 47.7467C42.1513 48.8509 41.3698 49.8546 40.2689 49.9885L10.8686 53.5664C9.76772 53.7004 8.76442 52.9139 8.62764 51.8098L4.09096 15.1891C3.99758 14.4353 4.53312 13.7498 5.28712 13.6581L8.67189 13.2462" fill="#F3F3F3"/>
<path d="M14.6895 0.859375H39.5186C39.9547 0.859477 40.3754 1.01044 40.7109 1.2832L40.8486 1.40723L48.0811 8.57031C48.4395 8.92544 48.6406 9.4095 48.6406 9.91406V43.9248C48.6405 44.969 47.7942 45.8153 46.75 45.8154H14.6895C13.6452 45.8154 12.798 44.9691 12.7979 43.9248V2.75098L12.8076 2.55762C12.9043 1.60387 13.7102 0.859375 14.6895 0.859375Z" fill="white" stroke="#898B8E" stroke-width="1.71915"/>
<path d="M39.9717 1.33594V7.77998C39.9717 8.70062 40.7247 9.44695 41.6536 9.44695H46.1013" stroke="#898B8E" stroke-width="1.71915" stroke-linecap="round" stroke-linejoin="round"/>
<path d="M18.29 37.7818H32.8663M18.29 9.44336H32.8663H18.29ZM18.29 16.1112H42.397H18.29ZM18.29 23.3348H42.397H18.29ZM18.29 30.5583H42.397H18.29Z" stroke="#A3A3A3" stroke-width="1.71915" stroke-linecap="round" stroke-linejoin="round"/>
</svg>
