<svg width="25" height="24" viewBox="0 0 25 24" fill="none" xmlns="http://www.w3.org/2000/svg">
<path fill-rule="evenodd" clip-rule="evenodd" d="M9.2679 1.25H15.7321C16.5449 1.24999 17.2006 1.24999 17.7315 1.29336C18.2781 1.33803 18.7582 1.43239 19.2025 1.65873C19.9081 2.01825 20.4818 2.59193 20.8413 3.29754C21.0676 3.74175 21.162 4.2219 21.2066 4.76853C21.25 5.29944 21.25 5.95505 21.25 6.76788V10.5C21.25 10.9142 20.9142 11.25 20.5 11.25C20.0858 11.25 19.75 10.9142 19.75 10.5V6.8C19.75 5.94755 19.7494 5.35331 19.7116 4.89068C19.6745 4.4368 19.6054 4.17604 19.5048 3.97852C19.2891 3.55516 18.9448 3.21095 18.5215 2.99524C18.324 2.8946 18.0632 2.82547 17.6093 2.78838C17.1467 2.75058 16.5525 2.75 15.7 2.75H9.3C8.44755 2.75 7.85331 2.75058 7.39068 2.78838C6.9368 2.82547 6.67604 2.8946 6.47852 2.99524C6.05516 3.21095 5.71095 3.55516 5.49524 3.97852C5.3946 4.17604 5.32547 4.4368 5.28838 4.89068C5.25058 5.35331 5.25 5.94755 5.25 6.8V17.2C5.25 18.0525 5.25058 18.6467 5.28838 19.1093C5.32547 19.5632 5.3946 19.824 5.49524 20.0215C5.71095 20.4448 6.05516 20.789 6.47852 21.0048C6.67604 21.1054 6.9368 21.1745 7.39068 21.2116C7.85331 21.2494 8.44755 21.25 9.3 21.25H12.5C12.9142 21.25 13.25 21.5858 13.25 22C13.25 22.4142 12.9142 22.75 12.5 22.75H9.26788C8.45505 22.75 7.79944 22.75 7.26853 22.7066C6.7219 22.662 6.24175 22.5676 5.79754 22.3413C5.09193 21.9817 4.51825 21.4081 4.15873 20.7025C3.93239 20.2582 3.83803 19.7781 3.79336 19.2315C3.74999 18.7006 3.74999 18.0449 3.75 17.2321V6.7679C3.74999 5.95506 3.74999 5.29944 3.79336 4.76853C3.83803 4.2219 3.93239 3.74175 4.15873 3.29754C4.51825 2.59193 5.09193 2.01825 5.79754 1.65873C6.24175 1.43239 6.7219 1.33803 7.26853 1.29336C7.79944 1.24999 8.45506 1.24999 9.2679 1.25ZM7.75 7C7.75 6.58579 8.08579 6.25 8.5 6.25H16.5C16.9142 6.25 17.25 6.58579 17.25 7C17.25 7.41421 16.9142 7.75 16.5 7.75H8.5C8.08579 7.75 7.75 7.41421 7.75 7ZM7.75 11C7.75 10.5858 8.08579 10.25 8.5 10.25H14.5C14.9142 10.25 15.25 10.5858 15.25 11C15.25 11.4142 14.9142 11.75 14.5 11.75H8.5C8.08579 11.75 7.75 11.4142 7.75 11ZM7.75 15C7.75 14.5858 8.08579 14.25 8.5 14.25H10.5C10.9142 14.25 11.25 14.5858 11.25 15C11.25 15.4142 10.9142 15.75 10.5 15.75H8.5C8.08579 15.75 7.75 15.4142 7.75 15ZM18.5 14.25C18.9142 14.25 19.25 14.5858 19.25 15V17.25H21.5C21.9142 17.25 22.25 17.5858 22.25 18C22.25 18.4142 21.9142 18.75 21.5 18.75H19.25V21C19.25 21.4142 18.9142 21.75 18.5 21.75C18.0858 21.75 17.75 21.4142 17.75 21V18.75H15.5C15.0858 18.75 14.75 18.4142 14.75 18C14.75 17.5858 15.0858 17.25 15.5 17.25H17.75V15C17.75 14.5858 18.0858 14.25 18.5 14.25Z" fill="#323232"/>
</svg>
