<svg xmlns="http://www.w3.org/2000/svg" width="24" height="24" viewBox="0 0 24 24" fill="none">
  <path d="M3.425 21H19.575C19.6877 21 19.7958 20.9552 19.8755 20.8755C19.9552 20.7958 20 20.6877 20 20.575V10.375C20 10.2623 19.9552 10.1542 19.8755 10.0745C19.7958 9.99478 19.6877 9.95 19.575 9.95H17.45V6.125C17.45 6.01228 17.4052 5.90418 17.3255 5.82448C17.2458 5.74478 17.1377 5.7 17.025 5.7H14.9V5.275C14.9 4.93685 14.7657 4.61255 14.5266 4.37344C14.2875 4.13433 13.9632 4 13.625 4H9.375C9.03685 4 8.71255 4.13433 8.47344 4.37344C8.23433 4.61255 8.1 4.93685 8.1 5.275V5.7H5.975C5.86228 5.7 5.75418 5.74478 5.67448 5.82448C5.59478 5.90418 5.55 6.01228 5.55 6.125V9.95H3.425C3.31228 9.95 3.20418 9.99478 3.12448 10.0745C3.04478 10.1542 3 10.2623 3 10.375V20.575C3 20.6877 3.04478 20.7958 3.12448 20.8755C3.20418 20.9552 3.31228 21 3.425 21ZM17.45 10.8H19.15V20.15H17.45V10.8ZM12.775 20.15H10.225V17.175H12.775V20.15ZM8.95 5.275C8.95 5.16228 8.99478 5.05418 9.07448 4.97448C9.15418 4.89478 9.26228 4.85 9.375 4.85H13.625C13.7377 4.85 13.8458 4.89478 13.9255 4.97448C14.0052 5.05418 14.05 5.16228 14.05 5.275V9.525C14.05 9.63772 14.0052 9.74582 13.9255 9.82552C13.8458 9.90522 13.7377 9.95 13.625 9.95H9.375C9.26228 9.95 9.15418 9.90522 9.07448 9.82552C8.99478 9.74582 8.95 9.63772 8.95 9.525V5.275ZM6.4 6.55H8.1V9.525C8.1 9.86315 8.23433 10.1875 8.47344 10.4266C8.71255 10.6657 9.03685 10.8 9.375 10.8H13.625C13.9632 10.8 14.2875 10.6657 14.5266 10.4266C14.7657 10.1875 14.9 9.86315 14.9 9.525V6.55H16.6V20.15H13.625V16.75C13.625 16.6373 13.5802 16.5292 13.5005 16.4495C13.4208 16.3698 13.3127 16.325 13.2 16.325H9.8C9.68728 16.325 9.57918 16.3698 9.49948 16.4495C9.41978 16.5292 9.375 16.6373 9.375 16.75V20.15H6.4V6.55ZM3.85 10.8H5.55V20.15H3.85V10.8Z" fill="#808284"/>
  <path d="M10.225 7.8252H11.075V8.6752C11.075 8.78791 11.1198 8.89601 11.1995 8.97572C11.2792 9.05542 11.3873 9.1002 11.5 9.1002C11.6127 9.1002 11.7208 9.05542 11.8005 8.97572C11.8802 8.89601 11.925 8.78791 11.925 8.6752V7.8252H12.775C12.8877 7.8252 12.9958 7.78042 13.0755 7.70072C13.1552 7.62101 13.2 7.51291 13.2 7.4002C13.2 7.28748 13.1552 7.17938 13.0755 7.09968C12.9958 7.01997 12.8877 6.9752 12.775 6.9752H11.925V6.1252C11.925 6.01248 11.8802 5.90438 11.8005 5.82468C11.7208 5.74497 11.6127 5.7002 11.5 5.7002C11.3873 5.7002 11.2792 5.74497 11.1995 5.82468C11.1198 5.90438 11.075 6.01248 11.075 6.1252V6.9752H10.225C10.1123 6.9752 10.0042 7.01997 9.92447 7.09968C9.84476 7.17938 9.79999 7.28748 9.79999 7.4002C9.79999 7.51291 9.84476 7.62101 9.92447 7.70072C10.0042 7.78042 10.1123 7.8252 10.225 7.8252Z" fill="#808284"/>
  <path d="M8.52498 12.9252H9.37498C9.48769 12.9252 9.59579 12.8804 9.6755 12.8007C9.7552 12.721 9.79998 12.6129 9.79998 12.5002C9.79998 12.3875 9.7552 12.2794 9.6755 12.1997C9.59579 12.12 9.48769 12.0752 9.37498 12.0752H8.52498C8.41226 12.0752 8.30416 12.12 8.22445 12.1997C8.14475 12.2794 8.09998 12.3875 8.09998 12.5002C8.09998 12.6129 8.14475 12.721 8.22445 12.8007C8.30416 12.8804 8.41226 12.9252 8.52498 12.9252Z" fill="#808284"/>
  <path d="M9.79998 14.6252C9.79998 14.5125 9.7552 14.4044 9.6755 14.3247C9.59579 14.245 9.48769 14.2002 9.37498 14.2002H8.52498C8.41226 14.2002 8.30416 14.245 8.22445 14.3247C8.14475 14.4044 8.09998 14.5125 8.09998 14.6252C8.09998 14.7379 8.14475 14.846 8.22445 14.9257C8.30416 15.0054 8.41226 15.0502 8.52498 15.0502H9.37498C9.48769 15.0502 9.59579 15.0054 9.6755 14.9257C9.7552 14.846 9.79998 14.7379 9.79998 14.6252Z" fill="#808284"/>
  <path d="M11.075 12.9252H11.925C12.0377 12.9252 12.1458 12.8804 12.2255 12.8007C12.3052 12.721 12.35 12.6129 12.35 12.5002C12.35 12.3875 12.3052 12.2794 12.2255 12.1997C12.1458 12.12 12.0377 12.0752 11.925 12.0752H11.075C10.9623 12.0752 10.8542 12.12 10.7745 12.1997C10.6948 12.2794 10.65 12.3875 10.65 12.5002C10.65 12.6129 10.6948 12.721 10.7745 12.8007C10.8542 12.8804 10.9623 12.9252 11.075 12.9252Z" fill="#808284"/>
  <path d="M11.075 15.0502H11.925C12.0377 15.0502 12.1458 15.0054 12.2255 14.9257C12.3052 14.846 12.35 14.7379 12.35 14.6252C12.35 14.5125 12.3052 14.4044 12.2255 14.3247C12.1458 14.245 12.0377 14.2002 11.925 14.2002H11.075C10.9623 14.2002 10.8542 14.245 10.7745 14.3247C10.6948 14.4044 10.65 14.5125 10.65 14.6252C10.65 14.7379 10.6948 14.846 10.7745 14.9257C10.8542 15.0054 10.9623 15.0502 11.075 15.0502Z" fill="#808284"/>
  <path d="M13.625 12.9252H14.475C14.5877 12.9252 14.6958 12.8804 14.7755 12.8007C14.8552 12.721 14.9 12.6129 14.9 12.5002C14.9 12.3875 14.8552 12.2794 14.7755 12.1997C14.6958 12.12 14.5877 12.0752 14.475 12.0752H13.625C13.5123 12.0752 13.4042 12.12 13.3245 12.1997C13.2448 12.2794 13.2 12.3875 13.2 12.5002C13.2 12.6129 13.2448 12.721 13.3245 12.8007C13.4042 12.8804 13.5123 12.9252 13.625 12.9252Z" fill="#808284"/>
  <path d="M13.625 15.0502H14.475C14.5877 15.0502 14.6958 15.0054 14.7755 14.9257C14.8552 14.846 14.9 14.7379 14.9 14.6252C14.9 14.5125 14.8552 14.4044 14.7755 14.3247C14.6958 14.245 14.5877 14.2002 14.475 14.2002H13.625C13.5123 14.2002 13.4042 14.245 13.3245 14.3247C13.2448 14.4044 13.2 14.5125 13.2 14.6252C13.2 14.7379 13.2448 14.846 13.3245 14.9257C13.4042 15.0054 13.5123 15.0502 13.625 15.0502Z" fill="#808284"/>
</svg>
