<svg xmlns="http://www.w3.org/2000/svg" width="24" height="24" viewBox="0 0 24 24" fill="none">
  <path d="M19.5831 6.54545H18.3091V5.45455C18.3091 5.15327 18.0649 4.90909 17.7636 4.90909C17.4624 4.90909 17.2182 5.15327 17.2182 5.45455V6.54545H15.7636V5.59219C15.7636 4.71435 15.0493 4 14.1714 4H10.4469C9.56889 4 8.85455 4.71435 8.85455 5.59219V6.54545H7.39361V5.45455C7.39361 5.15327 7.14943 4.90909 6.84815 4.90909C6.54687 4.90909 6.3027 5.15327 6.3027 5.45455V6.54545H5.03509C3.91293 6.54545 3 7.45838 3 8.58054V17.9649C3 19.0871 3.91293 20 5.03509 20H19.5831C20.7053 20 21.6182 19.0871 21.6182 17.9649V8.58054C21.6182 7.45838 20.7053 6.54545 19.5831 6.54545ZM9.94545 5.59219C9.94545 5.31577 10.1703 5.09091 10.4469 5.09091H14.1714C14.4479 5.09091 14.6727 5.31577 14.6727 5.59219V6.54545H9.94545V5.59219ZM20.5273 17.9649C20.5273 18.4857 20.1038 18.9091 19.5831 18.9091H5.03509C4.51449 18.9091 4.09091 18.4857 4.09091 17.9649V8.58054C4.09091 8.0598 4.51449 7.63636 5.03509 7.63636H19.5831C20.1038 7.63636 20.5273 8.0598 20.5273 8.58054V17.9649Z" fill="#808284"/>
  <path d="M14.9643 11.4893H14.12V10.6451C14.12 9.80847 13.4395 9.12793 12.603 9.12793H12.017C11.1805 9.12793 10.5 9.80847 10.5 10.6451V11.4893H9.65566C8.81915 11.4893 8.13861 12.1698 8.13861 13.0065V13.5923C8.13861 14.4288 8.81915 15.1093 9.65566 15.1093H10.5V15.9536C10.5 16.7903 11.1805 17.4708 12.017 17.4708H12.603C13.4395 17.4708 14.12 16.7903 14.12 15.9536V15.1093H14.9643C15.8008 15.1093 16.4814 14.4288 16.4814 13.5923V13.0065C16.4814 12.1698 15.8008 11.4893 14.9643 11.4893ZM15.3905 13.5923C15.3905 13.8272 15.1993 14.0184 14.9643 14.0184H13.7893C13.3701 14.0184 13.0291 14.3595 13.0291 14.7785V15.9536C13.0291 16.1886 12.8379 16.3799 12.603 16.3799H12.0172C11.7821 16.3799 11.5909 16.1886 11.5909 15.9536V14.7785C11.5909 14.3595 11.25 14.0184 10.8308 14.0184H9.65566C9.42071 14.0184 9.22952 13.8272 9.22952 13.5923V13.0065C9.22952 12.7714 9.42071 12.5802 9.65566 12.5802H10.8308C11.25 12.5802 11.5909 12.2392 11.5909 11.8201V10.6451C11.5909 10.41 11.7821 10.2188 12.0172 10.2188H12.603C12.8379 10.2188 13.0291 10.41 13.0291 10.6451V11.8201C13.0291 12.2392 13.3701 12.5802 13.7893 12.5802H14.9643C15.1993 12.5802 15.3905 12.7714 15.3905 13.0065V13.5923Z" fill="#808284"/>
</svg>