<svg width="22" height="24" viewBox="0 0 22 24" fill="none" xmlns="http://www.w3.org/2000/svg">
<path d="M1.20313 0.75C0.815 0.75 0.5 1.065 0.5 1.45312V2.61281V12.8869V22.5469C0.5 22.935 0.815 23.25 1.20313 23.25C1.59125 23.25 1.90625 22.935 1.90625 22.5469V13.2169C2.66938 12.6263 5.49031 10.8056 9.90594 12.1416C15.9594 13.98 20.8044 6.83625 21.0069 6.53156C21.1691 6.28781 21.1634 5.96813 20.9919 5.73094C20.8203 5.49281 20.5194 5.38594 20.2363 5.46375C20.1875 5.47875 15.3472 6.75 10.9803 3.69094C7.64469 1.35281 3.63313 1.55531 1.90625 1.78406V1.45312C1.90625 1.065 1.59125 0.75 1.20313 0.75V0.75ZM10.175 4.84125C13.3719 7.08094 16.7375 7.26656 18.7616 7.10625C17.1416 8.94469 13.8856 11.8781 10.3128 10.7953C6.30125 9.57844 3.41281 10.65 1.90625 11.5266V3.20531C3.31156 3.00469 7.14125 2.71781 10.175 4.84125Z" fill="#D90506"/>
</svg>
