<svg width="40" height="40" viewBox="0 0 40 40" fill="none" xmlns="http://www.w3.org/2000/svg">
<g clip-path="url(#clip0_10805_139637)">
<path d="M0 26.666H53.3333V39.9993H0V26.666Z" fill="#1EB53A"/>
<path d="M0 0H53.3333V13.3333H0V0Z" fill="#0099B5"/>
<path d="M0 12.8008H53.3333V27.2008H0V12.8008Z" fill="#CE1126"/>
<path d="M0 13.5996H53.3333V26.3996H0V13.5996Z" fill="white"/>
<path d="M9.8 11.266C12.451 11.266 14.6 9.11698 14.6 6.46602C14.6 3.81505 12.451 1.66602 9.8 1.66602C7.14903 1.66602 5 3.81505 5 6.46602C5 9.11698 7.14903 11.266 9.8 11.266Z" fill="white"/>
<path d="M11.3986 11.266C14.0496 11.266 16.1986 9.11698 16.1986 6.46602C16.1986 3.81505 14.0496 1.66602 11.3986 1.66602C8.74767 1.66602 6.59863 3.81505 6.59863 6.46602C6.59863 9.11698 8.74767 11.266 11.3986 11.266Z" fill="#0099B5"/>
<path d="M20.3606 9.34961L20.0566 10.2616L20.5206 10.4216" fill="white"/>
<path d="M20.361 9.34961L20.665 10.2616L20.201 10.4216" fill="white"/>
<path d="M21.2746 10.0118L20.3133 10.0045L20.3045 10.4952" fill="white"/>
<path d="M21.2762 10.0117L20.5028 10.5826L20.2072 10.1908" fill="white"/>
<path d="M19.4494 10.0117L20.2228 10.5826L20.5184 10.1908" fill="white"/>
<path d="M19.45 10.0118L20.4113 10.0045L20.4201 10.4952" fill="white"/>
<path d="M20.9279 11.0849L20.6378 10.1684L20.1683 10.3117" fill="white"/>
<path d="M20.9286 11.085L20.1466 10.5258L20.4279 10.1237" fill="white"/>
<path d="M19.798 11.085L20.58 10.5258L20.2987 10.1237" fill="white"/>
<path d="M19.7987 11.0849L20.0888 10.1684L20.5582 10.3117" fill="white"/>
<path d="M20.3606 5.50781L20.0566 6.41981L20.5206 6.57981" fill="white"/>
<path d="M20.361 5.50781L20.665 6.41981L20.201 6.57981" fill="white"/>
<path d="M21.2756 6.16998L20.3143 6.16268L20.3055 6.65342" fill="white"/>
<path d="M21.2752 6.16986L20.5018 6.74081L20.2062 6.34896" fill="white"/>
<path d="M19.4494 6.17182L20.2228 6.74276L20.5184 6.35091" fill="white"/>
<path d="M19.45 6.17193L20.4113 6.16464L20.4201 6.65537" fill="white"/>
<path d="M20.9279 7.24509L20.6378 6.32858L20.1683 6.47187" fill="white"/>
<path d="M20.9286 7.24514L20.1466 6.686L20.4279 6.28383" fill="white"/>
<path d="M19.798 7.24514L20.58 6.686L20.2987 6.28383" fill="white"/>
<path d="M19.7987 7.24509L20.0888 6.32858L20.5582 6.47187" fill="white"/>
<path d="M20.3606 1.66797L20.0566 2.57997L20.5206 2.73997" fill="white"/>
<path d="M20.361 1.66797L20.665 2.57997L20.201 2.73997" fill="white"/>
<path d="M21.2746 2.33209L20.3133 2.32479L20.3045 2.81553" fill="white"/>
<path d="M21.2762 2.33197L20.5028 2.90292L20.2072 2.51107" fill="white"/>
<path d="M19.4494 2.33197L20.2228 2.90292L20.5184 2.51107" fill="white"/>
<path d="M19.45 2.33209L20.4113 2.32479L20.4201 2.81553" fill="white"/>
<path d="M20.9279 3.4033L20.6378 2.48679L20.1683 2.63008" fill="white"/>
<path d="M20.9286 3.40334L20.1466 2.84421L20.4279 2.44203" fill="white"/>
<path d="M19.798 3.40334L20.58 2.84421L20.2987 2.44203" fill="white"/>
<path d="M19.7987 3.4033L20.0888 2.48679L20.5582 2.63008" fill="white"/>
<path d="M24.1985 9.34961L23.8945 10.2616L24.3585 10.4216" fill="white"/>
<path d="M24.1989 9.34961L24.5029 10.2616L24.0389 10.4216" fill="white"/>
<path d="M25.1125 10.0118L24.1512 10.0045L24.1424 10.4952" fill="white"/>
<path d="M25.1141 10.0117L24.3406 10.5826L24.0451 10.1908" fill="white"/>
<path d="M23.2853 10.0117L24.0588 10.5826L24.3543 10.1908" fill="white"/>
<path d="M23.2859 10.0118L24.2472 10.0045L24.256 10.4952" fill="white"/>
<path d="M24.7648 11.0849L24.4747 10.1684L24.0053 10.3117" fill="white"/>
<path d="M24.7655 11.085L23.9835 10.5258L24.2648 10.1237" fill="white"/>
<path d="M23.6349 11.085L24.4169 10.5258L24.1356 10.1237" fill="white"/>
<path d="M23.6356 11.0849L23.9257 10.1684L24.3951 10.3117" fill="white"/>
<path d="M24.1985 5.50781L23.8945 6.41981L24.3585 6.57981" fill="white"/>
<path d="M24.1989 5.50781L24.5029 6.41981L24.0389 6.57981" fill="white"/>
<path d="M25.1135 6.16998L24.1522 6.16268L24.1434 6.65342" fill="white"/>
<path d="M25.1131 6.16986L24.3397 6.74081L24.0441 6.34896" fill="white"/>
<path d="M23.2853 6.16986L24.0588 6.74081L24.3543 6.34896" fill="white"/>
<path d="M23.2859 6.16998L24.2472 6.16268L24.256 6.65342" fill="white"/>
<path d="M24.7648 7.24314L24.4747 6.32663L24.0053 6.46992" fill="white"/>
<path d="M24.7655 7.24319L23.9835 6.68405L24.2648 6.28188" fill="white"/>
<path d="M23.6349 7.24319L24.4169 6.68405L24.1356 6.28188" fill="white"/>
<path d="M23.6356 7.24314L23.9257 6.32663L24.3951 6.46992" fill="white"/>
<path d="M24.1985 1.66797L23.8945 2.57997L24.3585 2.73997" fill="white"/>
<path d="M24.1989 1.66797L24.5029 2.57997L24.0389 2.73997" fill="white"/>
<path d="M25.1135 2.33209L24.1522 2.32479L24.1434 2.81553" fill="white"/>
<path d="M25.1131 2.33197L24.3397 2.90292L24.0441 2.51107" fill="white"/>
<path d="M23.2853 2.33197L24.0588 2.90292L24.3543 2.51107" fill="white"/>
<path d="M23.2859 2.33209L24.2472 2.32479L24.256 2.81553" fill="white"/>
<path d="M24.7648 3.4033L24.4747 2.48679L24.0053 2.63008" fill="white"/>
<path d="M24.7655 3.40334L23.9835 2.84421L24.2648 2.44203" fill="white"/>
<path d="M23.6349 3.4053L24.4169 2.84616L24.1356 2.44399" fill="white"/>
<path d="M23.6356 3.40525L23.9257 2.48874L24.3951 2.63203" fill="white"/>
<path d="M28.0354 9.34961L27.7314 10.2616L28.1954 10.4216" fill="white"/>
<path d="M28.0358 9.34961L28.3398 10.2616L27.8758 10.4216" fill="white"/>
<path d="M28.9494 10.0118L27.9881 10.0045L27.9793 10.4952" fill="white"/>
<path d="M28.949 10.0117L28.1756 10.5826L27.8801 10.1908" fill="white"/>
<path d="M27.1203 10.0117L27.8937 10.5826L28.1893 10.1908" fill="white"/>
<path d="M27.1209 10.0118L28.0822 10.0045L28.091 10.4952" fill="white"/>
<path d="M28.6017 11.0849L28.3116 10.1684L27.8422 10.3117" fill="white"/>
<path d="M28.6024 11.085L27.8204 10.5258L28.1017 10.1237" fill="white"/>
<path d="M27.4718 11.085L28.2538 10.5258L27.9725 10.1237" fill="white"/>
<path d="M27.4725 11.0849L27.7626 10.1684L28.2321 10.3117" fill="white"/>
<path d="M28.0354 5.50781L27.7314 6.41981L28.1954 6.57981" fill="white"/>
<path d="M28.0358 5.50781L28.3398 6.41981L27.8758 6.57981" fill="white"/>
<path d="M28.9504 6.16998L27.9891 6.16268L27.9803 6.65342" fill="white"/>
<path d="M28.95 6.16986L28.1766 6.74081L27.881 6.34896" fill="white"/>
<path d="M27.1203 6.17182L27.8937 6.74276L28.1893 6.35091" fill="white"/>
<path d="M27.1209 6.17193L28.0822 6.16464L28.091 6.65537" fill="white"/>
<path d="M28.6017 7.24509L28.3116 6.32858L27.8422 6.47187" fill="white"/>
<path d="M28.6024 7.24514L27.8204 6.686L28.1017 6.28383" fill="white"/>
<path d="M27.4718 7.24514L28.2538 6.686L27.9725 6.28383" fill="white"/>
<path d="M27.4725 7.24509L27.7626 6.32858L28.2321 6.47187" fill="white"/>
<path d="M28.0354 1.66797L27.7314 2.57997L28.1954 2.73997" fill="white"/>
<path d="M28.0358 1.66797L28.3398 2.57997L27.8758 2.73997" fill="white"/>
<path d="M28.9494 2.33209L27.9881 2.32479L27.9793 2.81553" fill="white"/>
<path d="M28.949 2.33197L28.1756 2.90292L27.8801 2.51107" fill="white"/>
<path d="M27.1203 2.33197L27.8937 2.90292L28.1893 2.51107" fill="white"/>
<path d="M27.1209 2.33209L28.0822 2.32479L28.091 2.81553" fill="white"/>
<path d="M28.6017 3.4033L28.3116 2.48679L27.8422 2.63008" fill="white"/>
<path d="M28.6024 3.40334L27.8204 2.84421L28.1017 2.44203" fill="white"/>
<path d="M27.4718 3.4053L28.2538 2.84616L27.9725 2.44399" fill="white"/>
<path d="M27.4725 3.40525L27.7626 2.48874L28.2321 2.63203" fill="white"/>
<path d="M12.677 9.34766L12.373 10.2597L12.837 10.4197" fill="white"/>
<path d="M12.6774 9.34766L12.9814 10.2597L12.5174 10.4197" fill="white"/>
<path d="M13.591 10.0098L12.6297 10.0025L12.6209 10.4933" fill="white"/>
<path d="M13.5906 10.0097L12.8172 10.5807L12.5217 10.1888" fill="white"/>
<path d="M11.7658 10.0097L12.5392 10.5807L12.8348 10.1888" fill="white"/>
<path d="M11.7664 10.0098L12.7277 10.0025L12.7365 10.4933" fill="white"/>
<path d="M13.2423 11.083L12.9522 10.1665L12.4828 10.3098" fill="white"/>
<path d="M13.243 11.083L12.461 10.5239L12.7423 10.1217" fill="white"/>
<path d="M12.1125 11.083L12.8945 10.5239L12.6131 10.1217" fill="white"/>
<path d="M12.1131 11.083L12.4032 10.1665L12.8727 10.3098" fill="white"/>
<path d="M16.5179 9.34766L16.2139 10.2597L16.6779 10.4197" fill="white"/>
<path d="M16.5183 9.34766L16.8223 10.2597L16.3583 10.4197" fill="white"/>
<path d="M17.4338 10.0118L16.4725 10.0045L16.4637 10.4952" fill="white"/>
<path d="M17.4334 10.0117L16.66 10.5826L16.3644 10.1908" fill="white"/>
<path d="M15.6066 10.0097L16.3801 10.5807L16.6756 10.1888" fill="white"/>
<path d="M15.6072 10.0098L16.5685 10.0025L16.5773 10.4933" fill="white"/>
<path d="M17.0832 11.083L16.793 10.1665L16.3236 10.3098" fill="white"/>
<path d="M17.0838 11.083L16.3018 10.5239L16.5832 10.1217" fill="white"/>
<path d="M15.9533 11.083L16.7353 10.5239L16.4539 10.1217" fill="white"/>
<path d="M15.9539 11.083L16.2441 10.1665L16.7135 10.3098" fill="white"/>
<path d="M16.5179 5.50586L16.2139 6.41786L16.6779 6.57786" fill="white"/>
<path d="M16.5183 5.50586L16.8223 6.41786L16.3583 6.57786" fill="white"/>
<path d="M17.4338 6.16803L16.4725 6.16073L16.4637 6.65146" fill="white"/>
<path d="M17.4334 6.16791L16.66 6.73885L16.3644 6.34701" fill="white"/>
<path d="M15.6066 6.16986L16.3801 6.74081L16.6756 6.34896" fill="white"/>
<path d="M15.6072 6.16998L16.5685 6.16268L16.5773 6.65342" fill="white"/>
<path d="M17.0832 7.24314L16.793 6.32663L16.3236 6.46992" fill="white"/>
<path d="M17.0838 7.24319L16.3018 6.68405L16.5832 6.28188" fill="white"/>
<path d="M15.9533 7.24319L16.7353 6.68405L16.4539 6.28188" fill="white"/>
<path d="M15.9539 7.24314L16.2441 6.32663L16.7135 6.46992" fill="white"/>
</g>
<defs>
<clipPath id="clip0_10805_139637">
<rect width="40" height="40" rx="8" fill="white"/>
</clipPath>
</defs>
</svg>
