<svg width="148" height="148" viewBox="0 0 148 148" fill="none" xmlns="http://www.w3.org/2000/svg">
<g clip-path="url(#clip0_637_5793)">
<path d="M26.9874 37.5806H14.7916C12.4144 37.5806 10.4693 39.5257 10.4693 41.9029V71.0988C10.4693 69.0251 12.1504 67.3439 14.2242 67.3439H26.9872L26.9874 37.5806Z" fill="#E57D1F"/>
<path d="M16.4254 41.9029C16.4254 39.5257 18.3705 37.5806 20.7477 37.5806H14.7916C12.4144 37.5806 10.4693 39.5257 10.4693 41.9029V71.0988C10.4693 69.0251 12.1504 67.3439 14.2245 67.3439H16.4254V41.9029Z" fill="#CE6A17"/>
<path d="M133.208 37.5806H121.013V49.3685H133.776C135.85 49.3685 137.531 51.0497 137.531 53.1235V41.9026C137.531 39.5257 135.586 37.5806 133.208 37.5806Z" fill="#E57D1F"/>
<path d="M127.863 37.5811H121.013V49.369H127.863V37.5811Z" fill="#CE6A17"/>
<path d="M82.7794 67.3435C83.8209 67.3435 84.8153 66.911 85.5255 66.1496L100.064 50.5622C100.774 49.8008 101.769 49.3684 102.81 49.3684H121.906V4.43422C121.906 1.98528 119.921 0 117.472 0H30.5282C28.0792 0 26.094 1.98528 26.094 4.43422V67.3435H82.7794Z" fill="#E4EAF8"/>
<path d="M36.4843 0H30.5282C28.0792 0 26.094 1.98528 26.094 4.43422V67.3435H32.0501V4.43422C32.0501 1.98528 34.0354 0 36.4843 0Z" fill="#D8DCE5"/>
<path d="M105.433 21.9716H42.5676C41.3342 21.9716 40.334 20.9717 40.334 19.738C40.334 18.5043 41.3339 17.5044 42.5676 17.5044H105.433C106.666 17.5044 107.666 18.5043 107.666 19.738C107.666 20.9717 106.666 21.9716 105.433 21.9716Z" fill="#C3C8D1"/>
<path d="M105.433 32.3261H42.5676C41.3342 32.3261 40.334 31.3262 40.334 30.0925C40.334 28.8588 41.3339 27.8589 42.5676 27.8589H105.433C106.666 27.8589 107.666 28.8588 107.666 30.0925C107.666 31.3262 106.666 32.3261 105.433 32.3261Z" fill="#C3C8D1"/>
<path d="M105.433 42.6801H42.5676C41.3342 42.6801 40.334 41.6802 40.334 40.4465C40.334 39.2128 41.3339 38.2129 42.5676 38.2129H105.433C106.666 38.2129 107.666 39.2128 107.666 40.4465C107.666 41.6802 106.666 42.6801 105.433 42.6801Z" fill="#C3C8D1"/>
<path d="M105.433 53.0343H42.5676C41.3342 53.0343 40.334 52.0344 40.334 50.8007C40.334 49.567 41.3339 48.5671 42.5676 48.5671H105.433C106.666 48.5671 107.666 49.567 107.666 50.8007C107.666 52.0344 106.666 53.0343 105.433 53.0343Z" fill="#C3C8D1"/>
<path d="M14.2242 66.4504H82.7794C83.8206 66.4504 84.8153 66.018 85.5255 65.2566L100.064 49.6692C100.774 48.9078 101.768 48.4753 102.81 48.4753H133.776C135.85 48.4753 137.531 50.1565 137.531 52.2303V144.245C137.531 146.319 135.85 148 133.776 148H14.2242C12.1504 148 10.4693 146.319 10.4693 144.245V70.2053C10.4693 68.1316 12.1504 66.4504 14.2242 66.4504Z" fill="#FC932B"/>
<path d="M16.4254 144.245V70.2052C16.4254 68.1314 18.1066 66.45 20.1806 66.45H14.2242C12.1505 66.45 10.469 68.1311 10.469 70.2052V144.245C10.469 146.319 12.1502 148 14.2242 148H20.1803C18.1066 148 16.4254 146.319 16.4254 144.245Z" fill="#E57D1F"/>
<path d="M91.4816 65.2566L106.02 49.6692C106.73 48.9078 107.725 48.4753 108.766 48.4753H102.81C101.769 48.4753 100.774 48.9078 100.064 49.6692L85.5255 65.2566C84.8153 66.018 83.8206 66.4504 82.7794 66.4504H88.7355C89.7767 66.4504 90.7714 66.018 91.4816 65.2566Z" fill="#E57D1F"/>
<path d="M74 136.383C89.6212 136.383 102.285 123.719 102.285 108.098C102.285 92.4768 89.6212 79.8132 74 79.8132C58.3787 79.8132 45.7152 92.4768 45.7152 108.098C45.7152 123.719 58.3787 136.383 74 136.383Z" fill="#E4EAF8"/>
<path d="M51.6717 108.098C51.6717 93.4824 62.7569 81.4574 76.9782 79.969C75.9995 79.8667 75.0059 79.8132 74.0003 79.8132C58.3791 79.8132 45.7158 92.4768 45.7158 108.098C45.7158 123.719 58.3794 136.382 74.0003 136.382C75.0062 136.382 75.9995 136.329 76.9782 136.226C62.7569 134.738 51.6717 122.713 51.6717 108.098Z" fill="#D8DCE5"/>
<path d="M87.009 103.091H79.7865C79.3555 103.091 79.0063 102.742 79.0063 102.311V95.0888C79.0063 94.6578 78.6568 94.3086 78.2261 94.3086H69.7748C69.3438 94.3086 68.9946 94.6581 68.9946 95.0888V102.311C68.9946 102.742 68.6451 103.091 68.2144 103.091H60.9919C60.5609 103.091 60.2117 103.441 60.2117 103.872V112.323C60.2117 112.754 60.5612 113.103 60.9919 113.103H68.2144C68.6454 113.103 68.9946 113.453 68.9946 113.883V121.106C68.9946 121.537 69.3441 121.886 69.7748 121.886H78.2261C78.6571 121.886 79.0063 121.537 79.0063 121.106V113.883C79.0063 113.452 79.3558 113.103 79.7865 113.103H87.009C87.44 113.103 87.7892 112.754 87.7892 112.323V103.872C87.7892 103.441 87.44 103.091 87.009 103.091Z" fill="#707487"/>
<path d="M66.167 112.323V103.872C66.167 103.441 66.5165 103.092 66.9475 103.092H60.9913C60.5603 103.092 60.2108 103.441 60.2108 103.872V112.323C60.2108 112.754 60.5603 113.103 60.9913 113.103H66.9475C66.5162 113.104 66.167 112.754 66.167 112.323Z" fill="#5B5D6E"/>
<path d="M74.9501 102.311V95.0888C74.9501 94.6578 75.2996 94.3086 75.7303 94.3086H69.7742C69.3432 94.3086 68.994 94.6581 68.994 95.0888V102.311C68.994 102.742 68.6445 103.091 68.2135 103.091H74.1697C74.6007 103.091 74.9501 102.742 74.9501 102.311Z" fill="#5B5D6E"/>
<path d="M74.9501 121.107V113.884C74.9501 113.453 74.6007 113.104 74.1697 113.104H68.2135C68.6445 113.104 68.994 113.454 68.994 113.884V121.107C68.994 121.538 69.3435 121.887 69.7742 121.887H75.7303C75.2993 121.887 74.9501 121.538 74.9501 121.107Z" fill="#5B5D6E"/>
</g>
<defs>
<clipPath id="clip0_637_5793">
<rect width="148" height="148" fill="white"/>
</clipPath>
</defs>
</svg>
