<svg xmlns="http://www.w3.org/2000/svg" width="29" height="33" viewBox="0 0 29 33" fill="none">
  <path d="M17.4379 13.1993C17.3426 12.9493 17.2775 12.6914 17.2443 12.4328C17.1641 11.8076 16.6451 11.3286 16.0102 11.294C15.2303 11.2522 14.6012 11.9211 14.6911 12.692C14.7475 13.1753 14.8649 13.6535 15.0401 14.1131C15.0708 14.1941 15.1004 14.275 15.1288 14.356C15.341 14.9627 15.972 15.3086 16.5911 15.17L16.6402 15.159C17.3747 14.9947 17.8016 14.2251 17.5531 13.5147C17.517 13.4112 17.4783 13.3051 17.4379 13.1993ZM16.4302 14.22C16.4238 14.2214 16.3747 14.2324 16.3811 14.231C16.2349 14.2636 16.087 14.1809 16.0372 14.0384C16.0059 13.9491 15.9733 13.8598 15.9393 13.7705C15.7924 13.3852 15.6941 12.9849 15.6469 12.5807C15.6263 12.4041 15.769 12.2544 15.9404 12.2544C15.9461 12.2544 15.952 12.2546 15.9578 12.2549C16.1291 12.2643 16.2687 12.3905 16.2898 12.5553C16.3327 12.8893 16.4165 13.2213 16.5387 13.542C16.5758 13.6393 16.6114 13.737 16.6447 13.8323C16.7036 14.0006 16.6028 14.1814 16.4302 14.22Z" fill="#D90506"/>
  <path d="M17.0593 20.7074C17.312 20.7901 17.5836 20.6522 17.6662 20.3997C18.0244 19.305 18.199 18.1709 18.1854 17.029C18.1758 16.2293 17.4337 15.6388 16.652 15.8139L16.5976 15.8261C16.0218 15.9549 15.6082 16.4734 15.6143 17.059C15.6315 18.7032 15.1478 20.2808 14.1763 21.7479C13.8137 22.2955 13.9393 23.038 14.4622 23.4382L14.502 23.4687C15.0826 23.913 15.9153 23.7688 16.3156 23.1655C16.4108 23.022 16.5034 22.8758 16.5908 22.7312C16.7283 22.5038 16.6553 22.208 16.4278 22.0705C16.2005 21.9332 15.9046 22.0061 15.7672 22.2335C15.6868 22.3667 15.6015 22.5012 15.5137 22.6335C15.4194 22.7757 15.2231 22.8089 15.0869 22.7046L15.0472 22.6741C14.9243 22.5801 14.8942 22.4066 14.9786 22.2791C16.0582 20.6487 16.5958 18.889 16.5765 17.0489C16.5751 16.9147 16.6723 16.7953 16.8077 16.765L16.8622 16.7529C17.0475 16.7118 17.221 16.8516 17.2233 17.0406C17.2356 18.0767 17.077 19.1062 16.7517 20.1005C16.669 20.353 16.8068 20.6247 17.0593 20.7074Z" fill="#D90506"/>
  <path d="M26.9101 9.12031C26.0609 6.99383 24.2975 5.44791 22.0721 4.87895C19.8376 4.30762 17.5252 4.81519 15.7304 6.30131C15.3866 6.58608 14.8883 6.55522 14.5959 6.23107C13.6643 5.19855 13.0068 3.98437 12.6418 2.62224L12.0654 0.471126C11.9911 0.193737 11.7388 0 11.4516 0H9.35612C8.93836 0 8.6341 0.395813 8.74238 0.799901L9.45921 3.47501C9.52798 3.73161 9.79164 3.88391 10.0485 3.8152C10.3052 3.74643 10.4575 3.48258 10.3887 3.22591L9.78208 0.962268H11.2008L11.7124 2.87128C12.1171 4.38178 12.8469 5.72909 13.8815 6.87572C14.5205 7.58389 15.6023 7.65709 16.3455 7.04143C17.9154 5.74198 19.9217 5.32249 21.8338 5.81126C23.7581 6.30317 25.2826 7.63944 26.0166 9.47725C28.0263 14.5096 27.6448 19.4442 24.9425 23.372C22.9675 26.2423 19.8282 28.0309 16.3299 28.279C13.1353 28.5058 10.0443 27.427 7.69736 25.2972C7.29917 24.9225 7.07157 24.392 7.07157 23.8349C7.07157 23.5692 6.85621 23.3538 6.59043 23.3538C6.32465 23.3538 6.1093 23.5692 6.1093 23.8349C6.1093 23.8795 6.11032 23.924 6.11231 23.9684C5.76372 23.8257 5.38118 23.7698 4.99185 23.8112C4.26181 23.8884 3.62889 24.2952 3.2554 24.9274C2.71993 25.8336 2.87749 26.9981 3.63852 27.7592L7.77428 31.8949H5.83646L2.64071 28.6992C1.46655 27.525 1.22637 25.7007 2.05661 24.2627C2.56649 23.3796 3.3864 22.7653 4.36522 22.5331C5.34006 22.3018 6.38117 22.4654 7.15034 22.9707C8.1706 23.6411 9.3923 23.8678 10.5017 23.5928C11.6621 23.3052 12.6988 22.6266 13.4211 21.6821C13.7541 21.2466 14.0426 20.7664 14.2783 20.2547C15.1434 18.3776 15.1995 16.333 14.4407 14.3416C13.9776 13.1267 13.8867 11.8265 14.1749 10.5688C14.86 10.1521 15.4364 9.56924 15.8451 8.87865C15.9805 8.65002 15.9049 8.35486 15.6762 8.21956C15.4475 8.08427 15.1524 8.15984 15.0171 8.38854C14.7968 8.76061 14.5161 9.09375 14.189 9.37384C14.0937 9.08708 13.9245 8.82399 13.6897 8.61268C12.6614 7.68672 11.824 6.59076 11.2008 5.35521C11.0813 5.11792 10.7919 5.02272 10.5547 5.14229C10.3174 5.26194 10.222 5.55126 10.3417 5.78855C11.0188 7.13098 11.9285 8.32176 13.0458 9.32784C13.2732 9.53255 13.3668 9.84233 13.2903 10.1362C12.8966 11.6473 12.9835 13.22 13.5415 14.6844C14.2062 16.4284 14.1588 18.2153 13.4044 19.852C13.1983 20.2994 12.9467 20.7185 12.6568 21.0977C12.0668 21.8692 11.2193 22.4236 10.2703 22.6588C9.4202 22.8694 8.47551 22.69 7.67882 22.1666C6.69256 21.5186 5.37085 21.3056 4.14319 21.5969C2.90398 21.8909 1.86704 22.6668 1.22335 23.7817C0.175763 25.5961 0.478814 27.8981 1.96032 29.3796L5.25173 32.671C5.37175 32.7911 5.5313 32.8571 5.70104 32.8571H8.5634C8.82135 32.8571 9.05178 32.7032 9.15045 32.4649C9.24911 32.2265 9.19503 31.9547 9.01272 31.7724L4.3189 27.0787C3.8685 26.6283 3.77182 25.9449 4.08379 25.4168C4.30088 25.0494 4.66872 24.8128 5.09295 24.768C5.52379 24.7224 5.94071 24.8805 6.23645 25.2015C6.49741 25.4848 6.76922 25.7545 7.05091 26.0102C7.06502 26.0232 7.08279 26.0397 7.09492 26.0499C9.56903 28.2747 12.8768 29.4887 16.3979 29.2388C20.1898 28.9698 23.5932 27.0302 25.7352 23.9174C28.6258 19.716 29.043 14.461 26.9101 9.12031Z" fill="#D90506"/>
</svg>