<svg width="20" height="20" viewBox="0 0 20 20" fill="none" xmlns="http://www.w3.org/2000/svg">
<path d="M4.16666 11.9046C2.62385 12.5852 1.66666 13.5337 1.66666 14.5827C1.66666 16.6537 5.39762 18.3327 9.99999 18.3327C14.6024 18.3327 18.3333 16.6537 18.3333 14.5827C18.3333 13.5337 17.3761 12.5852 15.8333 11.9046M15 6.66602C15 10.0524 11.25 11.666 9.99999 14.166C8.74999 11.666 4.99999 10.0524 4.99999 6.66602C4.99999 3.90459 7.23857 1.66602 9.99999 1.66602C12.7614 1.66602 15 3.90459 15 6.66602ZM10.8333 6.66602C10.8333 7.12625 10.4602 7.49935 9.99999 7.49935C9.53975 7.49935 9.16666 7.12625 9.16666 6.66602C9.16666 6.20578 9.53975 5.83268 9.99999 5.83268C10.4602 5.83268 10.8333 6.20578 10.8333 6.66602Z" stroke="white" stroke-width="1.5" stroke-linecap="round" stroke-linejoin="round"/>
</svg>
