<svg width="198" height="233" viewBox="0 0 198 233" fill="none" xmlns="http://www.w3.org/2000/svg">
<path fill-rule="evenodd" clip-rule="evenodd" d="M99.5377 186.494L70.1494 157.464C64.8569 159.629 57.6105 162.602 50.0794 165.704V189.811C55.5382 190.514 59.756 195.179 59.756 200.83C59.756 206.966 54.7818 211.94 48.6458 211.94C42.5098 211.94 37.5356 206.966 37.5356 200.83C37.5356 195.179 41.7534 190.514 47.2122 189.811V166.886C33.1724 172.676 18.8799 178.618 14.9568 180.401C8.6491 183.268 5.87753 189.719 5.2802 192.587L0.262695 217.674C19.6159 226.634 52.5882 230.576 99.5377 232.368C137.097 233.802 180.654 223.17 197.738 217.674C196.901 212.537 194.727 200.328 192.72 192.587C190.713 184.845 185.911 181.237 183.76 180.401L154.384 168.426L153.234 185.911C156.656 186.852 160.713 189.467 163.328 194.529C166.28 200.243 167.307 208.893 163.834 221.48C163.65 222.149 163.013 222.589 162.322 222.526L156.244 221.971C155.488 221.902 154.917 221.255 154.941 220.497L155.069 216.557L157.935 216.649L157.851 219.239L161.379 219.561C164.349 208.067 163.215 200.558 160.781 195.845C158.265 190.975 154.274 188.912 151.492 188.459C151.441 188.451 151.391 188.44 151.342 188.427C148.573 187.664 144.072 187.921 139.864 191.481C135.774 194.94 131.807 201.655 130.155 213.989L133.787 215.187L134.846 212.542L137.508 213.609L135.947 217.503C135.666 218.205 134.887 218.568 134.168 218.331L128.136 216.343C127.489 216.129 127.081 215.489 127.161 214.812C128.765 201.313 133.049 193.49 138.012 189.292C142.257 185.702 146.88 184.868 150.399 185.323L151.586 167.286L127.492 157.464L99.5377 186.494ZM56.8889 200.83C56.8889 205.382 53.1983 209.073 48.6458 209.073C44.0933 209.073 40.4028 205.382 40.4028 200.83C40.4028 196.277 44.0933 192.587 48.6458 192.587C53.1983 192.587 56.8889 196.277 56.8889 200.83Z" fill="#EDEDED"/>
<path d="M42.1672 86.2657C42.1672 98.8178 31.0098 122.179 25.4312 132.29C56.114 138.984 71.9203 134.382 75.9881 131.244L102.836 123.922L122.71 131.244C140.004 137.659 163.155 134.614 172.569 132.29C168.85 123.225 160.854 103.211 158.623 95.6798C156.391 88.1486 155.601 76.2706 155.484 71.273V54.8856C155.484 52.0962 154.963 49.0843 154.787 47.9122C151.649 26.9922 129.544 -6.75901 88.5401 1.88797C37.2859 12.6967 42.1672 70.5757 42.1672 86.2657Z" fill="#E6E6E6"/>
<path d="M115.542 49.604L113.409 45.2429L111.097 49.5113C109.549 52.3698 106.659 55.2132 102.738 57.9435C98.8467 60.6534 94.1101 63.1345 89.0897 65.3307C79.0466 69.7243 68.1191 72.8694 61.1524 74.4112L59.1926 74.8449V76.8522V114.16V114.431L59.2509 114.696C60.5015 120.387 64.1048 128.712 70.9035 135.544C77.7686 142.444 87.8657 147.783 101.868 147.341C115.863 146.899 125.536 141.002 131.871 133.752C138.142 126.575 141.106 118.124 141.921 112.421L141.946 112.245V112.068V73.7141V72.0156L140.367 71.3899C126.283 65.8098 117.888 54.4039 115.542 49.604Z" fill="white" stroke="#E6E6E6" stroke-width="5"/>
</svg>
