<svg xmlns="http://www.w3.org/2000/svg" width="24" height="24" viewBox="0 0 24 24" fill="none">
  <path fill-rule="evenodd" clip-rule="evenodd" d="M12 4.25581C7.723 4.25581 4.25581 7.723 4.25581 12C4.25581 16.277 7.723 19.7442 12 19.7442C16.277 19.7442 19.7442 16.277 19.7442 12C19.7442 7.723 16.277 4.25581 12 4.25581ZM3 12C3 7.02944 7.02944 3 12 3C16.9706 3 21 7.02944 21 12C21 16.9706 16.9706 21 12 21C7.02944 21 3 16.9706 3 12Z" fill="#323232"/>
  <path fill-rule="evenodd" clip-rule="evenodd" d="M3 12.001C3 11.6542 3.28112 11.373 3.62791 11.373H20.3721C20.7189 11.373 21 11.6542 21 12.001C21 12.3477 20.7189 12.6289 20.3721 12.6289H3.62791C3.28112 12.6289 3 12.3477 3 12.001Z" fill="#323232"/>
  <path fill-rule="evenodd" clip-rule="evenodd" d="M9.27921 12.0006C9.33858 14.7107 10.2998 17.3166 12 19.411C13.7002 17.3166 14.6614 14.7107 14.7208 12.0006C14.6614 9.29056 13.7002 6.68466 12 4.59028C10.2998 6.68466 9.33858 9.29056 9.27921 12.0006ZM12 3.62855L11.5364 3.20508C9.33964 5.61003 8.09123 8.73105 8.02339 11.9876C8.02321 11.9963 8.02321 12.005 8.02339 12.0137C8.09123 15.2702 9.33964 18.3913 11.5364 20.7962C11.6553 20.9265 11.8236 21.0006 12 21.0006C12.1764 21.0006 12.3446 20.9265 12.4636 20.7962C14.6604 18.3913 15.9088 15.2702 15.9766 12.0137C15.9768 12.005 15.9768 11.9963 15.9766 11.9876C15.9088 8.73105 14.6604 5.61003 12.4636 3.20508L12 3.62855Z" fill="#323232"/>
</svg>