<svg width="24" height="24" viewBox="0 0 24 24" fill="none" xmlns="http://www.w3.org/2000/svg">
<g clip-path="url(#clip0_2035_12257)">
<path d="M22.2382 5.73926L23.4022 4.57544C23.5955 4.3819 23.6592 4.09369 23.5653 3.83679C23.4714 3.57971 23.2368 3.40063 22.964 3.37756L20.8046 3.19537L20.6224 1.03601C20.5995 0.763367 20.4203 0.528809 20.1634 0.434875C19.9065 0.340759 19.6183 0.40448 19.4247 0.598022L18.2607 1.76184C16.3784 0.607727 14.2262 0 12 0C8.79474 0 5.78119 1.24823 3.51471 3.51471C1.24823 5.78119 0 8.79474 0 12C0 15.2053 1.24823 18.2188 3.51471 20.4853C5.78119 22.7518 8.79474 24 12 24C15.2053 24 18.2188 22.7518 20.4853 20.4853C22.7518 18.2188 24 15.2053 24 12C24 9.7738 23.3923 7.62177 22.2382 5.73926ZM19.4531 3.90527C19.4821 4.24695 19.7531 4.51794 20.0947 4.54688L21.3371 4.65161L19.6555 6.33325L17.8215 6.17853L17.6667 4.34454L19.3484 2.6629L19.4531 3.90527ZM14.3906 12C14.3906 13.3182 13.3182 14.3906 12 14.3906C10.6818 14.3906 9.60938 13.3182 9.60938 12C9.60938 10.6818 10.6818 9.60938 12 9.60938C12.4037 9.60938 12.7841 9.71027 13.1179 9.8877L11.5029 11.5029C11.2282 11.7773 11.2282 12.2225 11.5029 12.4971C11.64 12.6345 11.82 12.7031 12 12.7031C12.18 12.7031 12.36 12.6345 12.4971 12.4971L14.1123 10.8821C14.2897 11.2159 14.3906 11.5963 14.3906 12ZM14.14 8.8656C13.5302 8.44812 12.7932 8.20312 12 8.20312C9.90637 8.20312 8.20312 9.90637 8.20312 12C8.20312 14.0936 9.90637 15.7969 12 15.7969C14.0936 15.7969 15.7969 14.0936 15.7969 12C15.7969 11.2068 15.5519 10.4698 15.1344 9.86005L17.142 7.85248C18.0591 8.98737 18.6094 10.4306 18.6094 12C18.6094 15.6443 15.6443 18.6094 12 18.6094C8.35565 18.6094 5.39062 15.6443 5.39062 12C5.39062 8.35565 8.35565 5.39062 12 5.39062C13.5694 5.39062 15.0126 5.94086 16.1475 6.85803L14.14 8.8656ZM19.4908 19.4908C17.4901 21.4918 14.8297 22.5938 12 22.5938C9.17029 22.5938 6.50995 21.4918 4.50916 19.4908C2.50818 17.4901 1.40625 14.8297 1.40625 12C1.40625 9.17029 2.50818 6.50995 4.50916 4.50916C6.50995 2.50818 9.17029 1.40625 12 1.40625C13.8512 1.40625 15.6443 1.88177 17.2346 2.78796L16.4416 3.58099C16.3134 3.70917 16.2404 3.88092 16.2358 4.06018C16.2352 4.08582 16.236 4.11145 16.238 4.13727L16.3326 5.25916C15.0826 4.45276 13.595 3.98438 12 3.98438C7.5802 3.98438 3.98438 7.5802 3.98438 12C3.98438 16.4198 7.5802 20.0156 12 20.0156C16.4198 20.0156 20.0156 16.4198 20.0156 12C20.0156 10.405 19.5472 8.91742 18.7408 7.66736L19.8627 7.76202C19.8825 7.76349 19.9023 7.7644 19.9219 7.7644C19.9252 7.7644 19.9286 7.76404 19.9319 7.76385C19.9413 7.76385 19.9504 7.76312 19.9598 7.76257C19.975 7.76166 19.9904 7.76074 20.0054 7.75891C20.0147 7.75763 20.024 7.75616 20.0334 7.7547C20.0482 7.75232 20.0629 7.74957 20.0775 7.74628C20.0869 7.74408 20.096 7.7417 20.1052 7.73932C20.1194 7.73547 20.1335 7.73108 20.1476 7.72632C20.1568 7.72321 20.1658 7.72009 20.1747 7.71661C20.1885 7.7113 20.202 7.70544 20.2156 7.69904C20.2242 7.69519 20.2328 7.69135 20.2414 7.68695C20.2549 7.67999 20.2681 7.6723 20.2811 7.66461C20.289 7.65985 20.2969 7.65546 20.3046 7.6507C20.3185 7.64154 20.3318 7.63165 20.3452 7.62158C20.3514 7.61682 20.3578 7.61261 20.3639 7.60767C20.3829 7.59229 20.4014 7.57599 20.419 7.55841L21.212 6.76538C22.1182 8.35565 22.5938 10.1488 22.5938 12C22.5938 14.8297 21.4918 17.4901 19.4908 19.4908Z" fill="#D90506"/>
</g>
<defs>
<clipPath id="clip0_2035_12257">
<rect width="24" height="24" fill="white"/>
</clipPath>
</defs>
</svg>
