<svg width="24" height="20" viewBox="0 0 24 20" fill="none" xmlns="http://www.w3.org/2000/svg">
<path d="M11.943 7.85762C14.0404 7.85762 15.7468 6.15124 15.7468 4.05381C15.7468 1.95638 14.0404 0.25 11.943 0.25C9.84554 0.25 8.13916 1.95638 8.13916 4.05381C8.13916 6.15124 9.84554 7.85762 11.943 7.85762ZM11.943 1.56166C13.3172 1.56166 14.4351 2.67963 14.4351 4.05381C14.4351 5.42799 13.3172 6.54596 11.943 6.54596C10.5688 6.54596 9.45082 5.42799 9.45082 4.05381C9.45082 2.67963 10.5688 1.56166 11.943 1.56166Z" fill="#D90506"/>
<path d="M19.6381 7.85825C20.9641 7.85825 22.0428 6.77949 22.0428 5.45354C22.0428 4.12758 20.9641 3.04883 19.6381 3.04883C18.3122 3.04883 17.2334 4.12758 17.2334 5.45354C17.2334 6.77949 18.3122 7.85825 19.6381 7.85825ZM19.6381 4.36049C20.2408 4.36049 20.7312 4.85083 20.7312 5.45354C20.7312 6.05624 20.2408 6.54659 19.6381 6.54659C19.0354 6.54659 18.5451 6.05624 18.5451 5.45354C18.5451 4.85083 19.0354 4.36049 19.6381 4.36049Z" fill="#D90506"/>
<path d="M20.1669 9.34375H19.1526C17.9573 9.34375 16.9254 10.0499 16.4552 11.0643C15.4872 10.0075 14.0967 9.34375 12.554 9.34375H11.3317C9.78899 9.34375 8.3985 10.0075 7.43046 11.0643C6.96023 10.0499 5.92839 9.34375 4.73307 9.34375H3.71872C2.08177 9.34375 0.75 10.6675 0.75 12.2945V17.0694C0.75 17.7758 1.32687 18.3505 2.03595 18.3505H6.04644C6.11368 19.1331 6.77178 19.7496 7.57159 19.7496H16.3141C17.1139 19.7496 17.772 19.1331 17.8393 18.3505H21.8039C22.5383 18.3505 23.1357 17.7554 23.1357 17.024V12.2945C23.1356 10.6675 21.8039 9.34375 20.1669 9.34375ZM2.06166 12.2945C2.06166 11.3907 2.80502 10.6554 3.71872 10.6554H4.73307C5.64677 10.6554 6.39013 11.3907 6.39013 12.2945V12.7436C5.94911 13.8919 6.04036 14.5801 6.04036 17.0388H2.06166V12.2945ZM16.5336 18.2184C16.5336 18.3395 16.4352 18.4379 16.3141 18.4379H7.57155C7.45048 18.4379 7.35202 18.3394 7.35202 18.2184V14.6351C7.35202 12.4407 9.13727 10.6554 11.3316 10.6554H12.554C14.7484 10.6554 16.5336 12.4407 16.5336 14.635V18.2184ZM21.824 17.024C21.824 17.0466 22.0685 17.0388 17.8453 17.0388C17.8453 14.5619 17.9358 13.89 17.4955 12.7436V12.2945C17.4955 11.3907 18.2389 10.6554 19.1526 10.6554H20.1669C21.0806 10.6554 21.824 11.3907 21.824 12.2945V17.024Z" fill="#D90506"/>
<path d="M4.24797 7.85825C5.57393 7.85825 6.65268 6.77949 6.65268 5.45354C6.65268 4.12758 5.57393 3.04883 4.24797 3.04883C2.92201 3.04883 1.84326 4.12758 1.84326 5.45354C1.84326 6.77949 2.92201 7.85825 4.24797 7.85825ZM4.24797 4.36049C4.85068 4.36049 5.34102 4.85083 5.34102 5.45354C5.34102 6.05624 4.85068 6.54659 4.24797 6.54659C3.64526 6.54659 3.15492 6.05624 3.15492 5.45354C3.15492 4.85083 3.64526 4.36049 4.24797 4.36049Z" fill="#D90506"/>
</svg>
