<svg xmlns="http://www.w3.org/2000/svg" width="24" height="24" viewBox="0 0 24 24" fill="none">
  <path d="M15.9231 8.92308C16.4099 8.92308 16.8858 8.77871 17.2906 8.50823C17.6954 8.23776 18.0109 7.85332 18.1973 7.40353C18.3836 6.95374 18.4323 6.45881 18.3373 5.98132C18.2423 5.50383 18.0079 5.06522 17.6637 4.72097C17.3194 4.37672 16.8808 4.14228 16.4033 4.0473C15.9258 3.95232 15.4309 4.00107 14.9811 4.18737C14.5313 4.37368 14.1469 4.68918 13.8764 5.09398C13.6059 5.49878 13.4615 5.97469 13.4615 6.46154C13.4615 7.11438 13.7209 7.74048 14.1825 8.20211C14.6441 8.66374 15.2702 8.92308 15.9231 8.92308ZM15.9231 5.23077C16.1665 5.23077 16.4045 5.30295 16.6069 5.43819C16.8093 5.57343 16.967 5.76565 17.0602 5.99054C17.1533 6.21544 17.1777 6.4629 17.1302 6.70165C17.0827 6.9404 16.9655 7.1597 16.7934 7.33182C16.6212 7.50395 16.4019 7.62117 16.1632 7.66866C15.9245 7.71615 15.677 7.69178 15.4521 7.59862C15.2272 7.50547 15.035 7.34772 14.8997 7.14532C14.7645 6.94292 14.6923 6.70496 14.6923 6.46154C14.6923 6.13512 14.822 5.82207 15.0528 5.59125C15.2836 5.36044 15.5967 5.23077 15.9231 5.23077Z" fill="#808284"/>
  <path d="M7.30767 8.92308C7.79451 8.92308 8.27043 8.77871 8.67523 8.50823C9.08002 8.23776 9.39553 7.85332 9.58183 7.40353C9.76814 6.95374 9.81689 6.45881 9.72191 5.98132C9.62693 5.50383 9.39249 5.06522 9.04824 4.72097C8.70399 4.37672 8.26538 4.14228 7.78789 4.0473C7.3104 3.95232 6.81547 4.00107 6.36568 4.18737C5.91589 4.37368 5.53145 4.68918 5.26097 5.09398C4.9905 5.49878 4.84613 5.97469 4.84613 6.46154C4.84613 7.11438 5.10547 7.74048 5.5671 8.20211C6.02873 8.66374 6.65483 8.92308 7.30767 8.92308ZM7.30767 5.23077C7.55109 5.23077 7.78905 5.30295 7.99145 5.43819C8.19385 5.57343 8.3516 5.76565 8.44475 5.99054C8.53791 6.21544 8.56228 6.4629 8.51479 6.70165C8.4673 6.9404 8.35008 7.1597 8.17795 7.33182C8.00583 7.50395 7.78653 7.62117 7.54778 7.66866C7.30903 7.71615 7.06157 7.69178 6.83667 7.59862C6.61178 7.50547 6.41956 7.34772 6.28432 7.14532C6.14908 6.94292 6.0769 6.70496 6.0769 6.46154C6.0769 6.13512 6.20657 5.82207 6.43738 5.59125C6.6682 5.36044 6.98125 5.23077 7.30767 5.23077Z" fill="#808284"/>
  <path d="M11.6154 12.6155C12.1023 12.6155 12.5782 12.4711 12.983 12.2006C13.3878 11.9301 13.7033 11.5457 13.8896 11.0959C14.0759 10.6461 14.1246 10.1512 14.0296 9.6737C13.9347 9.19621 13.7002 8.7576 13.356 8.41335C13.0117 8.0691 12.5731 7.83466 12.0956 7.73968C11.6181 7.6447 11.1232 7.69345 10.6734 7.87976C10.2236 8.06607 9.83919 8.38157 9.56871 8.78637C9.29824 9.19116 9.15387 9.66708 9.15387 10.1539C9.15387 10.8068 9.41321 11.4329 9.87484 11.8945C10.3365 12.3561 10.9626 12.6155 11.6154 12.6155ZM11.6154 8.92315C11.8588 8.92315 12.0968 8.99534 12.2992 9.13058C12.5016 9.26581 12.6593 9.45803 12.7525 9.68293C12.8456 9.90782 12.87 10.1553 12.8225 10.394C12.775 10.6328 12.6578 10.8521 12.4857 11.0242C12.3136 11.1963 12.0943 11.3136 11.8555 11.361C11.6168 11.4085 11.3693 11.3842 11.1444 11.291C10.9195 11.1979 10.7273 11.0401 10.5921 10.8377C10.4568 10.6353 10.3846 10.3973 10.3846 10.1539C10.3846 9.8275 10.5143 9.51445 10.7451 9.28364C10.9759 9.05282 11.289 8.92315 11.6154 8.92315Z" fill="#808284"/>
  <path d="M17.1538 9.53809H15.9231C15.7599 9.53809 15.6033 9.60292 15.4879 9.71833C15.3725 9.83373 15.3077 9.99026 15.3077 10.1535C15.3077 10.3167 15.3725 10.4732 15.4879 10.5886C15.6033 10.704 15.7599 10.7689 15.9231 10.7689H17.1538C17.6435 10.7689 18.113 10.9634 18.4593 11.3096C18.8055 11.6558 19 12.1254 19 12.615V15.0765H17.7692C17.606 15.0765 17.4495 15.1414 17.3341 15.2568C17.2187 15.3722 17.1538 15.5287 17.1538 15.6919C17.1538 15.8551 17.2187 16.0117 17.3341 16.1271C17.4495 16.2425 17.606 16.3073 17.7692 16.3073H19.6154C19.7786 16.3073 19.9351 16.2425 20.0505 16.1271C20.1659 16.0117 20.2308 15.8551 20.2308 15.6919V12.615C20.2308 11.799 19.9066 11.0163 19.3295 10.4393C18.7525 9.86226 17.9699 9.53809 17.1538 9.53809Z" fill="#808284"/>
  <path d="M6.07692 10.7689H7.30769C7.4709 10.7689 7.62743 10.704 7.74283 10.5886C7.85824 10.4732 7.92308 10.3167 7.92308 10.1535C7.92308 9.99026 7.85824 9.83373 7.74283 9.71833C7.62743 9.60292 7.4709 9.53809 7.30769 9.53809H6.07692C5.26087 9.53809 4.47824 9.86226 3.90121 10.4393C3.32417 11.0163 3 11.799 3 12.615V15.6919C3 15.8551 3.06483 16.0117 3.18024 16.1271C3.29565 16.2425 3.45217 16.3073 3.61538 16.3073H5.46154C5.62475 16.3073 5.78127 16.2425 5.89668 16.1271C6.01209 16.0117 6.07692 15.8551 6.07692 15.6919C6.07692 15.5287 6.01209 15.3722 5.89668 15.2568C5.78127 15.1414 5.62475 15.0765 5.46154 15.0765H4.23077V12.615C4.23077 12.1254 4.42527 11.6558 4.7715 11.3096C5.11772 10.9634 5.58729 10.7689 6.07692 10.7689Z" fill="#808284"/>
  <path d="M12.8461 13.2305H10.3846C9.56855 13.2305 8.78592 13.5546 8.20889 14.1317C7.63185 14.7087 7.30768 15.4913 7.30768 16.3074V19.3843C7.30768 19.5475 7.37251 19.7041 7.48792 19.8195C7.60333 19.9349 7.75985 19.9997 7.92306 19.9997H15.3077C15.4709 19.9997 15.6274 19.9349 15.7428 19.8195C15.8582 19.7041 15.9231 19.5475 15.9231 19.3843V16.3074C15.9231 15.9033 15.8435 15.5032 15.6888 15.1299C15.5342 14.7566 15.3076 14.4174 15.0219 14.1317C14.7361 13.846 14.3969 13.6193 14.0236 13.4647C13.6503 13.3101 13.2502 13.2305 12.8461 13.2305ZM14.6923 18.7689H8.53845V16.3074C8.53845 15.8178 8.73295 15.3482 9.07917 15.002C9.42539 14.6557 9.89497 14.4612 10.3846 14.4612H12.8461C13.3358 14.4612 13.8053 14.6557 14.1516 15.002C14.4978 15.3482 14.6923 15.8178 14.6923 16.3074V18.7689Z" fill="#808284"/>
</svg>