<svg width="33" height="33" viewBox="0 0 33 33" fill="none" xmlns="http://www.w3.org/2000/svg">
<g clip-path="url(#clip0_5477_4665)">
<path d="M16.4286 0C10.3245 0 5.35852 4.96599 5.35852 11.07C5.35852 13.7631 6.33711 16.3586 8.11403 18.3782C9.78121 20.2732 12.0371 21.539 14.5033 21.9723V25.0921H12.5139C11.4524 25.0921 10.5887 25.9557 10.5887 27.0173C10.5887 27.5315 10.789 28.015 11.1526 28.3786C11.5162 28.7422 11.9997 28.9425 12.5139 28.9425H14.5033V30.9319C14.5033 31.9935 15.367 32.8571 16.4286 32.8571C17.4901 32.8571 18.3538 31.9935 18.3538 30.9319V28.9425H20.3432C20.8575 28.9425 21.3409 28.7422 21.7045 28.3786C22.0681 28.015 22.2684 27.5315 22.2684 27.0173C22.2684 25.9557 21.4047 25.0921 20.3432 25.0921H18.3538V21.9723C20.8201 21.5391 23.0758 20.2732 24.7431 18.3783C26.52 16.3586 27.4986 13.7631 27.4986 11.07C27.4986 4.96599 22.5326 0 16.4286 0ZM17.8074 21.0834C17.5689 21.116 17.3912 21.3197 17.3912 21.5603V25.5734C17.3912 25.8392 17.6066 26.0547 17.8725 26.0547H20.3432C20.874 26.0547 21.3058 26.4865 21.3058 27.0173C21.3058 27.2744 21.2056 27.5161 21.0238 27.698C20.842 27.8798 20.6003 27.9799 20.3432 27.9799H17.8725C17.6066 27.9799 17.3912 28.1954 17.3912 28.4612V30.9319C17.3912 31.4627 16.9593 31.8945 16.4286 31.8945C15.8978 31.8945 15.4659 31.4627 15.4659 30.9319V28.4612C15.4659 28.1954 15.2505 27.9799 14.9846 27.9799H12.5139C12.2568 27.9799 12.0151 27.8798 11.8333 27.698C11.6515 27.5161 11.5513 27.2744 11.5513 27.0173C11.5513 26.4865 11.9831 26.0547 12.5139 26.0547H14.9846C15.2505 26.0547 15.4659 25.8392 15.4659 25.5734V21.5603C15.4659 21.3197 15.2881 21.116 15.0497 21.0834C10.0736 20.4048 6.32113 16.1 6.32113 11.07C6.32113 5.49677 10.8553 0.962612 16.4286 0.962612C22.0018 0.962612 26.536 5.49677 26.536 11.07C26.536 16.1 22.7835 20.4048 17.8074 21.0834Z" fill="#D90506"/>
<path d="M16.4286 2.88785C14.5929 2.88785 12.8579 3.48223 11.4113 4.60675C11.2014 4.76988 11.1635 5.07227 11.3266 5.28212C11.4898 5.49197 11.7922 5.52983 12.002 5.3667C13.2782 4.37476 14.8088 3.85046 16.4286 3.85046C20.4094 3.85046 23.6482 7.08913 23.6482 11.07C23.6482 15.051 20.4094 18.2896 16.4286 18.2896C12.4477 18.2896 9.20901 15.051 9.20901 11.07C9.20901 9.45023 9.73331 7.91955 10.7253 6.64345C10.8884 6.43353 10.8505 6.13121 10.6407 5.96808C10.4309 5.80495 10.1285 5.84274 9.9653 6.05266C8.84078 7.49927 8.2464 9.23428 8.2464 11.07C8.2464 15.5817 11.9169 19.2522 16.4286 19.2522C20.9403 19.2522 24.6108 15.5817 24.6108 11.07C24.6108 6.55835 20.9403 2.88785 16.4286 2.88785Z" fill="#D90506"/>
</g>
<defs>
<clipPath id="clip0_5477_4665">
<rect width="32.8571" height="32.8571" fill="white"/>
</clipPath>
</defs>
</svg>
