<svg xmlns="http://www.w3.org/2000/svg" width="24" height="24" viewBox="0 0 24 24" fill="none">
  <path d="M21.8298 9.31177L18.0636 5.54567C17.8348 5.31685 17.4637 5.31685 17.2349 5.54567L15.7286 7.05197C14.9914 6.54081 13.44 6.04953 12 7.0785C10.5612 6.05039 9.01069 6.5394 8.27145 7.05197L6.76515 5.54567C6.53632 5.31677 6.16526 5.31685 5.9364 5.54567L2.17025 9.31177C1.94323 9.52993 1.94327 9.92237 2.17025 10.1405L4.05333 12.0236L9.70282 17.6732C10.9184 18.8886 12.8514 18.939 14.126 17.8326C15.1969 17.7278 16.0692 16.9358 16.2951 15.9044C17.3218 15.6793 18.111 14.8133 18.2214 13.7488L21.8297 10.1405C22.0567 9.92237 22.0567 9.52997 21.8298 9.31177ZM3.41339 9.72617L6.35083 6.78877L7.40512 7.84306L4.46772 10.7805L3.41339 9.72617ZM15.7662 14.7894C15.4426 14.7894 15.1802 15.0523 15.1802 15.376C15.1802 16.0909 14.5986 16.6724 13.8831 16.6724C13.727 16.6724 13.5775 16.7351 13.4679 16.845C12.6567 17.6555 11.3437 17.6564 10.5316 16.8444L5.29647 11.6092L8.64853 8.25714C9.55948 7.34619 10.6781 7.66409 11.1123 7.90197L8.76101 10.2533C8.53215 10.4822 8.53242 10.8535 8.76132 11.0824C10.03 12.3511 12.085 12.353 13.3556 11.0824L13.8831 10.5549L17.0439 13.7158C16.9378 14.3249 16.4052 14.7894 15.7662 14.7894ZM17.6492 12.6636L14.2975 9.31177C14.0687 9.08291 13.6974 9.08307 13.4687 9.31177L12.5269 10.2536C11.616 11.1644 10.4973 10.8466 10.0631 10.6088L12.4147 8.25714C13.2257 7.44617 14.5392 7.4448 15.3515 8.25714L18.7036 11.6092L17.6492 12.6636ZM19.5323 10.7805L16.5949 7.84306L17.6492 6.78877L20.5866 9.72617L19.5323 10.7805Z" fill="#808284"/>
</svg>