<svg xmlns="http://www.w3.org/2000/svg" width="24" height="24" viewBox="0 0 24 24" fill="none">
  <path d="M21.0097 11.4263H20.2379C20.5926 10.7213 20.7802 9.93804 20.7802 9.1259C20.7802 7.75674 20.247 6.46951 19.2789 5.50135C18.3108 4.53319 17.0235 4 15.6544 4C14.2852 4 12.998 4.53319 12.0298 5.50135L11.7917 5.73945L11.5536 5.50139C10.5855 4.53323 9.29828 4.00004 7.92909 4.00004C6.55989 4.00004 5.2727 4.53323 4.30454 5.50135C3.33642 6.46951 2.80323 7.75674 2.80323 9.1259C2.80323 9.938 2.99084 10.7213 3.34552 11.4263H2.57373C2.25688 11.4263 2 11.6831 2 12C2 12.3169 2.25688 12.5737 2.57373 12.5737H4.13605C4.19071 12.6337 4.24682 12.6927 4.30458 12.7504L11.3861 19.8319C11.4981 19.944 11.6449 20 11.7917 20C11.9385 20 12.0854 19.944 12.1974 19.8319L19.2789 12.7504C19.3366 12.6927 19.3928 12.6337 19.4474 12.5737H21.0097C21.3266 12.5737 21.5835 12.3169 21.5835 12C21.5835 11.6831 21.3266 11.4263 21.0097 11.4263ZM3.9507 9.1259C3.9507 8.06323 4.36451 7.06416 5.11595 6.31272C5.86735 5.56128 6.86642 5.14747 7.92909 5.14747C8.99176 5.14747 9.99082 5.56128 10.7423 6.31272L11.386 6.95649C11.6101 7.18055 11.9733 7.18055 12.1974 6.95649L12.8412 6.31272C13.5926 5.56128 14.5917 5.14747 15.6543 5.14747C16.717 5.14747 17.7161 5.56128 18.4675 6.31272C19.219 7.06416 19.6328 8.06323 19.6328 9.1259C19.6328 9.96194 19.3765 10.7586 18.9013 11.4263H15.8941L14.6096 9.39808C14.502 9.22814 14.3134 9.12723 14.1121 9.13148C13.9111 9.13596 13.727 9.24539 13.627 9.41995L11.7461 12.704L9.32009 7.91581C9.21903 7.71635 9.0105 7.59345 8.78785 7.60175C8.5644 7.60971 8.36593 7.74679 8.27933 7.95295L6.82055 11.4263H4.68217C4.207 10.7586 3.9507 9.96198 3.9507 9.1259ZM11.7917 18.6149L5.75062 12.5737H7.20186C7.43288 12.5737 7.64138 12.4352 7.73084 12.2222L8.85704 9.54074L11.2035 14.1718C11.2988 14.36 11.4897 14.4806 11.7006 14.486C11.7055 14.4861 11.7104 14.4862 11.7153 14.4862C11.9206 14.4862 12.1107 14.3764 12.2131 14.1976L14.1496 10.8164L15.0937 12.3071C15.1989 12.4731 15.3818 12.5737 15.5784 12.5737H17.8329L11.7917 18.6149Z" fill="#808284"/>
</svg>