<svg width="24" height="20" viewBox="0 0 24 20" fill="none" xmlns="http://www.w3.org/2000/svg">
<path d="M23.2969 9.29638H22.351C22.7857 8.43242 23.0156 7.47252 23.0156 6.47722C23.0156 4.79928 22.3622 3.22175 21.1757 2.03525C19.9892 0.84875 18.4117 0.195312 16.7338 0.195312C15.0558 0.195312 13.4783 0.84875 12.2918 2.03525L12 2.32705L11.7082 2.0353C10.5217 0.848797 8.94422 0.195359 7.26623 0.195359C5.58825 0.195359 4.01077 0.848797 2.82427 2.03525C1.63781 3.22175 0.984375 4.79928 0.984375 6.47722C0.984375 7.47247 1.2143 8.43242 1.64897 9.29638H0.703125C0.314812 9.29638 0 9.61119 0 9.9995C0 10.3878 0.314812 10.7026 0.703125 10.7026H2.61778C2.68477 10.7761 2.75353 10.8484 2.82431 10.9192L11.5028 19.5977C11.6401 19.735 11.8201 19.8037 12 19.8037C12.1799 19.8037 12.3599 19.7351 12.4972 19.5977L21.1757 10.9192C21.2465 10.8484 21.3152 10.7761 21.3822 10.7026H23.2969C23.6852 10.7026 24 10.3878 24 9.9995C24 9.61119 23.6852 9.29638 23.2969 9.29638ZM2.39062 6.47722C2.39062 5.17489 2.89777 3.95052 3.81867 3.02961C4.73953 2.1087 5.96391 1.60156 7.26623 1.60156C8.56856 1.60156 9.79294 2.1087 10.7138 3.02961L11.5028 3.81856C11.7773 4.09316 12.2226 4.09316 12.4972 3.81856L13.2861 3.02961C14.207 2.1087 15.4314 1.60156 16.7337 1.60156C18.036 1.60156 19.2604 2.1087 20.1813 3.02961C21.1022 3.95052 21.6094 5.17489 21.6094 6.47722C21.6094 7.50181 21.2953 8.47808 20.7129 9.29638H17.0276L15.4534 6.81078C15.3215 6.60252 15.0904 6.47886 14.8437 6.48406C14.5973 6.48955 14.3717 6.62366 14.2492 6.83759L11.9441 10.8623L8.97094 4.99423C8.84709 4.74978 8.59153 4.59917 8.31867 4.60934C8.04483 4.61909 7.80159 4.78709 7.69547 5.03975L5.9077 9.29638H3.28706C2.70473 8.47808 2.39062 7.50186 2.39062 6.47722ZM12 18.1062L4.59647 10.7026H6.375C6.65812 10.7026 6.91364 10.5328 7.02328 10.2718L8.40347 6.98562L11.2791 12.6611C11.3959 12.8917 11.6298 13.0396 11.8883 13.0462C11.8943 13.0463 11.9003 13.0464 11.9063 13.0464C12.1579 13.0464 12.3909 12.9118 12.5164 12.6927L14.8897 8.549L16.0466 10.3758C16.1755 10.5793 16.3997 10.7026 16.6406 10.7026H19.4035L12 18.1062Z" fill="#D90506"/>
</svg>
