<svg width="24" height="24" viewBox="0 0 24 24" fill="none" xmlns="http://www.w3.org/2000/svg">
<path opacity="0.3" d="M20.51 8.00004L14.76 3.00004C13.9946 2.3425 13.019 1.98096 12.01 1.98096C11.001 1.98096 10.0254 2.3425 9.26 3.00004L3.5 8.00004C3.0256 8.4149 2.64609 8.92704 2.38726 9.50164C2.12843 10.0762 1.99635 10.6998 2 11.33V19.7C1.99995 20.3049 2.23814 20.8854 2.66301 21.3159C3.08788 21.7463 3.66521 21.9921 4.27 22H7.67C7.97492 22.0054 8.27783 21.9497 8.56096 21.8364C8.84409 21.7231 9.10173 21.5544 9.31877 21.3401C9.53581 21.1259 9.70786 20.8704 9.82485 20.5888C9.94183 20.3072 10.0014 20.005 10 19.7V15.38C9.99212 14.884 10.1576 14.4008 10.468 14.0137C10.7784 13.6267 11.2141 13.3601 11.7 13.26C11.9925 13.2034 12.294 13.2128 12.5824 13.2876C12.8708 13.3624 13.1389 13.5007 13.367 13.6924C13.5951 13.8841 13.7775 14.1243 13.9009 14.3955C14.0242 14.6668 14.0854 14.9621 14.08 15.26V19.7C14.0773 20.3022 14.3119 20.8813 14.733 21.3118C15.1541 21.7423 15.7279 21.9895 16.33 22H19.73C20.3348 21.9921 20.9121 21.7463 21.337 21.3159C21.7619 20.8854 22 20.3049 22 19.7V11.32C22.0022 10.6925 21.8704 10.0717 21.6134 9.49918C21.3565 8.92665 20.9803 8.41555 20.51 8.00004Z" fill="#1C0C07"/>
</svg>
