<svg width="25" height="24" viewBox="0 0 25 24" fill="none" xmlns="http://www.w3.org/2000/svg">
<path d="M13.4823 2.764C13.131 2.49075 12.9553 2.35412 12.7613 2.3016C12.5902 2.25526 12.4098 2.25526 12.2387 2.3016C12.0447 2.35412 11.869 2.49075 11.5177 2.764L4.73539 8.03912C4.28202 8.39175 4.05534 8.56806 3.89203 8.78886C3.74737 8.98444 3.6396 9.20478 3.57403 9.43905C3.5 9.70352 3.5 9.9907 3.5 10.5651V17.8C3.5 18.9201 3.5 19.4801 3.71799 19.908C3.90973 20.2843 4.21569 20.5903 4.59202 20.782C5.01984 21 5.5799 21 6.7 21H8.7C8.98003 21 9.12004 21 9.227 20.9455C9.32108 20.8976 9.39757 20.8211 9.4455 20.727C9.5 20.62 9.5 20.48 9.5 20.2V13.6C9.5 13.0399 9.5 12.7599 9.60899 12.546C9.70487 12.3578 9.85785 12.2049 10.046 12.109C10.2599 12 10.5399 12 11.1 12H13.9C14.4601 12 14.7401 12 14.954 12.109C15.1422 12.2049 15.2951 12.3578 15.391 12.546C15.5 12.7599 15.5 13.0399 15.5 13.6V20.2C15.5 20.48 15.5 20.62 15.5545 20.727C15.6024 20.8211 15.6789 20.8976 15.773 20.9455C15.88 21 16.02 21 16.3 21H18.3C19.4201 21 19.9802 21 20.408 20.782C20.7843 20.5903 21.0903 20.2843 21.282 19.908C21.5 19.4801 21.5 18.9201 21.5 17.8V10.5651C21.5 9.9907 21.5 9.70352 21.426 9.43905C21.3604 9.20478 21.2526 8.98444 21.108 8.78886C20.9447 8.56806 20.718 8.39175 20.2646 8.03913L13.4823 2.764Z" fill="#D90506" fill-opacity="0.05"/>
<path fill-rule="evenodd" clip-rule="evenodd" d="M12.4362 3.02514C12.4296 3.02784 12.4056 3.03912 12.3539 3.07365C12.2695 3.13003 12.1623 3.21283 11.9782 3.35601L5.19592 8.63114C4.70902 9.00984 4.58279 9.11627 4.49509 9.23484C4.40468 9.35708 4.33733 9.4948 4.29634 9.64121C4.25659 9.78323 4.25008 9.94822 4.25008 10.5651V17.8C4.25008 18.3724 4.25066 18.7566 4.27483 19.0525C4.29829 19.3396 4.34017 19.4769 4.38632 19.5675C4.50616 19.8027 4.69739 19.9939 4.93259 20.1137C5.02315 20.1599 5.16043 20.2018 5.44755 20.2252C5.74343 20.2494 6.12765 20.25 6.70008 20.25H8.70008C8.71771 20.25 8.73433 20.25 8.75006 20.25C8.75007 20.2342 8.75008 20.2176 8.75008 20.2L8.75007 13.5738C8.75006 13.3163 8.75004 13.0798 8.76619 12.8821C8.7836 12.669 8.82347 12.4358 8.94081 12.2055C9.10859 11.8762 9.37631 11.6085 9.70559 11.4407C9.9359 11.3234 10.1691 11.2835 10.3822 11.2661C10.5799 11.2499 10.8164 11.25 11.0738 11.25H13.9263C14.1838 11.25 14.4203 11.2499 14.6179 11.2661C14.8311 11.2835 15.0643 11.3234 15.2946 11.4407C15.6238 11.6085 15.8916 11.8762 16.0593 12.2055C16.1767 12.4358 16.2165 12.669 16.234 12.8821C16.2501 13.0798 16.2501 13.3163 16.2501 13.5738L16.2501 20.2C16.2501 20.2176 16.2501 20.2342 16.2501 20.25C16.2658 20.25 16.2824 20.25 16.3001 20.25H18.3001C18.8725 20.25 19.2567 20.2494 19.5526 20.2252C19.8397 20.2018 19.977 20.1599 20.0676 20.1137C20.3028 19.9939 20.494 19.8027 20.6138 19.5675C20.66 19.4769 20.7019 19.3396 20.7253 19.0525C20.7495 18.7566 20.7501 18.3724 20.7501 17.8V10.5651C20.7501 9.94822 20.7436 9.78323 20.7038 9.64121C20.6628 9.49479 20.5955 9.35708 20.5051 9.23484C20.4174 9.11627 20.2911 9.00984 19.8042 8.63114L13.0219 3.35601C12.8378 3.21283 12.7306 3.13003 12.6463 3.07365C12.5946 3.03912 12.5705 3.02784 12.5639 3.02514C12.5221 3.01408 12.4781 3.01408 12.4362 3.02514ZM12.562 3.02442C12.562 3.02439 12.5628 3.02468 12.5639 3.02514L12.562 3.02442ZM8.7444 20.4801C8.7444 20.4801 8.74445 20.4797 8.74459 20.4789L8.7444 20.4801ZM12.4362 3.02514C12.4374 3.02468 12.4382 3.02439 12.4382 3.02442L12.4362 3.02514ZM12.0427 1.57767C12.3422 1.49657 12.6579 1.49657 12.9574 1.57767C13.3027 1.67115 13.5962 1.9008 13.872 2.11667C13.8957 2.13525 13.9193 2.15371 13.9428 2.17198L20.7251 7.44711C20.748 7.46486 20.7705 7.48237 20.7928 7.49967C21.1803 7.80064 21.4851 8.03739 21.711 8.34287C21.9099 8.6118 22.0581 8.91477 22.1483 9.23689C22.2507 9.60278 22.2504 9.98875 22.2501 10.4794C22.2501 10.5076 22.2501 10.5362 22.2501 10.5651V17.8304C22.2501 18.3646 22.2501 18.8104 22.2203 19.1747C22.1893 19.5545 22.1222 19.9112 21.9503 20.2485C21.6867 20.7659 21.266 21.1866 20.7485 21.4503C20.4113 21.6221 20.0546 21.6892 19.6747 21.7202C19.3105 21.75 18.8647 21.75 18.3305 21.75L16.2798 21.75C16.1577 21.75 16.0252 21.75 15.9106 21.7407C15.7808 21.7301 15.6094 21.7038 15.4326 21.6137C15.1974 21.4939 15.0062 21.3027 14.8863 21.0675C14.7962 20.8906 14.77 20.7192 14.7594 20.5895C14.75 20.4748 14.75 20.3424 14.7501 20.2202L14.7501 13.6C14.7501 13.3076 14.7495 13.1334 14.7389 13.0043C14.7325 12.9255 14.724 12.8923 14.7213 12.8834C14.6977 12.8388 14.6613 12.8023 14.6166 12.7788C14.6077 12.7761 14.5746 12.7676 14.4958 12.7611C14.3667 12.7506 14.1925 12.75 13.9001 12.75H11.1001C10.8077 12.75 10.6335 12.7506 10.5044 12.7611C10.4255 12.7676 10.3924 12.7761 10.3835 12.7788C10.3389 12.8023 10.3024 12.8388 10.2789 12.8834C10.2761 12.8923 10.2676 12.9255 10.2612 13.0043C10.2507 13.1334 10.2501 13.3076 10.2501 13.6L10.2501 20.2202C10.2501 20.3424 10.2501 20.4748 10.2408 20.5895C10.2302 20.7192 10.2039 20.8906 10.1138 21.0675C9.99399 21.3027 9.80277 21.4939 9.56756 21.6137C9.39073 21.7038 9.21931 21.7301 9.08955 21.7407C8.97491 21.75 8.84246 21.75 8.7203 21.75L6.66962 21.75C6.13548 21.75 5.68963 21.75 5.32541 21.7202C4.94552 21.6892 4.58886 21.6221 4.2516 21.4503C3.73415 21.1866 3.31346 20.7659 3.04981 20.2485C2.87796 19.9112 2.81085 19.5545 2.77981 19.1747C2.75006 18.8104 2.75006 18.3646 2.75007 17.8304L2.75008 10.5651C2.75008 10.5361 2.75006 10.5076 2.75004 10.4794C2.74971 9.98874 2.74945 9.60278 2.85186 9.23689C2.94203 8.91477 3.0902 8.6118 3.28911 8.34287C3.51505 8.03739 3.81987 7.80064 4.20738 7.49966C4.22965 7.48237 4.25219 7.46486 4.27501 7.44711L11.0573 2.17198C11.0808 2.15371 11.1044 2.13524 11.1281 2.11667C11.404 1.9008 11.6974 1.67115 12.0427 1.57767ZM10.2798 12.8809C10.2798 12.8809 10.2796 12.8814 10.2792 12.8824L10.2798 12.8809ZM10.381 12.7797C10.3809 12.7797 10.3814 12.7795 10.3824 12.7792L10.381 12.7797ZM14.6192 12.7797C14.6192 12.7797 14.6186 12.7795 14.6177 12.7792L14.6192 12.7797ZM14.7203 12.8809C14.7204 12.8808 14.7206 12.8813 14.7209 12.8824L14.7203 12.8809Z" fill="#D90506"/>
</svg>
