<svg xmlns="http://www.w3.org/2000/svg" width="24" height="24" viewBox="0 0 24 24" fill="none">
  <path d="M13 4C8.03374 4 4 8.03374 4 13C4 17.9663 8.03374 22 13 22C17.9663 22 22 17.9663 22 13C22 8.03374 17.9663 4 13 4ZM13 21.2193C8.46747 21.2193 4.78072 17.5325 4.78072 13C4.78072 8.46747 8.46747 4.78072 13 4.78072C17.5325 4.78072 21.2193 8.46747 21.2193 13C21.2193 17.5325 17.5325 21.2193 13 21.2193Z" fill="#808284"/>
  <path d="M17.6843 10.4979H14.9518V7.76536C14.9518 7.54849 14.7783 7.375 14.5614 7.375H11.4385C11.2217 7.375 11.0482 7.54849 11.0482 7.76536V10.4979H8.31565C8.09879 10.4979 7.92529 10.6714 7.92529 10.8883V14.0111C7.92529 14.228 8.09879 14.4015 8.31565 14.4015H11.0482V17.134C11.0482 17.3509 11.2217 17.5244 11.4385 17.5244H14.5614C14.7783 17.5244 14.9518 17.3509 14.9518 17.134V14.4015H17.6843C17.9012 14.4015 18.0747 14.228 18.0747 14.0111V10.8883C18.053 10.6714 17.8795 10.4979 17.6843 10.4979ZM17.3157 13.6208H17.294H14.5614C14.3446 13.6208 14.1711 13.7943 14.1711 14.0111V16.7437H11.8289V14.0111C11.8289 13.7943 11.6554 13.6208 11.4385 13.6208H8.70602V11.2786H11.4385C11.6554 11.2786 11.8289 11.1051 11.8289 10.8883V8.15572H14.1928V10.8883C14.1928 11.1051 14.3663 11.2786 14.5831 11.2786H17.3157V13.6208Z" fill="#808284"/>
</svg>