<svg width="49" height="38" viewBox="0 0 49 38" fill="none" xmlns="http://www.w3.org/2000/svg">
<path d="M9.19485 37.1305V33.9598H9.56354V37.1305H9.19485Z" fill="#00040A"/>
<path d="M13.6915 37.1305H13.2665L11.538 34.4673H11.5206C11.525 34.5381 11.53 34.6191 11.5358 34.7102C11.5416 34.7998 11.5459 34.896 11.5488 34.9986C11.5532 35.0998 11.5553 35.2032 11.5553 35.3088V37.1305H11.2127V33.9598H11.6356L13.3576 36.6143H13.3727C13.3698 36.5637 13.3662 36.4922 13.3619 36.3996C13.3576 36.3057 13.3532 36.2052 13.3489 36.0982C13.346 35.9897 13.3445 35.8893 13.3445 35.7967V33.9598H13.6915V37.1305Z" fill="#00040A"/>
<path d="M17.813 37.1305H17.388L15.6595 34.4673H15.6421C15.6465 34.5381 15.6515 34.6191 15.6573 34.7102C15.6631 34.7998 15.6674 34.896 15.6703 34.9986C15.6747 35.0998 15.6768 35.2032 15.6768 35.3088V37.1305H15.3342V33.9598H15.7571L17.4791 36.6143H17.4942C17.4913 36.5637 17.4877 36.4922 17.4834 36.3996C17.4791 36.3057 17.4747 36.2052 17.4704 36.0982C17.4675 35.9897 17.466 35.8893 17.466 35.7967V33.9598H17.813V37.1305Z" fill="#00040A"/>
<path d="M22.2056 35.5408C22.2056 35.7852 22.1746 36.0078 22.1124 36.2088C22.0502 36.4083 21.9577 36.5804 21.8348 36.725C21.7133 36.8681 21.5622 36.9787 21.3815 37.0568C21.2008 37.1348 20.9911 37.1739 20.7526 37.1739C20.5068 37.1739 20.2921 37.1348 20.1085 37.0568C19.9263 36.9787 19.7745 36.8674 19.653 36.7228C19.533 36.5782 19.4426 36.4054 19.3819 36.2045C19.3226 36.0035 19.293 35.7808 19.293 35.5365C19.293 35.2126 19.3465 34.9285 19.4535 34.6842C19.5605 34.4398 19.7224 34.2497 19.9393 34.1138C20.1576 33.9779 20.4309 33.9099 20.7591 33.9099C21.0728 33.9099 21.3367 33.9771 21.5507 34.1116C21.7661 34.2461 21.9288 34.4355 22.0386 34.6798C22.15 34.9227 22.2056 35.2097 22.2056 35.5408ZM19.6812 35.5408C19.6812 35.8097 19.7195 36.0425 19.7962 36.2392C19.8728 36.4358 19.9899 36.5876 20.1475 36.6946C20.3065 36.8016 20.5082 36.8551 20.7526 36.8551C20.9984 36.8551 21.1993 36.8016 21.3555 36.6946C21.5131 36.5876 21.6295 36.4358 21.7047 36.2392C21.7798 36.0425 21.8174 35.8097 21.8174 35.5408C21.8174 35.1316 21.7314 34.8121 21.5593 34.5822C21.3887 34.3509 21.122 34.2352 20.7591 34.2352C20.5133 34.2352 20.3109 34.288 20.1518 34.3935C19.9928 34.4991 19.8742 34.6495 19.7962 34.8446C19.7195 35.0384 19.6812 35.2704 19.6812 35.5408Z" fill="#00040A"/>
<path d="M25.9042 33.9598L24.7656 37.1305H24.3948L23.2562 33.9598H23.6422L24.3839 36.0483C24.4143 36.1322 24.441 36.2124 24.4642 36.289C24.4888 36.3657 24.5104 36.4394 24.5292 36.5102C24.548 36.5811 24.5647 36.6498 24.5791 36.7163C24.5936 36.6498 24.6102 36.5811 24.629 36.5102C24.6478 36.438 24.6695 36.3635 24.6941 36.2869C24.7186 36.2088 24.7461 36.1271 24.7765 36.0418L25.5139 33.9598H25.9042Z" fill="#00040A"/>
<path d="M29.1062 37.1305L28.7158 36.1242H27.4449L27.0567 37.1305H26.6837L27.9242 33.9468H28.256L29.4879 37.1305H29.1062ZM28.6052 35.7967L28.2343 34.7969C28.2257 34.7709 28.2112 34.7283 28.191 34.669C28.1722 34.6097 28.1526 34.5482 28.1324 34.4846C28.1122 34.421 28.0955 34.3697 28.0825 34.3307C28.0681 34.3899 28.0522 34.4492 28.0348 34.5085C28.0189 34.5663 28.003 34.6205 27.9871 34.6711C27.9712 34.7203 27.9575 34.7622 27.9459 34.7969L27.5685 35.7967H28.6052Z" fill="#00040A"/>
<path d="M31.6792 37.1305H31.3083V34.2851H30.3107V33.9598H32.6725V34.2851H31.6792V37.1305Z" fill="#00040A"/>
<path d="M33.929 37.1305V33.9598H34.2977V37.1305H33.929Z" fill="#00040A"/>
<path d="M38.6968 35.5408C38.6968 35.7852 38.6657 36.0078 38.6036 36.2088C38.5414 36.4083 38.4489 36.5804 38.326 36.725C38.2045 36.8681 38.0534 36.9787 37.8727 37.0568C37.692 37.1348 37.4823 37.1739 37.2438 37.1739C36.998 37.1739 36.7833 37.1348 36.5996 37.0568C36.4175 36.9787 36.2657 36.8674 36.1442 36.7228C36.0242 36.5782 35.9338 36.4054 35.8731 36.2045C35.8138 36.0035 35.7842 35.7808 35.7842 35.5365C35.7842 35.2126 35.8377 34.9285 35.9447 34.6842C36.0517 34.4398 36.2136 34.2497 36.4305 34.1138C36.6488 33.9779 36.9221 33.9099 37.2503 33.9099C37.564 33.9099 37.8279 33.9771 38.0419 34.1116C38.2573 34.2461 38.42 34.4355 38.5298 34.6798C38.6412 34.9227 38.6968 35.2097 38.6968 35.5408ZM36.1724 35.5408C36.1724 35.8097 36.2107 36.0425 36.2873 36.2392C36.364 36.4358 36.4811 36.5876 36.6387 36.6946C36.7977 36.8016 36.9994 36.8551 37.2438 36.8551C37.4896 36.8551 37.6905 36.8016 37.8467 36.6946C38.0043 36.5876 38.1207 36.4358 38.1959 36.2392C38.271 36.0425 38.3086 35.8097 38.3086 35.5408C38.3086 35.1316 38.2226 34.8121 38.0505 34.5822C37.8799 34.3509 37.6132 34.2352 37.2503 34.2352C37.0045 34.2352 36.8021 34.288 36.643 34.3935C36.484 34.4991 36.3654 34.6495 36.2873 34.8446C36.2107 35.0384 36.1724 35.2704 36.1724 35.5408Z" fill="#00040A"/>
<path d="M42.66 37.1305H42.2349L40.5064 34.4673H40.4891C40.4934 34.5381 40.4985 34.6191 40.5043 34.7102C40.5101 34.7998 40.5144 34.896 40.5173 34.9986C40.5216 35.0998 40.5238 35.2032 40.5238 35.3088V37.1305H40.1811V33.9598H40.604L42.326 36.6143H42.3412C42.3383 36.5637 42.3347 36.4922 42.3304 36.3996C42.326 36.3057 42.3217 36.2052 42.3173 36.0982C42.3145 35.9897 42.313 35.8893 42.313 35.7967V33.9598H42.66V37.1305Z" fill="#00040A"/>
<circle cx="24.9211" cy="7.5904" r="5.24909" fill="white"/>
<path d="M31.0474 5.16658C31.0474 4.22066 31.0409 3.27474 31.0474 2.32882C31.0474 2.02903 30.9478 1.83963 30.6556 1.75196C28.8833 1.21124 27.0482 0.903094 25.1965 0.835266C23.1662 0.76167 21.1921 1.13506 19.2526 1.73356C18.64 1.92188 18.4863 2.10154 18.4853 2.73901C18.4853 4.19901 18.4766 5.66118 18.4853 7.11794C18.4983 9.04008 19.1119 10.7425 20.3663 12.2112C21.5568 13.603 23.0449 14.6377 24.5179 15.6918C24.5977 15.7559 24.697 15.7909 24.7993 15.7909C24.9017 15.7909 25.0009 15.7559 25.0807 15.6918C26.2301 14.905 27.3654 14.1019 28.3752 13.1355C29.7757 11.801 30.793 10.2555 31.0062 8.28681C31.1199 7.25539 31.0116 6.20665 31.0474 5.16658ZM28.1403 10.8713C28.1403 10.3215 28.1403 9.77062 28.1403 9.21866C28.1403 8.81388 28.3254 8.46106 28.4888 8.10715C28.5726 7.95334 28.6097 7.77841 28.5955 7.60384C28.5812 7.42926 28.5163 7.26264 28.4087 7.12443C27.8741 6.36142 27.3676 5.57893 26.8503 4.80401C26.816 4.74588 26.7773 4.69051 26.7344 4.63842C26.6002 4.49664 26.4282 4.44144 26.2604 4.54967C26.0927 4.6579 26.1457 4.8354 26.2301 4.98259C26.5548 5.5562 26.8935 6.12656 27.2215 6.70018C27.3427 6.91663 27.4498 7.13309 27.5602 7.34955C27.5974 7.41457 27.6212 7.48634 27.6303 7.56067C27.6394 7.635 27.6336 7.7104 27.6133 7.78246C27.5775 7.89827 27.5462 8.03247 27.4065 8.05953C27.2669 8.08659 27.1966 7.9632 27.1425 7.85389C26.8767 7.36792 26.5646 6.90871 26.2106 6.48264C26.0937 6.33112 25.9768 6.11682 25.768 6.22722C25.5591 6.33761 25.6727 6.57138 25.7507 6.7294C26.5721 8.38746 26.2225 10.1483 26.1836 11.8757C26.1836 11.8887 26.1836 11.9016 26.1836 11.9135C26.1554 12.2913 25.8188 12.1765 25.4325 12.2188C25.4128 12.2186 25.3932 12.2164 25.374 12.2123C25.2452 12.182 25.2658 12.0532 25.2658 11.8681C25.255 10.894 25.2571 9.91998 25.2658 8.94592C25.2658 8.64288 25.2171 8.40478 24.8329 8.40478C24.4487 8.40478 24.4 8.62123 24.4 8.93726C24.4086 9.92323 24.3891 10.9103 24.4119 11.8962C24.4194 12.2209 24.295 12.2458 24.0341 12.2014C23.454 12.1019 23.453 12.1084 23.4378 11.5261C23.4172 10.7155 23.3913 9.90266 23.3772 9.09528C23.3601 8.48569 23.4681 7.87906 23.6943 7.31275C23.7906 7.07573 23.8891 6.83871 23.9703 6.59519C24.0114 6.4729 24.0688 6.3138 23.9238 6.22722C23.7787 6.14063 23.6337 6.24237 23.5428 6.36358C23.2116 6.80624 22.8523 7.22941 22.5915 7.72294C22.5146 7.86905 22.4605 8.12014 22.2462 8.04762C21.994 7.95346 22.0049 7.6883 22.0514 7.47185C22.107 7.29149 22.1863 7.11933 22.2873 6.95992C22.6542 6.31055 23.0309 5.67417 23.3956 5.02804C23.4865 4.86786 23.6121 4.66764 23.3815 4.53452C23.1748 4.41655 22.9887 4.52045 22.8631 4.70985C22.2938 5.56378 21.7289 6.41986 21.1607 7.27379C21.0886 7.37358 21.047 7.49217 21.0411 7.61514C21.0351 7.73811 21.065 7.86016 21.1271 7.96645C21.6412 8.87665 21.4799 9.87993 21.5774 10.8724C20.5762 10.1884 19.7624 8.24785 20.192 6.46424C20.6769 4.4566 22.4086 2.94789 24.3978 2.8007C26.5505 2.64593 28.5159 3.86026 29.2562 5.8008C29.9478 7.61254 29.4532 9.83231 28.1403 10.8713Z" fill="#B82B2B"/>
<path d="M24.8405 4.49564C24.6775 4.49579 24.5207 4.43292 24.4029 4.32018C24.2851 4.20744 24.2155 4.05354 24.2085 3.89064C24.2056 3.80978 24.2189 3.72915 24.2475 3.65348C24.2762 3.57781 24.3197 3.50862 24.3754 3.44996C24.4311 3.3913 24.498 3.34435 24.5721 3.31186C24.6462 3.27937 24.7261 3.262 24.807 3.26075C24.9705 3.25608 25.1292 3.31628 25.2484 3.42822C25.3676 3.54016 25.4377 3.69473 25.4434 3.85817C25.4434 4.02133 25.3809 4.17829 25.2688 4.29683C25.1567 4.41538 25.0034 4.48651 24.8405 4.49564Z" fill="#B82B2B"/>
<path d="M5.69736 25.3824C5.93979 24.8337 6.16274 24.3305 6.38353 23.8261C6.9777 22.4657 7.56538 21.1031 8.16822 19.7459C8.29917 19.4515 8.38468 19.1658 8.2916 18.8498C8.218 18.6019 8.33164 18.5121 8.56433 18.4731C9.59251 18.3 9.59575 18.3064 9.71588 19.339C9.99836 21.7665 10.2841 24.1941 10.5871 26.6195C10.6347 27.0026 10.5514 27.1476 10.1456 27.1693C9.27323 27.2147 9.2689 27.2364 9.17149 26.3684C8.96694 24.6108 8.76997 22.8531 8.56758 21.0955C8.55135 20.9483 8.52212 20.8022 8.49507 20.6301C8.38034 20.6951 8.36844 20.799 8.33272 20.8855C7.52425 22.8575 6.70064 24.824 5.91923 26.8078C5.76446 27.2018 5.50363 27.1899 5.19518 27.2169C4.86508 27.2461 4.83802 26.9929 4.76226 26.784C4.02053 24.8265 3.27845 22.8697 2.536 20.9137C2.49595 20.8054 2.49487 20.6702 2.31954 20.5749C2.21131 21.418 2.1085 22.2373 2.0046 23.0577C1.84442 24.3175 1.68424 25.5769 1.52406 26.8359C1.50891 26.9572 1.56627 27.1357 1.36388 27.1606C1.11171 27.1855 0.851961 27.2808 0.606282 27.1725C0.483984 27.1184 0.568401 26.9788 0.5868 26.8792C1.01971 24.5285 1.44289 22.1789 1.88554 19.8303C1.94507 19.5132 1.96022 19.2156 1.8152 18.9255C1.65177 18.6008 1.78597 18.4926 2.10741 18.4688C3.22433 18.3725 2.97324 18.2675 3.33689 19.208C4.0815 21.1475 4.82071 23.0894 5.5545 25.0339C5.59779 25.1292 5.63675 25.2288 5.69736 25.3824Z" fill="#2C3D52"/>
<path d="M19.5269 23.2438C19.5269 22.1214 19.5269 21.0002 19.5269 19.8789C19.5269 19.301 19.4371 19.2036 18.8483 19.1798C18.6968 19.1733 18.6405 19.1441 18.6178 18.9893C18.5929 18.815 18.6773 18.7826 18.8137 18.7609C20.5573 18.4893 22.3073 18.2988 24.0487 18.7198C26.2977 19.2609 27.3789 20.8497 27.1278 23.1572C26.8919 25.3217 25.4384 26.7893 23.2316 27.1508C22.0649 27.3424 20.9133 27.14 19.7553 27.114C19.4804 27.1075 19.5269 26.8976 19.5269 26.7309C19.5269 25.5699 19.5269 24.4076 19.5269 23.2438ZM20.883 22.892V25.5685C20.883 26.6432 20.883 26.6432 21.988 26.6443C23.6558 26.6443 24.8648 25.9138 25.3669 24.5533C25.7554 23.5322 25.7749 22.4075 25.4221 21.3736C25.0174 20.1733 24.145 19.4698 22.9145 19.1992C22.4069 19.091 21.8928 19.1246 21.3798 19.1094C20.9891 19.0986 20.87 19.2718 20.8765 19.6506C20.8949 20.7296 20.883 21.8108 20.883 22.892Z" fill="#2C3D52"/>
<path d="M40.5232 22.7102C40.4561 24.3044 40.0902 25.4495 39.087 26.311C37.746 27.4571 35.299 27.6671 33.7838 26.7666C32.5413 26.0285 32.0261 24.864 31.9287 23.4862C31.8205 21.9115 32.1041 20.4623 33.4158 19.4017C34.957 18.156 37.8077 18.1776 39.2309 19.4536C40.2926 20.4104 40.5307 21.6767 40.5232 22.7102ZM39.022 22.8531C39.0123 22.1583 38.8792 21.2134 38.3499 20.3736C37.7727 19.458 36.9393 19.0377 35.8498 19.1127C34.8888 19.1787 34.1896 19.6647 33.8357 20.5197C33.116 22.2589 33.2004 23.9938 34.2178 25.5967C35.1918 27.139 37.733 27.1584 38.6032 25.2569C38.9127 24.5804 39.0274 23.8672 39.022 22.8531Z" fill="#2C3D52"/>
<path d="M42.8976 20.5684C42.8976 20.9775 42.8889 21.3671 42.8976 21.7589C42.9387 23.4213 42.9874 25.0837 43.0264 26.745C43.0264 26.8813 43.1216 27.0902 42.9376 27.1389C42.6692 27.2103 42.3759 27.2883 42.1032 27.1746C41.9809 27.1248 42.0383 26.9582 42.0404 26.837C42.0891 24.6616 42.1238 22.4851 42.2028 20.3097C42.2222 19.7783 42.1346 19.3432 41.7785 18.9406C41.4993 18.6257 41.5501 18.5456 41.9733 18.4904C41.9993 18.4904 42.0274 18.4904 42.0534 18.4817C42.7309 18.3237 43.1714 18.5434 43.5978 19.1408C44.9778 21.0759 46.4388 22.9548 47.8718 24.852C47.941 24.944 47.98 25.0685 48.1207 25.101C48.203 25.0371 48.1608 24.9505 48.1586 24.8845C48.1056 22.9364 48.0504 20.9883 47.9941 19.0467C47.9941 18.9114 47.8999 18.696 48.0915 18.6603C48.3631 18.6116 48.6543 18.4947 48.9227 18.6289C49.0526 18.6938 48.98 18.8789 48.9768 19.0077C48.9292 21.0352 48.8794 23.0623 48.8274 25.0891C48.8155 25.6161 48.8274 26.1443 48.8047 26.6703C48.7961 26.8402 48.9595 27.1194 48.6435 27.1714C48.3534 27.2179 48.0471 27.3316 47.8004 26.9928C47.1023 26.0307 46.3771 25.0869 45.6628 24.1377L43.1022 20.7307C43.0556 20.669 43.0264 20.5868 42.8976 20.5684Z" fill="#2C3D52"/>
<path d="M12.467 23.3379C12.467 22.2426 12.467 21.1485 12.467 20.0532C12.467 19.512 12.349 19.3854 11.8079 19.3627C11.6423 19.3562 11.5676 19.3237 11.546 19.1462C11.5243 18.9687 11.6347 18.9568 11.7624 18.9373C12.4302 18.8291 13.0969 18.7209 13.7755 18.7133C14.8978 18.7133 16.0212 18.7198 17.1425 18.6971C17.4498 18.6906 17.5462 18.788 17.5483 19.0802C17.5483 19.5391 17.583 19.998 17.6057 20.4569C17.6111 20.5738 17.6111 20.6679 17.4498 20.6733C17.3265 20.6798 17.2334 20.6668 17.2042 20.5316C17.2042 20.5186 17.1955 20.5056 17.1933 20.4926C16.9174 19.3118 16.5267 19.3129 15.4682 19.3021C15.0353 19.3021 14.6024 19.3086 14.1694 19.3021C13.9422 19.2967 13.8177 19.3497 13.822 19.6149C13.8328 20.4937 13.835 21.3725 13.822 22.2502C13.822 22.5176 13.9465 22.5208 14.1467 22.5078C14.9043 22.4602 15.6619 22.4256 16.4195 22.3823C16.6565 22.3682 16.8665 22.3725 16.8524 22.6983C16.8373 22.971 16.86 23.2264 16.4282 23.1907C15.6879 23.128 14.9422 23.1377 14.1997 23.0955C13.9281 23.0803 13.8199 23.1355 13.8274 23.4375C13.8491 24.2882 13.848 25.141 13.8274 25.9917C13.8199 26.3543 13.9357 26.5112 14.3134 26.4971C14.8805 26.4755 15.4498 26.4733 16.0169 26.4809C16.7236 26.4895 17.1966 26.1638 17.4682 25.5209C17.5256 25.3845 17.6014 25.2557 17.6555 25.1172C17.7096 24.9787 17.8048 25.009 17.9185 25.022C18.0646 25.0436 18.0927 25.1215 18.0667 25.246C17.9585 25.7742 17.8503 26.3045 17.7345 26.8305C17.7146 26.925 17.6603 27.0087 17.5821 27.0653C17.5038 27.122 17.4073 27.1474 17.3113 27.1367C15.7961 27.1292 14.2809 27.1183 12.7657 27.1162C12.4897 27.1162 12.4713 26.9549 12.4724 26.7439C12.4692 25.6086 12.467 24.4732 12.467 23.3379Z" fill="#2C3D52"/>
<path d="M30.1657 22.8454C30.1657 24.1009 30.1538 25.3564 30.1733 26.6107C30.1798 26.9819 30.0835 27.1335 29.6895 27.1649C28.6419 27.2482 28.8129 27.2785 28.8107 26.3358C28.8042 24.2438 28.8107 22.1517 28.8107 20.0586C28.8107 19.3226 28.7966 19.301 28.0888 19.2025C27.9416 19.183 27.9146 19.1181 27.9027 18.999C27.8908 18.8799 27.9232 18.8042 28.065 18.7825C28.662 18.6699 29.2652 18.5933 29.8714 18.5531C30.1831 18.5347 30.169 18.7512 30.169 18.9611L30.1657 22.8454Z" fill="#2C3D52"/>
</svg>
