<svg xmlns="http://www.w3.org/2000/svg" width="24" height="24" viewBox="0 0 24 24" fill="none">
  <path d="M19.7861 3.06362C19.7188 3.0221 19.6412 3 19.5622 3H6.79983C5.70262 3 4.80999 3.88393 4.80999 4.96724L4.73499 15.9576H2.42857C2.19185 15.9576 2 16.1494 2 16.3862V18.3661C2.00151 19.8201 3.17974 20.9983 4.63371 21C4.66317 21 4.6928 20.997 4.72176 20.991H15.3699C15.4334 20.9955 15.4973 20.9985 15.5618 20.9985C17.0383 20.9958 18.234 19.7985 18.2345 18.3219V11.8974H21.1233C21.36 11.8974 21.5519 11.7055 21.5519 11.4688V5.10686C21.5467 4.08382 20.7975 3.2168 19.7861 3.06362ZM2.85714 18.3663V16.8149H12.8891V18.3221C12.8886 18.9936 13.1412 19.6405 13.5967 20.1338H4.57511C4.55486 20.134 4.53477 20.1355 4.51484 20.1385C3.58253 20.0751 2.85831 19.3008 2.85714 18.3663ZM17.3773 5.10686V18.3219C17.3765 18.8011 17.1862 19.2601 16.8478 19.5991C16.5239 19.9314 16.0838 20.1254 15.62 20.1402C15.5969 20.1362 15.5735 20.1342 15.5499 20.134H15.3992C14.4657 20.0421 13.7524 19.2603 13.7462 18.3223V16.3862C13.7462 16.1496 13.5544 15.9576 13.3176 15.9576H5.59213L5.66713 4.97026C5.67333 4.3505 6.17991 3.85246 6.79983 3.85714H17.8031C17.527 4.21523 17.3772 4.65469 17.3773 5.10686ZM20.6948 11.0402H18.2345V5.10686C18.2457 4.43538 18.7931 3.89715 19.4646 3.89715C20.1361 3.89715 20.6835 4.43538 20.6948 5.10686V11.0402Z" fill="black"/>
  <path d="M7.5023 7.64425H11.5613C11.7981 7.64425 11.9899 7.4524 11.9899 7.21568C11.9899 6.97896 11.7981 6.78711 11.5613 6.78711H7.5023C7.26558 6.78711 7.07373 6.97896 7.07373 7.21568C7.07373 7.4524 7.26558 7.64425 7.5023 7.64425Z" fill="black"/>
  <path d="M15.074 9.84961H7.5023C7.26558 9.84961 7.07373 10.0415 7.07373 10.2782C7.07373 10.5147 7.26558 10.7068 7.5023 10.7068H15.074C15.3107 10.7068 15.5025 10.5147 15.5025 10.2782C15.5025 10.0415 15.3107 9.84961 15.074 9.84961Z" fill="black"/>
  <path d="M15.074 12.9141H7.5023C7.26558 12.9141 7.07373 13.1061 7.07373 13.3426C7.07373 13.5794 7.26558 13.7712 7.5023 13.7712H15.074C15.3107 13.7712 15.5025 13.5794 15.5025 13.3426C15.5025 13.1061 15.3107 12.9141 15.074 12.9141Z" fill="black"/>
</svg>