<svg xmlns="http://www.w3.org/2000/svg" width="24" height="24" viewBox="0 0 24 24" fill="none">
  <path d="M20.7187 5.80753L19.0343 4.12331C18.8702 3.95903 18.6037 3.95883 18.4393 4.12311C18.4393 4.12321 18.4392 4.12331 18.439 4.12331L13.3865 9.17607C13.3075 9.25497 13.2632 9.36198 13.2632 9.47363V11.158C13.2632 11.3904 13.4517 11.5789 13.6841 11.5789H15.3685C15.4801 11.5789 15.5871 11.5346 15.666 11.4556L20.7187 6.40296C20.8831 6.23868 20.8832 5.97222 20.719 5.80784C20.7189 5.80784 20.7189 5.80763 20.7187 5.80753ZM15.1941 10.7369H14.1052V9.64811L18.7368 5.01651L19.8256 6.1053L15.1941 10.7369Z" fill="#808284"/>
  <path d="M19.5789 9.0529C19.3464 9.0529 19.158 9.24139 19.158 9.47385V15.3686C19.1572 16.0659 18.5921 16.6311 17.8948 16.6319H13.6843C13.5931 16.6317 13.5044 16.6612 13.4316 16.716L10.7369 18.7372V17.0529C10.7369 16.8204 10.5484 16.6319 10.3158 16.6319H6.10527C5.40798 16.6311 4.84283 16.0659 4.84221 15.3687V7.78964C4.84293 7.09245 5.40798 6.5273 6.10527 6.52658H13.6843C13.9168 6.52658 14.1053 6.33809 14.1053 6.10552C14.1053 5.87306 13.9168 5.68457 13.6843 5.68457H6.10527C4.94305 5.6857 4.00113 6.62762 4 7.78964V15.3687C4.00113 16.5308 4.94305 17.4728 6.10527 17.474H9.89476V19.5793C9.89476 19.8117 10.0832 20.0002 10.3158 20.0002C10.407 20.0002 10.4955 19.9707 10.5685 19.9161L13.8251 17.4739H17.8948C19.057 17.4728 19.9988 16.5308 20.0001 15.3686V9.47396C20.0001 9.24139 19.8115 9.0529 19.5789 9.0529Z" fill="#808284"/>
  <path d="M11.1578 8.21094H6.94746C6.71479 8.21094 6.52631 8.39942 6.52631 8.63199C6.52631 8.86446 6.71479 9.05294 6.94746 9.05294H11.1578C11.3904 9.05294 11.579 8.86446 11.579 8.63199C11.579 8.39942 11.3904 8.21094 11.1578 8.21094Z" fill="#808284"/>
  <path d="M6.94746 11.5794H11.1578C11.3904 11.5794 11.579 11.3908 11.579 11.1584C11.579 10.9258 11.3904 10.7373 11.1578 10.7373H6.94746C6.71479 10.7373 6.52631 10.9258 6.52631 11.1584C6.52631 11.3908 6.71479 11.5794 6.94746 11.5794Z" fill="#808284"/>
  <path d="M6.94746 14.1057H17.0527C17.2852 14.1057 17.4736 13.9172 17.4736 13.6846C17.4736 13.4522 17.2851 13.2637 17.0527 13.2637H6.94746C6.71479 13.2637 6.52631 13.4522 6.52631 13.6846C6.52631 13.9172 6.71479 14.1057 6.94746 14.1057Z" fill="#808284"/>
</svg>