<svg xmlns="http://www.w3.org/2000/svg" width="20" height="21" viewBox="0 0 20 21" fill="none">
  <path d="M15.7291 3.20825C15.3147 3.20825 14.9173 3.37287 14.6243 3.6659C14.3313 3.95892 14.1666 4.35635 14.1666 4.77075C14.1666 5.18515 14.3313 5.58258 14.6243 5.87561C14.9173 6.16863 15.3147 6.33325 15.7291 6.33325C16.1435 6.33325 16.541 6.16863 16.834 5.87561C17.127 5.58258 17.2916 5.18515 17.2916 4.77075C17.2916 4.35635 17.127 3.95892 16.834 3.6659C16.541 3.37287 16.1435 3.20825 15.7291 3.20825ZM13.125 4.77075C13.1248 4.15975 13.3396 3.56815 13.7316 3.09946C14.1235 2.63078 14.6679 2.31485 15.2693 2.20695C15.8707 2.09905 16.4909 2.20605 17.0213 2.50923C17.5518 2.81241 17.9588 3.29247 18.1711 3.86541C18.3834 4.43835 18.3874 5.06769 18.1826 5.64333C17.9777 6.21897 17.577 6.70424 17.0504 7.01426C16.5239 7.32427 15.9052 7.43927 15.3024 7.33916C14.6997 7.23904 14.1513 6.93017 13.7533 6.46659L6.75581 9.71659C6.91667 10.2264 6.91667 10.7734 6.75581 11.2833L13.7533 14.5333C14.174 14.044 14.7613 13.7284 15.4014 13.6475C16.0416 13.5666 16.6889 13.7262 17.2181 14.0954C17.7472 14.4647 18.1205 15.0172 18.2655 15.6459C18.4105 16.2746 18.3169 16.9348 18.0029 17.4984C17.6889 18.0621 17.1768 18.4891 16.5659 18.6968C15.955 18.9044 15.2888 18.8778 14.6963 18.6222C14.1039 18.3666 13.6274 17.9002 13.3593 17.3133C13.0911 16.7265 13.0504 16.0609 13.245 15.4458L6.24748 12.1958C5.90106 12.5995 5.4393 12.8874 4.92433 13.0208C4.40936 13.1543 3.86588 13.1268 3.367 12.9421C2.86811 12.7574 2.43776 12.4243 2.13384 11.9877C1.82991 11.5511 1.66699 11.0319 1.66699 10.4999C1.66699 9.96794 1.82991 9.44873 2.13384 9.01212C2.43776 8.57551 2.86811 8.24245 3.367 8.05775C3.86588 7.87305 4.40936 7.84557 4.92433 7.979C5.4393 8.11243 5.90106 8.40037 6.24748 8.80409L13.245 5.55409C13.1653 5.30063 13.1248 5.03646 13.125 4.77075ZM4.27081 8.93742C4.06562 8.93742 3.86244 8.97783 3.67287 9.05636C3.4833 9.13488 3.31105 9.24997 3.16596 9.39506C3.02086 9.54016 2.90577 9.71241 2.82725 9.90198C2.74873 10.0915 2.70831 10.2947 2.70831 10.4999C2.70831 10.7051 2.74873 10.9083 2.82725 11.0979C2.90577 11.2874 3.02086 11.4597 3.16596 11.6048C3.31105 11.7499 3.4833 11.865 3.67287 11.9435C3.86244 12.022 4.06562 12.0624 4.27081 12.0624C4.68521 12.0624 5.08264 11.8978 5.37567 11.6048C5.66869 11.3117 5.83331 10.9143 5.83331 10.4999C5.83331 10.0855 5.66869 9.68809 5.37567 9.39507C5.08264 9.10204 4.68521 8.93742 4.27081 8.93742ZM15.7291 14.6666C15.3147 14.6666 14.9173 14.8312 14.6243 15.1242C14.3313 15.4173 14.1666 15.8147 14.1666 16.2291C14.1666 16.6435 14.3313 17.0409 14.6243 17.3339C14.9173 17.627 15.3147 17.7916 15.7291 17.7916C16.1435 17.7916 16.541 17.627 16.834 17.3339C17.127 17.0409 17.2916 16.6435 17.2916 16.2291C17.2916 15.8147 17.127 15.4173 16.834 15.1242C16.541 14.8312 16.1435 14.6666 15.7291 14.6666Z" fill="black"/>
</svg>