<svg xmlns="http://www.w3.org/2000/svg" width="21" height="21" viewBox="0 0 21 21" fill="none">
  <path d="M16.9495 8.90127C16.9495 13.5249 11.0048 17.4881 11.0048 17.4881C11.0048 17.4881 5.06009 13.5249 5.06009 8.90127C5.06009 7.32463 5.68641 5.81256 6.80126 4.69771C7.91611 3.58286 9.42817 2.95654 11.0048 2.95654C12.5815 2.95654 14.0935 3.58286 15.2084 4.69771C16.3232 5.81256 16.9495 7.32463 16.9495 8.90127Z" stroke="#00040A" stroke-width="1.5" stroke-linecap="round" stroke-linejoin="round"/>
  <path d="M11.0048 10.8828C12.0992 10.8828 12.9864 9.99564 12.9864 8.90125C12.9864 7.80686 12.0992 6.91968 11.0048 6.91968C9.9104 6.91968 9.02322 7.80686 9.02322 8.90125C9.02322 9.99564 9.9104 10.8828 11.0048 10.8828Z" stroke="#00040A" stroke-width="1.5" stroke-linecap="round" stroke-linejoin="round"/>
</svg>