<svg xmlns="http://www.w3.org/2000/svg" width="24" height="24" viewBox="0 0 24 24" fill="none">
  <path fill-rule="evenodd" clip-rule="evenodd" d="M6.12369 5.26879C5.8718 5.26879 5.63023 5.36885 5.45212 5.54696C5.274 5.72508 5.17394 5.96665 5.17394 6.21854V16.7812C5.17394 17.0331 5.274 17.2746 5.45212 17.4528C5.63023 17.6309 5.8718 17.7309 6.12369 17.7309H9.14159C9.45043 17.7309 9.70079 17.9813 9.70079 18.2901C9.70079 18.599 9.45043 18.8493 9.14159 18.8493H6.12369C5.57518 18.8493 5.04914 18.6314 4.66129 18.2436C4.27344 17.8557 4.05554 17.3297 4.05554 16.7812V6.21854C4.05554 5.67003 4.27344 5.14399 4.66129 4.75614C5.04914 4.36828 5.57518 4.15039 6.12369 4.15039H9.14159C9.45043 4.15039 9.70079 4.40075 9.70079 4.70959C9.70079 5.01843 9.45043 5.26879 9.14159 5.26879H6.12369Z" fill="#323232"/>
  <path fill-rule="evenodd" clip-rule="evenodd" d="M13.273 7.33175C13.4914 7.11337 13.8455 7.11337 14.0639 7.33175L17.8362 11.1041C18.0546 11.3225 18.0546 11.6766 17.8362 11.895L14.0639 15.6673C13.8455 15.8857 13.4914 15.8857 13.273 15.6673C13.0547 15.4489 13.0547 15.0949 13.273 14.8765L16.65 11.4995L13.273 8.12258C13.0547 7.9042 13.0547 7.55014 13.273 7.33175Z" fill="#323232"/>
  <path fill-rule="evenodd" clip-rule="evenodd" d="M7.82788 11.5006C7.82788 11.1918 8.07824 10.9414 8.38708 10.9414H17.4408C17.7496 10.9414 18 11.1918 18 11.5006C18 11.8094 17.7496 12.0598 17.4408 12.0598H8.38708C8.07824 12.0598 7.82788 11.8094 7.82788 11.5006Z" fill="#323232"/>
</svg>