<svg xmlns="http://www.w3.org/2000/svg" width="29" height="33" viewBox="0 0 29 33" fill="none">
  <path d="M10.639 0C4.87119 0 0.178711 4.69248 0.178711 10.4603V25.7039C0.178711 27.1201 0.589554 28.4856 1.36677 29.6528C1.51411 29.8741 1.8129 29.9339 2.03418 29.7866C2.25538 29.6393 2.31532 29.3405 2.16798 29.1192C1.49633 28.1106 1.14126 26.9296 1.14126 25.7039V10.4603C1.14132 5.22326 5.40197 0.962612 10.639 0.962612C15.876 0.962612 20.1365 5.22326 20.1365 10.4603C20.1365 15.4334 18.2705 17.9313 16.2949 20.5758C14.9493 22.3771 13.5579 24.2397 12.7994 26.9172C12.2886 28.7207 11.609 29.9827 10.7219 30.7752C9.86727 31.5389 8.81109 31.8945 7.39811 31.8945C6.00816 31.8945 4.69451 31.4587 3.59913 30.6342C3.38665 30.4743 3.08503 30.5168 2.92511 30.7292C2.76525 30.9416 2.8078 31.2434 3.02015 31.4032C4.28374 32.3543 5.7976 32.8571 7.39811 32.8571C10.6619 32.8571 12.6133 31.1061 13.7257 27.1795C14.4356 24.6733 15.7134 22.9628 17.0662 21.1519C19.049 18.4978 21.0992 15.7532 21.0992 10.4602C21.0991 4.69247 16.4067 0 10.639 0Z" fill="#D90506"/>
  <path d="M14.5418 5.71013C13.3115 4.72776 11.7674 4.18677 10.1938 4.18677C6.34564 4.18677 3.21497 7.31744 3.21497 11.1656C3.21497 11.4314 3.43046 11.6469 3.69627 11.6469C3.96208 11.6469 4.17758 11.4314 4.17758 11.1656C4.17758 10.1762 4.41778 9.24195 4.84268 8.41783C5.89417 7.72603 8.22735 7.86536 9.90531 9.11457C12.2192 10.8372 11.7137 13.4058 11.2064 14.7835C11.1146 15.033 11.2424 15.3096 11.4918 15.4014C11.5467 15.4217 11.6028 15.4312 11.658 15.4312C11.854 15.4312 12.0381 15.3107 12.1098 15.1161C12.6581 13.6265 12.7537 12.2517 12.3938 11.0296C12.0822 9.97168 11.4205 9.04244 10.4801 8.34236C9.10288 7.31699 7.25479 6.8722 5.77153 7.0911C6.87161 5.89803 8.44682 5.14932 10.1938 5.14932C11.5696 5.14932 12.8654 5.60335 13.9411 6.46232C14.9857 7.29639 15.7321 8.46577 16.043 9.7549C16.1053 10.0133 16.3653 10.1724 16.6237 10.11C16.8821 10.0477 17.0411 9.78769 16.9788 9.52926C16.618 8.0333 15.7525 6.67698 14.5418 5.71013Z" fill="#D90506"/>
  <path d="M4.81751 22.8836C5.27417 24.2261 6.38072 25.1364 7.77747 25.3184C7.97243 25.3438 8.16188 25.3565 8.34631 25.3565C9.28755 25.3565 10.0957 25.0246 10.8035 24.3502C11.5016 23.6851 11.9917 22.7813 12.424 21.9838C12.6394 21.5865 12.8429 21.2112 13.0527 20.8972C13.055 20.8939 13.0571 20.8906 13.0593 20.8872C13.3869 20.3695 13.7408 19.8571 14.0835 19.3608C15.5741 17.2027 16.982 15.1641 17.155 11.8437C17.1689 11.5783 16.9649 11.3518 16.6994 11.338C16.4345 11.3244 16.2075 11.5281 16.1937 11.7936C16.0349 14.8416 14.7022 16.771 13.2909 18.8145C12.9444 19.3163 12.5861 19.8351 12.2491 20.3673C12.0157 20.717 11.8029 21.1095 11.5777 21.525C10.7518 23.0485 9.89843 24.624 7.90184 24.3638C6.87705 24.2302 6.06473 23.561 5.72878 22.5735C5.38301 21.5571 5.61808 20.4758 6.34215 19.7517C6.84188 19.2521 7.11706 18.5877 7.11706 17.881C7.11706 16.4222 5.93029 15.2355 4.47148 15.2355C4.20567 15.2355 3.99017 15.451 3.99017 15.7168C3.99017 15.9826 4.20567 16.1981 4.47148 16.1981C5.39944 16.1981 6.15445 16.953 6.15445 17.881C6.15445 18.3306 5.97938 18.7532 5.66152 19.0711C4.67613 20.0565 4.35269 21.5173 4.81751 22.8836Z" fill="#D90506"/>
  <path d="M22.1199 18.0928C22.1199 15.95 22.9544 13.9355 24.4696 12.4202C24.6575 12.2323 24.6575 11.9275 24.4696 11.7395C24.2816 11.5516 23.9768 11.5516 23.7889 11.7395C22.0919 13.4366 21.1573 15.6929 21.1573 18.0928C21.1573 20.4928 22.0919 22.7491 23.7889 24.4461C23.8828 24.54 24.006 24.5871 24.1292 24.5871C24.2523 24.5871 24.3756 24.5401 24.4695 24.4461C24.6575 24.2581 24.6575 23.9534 24.4695 23.7654C22.9543 22.2502 22.1199 20.2357 22.1199 18.0928Z" fill="#D90506"/>
  <path d="M27.8715 18.0929C27.8715 17.4875 28.108 16.9176 28.5374 16.4882C28.7254 16.3002 28.7254 15.9955 28.5374 15.8076C28.3495 15.6195 28.0447 15.6196 27.8567 15.8076C27.2455 16.4188 26.9088 17.2304 26.9088 18.0929C26.9088 18.9554 27.2455 19.767 27.8567 20.3783C27.9507 20.4723 28.0739 20.5193 28.197 20.5193C28.3202 20.5193 28.4434 20.4723 28.5374 20.3783C28.7254 20.1903 28.7254 19.8855 28.5374 19.6976C28.108 19.2682 27.8715 18.6982 27.8715 18.0929Z" fill="#D90506"/>
  <path d="M26.5049 13.7749C26.317 13.5869 26.0122 13.5869 25.8242 13.7749C24.6692 14.93 24.033 16.4635 24.033 18.0928C24.033 19.7222 24.6692 21.2556 25.8242 22.4107C25.9182 22.5046 26.0414 22.5517 26.1646 22.5517C26.2878 22.5517 26.4109 22.5046 26.5049 22.4107C26.6928 22.2227 26.6928 21.9179 26.5049 21.73C25.5316 20.7567 24.9956 19.465 24.9956 18.0927C24.9956 16.7204 25.5316 15.4287 26.5049 14.4555C26.6929 14.2676 26.6929 13.9629 26.5049 13.7749Z" fill="#D90506"/>
</svg>