<svg xmlns="http://www.w3.org/2000/svg" width="24" height="24" viewBox="0 0 24 24" fill="none">
  <path d="M17.3518 3.96252C16.7995 3.34182 16.034 3 15.1961 3C14.2609 3 13.4503 3.4422 12.8518 4.27875C12.8069 4.34147 12.7649 4.40419 12.7256 4.46628C12.6863 4.40415 12.6443 4.34147 12.5994 4.27875C12.0009 3.4422 11.1903 3 10.2551 3C9.41722 3 8.65163 3.34182 8.09936 3.96249C7.57529 4.55151 7.28662 5.33895 7.28662 6.17975C7.28662 7.09346 7.6412 7.93658 8.40237 8.8332C9.06653 9.61546 10.0192 10.4195 11.1223 11.3506C11.53 11.6947 11.9515 12.0505 12.3994 12.4387C12.493 12.5198 12.6093 12.5604 12.7256 12.5604C12.8418 12.5604 12.9581 12.5198 13.0517 12.4387C13.4996 12.0506 13.921 11.6948 14.3287 11.3508C15.0371 10.7528 15.649 10.2364 16.1799 9.73549C17.2107 8.76291 18.1646 7.65901 18.1646 6.17978C18.1646 5.33895 17.8759 4.55154 17.3518 3.96252ZM15.4965 9.0111C14.9856 9.49311 14.3835 10.0013 13.6864 10.5897C13.3762 10.8514 13.0581 11.1199 12.7256 11.4051C12.393 11.12 12.0748 10.8514 11.7647 10.5896C9.59323 8.75683 8.28251 7.65057 8.28251 6.17978C8.28244 4.93477 9.13045 3.99592 10.255 3.99592C10.8558 3.99592 11.3668 4.27875 11.7737 4.83652C12.1077 5.29426 12.2448 5.7688 12.2457 5.77198C12.3054 5.9877 12.5017 6.13705 12.7256 6.13705C12.9494 6.13705 13.1457 5.9877 13.2054 5.77198C13.2104 5.75422 13.7145 3.99592 15.1961 3.99592C16.3207 3.99592 17.1687 4.9348 17.1687 6.17978C17.1687 7.08187 16.6999 7.87569 15.4965 9.0111Z" fill="#808284"/>
  <path d="M19.5024 13.0292C19.0893 13.0292 18.6908 13.2026 18.4092 13.5049L16.9457 15.076C16.7565 14.4679 16.1885 14.0251 15.5189 14.0251H13.2186C12.8966 14.0251 12.586 13.9079 12.3442 13.6951C11.0439 12.5508 9.08939 12.5408 7.77671 13.6635C7.506 13.2802 7.05995 13.0292 6.55606 13.0292H4.49794C4.22296 13.0292 4 13.2521 4 13.5272V19.5024C4 19.7774 4.22292 20.0003 4.49794 20.0003H6.55606C7.00324 20.0003 7.40487 19.8025 7.67886 19.4901L7.97373 19.573C8.98237 19.8565 10.025 20.0003 11.0727 20.0003H15.5189C16.6101 20.0003 17.6525 19.4791 18.3073 18.6061L20.6979 15.4187C20.6979 15.4186 20.6979 15.4185 20.698 15.4185C20.8931 15.1584 20.9962 14.8487 20.9962 14.5229C20.9962 13.6993 20.326 13.0292 19.5024 13.0292ZM7.05401 18.5064C7.05401 18.781 6.83065 19.0044 6.55606 19.0044H4.99586V14.025H6.55606C6.83062 14.025 7.05401 14.2484 7.05401 14.523V18.5064ZM19.9012 14.821C19.9012 14.8211 19.9012 14.8211 19.9012 14.8211L17.5106 18.0086C17.0429 18.6321 16.2983 19.0044 15.5189 19.0044H11.0728C10.1162 19.0044 9.16422 18.8732 8.24331 18.6143L8.04857 18.5596C8.0492 18.5419 8.04993 18.5243 8.04993 18.5065V14.7481L8.39694 14.4427C9.33459 13.6176 10.7487 13.6175 11.6865 14.4427C12.1102 14.8155 12.6543 15.0209 13.2187 15.0209H15.519C15.7935 15.0209 16.0169 15.2442 16.0169 15.5188C16.0169 15.7934 15.7936 16.0168 15.519 16.0168H11.98C11.705 16.0168 11.4821 16.2397 11.4821 16.5147C11.4821 16.7897 11.705 17.0126 11.98 17.0126H15.8526C16.2657 17.0126 16.6641 16.8393 16.9457 16.537L19.1379 14.1837C19.2332 14.0814 19.3626 14.025 19.5024 14.025C19.7769 14.025 20.0003 14.2484 20.0003 14.523C20.0003 14.6316 19.966 14.7346 19.9012 14.821Z" fill="#808284"/>
</svg>