<svg width="20" height="20" viewBox="0 0 20 20" fill="none" xmlns="http://www.w3.org/2000/svg">
<path d="M3.33335 3.33337H16.6667C17.5834 3.33337 18.3334 4.08337 18.3334 5.00004V15C18.3334 15.9167 17.5834 16.6667 16.6667 16.6667H3.33335C2.41669 16.6667 1.66669 15.9167 1.66669 15V5.00004C1.66669 4.08337 2.41669 3.33337 3.33335 3.33337Z" fill="#323232" fill-opacity="0.07"/>
<path fill-rule="evenodd" clip-rule="evenodd" d="M3.33335 4.08337C2.8309 4.08337 2.41669 4.49759 2.41669 5.00004V15C2.41669 15.5025 2.8309 15.9167 3.33335 15.9167H16.6667C17.1691 15.9167 17.5834 15.5025 17.5834 15V5.00004C17.5834 4.49759 17.1691 4.08337 16.6667 4.08337H3.33335ZM0.916687 5.00004C0.916687 3.66916 2.00247 2.58337 3.33335 2.58337H16.6667C17.9976 2.58337 19.0834 3.66916 19.0834 5.00004V15C19.0834 16.3309 17.9976 17.4167 16.6667 17.4167H3.33335C2.00247 17.4167 0.916687 16.3309 0.916687 15V5.00004Z" fill="#323232"/>
<path fill-rule="evenodd" clip-rule="evenodd" d="M1.05227 4.56985C1.2898 4.23051 1.75745 4.14798 2.09679 4.38552L10 9.91778L17.9033 4.38552C18.2426 4.14798 18.7102 4.23051 18.9478 4.56985C19.1853 4.90918 19.1028 5.37683 18.7635 5.61437L10.4301 11.4477C10.1719 11.6285 9.82817 11.6285 9.56993 11.4477L1.23659 5.61437C0.897257 5.37683 0.814731 4.90918 1.05227 4.56985Z" fill="#323232"/>
</svg>
