<svg xmlns="http://www.w3.org/2000/svg" width="24" height="24" viewBox="0 0 24 24" fill="none">
  <path d="M14.2535 4.36004V4.00598C14.2535 2.89987 13.3536 2 12.2475 2H11.125C10.0189 2 9.11906 2.89987 9.11906 4.00598V4.36004C7.38252 4.45898 5.99994 5.90261 5.99994 7.66348V17.9953C5.99994 18.9696 6.79263 19.7623 7.76701 19.7623H8.19748V20.4111C8.19748 20.7363 8.46111 21 8.78633 21C9.11156 21 9.37519 20.7363 9.37519 20.4111V19.7623H13.9973V20.4111C13.9973 20.7363 14.261 21 14.5862 21C14.9114 21 15.175 20.7363 15.175 20.4111V19.7623H15.6055C16.5799 19.7623 17.3726 18.9696 17.3726 17.9953V7.66348C17.3725 5.90261 15.99 4.45902 14.2535 4.36004ZM10.2967 4.00598C10.2967 3.54924 10.6683 3.17767 11.125 3.17767H12.2474C12.7042 3.17767 13.0758 3.54924 13.0758 4.00598V4.25621H10.2967V4.00598ZM7.1776 7.66348C7.1776 6.48812 8.13384 5.53188 9.30917 5.53188H14.0632C15.2386 5.53188 16.1948 6.48812 16.1948 7.66348V16.6222H7.1776V7.66348ZM16.1948 17.9953C16.1948 18.3202 15.9304 18.5846 15.6055 18.5846H7.76698C7.44197 18.5846 7.17757 18.3202 7.17757 17.9953V17.7999H16.1948V17.9953Z" fill="#808284"/>
</svg>