<svg width="64" height="64" viewBox="0 0 64 64" fill="none" xmlns="http://www.w3.org/2000/svg">
<path d="M32.9947 41.6947C31.1515 41.8227 29.4107 40.0435 27.5175 39.5302C26.3118 39.2038 24.7911 39.4496 23.4062 39.2678C23.3639 44.8998 23.3281 50.4601 23.2436 54.4742C23.2397 54.6694 23.29 54.8619 23.3889 55.0303C23.4877 55.1986 23.6314 55.3363 23.8038 55.4279C23.9762 55.5195 24.1706 55.5616 24.3655 55.5494C24.5603 55.5372 24.748 55.4712 24.9076 55.3587C28.4916 52.8141 31.9553 50.4947 33.4836 51.4189C35.6238 52.7641 38.0647 55.0541 40.5799 57.3286C40.7313 57.4653 40.9193 57.5546 41.1208 57.5855C41.3224 57.6165 41.5285 57.5877 41.7139 57.5027C41.8992 57.4177 42.0556 57.2803 42.1637 57.1074C42.2718 56.9345 42.3268 56.7337 42.322 56.5299L41.8638 38.144C40.6286 38.3744 39.2513 38.3821 38.1518 38.8301C36.4084 39.5366 34.9134 41.5616 32.9972 41.6934" fill="#FFA742"/>
<path d="M49.0419 21.8176C48.8128 20.0256 49.7805 17.7216 48.8205 15.9462C47.9872 14.4025 45.5577 13.8547 44.0973 12.3955C42.4153 10.7136 41.6013 8.14587 39.8182 7.27547C37.751 6.25915 35.2499 7.30235 33.184 7.21019C30.9901 7.11291 28.5913 5.90075 26.5702 6.64699C24.5491 7.39323 23.4662 9.90459 21.7933 11.2896C20.1203 12.6745 17.4528 13.2518 16.3033 15.0668C15.1309 16.919 15.7683 19.5532 15.3203 21.6409C14.8659 23.758 13.2301 25.9507 13.7113 28.0883C14.1632 30.0928 16.512 31.3689 17.9494 33.1993C19.1641 34.7443 19.6685 37.39 21.6883 38.6905C22.2109 39.0081 22.7977 39.2053 23.4061 39.2678C23.447 33.8124 23.4931 28.2867 23.5917 24.0358C23.6034 23.5245 23.8158 23.0383 24.1829 22.6822C24.55 22.3261 25.0425 22.1286 25.5539 22.1324C29.0393 22.1568 36.2598 22.2092 40.4019 22.2438C40.6891 22.2464 40.9639 22.3605 41.1684 22.5622C41.3729 22.7638 41.491 23.037 41.4976 23.3241L41.8637 38.144C42.6086 38.0044 43.3011 37.7843 43.8515 37.3376C45.3363 36.1331 45.4323 33.6256 46.4768 32.0614C47.5379 30.4729 49.8137 29.39 50.2848 27.5596C50.7558 25.7292 49.2889 23.7401 49.0419 21.8163" fill="#79CE4B"/>
<path d="M40.4009 22.2374C36.2601 22.2029 29.0396 22.1504 25.5529 22.1261C25.0414 22.1222 24.549 22.3197 24.1819 22.6758C23.8147 23.0319 23.6024 23.5181 23.5906 24.0294C23.4921 28.2867 23.446 33.8125 23.405 39.2614C24.79 39.4432 26.3106 39.1974 27.5151 39.5238C29.4108 40.0358 31.149 41.8137 32.9935 41.6883C34.9135 41.5603 36.406 39.5315 38.1481 38.8237C39.2501 38.3769 40.6274 38.3705 41.8601 38.1389L41.4927 23.3113C41.4861 23.0243 41.368 22.751 41.1635 22.5494C40.9591 22.3478 40.6842 22.2336 40.397 22.231" fill="#318230"/>
</svg>
