<svg width="162" height="162" viewBox="0 0 162 162" fill="none" xmlns="http://www.w3.org/2000/svg">
<path d="M113.657 18.1929H90.5022V21.9992C90.5022 24.1632 88.7316 25.9338 86.5677 25.9338H39.5161C37.3522 25.9338 35.5816 24.1632 35.5816 21.9992V18.1929H12.4266C7.54507 18.1929 3.57385 22.1644 3.57385 27.0456V153.147C3.57385 158.029 7.54539 162 12.4266 162H113.657C118.538 162 122.51 158.029 122.51 153.147V27.0456C122.51 22.1644 118.539 18.1929 113.657 18.1929Z" fill="#707487"/>
<path d="M10.0934 153.148V27.0456C10.0934 22.1641 14.065 18.1929 18.9462 18.1929H12.4266C7.54507 18.1929 3.57385 22.1644 3.57385 27.0456V153.147C3.57385 158.029 7.54539 162 12.4266 162H18.9462C14.0646 162 10.0934 158.029 10.0934 153.148Z" fill="#5B5D6E"/>
<path d="M112.673 123.61V37.0306C112.673 36.0077 111.795 35.1787 110.712 35.1787H15.3714C14.2883 35.1787 13.4103 36.008 13.4103 37.0306V150.312C13.4103 151.335 14.2883 152.164 15.3714 152.164H84.1196L112.673 123.61Z" fill="#E4EAF8"/>
<path d="M19.9298 150.312V37.0306C19.9298 36.008 20.8079 35.1787 21.8909 35.1787H15.3717C14.2886 35.1787 13.4106 36.008 13.4106 37.0306V150.312C13.4106 151.335 14.2886 152.164 15.3717 152.164H21.8912C20.8079 152.164 19.9298 151.335 19.9298 150.312Z" fill="#D8DCE5"/>
<path d="M80.2781 46.8686H45.8056C42.8314 46.8686 40.4115 44.4487 40.4115 41.4742V24.6299C40.4115 23.2798 41.506 22.1851 42.8564 22.1851C44.2065 22.1851 45.3012 23.2795 45.3012 24.6299V41.4739C45.3012 41.752 45.5275 41.9785 45.8059 41.9785H80.2784C80.5566 41.9785 80.7831 41.752 80.7831 41.4739V24.6299C80.7831 23.2798 81.8776 22.1851 83.228 22.1851C84.5784 22.1851 85.6729 23.2795 85.6729 24.6299V41.4739C85.6726 44.4487 83.2524 46.8686 80.2781 46.8686Z" fill="#00C3FF"/>
<path d="M70.8318 10.3544V3.93452C70.8318 1.77061 69.0609 0 66.897 0H59.1868C57.0229 0 55.2523 1.77061 55.2523 3.93452V10.3541L70.8318 10.3544Z" fill="#D8DCE5"/>
<path d="M65.8266 0H59.1865C57.0226 0 55.252 1.77061 55.252 3.93452V10.3541H61.8918V3.93452C61.8921 1.77061 63.6627 0 65.8266 0Z" fill="#C3C8D1"/>
<path d="M86.5904 10.1909H39.4933C37.2465 10.1909 35.4186 12.0188 35.4186 14.2656V22.0217C35.4186 24.2685 37.2465 26.0964 39.4933 26.0964H86.5901C88.8369 26.0964 90.6648 24.2685 90.6648 22.0217V14.2656C90.6651 12.0188 88.8372 10.1909 86.5904 10.1909Z" fill="#E4EAF8"/>
<path d="M86.5904 19.5776H39.4933C37.2465 19.5776 35.4186 17.7497 35.4186 15.5029V22.0222C35.4186 24.269 37.2465 26.0969 39.4933 26.0969H86.5901C88.8369 26.0969 90.6648 24.269 90.6648 22.0222V15.5029C90.6651 17.7497 88.8372 19.5776 86.5904 19.5776Z" fill="#D8DCE5"/>
<path d="M112.673 123.611H86.0813C84.9983 123.611 84.1202 124.44 84.1202 125.463V152.164L112.673 123.611Z" fill="#D8DCE5"/>
<path d="M90.6395 125.462C90.6395 124.439 91.5175 123.61 92.6006 123.61H86.081C84.998 123.61 84.1199 124.44 84.1199 125.462V152.164L90.6395 145.644V125.462Z" fill="#C3C8D1"/>
<path d="M143.418 25.9336C137.825 25.939 132.953 29.01 130.383 33.5549L130.383 33.5539C130.383 33.5539 129.547 34.5892 128.436 34.5899C127.326 34.5914 126.489 33.559 126.489 33.559H126.486C123.907 29.0205 119.031 25.958 113.437 25.9637C105.158 25.9719 98.4516 32.6911 98.4605 40.9702C98.4832 62.6014 122.3 75.2051 127.491 77.6949C127.494 77.6962 128.407 78.0449 129.468 77.6949C134.645 75.1988 158.448 62.5454 158.426 40.9095C158.417 32.6297 151.699 25.9254 143.418 25.9336Z" fill="#FF6161"/>
<path d="M104.979 40.9702C104.972 33.8074 109.992 27.8163 116.707 26.3241C115.653 26.0906 114.56 25.9624 113.436 25.9634C105.157 25.9716 98.4509 32.6908 98.4598 40.9699C98.4826 62.6011 122.3 75.2048 127.49 77.695C127.494 77.6962 128.406 78.0449 129.467 77.6946C130.024 77.426 130.798 77.0394 131.733 76.5372C123.959 72.3815 105 60.2692 104.979 40.9702Z" fill="#DD4343"/>
<path d="M56.4457 112.521C56.4062 112.521 56.3666 112.52 56.3271 112.518C55.2595 112.466 54.3492 111.727 54.0793 110.693L45.9002 79.3389L42.3599 90.9713C42.0467 92.0009 41.0971 92.7043 40.021 92.7043H28.3149C26.9648 92.7043 25.8701 91.6098 25.8701 90.2594C25.8701 88.909 26.9645 87.8145 28.3149 87.8145H38.2096L43.7423 69.6354C44.0612 68.5884 45.0383 67.8727 46.1305 67.903C47.2247 67.9249 48.1707 68.6713 48.4469 69.73L56.8396 101.903L61.4386 89.369C61.7917 88.4065 62.7084 87.7664 63.7338 87.7664H71.9338C72.9568 87.7664 73.8715 88.403 74.2265 89.3624L75.1533 91.8655L79.7206 74.0502C79.9905 72.9978 80.9223 72.2495 82.0079 72.2138C83.0995 72.1761 84.0731 72.8627 84.412 73.8948L88.9654 87.7667H97.8957C99.2458 87.7667 100.341 88.8612 100.341 90.2116C100.341 91.562 99.2461 92.6565 97.8957 92.6565H87.1948C86.1383 92.6565 85.2014 91.9778 84.8717 90.9742L82.3775 83.376L77.9465 100.661C77.6807 101.697 76.773 102.44 75.7051 102.495C74.6334 102.549 73.657 101.906 73.2858 100.903L70.2322 92.6562H65.4412L58.7406 110.918C58.3856 111.884 57.4664 112.521 56.4457 112.521Z" fill="#FF6161"/>
</svg>
