<svg width="68" height="64" viewBox="0 0 68 64" fill="none" xmlns="http://www.w3.org/2000/svg">
<rect width="67.5413" height="64" fill="white"/>
<mask id="path-1-inside-1_2678_8837" fill="white">
<path d="M0 0H67.5413V64H0V0Z"/>
</mask>
<path d="M0 0H67.5413V64H0V0Z" fill="#F9F9F9"/>
<path d="M66.5413 0V64H68.5413V0H66.5413Z" fill="#EDEDED" mask="url(#path-1-inside-1_2678_8837)"/>
<path d="M10.5202 44.93C10.4074 44.93 10.3058 44.9496 10.2153 44.9887C10.1258 45.0269 10.0494 45.0829 9.986 45.1565C9.92353 45.2292 9.87552 45.3173 9.84196 45.4208C9.8084 45.5243 9.79161 45.6409 9.79161 45.7704C9.79161 45.942 9.81818 46.0912 9.87133 46.2179C9.9254 46.3438 10.0056 46.4412 10.1119 46.5102C10.2191 46.5792 10.3529 46.6137 10.5132 46.6137C10.6046 46.6137 10.6904 46.6063 10.7705 46.5913C10.8516 46.5755 10.9304 46.5559 11.0069 46.5326V46.7396C10.9323 46.7675 10.854 46.7881 10.7719 46.8011C10.6899 46.8151 10.5925 46.8221 10.4797 46.8221C10.2718 46.8221 10.0979 46.7792 9.95803 46.6934C9.81912 46.6067 9.7147 46.4846 9.64478 46.327C9.57579 46.1695 9.54129 45.9835 9.54129 45.769C9.54129 45.6143 9.56273 45.473 9.60562 45.3453C9.64944 45.2167 9.71283 45.1057 9.79581 45.0125C9.87972 44.9193 9.98227 44.8475 10.1035 44.7971C10.2256 44.7458 10.3654 44.7202 10.523 44.7202C10.6265 44.7202 10.7262 44.7305 10.8223 44.751C10.9183 44.7715 11.005 44.8008 11.0824 44.8391L10.9873 45.0405C10.922 45.0106 10.8502 44.985 10.7719 44.9635C10.6945 44.9412 10.6106 44.93 10.5202 44.93Z" fill="#00040A"/>
<path d="M11.9514 46.7941V44.7496H12.1891V46.5815H13.0967V46.7941H11.9514Z" fill="#00040A"/>
<path d="M13.9489 46.7941V44.7496H14.1867V46.7941H13.9489Z" fill="#00040A"/>
<path d="M16.8485 46.7941H16.5744L15.4598 45.0768H15.4486C15.4514 45.1225 15.4547 45.1747 15.4584 45.2334C15.4622 45.2912 15.465 45.3532 15.4668 45.4194C15.4696 45.4847 15.471 45.5514 15.471 45.6194V46.7941H15.2501V44.7496H15.5228L16.6331 46.4613H16.6429C16.6411 46.4287 16.6387 46.3825 16.6359 46.3228C16.6331 46.2622 16.6303 46.1974 16.6275 46.1284C16.6257 46.0585 16.6247 45.9937 16.6247 45.9341V44.7496H16.8485V46.7941Z" fill="#00040A"/>
<path d="M17.9077 46.7941V44.7496H18.1454V46.7941H17.9077Z" fill="#00040A"/>
<path d="M20.0828 44.93C19.97 44.93 19.8684 44.9496 19.778 44.9887C19.6885 45.0269 19.612 45.0829 19.5486 45.1565C19.4862 45.2292 19.4382 45.3173 19.4046 45.4208C19.371 45.5243 19.3543 45.6409 19.3543 45.7704C19.3543 45.942 19.3808 46.0912 19.434 46.2179C19.488 46.3438 19.5682 46.4412 19.6745 46.5102C19.7817 46.5792 19.9155 46.6137 20.0759 46.6137C20.1672 46.6137 20.253 46.6063 20.3332 46.5913C20.4143 46.5755 20.4931 46.5559 20.5695 46.5326V46.7396C20.4949 46.7675 20.4166 46.7881 20.3346 46.8011C20.2525 46.8151 20.1551 46.8221 20.0423 46.8221C19.8344 46.8221 19.6605 46.7792 19.5207 46.6934C19.3818 46.6067 19.2773 46.4846 19.2074 46.327C19.1384 46.1695 19.1039 45.9835 19.1039 45.769C19.1039 45.6143 19.1254 45.473 19.1683 45.3453C19.2121 45.2167 19.2755 45.1057 19.3584 45.0125C19.4424 44.9193 19.5449 44.8475 19.6661 44.7971C19.7882 44.7458 19.9281 44.7202 20.0856 44.7202C20.1891 44.7202 20.2889 44.7305 20.3849 44.751C20.4809 44.7715 20.5676 44.8008 20.645 44.8391L20.5499 45.0405C20.4847 45.0106 20.4129 44.985 20.3346 44.9635C20.2572 44.9412 20.1733 44.93 20.0828 44.93Z" fill="#00040A"/>
<path d="M22.6678 46.2501C22.6678 46.3713 22.6375 46.4748 22.5769 46.5606C22.5172 46.6454 22.4333 46.7102 22.3251 46.755C22.217 46.7997 22.0897 46.8221 21.9434 46.8221C21.866 46.8221 21.7928 46.8184 21.7238 46.8109C21.6548 46.8034 21.5914 46.7927 21.5336 46.7787C21.4758 46.7647 21.425 46.7475 21.3812 46.727V46.499C21.4511 46.5279 21.5364 46.555 21.6371 46.5801C21.7378 46.6044 21.8431 46.6165 21.9531 46.6165C22.0557 46.6165 22.1424 46.603 22.2133 46.576C22.2841 46.548 22.3377 46.5084 22.3741 46.4571C22.4114 46.4049 22.43 46.3424 22.43 46.2697C22.43 46.1998 22.4146 46.1415 22.3839 46.0949C22.3531 46.0473 22.3018 46.0045 22.23 45.9662C22.1592 45.9271 22.0622 45.8856 21.9392 45.8418C21.8525 45.811 21.776 45.7774 21.7098 45.7411C21.6436 45.7038 21.5881 45.6618 21.5434 45.6152C21.4986 45.5686 21.4646 45.5145 21.4413 45.453C21.4189 45.3915 21.4077 45.3211 21.4077 45.2418C21.4077 45.1327 21.4352 45.0395 21.4903 44.9621C21.5462 44.8838 21.6231 44.8242 21.721 44.7831C21.8198 44.7412 21.9331 44.7202 22.0608 44.7202C22.1699 44.7202 22.2706 44.7305 22.3629 44.751C22.4561 44.7715 22.5414 44.799 22.6188 44.8335L22.5447 45.0377C22.471 45.0069 22.3927 44.9812 22.3097 44.9607C22.2277 44.9402 22.1429 44.93 22.0552 44.93C21.9676 44.93 21.8935 44.943 21.8329 44.9691C21.7732 44.9943 21.7275 45.0302 21.6958 45.0768C21.6641 45.1234 21.6483 45.1789 21.6483 45.2432C21.6483 45.315 21.6632 45.3747 21.693 45.4222C21.7238 45.4698 21.7723 45.5122 21.8385 45.5495C21.9056 45.5858 21.9942 45.6241 22.1042 45.6642C22.2244 45.708 22.3265 45.7546 22.4104 45.804C22.4943 45.8525 22.5582 45.9122 22.602 45.983C22.6458 46.0529 22.6678 46.142 22.6678 46.2501Z" fill="#00040A"/>
<path d="M23.8178 46.4613L23.836 46.4934C23.8192 46.5615 23.7978 46.6342 23.7717 46.7116C23.7465 46.789 23.7186 46.8664 23.6878 46.9437C23.658 47.0221 23.6277 47.0952 23.5969 47.1633H23.4235C23.4431 47.0887 23.4622 47.0099 23.4808 46.927C23.4995 46.8449 23.5162 46.7638 23.5312 46.6836C23.547 46.6025 23.5596 46.5284 23.5689 46.4613H23.8178Z" fill="#00040A"/>
<path d="M27.3571 46.7941L27.1053 46.1452H26.2858L26.0355 46.7941H25.795L26.5949 44.7412H26.8089L27.6032 46.7941H27.3571ZM27.034 45.9341L26.7949 45.2894C26.7893 45.2726 26.78 45.2451 26.7669 45.2069C26.7548 45.1686 26.7422 45.129 26.7291 45.088C26.7161 45.047 26.7054 45.0139 26.697 44.9887C26.6877 45.0269 26.6774 45.0652 26.6662 45.1034C26.656 45.1407 26.6457 45.1756 26.6355 45.2083C26.6252 45.24 26.6163 45.267 26.6089 45.2894L26.3655 45.9341H27.034Z" fill="#00040A"/>
<path d="M29.5266 46.7941H28.3883V44.7496H29.5266V44.9593H28.626V45.6208H29.4749V45.8278H28.626V46.5843H29.5266V46.7941Z" fill="#00040A"/>
<path d="M31.6346 46.2501C31.6346 46.3713 31.6043 46.4748 31.5437 46.5606C31.4841 46.6454 31.4002 46.7102 31.292 46.755C31.1839 46.7997 31.0566 46.8221 30.9102 46.8221C30.8329 46.8221 30.7597 46.8184 30.6907 46.8109C30.6217 46.8034 30.5583 46.7927 30.5005 46.7787C30.4427 46.7647 30.3919 46.7475 30.3481 46.727V46.499C30.418 46.5279 30.5033 46.555 30.604 46.5801C30.7047 46.6044 30.81 46.6165 30.92 46.6165C31.0226 46.6165 31.1093 46.603 31.1802 46.576C31.251 46.548 31.3046 46.5084 31.341 46.4571C31.3783 46.4049 31.3969 46.3424 31.3969 46.2697C31.3969 46.1998 31.3815 46.1415 31.3508 46.0949C31.32 46.0473 31.2687 46.0045 31.1969 45.9662C31.1261 45.9271 31.0291 45.8856 30.9061 45.8418C30.8193 45.811 30.7429 45.7774 30.6767 45.7411C30.6105 45.7038 30.555 45.6618 30.5103 45.6152C30.4655 45.5686 30.4315 45.5145 30.4082 45.453C30.3858 45.3915 30.3746 45.3211 30.3746 45.2418C30.3746 45.1327 30.4021 45.0395 30.4571 44.9621C30.5131 44.8838 30.59 44.8242 30.6879 44.7831C30.7867 44.7412 30.9 44.7202 31.0277 44.7202C31.1368 44.7202 31.2375 44.7305 31.3298 44.751C31.423 44.7715 31.5083 44.799 31.5857 44.8335L31.5116 45.0377C31.4379 45.0069 31.3596 44.9812 31.2766 44.9607C31.1946 44.9402 31.1098 44.93 31.0221 44.93C30.9345 44.93 30.8604 44.943 30.7998 44.9691C30.7401 44.9943 30.6944 45.0302 30.6627 45.0768C30.631 45.1234 30.6152 45.1789 30.6152 45.2432C30.6152 45.315 30.6301 45.3747 30.6599 45.4222C30.6907 45.4698 30.7392 45.5122 30.8054 45.5495C30.8725 45.5858 30.9611 45.6241 31.0711 45.6642C31.1913 45.708 31.2934 45.7546 31.3773 45.804C31.4612 45.8525 31.5251 45.9122 31.5689 45.983C31.6127 46.0529 31.6346 46.142 31.6346 46.2501Z" fill="#00040A"/>
<path d="M33.1819 46.7941H32.9428V44.9593H32.2995V44.7496H33.8224V44.9593H33.1819V46.7941Z" fill="#00040A"/>
<path d="M36.1821 46.7941H35.9444V45.8306H34.8704V46.7941H34.6327V44.7496H34.8704V45.6208H35.9444V44.7496H36.1821V46.7941Z" fill="#00040A"/>
<path d="M38.3839 46.7941H37.2455V44.7496H38.3839V44.9593H37.4833V45.6208H38.3321V45.8278H37.4833V46.5843H38.3839V46.7941Z" fill="#00040A"/>
<path d="M39.9661 46.7941H39.7269V44.9593H39.0837V44.7496H40.6066V44.9593H39.9661V46.7941Z" fill="#00040A"/>
<path d="M41.4168 46.7941V44.7496H41.6546V46.7941H41.4168Z" fill="#00040A"/>
<path d="M43.592 44.93C43.4792 44.93 43.3776 44.9496 43.2871 44.9887C43.1976 45.0269 43.1212 45.0829 43.0578 45.1565C42.9953 45.2292 42.9473 45.3173 42.9137 45.4208C42.8802 45.5243 42.8634 45.6409 42.8634 45.7704C42.8634 45.942 42.89 46.0912 42.9431 46.2179C42.9972 46.3438 43.0774 46.4412 43.1837 46.5102C43.2909 46.5792 43.4247 46.6137 43.585 46.6137C43.6764 46.6137 43.7621 46.6063 43.8423 46.5913C43.9234 46.5755 44.0022 46.5559 44.0787 46.5326V46.7396C44.0041 46.7675 43.9258 46.7881 43.8437 46.8011C43.7617 46.8151 43.6643 46.8221 43.5514 46.8221C43.3435 46.8221 43.1697 46.7792 43.0298 46.6934C42.8909 46.6067 42.7865 46.4846 42.7166 46.327C42.6476 46.1695 42.6131 45.9835 42.6131 45.769C42.6131 45.6143 42.6345 45.473 42.6774 45.3453C42.7212 45.2167 42.7846 45.1057 42.8676 45.0125C42.9515 44.9193 43.0541 44.8475 43.1753 44.7971C43.2974 44.7458 43.4372 44.7202 43.5948 44.7202C43.6983 44.7202 43.798 44.7305 43.8941 44.751C43.9901 44.7715 44.0768 44.8008 44.1542 44.8391L44.0591 45.0405C43.9938 45.0106 43.922 44.985 43.8437 44.9635C43.7663 44.9412 43.6824 44.93 43.592 44.93Z" fill="#00040A"/>
<path d="M46.1769 46.2501C46.1769 46.3713 46.1466 46.4748 46.086 46.5606C46.0263 46.6454 45.9424 46.7102 45.8343 46.755C45.7261 46.7997 45.5989 46.8221 45.4525 46.8221C45.3751 46.8221 45.3019 46.8184 45.2329 46.8109C45.164 46.8034 45.1006 46.7927 45.0428 46.7787C44.985 46.7647 44.9341 46.7475 44.8903 46.727V46.499C44.9603 46.5279 45.0456 46.555 45.1462 46.5801C45.2469 46.6044 45.3523 46.6165 45.4623 46.6165C45.5648 46.6165 45.6516 46.603 45.7224 46.576C45.7933 46.548 45.8469 46.5084 45.8832 46.4571C45.9205 46.4049 45.9392 46.3424 45.9392 46.2697C45.9392 46.1998 45.9238 46.1415 45.893 46.0949C45.8623 46.0473 45.811 46.0045 45.7392 45.9662C45.6683 45.9271 45.5714 45.8856 45.4483 45.8418C45.3616 45.811 45.2852 45.7774 45.219 45.7411C45.1528 45.7038 45.0973 45.6618 45.0525 45.6152C45.0078 45.5686 44.9738 45.5145 44.9505 45.453C44.9281 45.3915 44.9169 45.3211 44.9169 45.2418C44.9169 45.1327 44.9444 45.0395 44.9994 44.9621C45.0553 44.8838 45.1323 44.8242 45.2302 44.7831C45.329 44.7412 45.4423 44.7202 45.57 44.7202C45.6791 44.7202 45.7797 44.7305 45.872 44.751C45.9653 44.7715 46.0506 44.799 46.128 44.8335L46.0538 45.0377C45.9802 45.0069 45.9019 44.9812 45.8189 44.9607C45.7369 44.9402 45.652 44.93 45.5644 44.93C45.4767 44.93 45.4026 44.943 45.342 44.9691C45.2824 44.9943 45.2367 45.0302 45.205 45.0768C45.1733 45.1234 45.1574 45.1789 45.1574 45.2432C45.1574 45.315 45.1723 45.3747 45.2022 45.4222C45.2329 45.4698 45.2814 45.5122 45.3476 45.5495C45.4147 45.5858 45.5033 45.6241 45.6133 45.6642C45.7336 45.708 45.8357 45.7546 45.9196 45.804C46.0035 45.8525 46.0674 45.9122 46.1112 45.983C46.155 46.0529 46.1769 46.142 46.1769 46.2501Z" fill="#00040A"/>
<path d="M48.933 44.7174C49.0337 44.7174 49.1204 44.7351 49.1931 44.7705C49.2667 44.805 49.3232 44.8549 49.3623 44.9202C49.4024 44.9854 49.4224 45.0642 49.4224 45.1565C49.4224 45.2777 49.3828 45.3803 49.3036 45.4642C49.2253 45.5481 49.1255 45.6245 49.0043 45.6935L49.5721 46.2445C49.6234 46.1849 49.6653 46.1159 49.6979 46.0375C49.7306 45.9583 49.7581 45.8725 49.7804 45.7802H50.0154C49.9855 45.9033 49.9469 46.0166 49.8993 46.1201C49.8527 46.2235 49.794 46.3144 49.7231 46.3928L50.1329 46.7941H49.8182L49.5651 46.5466C49.5054 46.6016 49.4411 46.6501 49.3721 46.692C49.304 46.733 49.2281 46.7652 49.1441 46.7885C49.0612 46.8109 48.9661 46.8221 48.8589 46.8221C48.7283 46.8221 48.6151 46.8006 48.519 46.7578C48.423 46.7149 48.3484 46.6519 48.2953 46.569C48.2431 46.486 48.217 46.3844 48.217 46.2641C48.217 46.1653 48.2352 46.0804 48.2715 46.0096C48.3079 45.9387 48.3596 45.8758 48.4267 45.8208C48.4939 45.7658 48.574 45.7122 48.6673 45.66C48.6235 45.6115 48.582 45.5625 48.5428 45.5131C48.5037 45.4628 48.472 45.4092 48.4477 45.3523C48.4235 45.2945 48.4114 45.2311 48.4114 45.1621C48.4114 45.0689 48.4323 44.9892 48.4743 44.923C48.5172 44.8568 48.5773 44.806 48.6547 44.7705C48.733 44.7351 48.8258 44.7174 48.933 44.7174ZM48.8071 45.8068C48.7344 45.8488 48.6719 45.8902 48.6197 45.9313C48.5684 45.9723 48.5288 46.0184 48.5009 46.0697C48.4738 46.121 48.4603 46.183 48.4603 46.2557C48.4603 46.3648 48.4971 46.4524 48.5708 46.5186C48.6444 46.5839 48.7428 46.6165 48.8659 46.6165C48.9926 46.6165 49.1003 46.5955 49.1889 46.5536C49.2784 46.5116 49.3544 46.4608 49.4168 46.4011L48.8071 45.8068ZM48.9246 44.909C48.8397 44.909 48.7708 44.9314 48.7176 44.9761C48.6654 45.0199 48.6393 45.0815 48.6393 45.1607C48.6393 45.2316 48.6584 45.2968 48.6966 45.3565C48.7349 45.4162 48.7894 45.4824 48.8603 45.5551C48.9768 45.4908 49.0612 45.4288 49.1134 45.3691C49.1665 45.3085 49.1931 45.2376 49.1931 45.1565C49.1931 45.0829 49.1684 45.0232 49.119 44.9775C49.0705 44.9318 49.0057 44.909 48.9246 44.909Z" fill="#00040A"/>
<path d="M53.328 46.2501C53.328 46.3713 53.2977 46.4748 53.2371 46.5606C53.1775 46.6454 53.0936 46.7102 52.9854 46.755C52.8773 46.7997 52.75 46.8221 52.6036 46.8221C52.5263 46.8221 52.4531 46.8184 52.3841 46.8109C52.3151 46.8034 52.2517 46.7927 52.1939 46.7787C52.1361 46.7647 52.0853 46.7475 52.0415 46.727V46.499C52.1114 46.5279 52.1967 46.555 52.2974 46.5801C52.3981 46.6044 52.5034 46.6165 52.6134 46.6165C52.716 46.6165 52.8027 46.603 52.8735 46.576C52.9444 46.548 52.998 46.5084 53.0344 46.4571C53.0717 46.4049 53.0903 46.3424 53.0903 46.2697C53.0903 46.1998 53.0749 46.1415 53.0442 46.0949C53.0134 46.0473 52.9621 46.0045 52.8903 45.9662C52.8195 45.9271 52.7225 45.8856 52.5995 45.8418C52.5127 45.811 52.4363 45.7774 52.3701 45.7411C52.3039 45.7038 52.2484 45.6618 52.2037 45.6152C52.1589 45.5686 52.1249 45.5145 52.1016 45.453C52.0792 45.3915 52.068 45.3211 52.068 45.2418C52.068 45.1327 52.0955 45.0395 52.1506 44.9621C52.2065 44.8838 52.2834 44.8242 52.3813 44.7831C52.4801 44.7412 52.5934 44.7202 52.7211 44.7202C52.8302 44.7202 52.9309 44.7305 53.0232 44.751C53.1164 44.7715 53.2017 44.799 53.2791 44.8335L53.205 45.0377C53.1313 45.0069 53.053 44.9812 52.97 44.9607C52.888 44.9402 52.8032 44.93 52.7155 44.93C52.6279 44.93 52.5538 44.943 52.4932 44.9691C52.4335 44.9943 52.3878 45.0302 52.3561 45.0768C52.3244 45.1234 52.3086 45.1789 52.3086 45.2432C52.3086 45.315 52.3235 45.3747 52.3533 45.4222C52.3841 45.4698 52.4326 45.5122 52.4988 45.5495C52.5659 45.5858 52.6545 45.6241 52.7645 45.6642C52.8847 45.708 52.9868 45.7546 53.0707 45.804C53.1546 45.8525 53.2185 45.9122 53.2623 45.983C53.3061 46.0529 53.328 46.142 53.328 46.2501Z" fill="#00040A"/>
<path d="M54.7816 44.7496C55.0454 44.7496 55.238 44.8013 55.3592 44.9048C55.4813 45.0074 55.5424 45.1547 55.5424 45.3467C55.5424 45.4334 55.5279 45.5159 55.499 45.5942C55.471 45.6716 55.4254 45.7401 55.362 45.7998C55.2986 45.8585 55.2151 45.9052 55.1116 45.9397C55.0091 45.9732 54.8832 45.99 54.7341 45.99H54.4851V46.7941H54.2474V44.7496H54.7816ZM54.7592 44.9523H54.4851V45.7858H54.7075C54.838 45.7858 54.9466 45.7718 55.0333 45.7439C55.121 45.7159 55.1867 45.6707 55.2305 45.6082C55.2743 45.5448 55.2962 45.4609 55.2962 45.3565C55.2962 45.2204 55.2529 45.1192 55.1662 45.053C55.0795 44.9859 54.9438 44.9523 54.7592 44.9523Z" fill="#00040A"/>
<path d="M57.7539 46.7941L57.5022 46.1452H56.6827L56.4323 46.7941H56.1918L56.9917 44.7412H57.2057L58 46.7941H57.7539ZM57.4308 45.9341L57.1917 45.2894C57.1861 45.2726 57.1768 45.2451 57.1637 45.2069C57.1516 45.1686 57.139 45.129 57.126 45.088C57.1129 45.047 57.1022 45.0139 57.0938 44.9887C57.0845 45.0269 57.0742 45.0652 57.063 45.1034C57.0528 45.1407 57.0425 45.1756 57.0323 45.2083C57.022 45.24 57.0132 45.267 57.0057 45.2894L56.7624 45.9341H57.4308Z" fill="#00040A"/>
<circle cx="34.51" cy="22.5327" r="4.42004" fill="white"/>
<path d="M39.6688 20.4918C39.6688 19.6953 39.6633 18.8987 39.6688 18.1022C39.6688 17.8498 39.5849 17.6903 39.3389 17.6165C37.8465 17.1611 36.3013 16.9017 34.742 16.8446C33.0323 16.7826 31.37 17.097 29.7369 17.601C29.2211 17.7595 29.0916 17.9108 29.0907 18.4476C29.0907 19.677 29.0834 20.9083 29.0907 22.1349C29.1017 23.7535 29.6184 25.187 30.6747 26.4237C31.6771 27.5957 32.9302 28.467 34.1706 29.3546C34.2378 29.4086 34.3214 29.4381 34.4075 29.4381C34.4937 29.4381 34.5773 29.4086 34.6445 29.3546C35.6123 28.6921 36.5684 28.0159 37.4186 27.202C38.5979 26.0783 39.4546 24.7769 39.6341 23.1192C39.7298 22.2507 39.6387 21.3676 39.6688 20.4918ZM37.2209 25.2955C37.2209 24.8325 37.2209 24.3687 37.2209 23.9039C37.2209 23.563 37.3767 23.2659 37.5143 22.9679C37.5849 22.8384 37.6161 22.6911 37.6041 22.5441C37.5921 22.3971 37.5375 22.2568 37.4469 22.1404C36.9967 21.4979 36.5702 20.839 36.1346 20.1865C36.1057 20.1375 36.0731 20.0909 36.037 20.047C35.924 19.9276 35.7791 19.8812 35.6379 19.9723C35.4966 20.0634 35.5413 20.2129 35.6123 20.3368C35.8858 20.8199 36.171 21.3001 36.4471 21.7832C36.5492 21.9654 36.6394 22.1477 36.7324 22.33C36.7637 22.3847 36.7837 22.4452 36.7914 22.5077C36.7991 22.5703 36.7942 22.6338 36.7771 22.6945C36.747 22.792 36.7205 22.905 36.603 22.9278C36.4854 22.9506 36.4262 22.8467 36.3806 22.7547C36.1568 22.3454 35.894 21.9588 35.5959 21.6C35.4975 21.4724 35.3991 21.2919 35.2232 21.3849C35.0473 21.4779 35.143 21.6747 35.2086 21.8078C35.9003 23.2039 35.606 24.6867 35.5732 26.1412C35.5732 26.1522 35.5732 26.1631 35.5732 26.1731C35.5495 26.4912 35.266 26.3946 34.9407 26.4301C34.9241 26.43 34.9076 26.4281 34.8915 26.4247C34.783 26.3991 34.8003 26.2907 34.8003 26.1348C34.7912 25.3146 34.793 24.4944 34.8003 23.6742C34.8003 23.419 34.7593 23.2185 34.4358 23.2185C34.1123 23.2185 34.0713 23.4008 34.0713 23.6669C34.0785 24.4972 34.0621 25.3283 34.0813 26.1585C34.0877 26.4319 33.9829 26.4529 33.7632 26.4155C33.2747 26.3317 33.2738 26.3372 33.2611 25.8469C33.2438 25.1643 33.2219 24.4798 33.21 23.8C33.1957 23.2867 33.2865 22.7758 33.4771 22.299C33.5582 22.0994 33.6411 21.8998 33.7095 21.6948C33.7441 21.5918 33.7924 21.4578 33.6703 21.3849C33.5481 21.312 33.426 21.3977 33.3495 21.4997C33.0706 21.8725 32.768 22.2288 32.5484 22.6444C32.4837 22.7674 32.4381 22.9788 32.2577 22.9178C32.0453 22.8385 32.0544 22.6152 32.0936 22.4329C32.1404 22.2811 32.2072 22.1361 32.2923 22.0019C32.6013 21.4551 32.9184 20.9192 33.2255 20.3751C33.3021 20.2402 33.4078 20.0716 33.2137 19.9595C33.0396 19.8602 32.8829 19.9477 32.7771 20.1072C32.2978 20.8262 31.822 21.5471 31.3436 22.2662C31.2829 22.3502 31.2479 22.4501 31.2429 22.5536C31.2378 22.6572 31.263 22.7599 31.3153 22.8494C31.7482 23.6159 31.6124 24.4607 31.6945 25.2964C30.8515 24.7204 30.1661 23.0864 30.5279 21.5845C30.9362 19.8939 32.3944 18.6235 34.0694 18.4996C35.8821 18.3692 37.5371 19.3918 38.1605 21.0258C38.7428 22.5514 38.3263 24.4206 37.2209 25.2955Z" fill="#B82B2B"/>
<path d="M34.4422 19.9267C34.3049 19.9268 34.1729 19.8738 34.0737 19.7789C33.9745 19.684 33.9159 19.5544 33.91 19.4172C33.9076 19.3491 33.9187 19.2812 33.9429 19.2175C33.967 19.1538 34.0036 19.0955 34.0505 19.0461C34.0975 18.9967 34.1538 18.9572 34.2162 18.9298C34.2786 18.9025 34.3458 18.8879 34.414 18.8868C34.5516 18.8829 34.6853 18.9336 34.7857 19.0278C34.8861 19.1221 34.9451 19.2522 34.9498 19.3899C34.9498 19.5273 34.8972 19.6594 34.8028 19.7593C34.7084 19.8591 34.5794 19.919 34.4422 19.9267Z" fill="#B82B2B"/>
<path d="M18.3225 37.5147C18.5267 37.0527 18.7144 36.6289 18.9003 36.2042C19.4007 35.0586 19.8955 33.9113 20.4032 32.7684C20.5134 32.5205 20.5854 32.2799 20.5071 32.0138C20.4451 31.8051 20.5408 31.7295 20.7367 31.6967C21.6025 31.5509 21.6052 31.5563 21.7064 32.4258C21.9442 34.4699 22.1848 36.5141 22.44 38.5564C22.4801 38.879 22.4099 39.0011 22.0682 39.0194C21.3336 39.0576 21.33 39.0759 21.248 38.345C21.0757 36.8649 20.9099 35.3849 20.7394 33.9049C20.7258 33.7809 20.7012 33.6579 20.6784 33.513C20.5818 33.5677 20.5718 33.6552 20.5417 33.7281C19.8609 35.3886 19.1674 37.0445 18.5094 38.715C18.3791 39.0467 18.1594 39.0367 17.8997 39.0595C17.6217 39.0841 17.5989 38.8708 17.5351 38.6949C16.9106 37.0466 16.2857 35.3989 15.6605 33.7518C15.6268 33.6606 15.6259 33.5467 15.4782 33.4665C15.3871 34.1765 15.3005 34.8664 15.213 35.5572C15.0781 36.618 14.9433 37.6785 14.8084 38.7387C14.7956 38.8407 14.8439 38.9911 14.6735 39.0121C14.4612 39.033 14.2424 39.1132 14.0356 39.0221C13.9326 38.9765 14.0037 38.859 14.0192 38.7751C14.3837 36.7957 14.74 34.8171 15.1128 32.8395C15.1629 32.5725 15.1757 32.3219 15.0535 32.0776C14.9159 31.8042 15.0289 31.7131 15.2996 31.693C16.2401 31.6119 16.0287 31.5235 16.3349 32.3155C16.9619 33.9486 17.5844 35.5839 18.2023 37.2213C18.2387 37.3015 18.2715 37.3853 18.3225 37.5147Z" fill="#2C3D52"/>
<path d="M29.9678 35.7137C29.9678 34.7687 29.9678 33.8245 29.9678 32.8804C29.9678 32.3937 29.8922 32.3117 29.3964 32.2916C29.2688 32.2862 29.2214 32.2616 29.2023 32.1312C29.1813 31.9845 29.2524 31.9572 29.3672 31.9389C30.8354 31.7102 32.3091 31.5498 33.7754 31.9043C35.6692 32.36 36.5797 33.6978 36.3682 35.6408C36.1696 37.4635 34.9456 38.6993 33.0874 39.0037C32.1049 39.165 31.1353 38.9946 30.1601 38.9727C29.9286 38.9673 29.9678 38.7905 29.9678 38.6501C29.9678 37.6725 29.9678 36.6937 29.9678 35.7137ZM31.1097 35.4176V37.6713C31.1097 38.5763 31.1097 38.5763 32.0402 38.5772C33.4446 38.5772 34.4626 37.962 34.8855 36.8165C35.2126 35.9567 35.229 35.0096 34.9319 34.1389C34.5911 33.1282 33.8566 32.5359 32.8204 32.308C32.3929 32.2169 31.96 32.2451 31.5281 32.2324C31.1991 32.2233 31.0988 32.3691 31.1043 32.6881C31.1198 33.5967 31.1097 34.5071 31.1097 35.4176Z" fill="#2C3D52"/>
<path d="M47.6479 35.2646C47.5914 36.607 47.2834 37.5712 46.4385 38.2966C45.3094 39.2617 43.2488 39.4385 41.9729 38.6803C40.9267 38.0588 40.4929 37.0781 40.4109 35.918C40.3197 34.592 40.5585 33.3717 41.6631 32.4786C42.9608 31.4296 45.3613 31.4478 46.5598 32.5223C47.4538 33.3279 47.6543 34.3942 47.6479 35.2646ZM46.3839 35.3849C46.3757 34.7998 46.2636 34.0042 45.8179 33.297C45.3319 32.526 44.6301 32.1721 43.7127 32.2352C42.9034 32.2908 42.3147 32.7 42.0167 33.42C41.4106 34.8845 41.4817 36.3454 42.3384 37.6951C43.1586 38.9938 45.2984 39.0102 46.0312 37.409C46.2918 36.8394 46.3884 36.2388 46.3839 35.3849Z" fill="#2C3D52"/>
<path d="M49.6473 33.4609C49.6473 33.8054 49.64 34.1335 49.6473 34.4634C49.682 35.8633 49.723 37.2631 49.7558 38.662C49.7558 38.7768 49.836 38.9527 49.6811 38.9937C49.455 39.0539 49.2081 39.1195 48.9784 39.0238C48.8754 38.9819 48.9237 38.8415 48.9255 38.7395C48.9666 36.9077 48.9957 35.0749 49.0622 33.2431C49.0786 32.7957 49.0048 32.4293 48.705 32.0903C48.4699 31.8251 48.5127 31.7576 48.869 31.7111C48.8909 31.7111 48.9146 31.7111 48.9365 31.7039C49.507 31.5708 49.8779 31.7558 50.237 32.2589C51.3989 33.8884 52.6293 35.4705 53.8359 37.0681C53.8942 37.1455 53.927 37.2503 54.0455 37.2777C54.1148 37.2239 54.0792 37.151 54.0774 37.0954C54.0327 35.455 53.9863 33.8145 53.9389 32.1796C53.9389 32.0657 53.8596 31.8843 54.0209 31.8542C54.2496 31.8132 54.4948 31.7148 54.7208 31.8278C54.8302 31.8825 54.7691 32.0383 54.7664 32.1468C54.7263 33.854 54.6844 35.561 54.6406 37.2676C54.6306 37.7115 54.6406 38.1562 54.6215 38.5991C54.6142 38.7422 54.7518 38.9773 54.4857 39.0211C54.2414 39.0603 53.9835 39.156 53.7757 38.8707C53.1879 38.0605 52.5773 37.2658 51.9758 36.4666L49.8196 33.5976C49.7804 33.5457 49.7558 33.4764 49.6473 33.4609Z" fill="#2C3D52"/>
<path d="M24.023 35.7931C24.023 34.8708 24.023 33.9495 24.023 33.0272C24.023 32.5715 23.9236 32.4649 23.468 32.4457C23.3285 32.4403 23.2656 32.4129 23.2474 32.2635C23.2292 32.114 23.3221 32.104 23.4297 32.0876C23.992 31.9964 24.5534 31.9053 25.1248 31.8989C26.0699 31.8989 27.0158 31.9044 27.96 31.8853C28.2188 31.8798 28.2999 31.9618 28.3018 32.2079C28.3018 32.5943 28.3309 32.9807 28.3501 33.3671C28.3546 33.4655 28.3546 33.5448 28.2188 33.5494C28.1149 33.5549 28.0366 33.5439 28.0119 33.43C28.0119 33.4191 28.0047 33.4081 28.0028 33.3972C27.7704 32.4029 27.4414 32.4038 26.5501 32.3947C26.1856 32.3947 25.8211 32.4002 25.4565 32.3947C25.2651 32.3902 25.1603 32.4348 25.164 32.6581C25.1731 33.3981 25.1749 34.1381 25.164 34.8772C25.164 35.1023 25.2688 35.1051 25.4374 35.0941C26.0753 35.054 26.7133 35.0249 27.3512 34.9884C27.5508 34.9766 27.7276 34.9802 27.7158 35.2545C27.703 35.4842 27.7221 35.6993 27.3585 35.6692C26.7351 35.6163 26.1072 35.6245 25.482 35.589C25.2533 35.5762 25.1622 35.6227 25.1685 35.877C25.1868 36.5933 25.1859 37.3114 25.1685 38.0278C25.1622 38.3331 25.2597 38.4652 25.5777 38.4534C26.0553 38.4351 26.5347 38.4333 27.0122 38.4397C27.6073 38.447 28.0056 38.1727 28.2343 37.6313C28.2826 37.5165 28.3464 37.408 28.392 37.2914C28.4375 37.1747 28.5177 37.2003 28.6134 37.2112C28.7365 37.2294 28.7602 37.295 28.7383 37.3998C28.6472 37.8446 28.556 38.2911 28.4585 38.7341C28.4418 38.8136 28.396 38.8841 28.3302 38.9318C28.2643 38.9795 28.183 39.0009 28.1022 38.992C26.8263 38.9856 25.5504 38.9765 24.2745 38.9746C24.0421 38.9746 24.0266 38.8389 24.0275 38.6611C24.0248 37.7051 24.023 36.7491 24.023 35.7931Z" fill="#2C3D52"/>
<path d="M38.9264 35.3784C38.9264 36.4356 38.9163 37.4927 38.9327 38.549C38.9382 38.8616 38.8571 38.9892 38.5254 39.0156C37.6432 39.0858 37.7872 39.1113 37.7854 38.3175C37.7799 36.5559 37.7854 34.7942 37.7854 33.0317C37.7854 32.412 37.7735 32.3937 37.1775 32.3108C37.0535 32.2944 37.0308 32.2397 37.0207 32.1395C37.0107 32.0392 37.038 31.9754 37.1574 31.9572C37.6601 31.8624 38.168 31.7978 38.6785 31.764C38.9409 31.7485 38.9291 31.9308 38.9291 32.1076L38.9264 35.3784Z" fill="#2C3D52"/>
</svg>
