<svg width="68" height="64" viewBox="0 0 68 64" fill="none" xmlns="http://www.w3.org/2000/svg">
<mask id="path-1-inside-1_2678_8710" fill="white">
<path d="M0 0H67.5413V64H0V0Z"/>
</mask>
<path d="M0 0H67.5413V64H0V0Z" fill="#F5F5F6"/>
<path d="M66.5413 0V64H68.5413V0H66.5413Z" fill="#EDEDED" mask="url(#path-1-inside-1_2678_8710)"/>
<path d="M18.1949 50.1305V46.9598H18.5635V50.1305H18.1949Z" fill="#00040A"/>
<path d="M22.6915 50.1305H22.2665L20.538 47.4673H20.5206C20.525 47.5381 20.53 47.6191 20.5358 47.7102C20.5416 47.7998 20.5459 47.896 20.5488 47.9986C20.5532 48.0998 20.5553 48.2032 20.5553 48.3088V50.1305H20.2127V46.9598H20.6356L22.3576 49.6143H22.3727C22.3698 49.5637 22.3662 49.4922 22.3619 49.3996C22.3576 49.3057 22.3532 49.2052 22.3489 49.0982C22.346 48.9897 22.3445 48.8893 22.3445 48.7967V46.9598H22.6915V50.1305Z" fill="#00040A"/>
<path d="M26.813 50.1305H26.388L24.6595 47.4673H24.6421C24.6465 47.5381 24.6515 47.6191 24.6573 47.7102C24.6631 47.7998 24.6674 47.896 24.6703 47.9986C24.6747 48.0998 24.6768 48.2032 24.6768 48.3088V50.1305H24.3342V46.9598H24.7571L26.4791 49.6143H26.4942C26.4913 49.5637 26.4877 49.4922 26.4834 49.3996C26.4791 49.3057 26.4747 49.2052 26.4704 49.0982C26.4675 48.9897 26.466 48.8893 26.466 48.7967V46.9598H26.813V50.1305Z" fill="#00040A"/>
<path d="M31.2056 48.5408C31.2056 48.7852 31.1746 49.0078 31.1124 49.2088C31.0502 49.4083 30.9577 49.5804 30.8348 49.725C30.7133 49.8681 30.5622 49.9787 30.3815 50.0568C30.2008 50.1348 29.9911 50.1739 29.7526 50.1739C29.5068 50.1739 29.2921 50.1348 29.1085 50.0568C28.9263 49.9787 28.7745 49.8674 28.653 49.7228C28.533 49.5782 28.4426 49.4054 28.3819 49.2045C28.3226 49.0035 28.293 48.7808 28.293 48.5365C28.293 48.2126 28.3465 47.9285 28.4535 47.6842C28.5605 47.4398 28.7224 47.2497 28.9393 47.1138C29.1576 46.9779 29.4309 46.9099 29.7591 46.9099C30.0728 46.9099 30.3367 46.9771 30.5507 47.1116C30.7661 47.2461 30.9288 47.4355 31.0386 47.6798C31.15 47.9227 31.2056 48.2097 31.2056 48.5408ZM28.6812 48.5408C28.6812 48.8097 28.7195 49.0425 28.7962 49.2392C28.8728 49.4358 28.9899 49.5876 29.1475 49.6946C29.3065 49.8016 29.5082 49.8551 29.7526 49.8551C29.9984 49.8551 30.1993 49.8016 30.3555 49.6946C30.5131 49.5876 30.6295 49.4358 30.7047 49.2392C30.7798 49.0425 30.8174 48.8097 30.8174 48.5408C30.8174 48.1316 30.7314 47.8121 30.5593 47.5822C30.3887 47.3509 30.122 47.2352 29.7591 47.2352C29.5133 47.2352 29.3109 47.288 29.1518 47.3935C28.9928 47.4991 28.8742 47.6495 28.7962 47.8446C28.7195 48.0384 28.6812 48.2704 28.6812 48.5408Z" fill="#00040A"/>
<path d="M34.9042 46.9598L33.7656 50.1305H33.3948L32.2562 46.9598H32.6422L33.3839 49.0483C33.4143 49.1322 33.441 49.2124 33.4642 49.289C33.4888 49.3657 33.5104 49.4394 33.5292 49.5102C33.548 49.5811 33.5647 49.6498 33.5791 49.7163C33.5936 49.6498 33.6102 49.5811 33.629 49.5102C33.6478 49.438 33.6695 49.3635 33.6941 49.2869C33.7186 49.2088 33.7461 49.1271 33.7765 49.0418L34.5139 46.9598H34.9042Z" fill="#00040A"/>
<path d="M38.1062 50.1305L37.7158 49.1242H36.4449L36.0567 50.1305H35.6837L36.9242 46.9468H37.256L38.4879 50.1305H38.1062ZM37.6052 48.7967L37.2343 47.7969C37.2257 47.7709 37.2112 47.7283 37.191 47.669C37.1722 47.6097 37.1526 47.5482 37.1324 47.4846C37.1122 47.421 37.0955 47.3697 37.0825 47.3307C37.0681 47.3899 37.0522 47.4492 37.0348 47.5085C37.0189 47.5663 37.003 47.6205 36.9871 47.6711C36.9712 47.7203 36.9575 47.7622 36.9459 47.7969L36.5685 48.7967H37.6052Z" fill="#00040A"/>
<path d="M40.6792 50.1305H40.3083V47.2851H39.3107V46.9598H41.6725V47.2851H40.6792V50.1305Z" fill="#00040A"/>
<path d="M42.929 50.1305V46.9598H43.2977V50.1305H42.929Z" fill="#00040A"/>
<path d="M47.6968 48.5408C47.6968 48.7852 47.6657 49.0078 47.6036 49.2088C47.5414 49.4083 47.4489 49.5804 47.326 49.725C47.2045 49.8681 47.0534 49.9787 46.8727 50.0568C46.692 50.1348 46.4823 50.1739 46.2438 50.1739C45.998 50.1739 45.7833 50.1348 45.5996 50.0568C45.4175 49.9787 45.2657 49.8674 45.1442 49.7228C45.0242 49.5782 44.9338 49.4054 44.8731 49.2045C44.8138 49.0035 44.7842 48.7808 44.7842 48.5365C44.7842 48.2126 44.8377 47.9285 44.9447 47.6842C45.0517 47.4398 45.2136 47.2497 45.4305 47.1138C45.6488 46.9779 45.9221 46.9099 46.2503 46.9099C46.564 46.9099 46.8279 46.9771 47.0419 47.1116C47.2573 47.2461 47.42 47.4355 47.5298 47.6798C47.6412 47.9227 47.6968 48.2097 47.6968 48.5408ZM45.1724 48.5408C45.1724 48.8097 45.2107 49.0425 45.2873 49.2392C45.364 49.4358 45.4811 49.5876 45.6387 49.6946C45.7977 49.8016 45.9994 49.8551 46.2438 49.8551C46.4896 49.8551 46.6905 49.8016 46.8467 49.6946C47.0043 49.5876 47.1207 49.4358 47.1959 49.2392C47.271 49.0425 47.3086 48.8097 47.3086 48.5408C47.3086 48.1316 47.2226 47.8121 47.0505 47.5822C46.8799 47.3509 46.6132 47.2352 46.2503 47.2352C46.0045 47.2352 45.8021 47.288 45.643 47.3935C45.484 47.4991 45.3654 47.6495 45.2873 47.8446C45.2107 48.0384 45.1724 48.2704 45.1724 48.5408Z" fill="#00040A"/>
<path d="M51.66 50.1305H51.2349L49.5064 47.4673H49.4891C49.4934 47.5381 49.4985 47.6191 49.5043 47.7102C49.5101 47.7998 49.5144 47.896 49.5173 47.9986C49.5216 48.0998 49.5238 48.2032 49.5238 48.3088V50.1305H49.1811V46.9598H49.604L51.326 49.6143H51.3412C51.3383 49.5637 51.3347 49.4922 51.3304 49.3996C51.326 49.3057 51.3217 49.2052 51.3173 49.0982C51.3145 48.9897 51.313 48.8893 51.313 48.7967V46.9598H51.66V50.1305Z" fill="#00040A"/>
<circle cx="33.9211" cy="20.5904" r="5.24909" fill="white"/>
<path d="M40.0474 18.1666C40.0474 17.2207 40.0409 16.2747 40.0474 15.3288C40.0474 15.029 39.9478 14.8396 39.6556 14.752C37.8833 14.2112 36.0482 13.9031 34.1965 13.8353C32.1662 13.7617 30.1921 14.1351 28.2526 14.7336C27.64 14.9219 27.4863 15.1015 27.4853 15.739C27.4853 17.199 27.4766 18.6612 27.4853 20.1179C27.4983 22.0401 28.1119 23.7425 29.3663 25.2112C30.5568 26.603 32.0449 27.6377 33.5179 28.6918C33.5977 28.7559 33.697 28.7909 33.7993 28.7909C33.9017 28.7909 34.0009 28.7559 34.0807 28.6918C35.2301 27.905 36.3654 27.1019 37.3752 26.1355C38.7757 24.801 39.793 23.2555 40.0062 21.2868C40.1199 20.2554 40.0116 19.2067 40.0474 18.1666ZM37.1403 23.8713C37.1403 23.3215 37.1403 22.7706 37.1403 22.2187C37.1403 21.8139 37.3254 21.4611 37.4888 21.1071C37.5726 20.9533 37.6097 20.7784 37.5955 20.6038C37.5812 20.4293 37.5163 20.2626 37.4087 20.1244C36.8741 19.3614 36.3676 18.5789 35.8503 17.804C35.816 17.7459 35.7773 17.6905 35.7344 17.6384C35.6002 17.4966 35.4282 17.4414 35.2604 17.5497C35.0927 17.6579 35.1457 17.8354 35.2301 17.9826C35.5548 18.5562 35.8935 19.1266 36.2215 19.7002C36.3427 19.9166 36.4498 20.1331 36.5602 20.3495C36.5974 20.4146 36.6212 20.4863 36.6303 20.5607C36.6394 20.635 36.6336 20.7104 36.6133 20.7825C36.5775 20.8983 36.5462 21.0325 36.4065 21.0595C36.2669 21.0866 36.1966 20.9632 36.1425 20.8539C35.8767 20.3679 35.5646 19.9087 35.2106 19.4826C35.0937 19.3311 34.9768 19.1168 34.768 19.2272C34.5591 19.3376 34.6727 19.5714 34.7507 19.7294C35.5721 21.3875 35.2225 23.1483 35.1836 24.8757C35.1836 24.8887 35.1836 24.9016 35.1836 24.9135C35.1554 25.2913 34.8188 25.1765 34.4325 25.2188C34.4128 25.2186 34.3932 25.2164 34.374 25.2123C34.2452 25.182 34.2658 25.0532 34.2658 24.8681C34.255 23.894 34.2571 22.92 34.2658 21.9459C34.2658 21.6429 34.2171 21.4048 33.8329 21.4048C33.4487 21.4048 33.4 21.6212 33.4 21.9373C33.4086 22.9232 33.3891 23.9103 33.4119 24.8962C33.4194 25.2209 33.295 25.2458 33.0341 25.2014C32.454 25.1019 32.453 25.1084 32.4378 24.5261C32.4172 23.7155 32.3913 22.9027 32.3772 22.0953C32.3601 21.4857 32.4681 20.8791 32.6943 20.3127C32.7906 20.0757 32.8891 19.8387 32.9703 19.5952C33.0114 19.4729 33.0688 19.3138 32.9238 19.2272C32.7787 19.1406 32.6337 19.2424 32.5428 19.3636C32.2116 19.8062 31.8523 20.2294 31.5915 20.7229C31.5146 20.869 31.4605 21.1201 31.2462 21.0476C30.994 20.9535 31.0049 20.6883 31.0514 20.4718C31.107 20.2915 31.1863 20.1193 31.2873 19.9599C31.6542 19.3106 32.0309 18.6742 32.3956 18.028C32.4865 17.8679 32.6121 17.6676 32.3815 17.5345C32.1748 17.4166 31.9887 17.5205 31.8631 17.7099C31.2938 18.5638 30.7289 19.4199 30.1607 20.2738C30.0886 20.3736 30.047 20.4922 30.0411 20.6151C30.0351 20.7381 30.065 20.8602 30.1271 20.9665C30.6412 21.8767 30.4799 22.8799 30.5774 23.8724C29.5762 23.1884 28.7624 21.2478 29.192 19.4642C29.6769 17.4566 31.4086 15.9479 33.3978 15.8007C35.5505 15.6459 37.5159 16.8603 38.2562 18.8008C38.9478 20.6125 38.4532 22.8323 37.1403 23.8713Z" fill="#B82B2B"/>
<path d="M33.8405 17.4956C33.6775 17.4958 33.5207 17.4329 33.4029 17.3202C33.2851 17.2074 33.2155 17.0535 33.2085 16.8906C33.2056 16.8098 33.2189 16.7291 33.2475 16.6535C33.2762 16.5778 33.3197 16.5086 33.3754 16.45C33.4311 16.3913 33.498 16.3443 33.5721 16.3119C33.6462 16.2794 33.7261 16.262 33.807 16.2608C33.9705 16.2561 34.1292 16.3163 34.2484 16.4282C34.3676 16.5402 34.4377 16.6947 34.4434 16.8582C34.4434 17.0213 34.3809 17.1783 34.2688 17.2968C34.1567 17.4154 34.0034 17.4865 33.8405 17.4956Z" fill="#B82B2B"/>
<path d="M14.6974 38.3824C14.9398 37.8337 15.1627 37.3305 15.3835 36.8261C15.9777 35.4657 16.5654 34.1031 17.1682 32.7459C17.2992 32.4515 17.3847 32.1658 17.2916 31.8498C17.218 31.6019 17.3316 31.5121 17.5643 31.4731C18.5925 31.3 18.5958 31.3064 18.7159 32.339C18.9984 34.7665 19.2841 37.1941 19.5871 39.6195C19.6347 40.0026 19.5514 40.1476 19.1456 40.1693C18.2732 40.2147 18.2689 40.2364 18.1715 39.3684C17.9669 37.6108 17.77 35.8531 17.5676 34.0955C17.5513 33.9483 17.5221 33.8022 17.4951 33.6301C17.3803 33.6951 17.3684 33.799 17.3327 33.8855C16.5243 35.8575 15.7006 37.824 14.9192 39.8078C14.7645 40.2018 14.5036 40.1899 14.1952 40.2169C13.8651 40.2461 13.838 39.9929 13.7623 39.784C13.0205 37.8265 12.2784 35.8697 11.536 33.9137C11.496 33.8054 11.4949 33.6702 11.3195 33.5749C11.2113 34.418 11.1085 35.2373 11.0046 36.0577C10.8444 37.3175 10.6842 38.5769 10.5241 39.8359C10.5089 39.9572 10.5663 40.1357 10.3639 40.1606C10.1117 40.1855 9.85196 40.2808 9.60628 40.1725C9.48398 40.1184 9.5684 39.9788 9.5868 39.8792C10.0197 37.5285 10.4429 35.1789 10.8855 32.8303C10.9451 32.5132 10.9602 32.2156 10.8152 31.9255C10.6518 31.6008 10.786 31.4926 11.1074 31.4688C12.2243 31.3725 11.9732 31.2675 12.3369 32.208C13.0815 34.1475 13.8207 36.0894 14.5545 38.0339C14.5978 38.1292 14.6367 38.2288 14.6974 38.3824Z" fill="#2C3D52"/>
<path d="M28.5269 36.2438C28.5269 35.1214 28.5269 34.0002 28.5269 32.8789C28.5269 32.301 28.4371 32.2036 27.8483 32.1798C27.6968 32.1733 27.6405 32.1441 27.6178 31.9893C27.5929 31.815 27.6773 31.7826 27.8137 31.7609C29.5573 31.4893 31.3073 31.2988 33.0487 31.7198C35.2977 32.2609 36.3789 33.8497 36.1278 36.1572C35.8919 38.3217 34.4384 39.7893 32.2316 40.1508C31.0649 40.3424 29.9133 40.14 28.7553 40.114C28.4804 40.1075 28.5269 39.8976 28.5269 39.7309C28.5269 38.5699 28.5269 37.4076 28.5269 36.2438ZM29.883 35.892V38.5685C29.883 39.6432 29.883 39.6432 30.988 39.6443C32.6558 39.6443 33.8648 38.9138 34.3669 37.5533C34.7554 36.5322 34.7749 35.4075 34.4221 34.3736C34.0174 33.1733 33.145 32.4698 31.9145 32.1992C31.4069 32.091 30.8928 32.1246 30.3798 32.1094C29.9891 32.0986 29.87 32.2718 29.8765 32.6506C29.8949 33.7296 29.883 34.8108 29.883 35.892Z" fill="#2C3D52"/>
<path d="M49.5232 35.7102C49.4561 37.3044 49.0902 38.4495 48.087 39.311C46.746 40.4571 44.299 40.6671 42.7838 39.7666C41.5413 39.0285 41.0261 37.864 40.9287 36.4862C40.8205 34.9115 41.1041 33.4623 42.4158 32.4017C43.957 31.156 46.8077 31.1776 48.2309 32.4536C49.2926 33.4104 49.5307 34.6767 49.5232 35.7102ZM48.022 35.8531C48.0123 35.1583 47.8792 34.2134 47.3499 33.3736C46.7727 32.458 45.9393 32.0377 44.8498 32.1127C43.8888 32.1787 43.1896 32.6647 42.8357 33.5197C42.116 35.2589 42.2004 36.9938 43.2178 38.5967C44.1918 40.139 46.733 40.1584 47.6032 38.2569C47.9127 37.5804 48.0274 36.8672 48.022 35.8531Z" fill="#2C3D52"/>
<path d="M51.8976 33.5684C51.8976 33.9775 51.8889 34.3671 51.8976 34.7589C51.9387 36.4213 51.9874 38.0837 52.0264 39.745C52.0264 39.8813 52.1216 40.0902 51.9376 40.1389C51.6692 40.2103 51.3759 40.2883 51.1032 40.1746C50.9809 40.1248 51.0383 39.9582 51.0404 39.837C51.0891 37.6616 51.1238 35.4851 51.2028 33.3097C51.2222 32.7783 51.1346 32.3432 50.7785 31.9406C50.4993 31.6257 50.5501 31.5456 50.9733 31.4904C50.9993 31.4904 51.0274 31.4904 51.0534 31.4817C51.7309 31.3237 52.1714 31.5434 52.5978 32.1408C53.9778 34.0759 55.4388 35.9548 56.8718 37.852C56.941 37.944 56.98 38.0685 57.1207 38.101C57.203 38.0371 57.1608 37.9505 57.1586 37.8845C57.1056 35.9364 57.0504 33.9883 56.9941 32.0467C56.9941 31.9114 56.8999 31.696 57.0915 31.6603C57.3631 31.6116 57.6543 31.4947 57.9227 31.6289C58.0526 31.6938 57.98 31.8789 57.9768 32.0077C57.9292 34.0352 57.8794 36.0623 57.8274 38.0891C57.8155 38.6161 57.8274 39.1443 57.8047 39.6703C57.7961 39.8402 57.9595 40.1194 57.6435 40.1714C57.3534 40.2179 57.0471 40.3316 56.8004 39.9928C56.1023 39.0307 55.3771 38.0869 54.6628 37.1377L52.1022 33.7307C52.0556 33.669 52.0264 33.5868 51.8976 33.5684Z" fill="#2C3D52"/>
<path d="M21.467 36.3379C21.467 35.2426 21.467 34.1485 21.467 33.0532C21.467 32.512 21.349 32.3854 20.8079 32.3627C20.6423 32.3562 20.5676 32.3237 20.546 32.1462C20.5243 31.9687 20.6347 31.9568 20.7624 31.9373C21.4302 31.8291 22.0969 31.7209 22.7755 31.7133C23.8978 31.7133 25.0212 31.7198 26.1425 31.6971C26.4498 31.6906 26.5462 31.788 26.5483 32.0802C26.5483 32.5391 26.583 32.998 26.6057 33.4569C26.6111 33.5738 26.6111 33.6679 26.4498 33.6733C26.3265 33.6798 26.2334 33.6668 26.2042 33.5316C26.2042 33.5186 26.1955 33.5056 26.1933 33.4926C25.9174 32.3118 25.5267 32.3129 24.4682 32.3021C24.0353 32.3021 23.6024 32.3086 23.1694 32.3021C22.9422 32.2967 22.8177 32.3497 22.822 32.6149C22.8328 33.4937 22.835 34.3725 22.822 35.2502C22.822 35.5176 22.9465 35.5208 23.1467 35.5078C23.9043 35.4602 24.6619 35.4256 25.4195 35.3823C25.6565 35.3682 25.8665 35.3725 25.8524 35.6983C25.8373 35.971 25.86 36.2264 25.4282 36.1907C24.6879 36.128 23.9422 36.1377 23.1997 36.0955C22.9281 36.0803 22.8199 36.1355 22.8274 36.4375C22.8491 37.2882 22.848 38.141 22.8274 38.9917C22.8199 39.3543 22.9357 39.5112 23.3134 39.4971C23.8805 39.4755 24.4498 39.4733 25.0169 39.4809C25.7236 39.4895 26.1966 39.1638 26.4682 38.5209C26.5256 38.3845 26.6014 38.2557 26.6555 38.1172C26.7096 37.9787 26.8048 38.009 26.9185 38.022C27.0646 38.0436 27.0927 38.1215 27.0667 38.246C26.9585 38.7742 26.8503 39.3045 26.7345 39.8305C26.7146 39.925 26.6603 40.0087 26.5821 40.0653C26.5038 40.122 26.4073 40.1474 26.3113 40.1367C24.7961 40.1292 23.2809 40.1183 21.7657 40.1162C21.4897 40.1162 21.4713 39.9549 21.4724 39.7439C21.4692 38.6086 21.467 37.4732 21.467 36.3379Z" fill="#2C3D52"/>
<path d="M39.1657 35.8454C39.1657 37.1009 39.1538 38.3564 39.1733 39.6107C39.1798 39.9819 39.0835 40.1335 38.6895 40.1649C37.6419 40.2482 37.8129 40.2785 37.8107 39.3358C37.8042 37.2438 37.8107 35.1517 37.8107 33.0586C37.8107 32.3226 37.7966 32.301 37.0888 32.2025C36.9416 32.183 36.9146 32.1181 36.9027 31.999C36.8908 31.8799 36.9232 31.8042 37.065 31.7825C37.662 31.6699 38.2652 31.5933 38.8714 31.5531C39.1831 31.5347 39.169 31.7512 39.169 31.9611L39.1657 35.8454Z" fill="#2C3D52"/>
</svg>
