<svg width="69" height="64" viewBox="0 0 69 64" fill="none" xmlns="http://www.w3.org/2000/svg">
<mask id="path-1-inside-1_2678_8728" fill="white">
<path d="M0 0H68.5413V64H0V0Z"/>
</mask>
<path d="M0 0H68.5413V64H0V0Z" fill="#F9F9F9"/>
<path d="M67.5413 0V64H69.5413V0H67.5413Z" fill="#EDEDED" mask="url(#path-1-inside-1_2678_8728)"/>
<path d="M10.3602 50.5046H9.98395V47.2684H11.7857V47.6005H10.3602V48.7869H11.6994V49.1167H10.3602V50.5046Z" fill="#00040A"/>
<path d="M15.1489 50.5046L14.7505 49.4775H13.4534L13.0572 50.5046H12.6765L13.9426 47.2552H14.2813L15.5385 50.5046H15.1489ZM14.6376 49.1433L14.2591 48.1229C14.2503 48.0963 14.2355 48.0528 14.2148 47.9923C14.1957 47.9318 14.1757 47.869 14.1551 47.8041C14.1344 47.7392 14.1175 47.6868 14.1042 47.6469C14.0894 47.7075 14.0732 47.768 14.0555 47.8285C14.0392 47.8875 14.023 47.9428 14.0068 47.9945C13.9905 48.0446 13.9765 48.0874 13.9647 48.1229L13.5796 49.1433H14.6376Z" fill="#00040A"/>
<path d="M18.2045 50.5046L17.1176 47.6403H17.0999C17.1058 47.7008 17.111 47.7746 17.1154 47.8617C17.1199 47.9487 17.1235 48.0439 17.1265 48.1472C17.1294 48.249 17.1309 48.3531 17.1309 48.4593V50.5046H16.7812V47.2684H17.339L18.3638 49.9601H18.3793L19.4197 47.2684H19.9731V50.5046H19.6012V48.4327C19.6012 48.3368 19.6027 48.2409 19.6056 48.145C19.6086 48.0476 19.6123 47.9561 19.6167 47.8705C19.6211 47.7834 19.6255 47.7082 19.63 47.6447H19.6123L18.5121 50.5046H18.2045Z" fill="#00040A"/>
<path d="M21.6518 50.5046V47.2684H22.0281V50.5046H21.6518Z" fill="#00040A"/>
<path d="M23.7112 50.5046V47.2684H24.0875V50.1681H25.5241V50.5046H23.7112Z" fill="#00040A"/>
<path d="M27.6986 48.8909L28.5597 47.2684H28.9648L27.8868 49.2495V50.5046H27.5105V49.2672L26.4303 47.2684H26.842L27.6986 48.8909Z" fill="#00040A"/>
<path d="M34.6265 50.5046H34.2502V48.9795H32.5502V50.5046H32.1739V47.2684H32.5502V48.6475H34.2502V47.2684H34.6265V50.5046Z" fill="#00040A"/>
<path d="M39.1164 48.8821C39.1164 49.1315 39.0846 49.3587 39.0212 49.5638C38.9577 49.7675 38.8633 49.9431 38.7379 50.0907C38.6139 50.2368 38.4597 50.3496 38.2752 50.4293C38.0908 50.509 37.8768 50.5489 37.6333 50.5489C37.3824 50.5489 37.1633 50.509 36.9759 50.4293C36.79 50.3496 36.635 50.236 36.5111 50.0884C36.3886 49.9409 36.2964 49.7645 36.2344 49.5594C36.1739 49.3543 36.1436 49.127 36.1436 48.8777C36.1436 48.5471 36.1982 48.2571 36.3074 48.0078C36.4166 47.7584 36.5819 47.5643 36.8032 47.4256C37.0261 47.2869 37.305 47.2175 37.6399 47.2175C37.9602 47.2175 38.2295 47.2861 38.4479 47.4234C38.6678 47.5606 38.8338 47.7539 38.9459 48.0033C39.0595 48.2512 39.1164 48.5442 39.1164 48.8821ZM36.5398 48.8821C36.5398 49.1566 36.5789 49.3941 36.6572 49.5948C36.7354 49.7955 36.8549 49.9505 37.0157 50.0597C37.1781 50.1689 37.3839 50.2235 37.6333 50.2235C37.8842 50.2235 38.0893 50.1689 38.2487 50.0597C38.4095 49.9505 38.5283 49.7955 38.605 49.5948C38.6818 49.3941 38.7201 49.1566 38.7201 48.8821C38.7201 48.4645 38.6323 48.1383 38.4567 47.9037C38.2826 47.6676 38.0103 47.5496 37.6399 47.5496C37.3891 47.5496 37.1825 47.6034 37.0202 47.7111C36.8578 47.8189 36.7368 47.9723 36.6572 48.1716C36.5789 48.3693 36.5398 48.6061 36.5398 48.8821Z" fill="#00040A"/>
<path d="M42.4574 49.6435C42.4574 49.8354 42.4095 49.9992 42.3135 50.1349C42.2191 50.2692 42.0863 50.3718 41.9151 50.4426C41.7439 50.5134 41.5425 50.5489 41.3108 50.5489C41.1883 50.5489 41.0725 50.543 40.9633 50.5311C40.8541 50.5193 40.7538 50.5024 40.6623 50.4802C40.5708 50.4581 40.4904 50.4308 40.421 50.3983V50.0375C40.5317 50.0833 40.6667 50.1261 40.8261 50.1659C40.9854 50.2043 41.1522 50.2235 41.3263 50.2235C41.4886 50.2235 41.6259 50.2021 41.738 50.1593C41.8502 50.115 41.935 50.0523 41.9926 49.9711C42.0516 49.8885 42.0811 49.7896 42.0811 49.6745C42.0811 49.5638 42.0568 49.4716 42.0081 49.3978C41.9594 49.3226 41.8782 49.2547 41.7646 49.1942C41.6524 49.1322 41.499 49.0665 41.3042 48.9972C41.167 48.9485 41.0459 48.8954 40.9412 48.8378C40.8364 48.7788 40.7486 48.7124 40.6778 48.6386C40.6069 48.5648 40.5531 48.4792 40.5162 48.3818C40.4808 48.2844 40.4631 48.173 40.4631 48.0476C40.4631 47.8749 40.5066 47.7274 40.5937 47.6049C40.6822 47.4809 40.8039 47.3865 40.9589 47.3216C41.1153 47.2552 41.2946 47.222 41.4968 47.222C41.6694 47.222 41.8288 47.2382 41.9749 47.2707C42.1225 47.3031 42.2575 47.3467 42.38 47.4013L42.2626 47.7244C42.1461 47.6757 42.0221 47.6351 41.8908 47.6027C41.7609 47.5702 41.6266 47.554 41.4879 47.554C41.3492 47.554 41.2319 47.5746 41.136 47.616C41.0415 47.6558 40.9692 47.7126 40.919 47.7864C40.8689 47.8602 40.8438 47.948 40.8438 48.0498C40.8438 48.1634 40.8674 48.2579 40.9146 48.3331C40.9633 48.4084 41.04 48.4755 41.1448 48.5346C41.2511 48.5921 41.3913 48.6526 41.5654 48.7161C41.7557 48.7854 41.9173 48.8592 42.0501 48.9374C42.183 49.0142 42.284 49.1086 42.3534 49.2208C42.4227 49.3314 42.4574 49.4724 42.4574 49.6435Z" fill="#00040A"/>
<path d="M44.7581 47.2684C45.1758 47.2684 45.4805 47.3503 45.6723 47.5141C45.8656 47.6765 45.9623 47.9096 45.9623 48.2136C45.9623 48.3508 45.9394 48.4814 45.8937 48.6054C45.8494 48.7279 45.7771 48.8363 45.6768 48.9308C45.5764 49.0238 45.4443 49.0975 45.2805 49.1521C45.1182 49.2053 44.919 49.2318 44.6829 49.2318H44.2889V50.5046H43.9126V47.2684H44.7581ZM44.7227 47.5894H44.2889V48.9086H44.6408C44.8474 48.9086 45.0193 48.8865 45.1566 48.8422C45.2953 48.798 45.3993 48.7264 45.4687 48.6275C45.538 48.5272 45.5727 48.3944 45.5727 48.2291C45.5727 48.0137 45.5041 47.8535 45.3669 47.7488C45.2296 47.6425 45.0149 47.5894 44.7227 47.5894Z" fill="#00040A"/>
<path d="M47.4329 50.5046V47.2684H47.8092V50.5046H47.4329Z" fill="#00040A"/>
<path d="M50.4863 50.5046H50.1077V47.6005H49.0895V47.2684H51.5V47.6005H50.4863V50.5046Z" fill="#00040A"/>
<path d="M54.8123 50.5046L54.4139 49.4775H53.1168L52.7206 50.5046H52.3399L53.606 47.2552H53.9446L55.2019 50.5046H54.8123ZM54.301 49.1433L53.9225 48.1229C53.9137 48.0963 53.8989 48.0528 53.8782 47.9923C53.8591 47.9318 53.8391 47.869 53.8185 47.8041C53.7978 47.7392 53.7808 47.6868 53.7676 47.6469C53.7528 47.7075 53.7366 47.768 53.7189 47.8285C53.7026 47.8875 53.6864 47.9428 53.6702 47.9945C53.6539 48.0446 53.6399 48.0874 53.6281 48.1229L53.243 49.1433H54.301Z" fill="#00040A"/>
<path d="M56.4446 50.5046V47.2684H56.8209V50.1681H58.2574V50.5046H56.4446Z" fill="#00040A"/>
<circle cx="34.4242" cy="20.355" r="5.35741" fill="white"/>
<path d="M40.6769 17.8811C40.6769 16.9157 40.6703 15.9503 40.6769 14.9848C40.6769 14.6789 40.5753 14.4855 40.277 14.3961C38.4681 13.8442 36.5952 13.5297 34.7053 13.4605C32.633 13.3853 30.6182 13.7664 28.6387 14.3773C28.0135 14.5695 27.8567 14.7529 27.8556 15.4035C27.8556 16.8936 27.8467 18.386 27.8556 19.8728C27.8688 21.8346 28.4951 23.5722 29.7754 25.0711C30.9905 26.4917 32.5093 27.5477 34.0127 28.6236C34.0941 28.689 34.1954 28.7247 34.2999 28.7247C34.4044 28.7247 34.5057 28.689 34.5871 28.6236C35.7602 27.8205 36.919 27.0009 37.9496 26.0145C39.379 24.6525 40.4173 23.0751 40.6349 21.0658C40.7509 20.0131 40.6404 18.9427 40.6769 17.8811ZM37.7099 23.7036C37.7099 23.1425 37.7099 22.5802 37.7099 22.0168C37.7099 21.6037 37.8988 21.2436 38.0656 20.8824C38.1511 20.7254 38.1889 20.5469 38.1744 20.3687C38.1599 20.1905 38.0936 20.0205 37.9838 19.8794C37.4381 19.1006 36.9212 18.302 36.3932 17.5111C36.3582 17.4518 36.3187 17.3953 36.275 17.3421C36.138 17.1974 35.9624 17.1411 35.7911 17.2515C35.6199 17.362 35.6741 17.5431 35.7602 17.6934C36.0916 18.2788 36.4373 18.8609 36.772 19.4464C36.8958 19.6673 37.0051 19.8882 37.1178 20.1092C37.1557 20.1755 37.18 20.2488 37.1893 20.3246C37.1986 20.4005 37.1927 20.4775 37.1719 20.551C37.1355 20.6692 37.1034 20.8062 36.9609 20.8338C36.8184 20.8614 36.7466 20.7355 36.6914 20.6239C36.4201 20.1279 36.1016 19.6592 35.7403 19.2244C35.621 19.0697 35.5017 18.851 35.2885 18.9637C35.0753 19.0763 35.1913 19.3149 35.2709 19.4762C36.1093 21.1685 35.7525 22.9657 35.7127 24.7287C35.7127 24.7419 35.7127 24.7552 35.7127 24.7674C35.684 25.1529 35.3405 25.0358 34.9461 25.0789C34.9261 25.0787 34.9061 25.0764 34.8865 25.0722C34.755 25.0413 34.776 24.9098 34.776 24.721C34.765 23.7268 34.7672 22.7326 34.776 21.7385C34.776 21.4292 34.7263 21.1862 34.3341 21.1862C33.942 21.1862 33.8923 21.4071 33.8923 21.7296C33.9011 22.736 33.8813 23.7434 33.9045 24.7497C33.9122 25.0811 33.7852 25.1065 33.5189 25.0612C32.9269 24.9596 32.9258 24.9662 32.9103 24.3719C32.8893 23.5445 32.8628 22.715 32.8484 21.8909C32.831 21.2688 32.9412 20.6496 33.1721 20.0716C33.2704 19.8297 33.3709 19.5878 33.4538 19.3392C33.4957 19.2144 33.5543 19.052 33.4063 18.9637C33.2582 18.8753 33.1102 18.9791 33.0174 19.1029C32.6794 19.5546 32.3127 19.9866 32.0465 20.4903C31.9681 20.6394 31.9128 20.8957 31.6941 20.8216C31.4367 20.7255 31.4478 20.4549 31.4953 20.234C31.552 20.0499 31.633 19.8742 31.7361 19.7115C32.1105 19.0487 32.495 18.3992 32.8672 17.7398C32.96 17.5763 33.0881 17.3719 32.8529 17.236C32.6419 17.1156 32.4519 17.2217 32.3237 17.415C31.7427 18.2865 31.1661 19.1603 30.5862 20.0318C30.5126 20.1337 30.4702 20.2547 30.4641 20.3802C30.458 20.5057 30.4885 20.6303 30.5519 20.7388C31.0766 21.6678 30.912 22.6918 31.0115 23.7047C29.9897 23.0066 29.159 21.026 29.5975 19.2056C30.0924 17.1565 31.8598 15.6167 33.8901 15.4664C36.0872 15.3085 38.0932 16.5479 38.8487 18.5285C39.5546 20.3776 39.0498 22.6432 37.7099 23.7036Z" fill="#B82B2B"/>
<path d="M34.342 17.1962C34.1756 17.1963 34.0155 17.1322 33.8953 17.0171C33.7751 16.902 33.704 16.745 33.6969 16.5787C33.6939 16.4962 33.7075 16.4139 33.7367 16.3366C33.766 16.2594 33.8103 16.1888 33.8672 16.1289C33.9241 16.069 33.9924 16.0211 34.068 15.988C34.1437 15.9548 34.2251 15.9371 34.3077 15.9358C34.4746 15.931 34.6365 15.9925 34.7582 16.1067C34.8799 16.221 34.9515 16.3787 34.9572 16.5456C34.9572 16.7121 34.8935 16.8723 34.779 16.9933C34.6646 17.1143 34.5082 17.1869 34.342 17.1962Z" fill="#B82B2B"/>
<path d="M14.8038 38.5142C15.0512 37.9542 15.2787 37.4405 15.5041 36.9257C16.1105 35.5372 16.7103 34.1465 17.3256 32.7613C17.4593 32.4609 17.5465 32.1693 17.4515 31.8467C17.3764 31.5937 17.4924 31.5021 17.7299 31.4623C18.7793 31.2856 18.7826 31.2922 18.9052 32.346C19.1935 34.8237 19.4851 37.3013 19.7944 39.7768C19.843 40.1678 19.758 40.3158 19.3437 40.3379C18.4534 40.3843 18.449 40.4064 18.3496 39.5205C18.1408 37.7266 17.9398 35.9327 17.7332 34.1388C17.7166 33.9886 17.6868 33.8394 17.6592 33.6638C17.5421 33.7301 17.53 33.8361 17.4935 33.9245C16.6684 35.9371 15.8277 37.9442 15.0302 39.969C14.8722 40.3711 14.606 40.3589 14.2912 40.3865C13.9543 40.4164 13.9267 40.1579 13.8494 39.9447C13.0923 37.9468 12.3349 35.9496 11.5772 33.9532C11.5363 33.8428 11.5352 33.7047 11.3562 33.6075C11.2458 34.468 11.1408 35.3042 11.0348 36.1415C10.8713 37.4272 10.7078 38.7127 10.5443 39.9977C10.5289 40.1214 10.5874 40.3037 10.3809 40.3291C10.1235 40.3545 9.85837 40.4517 9.60762 40.3412C9.4828 40.286 9.56896 40.1435 9.58774 40.0419C10.0296 37.6426 10.4615 35.2445 10.9133 32.8475C10.974 32.5238 10.9895 32.2201 10.8415 31.924C10.6747 31.5926 10.8117 31.4822 11.1397 31.4579C12.2797 31.3596 12.0234 31.2524 12.3946 32.2123C13.1546 34.1918 13.909 36.1739 14.6579 38.1585C14.7021 38.2557 14.7419 38.3573 14.8038 38.5142Z" fill="#2C3D52"/>
<path d="M28.9187 36.3313C28.9187 35.1858 28.9187 34.0414 28.9187 32.8971C28.9187 32.3072 28.827 32.2078 28.2261 32.1835C28.0715 32.1768 28.014 32.147 27.9908 31.9891C27.9654 31.8112 28.0516 31.7781 28.1908 31.756C29.9703 31.4787 31.7565 31.2843 33.5338 31.714C35.8292 32.2663 36.9327 33.8879 36.6764 36.243C36.4356 38.4522 34.9521 39.9501 32.6998 40.319C31.509 40.5145 30.3337 40.308 29.1518 40.2814C28.8712 40.2748 28.9187 40.0605 28.9187 39.8904C28.9187 38.7055 28.9187 37.5192 28.9187 36.3313ZM30.3028 35.9723V38.704C30.3028 39.8009 30.3028 39.8009 31.4306 39.802C33.1328 39.802 34.3667 39.0564 34.8792 37.6679C35.2757 36.6258 35.2957 35.4778 34.9356 34.4225C34.5224 33.1975 33.6321 32.4795 32.3762 32.2034C31.8581 32.0929 31.3334 32.1271 30.8098 32.1117C30.411 32.1006 30.2895 32.2774 30.2962 32.664C30.3149 33.7653 30.3028 34.8688 30.3028 35.9723Z" fill="#2C3D52"/>
<path d="M50.3482 35.7869C50.2797 37.414 49.9064 38.5827 48.8824 39.4619C47.5138 40.6317 45.0162 40.846 43.4698 39.927C42.2016 39.1736 41.6758 37.9851 41.5764 36.5789C41.466 34.9717 41.7554 33.4926 43.0942 32.41C44.6672 31.1386 47.5767 31.1607 49.0293 32.4631C50.1129 33.4396 50.356 34.732 50.3482 35.7869ZM48.8161 35.9327C48.8062 35.2235 48.6703 34.2592 48.1301 33.402C47.541 32.4675 46.6905 32.0385 45.5785 32.1151C44.5976 32.1825 43.884 32.6785 43.5228 33.5511C42.7882 35.3262 42.8744 37.097 43.9127 38.7329C44.9069 40.307 47.5005 40.3269 48.3886 38.386C48.7046 37.6957 48.8216 36.9677 48.8161 35.9327Z" fill="#2C3D52"/>
<path d="M52.7717 33.6006C52.7717 34.0181 52.7628 34.4158 52.7717 34.8157C52.8136 36.5124 52.8634 38.2091 52.9031 39.9047C52.9031 40.0438 53.0003 40.257 52.8125 40.3067C52.5386 40.3797 52.2392 40.4592 51.9609 40.3432C51.836 40.2924 51.8946 40.1223 51.8968 39.9986C51.9465 37.7783 51.9819 35.5569 52.0625 33.3366C52.0824 32.7942 51.9929 32.3502 51.6295 31.9392C51.3445 31.6178 51.3964 31.5361 51.8283 31.4797C51.8548 31.4797 51.8836 31.4797 51.9101 31.4709C52.6016 31.3096 53.0511 31.5339 53.4864 32.1436C54.8947 34.1187 56.386 36.0363 57.8485 37.9727C57.9192 38.0666 57.959 38.1936 58.1026 38.2267C58.1865 38.1616 58.1434 38.0732 58.1412 38.0058C58.0871 36.0175 58.0308 34.0292 57.9733 32.0475C57.9733 31.9094 57.8772 31.6896 58.0727 31.6532C58.35 31.6034 58.6471 31.4841 58.9211 31.6211C59.0536 31.6874 58.9796 31.8763 58.9763 32.0077C58.9277 34.0771 58.8769 36.146 58.8239 38.2146C58.8117 38.7525 58.8239 39.2916 58.8007 39.8284C58.7918 40.0019 58.9586 40.2869 58.6361 40.3399C58.3401 40.3874 58.0274 40.5034 57.7756 40.1576C57.0631 39.1756 56.323 38.2124 55.594 37.2436L52.9804 33.7663C52.9329 33.7033 52.9031 33.6194 52.7717 33.6006Z" fill="#2C3D52"/>
<path d="M21.7131 36.4275C21.7131 35.3096 21.7131 34.1928 21.7131 33.0749C21.7131 32.5226 21.5927 32.3934 21.0404 32.3702C20.8714 32.3636 20.7951 32.3304 20.773 32.1493C20.751 31.9681 20.8636 31.956 20.994 31.9361C21.6755 31.8256 22.356 31.7152 23.0486 31.7074C24.1941 31.7074 25.3407 31.7141 26.485 31.6909C26.7988 31.6842 26.8971 31.7836 26.8993 32.0819C26.8993 32.5503 26.9346 33.0186 26.9578 33.487C26.9633 33.6063 26.9633 33.7024 26.7988 33.7079C26.6728 33.7145 26.5778 33.7013 26.548 33.5632C26.548 33.5499 26.5392 33.5367 26.537 33.5234C26.2553 32.3183 25.8565 32.3194 24.7762 32.3083C24.3343 32.3083 23.8925 32.315 23.4507 32.3083C23.2187 32.3028 23.0916 32.3569 23.0961 32.6276C23.1071 33.5245 23.1093 34.4215 23.0961 35.3173C23.0961 35.5902 23.2231 35.5935 23.4275 35.5802C24.2007 35.5316 24.9739 35.4963 25.7472 35.4521C25.9891 35.4377 26.2034 35.4422 26.189 35.7746C26.1735 36.053 26.1967 36.3137 25.756 36.2772C25.0004 36.2132 24.2393 36.2231 23.4816 36.18C23.2043 36.1646 23.0939 36.2209 23.1016 36.5291C23.1237 37.3973 23.1226 38.2678 23.1016 39.136C23.0939 39.5061 23.2121 39.6662 23.5976 39.6519C24.1764 39.6298 24.7574 39.6276 25.3362 39.6353C26.0576 39.6441 26.5403 39.3116 26.8175 38.6555C26.8761 38.5163 26.9534 38.3849 27.0086 38.2435C27.0639 38.1021 27.1611 38.133 27.2771 38.1463C27.4262 38.1684 27.4549 38.2479 27.4284 38.3749C27.3179 38.914 27.2075 39.4552 27.0893 39.9921C27.069 40.0885 27.0135 40.174 26.9337 40.2318C26.8538 40.2896 26.7553 40.3156 26.6574 40.3047C25.1109 40.297 23.5644 40.2859 22.018 40.2837C21.7363 40.2837 21.7175 40.1191 21.7186 39.9037C21.7153 38.745 21.7131 37.5862 21.7131 36.4275Z" fill="#2C3D52"/>
<path d="M39.7771 35.9249C39.7771 37.2063 39.7649 38.4876 39.7848 39.7679C39.7914 40.1468 39.6931 40.3014 39.291 40.3334C38.2218 40.4185 38.3963 40.4494 38.3941 39.4873C38.3875 37.3521 38.3941 35.2168 38.3941 33.0805C38.3941 32.3294 38.3797 32.3073 37.6573 32.2067C37.5071 32.1869 37.4795 32.1206 37.4673 31.9991C37.4552 31.8776 37.4883 31.8002 37.633 31.7781C38.2423 31.6632 38.8579 31.585 39.4766 31.544C39.7947 31.5252 39.7804 31.7461 39.7804 31.9604L39.7771 35.9249Z" fill="#2C3D52"/>
</svg>
