<svg xmlns="http://www.w3.org/2000/svg" width="24" height="24" viewBox="0 0 24 24" fill="none">
  <path d="M13.0454 6.22895V4.90552C13.0454 2.36483 3 2.36483 3 4.90552V12.6463C3 13.6451 4.56343 14.2677 6.44427 14.489C5.75632 14.7976 5.31818 15.2143 5.31818 15.7426V18.0648C5.31818 19.3352 7.845 20 10.3409 20C12.8368 20 15.3637 19.3352 15.3637 18.0648V16.8973C17.7273 16.8323 20 16.1733 20 14.9685V8.00185C20 6.39788 15.9976 5.80773 13.0454 6.22895ZM8.02274 3.77272C10.7726 3.77272 12.2727 4.53827 12.2727 4.93182C12.2727 5.32536 10.7725 6.09091 8.02274 6.09091C5.27294 6.09091 3.77275 5.32536 3.77275 4.93182C3.77272 4.5383 5.27291 3.77272 8.02274 3.77272ZM3.77272 6.00698C4.71024 6.57124 6.37089 6.86366 8.0227 6.86366C9.67452 6.86366 11.3352 6.57124 12.2727 6.00698V6.39093C10.93 6.68871 9.95455 7.2325 9.95455 8.02275V8.25134C9.34903 8.34849 8.69541 8.40909 8.02274 8.40909C5.27291 8.40909 3.77275 7.64355 3.77275 7.25V6.00698H3.77272ZM10.7273 13.7342C10.8008 13.7785 10.8773 13.8215 10.9594 13.8623C10.8821 13.8591 10.8049 13.8559 10.7273 13.8539V13.7342ZM3.77272 8.32516C4.71024 8.88942 6.37089 9.18184 8.0227 9.18184C8.6915 9.18184 9.34157 9.12178 9.95451 9.03022V10.9559C9.34899 11.053 8.69537 11.1136 8.0227 11.1136C5.27287 11.1136 3.77272 10.3481 3.77272 9.95456V8.32516ZM3.77272 12.6591V11.0297C4.71024 11.594 6.37089 11.8864 8.0227 11.8864C8.6915 11.8864 9.34157 11.8263 9.95451 11.7348V13.6605C9.34899 13.7576 8.69537 13.8182 8.0227 13.8182C5.27291 13.8182 3.77272 13.0526 3.77272 12.6591ZM14.5909 18.0682C14.5909 18.4617 13.0907 19.2273 10.3409 19.2273C7.59112 19.2273 6.0909 18.4617 6.0909 18.0682V16.8251C7.02842 17.3894 8.68907 17.6818 10.3409 17.6818C11.922 17.6818 13.5134 17.4146 14.4691 16.8969C14.5092 16.8985 14.5506 16.8986 14.5909 16.8999V18.0682H14.5909ZM10.3409 16.9091C7.59109 16.9091 6.09093 16.1436 6.09093 15.75C6.09093 15.3565 7.59112 14.5909 10.3409 14.5909C13.0907 14.5909 14.5909 15.3565 14.5909 15.75C14.5909 16.1436 13.0907 16.9091 10.3409 16.9091ZM19.2273 14.9773C19.2273 15.3512 17.8582 16.0534 15.3636 16.123V15.75C15.3636 15.2673 14.9983 14.8771 14.4091 14.5781C14.598 14.5858 14.7875 14.5909 14.9772 14.5909C16.6291 14.5909 18.2898 14.2985 19.2272 13.7342V14.9773H19.2273ZM19.2273 12.6591C19.2273 13.0527 17.7271 13.8182 14.9773 13.8182C12.2275 13.8182 10.7273 13.0527 10.7273 12.6591V11.4161C11.6648 11.9803 13.3255 12.2727 14.9773 12.2727C16.6291 12.2727 18.2898 11.9803 19.2273 11.4161V12.6591ZM19.2273 10.3409C19.2273 10.7345 17.7271 11.5 14.9773 11.5C12.2275 11.5 10.7273 10.7345 10.7273 10.3409V9.09788C11.6648 9.66214 13.3255 9.95456 14.9773 9.95456C16.6291 9.95456 18.2898 9.66214 19.2273 9.09788V10.3409ZM14.9773 9.18184C12.2275 9.18184 10.7273 8.4163 10.7273 8.02275C10.7273 7.6292 12.2275 6.86366 14.9773 6.86366C17.7271 6.86366 19.2273 7.6292 19.2273 8.02275C19.2273 8.4163 17.7271 9.18184 14.9773 9.18184Z" fill="#808284"/>
</svg>