<svg width="198" height="233" viewBox="0 0 198 233" fill="none" xmlns="http://www.w3.org/2000/svg">
<path fill-rule="evenodd" clip-rule="evenodd" d="M99.5367 186.494L70.1485 157.464C64.8559 159.629 57.6095 162.602 50.0784 165.704V189.811C55.5373 190.514 59.755 195.18 59.755 200.83C59.755 206.966 54.7808 211.94 48.6448 211.94C42.5089 211.94 37.5346 206.966 37.5346 200.83C37.5346 195.18 41.7524 190.514 47.2113 189.811V166.886C33.1714 172.676 18.8789 178.618 14.9559 180.401C8.64813 183.268 5.87655 189.72 5.27923 192.587L0.261719 217.674C19.615 226.634 52.5872 230.576 99.5367 232.368C137.096 233.802 180.653 223.17 197.737 217.674C196.9 212.537 194.726 200.328 192.719 192.587C190.712 184.845 185.91 181.238 183.759 180.401L154.383 168.426L153.233 185.911C156.655 186.852 160.712 189.467 163.327 194.529C166.279 200.243 167.306 208.894 163.833 221.48C163.649 222.149 163.012 222.59 162.321 222.526L156.243 221.971C155.487 221.902 154.916 221.255 154.94 220.497L155.068 216.557L157.934 216.649L157.85 219.239L161.378 219.561C164.348 208.067 163.214 200.558 160.78 195.845C158.264 190.975 154.273 188.912 151.491 188.459C151.44 188.451 151.39 188.44 151.341 188.427C148.572 187.664 144.071 187.921 139.863 191.481C135.773 194.94 131.806 201.655 130.154 213.989L133.786 215.187L134.845 212.543L137.507 213.609L135.946 217.503C135.665 218.205 134.886 218.568 134.167 218.331L128.135 216.343C127.488 216.129 127.08 215.489 127.161 214.812C128.764 201.313 133.048 193.49 138.011 189.292C142.256 185.702 146.879 184.868 150.398 185.323L151.585 167.286L127.491 157.464L99.5367 186.494ZM56.8879 200.83C56.8879 205.382 53.1974 209.073 48.6448 209.073C44.0923 209.073 40.4018 205.382 40.4018 200.83C40.4018 196.277 44.0923 192.587 48.6448 192.587C53.1974 192.587 56.8879 196.277 56.8879 200.83Z" fill="#EDEDED"/>
<path d="M42.1658 86.2657C42.1658 98.8178 31.0084 122.179 25.4297 132.29C56.1125 138.984 71.9188 134.382 75.9866 131.244L102.834 123.922L122.708 131.244C140.002 137.659 163.154 134.614 172.568 132.29C168.849 123.225 160.853 103.211 158.621 95.6798C156.39 88.1486 155.599 76.2706 155.483 71.273V54.8856C155.483 52.0962 154.962 49.0843 154.786 47.9122C151.648 26.9922 129.542 -6.75901 88.5387 1.88797C37.2844 12.6967 42.1658 70.5757 42.1658 86.2657Z" fill="#E6E6E6"/>
<path d="M115.54 49.6039L113.408 45.2427L111.096 49.5112C109.548 52.3697 106.658 55.213 102.737 57.9434C98.8455 60.6532 94.1089 63.1344 89.0885 65.3306C79.0453 69.7241 68.1179 72.8693 61.1512 74.4111L59.1914 74.8448V76.852V114.16V114.431L59.2497 114.696C60.5003 120.387 64.1036 128.712 70.9023 135.544C77.7673 142.443 87.8645 147.783 101.867 147.341C115.862 146.899 125.535 141.002 131.869 133.752C138.14 126.575 141.105 118.124 141.919 112.421L141.944 112.245V112.068V73.714V72.0155L140.365 71.3898C126.282 65.8096 117.887 54.4038 115.54 49.6039Z" fill="white" stroke="#E6E6E6" stroke-width="5"/>
</svg>
