<svg xmlns="http://www.w3.org/2000/svg" width="48" height="48" viewBox="0 0 48 48" fill="none">
  <path d="M23.9998 0C18.8278 0 14.6211 4.20784 14.6211 9.37989V14.2394C14.6211 19.4118 18.8278 23.6197 23.9998 23.6197C29.1723 23.6197 33.3786 19.4118 33.3786 14.2394V9.37989C33.3787 4.20784 29.1723 0 23.9998 0Z" fill="white"/>
  <path d="M44.6834 35.8425C41.6802 30.7246 36.8798 26.9303 31.1667 25.1585C31.0343 25.1174 30.891 25.1524 30.7923 25.2499C28.1347 27.8703 24.8323 29.9147 24.0067 30.4085C23.1255 29.8452 19.4134 27.4256 17.2065 25.2499C17.1082 25.1524 16.9638 25.1174 16.8321 25.1585C11.1182 26.9307 6.31829 30.725 3.3162 35.8429C3.24746 35.96 3.24746 36.1055 3.3162 36.2226C7.57933 43.4871 15.5046 47.9998 23.9994 47.9998C32.4946 47.9998 40.4203 43.4871 44.6834 36.2226C44.7525 36.1051 44.7525 35.9596 44.6834 35.8425ZM36.7554 38.6403C36.7554 38.8473 36.5584 39.0055 36.3518 39.0055H33.8117C33.6047 39.0055 33.3789 39.1833 33.3789 39.3906V42.0175C33.3789 42.2241 33.2683 42.3819 33.0614 42.3819H30.78C30.5731 42.3819 30.378 42.2241 30.378 42.0175V39.3906C30.3772 39.1836 30.2359 39.0055 30.0289 39.0055H27.3794C27.1724 39.0055 27.0011 38.8469 27.0011 38.6403V36.3785C27.0011 36.1716 27.1724 36.0045 27.3794 36.0045H30.0289C30.2359 36.0045 30.3772 35.8356 30.3772 35.6282V32.9982C30.3772 32.7912 30.5723 32.628 30.7793 32.628H33.036C33.2426 32.628 33.3786 32.7912 33.3786 32.9982V35.6359C33.3786 35.8432 33.579 36.0041 33.7864 36.0041H36.3518C36.5584 36.0041 36.7554 36.1792 36.7554 36.3862V38.6403Z" fill="white"/>
</svg>