<svg width="24" height="24" viewBox="0 0 24 24" fill="none" xmlns="http://www.w3.org/2000/svg">
<path d="M17.8019 3.35898H14.5853C14.2208 2.53305 13.403 2 12.5001 2C11.5971 2 10.7793 2.53305 10.4148 3.35898H7.19805C5.98464 3.36039 5.00141 4.34378 5 5.55719V19.8168C5.00141 21.0302 5.98464 22.0135 7.19805 22.015H17.8019C19.0153 22.0135 19.9987 21.0302 20.0001 19.8168V5.55719C19.9987 4.34378 19.0153 3.36039 17.8019 3.35898ZM10.7768 4.35973C11.0117 4.35973 11.215 4.19633 11.2655 3.96663C11.3884 3.40715 11.9077 3.00075 12.5001 3.00075C13.0926 3.00075 13.6117 3.40715 13.7347 3.96663C13.785 4.19633 13.9883 4.35973 14.2235 4.35973H15.2156V4.79881C15.2148 5.45977 14.6793 5.99533 14.0183 5.99611H10.9818C10.3207 5.99533 9.78514 5.45977 9.78436 4.79881V4.35973H10.7768ZM18.9994 19.8168C18.9987 20.4779 18.463 21.0136 17.8019 21.0142H7.19805C6.53709 21.0136 6.00153 20.4779 6.00075 19.8168V5.55719C6.00153 4.89607 6.53709 4.36051 7.19805 4.35973H8.78361V4.79881C8.78502 6.01222 9.76841 6.99545 10.9818 6.99686H14.0183C15.2317 6.99545 16.2149 6.01222 16.2164 4.79881V4.35973H17.8019C18.463 4.36051 18.9986 4.89607 18.9994 5.55719V19.8168Z" fill="black"/>
<path fill-rule="evenodd" clip-rule="evenodd" d="M8.21771 11.4799C8.21771 11.2343 8.41685 11.0352 8.66249 11.0352H16.6685C16.9141 11.0352 17.1132 11.2343 17.1132 11.4799C17.1132 11.7256 16.9141 11.9247 16.6685 11.9247H8.66249C8.41685 11.9247 8.21771 11.7256 8.21771 11.4799Z" fill="black"/>
<path fill-rule="evenodd" clip-rule="evenodd" d="M8.21771 14.3686C8.21771 14.123 8.41685 13.9238 8.66249 13.9238H16.6685C16.9141 13.9238 17.1132 14.123 17.1132 14.3686C17.1132 14.6142 16.9141 14.8134 16.6685 14.8134H8.66249C8.41685 14.8134 8.21771 14.6142 8.21771 14.3686Z" fill="black"/>
<path fill-rule="evenodd" clip-rule="evenodd" d="M8.21771 17.2592C8.21771 17.0136 8.41685 16.8145 8.66249 16.8145H16.6685C16.9141 16.8145 17.1132 17.0136 17.1132 17.2592C17.1132 17.5049 16.9141 17.704 16.6685 17.704H8.66249C8.41685 17.704 8.21771 17.5049 8.21771 17.2592Z" fill="black"/>
</svg>
