<svg width="24" height="24" viewBox="0 0 24 24" fill="none" xmlns="http://www.w3.org/2000/svg">
<path d="M18.7058 15.7275C17.7025 14.5 16.995 13.875 16.995 10.49C16.995 7.39 15.4117 6.28667 14.1092 5.75C14.0191 5.71232 13.938 5.65613 13.8711 5.58506C13.8042 5.51399 13.753 5.42965 13.7208 5.3375C13.4917 4.56 12.8517 3.875 12 3.875C11.1483 3.875 10.5075 4.56083 10.2808 5.33833C10.2489 5.43053 10.1978 5.5149 10.1309 5.58587C10.0639 5.65683 9.98268 5.71278 9.8925 5.75C8.58833 6.2875 7.00666 7.3875 7.00666 10.49C7.005 13.875 6.29666 14.5 5.29333 15.7275C4.8775 16.2358 5.24166 17 5.96833 17H18.035C18.7575 17 19.1192 16.2333 18.7058 15.7275Z" stroke="#323232" stroke-width="1.5" stroke-linecap="round" stroke-linejoin="round"/>
<path d="M14.5 17V17.625C14.5 18.288 14.2366 18.9239 13.7678 19.3928C13.2989 19.8616 12.663 20.125 12 20.125C11.337 20.125 10.7011 19.8616 10.2322 19.3928C9.76339 18.9239 9.5 18.288 9.5 17.625V17" stroke="#323232" stroke-width="1.5" stroke-linecap="round" stroke-linejoin="round"/>
</svg>
