<svg width="48" height="49" viewBox="0 0 48 49" fill="none" xmlns="http://www.w3.org/2000/svg">
<rect y="0.558594" width="48" height="48" rx="10" fill="#D90506" fill-opacity="0.05"/>
<g clip-path="url(#clip0_2180_8928)">
<path d="M7.49805 10.2342H11.159L12.3756 11.3977L10.8988 12.8745C9.99798 13.7755 9.99798 15.2415 10.8988 16.1425L11.6166 16.8603L10.8842 17.5927C10.7792 17.6977 10.7266 17.844 10.7405 17.9917C10.7545 18.1396 10.8336 18.2734 10.9564 18.3568L12.1845 19.1916C12.5073 19.4112 12.8781 19.5185 13.2472 19.5185C13.675 19.5185 14.1004 19.3741 14.4449 19.0927L14.7422 19.39C14.9579 19.6056 15.2445 19.7244 15.5495 19.7244C15.8544 19.7244 16.141 19.6056 16.3567 19.3899L17.0317 18.7148C17.2473 18.4993 17.3661 18.2126 17.3661 17.9077C17.3661 17.6027 17.2473 17.316 17.0317 17.1005L16.7412 16.81L16.9625 16.5887L17.253 16.8792C17.4686 17.0948 17.7553 17.2135 18.0602 17.2135C18.3652 17.2135 18.6518 17.0948 18.8675 16.8792L19.5425 16.2042C19.9876 15.759 19.9876 15.0347 19.5425 14.5896L19.252 14.2991L19.4733 14.0778L19.7638 14.3684C19.9864 14.5909 20.2787 14.702 20.571 14.702C20.8633 14.702 21.1557 14.5908 21.3783 14.3684L22.0534 13.6933C22.4984 13.2482 22.4984 12.524 22.0533 12.0787L21.7561 11.7815C22.2801 11.1399 22.329 10.2182 21.8551 9.5211L21.0202 8.29291C20.9367 8.17013 20.8029 8.09104 20.6551 8.07709C20.5084 8.06335 20.3611 8.11581 20.2561 8.22073L19.5236 8.95312L18.8059 8.23541C18.3694 7.79898 17.7892 7.55859 17.1719 7.55859C16.5546 7.55859 15.9743 7.79898 15.5379 8.23541L13.08 10.6932L11.703 9.37627C11.6103 9.28761 11.4871 9.23814 11.3588 9.23814H7.49805C7.22293 9.23814 7 9.46107 7 9.73619C7 10.0113 7.22293 10.2342 7.49805 10.2342ZM16.3274 17.8047C16.3626 17.8399 16.37 17.8801 16.37 17.9076C16.37 17.9351 16.3626 17.9753 16.3274 18.0105C16.3274 18.0105 16.3273 18.0105 16.3273 18.0105L15.6523 18.6856C15.5956 18.7424 15.5031 18.7423 15.4465 18.6856L15.1559 18.3951L16.0368 17.5142L16.3274 17.8047ZM18.8382 15.2939C18.8949 15.3506 18.8949 15.4429 18.8382 15.4997L18.1631 16.1747C18.1064 16.2315 18.0141 16.2315 17.9574 16.1747L17.6668 15.8842L18.5477 15.0033L18.8382 15.2939ZM21.349 12.9888L20.674 13.6639C20.6172 13.7205 20.5248 13.7206 20.4681 13.6639L20.1776 13.3734L21.0585 12.4925L21.349 12.783C21.4058 12.8397 21.4058 12.9321 21.349 12.9888ZM20.5348 9.35063L21.0314 10.081C21.2729 10.4363 21.2277 10.9146 20.9239 11.2184C20.1124 12.0299 14.6133 17.5289 13.8818 18.2604C13.5782 18.5642 13.0998 18.6093 12.7445 18.3679L12.0141 17.8714C13.91 15.9755 19.4584 10.4271 20.5348 9.35063ZM16.2423 8.93978C16.4906 8.69148 16.8208 8.55469 17.1719 8.55469C17.5231 8.55469 17.8532 8.69148 18.1015 8.93984L18.8192 9.6575L12.321 16.1558L11.6033 15.438C11.0906 14.9254 11.0906 14.0914 11.6033 13.5788L16.2423 8.93978Z" fill="#D90506"/>
<path d="M28.1034 11.8652H26.9463C26.6712 11.8652 26.4482 12.0882 26.4482 12.3633C26.4482 12.6384 26.6712 12.8613 26.9463 12.8613H28.1034C28.3785 12.8613 28.6015 12.6384 28.6015 12.3633C28.6015 12.0882 28.3785 11.8652 28.1034 11.8652Z" fill="#D90506"/>
<path d="M28.1034 13.6934H26.9463C26.6712 13.6934 26.4482 13.9163 26.4482 14.1914C26.4482 14.4665 26.6712 14.6895 26.9463 14.6895H28.1034C28.3785 14.6895 28.6015 14.4665 28.6015 14.1914C28.6015 13.9163 28.3785 13.6934 28.1034 13.6934Z" fill="#D90506"/>
<path d="M28.1034 15.5215H26.9463C26.6712 15.5215 26.4482 15.7444 26.4482 16.0195C26.4482 16.2947 26.6712 16.5176 26.9463 16.5176H28.1034C28.3785 16.5176 28.6015 16.2947 28.6015 16.0195C28.6015 15.7444 28.3785 15.5215 28.1034 15.5215Z" fill="#D90506"/>
<path d="M28.1034 17.3516H26.9463C26.6712 17.3516 26.4482 17.5745 26.4482 17.8496C26.4482 18.1247 26.6712 18.3477 26.9463 18.3477H28.1034C28.3785 18.3477 28.6015 18.1247 28.6015 17.8496C28.6015 17.5745 28.3785 17.3516 28.1034 17.3516Z" fill="#D90506"/>
<path d="M35.3568 15.3026C35.2285 15.1629 35.0323 15.1083 34.8503 15.1615C34.6684 15.2147 34.5324 15.3665 34.4995 15.5532L34.2394 17.0316L32.9782 14.2757C32.9053 14.1165 32.754 14.0071 32.5799 13.9879C32.4059 13.9689 32.2344 14.0424 32.1285 14.182L31.1118 15.5226H29.9014C29.6262 15.5226 29.4033 15.7456 29.4033 16.0207C29.4033 16.2958 29.6262 16.5187 29.9014 16.5187H31.359C31.5149 16.5187 31.6617 16.4457 31.7559 16.3216L32.4189 15.4475L33.9996 18.9014C34.0813 19.0802 34.2594 19.1922 34.4522 19.1922C34.4732 19.1922 34.4944 19.1909 34.5157 19.1882C34.732 19.1604 34.9051 18.9953 34.9429 18.7805L35.3056 16.7193L35.495 16.9255C35.6045 17.0447 35.7652 17.1034 35.9258 17.0824C36.0864 17.0616 36.2268 16.964 36.3023 16.8208L36.8029 15.8716L36.8242 16.0731C36.851 16.3263 37.0647 16.5187 37.3195 16.5187H38.3237C38.5988 16.5187 38.8217 16.2957 38.8217 16.0206C38.8217 15.7455 38.5988 15.5226 38.3237 15.5226H37.7676L37.6211 14.139C37.598 13.921 37.4351 13.7437 37.2199 13.7023C37.0044 13.6611 36.7875 13.7652 36.6853 13.9591L35.7507 15.7313L35.3568 15.3026Z" fill="#D90506"/>
<path d="M39.1566 25.8119H22.6801C22.405 25.8119 22.1821 26.0349 22.1821 26.31C22.1821 26.5851 22.405 26.808 22.6801 26.808H39.1566C39.6238 26.808 40.0039 27.1881 40.0039 27.6554V28.4471H7.99609V27.6554C7.99609 27.1881 8.3762 26.808 8.84344 26.808H20.6888C20.9639 26.808 21.1868 26.5851 21.1868 26.31C21.1868 26.0349 20.9639 25.8119 20.6888 25.8119H13.9949V25.1545C13.9949 24.4231 13.3999 23.8281 12.6685 23.8281H10.0491C9.31771 23.8281 8.72271 24.4231 8.72271 25.1545V25.8159C7.76228 25.8782 7 26.6795 7 27.6554V28.9452C7 29.2203 7.22293 29.4432 7.49805 29.4432H9.18941V29.9686C9.18941 30.8937 9.94193 31.6463 10.867 31.6463H13.7508C14.0259 31.6463 14.2488 31.4233 14.2488 31.1482C14.2488 30.8731 14.0259 30.6502 13.7508 30.6502H10.8669C10.4912 30.6502 10.1854 30.3444 10.1854 29.9686V29.4432H37.8146V29.9686C37.8146 30.3444 37.5088 30.6502 37.133 30.6502C34.8791 30.6502 18.4828 30.6502 15.7421 30.6502C15.4669 30.6502 15.244 30.8731 15.244 31.1482C15.244 31.4233 15.4669 31.6463 15.7421 31.6463H19.3884L21.4803 32.9733L19.3591 33.7639C19.1642 33.8365 19.0349 34.0226 19.0349 34.2305V35.7083H14.838C14.1284 35.7083 13.5511 36.2856 13.5511 36.9952V38.4066C12.9033 38.6171 12.4336 39.2265 12.4336 39.9437C12.4336 40.8345 13.1583 41.5592 14.0492 41.5592C14.94 41.5592 15.6648 40.8345 15.6648 39.9437C15.6648 39.2265 15.1951 38.6171 14.5472 38.4066V36.9952C14.5472 36.8349 14.6776 36.7044 14.838 36.7044H32.1415C32.3018 36.7044 32.4323 36.8349 32.4323 36.9952V38.4066C31.7845 38.6171 31.3148 39.2265 31.3148 39.9437C31.3148 40.8345 32.0395 41.5592 32.9304 41.5592C33.8212 41.5592 34.546 40.8345 34.546 39.9437C34.546 39.2265 34.0763 38.6171 33.4284 38.4066V36.9952C33.4284 36.2856 32.8512 35.7083 32.1415 35.7083H27.6513L23.7072 33.2063L27.8933 31.6462H37.133C38.058 31.6462 38.8106 30.8936 38.8106 29.9686V29.4432H40.502C40.7771 29.4432 41 29.2202 41 28.9451V27.6553C41 26.6389 40.173 25.8119 39.1566 25.8119ZM9.7188 25.1545C9.7188 24.9724 9.86696 24.8242 10.0491 24.8242H12.6685C12.8506 24.8242 12.9988 24.9724 12.9988 25.1545V25.8119H9.7188V25.1545ZM14.0492 40.5631C13.7076 40.5631 13.4297 40.2852 13.4297 39.9437C13.4297 39.6038 13.7048 39.327 14.044 39.3243C14.0458 39.3243 14.0474 39.3244 14.0492 39.3244C14.0509 39.3244 14.0526 39.3243 14.0543 39.3243C14.3935 39.3271 14.6687 39.6038 14.6687 39.9437C14.6687 40.2852 14.3908 40.5631 14.0492 40.5631ZM32.9304 40.5631C32.5888 40.5631 32.3109 40.2852 32.3109 39.9437C32.3109 39.6038 32.5861 39.327 32.9253 39.3243C32.927 39.3243 32.9287 39.3244 32.9304 39.3244C32.9321 39.3244 32.9338 39.3243 32.9355 39.3243C33.2748 39.3271 33.5499 39.6038 33.5499 39.9437C33.5499 40.2852 33.272 40.5631 32.9304 40.5631ZM25.7919 35.7084H20.0311V34.5765L22.5359 33.643L25.7919 35.7084ZM22.6518 32.5368L21.2479 31.6462H25.0413L22.6518 32.5368Z" fill="#D90506"/>
<path d="M39.7814 10.0664H37.3265C37.0514 10.0664 36.8285 10.2893 36.8285 10.5645C36.8285 10.8396 37.0514 11.0625 37.3265 11.0625H39.7814C39.9039 11.0625 40.0036 11.1622 40.0036 11.2847V20.4424C40.0036 20.565 39.9039 20.6647 39.7814 20.6647H25.6744C25.5518 20.6647 25.4521 20.565 25.4521 20.4424V11.2847C25.4521 11.1622 25.5518 11.0625 25.6744 11.0625H35.3352C35.6103 11.0625 35.8332 10.8396 35.8332 10.5645C35.8332 10.2893 35.6103 10.0664 35.3352 10.0664H25.6744C25.0026 10.0664 24.4561 10.6129 24.4561 11.2847V20.4424C24.4561 21.1142 25.0026 21.6608 25.6744 21.6608H39.7814C40.4532 21.6608 40.9997 21.1143 40.9997 20.4424V11.2847C40.9996 10.6129 40.4532 10.0664 39.7814 10.0664Z" fill="#D90506"/>
</g>
<defs>
<clipPath id="clip0_2180_8928">
<rect width="34" height="34" fill="white" transform="translate(7 7.55859)"/>
</clipPath>
</defs>
</svg>
