<svg xmlns="http://www.w3.org/2000/svg" width="110" height="153" viewBox="0 0 110 153" fill="none">
  <g opacity="0.1">
    <g style="mix-blend-mode:multiply">
      <g style="mix-blend-mode:multiply">
        <g style="mix-blend-mode:multiply">
          <g style="mix-blend-mode:multiply">
            <g style="mix-blend-mode:multiply">
              <path fill-rule="evenodd" clip-rule="evenodd" d="M22.5801 59.2447L22.5575 59.2334L12.5083 53.4362V41.808L12.5309 41.7855L22.5801 35.9883L22.6026 35.9996L32.6518 41.808V53.4362L32.6406 53.4475L22.5801 59.2447ZM12.5873 53.3798L22.5801 59.1432L32.5616 53.3798V41.8419L22.5801 36.0785L12.5873 41.8419V53.3798Z" fill="#F2484D"/>
            </g>
          </g>
          <g style="mix-blend-mode:multiply">
            <g style="mix-blend-mode:multiply">
              <path fill-rule="evenodd" clip-rule="evenodd" d="M32.6177 111.366L32.5952 111.355L22.5347 105.557V93.9178L22.5572 93.9066L32.6177 88.1094L32.6403 88.1207L42.6895 93.9178V105.557L42.6669 105.569L32.6177 111.366ZM22.6249 105.501L32.6177 111.264L42.5993 105.501V93.963L32.6177 88.1996L22.6249 93.963V105.501Z" fill="#F2484D"/>
            </g>
          </g>
          <g style="mix-blend-mode:multiply">
            <g style="mix-blend-mode:multiply">
              <path fill-rule="evenodd" clip-rule="evenodd" d="M22.5801 128.731L22.5575 128.72L12.5083 122.923V111.283L12.5309 111.272L22.5801 105.475L22.6026 105.486L32.6518 111.283V122.923L32.6406 122.934L22.5801 128.731ZM12.5873 122.866L22.5801 128.63L32.5616 122.866V111.328L22.5801 105.565L12.5873 111.328V122.866Z" fill="#F2484D"/>
            </g>
          </g>
          <g style="mix-blend-mode:multiply">
            <g style="mix-blend-mode:multiply">
              <path fill-rule="evenodd" clip-rule="evenodd" d="M42.6448 128.731L42.6222 128.72L32.573 122.923V111.283L32.5956 111.272L42.6448 105.475L42.6673 105.486L52.7165 111.283V122.923L52.694 122.934L42.6448 128.731ZM32.6632 122.866L42.6448 128.63L52.6263 122.866V111.328L42.6448 105.565L32.6632 111.328V122.866Z" fill="#F2484D"/>
            </g>
          </g>
          <g style="mix-blend-mode:multiply">
            <g style="mix-blend-mode:multiply">
              <path fill-rule="evenodd" clip-rule="evenodd" d="M62.698 128.731L62.6754 128.72L52.6262 122.923V111.283L52.6488 111.272L62.698 105.475L62.7205 105.486L72.7698 111.283V122.923L72.7585 122.934L62.698 128.731ZM52.7052 122.866L62.698 128.63L72.6795 122.866V111.328L62.698 105.565L52.7052 111.328V122.866Z" fill="#F2484D"/>
            </g>
          </g>
          <g style="mix-blend-mode:multiply">
            <g style="mix-blend-mode:multiply">
              <path fill-rule="evenodd" clip-rule="evenodd" d="M82.7624 128.731L82.7399 128.72L72.6907 122.923V111.283L72.7132 111.272L82.7624 105.475L82.785 105.486L92.8342 111.283V122.923L92.8116 122.934L82.7624 128.731ZM72.7809 122.866L82.7624 128.63L92.744 122.866V111.328L82.7624 105.565L72.7809 111.328V122.866Z" fill="#F2484D"/>
            </g>
          </g>
          <g style="mix-blend-mode:multiply">
            <g style="mix-blend-mode:multiply">
              <path fill-rule="evenodd" clip-rule="evenodd" d="M32.6182 146.111L32.5956 146.1L22.5352 140.292V128.663L22.5577 128.652L32.6182 122.844L32.6408 122.855L42.69 128.663V140.292L42.6674 140.303L32.6182 146.111ZM22.6254 140.247L32.6182 146.01L42.5997 140.247V128.72L32.6182 122.945L22.6254 128.72V140.247Z" fill="#F2484D"/>
            </g>
          </g>
          <g style="mix-blend-mode:multiply">
            <g style="mix-blend-mode:multiply">
              <path fill-rule="evenodd" clip-rule="evenodd" d="M52.6716 146.111L52.6491 146.1L42.5999 140.292V128.663L42.6224 128.652L52.6716 122.844L52.6942 122.855L62.7434 128.663V140.292L62.7208 140.303L52.6716 146.111ZM42.6901 140.247L52.6716 146.01L62.6644 140.247V128.72L52.6716 122.945L42.6901 128.72V140.247Z" fill="#F2484D"/>
            </g>
          </g>
          <g style="mix-blend-mode:multiply">
            <g style="mix-blend-mode:multiply">
              <path fill-rule="evenodd" clip-rule="evenodd" d="M72.7359 146.111L72.7133 146.1L62.6528 140.292V128.663L62.6754 128.652L72.7359 122.844L72.7584 122.855L82.8076 128.663V140.292L82.7851 140.303L72.7359 146.111ZM62.7431 140.247L72.7359 146.01L82.7174 140.247V128.72L72.7359 122.945L62.7431 128.72V140.247Z" fill="#F2484D"/>
            </g>
          </g>
          <g style="mix-blend-mode:multiply">
            <g style="mix-blend-mode:multiply">
              <path d="M13 152.384V145.82L13.0226 145.808L23.0718 140L23.0943 140.011L33.1435 145.82V152.384H33.0646V145.865L23.0718 140.101L13.0902 145.865V152.384H13Z" fill="#F2484D"/>
            </g>
          </g>
          <g style="mix-blend-mode:multiply">
            <g style="mix-blend-mode:multiply">
              <path d="M32.5728 152.599V146.035L32.5953 146.023L42.6445 140.215L42.6671 140.226L52.7163 146.035V152.599H52.6261V146.08L42.6445 140.316L32.6517 146.08V152.599H32.5728Z" fill="#F2484D"/>
            </g>
          </g>
          <g style="mix-blend-mode:multiply">
            <g style="mix-blend-mode:multiply">
              <path d="M52.626 152.599V146.035L52.6485 146.023L62.6977 140.215L62.7203 140.226L72.7695 146.035V152.599H72.6906V146.08L62.6977 140.316L52.7162 146.08V152.599H52.626Z" fill="#F2484D"/>
            </g>
          </g>
          <g style="mix-blend-mode:multiply">
            <g style="mix-blend-mode:multiply">
              <path d="M72.6909 152.599V146.035L72.7135 146.023L82.7627 140.215L82.7852 140.226L92.8344 146.035V152.599H92.7442V146.08L82.7627 140.316L72.7699 146.08V152.599H72.6909Z" fill="#F2484D"/>
            </g>
          </g>
        </g>
        <g style="mix-blend-mode:multiply">
          <g style="mix-blend-mode:multiply">
            <g style="mix-blend-mode:multiply">
              <path d="M6.56413 62.6959V78.046L0 81.8356V81.3168L6.11299 77.7866V62.9553L0 59.4251V58.9062L6.56413 62.6959Z" fill="#F2484D"/>
            </g>
          </g>
          <g style="mix-blend-mode:multiply">
            <g style="mix-blend-mode:multiply">
              <path fill-rule="evenodd" clip-rule="evenodd" d="M19.4105 85.7272L6.11304 78.0465V62.6963L19.4105 55.0156L32.7079 62.6963V78.0465L19.4105 85.7272ZM6.56418 77.7871L19.4105 85.2084L32.2568 77.7871V62.9557L19.4105 55.5457L6.56418 62.9557V77.7871Z" fill="#F2484D"/>
            </g>
          </g>
          <g style="mix-blend-mode:multiply">
            <g style="mix-blend-mode:multiply">
              <path fill-rule="evenodd" clip-rule="evenodd" d="M45.5543 85.7272L32.2568 78.0465V62.6963L45.5543 55.0156L58.8517 62.6963V78.0465L45.5543 85.7272ZM32.708 77.7871L45.5543 85.2084L58.4006 77.7871V62.9557L45.5543 55.5457L32.708 62.9557V77.7871Z" fill="#F2484D"/>
            </g>
          </g>
          <g style="mix-blend-mode:multiply">
            <g style="mix-blend-mode:multiply">
              <path d="M19.636 85.3331V100.694L6.33856 108.364L0 104.71V104.18L6.33856 107.845L19.1849 100.424V85.5925L6.33856 78.1824L0 81.8367V81.3179L6.33856 77.6523L19.636 85.3331Z" fill="#F2484D"/>
            </g>
          </g>
          <g style="mix-blend-mode:multiply">
            <g style="mix-blend-mode:multiply">
              <path fill-rule="evenodd" clip-rule="evenodd" d="M32.4827 108.364L19.1853 100.694V85.3331L32.4827 77.6523L45.7802 85.3331V100.694L32.4827 108.364ZM19.6364 100.424L32.4827 107.834L45.329 100.424V85.5925L32.4827 78.1712L19.6364 85.5925V100.424Z" fill="#F2484D"/>
            </g>
          </g>
          <g style="mix-blend-mode:multiply">
            <g style="mix-blend-mode:multiply">
              <path fill-rule="evenodd" clip-rule="evenodd" d="M58.6263 108.364L45.3289 100.694V85.3331L58.6263 77.6523L71.9237 85.3331V100.694L58.6263 108.364ZM45.78 100.424L58.6263 107.834L71.4726 100.424V85.5925L58.6263 78.1712L45.78 85.5925V100.424Z" fill="#F2484D"/>
            </g>
          </g>
          <g style="mix-blend-mode:multiply">
            <g style="mix-blend-mode:multiply">
              <path d="M6.56413 107.979V123.329L0 127.118V126.6L6.11299 123.069V108.238L0 104.708V104.178L6.56413 107.979Z" fill="#F2484D"/>
            </g>
          </g>
          <g style="mix-blend-mode:multiply">
            <g style="mix-blend-mode:multiply">
              <path fill-rule="evenodd" clip-rule="evenodd" d="M19.4105 131.01L6.11304 123.33V107.98L19.4105 100.299L32.7079 107.98V123.33L19.4105 131.01ZM6.56418 123.07L19.4105 130.492L32.2568 123.07V108.239L19.4105 100.829L6.56418 108.239V123.07Z" fill="#F2484D"/>
            </g>
          </g>
          <g style="mix-blend-mode:multiply">
            <g style="mix-blend-mode:multiply">
              <path fill-rule="evenodd" clip-rule="evenodd" d="M45.5543 131.01L32.2568 123.33V107.98L45.5543 100.299L58.8517 107.98V123.33L45.5543 131.01ZM32.708 123.07L45.5543 130.492L58.4006 123.07V108.239L45.5543 100.829L32.708 108.239V123.07Z" fill="#F2484D"/>
            </g>
          </g>
          <g style="mix-blend-mode:multiply">
            <g style="mix-blend-mode:multiply">
              <path d="M0 149.463L5.43627 152.598H4.52271L0 149.993V149.463Z" fill="#F2484D"/>
            </g>
            <g style="mix-blend-mode:multiply">
              <path d="M19.636 130.616V145.966L8.15441 152.598H7.25212L19.1849 145.707V130.876L6.33856 123.466L0 127.12V126.601L6.33856 122.936L19.636 130.616Z" fill="#F2484D"/>
            </g>
          </g>
          <g style="mix-blend-mode:multiply">
            <g style="mix-blend-mode:multiply">
              <path d="M30.6669 152.598L19.1853 145.966V130.616L32.4827 122.936L45.7802 130.616V145.966L34.2986 152.598H33.3963L45.329 145.707V130.876L32.4827 123.466L19.6364 130.876V145.707L31.5805 152.598H30.6669Z" fill="#F2484D"/>
            </g>
          </g>
          <g style="mix-blend-mode:multiply">
            <g style="mix-blend-mode:multiply">
              <path d="M56.8104 152.598L45.3289 145.966V130.616L58.6263 122.936L71.9237 130.616V145.966L60.4421 152.598H59.5286L71.4726 145.707V130.876L58.6263 123.466L45.78 130.876V145.707L57.7127 152.598H56.8104Z" fill="#F2484D"/>
            </g>
          </g>
          <g style="mix-blend-mode:multiply">
            <g style="mix-blend-mode:multiply">
              <path d="M5.43627 152.596H4.52271L0 149.991V149.461L5.43627 152.596Z" fill="#F2484D"/>
            </g>
          </g>
          <g style="mix-blend-mode:multiply">
            <g style="mix-blend-mode:multiply">
              <path d="M7.25244 152.597L19.4107 145.57L31.5803 152.597H30.6668L19.4107 146.1L8.15473 152.597H7.25244Z" fill="#F2484D"/>
            </g>
          </g>
          <g style="mix-blend-mode:multiply">
            <g style="mix-blend-mode:multiply">
              <path d="M33.396 152.597L45.5543 145.57L57.7126 152.597H56.8103L45.5543 146.1L34.2983 152.597H33.396Z" fill="#F2484D"/>
            </g>
          </g>
          <g style="mix-blend-mode:multiply">
            <g style="mix-blend-mode:multiply">
              <path d="M59.5283 152.597L71.6979 145.57L83.8562 152.597H82.9539L71.6979 146.1L60.4419 152.597H59.5283Z" fill="#F2484D"/>
            </g>
          </g>
          <g style="mix-blend-mode:multiply">
            <g style="mix-blend-mode:multiply">
              <path d="M85.6721 152.597L97.8417 145.57L110 152.597H109.098L97.8417 146.1L86.5857 152.597H85.6721Z" fill="#F2484D"/>
            </g>
          </g>
        </g>
        <g style="mix-blend-mode:multiply">
          <g style="mix-blend-mode:multiply">
            <path d="M31.896 41.8312C31.896 41.4252 32.2118 41.1094 32.6178 41.1094C33.0126 41.1094 33.3397 41.4252 33.3397 41.8312C33.3397 42.226 33.0126 42.553 32.6178 42.553C32.2118 42.553 31.896 42.226 31.896 41.8312Z" fill="#F2484D"/>
          </g>
          <g style="mix-blend-mode:multiply">
            <path d="M92.665 18.6651C92.665 18.5974 92.7214 18.541 92.7891 18.541C92.8568 18.541 92.9132 18.5974 92.9132 18.6651C92.9132 18.7328 92.8568 18.7891 92.7891 18.7891C92.7214 18.7891 92.665 18.7328 92.665 18.6651Z" fill="#F2484D"/>
          </g>
          <g style="mix-blend-mode:multiply">
            <path d="M23.5049 59.2002C23.5049 59.7078 23.0989 60.1251 22.5801 60.1251C22.0725 60.1251 21.6665 59.7078 21.6665 59.2002C21.6665 58.6927 22.0725 58.2754 22.5801 58.2754C23.0989 58.2754 23.5049 58.6927 23.5049 59.2002Z" fill="#F2484D"/>
          </g>
          <g style="mix-blend-mode:multiply">
            <path d="M11.978 53.4146C11.978 53.0875 12.2374 52.8281 12.5532 52.8281C12.8803 52.8281 13.1397 53.0875 13.1397 53.4146C13.1397 53.7304 12.8803 53.9898 12.5532 53.9898C12.2374 53.9898 11.978 53.7304 11.978 53.4146Z" fill="#F2484D"/>
          </g>
          <g style="mix-blend-mode:multiply">
            <path d="M12.1133 41.8305C12.1133 41.5824 12.3163 41.3906 12.5531 41.3906C12.8013 41.3906 12.993 41.5824 12.993 41.8305C12.993 42.0673 12.8013 42.2704 12.5531 42.2704C12.3163 42.2704 12.1133 42.0673 12.1133 41.8305Z" fill="#F2484D"/>
          </g>
          <g style="mix-blend-mode:multiply">
            <path d="M23.9331 36.0336C23.9331 36.7779 23.3241 37.387 22.5797 37.387C21.8353 37.387 21.2375 36.7779 21.2375 36.0336C21.2375 35.2892 21.8353 34.6914 22.5797 34.6914C23.3241 34.6914 23.9331 35.2892 23.9331 36.0336Z" fill="#F2484D"/>
          </g>
          <g style="mix-blend-mode:multiply">
            <path d="M31.4788 53.4145C31.4788 52.7829 31.9863 52.2754 32.6179 52.2754C33.2382 52.2754 33.7458 52.7829 33.7458 53.4145C33.7458 54.0348 33.2382 54.5424 32.6179 54.5424C31.9863 54.5424 31.4788 54.0348 31.4788 53.4145Z" fill="#F2484D"/>
          </g>
          <g style="mix-blend-mode:multiply">
            <path d="M23.6403 93.9376C23.6403 94.5241 23.1666 94.9978 22.5802 94.9978C22.0049 94.9978 21.5312 94.5241 21.5312 93.9376C21.5312 93.3624 22.0049 92.8887 22.5802 92.8887C23.1666 92.8887 23.6403 93.3624 23.6403 93.9376Z" fill="#F2484D"/>
          </g>
          <g style="mix-blend-mode:multiply">
            <path d="M12.5534 88.243C12.5082 88.243 12.4631 88.2091 12.4631 88.1527C12.4631 88.1076 12.5082 88.0625 12.5534 88.0625C12.6098 88.0625 12.6436 88.1076 12.6436 88.1527C12.6436 88.2091 12.6098 88.243 12.5534 88.243Z" fill="#F2484D"/>
          </g>
          <g style="mix-blend-mode:multiply">
            <path d="M13.3993 76.569C13.3993 77.0314 13.0158 77.4149 12.5534 77.4149C12.091 77.4149 11.7075 77.0314 11.7075 76.569C11.7075 76.1066 12.091 75.7344 12.5534 75.7344C13.0158 75.7344 13.3993 76.1066 13.3993 76.569Z" fill="#F2484D"/>
          </g>
          <g style="mix-blend-mode:multiply">
            <path d="M23.3131 70.7839C23.3131 71.1786 22.986 71.5057 22.58 71.5057C22.1852 71.5057 21.8582 71.1786 21.8582 70.7839C21.8582 70.3779 22.1852 70.0508 22.58 70.0508C22.986 70.0508 23.3131 70.3779 23.3131 70.7839Z" fill="#F2484D"/>
          </g>
          <g style="mix-blend-mode:multiply">
            <path d="M42.6444 93.2832C43.0053 93.2832 43.2985 93.5764 43.2985 93.9374C43.2985 94.3096 43.0053 94.6028 42.6444 94.6028C42.2835 94.6028 41.9902 94.3096 41.9902 93.9374C41.9902 93.5764 42.2835 93.2832 42.6444 93.2832Z" fill="#F2484D"/>
          </g>
          <g style="mix-blend-mode:multiply">
            <path d="M31.332 88.1514C31.332 87.4409 31.9072 86.877 32.6178 86.877C33.3171 86.877 33.8923 87.4409 33.8923 88.1514C33.8923 88.862 33.3171 89.4259 32.6178 89.4259C31.9072 89.4259 31.332 88.862 31.332 88.1514Z" fill="#F2484D"/>
          </g>
          <g style="mix-blend-mode:multiply">
            <path d="M41.562 105.52C41.562 104.922 42.047 104.438 42.6448 104.438C43.2425 104.438 43.7275 104.922 43.7275 105.52C43.7275 106.129 43.2425 106.614 42.6448 106.614C42.047 106.614 41.562 106.129 41.562 105.52Z" fill="#F2484D"/>
          </g>
          <g style="mix-blend-mode:multiply">
            <path d="M62.698 106.04C62.416 106.04 62.1904 105.814 62.1904 105.521C62.1904 105.239 62.416 105.014 62.698 105.014C62.9912 105.014 63.2168 105.239 63.2168 105.521C63.2168 105.814 62.9912 106.04 62.698 106.04Z" fill="#F2484D"/>
          </g>
          <g style="mix-blend-mode:multiply">
            <path d="M71.7319 111.318C71.7319 110.766 72.1831 110.314 72.7357 110.314C73.2884 110.314 73.7282 110.766 73.7282 111.318C73.7282 111.871 73.2884 112.311 72.7357 112.311C72.1831 112.311 71.7319 111.871 71.7319 111.318Z" fill="#F2484D"/>
          </g>
          <g style="mix-blend-mode:multiply">
            <path d="M82.7622 106.491C82.2321 106.491 81.7922 106.063 81.7922 105.521C81.7922 104.991 82.2321 104.562 82.7622 104.562C83.2923 104.562 83.7209 104.991 83.7209 105.521C83.7209 106.063 83.2923 106.491 82.7622 106.491Z" fill="#F2484D"/>
          </g>
          <g style="mix-blend-mode:multiply">
            <path d="M91.6614 111.319C91.6614 110.688 92.1689 110.191 92.7892 110.191C93.4096 110.191 93.9171 110.688 93.9171 111.319C93.9171 111.94 93.4096 112.447 92.7892 112.447C92.1689 112.447 91.6614 111.94 91.6614 111.319Z" fill="#F2484D"/>
          </g>
          <g style="mix-blend-mode:multiply">
            <path d="M23.234 128.687C23.234 129.048 22.9408 129.342 22.5799 129.342C22.219 129.342 21.937 129.048 21.937 128.687C21.937 128.326 22.219 128.033 22.5799 128.033C22.9408 128.033 23.234 128.326 23.234 128.687Z" fill="#F2484D"/>
          </g>
          <g style="mix-blend-mode:multiply">
            <path d="M13.0718 122.901C13.0718 123.183 12.8462 123.42 12.553 123.42C12.271 123.42 12.0342 123.183 12.0342 122.901C12.0342 122.608 12.271 122.371 12.553 122.371C12.8462 122.371 13.0718 122.608 13.0718 122.901Z" fill="#F2484D"/>
          </g>
          <g style="mix-blend-mode:multiply">
            <path d="M12.5535 111.07C12.6889 111.07 12.8017 111.183 12.8017 111.318C12.8017 111.454 12.6889 111.567 12.5535 111.567C12.4182 111.567 12.3054 111.454 12.3054 111.318C12.3054 111.183 12.4182 111.07 12.5535 111.07Z" fill="#F2484D"/>
          </g>
          <g style="mix-blend-mode:multiply">
            <path d="M22.58 106.547C22.0161 106.547 21.5649 106.085 21.5649 105.521C21.5649 104.957 22.0161 104.506 22.58 104.506C23.1439 104.506 23.6064 104.957 23.6064 105.521C23.6064 106.085 23.1439 106.547 22.58 106.547Z" fill="#F2484D"/>
          </g>
          <g style="mix-blend-mode:multiply">
            <path d="M32.6179 122.055C33.0803 122.055 33.4525 122.427 33.4525 122.901C33.4525 123.363 33.0803 123.735 32.6179 123.735C32.1442 123.735 31.772 123.363 31.772 122.901C31.772 122.427 32.1442 122.055 32.6179 122.055Z" fill="#F2484D"/>
          </g>
          <g style="mix-blend-mode:multiply">
            <path d="M32.6177 111.895C32.2907 111.895 32.0312 111.635 32.0312 111.319C32.0312 110.992 32.2907 110.744 32.6177 110.744C32.9335 110.744 33.1929 110.992 33.1929 111.319C33.1929 111.635 32.9335 111.895 32.6177 111.895Z" fill="#F2484D"/>
          </g>
          <g style="mix-blend-mode:multiply">
            <path d="M53.1449 111.317C53.1449 111.577 52.9306 111.791 52.6712 111.791C52.4118 111.791 52.1975 111.577 52.1975 111.317C52.1975 111.058 52.4118 110.844 52.6712 110.844C52.9306 110.844 53.1449 111.058 53.1449 111.317Z" fill="#F2484D"/>
          </g>
          <g style="mix-blend-mode:multiply">
            <path d="M62.6979 127.898C63.1378 127.898 63.4987 128.248 63.4987 128.688C63.4987 129.128 63.1378 129.477 62.6979 129.477C62.2581 129.477 61.9084 129.128 61.9084 128.688C61.9084 128.248 62.2581 127.898 62.6979 127.898Z" fill="#F2484D"/>
          </g>
          <g style="mix-blend-mode:multiply">
            <path d="M53.8218 122.9C53.8218 123.532 53.303 124.04 52.6714 124.04C52.0398 124.04 51.5322 123.532 51.5322 122.9C51.5322 122.269 52.0398 121.75 52.6714 121.75C53.303 121.75 53.8218 122.269 53.8218 122.9Z" fill="#F2484D"/>
          </g>
          <g style="mix-blend-mode:multiply">
            <path d="M91.5598 122.901C91.5598 122.213 92.1125 121.66 92.7892 121.66C93.4772 121.66 94.0298 122.213 94.0298 122.901C94.0298 123.578 93.4772 124.13 92.7892 124.13C92.1125 124.13 91.5598 123.578 91.5598 122.901Z" fill="#F2484D"/>
          </g>
          <g style="mix-blend-mode:multiply">
            <path d="M42.6444 127.932C43.0617 127.932 43.4 128.27 43.4 128.687C43.4 129.105 43.0617 129.443 42.6444 129.443C42.2271 129.443 41.8774 129.105 41.8774 128.687C41.8774 128.27 42.2271 127.932 42.6444 127.932Z" fill="#F2484D"/>
          </g>
          <g style="mix-blend-mode:multiply">
            <path d="M41.4038 140.271C41.4038 139.583 41.9565 139.02 42.6445 139.02C43.3324 139.02 43.8851 139.583 43.8851 140.271C43.8851 140.959 43.3324 141.512 42.6445 141.512C41.9565 141.512 41.4038 140.959 41.4038 140.271Z" fill="#F2484D"/>
          </g>
          <g style="mix-blend-mode:multiply">
            <path d="M74.0331 122.902C74.0331 123.613 73.4466 124.199 72.736 124.199C72.0142 124.199 71.4277 123.613 71.4277 122.902C71.4277 122.18 72.0142 121.594 72.736 121.594C73.4466 121.594 74.0331 122.18 74.0331 122.902Z" fill="#F2484D"/>
          </g>
          <g style="mix-blend-mode:multiply">
            <path d="M82.7623 128.213C83.0217 128.213 83.236 128.427 83.236 128.687C83.236 128.946 83.0217 129.16 82.7623 129.16C82.4916 129.16 82.2773 128.946 82.2773 128.687C82.2773 128.427 82.4916 128.213 82.7623 128.213Z" fill="#F2484D"/>
          </g>
          <g style="mix-blend-mode:multiply">
            <path d="M91.8306 146.056C91.8306 145.526 92.2592 145.098 92.7892 145.098C93.3193 145.098 93.7479 145.526 93.7479 146.056C93.7479 146.586 93.3193 147.015 92.7892 147.015C92.2592 147.015 91.8306 146.586 91.8306 146.056Z" fill="#F2484D"/>
          </g>
          <g style="mix-blend-mode:multiply">
            <path d="M84.2288 140.271C84.2288 141.083 83.5747 141.737 82.7626 141.737C81.9505 141.737 81.2964 141.083 81.2964 140.271C81.2964 139.459 81.9505 138.805 82.7626 138.805C83.5747 138.805 84.2288 139.459 84.2288 140.271Z" fill="#F2484D"/>
          </g>
          <g style="mix-blend-mode:multiply">
            <path d="M12.5533 146.249C12.4518 146.249 12.3616 146.17 12.3616 146.057C12.3616 145.955 12.4518 145.865 12.5533 145.865C12.6548 145.865 12.745 145.955 12.745 146.057C12.745 146.17 12.6548 146.249 12.5533 146.249Z" fill="#F2484D"/>
          </g>
          <g style="mix-blend-mode:multiply">
            <path d="M23.2116 140.27C23.2116 140.609 22.9297 140.891 22.58 140.891C22.2417 140.891 21.9597 140.609 21.9597 140.27C21.9597 139.921 22.2417 139.639 22.58 139.639C22.9297 139.639 23.2116 139.921 23.2116 140.27Z" fill="#F2484D"/>
          </g>
          <g style="mix-blend-mode:multiply">
            <path d="M34.2084 146.057C34.2084 146.937 33.4979 147.659 32.6182 147.659C31.7272 147.659 31.0166 146.937 31.0166 146.057C31.0166 145.177 31.7272 144.467 32.6182 144.467C33.4979 144.467 34.2084 145.177 34.2084 146.057Z" fill="#F2484D"/>
          </g>
          <g style="mix-blend-mode:multiply">
            <path d="M53.641 146.056C53.641 146.586 53.2012 147.026 52.6711 147.026C52.141 147.026 51.7124 146.586 51.7124 146.056C51.7124 145.526 52.141 145.098 52.6711 145.098C53.2012 145.098 53.641 145.526 53.641 146.056Z" fill="#F2484D"/>
          </g>
          <g style="mix-blend-mode:multiply">
            <path d="M61.6038 140.272C61.6038 139.663 62.1 139.178 62.6978 139.178C63.3068 139.178 63.8031 139.663 63.8031 140.272C63.8031 140.881 63.3068 141.366 62.6978 141.366C62.1 141.366 61.6038 140.881 61.6038 140.272Z" fill="#F2484D"/>
          </g>
          <g style="mix-blend-mode:multiply">
            <path d="M72.7359 147.309C72.0366 147.309 71.4727 146.756 71.4727 146.057C71.4727 145.369 72.0366 144.805 72.7359 144.805C73.4239 144.805 73.9878 145.369 73.9878 146.057C73.9878 146.756 73.4239 147.309 72.7359 147.309Z" fill="#F2484D"/>
          </g>
        </g>
      </g>
    </g>
    <g style="mix-blend-mode:multiply" opacity="0.2">
      <g style="mix-blend-mode:multiply">
        <g style="mix-blend-mode:multiply">
          <g style="mix-blend-mode:multiply">
            <g style="mix-blend-mode:multiply">
              <path d="M1.77074 0V12.3162L1.74818 12.3275L0 13.3426V13.2185L1.66923 12.2598V0H1.77074Z" fill="#F2484D"/>
            </g>
          </g>
          <g style="mix-blend-mode:multiply">
            <g style="mix-blend-mode:multiply">
              <path d="M14.0193 61.727V75.9268L13.9854 75.938L1.71434 83.021L1.69179 83.0097L0 82.0285V81.9044L1.71434 82.8969L13.9065 75.8591V61.7834L1.71434 54.7569L0 55.7494V55.6253L1.71434 54.6328L1.74818 54.6441L14.0193 61.727Z" fill="#F2484D"/>
            </g>
          </g>
          <g style="mix-blend-mode:multiply">
            <g style="mix-blend-mode:multiply">
              <path d="M1.77074 82.9287V97.1284L1.74818 97.1397L0 98.1435V98.0194L1.66923 97.0608V82.9851L0 82.0264V81.9023L1.77074 82.9287Z" fill="#F2484D"/>
            </g>
          </g>
          <g style="mix-blend-mode:multiply">
            <g style="mix-blend-mode:multiply">
              <path fill-rule="evenodd" clip-rule="evenodd" d="M13.9631 104.226L13.9292 104.215L1.66943 97.1318V82.9321L1.69199 82.9208L13.9631 75.8379L13.9856 75.8492L26.2567 82.9321V97.1318L26.2342 97.1431L13.9631 104.226ZM1.77094 97.0642L13.9631 104.102L26.1439 97.0642V82.9885L13.9631 75.962L1.77094 82.9885V97.0642Z" fill="#F2484D"/>
            </g>
          </g>
          <g style="mix-blend-mode:multiply">
            <g style="mix-blend-mode:multiply">
              <path fill-rule="evenodd" clip-rule="evenodd" d="M38.4487 104.226L38.4149 104.215L26.1438 97.1318V82.9321L26.1776 82.9208L38.4487 75.8379L38.4713 75.8492L50.7424 82.9321V97.1318L50.7085 97.1431L38.4487 104.226ZM26.2679 97.0642L38.4487 104.102L50.6409 97.0642V82.9885L38.4487 75.962L26.2679 82.9885V97.0642Z" fill="#F2484D"/>
            </g>
          </g>
          <g style="mix-blend-mode:multiply">
            <g style="mix-blend-mode:multiply">
              <path fill-rule="evenodd" clip-rule="evenodd" d="M62.9235 104.226L62.901 104.215L50.6299 97.1318V82.9321L50.6637 82.9208L62.9235 75.8379L62.9574 75.8492L75.2172 82.9321V97.1318L75.1946 97.1431L62.9235 104.226ZM50.7314 97.0642L62.9235 104.102L75.1157 97.0642V82.9885L62.9235 75.962L50.7314 82.9885V97.0642Z" fill="#F2484D"/>
            </g>
          </g>
          <g style="mix-blend-mode:multiply">
            <g style="mix-blend-mode:multiply">
              <path d="M14.0193 104.133V118.333L13.9854 118.344L1.71434 125.427L1.69179 125.416L0 124.435V124.311L1.71434 125.303L13.9065 118.265V104.19L1.71434 97.1518L0 98.1444V98.0203L1.71434 97.0391L1.74818 97.0503L14.0193 104.133Z" fill="#F2484D"/>
            </g>
          </g>
          <g style="mix-blend-mode:multiply">
            <g style="mix-blend-mode:multiply">
              <path fill-rule="evenodd" clip-rule="evenodd" d="M26.2004 125.427L26.1778 125.416L13.9067 118.333V104.133L13.9293 104.122L26.2004 97.0391L26.2342 97.0503L38.494 104.133V118.333L38.4715 118.344L26.2004 125.427ZM14.0082 118.265L26.2004 125.303L38.3925 118.265V104.19L26.2004 97.1518L14.0082 104.19V118.265Z" fill="#F2484D"/>
            </g>
          </g>
          <g style="mix-blend-mode:multiply">
            <g style="mix-blend-mode:multiply">
              <path fill-rule="evenodd" clip-rule="evenodd" d="M50.6857 125.427L50.6632 125.416L38.3921 118.333V104.133L38.4146 104.122L50.6857 97.0391L50.7083 97.0503L62.9794 104.133V118.333L62.9568 118.344L50.6857 125.427ZM38.4936 118.265L50.6857 125.303L62.8666 118.265V104.19L50.6857 97.1518L38.4936 104.19V118.265Z" fill="#F2484D"/>
            </g>
          </g>
          <g style="mix-blend-mode:multiply">
            <g style="mix-blend-mode:multiply">
              <path d="M1.77074 125.339V139.539L1.74818 139.55L0 140.554V140.43L1.66923 139.471V125.395L0 124.437V124.312L1.77074 125.339Z" fill="#F2484D"/>
            </g>
          </g>
          <g style="mix-blend-mode:multiply">
            <g style="mix-blend-mode:multiply">
              <path fill-rule="evenodd" clip-rule="evenodd" d="M13.9631 146.632L13.9292 146.621L1.66943 139.538V125.338L1.69199 125.315L13.9631 118.232L13.9856 118.255L26.2567 125.338V139.538L26.2342 139.549L13.9631 146.632ZM1.77094 139.47L13.9631 146.508L26.1439 139.47V125.394L13.9631 118.356L1.77094 125.394V139.47Z" fill="#F2484D"/>
            </g>
          </g>
          <g style="mix-blend-mode:multiply">
            <g style="mix-blend-mode:multiply">
              <path fill-rule="evenodd" clip-rule="evenodd" d="M38.4485 146.632L38.4146 146.621L26.1436 139.538V125.338L26.1774 125.315L38.4485 118.232L38.471 118.255L50.7421 125.338V139.538L50.7083 139.549L38.4485 146.632ZM26.2676 139.47L38.4485 146.508L50.6406 139.47V125.394L38.4485 118.356L26.2676 125.394V139.47Z" fill="#F2484D"/>
            </g>
          </g>
          <g style="mix-blend-mode:multiply">
            <g style="mix-blend-mode:multiply">
              <path fill-rule="evenodd" clip-rule="evenodd" d="M62.9235 146.632L62.901 146.621L50.6299 139.538V125.338L50.6637 125.315L62.9235 118.232L62.9574 118.255L75.2172 125.338V139.538L75.1946 139.549L62.9235 146.632ZM50.7314 139.47L62.9235 146.508L75.1157 139.47V125.394L62.9235 118.356L50.7314 125.394V139.47Z" fill="#F2484D"/>
            </g>
          </g>
          <g style="mix-blend-mode:multiply">
            <g style="mix-blend-mode:multiply">
              <path d="M14.0193 146.541V150.68H13.9065V146.597L1.71434 139.56L0 140.552V140.428L1.71434 139.436L1.74818 139.458L14.0193 146.541Z" fill="#F2484D"/>
            </g>
          </g>
          <g style="mix-blend-mode:multiply">
            <g style="mix-blend-mode:multiply">
              <path d="M13.9067 150.68V146.541L13.9293 146.518L26.2004 139.436L26.2342 139.458L38.494 146.541V150.68H38.3925V146.597L26.2004 139.56L14.0195 146.597V150.68H13.9067Z" fill="#F2484D"/>
            </g>
          </g>
          <g style="mix-blend-mode:multiply">
            <g style="mix-blend-mode:multiply">
              <path d="M38.3921 150.68V146.541L38.4146 146.518L50.6857 139.436L50.7083 139.458L62.9794 146.541V150.68H62.8779V146.597L50.6857 139.56L38.4936 146.597V150.68H38.3921Z" fill="#F2484D"/>
            </g>
          </g>
          <g style="mix-blend-mode:multiply">
            <g style="mix-blend-mode:multiply">
              <path d="M62.8782 150.68V146.541L62.9007 146.518L75.1718 139.436L75.1944 139.458L87.4655 146.541V150.68H87.3527V146.597L75.1718 139.56L62.9797 146.597V150.68H62.8782Z" fill="#F2484D"/>
            </g>
          </g>
        </g>
        <g style="mix-blend-mode:multiply">
          <g style="mix-blend-mode:multiply">
            <g style="mix-blend-mode:multiply">
              <path d="M1.83841 23.6149V42.3599L0 43.42V42.7772L1.28576 42.0328V23.9307L0 23.1976V22.5547L1.83841 23.6149Z" fill="#F2484D"/>
            </g>
          </g>
          <g style="mix-blend-mode:multiply">
            <g style="mix-blend-mode:multiply">
              <path fill-rule="evenodd" clip-rule="evenodd" d="M17.5155 51.7341L1.28564 42.3616V23.6166L17.5155 14.2441L33.7454 23.6166V42.3616L17.5155 51.7341ZM1.83829 42.0458L17.5155 51.0912L33.1927 42.0458V23.9437L17.5155 14.887L1.83829 23.9437V42.0458Z" fill="#F2484D"/>
            </g>
          </g>
          <g style="mix-blend-mode:multiply">
            <g style="mix-blend-mode:multiply">
              <path d="M17.7863 51.2494V69.9944L1.55644 79.3669L0 78.4646V77.8218L1.55644 78.724L17.2337 69.6674V51.5652L1.55644 42.5198L0 43.4221V42.7792L1.55644 41.877L17.7863 51.2494Z" fill="#F2484D"/>
            </g>
          </g>
          <g style="mix-blend-mode:multiply">
            <g style="mix-blend-mode:multiply">
              <path fill-rule="evenodd" clip-rule="evenodd" d="M33.4638 79.3669L17.2339 69.9944V51.2494L33.4638 41.877L49.7049 51.2494V69.9944L33.4638 79.3669ZM17.7865 69.6786L33.4638 78.724L49.141 69.6786V51.5765L33.4638 42.5198L17.7865 51.5765V69.6786Z" fill="#F2484D"/>
            </g>
          </g>
          <g style="mix-blend-mode:multiply">
            <g style="mix-blend-mode:multiply">
              <path d="M1.83841 78.8825V97.6274L0 98.6876V98.0448L1.28576 97.3116V79.2095L0 78.4651V77.8223L1.83841 78.8825Z" fill="#F2484D"/>
            </g>
          </g>
          <g style="mix-blend-mode:multiply">
            <g style="mix-blend-mode:multiply">
              <path fill-rule="evenodd" clip-rule="evenodd" d="M17.5155 107L1.28564 97.6272V78.8823L17.5155 69.5098L33.7454 78.8823V97.6272L17.5155 107ZM1.83829 97.3114L17.5155 106.357L33.1927 97.3114V79.2093L17.5155 70.1526L1.83829 79.2093V97.3114Z" fill="#F2484D"/>
            </g>
          </g>
          <g style="mix-blend-mode:multiply">
            <g style="mix-blend-mode:multiply">
              <path d="M17.7863 106.513V125.258L1.55644 134.631L0 133.728V133.085L1.55644 133.988L17.2337 124.942V106.84L1.55644 97.7835L0 98.6858V98.0429L1.55644 97.1406L17.7863 106.513Z" fill="#F2484D"/>
            </g>
          </g>
          <g style="mix-blend-mode:multiply">
            <g style="mix-blend-mode:multiply">
              <path fill-rule="evenodd" clip-rule="evenodd" d="M33.4638 134.631L17.2339 125.258V106.513L33.4638 97.1406L49.7049 106.513V125.258L33.4638 134.631ZM17.7865 124.942L33.4638 133.988L49.141 124.942V106.84L33.4638 97.7835L17.7865 106.84V124.942Z" fill="#F2484D"/>
            </g>
          </g>
          <g style="mix-blend-mode:multiply">
            <g style="mix-blend-mode:multiply">
              <path d="M1.83841 134.146V150.681H1.28576V134.473L0 133.729V133.086L1.83841 134.146Z" fill="#F2484D"/>
            </g>
          </g>
          <g style="mix-blend-mode:multiply">
            <g style="mix-blend-mode:multiply">
              <path d="M1.28589 150.68V134.146L17.5158 124.773L33.7456 134.146V150.68H33.193V134.473L17.5158 125.416L1.83854 134.473V150.68H1.28589Z" fill="#F2484D"/>
            </g>
          </g>
          <g style="mix-blend-mode:multiply">
            <g style="mix-blend-mode:multiply">
              <path d="M33.1929 150.68V134.146L49.4227 124.773L65.6526 134.146V150.68H65.1V134.473L49.4227 125.416L33.7455 134.473V150.68H33.1929Z" fill="#F2484D"/>
            </g>
          </g>
          <g style="mix-blend-mode:multiply">
            <g style="mix-blend-mode:multiply">
              <path d="M65.0999 150.68V134.146L81.3297 124.773L97.5596 134.146V150.68H97.0069V134.473L81.3297 125.416L65.6525 134.473V150.68H65.0999Z" fill="#F2484D"/>
            </g>
          </g>
        </g>
        <g style="mix-blend-mode:multiply">
          <g style="mix-blend-mode:multiply">
            <path d="M0.338379 12.2822C0.338379 11.5266 0.9587 10.9062 1.71436 10.9062C2.48131 10.9062 3.10163 11.5266 3.10163 12.2822C3.10163 13.0492 2.48131 13.6695 1.71436 13.6695C0.9587 13.6695 0.338379 13.0492 0.338379 12.2822Z" fill="#F2484D"/>
          </g>
          <g style="mix-blend-mode:multiply">
            <path d="M13.9631 60.9609C14.403 60.9609 14.7639 61.3219 14.7639 61.7617C14.7639 62.2016 14.403 62.5625 13.9631 62.5625C13.5233 62.5625 13.1624 62.2016 13.1624 61.7617C13.1624 61.3219 13.5233 60.9609 13.9631 60.9609Z" fill="#F2484D"/>
          </g>
          <g style="mix-blend-mode:multiply">
            <path d="M0.157715 54.6893C0.157715 53.8321 0.856986 53.1328 1.71416 53.1328C2.58261 53.1328 3.28188 53.8321 3.28188 54.6893C3.28188 55.5577 2.58261 56.257 1.71416 56.257C0.856986 56.257 0.157715 55.5577 0.157715 54.6893Z" fill="#F2484D"/>
          </g>
          <g style="mix-blend-mode:multiply">
            <path d="M12.6318 75.8934C12.6318 75.1603 13.2296 74.5625 13.9627 74.5625C14.6958 74.5625 15.2823 75.1603 15.2823 75.8934C15.2823 76.6265 14.6958 77.2242 13.9627 77.2242C13.2296 77.2242 12.6318 76.6265 12.6318 75.8934Z" fill="#F2484D"/>
          </g>
          <g style="mix-blend-mode:multiply">
            <path d="M38.4485 76.5249C38.0989 76.5249 37.8169 76.243 37.8169 75.8933C37.8169 75.5437 38.0989 75.2617 38.4485 75.2617C38.7869 75.2617 39.0688 75.5437 39.0688 75.8933C39.0688 76.243 38.7869 76.5249 38.4485 76.5249Z" fill="#F2484D"/>
          </g>
          <g style="mix-blend-mode:multiply">
            <path d="M49.468 82.9642C49.468 82.2875 50.0094 81.7461 50.6861 81.7461C51.3628 81.7461 51.9042 82.2875 51.9042 82.9642C51.9042 83.6296 51.3628 84.1823 50.6861 84.1823C50.0094 84.1823 49.468 83.6296 49.468 82.9642Z" fill="#F2484D"/>
          </g>
          <g style="mix-blend-mode:multiply">
            <path d="M62.9235 77.0667C62.2806 77.0667 61.7505 76.5478 61.7505 75.8937C61.7505 75.2395 62.2806 74.7207 62.9235 74.7207C63.5776 74.7207 64.1077 75.2395 64.1077 75.8937C64.1077 76.5478 63.5776 77.0667 62.9235 77.0667Z" fill="#F2484D"/>
          </g>
          <g style="mix-blend-mode:multiply">
            <path d="M73.7959 82.9658C73.7959 82.1989 74.4049 81.5898 75.1719 81.5898C75.9276 81.5898 76.5479 82.1989 76.5479 82.9658C76.5479 83.7215 75.9276 84.3418 75.1719 84.3418C74.4049 84.3418 73.7959 83.7215 73.7959 82.9658Z" fill="#F2484D"/>
          </g>
          <g style="mix-blend-mode:multiply">
            <path d="M1.71453 96.0703C2.28974 96.0703 2.74089 96.5327 2.74089 97.0967C2.74089 97.6606 2.28974 98.123 1.71453 98.123C1.15061 98.123 0.699463 97.6606 0.699463 97.0967C0.699463 96.5327 1.15061 96.0703 1.71453 96.0703Z" fill="#F2484D"/>
          </g>
          <g style="mix-blend-mode:multiply">
            <path d="M1.71416 83.6637C1.33069 83.6637 1.01489 83.3479 1.01489 82.9645C1.01489 82.5697 1.33069 82.2539 1.71416 82.2539C2.10891 82.2539 2.42471 82.5697 2.42471 82.9645C2.42471 83.3479 2.10891 83.6637 1.71416 83.6637Z" fill="#F2484D"/>
          </g>
          <g style="mix-blend-mode:multiply">
            <path d="M26.7754 82.9658C26.7754 83.2816 26.516 83.541 26.2002 83.541C25.8844 83.541 25.625 83.2816 25.625 82.9658C25.625 82.6388 25.8844 82.3906 26.2002 82.3906C26.516 82.3906 26.7754 82.6388 26.7754 82.9658Z" fill="#F2484D"/>
          </g>
          <g style="mix-blend-mode:multiply">
            <path d="M38.4487 103.199C38.9788 103.199 39.4187 103.628 39.4187 104.169C39.4187 104.699 38.9788 105.139 38.4487 105.139C37.9073 105.139 37.4788 104.699 37.4788 104.169C37.4788 103.628 37.9073 103.199 38.4487 103.199Z" fill="#F2484D"/>
          </g>
          <g style="mix-blend-mode:multiply">
            <path d="M27.5986 97.0978C27.5986 97.8647 26.9783 98.4963 26.2001 98.4963C25.4331 98.4963 24.8015 97.8647 24.8015 97.0978C24.8015 96.3308 25.4331 95.6992 26.2001 95.6992C26.9783 95.6992 27.5986 96.3308 27.5986 97.0978Z" fill="#F2484D"/>
          </g>
          <g style="mix-blend-mode:multiply">
            <path d="M73.6602 97.0973C73.6602 96.2627 74.3369 95.5859 75.1715 95.5859C75.9948 95.5859 76.6715 96.2627 76.6715 97.0973C76.6715 97.9319 75.9948 98.6086 75.1715 98.6086C74.3369 98.6086 73.6602 97.9319 73.6602 97.0973Z" fill="#F2484D"/>
          </g>
          <g style="mix-blend-mode:multiply">
            <path d="M13.9629 103.232C14.4705 103.232 14.8878 103.65 14.8878 104.169C14.8878 104.676 14.4705 105.093 13.9629 105.093C13.4441 105.093 13.0381 104.676 13.0381 104.169C13.0381 103.65 13.4441 103.232 13.9629 103.232Z" fill="#F2484D"/>
          </g>
          <g style="mix-blend-mode:multiply">
            <path d="M12.4402 118.302C12.4402 117.467 13.1169 116.779 13.9628 116.779C14.7974 116.779 15.4741 117.467 15.4741 118.302C15.4741 119.137 14.7974 119.825 13.9628 119.825C13.1169 119.825 12.4402 119.137 12.4402 118.302Z" fill="#F2484D"/>
          </g>
          <g style="mix-blend-mode:multiply">
            <path d="M52.2763 97.0981C52.2763 97.9778 51.5657 98.6884 50.686 98.6884C49.8063 98.6884 49.0957 97.9778 49.0957 97.0981C49.0957 96.2184 49.8063 95.5078 50.686 95.5078C51.5657 95.5078 52.2763 96.2184 52.2763 97.0981Z" fill="#F2484D"/>
          </g>
          <g style="mix-blend-mode:multiply">
            <path d="M62.9236 103.582C63.2507 103.582 63.5101 103.841 63.5101 104.169C63.5101 104.484 63.2507 104.744 62.9236 104.744C62.6078 104.744 62.3484 104.484 62.3484 104.169C62.3484 103.841 62.6078 103.582 62.9236 103.582Z" fill="#F2484D"/>
          </g>
          <g style="mix-blend-mode:multiply">
            <path d="M73.999 125.372C73.999 124.718 74.5178 124.199 75.172 124.199C75.8149 124.199 76.3337 124.718 76.3337 125.372C76.3337 126.015 75.8149 126.534 75.172 126.534C74.5178 126.534 73.999 126.015 73.999 125.372Z" fill="#F2484D"/>
          </g>
          <g style="mix-blend-mode:multiply">
            <path d="M64.7164 118.301C64.7164 119.282 63.9156 120.083 62.9231 120.083C61.9419 120.083 61.1411 119.282 61.1411 118.301C61.1411 117.309 61.9419 116.508 62.9231 116.508C63.9156 116.508 64.7164 117.309 64.7164 118.301Z" fill="#F2484D"/>
          </g>
          <g style="mix-blend-mode:multiply">
            <path d="M3.66554 125.373C3.66554 126.445 2.79709 127.313 1.71434 127.313C0.969957 127.313 0.327079 126.884 0 126.264V124.471C0.327079 123.85 0.969957 123.422 1.71434 123.422C2.79709 123.422 3.66554 124.29 3.66554 125.373Z" fill="#F2484D"/>
          </g>
          <g style="mix-blend-mode:multiply">
            <path d="M13.1169 146.565C13.1169 146.103 13.5004 145.73 13.9628 145.73C14.4253 145.73 14.7975 146.103 14.7975 146.565C14.7975 147.039 14.4253 147.411 13.9628 147.411C13.5004 147.411 13.1169 147.039 13.1169 146.565Z" fill="#F2484D"/>
          </g>
          <g style="mix-blend-mode:multiply">
            <path d="M24.5422 139.506C24.5422 138.581 25.2866 137.848 26.2002 137.848C27.125 137.848 27.8581 138.581 27.8581 139.506C27.8581 140.419 27.125 141.164 26.2002 141.164C25.2866 141.164 24.5422 140.419 24.5422 139.506Z" fill="#F2484D"/>
          </g>
          <g style="mix-blend-mode:multiply">
            <path d="M27.3846 125.372C27.3846 126.015 26.8545 126.545 26.2003 126.545C25.5574 126.545 25.0273 126.015 25.0273 125.372C25.0273 124.718 25.5574 124.188 26.2003 124.188C26.8545 124.188 27.3846 124.718 27.3846 125.372Z" fill="#F2484D"/>
          </g>
          <g style="mix-blend-mode:multiply">
            <path d="M37.1067 118.301C37.1067 117.557 37.7045 116.959 38.4488 116.959C39.1819 116.959 39.7797 117.557 39.7797 118.301C39.7797 119.034 39.1819 119.643 38.4488 119.643C37.7045 119.643 37.1067 119.034 37.1067 118.301Z" fill="#F2484D"/>
          </g>
          <g style="mix-blend-mode:multiply">
            <path d="M50.686 126.894C49.8401 126.894 49.1521 126.218 49.1521 125.372C49.1521 124.526 49.8401 123.838 50.686 123.838C51.5319 123.838 52.2199 124.526 52.2199 125.372C52.2199 126.218 51.5319 126.894 50.686 126.894Z" fill="#F2484D"/>
          </g>
          <g style="mix-blend-mode:multiply">
            <path d="M61.7278 146.565C61.7278 145.911 62.2579 145.369 62.9233 145.369C63.5887 145.369 64.1301 145.911 64.1301 146.565C64.1301 147.23 63.5887 147.771 62.9233 147.771C62.2579 147.771 61.7278 147.23 61.7278 146.565Z" fill="#F2484D"/>
          </g>
          <g style="mix-blend-mode:multiply">
            <path d="M76.4351 139.505C76.4351 140.204 75.8712 140.779 75.1719 140.779C74.4614 140.779 73.8975 140.204 73.8975 139.505C73.8975 138.806 74.4614 138.23 75.1719 138.23C75.8712 138.23 76.4351 138.806 76.4351 139.505Z" fill="#F2484D"/>
          </g>
          <g style="mix-blend-mode:multiply">
            <path d="M2.34616 139.505C2.34616 139.854 2.0642 140.136 1.71456 140.136C1.3762 140.136 1.09424 139.854 1.09424 139.505C1.09424 139.155 1.3762 138.873 1.71456 138.873C2.0642 138.873 2.34616 139.155 2.34616 139.505Z" fill="#F2484D"/>
          </g>
          <g style="mix-blend-mode:multiply">
            <path d="M40.0279 146.565C40.0279 147.445 39.3174 148.156 38.4489 148.156C37.5692 148.156 36.8586 147.445 36.8586 146.565C36.8586 145.697 37.5692 144.986 38.4489 144.986C39.3174 144.986 40.0279 145.697 40.0279 146.565Z" fill="#F2484D"/>
          </g>
          <g style="mix-blend-mode:multiply">
            <path d="M50.6856 138.795C51.0804 138.795 51.3962 139.111 51.3962 139.505C51.3962 139.9 51.0804 140.216 50.6856 140.216C50.2909 140.216 49.9751 139.9 49.9751 139.505C49.9751 139.111 50.2909 138.795 50.6856 138.795Z" fill="#F2484D"/>
          </g>
          <g style="mix-blend-mode:multiply">
            <path d="M86.4731 146.565C86.4731 146.046 86.8905 145.629 87.4093 145.629C87.9281 145.629 88.3454 146.046 88.3454 146.565C88.3454 147.084 87.9281 147.512 87.4093 147.512C86.8905 147.512 86.4731 147.084 86.4731 146.565Z" fill="#F2484D"/>
          </g>
        </g>
      </g>
    </g>
  </g>
</svg>