<svg width="21" height="20" viewBox="0 0 21 20" fill="none" xmlns="http://www.w3.org/2000/svg">
<path d="M4.68295 0.613549C4.73723 0.613375 4.79152 0.613167 4.8458 0.612929C4.99443 0.612377 5.14305 0.61231 5.29167 0.612327C5.45219 0.612263 5.61271 0.611752 5.77323 0.611304C6.124 0.610413 6.47476 0.610102 6.82553 0.609905C7.04477 0.609777 7.264 0.609523 7.48324 0.609241C8.09084 0.608477 8.69844 0.607836 9.30604 0.607722C9.34489 0.607715 9.38375 0.607707 9.42379 0.6077C9.50255 0.607686 9.58132 0.607671 9.66008 0.607657C9.71873 0.607647 9.71873 0.607647 9.77856 0.607636C9.83728 0.607625 9.83728 0.607625 9.89718 0.607614C10.531 0.607476 11.1648 0.606421 11.7987 0.60496C12.4502 0.60347 13.1017 0.602716 13.7533 0.602704C14.1188 0.602681 14.4843 0.602353 14.8498 0.60122C15.1611 0.600259 15.4724 0.59998 15.7837 0.600565C15.9423 0.600844 16.1009 0.600817 16.2596 0.599924C17.1892 0.595004 17.9509 0.639805 18.6645 1.30861C19.3264 1.99653 19.4016 2.79632 19.3983 3.70348C19.3983 3.78029 19.3985 3.85709 19.3986 3.9339C19.3988 4.09371 19.3985 4.25351 19.398 4.41332C19.3973 4.61697 19.3977 4.8206 19.3984 5.02425C19.3988 5.18243 19.3987 5.34061 19.3984 5.49879C19.3983 5.57385 19.3984 5.64891 19.3987 5.72397C19.4004 6.3244 19.382 6.88939 18.9487 7.35308C18.4989 7.77342 18.0164 7.82526 17.4168 7.81939C17.3732 7.81928 17.3297 7.81917 17.2848 7.81905C17.1475 7.81862 17.0102 7.81764 16.8729 7.81664C16.7791 7.81625 16.6853 7.81589 16.5914 7.81557C16.363 7.81472 16.1346 7.81341 15.9061 7.81176C15.9062 7.83437 15.9063 7.85698 15.9063 7.88028C15.9098 9.22061 15.9125 10.5609 15.9141 11.9013C15.9143 12.0622 15.9145 12.2232 15.9147 12.3841C15.9148 12.4162 15.9148 12.4482 15.9149 12.4813C15.9155 13 15.9168 13.5188 15.9182 14.0375C15.9197 14.5699 15.9205 15.1022 15.9208 15.6345C15.9211 15.963 15.9217 16.2914 15.923 16.6199C15.9238 16.8451 15.9241 17.0704 15.9239 17.2957C15.9238 17.4256 15.924 17.5556 15.9248 17.6855C15.9255 17.8265 15.9254 17.9675 15.9249 18.1085C15.9254 18.1494 15.9258 18.1903 15.9263 18.2324C15.9239 18.5228 15.8656 18.7321 15.6745 18.954C15.4453 19.1464 15.2537 19.2408 14.9497 19.2294C14.5823 19.1868 14.2567 18.9473 13.9506 18.7566C13.9029 18.7272 13.8553 18.6979 13.8076 18.6686C13.7342 18.6235 13.6609 18.5784 13.5876 18.5332C13.3324 18.3759 13.0752 18.2219 12.8178 18.0681C12.7375 18.0202 12.6573 17.9722 12.5771 17.9242C12.5438 17.9043 12.5105 17.8844 12.4761 17.8639C12.4075 17.8221 12.3402 17.7782 12.2733 17.7336C12.0594 17.7425 11.9058 17.8116 11.7272 17.9224C11.702 17.9375 11.6767 17.9527 11.6507 17.9683C11.5691 18.0174 11.4879 18.0672 11.4066 18.1169C11.3503 18.151 11.2939 18.1851 11.2374 18.2191C11.1258 18.2864 11.0143 18.354 10.9029 18.4218C10.7388 18.5218 10.5739 18.6204 10.4088 18.7189C10.2105 18.8372 10.0123 18.9557 9.81682 19.0787C9.7819 19.1006 9.7819 19.1006 9.74628 19.1229C9.68647 19.1606 9.62689 19.1986 9.56734 19.2366C9.39677 19.3319 9.23418 19.3857 9.03847 19.3889C9.00841 19.39 8.97835 19.3911 8.94737 19.3923C8.56907 19.3312 8.22905 19.0731 7.90566 18.8787C7.85072 18.8458 7.79578 18.813 7.74083 18.7802C6.30763 17.9232 6.30763 17.9232 6.02333 17.7336C5.83346 17.7125 5.73044 17.7521 5.57076 17.8528C5.52854 17.879 5.48632 17.9052 5.44282 17.9321C5.40932 17.9534 5.40932 17.9534 5.37514 17.9751C5.28001 18.0355 5.18417 18.0947 5.08836 18.154C5.03744 18.1856 4.98655 18.2172 4.9357 18.2488C4.65829 18.4214 4.37804 18.5891 4.09716 18.756C4.01515 18.8048 3.93328 18.8537 3.85142 18.9027C3.80071 18.9329 3.74999 18.9631 3.69927 18.9932C3.6764 19.007 3.65354 19.0207 3.62998 19.0348C3.35516 19.1974 3.13897 19.2586 2.82021 19.218C2.56591 19.1397 2.39493 19.0132 2.24037 18.7984C2.13505 18.5927 2.10731 18.3906 2.10714 18.1621C2.10702 18.1357 2.10689 18.1093 2.10676 18.0821C2.10644 17.994 2.10667 17.906 2.1069 17.8179C2.10678 17.7539 2.10663 17.69 2.10645 17.6261C2.10604 17.4507 2.10613 17.2752 2.1063 17.0998C2.10639 16.9105 2.10604 16.7212 2.10575 16.5319C2.10525 16.161 2.10518 15.7902 2.10527 15.4193C2.10534 15.1177 2.10527 14.8161 2.10511 14.5145C2.10508 14.4716 2.10506 14.4286 2.10504 14.3844C2.10499 14.2972 2.10494 14.21 2.10489 14.1228C2.10447 13.3046 2.10455 12.4864 2.10479 11.6682C2.10499 10.9204 2.10456 10.1727 2.10381 9.42492C2.10305 8.65668 2.10273 7.88843 2.10288 7.12019C2.10295 6.68907 2.10286 6.25795 2.1023 5.82682C2.10184 5.45961 2.10179 5.0924 2.10226 4.72519C2.10249 4.53801 2.10253 4.35083 2.10206 4.16365C2.10164 3.99191 2.10176 3.82017 2.10231 3.64843C2.10241 3.58668 2.10232 3.52493 2.102 3.46318C2.09958 2.95155 2.12288 2.40237 2.37099 1.94262C2.39098 1.90433 2.39098 1.90433 2.41137 1.86526C2.75115 1.2469 3.30159 0.870246 3.96613 0.661444C4.20219 0.603831 4.44135 0.613093 4.68295 0.613549ZM3.68447 2.29906C3.45655 2.57974 3.40122 2.86807 3.40134 3.22562C3.40126 3.27711 3.40118 3.3286 3.4011 3.38166C3.40121 3.43854 3.40133 3.49542 3.40145 3.5523C3.40143 3.61293 3.4014 3.67355 3.40135 3.73418C3.40126 3.90066 3.40142 4.06715 3.40161 4.23363C3.40178 4.41321 3.40172 4.59278 3.40169 4.77235C3.40167 5.08344 3.4018 5.39453 3.40202 5.70562C3.40233 6.1554 3.40243 6.60518 3.40248 7.05497C3.40257 7.7847 3.40283 8.51444 3.4032 9.24418C3.40356 9.95306 3.40383 10.6619 3.404 11.3708C3.40401 11.4145 3.40402 11.4582 3.40403 11.5032C3.40408 11.7224 3.40413 11.9416 3.40418 12.1608C3.40458 13.9794 3.40527 15.7979 3.40615 17.6164C3.56115 17.5565 3.69614 17.4852 3.83782 17.3978C3.86015 17.3841 3.88248 17.3704 3.90548 17.3563C3.95303 17.3271 4.00054 17.2979 4.04802 17.2686C4.17109 17.1928 4.29451 17.1176 4.41796 17.0424C4.44211 17.0277 4.46626 17.013 4.49114 16.9978C4.67974 16.8832 4.86934 16.7706 5.06142 16.6619C5.085 16.6483 5.10858 16.6348 5.13288 16.6209C5.3874 16.4786 5.60435 16.4297 5.8915 16.4275C5.92005 16.4262 5.9486 16.4249 5.97801 16.4236C6.42169 16.4194 6.80245 16.6731 7.16689 16.9006C7.23619 16.9438 7.30573 16.9866 7.37534 17.0294C7.47342 17.0896 7.57141 17.1501 7.6693 17.2106C7.89683 17.3514 8.12487 17.4913 8.35325 17.6307C8.42456 17.6744 8.49569 17.7182 8.56682 17.7621C8.61007 17.7886 8.65333 17.815 8.69789 17.8423C8.75496 17.8774 8.75496 17.8774 8.81317 17.9132C8.93562 17.9825 8.93562 17.9825 9.07021 18.0071C9.17966 17.9614 9.17966 17.9614 9.29482 17.889C9.31679 17.876 9.33876 17.863 9.36139 17.8496C9.43389 17.8065 9.50594 17.7627 9.57802 17.719C9.62841 17.6889 9.67883 17.6588 9.72926 17.6288C9.88762 17.5342 10.0454 17.4387 10.203 17.343C10.2288 17.3274 10.2546 17.3117 10.2811 17.2956C10.3575 17.2492 10.4338 17.2028 10.5102 17.1564C10.5348 17.1414 10.5594 17.1265 10.5848 17.111C10.7026 17.0394 10.8203 16.9675 10.9378 16.8952C11.6898 16.4344 11.6898 16.4344 12.1439 16.4299C12.1948 16.4288 12.2458 16.4277 12.2982 16.4266C12.7534 16.4556 13.1428 16.734 13.5209 16.9646C13.5752 16.9974 13.6295 17.0301 13.6838 17.0628C13.7612 17.1094 13.8385 17.156 13.9157 17.2029C14.0737 17.2989 14.233 17.3927 14.3928 17.4858C14.4559 17.5225 14.4559 17.5225 14.5202 17.56C14.5522 17.5786 14.5841 17.5973 14.6171 17.6164C14.6171 17.5695 14.6171 17.5695 14.6172 17.5216C14.6195 15.6666 14.6224 13.8115 14.626 11.9564C14.6265 11.7336 14.6269 11.5107 14.6273 11.2879C14.6274 11.2435 14.6275 11.1991 14.6276 11.1534C14.629 10.4355 14.6299 9.71763 14.6308 8.99974C14.6316 8.26284 14.6329 7.52595 14.6346 6.78905C14.6356 6.33453 14.6363 5.88001 14.6366 5.42549C14.6368 5.1136 14.6374 4.80171 14.6384 4.48982C14.6389 4.31001 14.6393 4.1302 14.6392 3.95039C14.639 3.78545 14.6394 3.62053 14.6403 3.4556C14.6405 3.39624 14.6405 3.33687 14.6403 3.27751C14.6391 2.90042 14.6798 2.55288 14.7733 2.18676C14.7816 2.15263 14.7899 2.11849 14.7984 2.08333C14.8155 2.01349 14.8334 1.94384 14.8515 1.87426C13.5493 1.87247 12.2472 1.87109 10.9451 1.87027C10.7913 1.87017 10.6374 1.87007 10.4836 1.86997C10.4377 1.86994 10.4377 1.86994 10.3908 1.8699C9.89538 1.86956 9.39991 1.86895 8.90445 1.86823C8.39586 1.8675 7.88726 1.86707 7.37867 1.86691C7.06497 1.8668 6.75128 1.86646 6.43759 1.86583C6.19683 1.86536 5.95607 1.86532 5.71531 1.86542C5.61671 1.8654 5.5181 1.86524 5.4195 1.86495C5.28467 1.86456 5.14984 1.86465 5.01501 1.86486C4.95676 1.86452 4.95676 1.86452 4.89733 1.86417C4.42797 1.86617 4.01404 1.94255 3.68447 2.29906ZM16.1199 2.27022C15.9084 2.53791 15.9004 2.84839 15.9017 3.17458C15.9017 3.21081 15.9017 3.24703 15.9017 3.28435C15.9017 3.40377 15.902 3.52318 15.9023 3.6426C15.9024 3.72552 15.9025 3.80844 15.9025 3.89136C15.9026 4.10938 15.903 4.3274 15.9035 4.54542C15.9039 4.76798 15.904 4.99055 15.9042 5.21311C15.9047 5.64964 15.9053 6.08617 15.9061 6.5227C16.1807 6.52567 16.4553 6.52772 16.7299 6.52913C16.8233 6.52972 16.9167 6.53052 17.0101 6.53154C17.1444 6.53296 17.2786 6.53362 17.413 6.53414C17.4547 6.53474 17.4964 6.53535 17.5394 6.53597C17.8176 6.53986 17.8176 6.53986 18.0546 6.40551C18.1161 6.28251 18.0994 6.15076 18.0993 6.01571C18.0995 5.9835 18.0996 5.95129 18.0997 5.9181C18.1001 5.81115 18.1002 5.7042 18.1002 5.59725C18.1003 5.52289 18.1005 5.44852 18.1006 5.37416C18.1008 5.21795 18.1009 5.06173 18.1009 4.90552C18.1009 4.70597 18.1014 4.50641 18.1021 4.30686C18.1025 4.15307 18.1026 3.99928 18.1026 3.84549C18.1026 3.77197 18.1028 3.69845 18.1031 3.62493C18.1035 3.52164 18.1034 3.41835 18.1031 3.31506C18.1034 3.28503 18.1036 3.25501 18.1038 3.22407C18.1013 2.78557 17.9838 2.46756 17.6713 2.15502C17.1472 1.79533 16.5649 1.79683 16.1199 2.27022Z" fill="white" stroke="white" stroke-width="0.3"/>
<path d="M6.12162 8.66647C6.16641 8.66619 6.21121 8.66591 6.25736 8.66562C6.30655 8.66552 6.35574 8.66541 6.40642 8.6653C6.45872 8.66506 6.51102 8.6648 6.56331 8.66453C6.7351 8.66371 6.90689 8.6633 7.07868 8.66291C7.13787 8.66275 7.19705 8.66259 7.25624 8.66243C7.53432 8.66168 7.81241 8.66113 8.09049 8.6608C8.41127 8.66042 8.73204 8.65939 9.05281 8.65781C9.30089 8.65664 9.54897 8.65606 9.79705 8.65593C9.94516 8.65584 10.0932 8.65549 10.2413 8.6545C10.3808 8.65359 10.5202 8.65343 10.6596 8.65383C10.7349 8.65386 10.8101 8.65311 10.8854 8.65234C11.148 8.65392 11.3201 8.66641 11.5312 8.82847C11.6919 9.03568 11.748 9.19124 11.7265 9.45347C11.6523 9.68067 11.5505 9.80807 11.3359 9.92222C11.2151 9.96249 11.1314 9.96648 11.0048 9.96703C10.9603 9.96731 10.9158 9.96759 10.87 9.96788C10.8212 9.96798 10.7724 9.96809 10.7221 9.96819C10.6707 9.96845 10.6193 9.96871 10.5663 9.96897C10.3958 9.96979 10.2253 9.9702 10.0548 9.97059C9.99601 9.97075 9.93726 9.97091 9.87851 9.97107C9.60247 9.97182 9.32643 9.97237 9.05039 9.9727C8.73198 9.97308 8.41357 9.97411 8.09517 9.97568C7.84891 9.97686 7.60266 9.97744 7.3564 9.97757C7.20939 9.97766 7.06239 9.97801 6.91538 9.979C6.777 9.97991 6.63863 9.98007 6.50024 9.97967C6.42551 9.97964 6.35078 9.98038 6.27606 9.98116C6.01364 9.97957 5.84459 9.96501 5.63276 9.80503C5.45342 9.61153 5.42348 9.45619 5.42646 9.19971C5.4481 9.00712 5.55527 8.90221 5.6938 8.7772C5.83917 8.67656 5.94917 8.66721 6.12162 8.66647Z" fill="white" stroke="white" stroke-width="0.3"/>
<path d="M6.19866 5.3064C6.24219 5.30618 6.28573 5.30596 6.33058 5.30573C6.37817 5.30568 6.42576 5.30564 6.47479 5.3056C6.52505 5.3054 6.5753 5.30521 6.62708 5.30501C6.76485 5.3045 6.90263 5.30424 7.0404 5.30407C7.12654 5.30395 7.21268 5.30379 7.29882 5.30362C7.56852 5.30309 7.83822 5.30271 8.10792 5.30256C8.4189 5.30238 8.72988 5.3017 9.04085 5.30057C9.28147 5.29972 9.52209 5.29933 9.76271 5.29927C9.90631 5.29923 10.0499 5.299 10.1935 5.29831C10.3538 5.29754 10.514 5.29771 10.6743 5.29797C10.7217 5.29761 10.769 5.29725 10.8178 5.29688C11.1222 5.29838 11.3244 5.32031 11.5631 5.52185C11.717 5.70649 11.7473 5.85375 11.7267 6.09314C11.6555 6.3226 11.5639 6.4253 11.3751 6.56189C11.273 6.61294 11.1977 6.60622 11.0833 6.6067C11.0152 6.60712 11.0152 6.60712 10.9457 6.60755C10.8706 6.60771 10.8706 6.60771 10.794 6.60787C10.741 6.60811 10.6879 6.60837 10.6348 6.60864C10.4603 6.60947 10.2858 6.60987 10.1112 6.61026C10.0511 6.61042 9.99103 6.61058 9.93094 6.61074C9.64856 6.61149 9.36618 6.61204 9.0838 6.61237C8.75796 6.61275 8.43213 6.61378 8.10629 6.61536C7.85439 6.61653 7.6025 6.61711 7.3506 6.61724C7.20019 6.61733 7.04978 6.61768 6.89937 6.61867C6.75774 6.61958 6.61614 6.61974 6.47451 6.61934C6.39801 6.61931 6.32151 6.62006 6.24502 6.62083C5.98079 6.61927 5.80597 6.60836 5.59385 6.4447C5.44846 6.2583 5.4119 6.11128 5.42265 5.87555C5.45526 5.66857 5.54561 5.54539 5.71104 5.41443C5.87918 5.32335 6.00845 5.30699 6.19866 5.3064Z" fill="white" stroke="white" stroke-width="0.3"/>
<path d="M6.23919 12.0642C6.28207 12.064 6.32494 12.0638 6.36911 12.0635C6.41577 12.0635 6.46242 12.0635 6.5105 12.0634C6.58465 12.0631 6.58465 12.0631 6.66031 12.0628C6.79566 12.0623 6.93101 12.0621 7.06636 12.0619C7.15103 12.0618 7.2357 12.0616 7.32036 12.0614C7.58558 12.0609 7.8508 12.0605 8.11601 12.0604C8.4216 12.0602 8.72718 12.0595 9.03276 12.0584C9.26937 12.0575 9.50597 12.0571 9.74258 12.0571C9.88371 12.057 10.0248 12.0568 10.166 12.0561C10.3235 12.0554 10.4811 12.0555 10.6386 12.0558C10.685 12.0554 10.7314 12.0551 10.7793 12.0547C11.0584 12.0561 11.31 12.0673 11.5336 12.254C11.5514 12.277 11.5692 12.3 11.5875 12.3236C11.606 12.3466 11.6245 12.3695 11.6435 12.3932C11.741 12.5417 11.7382 12.6784 11.7267 12.851C11.6555 13.0804 11.5639 13.1831 11.3751 13.3197C11.273 13.3708 11.1977 13.364 11.0833 13.3645C11.0152 13.3649 11.0152 13.3649 10.9457 13.3654C10.8706 13.3655 10.8706 13.3655 10.794 13.3657C10.741 13.3659 10.6879 13.3662 10.6348 13.3665C10.4603 13.3673 10.2858 13.3677 10.1112 13.3681C10.0511 13.3682 9.99103 13.3684 9.93094 13.3686C9.64856 13.3693 9.36618 13.3699 9.0838 13.3702C8.75796 13.3706 8.43213 13.3716 8.10629 13.3732C7.85439 13.3743 7.6025 13.3749 7.3506 13.3751C7.20019 13.3751 7.04978 13.3755 6.89937 13.3765C6.75774 13.3774 6.61614 13.3776 6.47451 13.3772C6.39801 13.3771 6.32151 13.3779 6.24502 13.3786C5.98079 13.3771 5.80597 13.3662 5.59385 13.2025C5.44846 13.0161 5.4119 12.8691 5.42265 12.6334C5.4551 12.4274 5.54538 12.3042 5.7086 12.1722C5.88501 12.0786 6.0415 12.0648 6.23919 12.0642Z" fill="white" stroke="white" stroke-width="0.3"/>
</svg>
