<svg width="64" height="64" viewBox="0 0 64 64" fill="none" xmlns="http://www.w3.org/2000/svg">
<path d="M49.3951 24.9242C51.1398 23.3037 51.3215 20.5722 49.8726 18.688C49.1634 17.7664 47.8361 17.1802 46.5714 17.1315C45.0662 17.0727 43.6531 17.9879 42.8454 18.8749C39.1449 22.9389 44.3711 29.5911 49.3951 24.9242Z" fill="#9ED0FF"/>
<path d="M35.6583 35.5597C36.6532 37.7953 37.8467 39.9373 39.2244 41.9597C39.9234 43.0135 40.72 43.9992 41.6039 44.9037C42.7444 46.0339 44.0359 46.903 45.4976 47.2153C48.1588 47.776 50.944 46.3718 52.896 44.2227C54.848 42.0736 56.0474 39.2153 57.0151 36.3341C57.4067 35.168 57.7831 33.9161 57.5079 32.6464C56.8909 29.6896 52.754 29.5117 50.5677 29.1533C47.0595 28.5021 43.4838 28.2905 39.9232 28.5235C39.509 28.5477 39.0963 28.5934 38.6868 28.6605C37.289 28.8947 35.9181 29.4425 35.241 30.7251C34.432 32.2624 35.0016 34.0761 35.6583 35.5597Z" fill="#9ED0FF"/>
<path d="M54.4308 35.511C54.3848 35.1359 54.1748 34.7558 53.8331 34.6047C53.6072 34.5264 53.367 34.498 53.1291 34.5215L52.3163 34.5446C52.3099 34.2348 52.2996 33.9263 52.2843 33.6166C52.2895 33.3529 52.2384 33.091 52.1345 32.8486C51.8785 32.3507 50.9198 32.3199 50.4308 32.375C50.0545 32.4185 49.6718 32.6182 49.5182 32.9651C49.4382 33.1902 49.4077 33.4298 49.4286 33.6678C49.4286 33.9878 49.4401 34.3078 49.4465 34.6278L48.4584 34.6547C48.1601 34.6636 47.8376 34.6803 47.6072 34.8697C47.3281 35.1001 47.2782 35.5033 47.2501 35.8643C47.2168 36.2841 47.2065 36.7603 47.515 37.0534C47.7403 37.262 48.0705 37.3017 48.3764 37.326C48.7502 37.3555 49.1227 37.3785 49.4964 37.3964C49.4964 37.7113 49.508 38.0249 49.5131 38.3398C49.5182 38.6547 49.5323 38.9606 49.7204 39.1923C49.9483 39.4751 50.3502 39.5276 50.7112 39.5596C51.1297 39.5967 51.6072 39.6108 51.9028 39.3036C52.114 39.0809 52.1588 38.7507 52.1832 38.4447C52.2139 38.1034 52.2395 37.7621 52.26 37.4207C52.5748 37.4118 52.8884 37.3977 53.2033 37.3798C53.4676 37.3825 53.7294 37.3288 53.9713 37.2223C54.4705 36.9599 54.491 36.0012 54.4308 35.511Z" fill="white"/>
<path d="M20.9536 24.9242C22.6982 23.3037 22.88 20.5722 21.431 18.688C20.7219 17.7664 19.3945 17.1802 18.1286 17.1315C16.6246 17.0727 15.2115 17.9879 14.4038 18.8749C10.7021 22.9389 15.9296 29.5911 20.9536 24.9242Z" fill="#79CE4B"/>
<path d="M28.3418 35.5598C27.3469 37.7955 26.1534 39.9374 24.7757 41.9598C24.0767 43.0137 23.28 43.9993 22.3962 44.9038C21.2557 46.034 19.9642 46.9032 18.5024 47.2155C15.8413 47.7761 13.056 46.372 11.104 44.2228C9.15202 42.0737 7.95266 39.2155 6.98498 36.3342C6.5933 35.1681 6.21698 33.9163 6.49218 32.6465C7.10914 29.6897 11.2461 29.5118 13.4323 29.1534C16.941 28.5022 20.5171 28.2906 24.0781 28.5236C24.4919 28.5479 24.9042 28.5936 25.3133 28.6606C26.7111 28.8948 28.0819 29.4427 28.7591 30.7252C29.568 32.2625 28.9984 34.0763 28.3418 35.5598Z" fill="#79CE4B"/>
<path d="M19.0219 36.1216C20.2551 38.8937 21.7343 41.5497 23.4418 44.0576C24.3275 45.3555 25.3054 46.6266 26.3934 47.7069C27.8014 49.1085 29.4027 50.1862 31.2203 50.5728C34.5176 51.2678 37.9698 49.5283 40.3902 46.8608C42.8107 44.1933 44.2955 40.6541 45.4962 37.0829C45.9813 35.6365 46.4408 34.0851 46.1067 32.5107C45.3387 28.8461 40.2187 28.6259 37.5038 28.1805C33.1547 27.374 28.7221 27.1121 24.3083 27.401C23.7936 27.43 23.2809 27.4868 22.7723 27.5712C21.0405 27.8605 19.3406 28.5402 18.5009 30.1312C17.5 32.0346 18.2091 34.2835 19.0219 36.1216Z" fill="#FFA742"/>
<path d="M40.6311 32.1958C40.818 31.3599 40.9268 29.9353 40.6874 28.4082C40.67 28.2981 40.622 28.1951 40.5489 28.1109C40.4758 28.0267 40.3806 27.9648 40.274 27.9321C40.1093 27.8803 39.9474 27.8201 39.7889 27.7516C39.6897 27.7111 39.5817 27.6974 39.4756 27.7121C39.3695 27.7267 39.2692 27.7691 39.1848 27.835C39.1003 27.9008 39.0348 27.9878 38.9948 28.0871C38.9548 28.1864 38.9417 28.2946 38.9569 28.4006C39.1262 29.5258 39.1102 30.6712 38.9095 31.7913C38.886 31.9059 38.8302 32.0115 38.7488 32.0956C38.6675 32.1797 38.5638 32.2389 38.45 32.2662C37.9892 32.3788 37.6103 32.7001 37.0842 33.2543C36.4724 33.8943 35.9527 35.3215 36.4672 36.3519C37.1521 37.7228 38.0532 38.0262 39.0413 38.0018C41.0381 37.9532 41.2929 37.0751 41.7191 36.2393C42.0929 35.5071 42.0263 33.6588 40.8628 32.8255C40.7662 32.7552 40.6927 32.6579 40.6515 32.5458C40.6102 32.4337 40.6031 32.3119 40.6311 32.1958Z" fill="#318230"/>
<path d="M36.0513 22.9376C38.2133 20.9293 38.4385 17.545 36.6427 15.2077C35.7646 14.0659 34.1185 13.3389 32.5467 13.2787C30.683 13.2071 28.9307 14.3399 27.9297 15.4407C23.3448 20.48 29.8241 28.7232 36.0513 22.9376Z" fill="#FFA742"/>
<path d="M38.0353 34.2207C38.5601 33.6677 38.7905 33.5807 39.6417 33.861C40.4929 34.1413 40.5633 35.2946 40.3508 35.7119C40.1383 36.1292 40.0103 36.5682 39.0119 36.5925C38.5191 36.6053 38.0686 36.453 37.7319 35.7682C37.4695 35.2537 37.7294 34.542 38.0353 34.2207Z" fill="#79CE4B"/>
<path d="M31.8989 34.8223C30.8186 33.5922 29.1341 32.9932 27.6007 32.8601C25.8957 30.0095 26.9914 27.781 27.0388 27.6902C27.2653 27.2626 27.1335 26.8863 26.4436 26.8274C25.9316 26.7839 25.5655 26.903 25.3376 27.3305C25.2724 27.4521 24.0832 29.6076 25.6692 32.9625C25.0114 33.1146 24.3953 33.4096 23.8644 33.8266C23.3334 34.2436 22.9008 34.7723 22.5972 35.3753C22.2624 36.022 22.0996 36.744 22.1243 37.4718C22.1489 38.1996 22.3602 38.9088 22.738 39.5314C22.8568 39.7314 23.0502 39.876 23.2756 39.9333C23.501 39.9907 23.7399 39.9562 23.9399 39.8374C24.1398 39.7186 24.2844 39.5252 24.3418 39.2998C24.3991 39.0744 24.3646 38.8354 24.2458 38.6354C24.0208 38.2653 23.8949 37.8435 23.8801 37.4107C23.8653 36.9778 23.9622 36.5484 24.1613 36.1638C24.3825 35.7343 24.7073 35.3668 25.1062 35.0943C25.5051 34.8219 25.9656 34.6532 26.4461 34.6034C27.7901 34.4754 29.6372 34.8991 30.5856 35.9782C31.1808 36.6566 31.3536 37.5334 31.113 38.583C31.0818 38.6967 31.0739 38.8155 31.0897 38.9324C31.1055 39.0493 31.1448 39.1617 31.205 39.2631C31.2653 39.3644 31.3454 39.4526 31.4406 39.5223C31.5357 39.5919 31.6439 39.6417 31.7588 39.6686C31.8736 39.6954 31.9927 39.6989 32.1088 39.6787C32.225 39.6585 32.3359 39.615 32.4349 39.551C32.5339 39.4869 32.619 39.4035 32.685 39.3058C32.7511 39.2081 32.7967 39.0981 32.8192 38.9823C33.2903 36.9484 32.5786 35.5967 31.8989 34.8223Z" fill="#318230"/>
<path d="M13.3631 36.0114H10.6968C10.5033 36.0114 10.3177 35.9345 10.1809 35.7977C10.0441 35.6609 9.96722 35.4753 9.96722 35.2818V34.0274C9.96724 33.8506 10.0315 33.6797 10.148 33.5467C10.2646 33.4137 10.4255 33.3275 10.6008 33.3042L13.5807 32.9049C13.6953 32.8894 13.812 32.9014 13.9211 32.9399C14.0302 32.9785 14.1285 33.0424 14.208 33.1264C14.2876 33.2104 14.346 33.3121 14.3784 33.4232C14.4109 33.5342 14.4165 33.6514 14.3947 33.765L14.0799 35.4188C14.048 35.5855 13.959 35.7359 13.8281 35.8441C13.6973 35.9523 13.5328 36.0115 13.3631 36.0114Z" fill="white"/>
</svg>
