<svg width="20" height="20" viewBox="0 0 20 20" fill="none" xmlns="http://www.w3.org/2000/svg">
<path d="M5.20538 12.4849C6.93424 14.5516 9.01541 16.1787 11.3908 17.3301C12.2952 17.7587 13.5046 18.2672 14.8521 18.3543C14.9357 18.358 15.0156 18.3616 15.0991 18.3616C16.0035 18.3616 16.7299 18.0492 17.3219 17.4064C17.3256 17.4027 17.3328 17.3955 17.3365 17.3882C17.5471 17.134 17.7869 16.9051 18.0375 16.6618C18.2082 16.4984 18.3825 16.3276 18.5496 16.1533C19.3232 15.347 19.3232 14.3227 18.5423 13.5419L16.3595 11.359C15.989 10.974 15.5459 10.7706 15.081 10.7706C14.6161 10.7706 14.1693 10.974 13.7879 11.3553L12.4877 12.6556C12.3678 12.5866 12.2443 12.5249 12.1281 12.4668C11.9828 12.3941 11.8484 12.3251 11.7286 12.2488C10.5445 11.497 9.46942 10.5163 8.44155 9.25601C7.92216 8.59861 7.57348 8.04654 7.33013 7.48357C7.67155 7.17484 7.99117 6.85159 8.2999 6.5356C8.40886 6.423 8.52145 6.31041 8.63405 6.19781C9.02631 5.80555 9.23697 5.35154 9.23697 4.89027C9.23697 4.429 9.02994 3.97499 8.63405 3.58273L7.55169 2.50037C7.42457 2.37325 7.30471 2.24976 7.18122 2.12264C6.9415 1.87566 6.69089 1.62141 6.44391 1.39259C6.06981 1.02575 5.63033 0.833252 5.16542 0.833252C4.70415 0.833252 4.26104 1.02575 3.87241 1.39622L2.51401 2.75462C2.02005 3.24858 1.74038 3.84787 1.68227 4.54159C1.61326 5.40966 1.77307 6.3322 2.18713 7.44725C2.82274 9.17248 3.78161 10.7742 5.20538 12.4849ZM2.5685 4.61787C2.61208 4.1348 2.79732 3.73164 3.14599 3.38296L4.49712 2.03183C4.70778 1.82844 4.94023 1.72311 5.16542 1.72311C5.38698 1.72311 5.61217 1.82844 5.81919 2.0391C6.06254 2.26429 6.29136 2.50037 6.53834 2.75098C6.66183 2.87811 6.78896 3.00523 6.91608 3.13598L7.99843 4.21834C8.22362 4.44353 8.33985 4.67235 8.33985 4.89753C8.33985 5.12272 8.22362 5.35154 7.99843 5.57673C7.88584 5.68932 7.77325 5.80555 7.66065 5.91814C7.32287 6.25956 7.00688 6.58281 6.6582 6.89154C6.65094 6.8988 6.64731 6.90243 6.64004 6.9097C6.33858 7.21116 6.3858 7.49809 6.45844 7.71602C6.46207 7.72691 6.4657 7.73418 6.46934 7.74507C6.749 8.41701 7.13763 9.05625 7.74419 9.81898C8.83381 11.1628 9.98154 12.2053 11.2455 13.0079C11.4017 13.1096 11.5688 13.1895 11.7249 13.2694C11.8702 13.3421 12.0046 13.4111 12.1245 13.4874C12.139 13.4946 12.1499 13.5019 12.1644 13.5092C12.2843 13.5709 12.4005 13.6 12.5167 13.6C12.8073 13.6 12.9962 13.4147 13.0579 13.353L14.4163 11.9946C14.627 11.7839 14.8558 11.6713 15.081 11.6713C15.357 11.6713 15.5822 11.842 15.7238 11.9946L17.914 14.1811C18.3498 14.6169 18.3462 15.0891 17.9031 15.5504C17.7505 15.7138 17.5907 15.87 17.42 16.0335C17.1658 16.2804 16.9006 16.5347 16.6609 16.8216C16.2432 17.272 15.7456 17.4826 15.1028 17.4826C15.041 17.4826 14.9756 17.479 14.9139 17.4754C13.7226 17.3991 12.6148 16.9342 11.783 16.5383C9.5239 15.4451 7.54079 13.8942 5.89547 11.9256C4.54071 10.2948 3.62906 8.77658 3.02614 7.14942C2.65203 6.1506 2.51038 5.34791 2.5685 4.61787Z" fill="white"/>
<path opacity="0.3" d="M2.41375 6.03448C1.5172 3.27586 3.47697 1.83908 4.56892 1.46552C6.46547 1.2931 7.49996 2.5862 8.27583 3.70689C8.89652 4.60345 8.53445 5.63218 8.27583 6.03448C7.78732 6.35057 6.81031 7.08621 6.81031 7.5C6.81031 7.91379 8.59192 10.1437 9.48272 11.2069C9.97123 11.5517 11.0517 12.3448 11.4655 12.7586C11.9827 13.2759 12.2413 13.4483 13.1896 12.5C13.9482 11.7414 14.8276 11.3218 15.1724 11.2069L17.1551 12.7586L18.7069 14.3103V15.431L17.4138 16.8966L16.0344 17.931H15.1724L13.1896 17.5862L11.7241 16.8966L6.81031 13.7069L3.96548 10.431C3.8218 10.1149 3.3103 8.7931 2.41375 6.03448Z" fill="white"/>
</svg>
