<svg xmlns="http://www.w3.org/2000/svg" width="24" height="24" viewBox="0 0 24 24" fill="none">
  <path d="M20.8385 16.1053C20.7892 15.9189 20.7012 15.7448 20.5805 15.5945C20.4597 15.4441 20.3087 15.3207 20.1372 15.2323L16.5376 13.367C16.2471 13.213 15.9109 13.1686 15.5904 13.2418C15.2699 13.3149 14.9864 13.5009 14.7916 13.7657L14.2096 14.563C14.1797 14.6045 14.1356 14.6336 14.0858 14.6448C14.036 14.6561 13.9837 14.6487 13.9389 14.6242C13.083 14.1371 12.2994 13.5328 11.6109 12.8287C10.9069 12.1401 10.3025 11.3566 9.81546 10.5007C9.79089 10.4559 9.78354 10.4036 9.7948 10.3538C9.80605 10.304 9.83513 10.26 9.87657 10.2301L10.671 9.64805C10.9358 9.45322 11.1218 9.16969 11.1949 8.84917C11.2681 8.52866 11.2237 8.19252 11.0697 7.90206L9.216 4.3053C9.12698 4.13363 9.00278 3.98264 8.85151 3.86218C8.70023 3.74172 8.52527 3.65449 8.33802 3.60616C8.15078 3.55784 7.95545 3.54952 7.76478 3.58174C7.5741 3.61395 7.39235 3.68598 7.23138 3.79314L4.97031 5.30634C4.65282 5.51774 4.39645 5.80885 4.22689 6.15053C4.05733 6.4922 3.98053 6.87243 4.00419 7.25313C4.03412 7.89679 4.12078 8.53656 4.26318 9.16499C4.87719 11.5337 6.35838 13.9694 8.41575 16.0297C10.4731 18.09 12.9117 19.5653 15.2804 20.1735C15.9089 20.3159 16.5486 20.4025 17.1923 20.4325H17.3378C17.6929 20.4317 18.0425 20.3441 18.3559 20.1772C18.6694 20.0103 18.9373 19.7693 19.1362 19.4751L20.6436 17.214C20.7524 17.0534 20.826 16.8716 20.8596 16.6805C20.8932 16.4895 20.886 16.2934 20.8385 16.1053ZM19.6745 16.5651L18.1759 18.8291C18.0764 18.9759 17.9403 19.0943 17.7811 19.1723C17.6218 19.2504 17.445 19.2856 17.268 19.2743C16.6971 19.248 16.1295 19.173 15.5714 19.0503C13.4006 18.4857 11.1541 17.1209 9.24219 15.2003C7.33032 13.2797 5.95971 11.0419 5.39517 8.87109C5.27141 8.31306 5.19547 7.74549 5.16819 7.17456C5.15656 6.99792 5.19157 6.82132 5.26972 6.66248C5.34786 6.50364 5.46639 6.36813 5.61342 6.26955L7.87449 4.76217C7.90891 4.73912 7.94946 4.72696 7.99089 4.72725H8.04618C8.07483 4.73472 8.10158 4.74817 8.12465 4.76673C8.14772 4.78529 8.1666 4.80853 8.18004 4.83492L10.0424 8.43459C10.0656 8.47922 10.0721 8.53062 10.061 8.57965C10.0498 8.62867 10.0215 8.67213 9.98133 8.70231L9.1869 9.2843C8.91751 9.48472 8.73086 9.77688 8.66223 10.1056C8.5936 10.4342 8.64774 10.7767 8.81442 11.0681C9.35302 12.0096 10.0189 12.8723 10.7932 13.6318C11.5527 14.4062 12.4154 15.0721 13.3569 15.6106C13.6484 15.7773 13.9908 15.8315 14.3195 15.7628C14.6482 15.6942 14.9403 15.5076 15.1408 15.2382L15.7228 14.4408C15.7529 14.4006 15.7964 14.3724 15.8454 14.3612C15.8944 14.35 15.9458 14.3566 15.9905 14.3797L19.5901 16.2421C19.6165 16.2559 19.6396 16.2751 19.6581 16.2984C19.6766 16.3217 19.69 16.3486 19.6974 16.3774C19.7048 16.4062 19.706 16.4363 19.7011 16.4656C19.6962 16.4949 19.6851 16.5229 19.6687 16.5477L19.6745 16.5651Z" fill="#323232"/>
</svg>