<svg width="25" height="24" viewBox="0 0 25 24" fill="none" xmlns="http://www.w3.org/2000/svg">
<path d="M21.303 1H18.363C17.493 1 16.853 1.36 16.563 2C16.403 2.29 16.333 2.63 16.333 3.03V5.97C16.333 7.24 17.093 8 18.363 8H21.303C21.703 8 22.043 7.93 22.333 7.77C22.973 7.48 23.333 6.84 23.333 5.97V3.03C23.333 1.76 22.573 1 21.303 1ZM22.243 4.93C22.143 5.03 21.993 5.1 21.833 5.11H20.423V5.62L20.433 6.5C20.423 6.67 20.363 6.81 20.243 6.93C20.143 7.03 19.993 7.1 19.833 7.1C19.503 7.1 19.233 6.83 19.233 6.5V5.1L17.833 5.11C17.503 5.11 17.233 4.83 17.233 4.5C17.233 4.17 17.503 3.9 17.833 3.9L18.713 3.91H19.233V2.51C19.233 2.18 19.503 1.9 19.833 1.9C20.163 1.9 20.433 2.18 20.433 2.51L20.423 3.22V3.9H21.833C22.163 3.9 22.433 4.17 22.433 4.5C22.423 4.67 22.353 4.81 22.243 4.93Z" fill="#B4ADAD"/>
<path d="M9.33313 10.3801C10.6476 10.3801 11.7131 9.31456 11.7131 8.00012C11.7131 6.68568 10.6476 5.62012 9.33313 5.62012C8.01869 5.62012 6.95312 6.68568 6.95312 8.00012C6.95312 9.31456 8.01869 10.3801 9.33313 10.3801Z" fill="#B4ADAD"/>
<path d="M21.303 8H20.833V12.61L20.703 12.5C19.923 11.83 18.663 11.83 17.883 12.5L13.723 16.07C12.943 16.74 11.683 16.74 10.903 16.07L10.563 15.79C9.85301 15.17 8.72301 15.11 7.92301 15.65L4.18301 18.16C3.96301 17.6 3.83301 16.95 3.83301 16.19V7.81C3.83301 4.99 5.32301 3.5 8.14301 3.5H16.333V3.03C16.333 2.63 16.403 2.29 16.563 2H8.14301C4.50301 2 2.33301 4.17 2.33301 7.81V16.19C2.33301 17.28 2.52301 18.23 2.89301 19.03C3.75301 20.93 5.59301 22 8.14301 22H16.523C20.163 22 22.333 19.83 22.333 16.19V7.77C22.043 7.93 21.703 8 21.303 8Z" fill="#B4ADAD"/>
</svg>
