<svg width="24" height="24" viewBox="0 0 24 24" fill="none" xmlns="http://www.w3.org/2000/svg">
<path opacity="0.3" d="M16.05 2H7.95C4.66391 2 2 4.66391 2 7.95V16.05C2 19.3361 4.66391 22 7.95 22H16.05C19.3361 22 22 19.3361 22 16.05V7.95C22 4.66391 19.3361 2 16.05 2Z" fill="#1C0C07"/>
<path d="M7.79 10.1499C7.39444 10.1499 7.00776 10.0326 6.67886 9.81284C6.34997 9.59308 6.09362 9.28072 5.94225 8.91527C5.79087 8.54982 5.75126 8.14768 5.82843 7.75972C5.9056 7.37176 6.09609 7.01539 6.37579 6.73569C6.6555 6.45598 7.01186 6.2655 7.39982 6.18833C7.78779 6.11116 8.18992 6.15077 8.55537 6.30214C8.92082 6.45352 9.23318 6.70986 9.45294 7.03876C9.67271 7.36766 9.79 7.75434 9.79 8.1499C9.79 8.68034 9.57929 9.18904 9.20422 9.56412C8.82914 9.93919 8.32044 10.1499 7.79 10.1499ZM22 15.3899L19.71 13.0799C19.4106 12.7743 19.0516 12.5336 18.6553 12.3726C18.259 12.2117 17.8338 12.134 17.4061 12.1443C16.9785 12.1546 16.5575 12.2527 16.1694 12.4326C15.7813 12.6125 15.4343 12.8703 15.15 13.1899L13.15 15.3599C12.9515 15.5823 12.7109 15.7631 12.4419 15.8917C12.173 16.0204 11.8812 16.0943 11.5835 16.1092C11.2857 16.124 10.988 16.0796 10.7076 15.9785C10.4272 15.8773 10.1697 15.7214 9.95 15.5199C9.39743 15.0177 8.68353 14.7296 7.93718 14.7076C7.19084 14.6856 6.46121 14.9312 5.88 15.3999L2.38 18.2199C2.80745 19.3339 3.56317 20.2919 4.54711 20.9669C5.53105 21.6419 6.69679 22.0021 7.89 21.9999H16.1C17.6739 21.9737 19.1745 21.33 20.2781 20.2076C21.3818 19.0852 22.0002 17.574 22 15.9999V15.3899Z" fill="#1C0C07"/>
</svg>
