<svg xmlns="http://www.w3.org/2000/svg" width="24" height="24" viewBox="0 0 24 24" fill="none">
  <path d="M19.2721 7.882L19.2718 7.86485C19.2633 7.4161 19.2553 6.99224 19.2553 6.58444C19.2553 5.96668 18.7527 5.46412 18.1349 5.46412C15.7447 5.46412 13.9306 4.78263 12.4257 3.31947C11.9878 2.89353 11.3016 2.8935 10.8637 3.31943C9.35892 4.78263 7.54498 5.46412 5.15508 5.46412C4.53732 5.46412 4.03476 5.96668 4.03476 6.58444C4.03476 7.00096 4.02657 7.42904 4.01788 7.88235C3.97746 9.99853 3.92716 12.6322 4.81098 15.0228C5.29695 16.3373 6.03279 17.4797 6.99806 18.4182C8.09743 19.487 9.53735 20.3349 11.2777 20.9381C11.396 20.9792 11.5195 21 11.6447 21C11.77 21 11.8935 20.9792 12.0116 20.9382C13.7522 20.3349 15.1922 19.487 16.2917 18.4181C17.257 17.4796 17.993 16.3372 18.479 15.0226C19.3629 12.6319 19.3126 9.99818 19.2721 7.882ZM17.4898 14.6569C16.5577 17.1779 14.6528 18.9066 11.6659 19.9419C11.6522 19.9466 11.6373 19.9467 11.6231 19.9418C8.63673 18.9066 6.73199 17.178 5.80005 14.6571C4.9853 12.4533 5.03145 10.0356 5.07219 7.90249C5.08098 7.44408 5.08928 7.01108 5.08928 6.58444C5.08928 6.5482 5.11877 6.51867 5.15504 6.51867C7.8371 6.51867 9.88465 5.74234 11.5988 4.07544C11.6117 4.06297 11.6282 4.05671 11.6446 4.05671C11.6611 4.05671 11.6776 4.063 11.6905 4.07548C13.4048 5.74234 15.4525 6.51867 18.1349 6.51867C18.1711 6.51867 18.2007 6.5482 18.2007 6.58444C18.2007 7.00226 18.2088 7.43097 18.2174 7.88485L18.2177 7.90207V7.90211C18.2585 10.0352 18.3047 12.4529 17.4898 14.6569Z" fill="#808284"/>
  <path d="M14.9209 10.2456H13.2243V8.54876C13.2243 8.25756 12.9882 8.02148 12.697 8.02148H10.5926C10.3014 8.02148 10.0653 8.25756 10.0653 8.54876V10.2456H8.3684C8.07721 10.2456 7.84113 10.4817 7.84113 10.7729V12.8773C7.84113 13.1685 8.07721 13.4045 8.3684 13.4045H10.0653V15.1013C10.0653 15.3925 10.3014 15.6286 10.5926 15.6286H12.697C12.9882 15.6286 13.2243 15.3925 13.2243 15.1013V13.4045H14.9209C15.2121 13.4045 15.4482 13.1685 15.4482 12.8773V10.7729C15.4482 10.4816 15.2121 10.2456 14.9209 10.2456ZM14.3936 12.35H12.697C12.4058 12.35 12.1697 12.5861 12.1697 12.8773V14.574H11.1199V12.8773C11.1199 12.5861 10.8838 12.35 10.5926 12.35H8.89568V11.3001H10.5926C10.8838 11.3001 11.1199 11.0641 11.1199 10.7729V9.07604H12.1697V10.7729C12.1697 11.0641 12.4058 11.3001 12.697 11.3001H14.3936V12.35H14.3936Z" fill="#808284"/>
</svg>