<svg width="25" height="24" viewBox="0 0 25 24" fill="none" xmlns="http://www.w3.org/2000/svg">
<path fill-rule="evenodd" clip-rule="evenodd" d="M12.5 3.75C10.4289 3.75 8.74998 5.42893 8.74998 7.5C8.74998 9.57107 10.4289 11.25 12.5 11.25C14.571 11.25 16.25 9.57107 16.25 7.5C16.25 5.42893 14.571 3.75 12.5 3.75ZM7.24998 7.5C7.24998 4.6005 9.60048 2.25 12.5 2.25C15.3995 2.25 17.75 4.6005 17.75 7.5C17.75 10.3995 15.3995 12.75 12.5 12.75C9.60048 12.75 7.24998 10.3995 7.24998 7.5ZM9.85696 14.75C9.90399 14.75 9.95166 14.75 9.99998 14.75H15C15.0483 14.75 15.096 14.75 15.143 14.75C16.4011 14.7497 17.203 14.7495 17.8788 14.9545C19.3969 15.415 20.5849 16.603 21.0454 18.1211C21.2505 18.797 21.2503 19.5989 21.25 20.857C21.25 20.904 21.25 20.9517 21.25 21C21.25 21.4142 20.9142 21.75 20.5 21.75C20.0858 21.75 19.75 21.4142 19.75 21C19.75 19.5499 19.7418 18.9911 19.61 18.5566C19.2949 17.5179 18.4821 16.705 17.4434 16.3899C17.0089 16.2581 16.4501 16.25 15 16.25H9.99998C8.54985 16.25 7.99105 16.2581 7.55655 16.3899C6.51785 16.705 5.70501 17.5179 5.38992 18.5566C5.25812 18.9911 5.24998 19.5499 5.24998 21C5.24998 21.4142 4.91419 21.75 4.49998 21.75C4.08577 21.75 3.74998 21.4142 3.74998 21C3.74998 20.9517 3.74997 20.904 3.74996 20.857C3.74968 19.5989 3.7495 18.797 3.95451 18.1211C4.41503 16.603 5.60302 15.415 7.12112 14.9545C7.79696 14.7495 8.59886 14.7497 9.85696 14.75Z" fill="#323232"/>
</svg>
