<svg width="25" height="24" viewBox="0 0 25 24" fill="none" xmlns="http://www.w3.org/2000/svg">
<circle cx="12.5" cy="7.5" r="4.5" fill="#D90506" fill-opacity="0.05"/>
<path d="M5 17C5 16.4477 5.44772 16 6 16H19C19.5523 16 20 16.4477 20 17V22H5V17Z" fill="#D90506" fill-opacity="0.05"/>
<path fill-rule="evenodd" clip-rule="evenodd" d="M12.5 3.75C10.429 3.75 8.75004 5.42893 8.75004 7.5C8.75004 9.57107 10.429 11.25 12.5 11.25C14.5711 11.25 16.25 9.57107 16.25 7.5C16.25 5.42893 14.5711 3.75 12.5 3.75ZM7.25004 7.5C7.25004 4.6005 9.60055 2.25 12.5 2.25C15.3995 2.25 17.75 4.6005 17.75 7.5C17.75 10.3995 15.3995 12.75 12.5 12.75C9.60055 12.75 7.25004 10.3995 7.25004 7.5ZM9.85703 14.75C9.90406 14.75 9.95172 14.75 10 14.75H15C15.0484 14.75 15.096 14.75 15.143 14.75C16.4012 14.7497 17.2031 14.7495 17.8789 14.9545C19.397 15.415 20.585 16.603 21.0455 18.1211C21.2505 18.797 21.2503 19.5989 21.2501 20.857C21.2501 20.904 21.25 20.9517 21.25 21C21.25 21.4142 20.9143 21.75 20.5 21.75C20.0858 21.75 19.75 21.4142 19.75 21C19.75 19.5499 19.7419 18.9911 19.6101 18.5566C19.295 17.5179 18.4822 16.705 17.4435 16.3899C17.009 16.2581 16.4502 16.25 15 16.25H10C8.54991 16.25 7.99111 16.2581 7.55661 16.3899C6.51791 16.705 5.70507 17.5179 5.38999 18.5566C5.25818 18.9911 5.25004 19.5499 5.25004 21C5.25004 21.4142 4.91425 21.75 4.50004 21.75C4.08583 21.75 3.75004 21.4142 3.75004 21C3.75004 20.9517 3.75003 20.904 3.75002 20.857C3.74974 19.5989 3.74956 18.797 3.95458 18.1211C4.41509 16.603 5.60308 15.415 7.12119 14.9545C7.79702 14.7495 8.59892 14.7497 9.85703 14.75Z" fill="#D90506"/>
</svg>
