<svg width="21" height="20" viewBox="0 0 21 20" fill="none" xmlns="http://www.w3.org/2000/svg">
<g clip-path="url(#clip0_7606_12877)">
<path d="M4.94928 10.8875C5.00926 10.8872 5.00926 10.8872 5.07044 10.8869C5.20228 10.8864 5.33411 10.8864 5.46596 10.8865C5.5578 10.8864 5.64964 10.8862 5.74149 10.886C5.93388 10.8857 6.12626 10.8857 6.31865 10.8859C6.56498 10.8862 6.81129 10.8855 7.05762 10.8846C7.24726 10.884 7.4369 10.884 7.62654 10.8841C7.71735 10.8841 7.80816 10.8839 7.89897 10.8835C8.02603 10.883 8.15307 10.8833 8.28013 10.8837C8.31749 10.8834 8.35486 10.8831 8.39336 10.8828C8.72908 10.8854 8.95178 10.9783 9.19536 11.2108C9.31691 11.3826 9.35629 11.528 9.35709 11.7362C9.35732 11.7708 9.35754 11.8054 9.35777 11.8411C9.35783 11.8976 9.35783 11.8976 9.3579 11.9552C9.3581 11.9951 9.35829 12.035 9.35849 12.0761C9.35906 12.2082 9.35933 12.3403 9.35954 12.4724C9.35977 12.5642 9.35999 12.6561 9.36022 12.7479C9.36063 12.9406 9.36086 13.1333 9.36099 13.326C9.36121 13.5726 9.36214 13.8192 9.36326 14.0658C9.36399 14.2556 9.36419 14.4454 9.36425 14.6352C9.36437 14.7261 9.36468 14.817 9.36519 14.9079C9.36586 15.0352 9.36578 15.1625 9.36553 15.2899C9.36589 15.3272 9.36625 15.3646 9.36662 15.403C9.365 15.6645 9.33485 15.8949 9.16148 16.103C9.1356 16.1241 9.10972 16.1451 9.08305 16.1668C9.05737 16.1885 9.03169 16.2101 9.00523 16.2324C8.78386 16.3824 8.58149 16.3786 8.32213 16.3784C8.28145 16.3786 8.24078 16.3789 8.19887 16.3792C8.06447 16.3799 7.93007 16.38 7.79567 16.3801C7.70211 16.3804 7.60855 16.3806 7.515 16.3809C7.31886 16.3814 7.12273 16.3815 6.92659 16.3815C6.67558 16.3815 6.42458 16.3825 6.17357 16.3839C5.98031 16.3848 5.78706 16.3849 5.59379 16.3849C5.50127 16.385 5.40875 16.3853 5.31622 16.3859C5.18664 16.3867 5.05709 16.3865 4.9275 16.386C4.88948 16.3864 4.85147 16.3869 4.8123 16.3873C4.53622 16.3848 4.32762 16.3249 4.11632 16.1426C4.09889 16.1208 4.08147 16.0989 4.06352 16.0765C4.04549 16.0548 4.02747 16.0331 4.00889 16.0107C3.86648 15.7926 3.87127 15.5904 3.87151 15.3375C3.87125 15.2969 3.87098 15.2562 3.87071 15.2143C3.86997 15.0799 3.86982 14.9455 3.86973 14.8111C3.86948 14.7175 3.86922 14.624 3.86895 14.5304C3.86848 14.3343 3.86833 14.1381 3.86838 13.942C3.86839 13.691 3.86732 13.44 3.86598 13.189C3.86511 12.9957 3.86495 12.8025 3.86499 12.6092C3.8649 12.5167 3.86455 12.4241 3.86395 12.3316C3.86318 12.202 3.86341 12.0725 3.86388 11.9429C3.86344 11.9049 3.863 11.8669 3.86255 11.8277C3.86509 11.5514 3.92588 11.3447 4.10594 11.1317C4.12739 11.1143 4.14884 11.0969 4.17094 11.0789C4.19219 11.0609 4.21344 11.0429 4.23534 11.0243C4.46259 10.8833 4.6909 10.8869 4.94928 10.8875ZM5.71879 12.7342C5.71879 13.3272 5.71879 13.9201 5.71879 14.5311C6.31176 14.5311 6.90473 14.5311 7.51567 14.5311C7.51567 13.9381 7.51567 13.3451 7.51567 12.7342C6.9227 12.7342 6.32973 12.7342 5.71879 12.7342Z" fill="white"/>
<path d="M4.91234 3.62224C4.95301 3.62198 4.99369 3.62172 5.0356 3.62145C5.17 3.6207 5.30439 3.62055 5.4388 3.62047C5.53235 3.62022 5.62591 3.61995 5.71947 3.61968C5.9156 3.61921 6.11174 3.61907 6.30787 3.61911C6.55888 3.61912 6.80988 3.61805 7.06089 3.61671C7.25415 3.61584 7.44741 3.61568 7.64067 3.61572C7.73319 3.61563 7.82572 3.61529 7.91824 3.61468C8.04783 3.61391 8.17738 3.61414 8.30696 3.61461C8.34498 3.61417 8.383 3.61373 8.42217 3.61328C8.69847 3.61582 8.9052 3.67662 9.11815 3.85667C9.13557 3.87812 9.15299 3.89957 9.17094 3.92168C9.19798 3.95355 9.19798 3.95355 9.22557 3.98607C9.3666 4.21333 9.363 4.44163 9.36234 4.70002C9.36254 4.74 9.36274 4.77998 9.36294 4.82117C9.36348 4.95301 9.36345 5.08485 9.36336 5.21669C9.36351 5.30853 9.36368 5.40038 9.36386 5.49222C9.36416 5.68461 9.36414 5.87699 9.36394 6.06938C9.36371 6.31571 9.36437 6.56202 9.36528 6.80835C9.36586 6.99799 9.36589 7.18763 9.36577 7.37727C9.36579 7.46808 9.36599 7.55889 9.36639 7.6497C9.36687 7.77676 9.3666 7.9038 9.36615 8.03086C9.36645 8.06822 9.36675 8.10559 9.36706 8.14409C9.36473 8.4396 9.30383 8.66623 9.09988 8.8937C8.85989 9.10059 8.57609 9.12504 8.2725 9.12194C8.23256 9.12215 8.19263 9.12236 8.15148 9.12258C8.02045 9.12306 7.88946 9.12242 7.75844 9.12172C7.66685 9.12172 7.57527 9.12178 7.48369 9.12189C7.29216 9.12194 7.10065 9.12146 6.90912 9.12056C6.66407 9.11946 6.41904 9.11956 6.17398 9.12006C5.98501 9.12033 5.79604 9.12003 5.60707 9.11954C5.51673 9.11937 5.42638 9.11935 5.33604 9.11951C5.20966 9.11962 5.0833 9.11897 4.95691 9.11812C4.91987 9.1183 4.88283 9.11847 4.84467 9.11866C4.58446 9.11576 4.35388 9.08464 4.14683 8.91222C4.12579 8.88633 4.10474 8.86045 4.08305 8.83379C4.0614 8.8081 4.03975 8.78242 4.01744 8.75597C3.86743 8.5346 3.87127 8.33222 3.87151 8.07286C3.87125 8.03218 3.87098 7.99151 3.87071 7.9496C3.86997 7.8152 3.86982 7.68081 3.86973 7.5464C3.86948 7.45284 3.86922 7.35929 3.86895 7.26573C3.86848 7.06959 3.86833 6.87346 3.86838 6.67733C3.86839 6.42631 3.86732 6.17532 3.86598 5.92431C3.86511 5.73105 3.86495 5.53779 3.86499 5.34453C3.8649 5.252 3.86455 5.15948 3.86395 5.06696C3.86318 4.93737 3.86341 4.80782 3.86388 4.67824C3.86344 4.64022 3.863 4.6022 3.86255 4.56303C3.86509 4.28696 3.92497 4.07835 4.10731 3.86705C4.12912 3.84963 4.15092 3.8322 4.17338 3.81425C4.19509 3.79623 4.21679 3.7782 4.23915 3.75963C4.45731 3.61721 4.65949 3.62201 4.91234 3.62224ZM5.71879 5.46953C5.71879 6.0625 5.71879 6.65546 5.71879 7.2664C6.31176 7.2664 6.90473 7.2664 7.51567 7.2664C7.51567 6.67343 7.51567 6.08046 7.51567 5.46953C6.9227 5.46953 6.32973 5.46953 5.71879 5.46953Z" fill="white"/>
<path d="M12.178 3.62224C12.2187 3.62198 12.2593 3.62172 12.3012 3.62145C12.4356 3.6207 12.57 3.62055 12.7044 3.62047C12.798 3.62022 12.8916 3.61995 12.9851 3.61968C13.1813 3.61921 13.3774 3.61907 13.5735 3.61911C13.8245 3.61912 14.0755 3.61805 14.3265 3.61671C14.5198 3.61584 14.7131 3.61568 14.9063 3.61572C14.9988 3.61563 15.0914 3.61529 15.1839 3.61468C15.3135 3.61391 15.443 3.61414 15.5726 3.61461C15.6106 3.61417 15.6486 3.61373 15.6878 3.61328C15.9639 3.61582 16.1725 3.67571 16.3838 3.85805C16.4099 3.89075 16.4099 3.89075 16.4366 3.92412C16.4636 3.95667 16.4636 3.95667 16.4912 3.98988C16.6336 4.20805 16.6288 4.41022 16.6286 4.66307C16.6289 4.70375 16.6291 4.74442 16.6294 4.78633C16.6301 4.92073 16.6303 5.05512 16.6304 5.18953C16.6306 5.28309 16.6309 5.37664 16.6312 5.4702C16.6316 5.66634 16.6318 5.86247 16.6317 6.0586C16.6317 6.30962 16.6328 6.56061 16.6341 6.81162C16.635 7.00488 16.6352 7.19814 16.6351 7.3914C16.6352 7.48393 16.6356 7.57645 16.6362 7.66897C16.6369 7.79856 16.6367 7.92811 16.6362 8.05769C16.6367 8.09571 16.6371 8.13373 16.6376 8.1729C16.635 8.4492 16.5742 8.65594 16.3942 8.86888C16.362 8.89501 16.362 8.89501 16.3292 8.92168C16.3079 8.9397 16.2867 8.95773 16.2648 8.9763C16.038 9.117 15.8099 9.11393 15.5521 9.11369C15.5122 9.11395 15.4724 9.11421 15.4313 9.11448C15.2998 9.11522 15.1684 9.11538 15.0369 9.11546C14.9452 9.11571 14.8536 9.11598 14.7619 9.11625C14.5699 9.11672 14.3778 9.11686 14.1858 9.11682C13.9401 9.11681 13.6945 9.11787 13.4489 9.11922C13.2596 9.12009 13.0703 9.12025 12.881 9.12021C12.7905 9.1203 12.6999 9.12064 12.6094 9.12125C12.4825 9.12202 12.3557 9.12179 12.2289 9.12132C12.1918 9.12176 12.1547 9.1222 12.1165 9.12265C11.8428 9.12008 11.5949 9.06825 11.3873 8.87887C11.1522 8.62816 11.1369 8.36612 11.1378 8.03653C11.1376 7.99661 11.1374 7.9567 11.1372 7.91557C11.1366 7.78391 11.1367 7.65227 11.1368 7.52061C11.1366 7.42886 11.1364 7.33711 11.1362 7.24536C11.136 7.05314 11.136 6.86092 11.1362 6.6687C11.1364 6.42272 11.1357 6.17676 11.1348 5.93079C11.1343 5.74131 11.1342 5.55184 11.1343 5.36237C11.1343 5.2717 11.1341 5.18103 11.1337 5.09036C11.1332 4.9634 11.1335 4.83646 11.134 4.70951C11.1337 4.67228 11.1334 4.63505 11.1331 4.5967C11.1351 4.33569 11.1656 4.10532 11.3386 3.89757C11.3645 3.87652 11.3904 3.85547 11.4171 3.83379C11.4427 3.81213 11.4684 3.79048 11.4949 3.76817C11.7162 3.61816 11.9186 3.622 12.178 3.62224ZM12.9844 5.46953C12.9844 6.0625 12.9844 6.65546 12.9844 7.2664C13.5774 7.2664 14.1704 7.2664 14.7813 7.2664C14.7813 6.67343 14.7813 6.08046 14.7813 5.46953C14.1883 5.46953 13.5954 5.46953 12.9844 5.46953Z" fill="white"/>
<path d="M1.74398 12.8697C1.95268 13.0374 2.06517 13.2208 2.09676 13.4905C2.10098 13.5943 2.10164 13.6975 2.10096 13.8014C2.10117 13.8406 2.10138 13.8798 2.10159 13.9201C2.10197 14.0047 2.10209 14.0893 2.10197 14.1738C2.10179 14.3078 2.10234 14.4418 2.10308 14.5758C2.10476 14.9086 2.10519 15.2413 2.10567 15.574C2.10612 15.8555 2.10704 16.137 2.10858 16.4185C2.10911 16.5502 2.10895 16.682 2.10876 16.8137C2.10913 16.8948 2.10953 16.9759 2.10996 17.057C2.10972 17.0934 2.10948 17.1298 2.10923 17.1673C2.11182 17.443 2.15155 17.6657 2.33495 17.8828C2.53567 18.0501 2.69899 18.1292 2.95971 18.1297C3.01054 18.1299 3.01054 18.1299 3.0624 18.1301C3.09927 18.1301 3.13615 18.1301 3.17414 18.1301C3.21322 18.1302 3.2523 18.1304 3.29257 18.1305C3.37744 18.1308 3.46231 18.131 3.54719 18.1311C3.68168 18.1314 3.81618 18.132 3.95067 18.1327C4.33309 18.1348 4.7155 18.1367 5.09793 18.1373C5.33189 18.1377 5.56584 18.1388 5.79979 18.1404C5.88879 18.1409 5.9778 18.1411 6.0668 18.141C6.19161 18.1409 6.31639 18.1418 6.4412 18.1429C6.47767 18.1426 6.51415 18.1424 6.55174 18.1421C6.82288 18.1459 7.06638 18.2007 7.2755 18.3829C7.46579 18.5795 7.54013 18.8115 7.56933 19.0791C7.53756 19.3809 7.46723 19.6332 7.24218 19.8433C7.00146 20.0074 6.77905 20.022 6.4941 20.0198C6.4515 20.02 6.40889 20.0203 6.365 20.0206C6.22475 20.0213 6.08452 20.0208 5.94427 20.0203C5.84618 20.0204 5.7481 20.0205 5.65001 20.0207C5.44453 20.021 5.23905 20.0207 5.03356 20.0199C4.82344 20.0192 4.61334 20.0192 4.40322 20.0199C4.14857 20.0208 3.89392 20.021 3.63927 20.0204C3.54269 20.0203 3.4461 20.0205 3.34952 20.0208C2.38487 20.0237 2.38487 20.0237 1.92968 19.8433C1.90183 19.833 1.87398 19.8226 1.84528 19.812C1.17529 19.5457 0.682038 18.9739 0.39776 18.3237C0.274019 17.9919 0.232639 17.6678 0.234207 17.3159C0.233939 17.2729 0.233671 17.2299 0.233395 17.1856C0.232686 17.0451 0.23283 16.9046 0.233053 16.7641C0.232875 16.6656 0.232668 16.5672 0.232433 16.4688C0.232085 16.2633 0.232168 16.0577 0.232567 15.8522C0.233016 15.6153 0.232463 15.3784 0.231419 15.1415C0.230447 14.9124 0.230351 14.6833 0.230603 14.4542C0.230609 14.3573 0.230373 14.2603 0.229888 14.1633C0.229306 14.0277 0.229723 13.8922 0.230392 13.7567C0.230015 13.7169 0.229637 13.6771 0.229248 13.6361C0.232145 13.3554 0.28565 13.1386 0.478872 12.9283C0.867673 12.6504 1.3329 12.5995 1.74398 12.8697Z" fill="white"/>
<path d="M2.9335 -0.0165253C2.9765 -0.0167934 3.0195 -0.0170615 3.06381 -0.0173377C3.20433 -0.018046 3.34484 -0.0179022 3.48537 -0.0176792C3.5838 -0.0178576 3.68222 -0.0180649 3.78064 -0.0182997C3.98617 -0.0186475 4.1917 -0.0185643 4.39724 -0.0181656C4.63414 -0.0177161 4.87102 -0.0182692 5.10792 -0.0193139C5.33701 -0.0202859 5.5661 -0.0203813 5.79519 -0.0201296C5.89219 -0.0201237 5.98918 -0.0203593 6.08617 -0.0208441C6.22172 -0.0214266 6.35722 -0.0210095 6.49277 -0.02034C6.53255 -0.0207176 6.57233 -0.0210953 6.61331 -0.0214844C6.89403 -0.0185872 7.11086 0.0349174 7.32113 0.22814C7.5067 0.487731 7.58307 0.729189 7.55459 1.05395C7.50113 1.32218 7.38177 1.54762 7.16396 1.71801C6.91816 1.82948 6.71594 1.85199 6.44802 1.85023C6.40885 1.85044 6.36968 1.85065 6.32933 1.85086C6.24476 1.85124 6.16019 1.85136 6.07561 1.85124C5.9416 1.85106 5.80761 1.85161 5.6736 1.85235C5.34087 1.85402 5.00815 1.85446 4.67543 1.85493C4.39392 1.85539 4.11243 1.85631 3.83093 1.85785C3.6992 1.85838 3.56748 1.85822 3.43574 1.85803C3.35463 1.8584 3.27352 1.85879 3.1924 1.85923C3.15603 1.85899 3.11966 1.85875 3.08218 1.8585C2.80644 1.86109 2.58378 1.90082 2.3666 2.08422C2.19933 2.28494 2.12021 2.44826 2.11977 2.70897C2.11961 2.74286 2.11946 2.77675 2.1193 2.81167C2.11933 2.86698 2.11933 2.86698 2.11936 2.9234C2.11922 2.96249 2.11909 3.00157 2.11895 3.04183C2.11866 3.12671 2.11845 3.21158 2.11831 3.29645C2.11803 3.43095 2.11742 3.56544 2.1167 3.69994C2.11465 4.08236 2.11277 4.46477 2.11217 4.84719C2.11177 5.08116 2.11063 5.3151 2.10899 5.54906C2.10851 5.63806 2.10831 5.72706 2.1084 5.81607C2.10849 5.94088 2.10762 6.06566 2.10654 6.19046C2.10693 6.24518 2.10693 6.24518 2.10732 6.301C2.10349 6.57215 2.04877 6.81565 1.8665 7.02477C1.66991 7.21505 1.43791 7.2894 1.17031 7.31859C0.868575 7.28683 0.616199 7.2165 0.40615 6.99145C0.241562 6.75033 0.227592 6.52757 0.230302 6.24212C0.229985 6.17803 0.229985 6.17803 0.229662 6.11265C0.229176 5.97202 0.229818 5.83142 0.230521 5.69079C0.230515 5.59252 0.230457 5.49425 0.230349 5.39597C0.230295 5.19016 0.230768 4.98435 0.231675 4.77854C0.232712 4.54174 0.232783 4.30495 0.232324 4.06815C0.2319 3.83914 0.232151 3.61013 0.232697 3.38112C0.232873 3.28426 0.232887 3.18739 0.232734 3.09053C0.232619 2.95463 0.233269 2.81876 0.234117 2.68286C0.233941 2.6434 0.233765 2.60393 0.233584 2.56327C0.237627 2.1697 0.324656 1.79574 0.503806 1.44457C0.517103 1.41834 0.530399 1.39211 0.544099 1.36508C0.865705 0.762866 1.45718 0.285269 2.10913 0.0853456C2.38856 0.0109015 2.645 -0.0178108 2.9335 -0.0165253Z" fill="white"/>
<path d="M19.9309 12.8518C20.1163 12.9908 20.2308 13.1895 20.2644 13.4173C20.2702 13.5301 20.2711 13.642 20.2702 13.7549C20.2704 13.7975 20.2707 13.8401 20.271 13.884C20.2717 14.0243 20.2712 14.1645 20.2707 14.3048C20.2708 14.4028 20.2709 14.5009 20.2711 14.599C20.2714 14.8045 20.271 15.01 20.2703 15.2155C20.2695 15.4256 20.2695 15.6357 20.2703 15.8458C20.2712 16.1005 20.2713 16.3551 20.2708 16.6098C20.2707 16.7063 20.2709 16.8029 20.2712 16.8995C20.2741 17.8642 20.2741 17.8642 20.0937 18.3193C20.0834 18.3472 20.073 18.375 20.0624 18.4037C19.7961 19.0737 19.2243 19.567 18.5741 19.8513C18.2423 19.975 17.9182 20.0164 17.5663 20.0148C17.5233 20.0151 17.4803 20.0154 17.436 20.0156C17.2955 20.0163 17.155 20.0162 17.0145 20.016C16.916 20.0161 16.8176 20.0164 16.7192 20.0166C16.5137 20.0169 16.3081 20.0169 16.1026 20.0165C15.8657 20.016 15.6288 20.0166 15.3919 20.0176C15.1628 20.0186 14.9337 20.0187 14.7046 20.0184C14.6076 20.0184 14.5107 20.0187 14.4137 20.0191C14.2781 20.0197 14.1426 20.0193 14.0071 20.0186C13.9673 20.019 13.9275 20.0194 13.8865 20.0198C13.6058 20.0169 13.389 19.9634 13.1787 19.7702C12.9931 19.5106 12.9168 19.2691 12.9452 18.9443C12.9987 18.6761 13.1181 18.4507 13.3359 18.2803C13.5817 18.1688 13.7839 18.1463 14.0518 18.1481C14.1106 18.1478 14.1106 18.1478 14.1705 18.1474C14.2551 18.147 14.3396 18.1469 14.4242 18.1471C14.5582 18.1472 14.6922 18.1467 14.8262 18.1459C15.159 18.1443 15.4917 18.1438 15.8244 18.1434C16.1059 18.1429 16.3874 18.142 16.6689 18.1404C16.8006 18.1399 16.9324 18.1401 17.0641 18.1403C17.1452 18.1399 17.2263 18.1395 17.3074 18.1391C17.3438 18.1393 17.3802 18.1395 17.4176 18.1398C17.6934 18.1372 17.9161 18.0975 18.1332 17.9141C18.3005 17.7134 18.3796 17.55 18.3801 17.2893C18.3802 17.2554 18.3804 17.2215 18.3805 17.1866C18.3805 17.1498 18.3805 17.1129 18.3805 17.0749C18.3806 17.0358 18.3807 16.9967 18.3809 16.9565C18.3812 16.8716 18.3814 16.7867 18.3815 16.7018C18.3818 16.5673 18.3824 16.4328 18.3831 16.2983C18.3852 15.9159 18.3871 15.5335 18.3877 15.1511C18.3881 14.9171 18.3892 14.6832 18.3908 14.4492C18.3913 14.3602 18.3915 14.2712 18.3914 14.1822C18.3913 14.0574 18.3922 13.9326 18.3933 13.8078C18.393 13.7713 18.3928 13.7349 18.3925 13.6973C18.3963 13.4261 18.4511 13.1826 18.6333 12.9735C18.9895 12.6288 19.5093 12.6145 19.9309 12.8518Z" fill="white"/>
<path d="M14.0059 -0.0198044C14.0485 -0.0200782 14.0911 -0.020352 14.135 -0.0206341C14.2752 -0.0213194 14.4155 -0.0208671 14.5557 -0.0203384C14.6538 -0.0204438 14.7519 -0.0205955 14.85 -0.0207914C15.0555 -0.0210216 15.2609 -0.0207029 15.4664 -0.019957C15.6765 -0.0192029 15.8866 -0.0191988 16.0968 -0.019957C16.3514 -0.0208676 16.6061 -0.0210023 16.8607 -0.0204952C16.9573 -0.0203916 17.0539 -0.0205165 17.1505 -0.0208826C18.1151 -0.0237354 18.1151 -0.0237354 18.5703 0.156663C18.6121 0.172152 18.6121 0.172152 18.6547 0.187954C19.3247 0.454218 19.818 1.02606 20.1022 1.67622C20.226 2.00802 20.2674 2.33217 20.2658 2.68401C20.2661 2.72702 20.2663 2.77002 20.2666 2.81432C20.2673 2.95485 20.2672 3.09536 20.2669 3.23589C20.2671 3.33431 20.2673 3.43273 20.2676 3.53115C20.2679 3.73669 20.2678 3.94222 20.2674 4.14775C20.267 4.38465 20.2675 4.62153 20.2686 4.85843C20.2695 5.08752 20.2696 5.31661 20.2694 5.54571C20.2694 5.6427 20.2696 5.73969 20.2701 5.83669C20.2707 5.97223 20.2703 6.10774 20.2696 6.24328C20.2702 6.30295 20.2702 6.30295 20.2707 6.36383C20.2678 6.64454 20.2143 6.86137 20.0211 7.07164C19.7615 7.25722 19.5201 7.33359 19.1953 7.3051C18.9271 7.25165 18.7016 7.13228 18.5312 6.91448C18.4198 6.66867 18.3973 6.46646 18.399 6.19853C18.3988 6.15937 18.3986 6.1202 18.3984 6.07984C18.398 5.99527 18.3979 5.9107 18.398 5.82613C18.3982 5.69212 18.3976 5.55812 18.3969 5.42411C18.3952 5.09139 18.3948 4.75867 18.3943 4.42594C18.3939 4.14444 18.393 3.86294 18.3914 3.58145C18.3909 3.44971 18.391 3.31799 18.3912 3.18626C18.3909 3.10514 18.3905 3.02403 18.39 2.94292C18.3903 2.90655 18.3905 2.87017 18.3908 2.8327C18.3882 2.55696 18.3484 2.33429 18.165 2.11711C17.9643 1.94985 17.801 1.87072 17.5403 1.87028C17.5064 1.87013 17.4725 1.86997 17.4376 1.86981C17.4007 1.86983 17.3638 1.86985 17.3259 1.86987C17.2868 1.86974 17.2477 1.8696 17.2074 1.86946C17.1226 1.86917 17.0377 1.86897 16.9528 1.86882C16.8183 1.86854 16.6838 1.86793 16.5493 1.86721C16.1669 1.86516 15.7845 1.86329 15.4021 1.86268C15.1681 1.86229 14.9342 1.86114 14.7002 1.85951C14.6112 1.85903 14.5222 1.85882 14.4332 1.85891C14.3084 1.859 14.1836 1.85813 14.0588 1.85706C14.0223 1.85731 13.9858 1.85757 13.9483 1.85784C13.6771 1.854 13.4336 1.79928 13.2245 1.61701C13.0342 1.42042 12.9599 1.18842 12.9307 0.920824C12.9624 0.619089 13.0328 0.366712 13.2578 0.156663C13.4985 -0.00746393 13.7209 -0.022077 14.0059 -0.0198044Z" fill="white"/>
<path d="M13.0561 14.5246C13.0868 14.5244 13.1175 14.5241 13.1492 14.5239C13.2506 14.5231 13.3521 14.5226 13.4535 14.5222C13.4883 14.5221 13.523 14.5219 13.5588 14.5218C13.7429 14.5209 13.9269 14.5204 14.1109 14.52C14.3004 14.5196 14.4899 14.5182 14.6794 14.5167C14.8256 14.5157 14.9718 14.5153 15.118 14.5152C15.1878 14.515 15.2577 14.5146 15.3275 14.5138C16.1122 14.5062 16.1122 14.5062 16.3771 14.7562C16.6148 15.0096 16.6385 15.2601 16.6292 15.5991C16.6072 15.8611 16.5182 16.0115 16.3266 16.1868C16.1238 16.3553 15.9277 16.3791 15.6701 16.3788C15.6382 16.3791 15.6063 16.3794 15.5734 16.3796C15.4682 16.3804 15.363 16.3805 15.2577 16.3806C15.1843 16.3809 15.1109 16.3811 15.0375 16.3814C14.8836 16.3819 14.7298 16.382 14.576 16.382C14.3793 16.382 14.1827 16.383 13.9861 16.3844C13.8345 16.3852 13.6828 16.3854 13.5312 16.3854C13.4587 16.3854 13.3863 16.3858 13.3138 16.3864C13.2122 16.3872 13.1106 16.3869 13.009 16.3865C12.9794 16.3869 12.9498 16.3873 12.9192 16.3878C12.6463 16.3846 12.4444 16.2944 12.2495 16.1038C12.0613 15.8243 12.0105 15.5712 12.0468 15.2347C12.0986 15.0132 12.1937 14.8144 12.3856 14.6817C12.6144 14.5448 12.7941 14.5256 13.0561 14.5246Z" fill="white"/>
<path d="M12.5631 10.9689C12.7652 11.1027 12.9106 11.2933 12.9843 11.5228C12.9926 11.635 12.9971 11.7434 12.9974 11.8556C12.9976 11.8875 12.9979 11.9195 12.9982 11.9524C12.9986 12.0198 12.9988 12.0872 12.9987 12.1546C12.9989 12.2569 13.0003 12.3592 13.0018 12.4616C13.002 12.5273 13.0022 12.5931 13.0023 12.6588C13.0028 12.6891 13.0034 12.7193 13.004 12.7505C13.0019 13.0039 12.927 13.2072 12.7584 13.3987C12.7363 13.4161 12.7141 13.4336 12.6913 13.4515C12.6691 13.4695 12.647 13.4876 12.6242 13.5061C12.4053 13.6569 12.1751 13.6881 11.9123 13.6616C11.6039 13.6027 11.4095 13.4517 11.2265 13.2025C11.1393 13.0332 11.1358 12.8709 11.1352 12.6843C11.1349 12.6533 11.1347 12.6224 11.1344 12.5905C11.134 12.5251 11.1338 12.4597 11.1338 12.3943C11.1337 12.2951 11.1323 12.1961 11.1308 12.097C11.1259 11.4029 11.1259 11.4029 11.3718 11.1379C11.6755 10.8472 12.1815 10.7991 12.5631 10.9689Z" fill="white"/>
<path d="M14.8664 10.8863C14.8965 10.8862 14.9266 10.886 14.9577 10.8858C15.0212 10.8856 15.0847 10.8856 15.1482 10.8858C15.2445 10.8859 15.3408 10.885 15.4372 10.884C15.4992 10.8839 15.5612 10.8839 15.6232 10.8839C15.6516 10.8835 15.68 10.8832 15.7093 10.8828C15.9475 10.8849 16.1654 10.9318 16.3532 11.0882C16.3742 11.1141 16.3953 11.14 16.417 11.1666C16.4386 11.1923 16.4603 11.218 16.4826 11.2445C16.6619 11.5091 16.6429 11.8022 16.6172 12.109C16.555 12.3519 16.3946 12.5207 16.1875 12.6559C16.0146 12.7435 15.8493 12.7466 15.6594 12.7472C15.6274 12.7474 15.5955 12.7477 15.5626 12.7479C15.4952 12.7483 15.4278 12.7485 15.3604 12.7485C15.258 12.7487 15.1557 12.7501 15.0534 12.7516C14.9876 12.7518 14.9219 12.752 14.8561 12.752C14.8108 12.7529 14.8108 12.7529 14.7645 12.7537C14.5109 12.7516 14.3092 12.6761 14.1162 12.5096C14.0988 12.4878 14.0814 12.466 14.0634 12.4435C14.0454 12.4218 14.0274 12.4001 14.0088 12.3777C13.8378 12.1157 13.8575 11.8237 13.8828 11.5231C13.9442 11.2831 14.1038 11.1057 14.3125 10.9762C14.4982 10.901 14.6683 10.8861 14.8664 10.8863Z" fill="white"/>
</g>
<defs>
<clipPath id="clip0_7606_12877">
<rect width="20" height="20" fill="white" transform="translate(0.25)"/>
</clipPath>
</defs>
</svg>
