<svg xmlns="http://www.w3.org/2000/svg" width="20" height="20" viewBox="0 0 20 20" fill="none">
  <g clip-path="url(#clip0_232_2060)">
    <path d="M10.0001 18.3327C14.6025 18.3327 18.3334 14.6017 18.3334 9.99935C18.3334 5.39698 14.6025 1.66602 10.0001 1.66602C5.39771 1.66602 1.66675 5.39698 1.66675 9.99935C1.66675 14.6017 5.39771 18.3327 10.0001 18.3327Z" stroke="#66686C" stroke-width="2" stroke-linecap="round" stroke-linejoin="round"/>
    <path d="M7.57495 7.50047C7.77087 6.94353 8.15758 6.4739 8.66658 6.17475C9.17558 5.87561 9.77403 5.76626 10.3559 5.86607C10.9378 5.96588 11.4656 6.26841 11.8458 6.72008C12.2261 7.17175 12.4342 7.74341 12.4333 8.33381C12.4333 10.0005 9.93328 10.8338 9.93328 10.8338" stroke="#66686C" stroke-width="2" stroke-linecap="round" stroke-linejoin="round"/>
    <path d="M10 14.166H10.0083" stroke="#66686C" stroke-width="2" stroke-linecap="round" stroke-linejoin="round"/>
  </g>
  <defs>
    <clipPath id="clip0_232_2060">
      <rect width="20" height="20" fill="white"/>
    </clipPath>
  </defs>
</svg>