<svg xmlns="http://www.w3.org/2000/svg" width="24" height="24" viewBox="0 0 24 24" fill="none">
  <path d="M4.699 17.7002C3.699 16.6002 3.099 15.4002 3.099 13.4002C3.099 9.9002 5.599 6.8002 9.099 5.2002L9.999 6.5002C6.699 8.3002 5.999 10.6002 5.799 12.1002C6.299 11.8002 6.999 11.7002 7.699 11.8002C9.499 12.0002 10.899 13.4002 10.899 15.3002C10.899 16.2002 10.499 17.1002 9.899 17.8002C9.199 18.5002 8.399 18.8002 7.399 18.8002C6.299 18.8002 5.299 18.3002 4.699 17.7002ZM14.699 17.7002C13.699 16.6002 13.099 15.4002 13.099 13.4002C13.099 9.9002 15.599 6.8002 19.099 5.2002L19.999 6.5002C16.699 8.3002 15.999 10.6002 15.799 12.1002C16.299 11.8002 16.999 11.7002 17.699 11.8002C19.499 12.0002 20.899 13.4002 20.899 15.3002C20.899 16.2002 20.499 17.1002 19.899 17.8002C19.299 18.5002 18.399 18.8002 17.399 18.8002C16.299 18.8002 15.299 18.3002 14.699 17.7002Z" fill="#66686C"/>
</svg>