<svg xmlns="http://www.w3.org/2000/svg" width="24" height="24" viewBox="0 0 24 24" fill="none">
  <path d="M10.5631 12.9521C10.5831 12.9336 10.3259 13.1717 12.6061 11.0609C13.6168 10.0501 12.8813 8.34277 11.4802 8.34277C11.1471 8.34277 10.8296 8.4444 10.5631 8.6329C9.95747 8.20449 9.08906 8.24021 8.52009 8.80915C7.89931 9.42996 7.89931 10.4401 8.52009 11.0609L10.5631 12.9521ZM9.64606 9.2803C10.0583 9.2803 10.1946 9.60543 10.5631 9.92618C10.9308 9.60621 11.0679 9.2803 11.4802 9.2803C12.0577 9.2803 12.3517 9.9798 11.9487 10.3924L10.5631 11.6747L9.17753 10.3924C8.77412 9.97937 9.06893 9.2803 9.64606 9.2803Z" fill="#808284"/>
  <path d="M18.4454 17.9967C20.8326 15.2597 20.1583 10.9756 16.9671 9.12775C16.3109 6.19697 13.6889 4 10.5631 4C4.92199 4 1.92427 10.7083 5.64486 14.9078L4.01002 17.125H9.02215C10.0685 18.9037 11.9748 20 14.0474 20H19.9226L18.4454 17.9967ZM6.58555 14.54C3.05062 11.005 5.58533 4.9375 10.5631 4.9375C13.6647 4.9375 16.1881 7.46088 16.1881 10.5625C16.1881 13.6641 13.6647 16.1875 10.5631 16.1875H5.86608L6.87068 14.8251L6.58555 14.54ZM14.0474 19.0625C12.5014 19.0625 11.066 18.3351 10.1491 17.125H10.5631C14.2304 17.125 17.2309 14.0909 17.1225 10.3685C19.3675 12.1807 19.572 15.5637 17.5056 17.6301L17.2205 17.9152L18.0665 19.0625H14.0474Z" fill="#808284"/>
</svg>