<svg width="14" height="14" viewBox="0 0 14 14" fill="none" xmlns="http://www.w3.org/2000/svg">
<g clip-path="url(#clip0_6398_9495)">
<path fill-rule="evenodd" clip-rule="evenodd" d="M7.00008 1.82227C4.14086 1.82227 1.823 4.14012 1.823 6.99935C1.823 9.85857 4.14086 12.1764 7.00008 12.1764C9.85931 12.1764 12.1772 9.85857 12.1772 6.99935C12.1772 4.14012 9.85931 1.82227 7.00008 1.82227ZM0.510498 6.99935C0.510498 3.41525 3.41598 0.509766 7.00008 0.509766C10.5842 0.509766 13.4897 3.41525 13.4897 6.99935C13.4897 10.5834 10.5842 13.4889 7.00008 13.4889C3.41598 13.4889 0.510498 10.5834 0.510498 6.99935Z" fill="#808284"/>
<path fill-rule="evenodd" clip-rule="evenodd" d="M7 2.84375C7.36244 2.84375 7.65625 3.13756 7.65625 3.5V6.59441L9.62682 7.5797C9.95099 7.74179 10.0824 8.13598 9.9203 8.46015C9.75821 8.78432 9.36402 8.91572 9.03985 8.75363L6.70652 7.58697C6.48419 7.4758 6.34375 7.24857 6.34375 7V3.5C6.34375 3.13756 6.63756 2.84375 7 2.84375Z" fill="#808284"/>
</g>
<defs>
<clipPath id="clip0_6398_9495">
<rect width="14" height="14" fill="white"/>
</clipPath>
</defs>
</svg>
