<svg width="14" height="14" viewBox="0 0 14 14" fill="none" xmlns="http://www.w3.org/2000/svg">
<g clip-path="url(#clip0_6398_9463)">
<path d="M12.2226 0.329049C12.3116 0.397512 12.352 0.454769 12.3729 0.564889C12.3375 0.804224 12.0387 1.00834 11.8708 1.17506C11.8212 1.22431 11.7717 1.27365 11.7222 1.32301C11.6173 1.42756 11.5123 1.532 11.4074 1.63642C11.2852 1.75798 11.163 1.87959 11.041 2.00131C10.9922 2.04988 10.9434 2.09837 10.8945 2.14685C10.8647 2.17654 10.835 2.20624 10.8052 2.23593C10.7848 2.25607 10.7848 2.25607 10.7641 2.27661C10.6498 2.38936 10.6498 2.38936 10.5956 2.53706C10.615 2.66342 10.6852 2.7287 10.7733 2.81733C10.8915 2.77225 10.9688 2.68218 11.0548 2.59328C11.0718 2.57594 11.0888 2.55859 11.1063 2.54072C11.1432 2.5031 11.18 2.46543 11.2167 2.4277C11.275 2.36801 11.3334 2.30857 11.392 2.2492C11.5585 2.0804 11.7248 1.91147 11.8902 1.74166C11.9914 1.63776 12.0932 1.5344 12.1953 1.43138C12.2341 1.39205 12.2727 1.35252 12.3111 1.31278C12.3648 1.2572 12.4192 1.20234 12.4738 1.14759C12.4895 1.13105 12.5051 1.11452 12.5213 1.09748C12.6033 1.0166 12.6583 0.975231 12.7759 0.971738C12.8788 0.985299 12.8788 0.985299 12.9608 1.03999C13.0159 1.12263 13.0425 1.18008 13.0353 1.28056C12.9505 1.53867 12.5898 1.79735 12.3985 1.98783C12.3633 2.02299 12.3281 2.05816 12.2929 2.09333C12.2011 2.185 12.1092 2.27659 12.0173 2.36816C11.9233 2.46197 11.8292 2.55586 11.7352 2.64974C11.5514 2.83329 11.3675 3.01674 11.1835 3.20014C11.2156 3.2399 11.2156 3.2399 11.2484 3.28046C11.2605 3.29537 11.2725 3.31028 11.285 3.32565C11.3389 3.38465 11.3725 3.3913 11.4525 3.3996C11.5586 3.38972 11.5885 3.36354 11.6642 3.29013C11.6878 3.26753 11.7114 3.24493 11.7358 3.22164C11.7611 3.1965 11.7863 3.17136 11.8124 3.14545C11.8393 3.11907 11.8662 3.09269 11.8931 3.06633C11.967 2.99365 12.0401 2.92034 12.1131 2.84682C12.1613 2.79825 12.2096 2.74978 12.2579 2.70132C12.3601 2.59879 12.4623 2.49616 12.5643 2.3935C12.6835 2.27369 12.8027 2.15392 12.9221 2.03427C12.9696 1.9865 13.0171 1.93865 13.0646 1.8908C13.0936 1.86174 13.1226 1.83269 13.1515 1.80364C13.1768 1.77821 13.2021 1.75278 13.2282 1.72658C13.3196 1.63979 13.3819 1.6319 13.5085 1.63397C13.5624 1.64155 13.5624 1.64155 13.629 1.68598C13.6823 1.76697 13.6972 1.81785 13.6991 1.91499C13.644 2.05159 13.5614 2.1465 13.4581 2.24862C13.4422 2.26469 13.4263 2.28076 13.4099 2.29732C13.3574 2.35013 13.3047 2.40264 13.2519 2.45513C13.2151 2.49195 13.1784 2.52879 13.1416 2.56563C13.0646 2.64274 12.9875 2.7197 12.9103 2.79655C12.8117 2.89471 12.7134 2.99322 12.6153 3.09186C12.5394 3.16799 12.4634 3.24393 12.3873 3.3198C12.351 3.35603 12.3148 3.39232 12.2786 3.42868C12.2279 3.47965 12.1769 3.53035 12.1258 3.58099C12.1037 3.60326 12.1037 3.60326 12.0813 3.62598C11.8951 3.80911 11.7232 3.91516 11.4586 3.9145C11.4308 3.91457 11.4029 3.91464 11.3741 3.91471C11.2929 3.91108 11.2929 3.91108 11.2275 3.89052C11.1535 3.87593 11.1535 3.87593 11.0932 3.92557C11.0715 3.94695 11.0499 3.96833 11.0276 3.99035C10.99 4.02686 10.99 4.02686 10.9517 4.0641C10.9243 4.09156 10.8969 4.11903 10.8695 4.14651C10.8405 4.1751 10.8113 4.20366 10.7822 4.23219C10.703 4.30988 10.6244 4.38811 10.546 4.46648C10.4969 4.51544 10.4477 4.56429 10.3984 4.61309C10.2266 4.78343 10.0552 4.95419 9.88412 5.12536C9.72483 5.28475 9.56465 5.4432 9.40402 5.60123C9.26608 5.73703 9.12877 5.87346 8.99195 6.01039C8.91025 6.09212 8.82833 6.17359 8.74575 6.25443C8.668 6.33058 8.59109 6.40748 8.51474 6.48503C8.48667 6.51327 8.45832 6.54123 8.42968 6.56888C8.28654 6.70737 8.1872 6.80893 8.18246 7.01471C8.18953 7.12357 8.20003 7.16059 8.26305 7.25321C8.28948 7.27485 8.31592 7.2965 8.34316 7.31879C8.51457 7.46869 8.68245 7.65559 8.70076 7.89333C8.7047 8.14982 8.6711 8.32561 8.49504 8.51743C8.32127 8.67666 8.13506 8.70837 7.90651 8.70531C7.62239 8.67543 7.40133 8.45916 7.22014 8.25286C7.12746 8.17234 7.04513 8.1759 6.92598 8.17895C6.75627 8.2262 6.65845 8.36603 6.5445 8.49361C6.39431 8.651 6.22253 8.6999 6.0121 8.70649C5.80636 8.70441 5.65453 8.65215 5.50026 8.51455C5.32709 8.32652 5.28982 8.15684 5.297 7.9054C5.32065 7.64294 5.50677 7.44408 5.69936 7.27949C5.78611 7.19296 5.81339 7.13536 5.81892 7.01272C5.81132 6.79353 5.68862 6.68058 5.53981 6.53354C5.51212 6.505 5.4845 6.4764 5.45694 6.44773C5.38221 6.37046 5.30646 6.29427 5.2304 6.21831C5.16674 6.15458 5.10355 6.09039 5.04035 6.02621C4.89099 5.87461 4.74075 5.72393 4.58997 5.57376C4.43508 5.41947 4.28193 5.26359 4.12953 5.10684C3.9981 4.9718 3.86557 4.83791 3.73213 4.70485C3.65268 4.62559 3.57372 4.54597 3.49582 4.46517C3.139 4.06744 3.139 4.06744 2.65711 3.89926C2.56488 3.90404 2.47582 3.91727 2.38492 3.93304C2.08932 3.95921 1.76325 3.73903 1.5414 3.56245C1.07174 3.13569 0.798009 2.47096 0.765626 1.84535C0.765289 1.5478 0.849414 1.32457 1.00307 1.07417C1.2297 0.853659 1.50976 0.774173 1.82092 0.763024C2.37189 0.78247 2.90531 1.00056 3.33583 1.34077C3.35712 1.35726 3.37841 1.37376 3.40035 1.39076C3.68189 1.62317 3.86879 1.96601 3.93739 2.32514C3.93062 2.37932 3.93062 2.37932 3.91818 2.43717C3.88847 2.63136 3.88318 2.80713 3.98538 2.981C4.14128 3.18607 4.32677 3.36441 4.51187 3.54286C4.59302 3.62162 4.67264 3.70189 4.75248 3.78196C4.88659 3.91599 5.02178 4.04885 5.15772 4.18103C5.31453 4.33351 5.46969 4.48753 5.62404 4.64251C5.77317 4.79221 5.92322 4.94095 6.07377 5.08922C6.13757 5.15207 6.20108 5.2152 6.26436 5.27857C6.33894 5.35314 6.41429 5.42682 6.49032 5.4999C6.51798 5.52674 6.54536 5.55385 6.57245 5.58126C6.70167 5.71169 6.81148 5.81307 6.99955 5.83067C7.21135 5.81169 7.33179 5.67489 7.47273 5.52888C7.50185 5.49994 7.53104 5.47107 7.56029 5.44226C7.63911 5.36424 7.71687 5.28523 7.79445 5.20598C7.87588 5.1231 7.95819 5.04109 8.04038 4.95896C8.17813 4.82106 8.31522 4.68254 8.45192 4.5436C8.61003 4.38291 8.76898 4.22309 8.92844 4.06375C9.0983 3.89401 9.26753 3.72364 9.43657 3.55309C9.48533 3.50398 9.5342 3.455 9.58309 3.40604C9.65978 3.32919 9.73603 3.25194 9.81196 3.17435C9.83992 3.14592 9.86801 3.11762 9.89626 3.08947C9.93471 3.0511 9.9726 3.01218 10.0105 2.97323C10.0425 2.94075 10.0425 2.94075 10.0752 2.90762C10.1249 2.84724 10.1249 2.84724 10.1104 2.77312C10.1036 2.75162 10.0968 2.73011 10.0897 2.70795C10.0727 2.46986 10.0729 2.27775 10.2313 2.09083C10.4221 1.88483 10.6173 1.68411 10.8161 1.48582C10.8479 1.45393 10.8798 1.42204 10.9117 1.39014C10.9777 1.32406 11.0438 1.25803 11.1099 1.19203C11.1946 1.10748 11.2792 1.0228 11.3638 0.938091C11.4292 0.872549 11.4947 0.807072 11.5602 0.741615C11.5915 0.71039 11.6227 0.679145 11.6539 0.647878C11.6973 0.604443 11.7407 0.561096 11.7842 0.517771C11.8089 0.493137 11.8335 0.468503 11.8589 0.443123C11.9736 0.334778 12.0667 0.302653 12.2226 0.329049ZM1.36708 1.4228C1.22816 1.62249 1.26391 1.89685 1.30203 2.12679C1.41283 2.59216 1.65027 3.06156 2.06168 3.32671C2.29397 3.44932 2.556 3.48721 2.81235 3.42829C3.06 3.34904 3.2357 3.20638 3.36414 2.98022C3.48288 2.73936 3.47453 2.47572 3.38999 2.22527C3.34695 2.12224 3.2917 2.03265 3.22646 1.94233C3.19685 1.90088 3.19685 1.90088 3.16664 1.85859C2.87202 1.52214 2.34474 1.31057 1.90787 1.27476C1.7054 1.2645 1.51432 1.26501 1.36708 1.4228ZM10.4452 3.22749C9.53384 4.13885 8.62247 5.05022 7.68349 5.9892C7.7245 6.09858 7.7245 6.09858 7.79286 6.12592C7.862 6.16049 7.86845 6.19506 7.90224 6.26264C7.93833 6.28069 7.97443 6.29874 8.01161 6.31733C8.92298 5.40596 9.83435 4.4946 10.7733 3.55561C10.6184 3.36408 10.6184 3.36408 10.4452 3.22749ZM3.66396 3.39155C3.62457 3.43145 3.62457 3.43145 3.58534 3.48212C3.52575 3.55428 3.4695 3.61334 3.39052 3.66499C3.42995 3.75523 3.47879 3.81471 3.54832 3.88405C3.5698 3.9056 3.59127 3.92715 3.61339 3.94935C3.63697 3.97273 3.66056 3.99612 3.68485 4.02021C3.72207 4.05744 3.72207 4.05744 3.76004 4.09542C3.82799 4.16339 3.8961 4.23118 3.96425 4.29895C4.03548 4.36983 4.10654 4.44087 4.17763 4.51189C4.31222 4.64631 4.44696 4.7806 4.58174 4.91483C4.73519 5.06768 4.8885 5.22068 5.04178 5.37369C5.35707 5.68841 5.67256 6.00293 5.98818 6.31733C6.07354 6.28154 6.07354 6.28154 6.12489 6.20795C6.15946 6.13882 6.19403 6.13237 6.26161 6.09858C6.29261 6.04344 6.29261 6.04344 6.3163 5.9892C5.97872 5.65035 5.64098 5.31164 5.30306 4.97313C5.14617 4.81595 4.98933 4.65873 4.83261 4.50139C4.69606 4.36429 4.55941 4.22729 4.42264 4.0904C4.35019 4.01788 4.27779 3.94531 4.2055 3.87262C4.12492 3.7916 4.04412 3.71079 3.96331 3.63001C3.93922 3.60572 3.91512 3.58143 3.8903 3.5564C3.86837 3.53454 3.84643 3.51269 3.82384 3.49017C3.80473 3.47101 3.78563 3.45185 3.76594 3.43212C3.72211 3.38561 3.72211 3.38561 3.66396 3.39155ZM6.48036 6.53608C6.35301 6.73506 6.29117 6.89975 6.3163 7.13764C6.38322 7.35783 6.49894 7.51373 6.69911 7.62983C6.85908 7.70254 7.03572 7.71549 7.20412 7.6638C7.42437 7.57056 7.56267 7.44718 7.66298 7.22651C7.71533 6.99966 7.69014 6.81976 7.57411 6.61811C7.46771 6.45851 7.32355 6.36047 7.13661 6.31733C6.88788 6.28927 6.65831 6.35319 6.48036 6.53608ZM5.98818 7.68452C5.85071 7.81862 5.85071 7.81862 5.77626 7.99043C5.80454 8.09647 5.84568 8.13914 5.93349 8.20405C6.0119 8.23144 6.0119 8.23144 6.09755 8.20405C6.17666 8.14626 6.24691 8.08168 6.3163 8.01264C6.28051 7.92728 6.28051 7.92728 6.20693 7.87592C6.13779 7.84135 6.13134 7.80679 6.09755 7.7392C6.04241 7.70821 6.04241 7.70821 5.98818 7.68452ZM7.89882 7.73579C7.84152 7.78781 7.84152 7.78781 7.84755 7.84858C7.83063 7.85535 7.81371 7.86211 7.79628 7.86909C7.72793 7.9093 7.71539 7.94193 7.68349 8.01264C7.8176 8.15011 7.8176 8.15011 7.9894 8.22456C8.09544 8.19628 8.13811 8.15514 8.20302 8.06733C8.23041 7.98892 8.23041 7.98892 8.20302 7.90327C8.1467 7.82259 8.08512 7.75004 8.01161 7.68452C7.95084 7.67849 7.95084 7.67849 7.89882 7.73579Z" fill="#808284"/>
<path d="M2.21469 4.41853C2.31385 4.4386 2.35153 4.4842 2.40631 4.56636C2.42361 4.74573 2.38309 4.86214 2.30718 5.02266C2.18253 5.3002 2.10009 5.58494 2.02349 5.87886C2.05349 5.88186 2.08349 5.88485 2.11439 5.88794C2.15416 5.8923 2.19393 5.89668 2.2337 5.90108C2.25342 5.903 2.27314 5.90492 2.29346 5.9069C2.41313 5.92056 2.49953 5.94034 2.59771 6.01558C2.66167 6.11152 2.66369 6.14877 2.6524 6.26167C2.59047 6.38834 2.59047 6.38834 2.51568 6.42573C2.30857 6.44348 2.12065 6.40547 1.91412 6.37105C1.91412 6.78612 1.91412 7.2012 1.91412 7.62886C2.07654 7.60179 2.07654 7.60179 2.24224 7.57417C2.49237 7.55712 2.49237 7.55712 2.58575 7.62544C2.65218 7.72364 2.66411 7.78287 2.6524 7.9023C2.59449 7.99672 2.55901 8.03343 2.45341 8.07031C2.42038 8.07634 2.38736 8.08237 2.35333 8.08858C2.32037 8.09496 2.28741 8.10134 2.25346 8.10791C2.17488 8.11898 2.10259 8.1239 2.02349 8.12105C2.1176 8.48213 2.23115 8.82396 2.38572 9.1638C2.40705 9.21664 2.42112 9.26865 2.43365 9.32417C2.45314 9.31328 2.47263 9.30239 2.49272 9.29117C2.87794 9.07808 2.87794 9.07808 3.013 9.07808C3.11371 9.11389 3.14679 9.14928 3.19927 9.24214C3.21726 9.35405 3.21695 9.4083 3.15142 9.50191C3.02853 9.60903 2.87635 9.68313 2.73443 9.76167C2.84231 9.99233 3.00494 10.1744 3.17193 10.3632C3.2063 10.4027 3.2063 10.4027 3.24136 10.4429C3.34017 10.5549 3.43597 10.6548 3.55474 10.746C3.56116 10.7312 3.56757 10.7164 3.57418 10.7012C3.65472 10.5538 3.78493 10.3745 3.94471 10.3115C4.04366 10.3063 4.10267 10.3366 4.18365 10.3906C4.25131 10.4921 4.26134 10.5737 4.23834 10.6914C4.19763 10.7645 4.14537 10.8222 4.08795 10.8828C4.0736 10.8987 4.05925 10.9147 4.04447 10.9312C4.00931 10.9701 3.9735 11.0086 3.93756 11.0468C4.04629 11.1659 4.16365 11.2463 4.30157 11.3288C4.32294 11.3418 4.34432 11.3547 4.36634 11.368C4.57314 11.4916 4.78654 11.5997 5.00396 11.7031C5.0139 11.6731 5.02384 11.6431 5.03408 11.6122C5.04794 11.5724 5.06183 11.5326 5.07574 11.4929C5.08219 11.4732 5.08864 11.4534 5.09529 11.4331C5.14685 11.2883 5.20286 11.2139 5.33209 11.1289C5.44152 11.127 5.49921 11.1389 5.58843 11.2023C5.64532 11.2833 5.65396 11.3304 5.66021 11.4296C5.64063 11.5134 5.61092 11.5922 5.57989 11.6723C5.56797 11.7045 5.56797 11.7045 5.5558 11.7373C5.53626 11.7898 5.51625 11.8422 5.49615 11.8945C5.91109 11.9977 6.33042 12.0569 6.75396 12.1132C6.75368 12.0981 6.75339 12.0829 6.75309 12.0673C6.75195 11.9983 6.75125 11.9293 6.75054 11.8603C6.75009 11.8364 6.74963 11.8126 6.74916 11.788C6.74898 11.7649 6.7488 11.7418 6.74862 11.718C6.74819 11.6862 6.74819 11.6862 6.74775 11.6538C6.75489 11.5847 6.77134 11.5428 6.80865 11.4843C6.90894 11.4175 6.9928 11.4099 7.10943 11.4296C7.17591 11.4808 7.20898 11.5194 7.24615 11.5937C7.24843 11.6333 7.24908 11.673 7.24882 11.7127C7.24873 11.736 7.24864 11.7592 7.24855 11.7832C7.24832 11.8075 7.24809 11.8318 7.24786 11.8569C7.24774 11.8814 7.24761 11.906 7.24748 11.9312C7.24716 11.9919 7.24671 12.0526 7.24615 12.1132C7.6697 12.0569 8.08902 11.9977 8.50396 11.8945C8.4918 11.8628 8.47964 11.8312 8.46711 11.7986C8.45146 11.7565 8.43583 11.7144 8.42022 11.6723C8.41217 11.6515 8.40411 11.6307 8.39582 11.6093C8.34054 11.4584 8.32692 11.3533 8.3963 11.2023C8.47577 11.1331 8.56405 11.1229 8.66802 11.1289C8.75607 11.1611 8.79344 11.1935 8.8338 11.2775C8.87582 11.3702 8.9051 11.4622 8.9311 11.5605C8.93824 11.5873 8.94537 11.6141 8.95272 11.6417C8.96068 11.6721 8.96068 11.6721 8.96881 11.7031C9.56103 11.4452 9.56103 11.4452 10.0626 11.0468C10.0454 11.028 10.0283 11.0093 10.0106 10.9899C9.9883 10.9653 9.96595 10.9406 9.94293 10.9152C9.92072 10.8908 9.89851 10.8664 9.87564 10.8412C9.78277 10.7348 9.74851 10.6712 9.75355 10.5275C9.76767 10.4332 9.79647 10.3942 9.87115 10.3359C9.95944 10.31 10.0288 10.3104 10.1172 10.3359C10.2032 10.3984 10.2686 10.4729 10.336 10.5546C10.3505 10.5715 10.365 10.5883 10.38 10.6057C10.4116 10.6428 10.4423 10.6807 10.4727 10.7187C10.7181 10.5213 10.9172 10.2877 11.1033 10.0351C11.1164 10.0174 11.1294 9.99972 11.1429 9.9815C11.1954 9.90881 11.2371 9.84728 11.2657 9.76167C11.2257 9.73989 11.2257 9.73989 11.1848 9.71767C11.1497 9.69817 11.1145 9.67866 11.0794 9.65913C11.0618 9.64962 11.0443 9.6401 11.0262 9.63029C10.93 9.57648 10.8549 9.53124 10.8008 9.43355C10.7867 9.32253 10.7899 9.26232 10.8436 9.16353C10.936 9.08293 10.9782 9.0722 11.1016 9.07808C11.207 9.12451 11.3039 9.18268 11.4024 9.24214C11.4566 9.27061 11.5114 9.29738 11.5665 9.32417C11.5733 9.30232 11.5802 9.28046 11.5873 9.25795C11.6204 9.16223 11.6579 9.06962 11.6968 8.97615C11.8129 8.69585 11.9027 8.41513 11.9766 8.12105C11.9594 8.11971 11.9422 8.11837 11.9245 8.11699C11.748 8.10157 11.5804 8.08332 11.4178 8.00825C11.3508 7.92791 11.3422 7.83948 11.3477 7.73823C11.3843 7.65626 11.4039 7.61443 11.4844 7.57417C11.6807 7.55766 11.8672 7.58809 12.0587 7.62886C12.0813 7.4717 12.0897 7.32009 12.0887 7.16145C12.0886 7.1387 12.0886 7.11595 12.0885 7.0925C12.0884 7.02064 12.0881 6.94877 12.0877 6.87691C12.0876 6.82784 12.0874 6.77878 12.0873 6.72972C12.087 6.61016 12.0866 6.4906 12.086 6.37105C12.0641 6.37488 12.0421 6.3787 12.0195 6.38265C11.9904 6.38763 11.9613 6.39262 11.9313 6.39775C11.8883 6.40518 11.8883 6.40518 11.8443 6.41277C11.5309 6.45976 11.5309 6.45976 11.4144 6.37446C11.3481 6.27647 11.3337 6.21691 11.3477 6.09761C11.4289 5.98596 11.5065 5.94275 11.6415 5.91526C11.71 5.9052 11.7784 5.89785 11.8473 5.89125C11.8716 5.8889 11.8959 5.88654 11.9209 5.88412C11.9393 5.88238 11.9577 5.88065 11.9766 5.87886C11.894 5.56195 11.8036 5.25672 11.6633 4.95998C11.5999 4.8211 11.579 4.7194 11.5938 4.56636C11.6483 4.48459 11.6868 4.44118 11.7835 4.41565C11.8874 4.40679 11.8874 4.40679 11.9493 4.42964C12.068 4.54839 12.131 4.67521 12.1937 4.82954C12.2076 4.86358 12.2076 4.86358 12.2219 4.8983C12.399 5.34015 12.5082 5.79131 12.5782 6.26167C12.581 6.28013 12.5839 6.29859 12.5868 6.3176C12.6676 6.92437 12.629 7.5812 12.4962 8.17573C12.4883 8.21115 12.4883 8.21115 12.4802 8.24728C12.2651 9.18039 11.8364 10.0338 11.1856 10.739C11.1349 10.7943 11.0866 10.8509 11.0384 10.9084C10.1689 11.899 8.78817 12.494 7.49224 12.6054C7.33113 12.6147 7.16993 12.6147 7.0086 12.614C6.98716 12.6139 6.96571 12.6139 6.94362 12.6138C6.60123 12.6127 6.26974 12.5931 5.93365 12.5234C5.90367 12.5175 5.90367 12.5175 5.87309 12.5114C4.90018 12.3157 3.87535 11.8457 3.18571 11.1163C3.14241 11.0719 3.09673 11.0332 3.04888 10.9938C2.94097 10.9027 2.85254 10.7992 2.76177 10.6914C2.7319 10.6578 2.7319 10.6578 2.70143 10.6236C1.92274 9.73048 1.39675 8.46894 1.38903 7.27563C1.38884 7.25565 1.38865 7.23566 1.38845 7.21506C1.38798 7.15076 1.3878 7.08647 1.38775 7.02217C1.38773 7.00014 1.38771 6.97812 1.3877 6.95543C1.38816 6.60849 1.40538 6.27405 1.47662 5.93355C1.48131 5.91016 1.486 5.88678 1.49084 5.86269C1.79017 4.39973 1.79017 4.39973 2.21469 4.41853Z" fill="#808284"/>
<path d="M1.01162 3.74572C1.13829 3.80765 1.13829 3.80765 1.17569 3.88244C1.19519 4.07972 1.137 4.20894 1.05264 4.38488C0.676221 5.21079 0.506866 6.08539 0.510893 6.98938C0.510951 7.01332 0.51101 7.03727 0.511071 7.06195C0.517062 8.58356 1.0539 10.0559 2.05069 11.2106C2.06898 11.2319 2.08727 11.2532 2.10612 11.2752C2.39153 11.5999 2.69503 11.9035 3.04318 12.1605C3.08867 12.1941 3.13364 12.2284 3.17862 12.2627C4.2696 13.0814 5.63374 13.4947 6.98965 13.4886C7.0136 13.4886 7.03755 13.4885 7.06222 13.4885C7.43852 13.487 7.80572 13.4723 8.17569 13.3981C8.20244 13.3928 8.22919 13.3875 8.25674 13.382C9.4263 13.1429 10.5548 12.6079 11.4124 11.7671C11.5316 11.6505 11.5316 11.6505 11.621 11.6207C11.64 11.5846 11.6581 11.5481 11.6757 11.5113C11.7059 11.4794 11.7374 11.4488 11.7697 11.4191C11.9292 11.2633 12.0611 11.0873 12.1952 10.9098C12.2067 10.8948 12.2182 10.8798 12.2301 10.8643C13.0686 9.76412 13.495 8.38556 13.4889 7.00988C13.4889 6.98593 13.4888 6.96199 13.4887 6.93731C13.4873 6.56102 13.4726 6.19382 13.3983 5.82385C13.3931 5.7971 13.3878 5.77035 13.3823 5.74279C13.2772 5.22886 13.1212 4.7221 12.8908 4.24987C12.8267 4.11718 12.7975 4.02894 12.8241 3.88244C12.8753 3.81596 12.9138 3.78289 12.9882 3.74572C13.0838 3.7351 13.1358 3.7357 13.2188 3.78631C13.3114 3.8771 13.3542 3.97116 13.4052 4.08923C13.4156 4.11296 13.426 4.13668 13.4367 4.16113C13.6534 4.66869 13.8186 5.19894 13.9179 5.74182C13.9223 5.76501 13.9267 5.78819 13.9313 5.81209C14.0721 6.58064 14.0675 7.46355 13.9179 8.2301C13.9135 8.25463 13.9091 8.27915 13.9045 8.30443C13.6086 9.93986 12.6773 11.5125 11.3476 12.5231C11.3328 12.5345 11.318 12.5459 11.3028 12.5576C11.0295 12.7677 10.7435 12.952 10.4452 13.1246C10.4267 13.1354 10.4082 13.1462 10.3891 13.1573C9.76242 13.5178 9.06311 13.7531 8.35684 13.8988C8.33741 13.9028 8.31797 13.9069 8.29795 13.911C7.87023 13.9926 7.44269 14.0099 7.00845 14.0082C6.982 14.0081 6.95555 14.0081 6.92829 14.008C6.53638 14.0068 6.15505 13.9929 5.76944 13.9176C5.74491 13.9132 5.72038 13.9088 5.69511 13.9043C4.05968 13.6083 2.48703 12.6771 1.47647 11.3473C1.46507 11.3325 1.45368 11.3177 1.44194 11.3025C1.23185 11.0292 1.04749 10.7432 0.874906 10.4449C0.864125 10.4264 0.853343 10.4079 0.842235 10.3888C0.434596 9.68011 0.173214 8.87367 0.0545937 8.06604C0.0497449 8.03308 0.0448961 8.00012 0.0399004 7.96616C-0.0037209 7.64799 -0.00992473 7.33238 -0.00863872 7.01159C-0.0085798 6.9851 -0.00852087 6.9586 -0.00846015 6.93131C-0.00493206 5.94178 0.195382 5.00315 0.592924 4.09436C0.602663 4.07172 0.612403 4.04908 0.622437 4.02575C0.704449 3.84588 0.794387 3.71404 1.01162 3.74572Z" fill="#808284"/>
<path d="M8.17573 1.50459C8.19935 1.50985 8.22296 1.51512 8.24728 1.52054C9.3577 1.77649 9.3577 1.77649 9.57027 2.05146C9.5875 2.18502 9.59067 2.2396 9.51558 2.35224C9.43067 2.40885 9.37708 2.42503 9.27504 2.419C9.16521 2.39699 9.06762 2.34885 8.9687 2.29755C8.96125 2.32727 8.96125 2.32727 8.95364 2.35758C8.85045 2.75446 8.85045 2.75446 8.72261 2.84443C8.63465 2.86929 8.57464 2.87514 8.48506 2.85639C8.39088 2.79784 8.36959 2.76101 8.3398 2.65302C8.36605 2.46231 8.4355 2.28496 8.50386 2.10615C8.08767 2.01085 7.66878 1.94637 7.24605 1.8874C7.24747 1.94127 7.24747 1.94127 7.24893 1.99624C7.2497 2.0437 7.25045 2.09116 7.25117 2.13862C7.25186 2.16225 7.25255 2.18589 7.25326 2.21024C7.25479 2.34372 7.25302 2.43611 7.16402 2.54365C7.07673 2.58729 6.98533 2.58506 6.89058 2.57099C6.8241 2.51985 6.79103 2.48127 6.75386 2.40693C6.75158 2.36732 6.75092 2.32761 6.75119 2.28794C6.75132 2.25305 6.75132 2.25305 6.75146 2.21745C6.7518 2.18096 6.7518 2.18096 6.75215 2.14375C6.75227 2.11921 6.7524 2.09468 6.75252 2.0694C6.75285 2.00873 6.7533 1.94807 6.75386 1.8874C6.33113 1.94637 5.91223 2.01085 5.49605 2.10615C5.50821 2.1378 5.52037 2.16945 5.5329 2.20206C5.54855 2.24414 5.56418 2.28622 5.57979 2.32832C5.58784 2.34911 5.5959 2.36991 5.60419 2.39133C5.65946 2.54219 5.67309 2.64729 5.60371 2.79829C5.52424 2.8675 5.43596 2.87776 5.33198 2.87177C5.26238 2.84746 5.23086 2.82998 5.19089 2.76752C5.12733 2.61344 5.07549 2.45826 5.0312 2.29755C5.01598 2.30545 5.00075 2.31334 4.98506 2.32148C4.83759 2.39322 4.73043 2.43154 4.56636 2.40693C4.48459 2.35242 4.44118 2.31389 4.41565 2.21723C4.40679 2.11333 4.40679 2.11333 4.42964 2.05146C4.54797 1.93332 4.67423 1.86974 4.82783 1.80708C4.85045 1.79776 4.87307 1.78845 4.89637 1.77885C5.92123 1.36856 7.09767 1.26369 8.17573 1.50459Z" fill="#808284"/>
<path d="M6.66609 -0.00647485C6.69072 -0.00666665 6.71535 -0.00685845 6.74072 -0.00705606C6.8197 -0.00753177 6.89868 -0.00770825 6.97766 -0.00775659C7.00465 -0.00777504 7.03164 -0.00779349 7.05945 -0.0078125C7.45515 -0.00738232 7.84125 0.00260669 8.23035 0.0811106C8.25501 0.0859483 8.27967 0.0907861 8.30508 0.0957705C8.85783 0.206685 9.38479 0.367916 9.89832 0.600642C9.92814 0.614001 9.95796 0.62736 9.98868 0.641123C10.1057 0.696245 10.1839 0.73411 10.2538 0.846736C10.2649 0.953665 10.2601 1.03029 10.1991 1.12017C10.0957 1.18909 10.0178 1.19302 9.89832 1.17486C9.79618 1.14017 9.70006 1.09456 9.60266 1.0484C9.13307 0.835768 8.65416 0.698357 8.14832 0.600642C8.11308 0.593808 8.11308 0.593808 8.07713 0.586836C7.36345 0.45577 6.56307 0.460833 5.85144 0.600642C5.823 0.60622 5.79456 0.611798 5.76526 0.617545C5.24407 0.723089 4.74515 0.87018 4.2678 1.10681C4.13247 1.17125 4.03286 1.18889 3.88269 1.17486C3.81621 1.12372 3.78314 1.08514 3.74597 1.0108C3.73527 0.914436 3.73598 0.862943 3.78742 0.779551C3.87456 0.690351 3.96184 0.651415 4.07581 0.60406C4.09755 0.594776 4.11929 0.585493 4.14169 0.575928C4.21007 0.5471 4.27872 0.51905 4.34754 0.491267C4.36855 0.482719 4.38957 0.474172 4.41122 0.465365C5.11971 0.180996 5.90052 -0.00245822 6.66609 -0.00647485Z" fill="#808284"/>
</g>
<defs>
<clipPath id="clip0_6398_9463">
<rect width="14" height="14" fill="white"/>
</clipPath>
</defs>
</svg>
