<svg width="14" height="14" viewBox="0 0 14 14" fill="none" xmlns="http://www.w3.org/2000/svg">
<path fill-rule="evenodd" clip-rule="evenodd" d="M2.91667 2.99023C2.63477 2.99023 2.40625 3.21876 2.40625 3.50065V11.6673C2.40625 11.9492 2.63477 12.1777 2.91667 12.1777H11.0833C11.3652 12.1777 11.5938 11.9492 11.5938 11.6673V3.50065C11.5938 3.21876 11.3652 2.99023 11.0833 2.99023H2.91667ZM1.09375 3.50065C1.09375 2.49388 1.9099 1.67773 2.91667 1.67773H11.0833C12.0901 1.67773 12.9062 2.49388 12.9062 3.50065V11.6673C12.9062 12.6741 12.0901 13.4902 11.0833 13.4902H2.91667C1.9099 13.4902 1.09375 12.6741 1.09375 11.6673V3.50065Z" fill="#808284"/>
<path fill-rule="evenodd" clip-rule="evenodd" d="M9.33325 0.509766C9.69569 0.509766 9.9895 0.803579 9.9895 1.16602V3.49935C9.9895 3.86179 9.69569 4.1556 9.33325 4.1556C8.97082 4.1556 8.677 3.86179 8.677 3.49935V1.16602C8.677 0.803579 8.97082 0.509766 9.33325 0.509766Z" fill="#808284"/>
<path fill-rule="evenodd" clip-rule="evenodd" d="M4.66675 0.509766C5.02918 0.509766 5.323 0.803579 5.323 1.16602V3.49935C5.323 3.86179 5.02918 4.1556 4.66675 4.1556C4.30431 4.1556 4.0105 3.86179 4.0105 3.49935V1.16602C4.0105 0.803579 4.30431 0.509766 4.66675 0.509766Z" fill="#808284"/>
<path fill-rule="evenodd" clip-rule="evenodd" d="M1.09375 5.83398C1.09375 5.47155 1.38756 5.17773 1.75 5.17773H12.25C12.6124 5.17773 12.9062 5.47155 12.9062 5.83398C12.9062 6.19642 12.6124 6.49023 12.25 6.49023H1.75C1.38756 6.49023 1.09375 6.19642 1.09375 5.83398Z" fill="#808284"/>
</svg>
