<svg width="14" height="14" viewBox="0 0 14 14" fill="none" xmlns="http://www.w3.org/2000/svg">
<path d="M2.62358 1.14534C2.6555 1.14519 2.68742 1.14503 2.72031 1.14487C2.75496 1.14484 2.7896 1.14481 2.8253 1.14478C2.86246 1.14465 2.89963 1.14451 2.93679 1.14436C3.03747 1.14401 3.13816 1.14383 3.23885 1.14371C3.3019 1.14363 3.36496 1.14352 3.42802 1.14339C3.62574 1.14302 3.82347 1.14276 4.02119 1.14265C4.24861 1.14253 4.47603 1.14205 4.70344 1.14126C4.87975 1.14066 5.05606 1.14039 5.23237 1.14035C5.33742 1.14032 5.44246 1.14017 5.54751 1.13967C5.64651 1.13922 5.74551 1.13917 5.84451 1.1394C5.89757 1.13943 5.95063 1.13906 6.00369 1.13867C6.4714 1.14087 6.86519 1.26668 7.20569 1.59491C7.50116 1.91694 7.60579 2.29596 7.60537 2.724C7.60545 2.75025 7.60554 2.77649 7.60562 2.80352C7.60586 2.89136 7.6059 2.9792 7.60594 3.06704C7.60606 3.13007 7.6062 3.19309 7.60635 3.25612C7.60671 3.4273 7.60688 3.59849 7.60701 3.76968C7.60709 3.87671 7.6072 3.98374 7.60732 4.09077C7.60765 4.38747 7.60794 4.68418 7.60803 4.98089C7.60804 5.00935 7.60804 5.00935 7.60805 5.03838C7.60805 5.0574 7.60806 5.07642 7.60806 5.09601C7.60808 5.13454 7.60809 5.17307 7.6081 5.2116C7.60811 5.24027 7.60811 5.24027 7.60812 5.26952C7.60823 5.57888 7.6087 5.88824 7.60934 6.1976C7.60999 6.51571 7.61032 6.83382 7.61036 7.15193C7.61039 7.33034 7.61055 7.50874 7.61104 7.68714C7.61149 7.85509 7.61155 8.02303 7.61131 8.19098C7.61129 8.25243 7.61141 8.31388 7.61168 8.37533C7.61401 8.93697 7.56574 9.40621 7.15581 9.83146C6.84654 10.1152 6.47421 10.2339 6.06003 10.229C6.0399 10.2289 6.01978 10.2288 5.99904 10.2286C5.94987 10.2283 5.9007 10.2278 5.85153 10.2273C5.8528 10.2534 5.85407 10.2795 5.85538 10.3065C5.86389 10.6114 5.82521 10.8632 5.62648 11.1082C5.46593 11.2701 5.2747 11.3771 5.04425 11.3811C5.00003 11.3807 4.95581 11.3801 4.91159 11.3792C4.88886 11.3789 4.86612 11.3787 4.8427 11.3784C4.78705 11.3778 4.7314 11.3768 4.67575 11.3757C4.73334 11.6743 4.82749 11.9093 5.08591 12.0867C5.3328 12.2201 5.56106 12.2275 5.83655 12.2274C5.86757 12.2275 5.89858 12.2276 5.93054 12.2277C6.0328 12.2279 6.13507 12.228 6.23734 12.228C6.30868 12.2281 6.38003 12.2282 6.45137 12.2283C6.60087 12.2284 6.75037 12.2285 6.89986 12.2285C7.072 12.2285 7.24414 12.2287 7.41629 12.2292C7.58259 12.2296 7.7489 12.2297 7.91521 12.2297C7.98563 12.2297 8.05605 12.2298 8.12647 12.23C8.22521 12.2303 8.32394 12.2302 8.42267 12.23C8.46586 12.2303 8.46586 12.2303 8.50991 12.2305C8.813 12.2292 9.08109 12.1974 9.32419 12.0047C9.54805 11.7761 9.59731 11.5046 9.60507 11.1935C9.60595 11.1584 9.60683 11.1234 9.60774 11.0873C9.61054 10.9493 9.61257 10.8113 9.61404 10.6733C9.61516 10.5687 9.61682 10.4642 9.61976 10.3596C9.62259 10.258 9.62409 10.1564 9.62463 10.0547C9.62507 10.0162 9.62597 9.9776 9.62737 9.93905C9.63146 9.82075 9.63135 9.71233 9.59763 9.5984C9.53276 9.53532 9.47461 9.5014 9.39204 9.46508C9.22068 9.38745 9.14141 9.22051 9.07158 9.05462C9.03408 8.95059 9.01986 8.85962 9.019 8.74886C9.01874 8.72129 9.01848 8.69371 9.01821 8.6653C9.01803 8.62078 9.01803 8.62078 9.01785 8.57536C9.0177 8.5446 9.01754 8.51385 9.01738 8.48216C9.01712 8.41702 9.01694 8.35188 9.01684 8.28674C9.01657 8.18773 9.01573 8.08872 9.01486 7.98971C9.01468 7.9263 9.01454 7.86289 9.01444 7.79948C9.0141 7.77013 9.01376 7.74079 9.01341 7.71055C9.01425 7.4229 9.07515 7.16554 9.2695 6.94606C9.38047 6.85435 9.48443 6.78717 9.62497 6.75465C9.62473 6.72016 9.62448 6.68566 9.62423 6.65012C9.62201 6.32389 9.62037 5.99766 9.6193 5.67143C9.61873 5.50373 9.61796 5.33605 9.61672 5.16836C9.61552 5.00631 9.61487 4.84427 9.61459 4.68222C9.61439 4.62062 9.614 4.55901 9.61341 4.49741C9.60768 3.87826 9.60768 3.87826 9.73434 3.58278C9.74313 3.56167 9.75192 3.54057 9.76097 3.51883C9.94252 3.10509 10.311 2.84238 10.7187 2.68043C11.1223 2.54265 11.5998 2.59991 11.9802 2.77443C12.3592 2.97605 12.6376 3.30178 12.7751 3.70728C12.8512 3.99536 12.8672 4.26455 12.8657 4.56156C12.8658 4.61146 12.866 4.66137 12.8663 4.71127C12.8668 4.84538 12.8666 4.97947 12.8662 5.11357C12.8659 5.25443 12.8662 5.39529 12.8664 5.53615C12.8666 5.77229 12.8663 6.00842 12.8658 6.24456C12.8652 6.51738 12.8654 6.79018 12.866 7.063C12.8665 7.29788 12.8666 7.53275 12.8663 7.76763C12.8661 7.90765 12.8661 8.04767 12.8664 8.18769C12.8668 8.31908 12.8665 8.45046 12.8659 8.58185C12.8658 8.63002 12.8658 8.67819 12.866 8.72636C12.8663 8.79215 12.866 8.8579 12.8654 8.92369C12.8658 8.95221 12.8658 8.95221 12.8662 8.9813C12.864 9.11646 12.826 9.1931 12.7422 9.29762C12.6637 9.35246 12.6058 9.35959 12.5114 9.3506C12.4912 9.34915 12.4709 9.34771 12.45 9.34622C12.3555 9.31451 12.3129 9.26486 12.25 9.18824C12.2329 9.09504 12.2329 9.09504 12.2329 8.98612C12.2327 8.96602 12.2325 8.94593 12.2323 8.92522C12.2318 8.858 12.2323 8.79083 12.2328 8.72361C12.2327 8.67536 12.2325 8.62711 12.2322 8.57886C12.2318 8.47499 12.2318 8.37112 12.2321 8.26724C12.2327 8.10277 12.2322 7.93831 12.2317 7.77384C12.231 7.51345 12.2309 7.25305 12.231 6.99265C12.2313 6.52705 12.2307 6.06145 12.2296 5.59584C12.2292 5.43259 12.2292 5.26934 12.2294 5.10609C12.2295 5.00414 12.2294 4.90219 12.2292 4.80024C12.2292 4.75324 12.2293 4.70625 12.2294 4.65925C12.2315 4.05402 12.2315 4.05402 11.9475 3.53492C11.7183 3.32192 11.4452 3.244 11.1413 3.24707C10.879 3.26813 10.6605 3.38751 10.4813 3.57669C10.2152 3.9012 10.2374 4.27166 10.2372 4.66916C10.2368 4.72942 10.2363 4.78968 10.2358 4.84994C10.2347 5.00768 10.2341 5.16541 10.2337 5.32315C10.2332 5.48446 10.232 5.64576 10.2309 5.80707C10.2289 6.12293 10.2275 6.43879 10.2265 6.75465C10.2523 6.76277 10.278 6.7709 10.3045 6.77927C10.4951 6.84582 10.6284 6.99472 10.7187 7.17164C10.7793 7.30369 10.8041 7.41416 10.8056 7.55954C10.8059 7.58931 10.8063 7.61907 10.8067 7.64974C10.807 7.69785 10.807 7.69785 10.8073 7.74693C10.8075 7.78011 10.8077 7.8133 10.8079 7.84749C10.8083 7.91778 10.8086 7.98806 10.8088 8.05835C10.8093 8.16529 10.8105 8.27221 10.8117 8.37915C10.812 8.44754 10.8122 8.51594 10.8124 8.58433C10.8131 8.63194 10.8131 8.63194 10.8138 8.68051C10.8131 8.94737 10.7578 9.16543 10.5717 9.36427C10.5418 9.39721 10.5418 9.39721 10.5113 9.43081C10.4293 9.50308 10.3394 9.57106 10.2265 9.57106C10.2268 9.60687 10.2268 9.60687 10.2271 9.6434C10.2287 9.86984 10.23 10.0963 10.2308 10.3227C10.2312 10.4391 10.2318 10.5555 10.2327 10.6718C10.2336 10.7844 10.2341 10.897 10.2343 11.0096C10.2345 11.0523 10.2348 11.0949 10.2352 11.1376C10.2403 11.6416 10.1466 12.0685 9.78903 12.4422C9.50001 12.7056 9.15765 12.8545 8.76334 12.8563C8.73406 12.8565 8.70479 12.8567 8.67463 12.8569C8.64292 12.857 8.61122 12.8571 8.57855 12.8571C8.54483 12.8573 8.5111 12.8575 8.47635 12.8577C8.36483 12.8582 8.25331 12.8585 8.14179 12.8588C8.10318 12.8589 8.06457 12.859 8.02597 12.8592C7.84438 12.8597 7.66278 12.8601 7.48119 12.8603C7.27268 12.8606 7.06418 12.8613 6.85568 12.8624C6.69384 12.8632 6.532 12.8636 6.37015 12.8637C6.27382 12.8638 6.17751 12.864 6.08118 12.8647C5.45225 12.869 4.94575 12.8504 4.46587 12.4006C4.19904 12.1158 4.06765 11.7617 4.07419 11.3757C4.04183 11.377 4.00947 11.3783 3.97614 11.3796C3.64739 11.3887 3.39108 11.3702 3.13969 11.1351C2.96347 10.9226 2.89338 10.6953 2.8967 10.4255C2.89682 10.4065 2.89694 10.3874 2.89707 10.3678C2.89739 10.3209 2.89788 10.2741 2.89841 10.2273C2.87095 10.2283 2.84349 10.2292 2.8152 10.2302C2.36259 10.2412 1.97049 10.1557 1.61838 9.85304C1.34435 9.58889 1.16326 9.24353 1.14583 8.85786C1.14473 8.78939 1.1445 8.72097 1.14457 8.65248C1.14449 8.62624 1.1444 8.6 1.14432 8.57297C1.14408 8.48513 1.14404 8.39729 1.144 8.30945C1.14387 8.24642 1.14374 8.1834 1.14359 8.12037C1.14323 7.94918 1.14305 7.77799 1.14293 7.6068C1.14285 7.49978 1.14274 7.39275 1.14262 7.28572C1.14229 6.98901 1.142 6.69231 1.14191 6.3956C1.14191 6.37663 1.1419 6.35765 1.14189 6.33811C1.14189 6.31909 1.14188 6.30007 1.14188 6.28048C1.14186 6.24195 1.14185 6.20342 1.14184 6.16488C1.14183 6.14577 1.14183 6.12666 1.14182 6.10697C1.14171 5.79761 1.14124 5.48825 1.1406 5.17889C1.13995 4.86078 1.13962 4.54267 1.13958 4.22456C1.13955 4.04615 1.13939 3.86775 1.1389 3.68934C1.13845 3.5214 1.13839 3.35346 1.13863 3.18551C1.13865 3.12406 1.13853 3.06261 1.13826 3.00116C1.13593 2.43951 1.1842 1.97028 1.59413 1.54503C1.87997 1.28276 2.23603 1.14648 2.62358 1.14534ZM1.99403 2.02728C1.76957 2.29975 1.74997 2.54928 1.74997 2.89918C3.48247 2.89918 5.21497 2.89918 6.99997 2.89918C6.99997 2.57058 6.99164 2.31489 6.78122 2.05153C6.49005 1.76574 6.17565 1.74662 5.78672 1.74677C5.75304 1.74668 5.71936 1.74659 5.68466 1.74649C5.59268 1.74628 5.5007 1.74619 5.40872 1.74617C5.35111 1.74615 5.2935 1.74609 5.23588 1.74602C5.03449 1.74577 4.83309 1.74566 4.63169 1.74568C4.44464 1.74569 4.25759 1.74541 4.07053 1.74497C3.90939 1.74461 3.74825 1.74447 3.5871 1.74449C3.4911 1.74449 3.39511 1.74442 3.29911 1.74413C3.19186 1.74381 3.08462 1.74394 2.97737 1.7441C2.94602 1.74395 2.91468 1.74379 2.88238 1.74364C2.54612 1.74494 2.23982 1.77686 1.99403 2.02728ZM1.74997 3.50074C1.74884 4.36079 1.74771 5.22084 1.74655 6.10695C1.74605 6.37829 1.74556 6.64964 1.74504 6.92921C1.74486 7.1729 1.74486 7.1729 1.74475 7.41659C1.7447 7.52495 1.74449 7.6333 1.7442 7.74166C1.74382 7.8801 1.74371 8.01853 1.74379 8.15697C1.74377 8.20764 1.74366 8.25831 1.74345 8.30898C1.73569 8.84982 1.73569 8.84982 1.96872 9.32496C2.25989 9.61075 2.57429 9.62987 2.96322 9.62972C2.9969 9.62981 3.03058 9.6299 3.06528 9.62999C3.15726 9.63021 3.24924 9.6303 3.34122 9.63032C3.39883 9.63034 3.45644 9.6304 3.51405 9.63047C3.71545 9.63072 3.91685 9.63083 4.11825 9.63081C4.3053 9.63079 4.49235 9.63108 4.67941 9.63152C4.84055 9.63187 5.00169 9.63202 5.16284 9.632C5.25884 9.63199 5.35483 9.63207 5.45083 9.63236C5.55808 9.63268 5.66532 9.63255 5.77257 9.63239C5.80392 9.63254 5.83526 9.63269 5.86756 9.63285C6.17654 9.63165 6.45148 9.6049 6.69919 9.40699C6.92595 9.17596 7.00181 8.92759 7.0005 8.60783C7.00043 8.58335 7.00035 8.55886 7.00027 8.53364C7.00012 8.50575 7.00012 8.50575 6.99997 8.47731C6.98452 8.47715 6.96906 8.47699 6.95314 8.47682C6.79211 8.47507 6.6311 8.47276 6.47008 8.47013C6.41001 8.46922 6.34994 8.46845 6.28987 8.46783C6.20345 8.46692 6.11706 8.46548 6.03066 8.46395C6.00385 8.46378 5.97704 8.4636 5.94942 8.46343C5.8136 8.4605 5.71474 8.45814 5.60544 8.36793C5.55046 8.28856 5.54409 8.23043 5.55417 8.13551C5.55593 8.11492 5.55769 8.09434 5.55951 8.07313C5.58647 7.98512 5.61167 7.95766 5.68747 7.90309C5.78648 7.88578 5.88494 7.88654 5.98526 7.88643C6.01424 7.88597 6.04322 7.88552 6.07307 7.88506C6.16557 7.88373 6.25805 7.88314 6.35056 7.88258C6.41329 7.88181 6.47602 7.88099 6.53876 7.88012C6.6925 7.87801 6.8462 7.8769 6.99997 7.87574C6.99997 7.68625 6.99997 7.49676 6.99997 7.30153C6.90878 7.30114 6.8176 7.30075 6.72365 7.30035C6.63523 7.29951 6.54682 7.29844 6.4584 7.29735C6.39701 7.29672 6.33561 7.29633 6.27421 7.29618C6.18588 7.29592 6.09761 7.2948 6.00929 7.29351C5.98189 7.29362 5.95448 7.29373 5.92625 7.29384C5.7963 7.29113 5.73493 7.28983 5.62976 7.20803C5.55348 7.10384 5.53827 7.04851 5.55075 6.91871C5.6371 6.76616 5.6371 6.76616 5.71481 6.72731C5.75612 6.72408 5.79757 6.72247 5.839 6.72169C5.86472 6.72115 5.89045 6.7206 5.91695 6.72004C5.94478 6.71958 5.97261 6.71913 6.00128 6.71865C6.02973 6.71809 6.05818 6.71752 6.08749 6.71693C6.17859 6.71514 6.2697 6.71353 6.36081 6.71193C6.42248 6.71074 6.48414 6.70955 6.54581 6.70835C6.69719 6.70539 6.84858 6.70268 6.99997 6.69996C6.99997 6.51047 6.99997 6.32098 6.99997 6.12574C6.90649 6.12504 6.81302 6.12433 6.71671 6.12361C6.62621 6.12256 6.53571 6.12132 6.44522 6.12007C6.38231 6.1193 6.3194 6.11872 6.25648 6.11833C6.16606 6.11775 6.07567 6.11647 5.98526 6.11506C5.95712 6.11503 5.92897 6.115 5.89997 6.11496C5.70488 6.11096 5.70488 6.11096 5.61539 6.0464C5.55248 5.94962 5.54547 5.85668 5.55075 5.74293C5.58393 5.66085 5.6072 5.62179 5.68258 5.57589C5.74918 5.54865 5.79825 5.54399 5.87004 5.54281C5.89521 5.54226 5.92039 5.54172 5.94632 5.54116C5.97327 5.54084 6.00022 5.54053 6.02799 5.5402C6.05575 5.53967 6.08351 5.53914 6.11212 5.5386C6.20071 5.53697 6.2893 5.5357 6.3779 5.53444C6.438 5.53339 6.4981 5.53232 6.5582 5.53123C6.70545 5.52856 6.8527 5.52638 6.99997 5.52418C6.99997 5.34371 6.99997 5.16324 6.99997 4.97731C6.91076 4.97628 6.82155 4.97526 6.72963 4.97421C6.64311 4.97295 6.5566 4.97154 6.47008 4.97013C6.41001 4.96922 6.34994 4.96846 6.28987 4.96783C6.20345 4.96692 6.11706 4.96549 6.03066 4.96396C6.00385 4.96378 5.97704 4.96361 5.94942 4.96343C5.8136 4.96051 5.71474 4.95814 5.60544 4.86793C5.55046 4.78856 5.54409 4.73044 5.55417 4.63551C5.55681 4.60463 5.55681 4.60463 5.55951 4.57313C5.58647 4.48512 5.61167 4.45766 5.68747 4.40309C5.78648 4.38578 5.88494 4.38655 5.98526 4.38643C6.01424 4.38597 6.04322 4.38552 6.07307 4.38506C6.16557 4.38373 6.25805 4.38314 6.35056 4.38258C6.41329 4.38181 6.47602 4.38099 6.53876 4.38012C6.6925 4.37801 6.8462 4.3769 6.99997 4.37574C6.99997 4.08699 6.99997 3.79824 6.99997 3.50074C5.26747 3.50074 3.53497 3.50074 1.74997 3.50074ZM9.707 7.38356C9.60815 7.53184 9.62026 7.68743 9.61942 7.86015C9.61926 7.88499 9.6191 7.90984 9.61894 7.93543C9.61869 7.98788 9.61851 8.04033 9.6184 8.09277C9.61814 8.17264 9.61729 8.2525 9.61642 8.33236C9.61625 8.38345 9.6161 8.43455 9.616 8.48564C9.61566 8.50934 9.61532 8.53305 9.61497 8.55747C9.61559 8.72632 9.63736 8.86504 9.75485 8.99513C9.84637 9.03834 9.9077 9.03799 10.0078 9.02418C10.1028 8.96885 10.1637 8.91179 10.1992 8.80543C10.2021 8.76394 10.2035 8.72234 10.204 8.68075C10.2044 8.65555 10.2047 8.63036 10.2051 8.6044C10.2053 8.57723 10.2055 8.55006 10.2057 8.52206C10.2059 8.49404 10.2061 8.46602 10.2064 8.43715C10.2068 8.37783 10.207 8.3185 10.2073 8.25918C10.2077 8.16861 10.2089 8.07808 10.2101 7.98752C10.2104 7.92986 10.2106 7.8722 10.2108 7.81454C10.2113 7.78753 10.2118 7.76053 10.2123 7.7327C10.2118 7.57099 10.1971 7.47962 10.0898 7.35621C9.95338 7.26242 9.8409 7.30496 9.707 7.38356ZM3.49997 10.2273C3.49217 10.4825 3.49217 10.4825 3.582 10.6922C3.66329 10.7674 3.71727 10.7845 3.82713 10.7852C3.86751 10.7857 3.86751 10.7858 3.90871 10.7863C3.93762 10.7862 3.96653 10.7861 3.99632 10.786C4.02619 10.7862 4.05606 10.7863 4.08683 10.7865C4.14997 10.7866 4.21311 10.7866 4.27624 10.7864C4.37281 10.7861 4.46933 10.7869 4.5659 10.7878C4.62726 10.7878 4.68862 10.7878 4.74999 10.7877C4.77884 10.7881 4.8077 10.7884 4.83743 10.7887C4.99864 10.7874 4.99864 10.7874 5.14397 10.7231C5.27874 10.57 5.24997 10.4345 5.24997 10.2273C4.67247 10.2273 4.09497 10.2273 3.49997 10.2273Z" fill="#989A9B"/>
</svg>
