<svg width="14" height="14" viewBox="0 0 14 14" fill="none" xmlns="http://www.w3.org/2000/svg">
<g clip-path="url(#clip0_6398_9507)">
<path d="M2.43119 0.922759C2.47217 0.922657 2.51315 0.922531 2.55412 0.922384C2.66614 0.922051 2.77816 0.922057 2.89018 0.922121C3.01123 0.922132 3.13228 0.92183 3.25332 0.921571C3.49027 0.921118 3.72722 0.920967 3.96417 0.920936C4.15688 0.92091 4.34959 0.920798 4.5423 0.920624C5.08925 0.920143 5.6362 0.91989 6.18315 0.919931C6.21261 0.919934 6.24207 0.919936 6.27242 0.919938C6.30192 0.91994 6.33141 0.919943 6.3618 0.919945C6.83961 0.919967 7.31742 0.919444 7.79522 0.918673C8.2864 0.917886 8.77758 0.91751 9.26875 0.917557C9.54428 0.917575 9.81981 0.917426 10.0953 0.916836C10.33 0.916337 10.5646 0.91622 10.7992 0.916591C10.9188 0.916768 11.0384 0.916775 11.1579 0.916298C11.2677 0.915865 11.3774 0.915949 11.4871 0.916423C11.5266 0.916506 11.566 0.91641 11.6054 0.916102C12.1735 0.911966 12.6628 1.07969 13.0744 1.4794C13.4102 1.83578 13.5668 2.26292 13.5663 2.74684C13.5664 2.78553 13.5664 2.78553 13.5665 2.825C13.5668 2.91133 13.5668 2.99766 13.5669 3.08399C13.567 3.14593 13.5671 3.20788 13.5673 3.26983C13.5676 3.43808 13.5678 3.60633 13.5679 3.77458C13.568 3.87978 13.5681 3.98497 13.5682 4.09017C13.5686 4.38181 13.5689 4.67345 13.569 4.96509C13.569 4.98374 13.569 5.00239 13.569 5.0216C13.569 5.04029 13.569 5.05898 13.569 5.07824C13.569 5.11611 13.569 5.15399 13.569 5.19186C13.569 5.21064 13.569 5.22943 13.569 5.24878C13.5691 5.55284 13.5696 5.85689 13.5703 6.16095C13.5709 6.47362 13.5712 6.78629 13.5713 7.09896C13.5713 7.27431 13.5715 7.44966 13.572 7.62501C13.5724 7.79008 13.5725 7.95515 13.5722 8.12023C13.5722 8.18062 13.5723 8.24101 13.5726 8.3014C13.5753 8.93596 13.472 9.4313 13.0123 9.90374C12.6625 10.2342 12.1983 10.4029 11.721 10.396C11.6968 10.3959 11.6726 10.3958 11.6477 10.3957C11.5675 10.3953 11.4872 10.3945 11.407 10.3937C11.3491 10.3933 11.2912 10.3929 11.2333 10.3926C11.109 10.3919 10.9847 10.3911 10.8604 10.3902C10.6633 10.3888 10.4663 10.3882 10.2692 10.3877C10.2359 10.3877 10.2026 10.3876 10.1682 10.3875C10.1 10.3874 10.0319 10.3872 9.96371 10.3871C9.50533 10.3861 9.04697 10.3847 8.5886 10.3808C8.27893 10.3782 7.96929 10.3769 7.6596 10.3772C7.49604 10.3773 7.33254 10.3767 7.16898 10.3745C7.01485 10.3724 6.86082 10.3721 6.70668 10.3731C6.65056 10.3732 6.59443 10.3726 6.53832 10.3713C6.10643 10.3619 5.85631 10.4837 5.52388 10.7565C5.45174 10.8149 5.37671 10.8669 5.29983 10.9189C5.27647 10.9351 5.2531 10.9514 5.22902 10.9681C5.20604 10.9841 5.18306 11 5.15938 11.0165C5.10622 11.0535 5.05306 11.0904 4.99991 11.1274C4.97345 11.1458 4.94699 11.1641 4.91973 11.1831C4.78825 11.2745 4.6568 11.366 4.52534 11.4574C4.47294 11.4939 4.42053 11.5303 4.36812 11.5668C4.34218 11.5848 4.31623 11.6029 4.2895 11.6215C4.00126 11.822 3.71301 12.0225 3.42476 12.223C3.38578 12.2502 3.38578 12.2502 3.34602 12.2778C3.29404 12.314 3.24205 12.3501 3.19006 12.3863C3.05241 12.482 2.91491 12.5778 2.77759 12.674C2.7489 12.6941 2.7202 12.7141 2.69064 12.7348C2.63552 12.7733 2.58044 12.8119 2.52541 12.8506C2.50063 12.8679 2.47585 12.8852 2.45032 12.903C2.42854 12.9183 2.40677 12.9335 2.38434 12.9492C2.32417 12.9887 2.32417 12.9887 2.2148 13.0434C2.2148 12.1681 2.2148 11.2928 2.2148 10.391C2.09749 10.382 1.98019 10.373 1.85933 10.3637C1.39021 10.2678 1.00576 9.99208 0.725204 9.60819C0.490529 9.24294 0.405824 8.86942 0.40627 8.44066C0.406188 8.41586 0.406107 8.39107 0.406023 8.36552C0.405787 8.28289 0.405745 8.20026 0.405704 8.11763C0.405577 8.05819 0.40544 7.99874 0.405292 7.9393C0.404934 7.77811 0.404757 7.61692 0.404636 7.45573C0.404556 7.35488 0.404443 7.25404 0.404321 7.15319C0.403948 6.83727 0.403683 6.52134 0.403578 6.20542C0.403455 5.84148 0.402976 5.47756 0.402183 5.11362C0.401591 4.83182 0.401316 4.55001 0.401279 4.26821C0.401251 4.10013 0.401091 3.93206 0.400601 3.76398C0.400148 3.60573 0.400092 3.44748 0.400331 3.28923C0.400352 3.23142 0.400235 3.17361 0.399963 3.1158C0.397056 2.45848 0.497003 1.92444 0.96553 1.4291C1.37909 1.03321 1.87683 0.92144 2.43119 0.922759ZM1.43892 2.09902C1.23575 2.37237 1.19878 2.64972 1.19942 2.98119C1.19936 3.00506 1.1993 3.02893 1.19923 3.05352C1.19906 3.13301 1.19908 3.21249 1.19911 3.29198C1.19902 3.34917 1.19893 3.40636 1.19883 3.46356C1.19859 3.61858 1.19852 3.77361 1.19851 3.92863C1.19849 4.02558 1.19843 4.12252 1.19835 4.21946C1.1981 4.55791 1.19799 4.89635 1.19801 5.2348C1.19803 5.54988 1.19774 5.86497 1.19731 6.18006C1.19695 6.45092 1.1968 6.72179 1.19682 6.99265C1.19683 7.15428 1.19675 7.3159 1.19646 7.47752C1.1962 7.62958 1.19619 7.78163 1.19639 7.93369C1.19642 7.98934 1.19636 8.04499 1.19619 8.10064C1.195 8.52904 1.20436 8.88591 1.45601 9.24941C1.65859 9.45199 1.87905 9.5512 2.16011 9.59804C2.43984 9.59804 2.71956 9.59804 3.00777 9.59804C3.00777 10.2297 3.00777 10.8613 3.00777 11.5121C3.15685 11.4283 3.15685 11.4283 3.29744 11.3357C3.32309 11.3174 3.32309 11.3174 3.34926 11.2987C3.3674 11.2857 3.38555 11.2726 3.40425 11.2592C3.44546 11.2298 3.48669 11.2005 3.52794 11.1712C3.54989 11.1555 3.57184 11.1399 3.59446 11.1238C3.71851 11.036 3.84338 10.9494 3.96822 10.8627C3.99476 10.8442 4.0213 10.8258 4.04864 10.8068C4.10298 10.769 4.15732 10.7313 4.21167 10.6936C4.34362 10.6019 4.47549 10.5101 4.60738 10.4184C4.7697 10.3054 4.93204 10.1925 5.09444 10.0797C5.12276 10.06 5.15108 10.0403 5.18026 10.02C5.23426 9.98246 5.28827 9.94494 5.34229 9.90742C5.36681 9.89038 5.39132 9.87334 5.41658 9.85578C5.43792 9.84095 5.45926 9.82612 5.48125 9.81084C5.54714 9.76629 5.54714 9.76629 5.59052 9.72803C5.72342 9.61967 5.82619 9.60591 5.99444 9.60846C6.03169 9.6082 6.03169 9.6082 6.06969 9.60794C6.15261 9.60753 6.23549 9.6081 6.31841 9.60865C6.37798 9.60856 6.43755 9.6084 6.49712 9.60819C6.62529 9.60785 6.75344 9.60795 6.88161 9.60837C7.08445 9.60904 7.28728 9.60872 7.49011 9.60827C7.8294 9.60764 8.16868 9.60773 8.50796 9.60805C8.5351 9.60808 8.5351 9.60808 8.5628 9.6081C8.58997 9.60813 8.58997 9.60813 8.61768 9.60816C9.1372 9.60864 9.65672 9.60845 10.1762 9.60756C10.3777 9.60724 10.5791 9.60736 10.7806 9.60783C10.9062 9.60805 11.0318 9.60793 11.1574 9.60773C11.2154 9.60771 11.2734 9.60782 11.3315 9.6081C11.7644 9.61003 12.1406 9.60637 12.4739 9.29619C12.7015 9.05897 12.7737 8.80083 12.7733 8.4792C12.7734 8.45429 12.7735 8.42938 12.7736 8.40371C12.7738 8.32004 12.7739 8.23637 12.7739 8.15271C12.774 8.09279 12.7742 8.03287 12.7743 7.97296C12.7747 7.81002 12.7748 7.64708 12.775 7.48414C12.775 7.38232 12.7752 7.28051 12.7753 7.1787C12.7756 6.8601 12.7759 6.5415 12.776 6.2229C12.776 6.18624 12.776 6.14959 12.7761 6.11293C12.7761 6.09474 12.7761 6.07656 12.7761 6.05782C12.7762 5.76343 12.7767 5.46905 12.7773 5.17466C12.7779 4.87215 12.7783 4.56965 12.7783 4.26715C12.7783 4.09741 12.7785 3.92767 12.779 3.75793C12.7794 3.59818 12.7795 3.43843 12.7793 3.27868C12.7792 3.22015 12.7794 3.16162 12.7796 3.10309C12.78 3.02296 12.7798 2.94284 12.7795 2.86272C12.7798 2.83975 12.78 2.81679 12.7802 2.79314C12.7777 2.48827 12.674 2.24095 12.4676 2.01837C12.2376 1.79847 11.984 1.71981 11.6689 1.71945C11.6349 1.71934 11.6009 1.71924 11.566 1.71913C11.5285 1.71915 11.491 1.71917 11.4536 1.7192C11.4136 1.71913 11.3736 1.71905 11.3337 1.71895C11.224 1.71873 11.1142 1.71868 11.0045 1.71866C10.8861 1.71861 10.7677 1.71841 10.6494 1.71822C10.3906 1.71785 10.1317 1.71769 9.87294 1.71757C9.71129 1.71749 9.54965 1.71738 9.38801 1.71725C8.94033 1.71692 8.49266 1.71664 8.04499 1.71654C8.01634 1.71654 7.9877 1.71653 7.95819 1.71653C7.92948 1.71652 7.90077 1.71651 7.87119 1.71651C7.81301 1.7165 7.75483 1.71648 7.69665 1.71647C7.65336 1.71646 7.65336 1.71646 7.6092 1.71645C7.14164 1.71635 6.67408 1.71587 6.20652 1.71523C5.72631 1.71458 5.24611 1.71424 4.7659 1.71421C4.49635 1.71419 4.22681 1.71403 3.95726 1.71353C3.72772 1.71311 3.49819 1.71297 3.26866 1.7132C3.1516 1.7133 3.03455 1.71328 2.9175 1.71289C2.8102 1.71254 2.70292 1.71258 2.59562 1.71291C2.55694 1.71296 2.51826 1.71288 2.47958 1.71264C2.07444 1.7103 1.71206 1.77741 1.43892 2.09902Z" fill="#808284"/>
<path d="M3.9375 6.91797C5.95875 6.91797 7.98 6.91797 10.0625 6.91797C10.0625 7.17965 10.0625 7.44133 10.0625 7.71094C8.04125 7.71094 6.02 7.71094 3.9375 7.71094C3.9375 7.44926 3.9375 7.18758 3.9375 6.91797Z" fill="#808284"/>
<path d="M3.9375 5.27734C5.95875 5.27734 7.98 5.27734 10.0625 5.27734C10.0625 5.53902 10.0625 5.8007 10.0625 6.07031C8.04125 6.07031 6.02 6.07031 3.9375 6.07031C3.9375 5.80863 3.9375 5.54695 3.9375 5.27734Z" fill="#808284"/>
<path d="M3.9375 3.63672C5.95875 3.63672 7.98 3.63672 10.0625 3.63672C10.0625 3.8984 10.0625 4.16008 10.0625 4.42969C8.04125 4.42969 6.02 4.42969 3.9375 4.42969C3.9375 4.16801 3.9375 3.90633 3.9375 3.63672Z" fill="#808284"/>
</g>
<defs>
<clipPath id="clip0_6398_9507">
<rect width="14" height="14" fill="white"/>
</clipPath>
</defs>
</svg>
