<svg width="14" height="14" viewBox="0 0 14 14" fill="none" xmlns="http://www.w3.org/2000/svg">
<g clip-path="url(#clip0_6398_9453)">
<path d="M4.70817 4.98896C4.84217 5.08781 4.97827 5.18347 5.1149 5.27863C5.16098 5.31078 5.20705 5.34293 5.25312 5.37508C5.28668 5.3985 5.28668 5.3985 5.32092 5.42239C5.42223 5.49321 5.52323 5.56447 5.62418 5.63581C5.64304 5.64914 5.6619 5.66246 5.68133 5.67619C5.71912 5.7029 5.75691 5.72961 5.79469 5.75632C5.89106 5.82443 5.98748 5.89247 6.0839 5.96052C6.12264 5.98786 6.16137 6.0152 6.20011 6.04255C6.21928 6.05608 6.23846 6.06962 6.25821 6.08356C6.47127 6.23395 6.68432 6.38435 6.89738 6.53474C6.91656 6.54828 6.93574 6.56182 6.9555 6.57576C6.99417 6.60306 7.03284 6.63036 7.07151 6.65766C7.18915 6.74071 7.30682 6.82371 7.42453 6.90666C7.4637 6.9343 7.50283 6.96197 7.54194 6.98969C7.63235 7.05377 7.72296 7.11741 7.81457 7.17977C8.29654 7.51032 8.63006 7.91581 8.767 8.49355C8.78215 8.58901 8.77889 8.68036 8.77726 8.77692C8.93071 8.64593 9.07627 8.5092 9.2187 8.36636C9.23976 8.34535 9.26082 8.32434 9.28251 8.3027C9.35139 8.23394 9.42017 8.16508 9.48894 8.09621C9.53699 8.04818 9.58505 8.00016 9.6331 7.95213C9.73342 7.85185 9.83369 7.75153 9.93393 7.65116C10.037 7.54801 10.14 7.44492 10.2432 7.34189C10.368 7.21727 10.4927 7.09259 10.6173 6.96785C10.6648 6.92033 10.7124 6.87283 10.7599 6.82534C10.8261 6.75924 10.8922 6.69304 10.9582 6.62683C10.978 6.60713 10.9978 6.58742 11.0181 6.56713C11.036 6.54915 11.0539 6.53118 11.0723 6.51266C11.088 6.49703 11.1036 6.4814 11.1197 6.46529C11.159 6.4259 11.159 6.4259 11.1835 6.37067C11.1694 6.36384 11.1552 6.357 11.1407 6.34995C11.0886 6.32336 11.0372 6.29527 10.9862 6.26664C10.4676 5.97643 9.88466 5.85866 9.29679 6.00153C8.99306 6.09788 8.69172 6.24429 8.44913 6.4527C8.43243 6.46617 8.41572 6.47963 8.3985 6.49351C8.29224 6.58078 8.20768 6.67435 8.12101 6.78083C8.03647 6.8231 7.96804 6.8162 7.87491 6.80817C7.78835 6.75122 7.76866 6.70781 7.73478 6.60993C7.7397 6.46216 7.80521 6.39511 7.90226 6.28864C7.92563 6.26199 7.92563 6.26199 7.94947 6.23481C8.34826 5.80716 8.97881 5.49717 9.56601 5.46392C10.2813 5.45369 10.2813 5.45369 10.5819 5.55036C10.6074 5.55829 10.6074 5.55829 10.6333 5.56638C11.3374 5.79075 11.8759 6.26161 12.2222 6.91392C12.3071 7.08217 12.3639 7.25558 12.414 7.43708C12.424 7.47129 12.424 7.47129 12.4343 7.50619C12.4907 7.73244 12.4732 7.97131 12.4687 8.2027C12.4957 8.19368 12.5228 8.18466 12.5507 8.17536C12.8333 8.14876 13.1007 8.20194 13.3283 8.37916C13.5214 8.57039 13.6125 8.80893 13.6171 9.0777C13.5979 9.37003 13.4868 9.57983 13.2695 9.77258C13.1863 9.8436 13.1013 9.91221 13.0155 9.98005C12.9993 9.99292 12.983 10.0058 12.9663 10.0191C12.9025 10.0694 12.8386 10.1196 12.7744 10.1694C12.6656 10.2541 12.5597 10.3415 12.455 10.4312C12.3364 10.5327 12.2159 10.631 12.0927 10.7269C11.8856 10.888 11.6835 11.0551 11.4814 11.2224C11.3311 11.3467 11.1799 11.4698 11.0286 11.5928C11.0108 11.6073 10.9929 11.6219 10.9745 11.6369C10.937 11.6673 10.8994 11.6976 10.8617 11.7278C10.7692 11.8021 10.6789 11.8772 10.592 11.958C10.3075 12.2168 9.99586 12.3448 9.63821 12.4772C9.49524 12.5303 9.35311 12.5855 9.21091 12.6406C8.64231 12.8606 8.07296 13.0792 7.49867 13.284C7.40971 13.3161 7.32125 13.3494 7.23276 13.3827C6.88658 13.5103 6.60116 13.5676 6.23429 13.5347C6.1829 13.5308 6.13152 13.5268 6.08014 13.5229C5.98677 13.5155 5.89349 13.5073 5.80021 13.4988C5.77294 13.4965 5.77294 13.4965 5.74513 13.494C5.69289 13.4893 5.64069 13.484 5.58851 13.4787C5.55816 13.4757 5.52782 13.4726 5.49656 13.4695C5.40748 13.4514 5.35062 13.4238 5.27726 13.3707C5.23447 13.2851 5.23085 13.1899 5.24991 13.0972C5.30661 13.0204 5.33855 12.9914 5.43352 12.9753C5.63343 12.9806 5.83028 12.9952 6.02921 13.0152C6.10309 13.0223 6.17698 13.0293 6.25089 13.0362C6.30569 13.0415 6.36042 13.0476 6.41512 13.0539C6.72766 13.0745 7.01049 12.9522 7.29837 12.845C7.3599 12.8221 7.42149 12.7994 7.48308 12.7766C7.76504 12.6723 8.04614 12.5658 8.32679 12.4579C8.50643 12.389 8.68647 12.3213 8.86681 12.2542C8.99283 12.2072 9.11858 12.1595 9.24429 12.1117C9.30468 12.0888 9.36518 12.0663 9.42579 12.044C9.77489 11.9155 10.057 11.786 10.3227 11.5223C10.3938 11.455 10.4717 11.3963 10.5495 11.337C10.567 11.3234 10.5845 11.3097 10.6025 11.2957C10.6165 11.2849 10.6305 11.274 10.6449 11.2629C10.7578 11.1746 10.8681 11.0832 10.9784 10.9918C11.1183 10.8759 11.259 10.7615 11.4023 10.65C11.5846 10.5079 11.7628 10.3611 11.9409 10.2139C12.2081 9.99301 12.477 9.77434 12.7506 9.56138C12.7935 9.52794 12.8361 9.49423 12.8788 9.46052C12.8938 9.44872 12.9088 9.43692 12.9242 9.42476C13.0344 9.33606 13.0858 9.27027 13.1249 9.13239C13.1324 9.00273 13.1164 8.89662 13.036 8.7923C12.9355 8.69861 12.8716 8.67406 12.737 8.65559C12.4902 8.6839 12.2636 8.85837 12.0551 8.98542C11.9953 9.02158 11.9355 9.05771 11.8756 9.09383C11.8599 9.10334 11.8442 9.11284 11.828 9.12264C11.6411 9.23551 11.4534 9.34699 11.2657 9.45841C11.2085 9.49238 11.1512 9.52639 11.094 9.5604C11.0582 9.58162 11.0225 9.60283 10.9868 9.62405C10.9708 9.63354 10.9548 9.64304 10.9383 9.65283C10.8925 9.67999 10.8466 9.70697 10.8007 9.73395C10.784 9.74409 10.7673 9.75423 10.7501 9.76467C10.6316 9.83538 10.5569 9.86169 10.4179 9.84333C10.3529 9.81599 10.3529 9.81599 10.3085 9.7613C10.2837 9.6869 10.2698 9.62042 10.2812 9.54255C10.3593 9.42747 10.4497 9.36106 10.5686 9.29325C10.586 9.28301 10.6035 9.27278 10.6214 9.26223C10.6588 9.24032 10.6963 9.21853 10.7338 9.19686C10.7927 9.16286 10.8513 9.12853 10.9099 9.0941C10.9896 9.04733 11.0693 9.00068 11.1492 8.95415C11.2897 8.87226 11.4301 8.79025 11.57 8.70738C11.6292 8.6723 11.6885 8.63745 11.748 8.60283C11.7743 8.58725 11.8006 8.57167 11.8277 8.55561C11.8506 8.54216 11.8735 8.52872 11.8972 8.51486C11.9573 8.47778 11.9573 8.47778 11.9765 8.39411C12.0256 7.78459 11.9051 7.28897 11.5663 6.78083C11.479 6.81952 11.4189 6.866 11.3506 6.93239C11.3297 6.9525 11.3089 6.97261 11.2875 6.99333C11.2536 7.02646 11.2536 7.02646 11.2191 7.06026C11.1951 7.08352 11.1711 7.10678 11.1464 7.13075C10.9255 7.34558 10.7059 7.56183 10.4868 7.77852C10.325 7.93844 10.1626 8.09759 9.99924 8.2558C9.88413 8.36739 9.76987 8.47981 9.65621 8.59287C9.58844 8.66023 9.52036 8.72717 9.45131 8.79322C9.11291 9.09168 9.11291 9.09168 8.95273 9.49405C8.95232 9.55073 8.95662 9.60739 8.96127 9.66388C8.972 9.80525 8.92432 9.91163 8.85929 10.0347C9.22243 10.0614 9.22243 10.0614 9.54961 9.92707C9.59757 9.89802 9.59757 9.89802 9.68815 9.89631C9.77707 9.93146 9.8176 9.95462 9.87101 10.0347C9.89261 10.1709 9.89261 10.1709 9.87101 10.2535C9.81251 10.3163 9.77769 10.3476 9.70695 10.3902C9.67962 10.4086 9.6523 10.4271 9.62414 10.4461C9.50233 10.5151 9.39205 10.515 9.25458 10.5137C9.22912 10.5139 9.20367 10.5141 9.17744 10.5143C9.09378 10.5148 9.01014 10.5145 8.92647 10.5141C8.86816 10.5142 8.80984 10.5143 8.75152 10.5144C8.62954 10.5146 8.50757 10.5144 8.38559 10.5138C8.22918 10.5132 8.07279 10.5136 7.91638 10.5142C7.79606 10.5146 7.67576 10.5145 7.55544 10.5142C7.49776 10.5141 7.44007 10.5142 7.38239 10.5145C7.30188 10.5148 7.2214 10.5143 7.14089 10.5137C7.11703 10.514 7.09318 10.5142 7.06861 10.5144C6.90726 10.5121 6.90726 10.5121 6.82111 10.4474C6.77789 10.3855 6.76632 10.3556 6.76749 10.2808C6.76707 10.2538 6.76707 10.2538 6.76664 10.2261C6.78877 10.1428 6.82163 10.1143 6.89054 10.0621C6.97118 10.0458 7.05073 10.0468 7.13279 10.0473C7.15639 10.047 7.17999 10.0467 7.20431 10.0464C7.27974 10.0454 7.35515 10.0451 7.43058 10.045C7.50561 10.0445 7.58064 10.0439 7.65567 10.043C7.7023 10.0425 7.74892 10.0422 7.79555 10.0423C8.0084 10.0404 8.19877 10.0122 8.3671 9.87067C8.47772 9.73095 8.49681 9.61081 8.49058 9.43349C8.46738 9.29803 8.40692 9.20322 8.31241 9.10505C8.14136 8.99101 7.95458 8.99197 7.75464 8.99087C7.71007 8.99023 7.66549 8.98957 7.62092 8.98889C7.55138 8.98793 7.48186 8.98713 7.41231 8.98676C7.34469 8.98634 7.2771 8.98523 7.20948 8.98403C7.17875 8.98411 7.17875 8.98411 7.1474 8.98419C6.96248 8.97996 6.82159 8.91922 6.68343 8.79636C6.66436 8.77529 6.64529 8.75421 6.62565 8.73249C6.52603 8.62286 6.44781 8.56542 6.29735 8.55123C6.27087 8.55119 6.24438 8.55114 6.21709 8.5511C6.18689 8.55092 6.15668 8.55075 6.12556 8.55057C6.07702 8.55074 6.07702 8.55074 6.0275 8.55091C5.9773 8.55083 5.9773 8.55083 5.92608 8.55075C5.85538 8.55071 5.78468 8.55082 5.71398 8.55104C5.60579 8.55134 5.4976 8.55105 5.38941 8.5507C5.32069 8.55073 5.25198 8.5508 5.18326 8.55091C5.1509 8.5508 5.11854 8.55069 5.0852 8.55057C5.055 8.55075 5.02479 8.55092 4.99367 8.5511C4.95394 8.55116 4.95394 8.55116 4.91341 8.55123C4.81305 8.56069 4.73195 8.58261 4.6613 8.65653C4.64984 8.67363 4.63837 8.69073 4.62656 8.70835C4.61346 8.72747 4.60036 8.7466 4.58687 8.7663C4.57332 8.78673 4.55977 8.80715 4.54581 8.82819C4.51672 8.87054 4.48759 8.91288 4.45844 8.95519C4.44423 8.97605 4.43001 8.9969 4.41537 9.01838C4.1355 9.42877 3.81557 9.74625 3.30851 9.84333C3.23448 9.8476 3.16358 9.84979 3.08976 9.84867C3.07004 9.84859 3.05032 9.84852 3.03 9.84844C2.96789 9.84813 2.90578 9.84745 2.84366 9.84675C2.80119 9.84647 2.75871 9.84622 2.71624 9.846C2.61288 9.8454 2.50952 9.84446 2.40616 9.84333C2.40334 9.86927 2.40052 9.89521 2.39762 9.92194C2.37882 10.0074 2.37882 10.0074 2.29679 10.0621C2.14279 10.0767 2.14279 10.0767 2.07804 10.0621C2.04195 10.026 2.00585 9.98989 1.96866 9.9527C1.96866 9.77224 1.96866 9.59177 1.96866 9.40583C1.60773 9.40583 1.24679 9.40583 0.874914 9.40583C0.874914 10.5608 0.874914 11.7158 0.874914 12.9058C1.23585 12.9058 1.59679 12.9058 1.96866 12.9058C1.96739 12.7413 1.96613 12.5768 1.96482 12.4072C1.96426 12.3031 1.96373 12.1989 1.96332 12.0947C1.96267 11.9293 1.9619 11.7639 1.96041 11.5985C1.95923 11.4652 1.95857 11.3319 1.95829 11.1986C1.95808 11.1477 1.95769 11.0968 1.9571 11.0459C1.95631 10.9747 1.9562 10.9035 1.95625 10.8322C1.95585 10.8111 1.95546 10.79 1.95506 10.7683C1.9558 10.6715 1.96086 10.6191 2.02071 10.5412C2.08281 10.4961 2.11158 10.4847 2.18741 10.4859C2.21448 10.4855 2.21448 10.4855 2.2421 10.4851C2.32386 10.5068 2.35416 10.5425 2.40616 10.609C2.41641 10.6806 2.42006 10.7406 2.41858 10.8121C2.4186 10.8324 2.41861 10.8527 2.41863 10.8736C2.41855 10.9405 2.4177 11.0073 2.41685 11.0742C2.41664 11.1207 2.41649 11.1671 2.41638 11.2135C2.41596 11.3356 2.41488 11.4577 2.41367 11.5798C2.41255 11.7044 2.41206 11.8291 2.4115 11.9537C2.41033 12.1982 2.40847 12.4426 2.40616 12.6871C2.42273 12.6866 2.4393 12.6862 2.45638 12.6857C2.68934 12.6822 2.91876 12.7037 3.15021 12.727C3.19237 12.7312 3.23453 12.7354 3.27668 12.7395C3.36443 12.7482 3.45217 12.757 3.5399 12.7659C3.65214 12.7772 3.7644 12.7882 3.87667 12.7991C3.96348 12.8076 4.05027 12.8163 4.13706 12.825C4.17845 12.8292 4.21986 12.8332 4.26127 12.8373C4.31905 12.8429 4.3768 12.8488 4.43456 12.8547C4.46735 12.858 4.50014 12.8613 4.53393 12.8646C4.64302 12.882 4.727 12.9035 4.80729 12.981C4.851 13.0638 4.85298 13.114 4.83976 13.2066C4.79756 13.2795 4.79756 13.2795 4.73038 13.3433C4.65352 13.3549 4.59472 13.358 4.51852 13.3541C4.49795 13.3535 4.47738 13.3529 4.4562 13.3524C4.39256 13.3503 4.3291 13.3471 4.26554 13.3433C4.24684 13.3422 4.22815 13.3412 4.20888 13.34C4.08145 13.332 3.95439 13.3205 3.82729 13.3084C3.78763 13.3048 3.74796 13.3012 3.70829 13.2976C3.62633 13.2901 3.54437 13.2825 3.46243 13.2747C3.35736 13.2648 3.25227 13.2552 3.14716 13.2457C3.06578 13.2383 2.98442 13.2308 2.90305 13.2232C2.86425 13.2196 2.82545 13.2161 2.78665 13.2125C2.73287 13.2076 2.67911 13.2025 2.62535 13.1974C2.59481 13.1946 2.56427 13.1917 2.53281 13.1888C2.46085 13.1793 2.46085 13.1793 2.40616 13.1519C2.40334 13.1734 2.40052 13.1948 2.39762 13.2169C2.37882 13.2886 2.37882 13.2886 2.29679 13.3433C2.22122 13.3506 2.22122 13.3506 2.12857 13.3513C2.09389 13.3516 2.05921 13.352 2.02349 13.3523C1.98559 13.3524 1.9477 13.3525 1.90981 13.3525C1.87095 13.3527 1.8321 13.3529 1.79324 13.3531C1.7118 13.3534 1.63037 13.3535 1.54893 13.3535C1.44462 13.3535 1.34034 13.3542 1.23604 13.3551C1.15579 13.3558 1.07554 13.3559 0.99529 13.3558C0.956839 13.3559 0.918388 13.3561 0.879939 13.3566C0.826144 13.3571 0.772345 13.3569 0.718548 13.3566C0.68795 13.3567 0.657352 13.3568 0.625826 13.3569C0.525975 13.3398 0.499468 13.313 0.437414 13.234C0.42365 13.1559 0.42365 13.1559 0.423525 13.0638C0.423217 13.0288 0.422908 12.9938 0.42259 12.9578C0.422803 12.9191 0.423027 12.8804 0.423261 12.8417C0.423113 12.801 0.422918 12.7602 0.42268 12.7194C0.422182 12.6087 0.422375 12.4979 0.422722 12.3872C0.422999 12.2713 0.422742 12.1555 0.42257 12.0396C0.422371 11.8451 0.422634 11.6505 0.423154 11.456C0.42375 11.231 0.423557 11.006 0.422955 10.7811C0.422458 10.5879 0.422388 10.3948 0.422675 10.2017C0.422845 10.0864 0.422868 9.971 0.422506 9.85565C0.422191 9.74719 0.422409 9.63876 0.423042 9.53031C0.423186 9.49049 0.423145 9.45068 0.422904 9.41086C0.422605 9.35654 0.423046 9.30223 0.423525 9.24791C0.423566 9.2175 0.423608 9.1871 0.42365 9.15577C0.440636 9.05943 0.469916 9.02711 0.546789 8.96833C0.625642 8.95444 0.625642 8.95444 0.718114 8.95418C0.75279 8.95383 0.787465 8.95349 0.82319 8.95313C0.860939 8.95333 0.898688 8.95355 0.936437 8.9538C0.975254 8.95373 1.01407 8.95362 1.05289 8.95349C1.13417 8.95333 1.21543 8.95356 1.29671 8.95407C1.4008 8.95469 1.50487 8.95434 1.60896 8.95368C1.68909 8.95328 1.76922 8.95341 1.84935 8.95369C1.88773 8.95377 1.9261 8.95368 1.96447 8.95342C2.01814 8.95314 2.0718 8.95364 2.12546 8.95418C2.15598 8.95426 2.18649 8.95435 2.21794 8.95444C2.31483 8.97151 2.34738 9.00007 2.40616 9.0777C2.41685 9.16016 2.41685 9.16016 2.413 9.2486C2.41201 9.27807 2.41103 9.30754 2.41001 9.3379C2.40874 9.36032 2.40747 9.38273 2.40616 9.40583C3.05991 9.39004 3.05991 9.39004 3.66398 9.15974C3.55911 9.07458 3.45169 8.99339 3.34269 8.91364C3.3249 8.90062 3.30711 8.88759 3.28879 8.87417C3.03802 8.69115 2.78366 8.51316 2.5291 8.33547C2.09794 8.03395 2.09794 8.03395 1.91398 7.87458C1.89336 7.85689 1.87274 7.83919 1.85149 7.82096C1.46527 7.46455 1.29198 6.97739 1.25217 6.46296C1.24216 5.95561 1.40546 5.50765 1.72257 5.11286C1.74026 5.0897 1.75796 5.06655 1.77619 5.04269C2.08828 4.67021 2.57874 4.4614 3.05387 4.40534C3.71159 4.3726 4.19557 4.61068 4.70817 4.98896ZM2.079 5.41695C1.87648 5.65847 1.75277 5.94799 1.72257 6.2613C1.72031 6.28245 1.71806 6.3036 1.71573 6.32539C1.69482 6.71754 1.85397 7.10766 2.09855 7.40632C2.26567 7.58321 2.46682 7.71694 2.66609 7.85475C2.73476 7.90225 2.80313 7.95014 2.87144 7.99816C2.96306 8.06253 3.05482 8.12672 3.14669 8.19074C3.23518 8.25247 3.3234 8.31455 3.41137 8.37702C3.43207 8.39172 3.45278 8.40641 3.47411 8.42156C3.51255 8.44887 3.55096 8.47623 3.58932 8.50365C3.71162 8.59049 3.83676 8.67139 3.96476 8.74958C4.09898 8.58068 4.22516 8.40766 4.34757 8.23005C4.69098 7.73179 4.69098 7.73179 4.81583 7.66437C4.90728 7.65443 4.95198 7.66433 5.03116 7.71052C5.09509 7.8064 5.09487 7.84385 5.08585 7.95661C5.06854 8.00254 5.05044 8.04819 5.03116 8.09333C5.04986 8.09343 5.06856 8.09353 5.08782 8.09363C5.28301 8.09478 5.47819 8.09668 5.67337 8.099C5.74615 8.09983 5.81891 8.10036 5.89169 8.10074C5.9965 8.10133 6.10129 8.1026 6.20609 8.10401C6.23846 8.10404 6.27082 8.10408 6.30417 8.10411C6.52131 8.10793 6.66991 8.13701 6.84055 8.27972C6.85479 8.29547 6.86903 8.31123 6.8837 8.32746C6.99571 8.44607 7.07873 8.52192 7.246 8.53516C7.26518 8.53558 7.28437 8.53601 7.30414 8.53644C7.32603 8.53699 7.34792 8.53753 7.37047 8.5381C7.40551 8.53878 7.40551 8.53878 7.44126 8.53948C7.46538 8.54005 7.4895 8.54062 7.51436 8.5412C7.59125 8.54299 7.66814 8.5446 7.74503 8.54621C7.79723 8.54739 7.84942 8.54858 7.90162 8.54979C8.02943 8.55271 8.15725 8.55548 8.28507 8.55817C8.13014 8.00396 7.78458 7.72641 7.32804 7.40974C7.28227 7.37765 7.23652 7.34554 7.19079 7.31339C7.09919 7.24906 7.00747 7.18492 6.91564 7.12092C6.82715 7.05919 6.73893 6.99711 6.65096 6.93464C6.63026 6.91994 6.60955 6.90525 6.58822 6.8901C6.54978 6.86279 6.51137 6.83543 6.47301 6.80801C6.35071 6.72117 6.22557 6.64027 6.09757 6.56208C5.97207 6.71935 5.85444 6.88004 5.7427 7.04729C5.66588 7.16074 5.66588 7.16074 5.60538 7.19099C5.40717 7.20357 5.40717 7.20357 5.33365 7.15852C5.29356 7.09013 5.27905 7.05283 5.27726 6.97224C5.3525 6.80289 5.44909 6.65709 5.55753 6.50739C5.58027 6.47562 5.58027 6.47562 5.60346 6.4432C5.64042 6.39158 5.67752 6.34006 5.71476 6.28864C5.62303 6.18883 5.52067 6.11746 5.40885 6.04255C5.36938 6.01576 5.32993 5.98895 5.2905 5.96212C5.27022 5.94833 5.24993 5.93455 5.22903 5.92034C5.13104 5.85327 5.03408 5.78476 4.93717 5.71613C4.90847 5.69585 4.90847 5.69585 4.87919 5.67515C4.77965 5.60475 4.68026 5.53415 4.58095 5.46342C3.74948 4.87199 2.88387 4.54808 2.079 5.41695Z" fill="#808284" stroke="black" stroke-width="0.1"/>
<path d="M8.46284 0.896711C8.50396 0.93025 8.50396 0.93025 8.53131 0.984937C8.54686 1.17777 8.54686 1.17777 8.49029 1.27205C8.41549 1.31692 8.35782 1.33495 8.27015 1.3309C8.1645 1.30276 8.08087 1.24221 7.99042 1.18218C7.58672 0.919274 7.07267 0.864428 6.60292 0.941585C6.47488 0.971418 6.35535 1.01575 6.23443 1.06697C6.20845 1.07779 6.18248 1.08861 6.15571 1.09976C5.67924 1.31872 5.34921 1.72537 5.1692 2.20889C5.00651 2.71402 5.04804 3.24754 5.27056 3.72786C5.35524 3.88655 5.45897 4.02261 5.57818 4.15681C5.59302 4.17391 5.60786 4.191 5.62315 4.20862C5.93456 4.54428 6.38986 4.7462 6.8455 4.76852C7.17785 4.7756 7.45831 4.75029 7.76568 4.62166C7.79138 4.61115 7.81707 4.60065 7.84355 4.58983C8.02099 4.50919 8.16675 4.39425 8.31256 4.26619C8.33173 4.24962 8.3509 4.23305 8.37066 4.21599C8.67861 3.93089 8.88598 3.49891 8.91939 3.07878C8.92968 2.7555 8.92513 2.47471 8.80731 2.17097C8.77454 2.06987 8.76812 1.9929 8.7774 1.88728C8.84828 1.78633 8.88791 1.75524 9.00982 1.73347C9.13243 1.75537 9.16332 1.79202 9.24224 1.88728C9.27527 1.95824 9.29672 2.03067 9.31744 2.10603C9.32311 2.12514 9.32879 2.14424 9.33463 2.16392C9.51542 2.78209 9.43644 3.44362 9.13276 4.00503C9.11468 4.03746 9.0965 4.06983 9.07818 4.10212C9.06496 4.12542 9.05174 4.14872 9.03813 4.17273C8.69967 4.71721 8.13622 5.07452 7.51959 5.22322C6.88046 5.34286 6.22516 5.23372 5.67388 4.8874C5.12415 4.50946 4.75466 3.97592 4.61033 3.32311C4.58312 3.16506 4.58042 3.0095 4.58184 2.84944C4.58209 2.81589 4.58234 2.78234 4.58259 2.74778C4.59091 2.31089 4.70741 1.96463 4.92193 1.5865C4.93515 1.5632 4.94837 1.5399 4.96198 1.5159C5.30045 0.971416 5.86389 0.614104 6.48052 0.465406C7.20558 0.329783 7.86186 0.488456 8.46284 0.896711Z" fill="#808284" stroke="black" stroke-width="0.1"/>
<path d="M6.99988 1.08093C7.01792 1.08065 7.03597 1.08037 7.05457 1.08008C7.13509 1.10147 7.16656 1.1396 7.21863 1.20398C7.23252 1.28283 7.23252 1.28283 7.23278 1.37531C7.23313 1.40998 7.23347 1.44466 7.23383 1.48038C7.23363 1.51813 7.23341 1.55588 7.23315 1.59363C7.23323 1.63245 7.23333 1.67126 7.23347 1.71008C7.23363 1.79136 7.2334 1.87263 7.23289 1.9539C7.23226 2.058 7.23262 2.16206 7.23328 2.26615C7.23367 2.34628 7.23355 2.42641 7.23326 2.50654C7.23319 2.54492 7.23328 2.58329 7.23354 2.62167C7.23381 2.67533 7.23331 2.72899 7.23278 2.78265C7.23269 2.81317 7.23261 2.84369 7.23252 2.87513C7.21516 2.97368 7.19046 3.00576 7.10925 3.06335C7.0387 3.07724 7.0387 3.07724 6.95801 3.07751C6.92771 3.07785 6.89742 3.0782 6.8662 3.07855C6.83362 3.07833 6.80103 3.07811 6.76746 3.07788C6.7171 3.07804 6.7171 3.07804 6.66572 3.0782C6.59474 3.07827 6.52376 3.07807 6.45279 3.07761C6.34404 3.07703 6.23534 3.07761 6.12659 3.07831C6.05766 3.07824 5.98873 3.0781 5.9198 3.07788C5.87092 3.07821 5.87092 3.07821 5.82105 3.07855C5.79076 3.07821 5.76046 3.07786 5.72925 3.07751C5.70262 3.07742 5.67599 3.07733 5.64855 3.07724C5.55828 3.05947 5.52562 3.02465 5.46863 2.95398C5.4541 2.89929 5.4541 2.89929 5.45496 2.8446C5.45467 2.82656 5.45439 2.80851 5.4541 2.78992C5.47663 2.7051 5.50667 2.67811 5.578 2.62585C5.66931 2.61038 5.75949 2.61315 5.85187 2.61517C5.87842 2.61533 5.90497 2.61548 5.93232 2.61564C6.01703 2.61625 6.1017 2.61763 6.1864 2.61902C6.24387 2.61957 6.30133 2.62007 6.3588 2.62051C6.49958 2.62172 6.64035 2.62361 6.78113 2.62585C6.78089 2.60828 6.78064 2.59071 6.78039 2.57261C6.77797 2.38987 6.77632 2.20713 6.77512 2.02437C6.77457 1.95615 6.77382 1.88794 6.77288 1.81972C6.77155 1.72171 6.77093 1.62371 6.77045 1.5257C6.76988 1.49516 6.76932 1.46462 6.76874 1.43316C6.76873 1.4047 6.76872 1.37624 6.76871 1.34692C6.76847 1.3219 6.76823 1.29689 6.76798 1.27111C6.79219 1.14751 6.87496 1.07898 6.99988 1.08093Z" fill="#808284" stroke="black" stroke-width="0.1"/>
<path d="M6.0155 10.0482C6.03496 10.0477 6.05442 10.0473 6.07446 10.0469C6.16871 10.0476 6.22461 10.0549 6.30176 10.1105C6.34589 10.1745 6.3585 10.2039 6.3573 10.2806C6.35758 10.2986 6.35786 10.3167 6.35815 10.3353C6.33602 10.4186 6.3041 10.4489 6.23425 10.4993C6.15685 10.5103 6.09252 10.5147 6.0155 10.513C5.99605 10.5134 5.97659 10.5138 5.95654 10.5143C5.86229 10.5136 5.80639 10.5063 5.72925 10.4506C5.68512 10.3867 5.67251 10.3572 5.67371 10.2806C5.67328 10.2535 5.67328 10.2535 5.67285 10.2259C5.71947 10.0504 5.85826 10.0447 6.0155 10.0482Z" fill="#808284" stroke="black" stroke-width="0.1"/>
</g>
<defs>
<clipPath id="clip0_6398_9453">
<rect width="14" height="14" fill="white"/>
</clipPath>
</defs>
</svg>
