<svg xmlns="http://www.w3.org/2000/svg" width="73" height="72" viewBox="0 0 73 72" fill="none">
  <path fill-rule="evenodd" clip-rule="evenodd" d="M36.5701 62.1562C35.0234 62.1562 33.5564 61.5188 32.439 60.3615C31.3544 59.238 30.6995 57.7255 30.595 56.1024C30.5717 55.7406 30.8656 55.4295 31.2515 55.4077C31.6373 55.3857 31.969 55.6614 31.9924 56.0232C32.1665 58.7261 34.1774 60.8434 36.5703 60.8434C38.9632 60.8434 40.9739 58.7261 41.1481 56.0231C41.1715 55.6613 41.503 55.3849 41.889 55.4076C42.2749 55.4294 42.5688 55.7404 42.5455 56.1023C42.4409 57.7254 41.7861 59.2379 40.7015 60.3614C39.584 61.5188 38.1169 62.1562 36.5701 62.1562Z" fill="#898B8E"/>
  <path fill-rule="evenodd" clip-rule="evenodd" d="M57.7524 32.1446C57.2869 32.1446 56.9095 31.7672 56.9095 31.3017C56.9095 28.5534 56.3702 25.885 55.3069 23.371C54.2806 20.9447 52.8123 18.7664 50.9428 16.8969C50.6137 16.5676 50.6137 16.0339 50.9428 15.7048C51.2721 15.3757 51.8057 15.3757 52.1349 15.7048C54.1587 17.7285 55.7484 20.087 56.8596 22.7142C58.0113 25.4372 58.5953 28.3264 58.5953 31.3017C58.5953 31.7671 58.218 32.1446 57.7524 32.1446Z" fill="#CDCDCD"/>
  <path fill-rule="evenodd" clip-rule="evenodd" d="M15.3236 32.1446C14.8581 32.1446 14.4807 31.7672 14.4807 31.3017C14.4807 28.3266 15.0647 25.4373 16.2164 22.7142C17.3278 20.087 18.9173 17.7287 20.9411 15.7048C21.2702 15.3755 21.8039 15.3755 22.1332 15.7048C22.4624 16.034 22.4624 16.5676 22.1332 16.8969C20.2637 18.7664 18.7954 20.9445 17.7691 23.3709C16.7057 25.885 16.1665 28.5532 16.1665 31.3015C16.1665 31.7671 15.7893 32.1446 15.3236 32.1446Z" fill="#CDCDCD"/>
  <path fill-rule="evenodd" clip-rule="evenodd" d="M62.6374 32.1446C62.1719 32.1446 61.7945 31.7672 61.7945 31.3017C61.7945 27.896 61.1256 24.5875 59.806 21.468C58.5334 18.4594 56.7137 15.7594 54.3969 13.4428C54.0678 13.1135 54.0678 12.5798 54.3969 12.2507C54.7262 11.9215 55.2598 11.9215 55.589 12.2507C58.0599 14.7215 60.0011 17.6016 61.3585 20.8114C62.7663 24.1399 63.4802 27.6694 63.4802 31.3018C63.4803 31.7671 63.1029 32.1446 62.6374 32.1446Z" fill="#C5C2C2"/>
  <path fill-rule="evenodd" clip-rule="evenodd" d="M10.4388 32.1446C9.97324 32.1446 9.59583 31.7672 9.59583 31.3017C9.59583 27.6692 10.3097 24.1398 11.7175 20.8114C13.0749 17.6018 15.0162 14.7217 17.487 12.2507C17.8163 11.9216 18.3498 11.9216 18.6791 12.2507C19.0082 12.58 19.0082 13.1137 18.6791 13.4428C16.3625 15.7594 14.5426 18.4595 13.2702 21.468C11.9508 24.5876 11.2817 27.8961 11.2817 31.3017C11.2817 31.7671 10.9043 32.1446 10.4388 32.1446Z" fill="#C5C2C2"/>
  <path fill-rule="evenodd" clip-rule="evenodd" d="M55.81 56.0996H17.266C16.054 56.0996 14.9926 55.4128 14.4958 54.3072C13.9991 53.2016 14.1905 51.9519 14.9955 51.0458C17.8551 47.8267 19.4298 43.6825 19.4298 39.3767V31.3016C19.4298 28.9923 19.8823 26.7518 20.7746 24.642C21.6362 22.6046 22.8697 20.7752 24.4406 19.2042C26.0114 17.6334 27.841 16.3999 29.8783 15.5382C31.9881 14.6459 34.2286 14.1935 36.5379 14.1935C38.8472 14.1935 41.0876 14.646 43.1974 15.5382C45.2348 16.3999 47.0642 17.6334 48.6352 19.2042C50.206 20.7752 51.4395 22.6046 52.3012 24.642C53.1936 26.7517 53.6459 28.9923 53.6459 31.3016V39.3767C53.6459 43.6823 55.2207 47.8266 58.0804 51.0457C58.8853 51.9518 59.0768 53.2016 58.5801 54.307C58.0836 55.4128 57.0222 56.0996 55.81 56.0996ZM36.538 15.8794C28.0341 15.8794 21.1157 22.7978 21.1157 31.3016V39.3767C21.1157 44.0956 19.3897 48.6373 16.2558 52.1653C15.8923 52.5745 15.8092 53.117 16.0335 53.6163C16.2579 54.1156 16.7186 54.4137 17.2659 54.4137H55.8099C56.3572 54.4137 56.8179 54.1156 57.0422 53.6163C57.2666 53.117 57.1834 52.5746 56.8199 52.1653C53.686 48.6373 51.9602 44.0955 51.9602 39.3767V31.3016C51.9604 22.7978 45.0419 15.8794 36.538 15.8794Z" fill="#898B8E"/>
  <path fill-rule="evenodd" clip-rule="evenodd" d="M40.1275 16.277C39.662 16.277 39.2846 15.8995 39.2846 15.434V13.5669C39.2846 12.8332 38.9989 12.1435 38.4801 11.6249C37.9616 11.1061 37.2719 10.8205 36.538 10.8205C35.0237 10.8205 33.7916 12.0525 33.7916 13.5669V15.434C33.7916 15.8995 33.4142 16.277 32.9487 16.277C32.4832 16.277 32.1058 15.8995 32.1058 15.434V13.5669C32.1058 11.123 34.0941 9.13461 36.538 9.13461C37.7225 9.13461 38.8356 9.59574 39.6722 10.4331C40.5093 11.27 40.9703 12.3831 40.9703 13.567V15.4342C40.9704 15.8995 40.593 16.277 40.1275 16.277Z" fill="#898B8E"/>
  <line x1="22.0938" y1="46.6094" x2="30.7969" y2="46.6094" stroke="#CDCDCD" stroke-linecap="round"/>
  <path fill-rule="evenodd" clip-rule="evenodd" d="M20.5 56.5C20.5 56.2239 20.7239 56 21 56H49C49.2761 56 49.5 56.2239 49.5 56.5C49.5 56.7761 49.2761 57 49 57H21C20.7239 57 20.5 56.7761 20.5 56.5Z" fill="#F9F9F9"/>
  <line x1="32.7812" y1="46.6094" x2="35.1562" y2="46.6094" stroke="#CDCDCD" stroke-linecap="round"/>
  <path d="M38.2332 34.6154C38.5205 28.2939 36.9162 20.2482 36.0781 17.0156C47.9311 17.0156 51.1637 26.7135 50.4453 34.6154C49.7269 42.5174 51.882 47.5459 53.3187 49.701C54.4681 51.425 54.2766 52.8139 54.0371 53.2928H41.1066C40.3883 52.5744 37.874 42.5174 38.2332 34.6154Z" fill="#F3F3F3"/>
</svg>