<svg xmlns="http://www.w3.org/2000/svg" width="24" height="24" viewBox="0 0 24 24" fill="none">
  <path d="M19.2408 9.6H19.164C19.0514 9.59901 18.9418 9.56413 18.8493 9.49992C18.7568 9.43571 18.6859 9.34513 18.6456 9.24C18.6032 9.13848 18.592 9.02665 18.6134 8.91874C18.6347 8.81082 18.6877 8.71171 18.7656 8.634L18.8202 8.5794C19.1493 8.24901 19.3341 7.80165 19.3341 7.3353C19.3341 6.86895 19.1493 6.42159 18.8202 6.0912L17.9136 5.1852C17.5835 4.85581 17.1362 4.67083 16.6698 4.67083C16.2034 4.67083 15.7561 4.85581 15.426 5.1852L15.3714 5.2398C15.291 5.31727 15.1897 5.36957 15.0799 5.39028C14.9702 5.411 14.8568 5.39923 14.7536 5.35641C14.6505 5.3136 14.5621 5.24161 14.4993 5.14927C14.4364 5.05693 14.4019 4.94826 14.4 4.8366V4.7592C14.3995 4.29278 14.214 3.84559 13.8842 3.51578C13.5544 3.18597 13.1072 3.00048 12.6408 3H11.3592C10.8928 3.00048 10.4456 3.18597 10.1158 3.51578C9.78597 3.84559 9.60048 4.29278 9.6 4.7592V4.8366C9.59708 4.94746 9.56208 5.0551 9.49924 5.14648C9.43641 5.23786 9.34843 5.30907 9.24596 5.35148C9.14349 5.39389 9.03092 5.40568 8.92188 5.38544C8.81284 5.36519 8.71202 5.31377 8.6316 5.2374L8.58 5.1828C8.24986 4.85341 7.80255 4.66843 7.3362 4.66843C6.86985 4.66843 6.42254 4.85341 6.0924 5.1828L5.1828 6.0888C4.85367 6.41919 4.66887 6.86655 4.66887 7.3329C4.66887 7.79925 4.85367 8.24661 5.1828 8.577L5.2374 8.6316C5.31603 8.71205 5.36866 8.81428 5.38846 8.92502C5.40825 9.03576 5.39429 9.14989 5.3484 9.2526C5.30723 9.3549 5.23648 9.4426 5.14521 9.50448C5.05393 9.56636 4.94627 9.59962 4.836 9.6H4.7592C4.29278 9.60048 3.84559 9.78597 3.51578 10.1158C3.18597 10.4456 3.00048 10.8928 3 11.3592V12.6408C3.00048 13.1072 3.18597 13.5544 3.51578 13.8842C3.84559 14.214 4.29278 14.3995 4.7592 14.4H4.836C4.94857 14.401 5.05823 14.4359 5.1507 14.5001C5.24316 14.5643 5.31415 14.6549 5.3544 14.76C5.39678 14.8615 5.408 14.9734 5.38663 15.0813C5.36526 15.1892 5.31227 15.2883 5.2344 15.366L5.1798 15.4206C4.85067 15.751 4.66587 16.1983 4.66587 16.6647C4.66587 17.1311 4.85067 17.5784 5.1798 17.9088L6.0858 18.8142C6.41588 19.1439 6.86335 19.3291 7.3299 19.3291C7.79645 19.3291 8.24392 19.1439 8.574 18.8142L8.6286 18.7596C8.70909 18.681 8.81132 18.6285 8.92204 18.6087C9.03276 18.5889 9.14688 18.6028 9.2496 18.6486C9.3519 18.6896 9.43962 18.7602 9.50152 18.8514C9.56341 18.9426 9.59666 19.0502 9.597 19.1604V19.2378C9.59684 19.4693 9.64232 19.6985 9.73082 19.9124C9.81932 20.1262 9.94912 20.3205 10.1128 20.4842C10.2765 20.6479 10.4708 20.7777 10.6846 20.8662C10.8985 20.9547 11.1277 21.0002 11.3592 21H12.6408C13.1072 20.9995 13.5544 20.814 13.8842 20.4842C14.214 20.1544 14.3995 19.7072 14.4 19.2408V19.1634C14.4029 19.0525 14.4379 18.9449 14.5008 18.8535C14.5636 18.7621 14.6516 18.6909 14.754 18.6485C14.8565 18.6061 14.9691 18.5943 15.0781 18.6146C15.1872 18.6348 15.288 18.6862 15.3684 18.7626L15.423 18.8172C15.7531 19.1466 16.2004 19.3316 16.6668 19.3316C17.1332 19.3316 17.5805 19.1466 17.9106 18.8172L18.8172 17.9118C19.1463 17.5814 19.3311 17.1341 19.3311 16.6677C19.3311 16.2013 19.1463 15.754 18.8172 15.4236L18.7626 15.369C18.684 15.2886 18.6313 15.1863 18.6115 15.0756C18.5918 14.9648 18.6057 14.8507 18.6516 14.748C18.6927 14.6456 18.7634 14.5578 18.8547 14.4958C18.946 14.4338 19.0537 14.4004 19.164 14.4H19.2408C19.7072 14.3995 20.1544 14.214 20.4842 13.8842C20.814 13.5544 20.9995 13.1072 21 12.6408V11.3592C20.9995 10.8928 20.814 10.4456 20.4842 10.1158C20.1544 9.78597 19.7072 9.60048 19.2408 9.6ZM19.8 12.6408C19.7998 12.7891 19.7409 12.9312 19.636 13.036C19.5312 13.1409 19.3891 13.1998 19.2408 13.2H19.164C18.8158 13.203 18.4762 13.3083 18.1875 13.503C17.8988 13.6977 17.6738 13.973 17.5405 14.2947C17.4073 14.6164 17.3716 14.9702 17.4381 15.312C17.5045 15.6538 17.6701 15.9685 17.9142 16.2168L17.9682 16.2714C18.073 16.3764 18.1318 16.5187 18.1318 16.6671C18.1318 16.8155 18.073 16.9578 17.9682 17.0628L17.0616 17.9682C16.9567 18.0731 16.8145 18.132 16.6662 18.132C16.5179 18.132 16.3757 18.0731 16.2708 17.9682L16.2168 17.9136C15.9684 17.6698 15.6537 17.5045 15.312 17.4382C14.9703 17.3719 14.6166 17.4076 14.2951 17.5408C13.9735 17.674 13.6982 17.8989 13.5035 18.1874C13.3088 18.4759 13.2032 18.8153 13.2 19.1634V19.2408C13.1998 19.3891 13.1409 19.5312 13.036 19.636C12.9312 19.7409 12.7891 19.7998 12.6408 19.8H11.3592C11.2109 19.7998 11.0688 19.7409 10.964 19.636C10.8591 19.5312 10.8002 19.3891 10.8 19.2408V19.1634C10.7983 18.8146 10.6937 18.4741 10.4992 18.1846C10.3047 17.8951 10.029 17.6695 9.70682 17.5361C9.38458 17.4026 9.03012 17.3673 8.6879 17.4346C8.34568 17.5019 8.03095 17.6687 7.7832 17.9142L7.7286 17.9688C7.62358 18.0734 7.48141 18.1321 7.3332 18.1321C7.185 18.1321 7.04282 18.0734 6.9378 17.9688L6.0318 17.0634C5.92705 16.9584 5.86822 16.8161 5.86822 16.6677C5.86822 16.5193 5.92705 16.3771 6.0318 16.272L6.0864 16.2174C6.33072 15.9691 6.49649 15.6543 6.56303 15.3123C6.62958 14.9704 6.59394 14.6164 6.46058 14.2946C6.32721 13.9727 6.10202 13.6973 5.81311 13.5026C5.5242 13.308 5.18436 13.2027 4.836 13.2H4.7592C4.61094 13.1998 4.4688 13.1409 4.36396 13.036C4.25913 12.9312 4.20016 12.7891 4.2 12.6408V11.3592C4.20016 11.2109 4.25913 11.0688 4.36396 10.964C4.4688 10.8591 4.61094 10.8002 4.7592 10.8H4.836C5.18419 10.797 5.5238 10.6917 5.81249 10.497C6.10119 10.3023 6.3262 10.027 6.45946 9.70528C6.59273 9.3836 6.62836 9.0298 6.56191 8.688C6.49547 8.34621 6.32988 8.03153 6.0858 7.7832L6.0318 7.7286C5.92709 7.62365 5.86828 7.48145 5.86828 7.3332C5.86828 7.18495 5.92709 7.04275 6.0318 6.9378L6.9378 6.0312C7.04267 5.92634 7.1849 5.86743 7.3332 5.86743C7.4815 5.86743 7.62373 5.92634 7.7286 6.0312L7.7826 6.0858C8.03097 6.32976 8.34562 6.49527 8.68737 6.56169C9.02912 6.62811 9.38286 6.59252 9.70453 6.45935C10.0262 6.32618 10.3016 6.10132 10.4964 5.81276C10.6912 5.52421 10.7968 5.18473 10.8 4.8366V4.7592C10.8002 4.61094 10.8591 4.4688 10.964 4.36396C11.0688 4.25913 11.2109 4.20016 11.3592 4.2H12.6408C12.7891 4.20016 12.9312 4.25913 13.036 4.36396C13.1409 4.4688 13.1998 4.61094 13.2 4.7592V4.8366C13.2031 5.18473 13.3085 5.52426 13.5033 5.81287C13.698 6.10147 13.9733 6.32639 14.295 6.45958C14.6167 6.59278 14.9704 6.62836 15.3121 6.56189C15.6539 6.49542 15.9685 6.32985 16.2168 6.0858L16.2714 6.0312C16.3763 5.92634 16.5185 5.86743 16.6668 5.86743C16.8151 5.86743 16.9573 5.92634 17.0622 6.0312L17.9682 6.9378C18.0729 7.04275 18.1317 7.18495 18.1317 7.3332C18.1317 7.48145 18.0729 7.62365 17.9682 7.7286L17.9136 7.7832C17.6695 8.03156 17.5039 8.3463 17.4375 8.68815C17.371 9.03 17.4067 9.38385 17.5401 9.70556C17.6734 10.0273 17.8985 10.3026 18.1873 10.4972C18.4761 10.6919 18.8158 10.7972 19.164 10.8H19.2408C19.3891 10.8002 19.5312 10.8591 19.636 10.964C19.7409 11.0688 19.7998 11.2109 19.8 11.3592V12.6408Z" fill="black"/>
  <path d="M12 7.80078C11.1693 7.80078 10.3573 8.04711 9.66659 8.50861C8.97591 8.97011 8.43758 9.62606 8.1197 10.3935C7.80181 11.161 7.71863 12.0054 7.88069 12.8202C8.04275 13.6349 8.44276 14.3832 9.03014 14.9706C9.61752 15.558 10.3659 15.958 11.1806 16.1201C11.9953 16.2821 12.8398 16.199 13.6073 15.8811C14.3747 15.5632 15.0307 15.0249 15.4922 14.3342C15.9537 13.6435 16.2 12.8315 16.2 12.0008C16.1987 10.8873 15.7558 9.81971 14.9684 9.03234C14.1811 8.24496 13.1135 7.80205 12 7.80078ZM12 15.0008C11.4066 15.0008 10.8266 14.8248 10.3333 14.4952C9.83993 14.1655 9.45541 13.697 9.22835 13.1488C9.00129 12.6007 8.94188 11.9975 9.05763 11.4155C9.17339 10.8336 9.45911 10.299 9.87867 9.87946C10.2982 9.4599 10.8328 9.17418 11.4147 9.05843C11.9967 8.94267 12.5999 9.00208 13.148 9.22914C13.6962 9.45621 14.1648 9.84072 14.4944 10.3341C14.824 10.8274 15 11.4074 15 12.0008C14.999 12.7961 14.6827 13.5586 14.1203 14.1211C13.5579 14.6835 12.7953 14.9998 12 15.0008Z" fill="black"/>
</svg>