<svg xmlns="http://www.w3.org/2000/svg" width="24" height="24" viewBox="0 0 24 24" fill="none">
  <path fill-rule="evenodd" clip-rule="evenodd" d="M15.1481 6.55556C14.4322 6.55556 13.8518 7.13593 13.8518 7.85186C13.8518 8.56778 14.4322 9.14816 15.1481 9.14816C15.864 9.14816 16.4444 8.56778 16.4444 7.85186C16.4444 7.13593 15.864 6.55556 15.1481 6.55556ZM12.2963 7.85186C12.2963 6.27682 13.5731 5 15.1481 5C16.7232 5 18 6.27682 18 7.85186C18 9.4269 16.7232 10.7037 15.1481 10.7037C13.5731 10.7037 12.2963 9.4269 12.2963 7.85186Z" fill="#2B2A28"/>
  <path fill-rule="evenodd" clip-rule="evenodd" d="M6.85186 11.3954C6.13593 11.3954 5.55556 11.9758 5.55556 12.6917C5.55556 13.4076 6.13593 13.988 6.85186 13.988C7.56778 13.988 8.14816 13.4076 8.14816 12.6917C8.14816 11.9758 7.56778 11.3954 6.85186 11.3954ZM4 12.6917C4 11.1167 5.27682 9.83984 6.85186 9.83984C8.4269 9.83984 9.70372 11.1167 9.70372 12.6917C9.70372 14.2667 8.4269 15.5436 6.85186 15.5436C5.27682 15.5436 4 14.2667 4 12.6917Z" fill="#2B2A28"/>
  <path fill-rule="evenodd" clip-rule="evenodd" d="M15.1481 16.2352C14.4322 16.2352 13.8518 16.8156 13.8518 17.5315C13.8518 18.2475 14.4322 18.8278 15.1481 18.8278C15.864 18.8278 16.4444 18.2475 16.4444 17.5315C16.4444 16.8156 15.864 16.2352 15.1481 16.2352ZM12.2963 17.5315C12.2963 15.9565 13.5731 14.6797 15.1481 14.6797C16.7232 14.6797 18 15.9565 18 17.5315C18 19.1066 16.7232 20.3834 15.1481 20.3834C13.5731 20.3834 12.2963 19.1066 12.2963 17.5315Z" fill="#2B2A28"/>
  <path fill-rule="evenodd" clip-rule="evenodd" d="M7.97046 13.3433C8.18673 12.9722 8.66292 12.8467 9.03406 13.0629L13.756 15.8145C14.1272 16.0308 14.2527 16.507 14.0365 16.8781C13.8202 17.2493 13.344 17.3748 12.9729 17.1586L8.25087 14.4069C7.87974 14.1907 7.75419 13.7145 7.97046 13.3433Z" fill="#2B2A28"/>
  <path fill-rule="evenodd" clip-rule="evenodd" d="M14.0293 8.50307C14.2458 8.87407 14.1206 9.35034 13.7496 9.56685L9.03449 12.3185C8.66349 12.535 8.18722 12.4097 7.97071 12.0387C7.7542 11.6677 7.87944 11.1915 8.25045 10.9749L12.9655 8.22334C13.3365 8.00683 13.8128 8.13207 14.0293 8.50307Z" fill="#2B2A28"/>
</svg>