<svg width="16" height="16" viewBox="0 0 16 16" fill="none" xmlns="http://www.w3.org/2000/svg">
<path d="M7.98026 0.461001C8.0027 0.46098 8.02514 0.460959 8.04826 0.460938C8.38498 0.461441 8.7039 0.475631 9.03104 0.562564C9.05143 0.567927 9.07182 0.573289 9.09282 0.578815C10.1961 0.876224 11.1093 1.56187 11.6873 2.55085C11.8732 2.8795 12.0207 3.21504 12.1189 3.58014C12.125 3.60259 12.1311 3.62503 12.1374 3.64816C12.2396 4.05451 12.2589 4.45855 12.2559 4.87494C12.2558 4.92402 12.2557 4.97309 12.2556 5.02217C12.2554 5.14962 12.2548 5.27707 12.2541 5.40453C12.2534 5.53527 12.2532 5.66601 12.2528 5.79676C12.2522 6.05203 12.2511 6.30729 12.2498 6.56256C12.2799 6.56656 12.31 6.57056 12.341 6.57469C12.3804 6.58009 12.4199 6.58549 12.4605 6.59106C12.4996 6.59635 12.5387 6.60164 12.579 6.60709C12.9095 6.66196 13.2056 6.85918 13.406 7.12506C13.5835 7.41553 13.6657 7.69136 13.6644 8.0289C13.6645 8.05588 13.6647 8.08287 13.6648 8.11066C13.6652 8.20049 13.6652 8.29032 13.6651 8.38015C13.6653 8.4448 13.6655 8.50945 13.6658 8.5741C13.6663 8.74934 13.6665 8.92457 13.6665 9.09981C13.6665 9.20943 13.6667 9.31905 13.6668 9.42867C13.6674 9.81148 13.6677 10.1943 13.6676 10.5771C13.6676 10.9333 13.6682 11.2895 13.6692 11.6457C13.67 11.952 13.6704 12.2583 13.6703 12.5647C13.6703 12.7474 13.6705 12.9301 13.6712 13.1128C13.6718 13.2848 13.6718 13.4568 13.6713 13.6288C13.6713 13.6916 13.6714 13.7545 13.6718 13.8174C13.6747 14.3378 13.6271 14.7593 13.2536 15.1562C12.9369 15.4537 12.585 15.5409 12.1632 15.5397C12.1263 15.5398 12.0894 15.54 12.0513 15.5401C11.9492 15.5404 11.8471 15.5405 11.745 15.5404C11.6347 15.5404 11.5244 15.5407 11.4141 15.541C11.1982 15.5415 10.9823 15.5417 10.7663 15.5418C10.5907 15.5418 10.4151 15.5419 10.2395 15.5421C9.74118 15.5427 9.24288 15.5429 8.74457 15.5429C8.71773 15.5429 8.69088 15.5429 8.66322 15.5429C8.6229 15.5429 8.6229 15.5429 8.58176 15.5429C8.14635 15.5429 7.71093 15.5435 7.27552 15.5443C6.82802 15.5452 6.38053 15.5457 5.93304 15.5456C5.68197 15.5456 5.43091 15.5458 5.17984 15.5464C4.96603 15.547 4.75223 15.5471 4.53842 15.5467C4.42945 15.5465 4.32048 15.5465 4.21151 15.5471C4.09307 15.5475 3.97465 15.5472 3.85621 15.5468C3.82219 15.5471 3.78817 15.5474 3.75312 15.5477C3.34716 15.5441 3.01415 15.4066 2.71854 15.1288C2.44464 14.8367 2.33364 14.4903 2.33518 14.0962C2.33504 14.0692 2.3349 14.0423 2.33475 14.0145C2.33436 13.9246 2.33441 13.8348 2.33446 13.745C2.33427 13.6803 2.33406 13.6157 2.33382 13.551C2.33327 13.3758 2.33313 13.2006 2.33309 13.0253C2.33304 12.9157 2.33291 12.8061 2.33274 12.6965C2.33216 12.3136 2.33191 11.9308 2.33196 11.548C2.332 11.1918 2.33134 10.8356 2.33035 10.4794C2.32953 10.1731 2.3292 9.86679 2.32924 9.56046C2.32925 9.37774 2.32908 9.19502 2.32841 9.0123C2.3278 8.84031 2.3278 8.66834 2.32826 8.49635C2.32832 8.43348 2.32818 8.37061 2.3278 8.30774C2.32518 7.84345 2.35134 7.43917 2.65604 7.06256C2.67098 7.04339 2.68593 7.02421 2.70133 7.00446C2.91964 6.7559 3.21914 6.63403 3.53921 6.59092C3.57864 6.58554 3.61806 6.58016 3.65868 6.57461C3.68875 6.57063 3.71881 6.56666 3.74979 6.56256C3.74958 6.53616 3.74937 6.50975 3.74916 6.48254C3.74726 6.23072 3.74584 5.9789 3.74493 5.72708C3.74445 5.59769 3.74379 5.4683 3.74272 5.33892C3.73149 3.95222 3.96368 2.72718 4.96439 1.69074C5.77171 0.879363 6.84173 0.461959 7.98026 0.461001ZM5.65604 2.40631C5.62589 2.43302 5.62589 2.43302 5.59513 2.46027C5.04284 2.96235 4.81974 3.72916 4.71854 4.43756C4.71854 5.13881 4.71854 5.84006 4.71854 6.56256C6.88416 6.56256 9.04979 6.56256 11.281 6.56256C11.3716 4.21216 11.3716 4.21216 10.3045 2.35358C9.65188 1.70784 8.81123 1.42319 7.90794 1.4262C7.01988 1.44029 6.28422 1.79414 5.65604 2.40631ZM3.39041 7.70319C3.30609 7.84372 3.30765 7.96789 3.30769 8.12689C3.30757 8.15284 3.30746 8.1788 3.30734 8.20555C3.307 8.29285 3.30688 8.38014 3.30676 8.46744C3.30656 8.52991 3.30635 8.59237 3.30614 8.65484C3.30559 8.82478 3.30526 8.99472 3.305 9.16466C3.30484 9.27081 3.30465 9.37696 3.30446 9.4831C3.30386 9.81513 3.30342 10.1472 3.30316 10.4792C3.30285 10.8626 3.30203 11.246 3.30077 11.6294C3.29982 11.9257 3.29936 12.2219 3.29926 12.5182C3.29918 12.6952 3.2989 12.8722 3.29812 13.0492C3.29739 13.2157 3.29726 13.3822 3.29758 13.5487C3.29759 13.6098 3.2974 13.6709 3.29697 13.732C3.29641 13.8155 3.29664 13.8989 3.29705 13.9824C3.2967 14.0065 3.29636 14.0306 3.29601 14.0554C3.29805 14.2272 3.33395 14.3299 3.43729 14.4688C3.60096 14.5919 3.7818 14.5758 3.97805 14.5747C4.01379 14.5748 4.04952 14.575 4.08634 14.5752C4.20617 14.5756 4.32599 14.5754 4.44583 14.5752C4.53171 14.5753 4.61758 14.5756 4.70346 14.5758C4.91256 14.5764 5.12166 14.5764 5.33076 14.5762C5.50072 14.5761 5.67069 14.5762 5.84065 14.5763C5.87695 14.5764 5.87695 14.5764 5.91397 14.5764C5.96313 14.5764 6.01228 14.5765 6.06144 14.5765C6.52233 14.577 6.98323 14.5768 7.44412 14.5764C7.8657 14.5761 8.28728 14.5765 8.70886 14.5773C9.14184 14.578 9.57481 14.5783 10.0078 14.5781C10.2508 14.578 10.4939 14.5781 10.7369 14.5786C10.9438 14.5791 11.1507 14.5791 11.3576 14.5786C11.4631 14.5783 11.5687 14.5783 11.6742 14.5787C11.7887 14.5791 11.9031 14.5788 12.0176 14.5782C12.0508 14.5785 12.0841 14.5788 12.1184 14.5791C12.3138 14.5772 12.438 14.5602 12.5935 14.4376C12.6946 14.2938 12.7007 14.1574 12.6992 13.9868C12.6993 13.9607 12.6995 13.9346 12.6996 13.9078C12.7 13.8207 12.6997 13.7336 12.6994 13.6465C12.6995 13.584 12.6997 13.5215 12.6999 13.459C12.7003 13.2893 12.7002 13.1196 12.6999 12.9499C12.6996 12.7723 12.6999 12.5948 12.7 12.4172C12.7002 12.119 12.7 11.8207 12.6995 11.5225C12.699 11.1778 12.6992 10.833 12.6997 10.4882C12.7001 10.1922 12.7002 9.89619 12.6999 9.60016C12.6998 9.42337 12.6998 9.24658 12.7001 9.06978C12.7003 8.90357 12.7001 8.73736 12.6996 8.57115C12.6995 8.51015 12.6995 8.44916 12.6997 8.38816C12.7 8.30489 12.6997 8.22164 12.6992 8.13837C12.6994 8.11424 12.6996 8.09011 12.6998 8.06525C12.6982 7.9162 12.6733 7.81373 12.5935 7.68756C12.434 7.55926 12.2992 7.52751 12.0986 7.52721C12.0689 7.52709 12.0391 7.52697 12.0085 7.52684C11.976 7.52687 11.9436 7.5269 11.9102 7.52693C11.8756 7.52683 11.8409 7.52674 11.8052 7.52664C11.6889 7.52637 11.5726 7.52633 11.4562 7.52628C11.3729 7.52613 11.2896 7.52598 11.2063 7.52581C10.9798 7.52538 10.7533 7.5252 10.5268 7.52506C10.3853 7.52497 10.2438 7.52484 10.1024 7.5247C9.71049 7.52432 9.31862 7.524 8.92674 7.52389C8.90167 7.52388 8.8766 7.52388 8.85077 7.52387C8.81308 7.52386 8.81308 7.52386 8.77462 7.52385C8.7237 7.52383 8.67278 7.52382 8.62186 7.52381C8.5966 7.5238 8.57134 7.52379 8.54532 7.52379C8.13611 7.52366 7.7269 7.52312 7.31768 7.52239C6.89735 7.52165 6.47701 7.52126 6.05668 7.52122C5.82076 7.52119 5.58484 7.52101 5.34892 7.52045C5.14802 7.51996 4.94712 7.51981 4.74622 7.52006C4.64378 7.52019 4.54134 7.52011 4.4389 7.51972C4.32768 7.51932 4.21647 7.5195 4.10525 7.51983C4.0731 7.51958 4.04096 7.51933 4.00784 7.51907C3.78091 7.52062 3.55731 7.53629 3.39041 7.70319Z" fill="#D90506"/>
<path d="M8.80866 9.15399C9.1114 9.36877 9.30323 9.64542 9.40631 9.99969C9.47285 10.4778 9.41317 10.8947 9.11725 11.2907C8.94398 11.46 8.74764 11.5805 8.53131 11.6872C8.53086 11.7179 8.5304 11.7486 8.52993 11.7803C8.5281 11.8954 8.52569 12.0106 8.52311 12.1257C8.52208 12.1753 8.5212 12.2249 8.52049 12.2745C8.51085 12.9264 8.51085 12.9264 8.32819 13.1091C8.172 13.2028 8.02147 13.2066 7.84381 13.1872C7.72491 13.1466 7.64374 13.0865 7.56647 12.986C7.49707 12.828 7.49793 12.6786 7.50226 12.5086C7.5026 12.4615 7.50284 12.4145 7.50299 12.3674C7.50324 12.2938 7.50397 12.2203 7.50638 12.1467C7.51124 11.9875 7.51063 11.8417 7.46881 11.6872C7.3654 11.5875 7.25906 11.5462 7.12506 11.4997C6.81178 11.2828 6.65705 10.9507 6.57037 10.5895C6.53345 10.165 6.61593 9.7827 6.87506 9.43719C7.37765 8.87876 8.16763 8.7493 8.80866 9.15399ZM7.65631 10.0309C7.5723 10.141 7.5396 10.2366 7.53131 10.3747C7.56163 10.5475 7.614 10.6389 7.75006 10.7497C7.89138 10.8361 8.03163 10.8152 8.18756 10.7809C8.31852 10.724 8.3775 10.6601 8.43756 10.5309C8.49177 10.3606 8.45315 10.2184 8.37506 10.0622C8.22799 9.91871 8.1229 9.89485 7.92328 9.89715C7.80657 9.91006 7.74258 9.95309 7.65631 10.0309Z" fill="#D90506"/>
</svg>
