<svg width="32" height="32" viewBox="0 0 32 32" fill="none" xmlns="http://www.w3.org/2000/svg">
<path d="M30.9609 26.1735C30.659 26.0063 30.2787 26.1153 30.1113 26.4172C29.2072 28.0489 27.4882 29.0625 25.625 29.0625H20.6301C20.9795 28.8221 21.3092 28.5492 21.6137 28.2447C23.2129 26.6455 23.9519 24.3549 23.5906 22.1174C23.5477 21.8514 23.3392 21.6429 23.0732 21.6C21.4952 21.3451 19.8909 21.6384 18.5211 22.3941C18.1092 20.9776 17.2653 19.7334 16.0842 18.8125H25.625C27.532 18.8125 29.2699 19.8611 30.1608 21.5492C30.2728 21.7615 30.4897 21.8827 30.7141 21.8827C30.8124 21.8827 30.9122 21.8594 31.0052 21.8103C31.3106 21.6493 31.4274 21.2712 31.2663 20.9659C30.424 19.3697 28.9722 18.234 27.2822 17.781C28.3292 16.9323 29 15.637 29 14.1875C29 11.6372 26.9252 9.5625 24.375 9.5625H23.2351C23.7887 8.92581 24.125 8.09544 24.125 7.1875C24.125 5.18869 22.4988 3.5625 20.5 3.5625H17.334C15.3352 3.5625 13.709 5.18869 13.709 7.1875C13.709 8.09544 14.0453 8.92581 14.5989 9.5625H13.6599C12.4844 9.5625 11.3731 10.0025 10.5241 10.7876L9.12469 9.02775C9.00619 8.87875 8.82638 8.79194 8.63606 8.79175C8.63587 8.79175 8.63569 8.79175 8.6355 8.79175C8.44544 8.79175 8.26562 8.87825 8.14706 9.02687L6.11912 11.5769C5.18769 12.7483 5.1965 14.3858 6.0905 15.5418H4.95169C4.8515 15.5418 4.75275 15.5659 4.66387 15.6121C1.78706 17.1045 0 20.0432 0 23.2812C0 24.6618 0.31625 25.9812 0.939937 27.2027C1.5345 28.3673 2.40256 29.3993 3.45037 30.187C3.55862 30.2685 3.6905 30.3125 3.826 30.3125H25.625C27.9424 30.3125 30.0805 29.0521 31.2047 27.0231C31.372 26.7212 31.2629 26.3408 30.9609 26.1735ZM13.1779 24.4608C14.3843 25.6671 14.9959 27.3519 14.8604 29.0432C13.1696 29.1784 11.4843 28.5672 10.2779 27.3608C9.07162 26.1544 8.46 24.4696 8.5955 22.7783C10.2864 22.6429 11.9716 23.2544 13.1779 24.4608ZM22.4122 22.7783C22.5477 24.4697 21.9361 26.1545 20.7297 27.3608C19.5234 28.5671 17.8394 29.1789 16.1473 29.0432C16.0119 27.3518 16.6234 25.6671 17.8297 24.4608C19.0361 23.2544 20.7204 22.6431 22.4122 22.7783ZM17.4211 23.1437C17.2569 23.2802 17.0981 23.4246 16.9458 23.5769C16.3351 24.1877 15.8503 24.8994 15.5039 25.6704C15.1574 24.8994 14.6726 24.1877 14.0619 23.5769C13.9091 23.4241 13.7498 23.2793 13.585 23.1424C13.8554 21.8916 14.5244 20.7792 15.5031 19.9501C16.4826 20.7798 17.151 21.8924 17.4211 23.1437ZM14.959 7.1875C14.959 5.87794 16.0244 4.8125 17.334 4.8125H20.5C21.8096 4.8125 22.875 5.87794 22.875 7.1875C22.875 8.49706 21.8096 9.5625 20.5 9.5625H17.334C16.0244 9.5625 14.959 8.49706 14.959 7.1875ZM24.375 10.8125C26.2359 10.8125 27.75 12.3266 27.75 14.1875C27.75 16.0484 26.2359 17.5625 24.375 17.5625H15.1051C14.4019 16.7673 13.5564 16.1045 12.607 15.6119C12.5181 15.5658 12.4193 15.5417 12.3192 15.5417H11.1805C12.0247 14.45 12.0789 12.9293 11.2978 11.7769C11.9261 11.1599 12.7676 10.8125 13.6599 10.8125H24.375ZM7.09744 12.3549L8.63544 10.4208L10.1734 12.3549C10.7956 13.1373 10.7318 14.2604 10.0248 14.9673C9.80262 15.1895 9.53994 15.3468 9.26044 15.4401V13.4906C9.26044 13.1455 8.98056 12.8656 8.63544 12.8656C8.29031 12.8656 8.01044 13.1455 8.01044 13.4906V15.4401C7.73088 15.3468 7.46812 15.1894 7.246 14.9673C6.539 14.2604 6.47519 13.1373 7.09744 12.3549ZM1.25 23.2812C1.25 20.5616 2.724 18.0889 5.10737 16.7917H12.1634C13.1584 17.3337 14.0145 18.0965 14.6679 19.0199C13.6204 19.9161 12.8676 21.0811 12.4856 22.3935C11.1161 21.6382 9.51225 21.3451 7.9345 21.6C7.66856 21.643 7.46006 21.8514 7.41712 22.1173C7.05575 24.3549 7.79475 26.6455 9.394 28.2447C9.69844 28.5492 10.0282 28.8221 10.3776 29.0625H4.03931C2.26381 27.6516 1.25 25.5562 1.25 23.2812Z" fill="#D90506"/>
<path d="M5.12054 6.8705C4.87648 7.11456 4.87648 7.51031 5.12054 7.75444C5.2426 7.87644 5.40248 7.9375 5.56248 7.9375C5.72248 7.9375 5.88235 7.87644 6.00442 7.75444C6.93735 6.82144 6.93735 5.3035 6.00442 4.3705C5.55885 3.92494 5.55885 3.19994 6.00442 2.75444C6.24848 2.51037 6.24848 2.11462 6.00442 1.8705C5.76029 1.6265 5.36467 1.6265 5.12048 1.8705C4.18754 2.8035 4.18754 4.32144 5.12048 5.25444C5.5661 5.7 5.5661 6.425 5.12054 6.8705Z" fill="#D90506"/>
<path d="M1.78608 9.37056C1.54202 9.61462 1.54202 10.0104 1.78608 10.2545C1.90815 10.3765 2.06808 10.4376 2.22802 10.4376C2.38796 10.4376 2.5479 10.3765 2.66996 10.2545C3.6029 9.3215 3.6029 7.80356 2.66996 6.87063C2.2244 6.425 2.2244 5.70006 2.66996 5.25444C2.91402 5.01037 2.91402 4.61469 2.6699 4.37056C2.4259 4.12644 2.03008 4.1265 1.78602 4.37062C0.853146 5.30356 0.853146 6.8215 1.78602 7.7545C2.23165 8.20006 2.23165 8.92506 1.78608 9.37056Z" fill="#D90506"/>
<path d="M31.8168 23.5581C31.7006 23.4419 31.5394 23.375 31.375 23.375C31.2106 23.375 31.0494 23.4418 30.9331 23.5581C30.8169 23.6744 30.75 23.8357 30.75 24.0001C30.75 24.1644 30.8168 24.3257 30.9331 24.4419C31.0494 24.5581 31.2106 24.6251 31.375 24.6251C31.5394 24.6251 31.7006 24.5582 31.8168 24.4419C31.9331 24.3257 32 24.1644 32 24.0001C32 23.8357 31.9331 23.6744 31.8168 23.5581Z" fill="#D90506"/>
</svg>
