<svg width="49" height="32" viewBox="0 0 49 32" fill="none" xmlns="http://www.w3.org/2000/svg">
<path d="M1.52021 28.93C1.4074 28.93 1.30578 28.9496 1.21535 28.9887C1.12584 29.0269 1.0494 29.0829 0.985999 29.1565C0.923535 29.2292 0.875521 29.3173 0.841958 29.4208C0.808395 29.5243 0.791614 29.6409 0.791614 29.7704C0.791614 29.942 0.818184 30.0912 0.871326 30.2179C0.925399 30.3438 1.00558 30.4412 1.11186 30.5102C1.21908 30.5792 1.35286 30.6137 1.51322 30.6137C1.60458 30.6137 1.69035 30.6063 1.77053 30.5913C1.85164 30.5755 1.93042 30.5559 2.00687 30.5326V30.7396C1.93229 30.7675 1.85397 30.7881 1.77193 30.8011C1.68989 30.8151 1.59246 30.8221 1.47965 30.8221C1.27175 30.8221 1.09788 30.7792 0.95803 30.6934C0.819117 30.6067 0.714699 30.4846 0.644776 30.327C0.575786 30.1695 0.54129 29.9835 0.54129 29.769C0.54129 29.6143 0.562733 29.473 0.605619 29.3453C0.649438 29.2167 0.712834 29.1057 0.795809 29.0125C0.879716 28.9193 0.98227 28.8475 1.10347 28.7971C1.2256 28.7458 1.36545 28.7202 1.52301 28.7202C1.62649 28.7202 1.72625 28.7305 1.82228 28.751C1.9183 28.7715 2.00501 28.8008 2.08239 28.8391L1.98729 29.0405C1.92203 29.0106 1.85024 28.985 1.77193 28.9635C1.69455 28.9412 1.61064 28.93 1.52021 28.93Z" fill="#00040A"/>
<path d="M2.95139 30.7941V28.7496H3.18913V30.5815H4.09672V30.7941H2.95139Z" fill="#00040A"/>
<path d="M4.94894 30.7941V28.7496H5.18668V30.7941H4.94894Z" fill="#00040A"/>
<path d="M7.8485 30.7941H7.5744L6.45983 29.0768H6.44865C6.45144 29.1225 6.45471 29.1747 6.45843 29.2334C6.46216 29.2912 6.46496 29.3532 6.46683 29.4194C6.46962 29.4847 6.47102 29.5514 6.47102 29.6194V30.7941H6.25006V28.7496H6.52276L7.63314 30.4613H7.64293C7.64106 30.4287 7.63873 30.3825 7.63593 30.3228C7.63314 30.2622 7.63034 30.1974 7.62754 30.1284C7.62568 30.0585 7.62475 29.9937 7.62475 29.9341V28.7496H7.8485V30.7941Z" fill="#00040A"/>
<path d="M8.90769 30.7941V28.7496H9.14543V30.7941H8.90769Z" fill="#00040A"/>
<path d="M11.0828 28.93C10.97 28.93 10.8684 28.9496 10.778 28.9887C10.6885 29.0269 10.612 29.0829 10.5486 29.1565C10.4862 29.2292 10.4382 29.3173 10.4046 29.4208C10.371 29.5243 10.3543 29.6409 10.3543 29.7704C10.3543 29.942 10.3808 30.0912 10.434 30.2179C10.488 30.3438 10.5682 30.4412 10.6745 30.5102C10.7817 30.5792 10.9155 30.6137 11.0759 30.6137C11.1672 30.6137 11.253 30.6063 11.3332 30.5913C11.4143 30.5755 11.4931 30.5559 11.5695 30.5326V30.7396C11.4949 30.7675 11.4166 30.7881 11.3346 30.8011C11.2525 30.8151 11.1551 30.8221 11.0423 30.8221C10.8344 30.8221 10.6605 30.7792 10.5207 30.6934C10.3818 30.6067 10.2773 30.4846 10.2074 30.327C10.1384 30.1695 10.1039 29.9835 10.1039 29.769C10.1039 29.6143 10.1254 29.473 10.1683 29.3453C10.2121 29.2167 10.2755 29.1057 10.3584 29.0125C10.4424 28.9193 10.5449 28.8475 10.6661 28.7971C10.7882 28.7458 10.9281 28.7202 11.0856 28.7202C11.1891 28.7202 11.2889 28.7305 11.3849 28.751C11.4809 28.7715 11.5676 28.8008 11.645 28.8391L11.5499 29.0405C11.4847 29.0106 11.4129 28.985 11.3346 28.9635C11.2572 28.9412 11.1733 28.93 11.0828 28.93Z" fill="#00040A"/>
<path d="M13.6678 30.2501C13.6678 30.3713 13.6375 30.4748 13.5769 30.5606C13.5172 30.6454 13.4333 30.7102 13.3251 30.755C13.217 30.7997 13.0897 30.8221 12.9434 30.8221C12.866 30.8221 12.7928 30.8184 12.7238 30.8109C12.6548 30.8034 12.5914 30.7927 12.5336 30.7787C12.4758 30.7647 12.425 30.7475 12.3812 30.727V30.499C12.4511 30.5279 12.5364 30.555 12.6371 30.5801C12.7378 30.6044 12.8431 30.6165 12.9531 30.6165C13.0557 30.6165 13.1424 30.603 13.2133 30.576C13.2841 30.548 13.3377 30.5084 13.3741 30.4571C13.4114 30.4049 13.43 30.3424 13.43 30.2697C13.43 30.1998 13.4146 30.1415 13.3839 30.0949C13.3531 30.0473 13.3018 30.0045 13.23 29.9662C13.1592 29.9271 13.0622 29.8856 12.9392 29.8418C12.8525 29.811 12.776 29.7774 12.7098 29.7411C12.6436 29.7038 12.5881 29.6618 12.5434 29.6152C12.4986 29.5686 12.4646 29.5145 12.4413 29.453C12.4189 29.3915 12.4077 29.3211 12.4077 29.2418C12.4077 29.1327 12.4352 29.0395 12.4903 28.9621C12.5462 28.8838 12.6231 28.8242 12.721 28.7831C12.8198 28.7412 12.9331 28.7202 13.0608 28.7202C13.1699 28.7202 13.2706 28.7305 13.3629 28.751C13.4561 28.7715 13.5414 28.799 13.6188 28.8335L13.5447 29.0377C13.471 29.0069 13.3927 28.9812 13.3097 28.9607C13.2277 28.9402 13.1429 28.93 13.0552 28.93C12.9676 28.93 12.8935 28.943 12.8329 28.9691C12.7732 28.9943 12.7275 29.0302 12.6958 29.0768C12.6641 29.1234 12.6483 29.1789 12.6483 29.2432C12.6483 29.315 12.6632 29.3747 12.693 29.4222C12.7238 29.4698 12.7723 29.5122 12.8385 29.5495C12.9056 29.5858 12.9942 29.6241 13.1042 29.6642C13.2244 29.708 13.3265 29.7546 13.4104 29.804C13.4943 29.8525 13.5582 29.9122 13.602 29.983C13.6458 30.0529 13.6678 30.142 13.6678 30.2501Z" fill="#00040A"/>
<path d="M14.8178 30.4613L14.836 30.4934C14.8192 30.5615 14.7978 30.6342 14.7717 30.7116C14.7465 30.789 14.7186 30.8664 14.6878 30.9437C14.658 31.0221 14.6277 31.0952 14.5969 31.1633H14.4235C14.4431 31.0887 14.4622 31.0099 14.4808 30.927C14.4995 30.8449 14.5162 30.7638 14.5312 30.6836C14.547 30.6025 14.5596 30.5284 14.5689 30.4613H14.8178Z" fill="#00040A"/>
<path d="M18.3571 30.7941L18.1053 30.1452H17.2858L17.0355 30.7941H16.795L17.5949 28.7412H17.8089L18.6032 30.7941H18.3571ZM18.034 29.9341L17.7949 29.2894C17.7893 29.2726 17.78 29.2451 17.7669 29.2069C17.7548 29.1686 17.7422 29.129 17.7291 29.088C17.7161 29.047 17.7054 29.0139 17.697 28.9887C17.6877 29.0269 17.6774 29.0652 17.6662 29.1034C17.656 29.1407 17.6457 29.1756 17.6355 29.2083C17.6252 29.24 17.6163 29.267 17.6089 29.2894L17.3655 29.9341H18.034Z" fill="#00040A"/>
<path d="M20.5266 30.7941H19.3883V28.7496H20.5266V28.9593H19.626V29.6208H20.4749V29.8278H19.626V30.5843H20.5266V30.7941Z" fill="#00040A"/>
<path d="M22.6346 30.2501C22.6346 30.3713 22.6043 30.4748 22.5437 30.5606C22.4841 30.6454 22.4002 30.7102 22.292 30.755C22.1839 30.7997 22.0566 30.8221 21.9102 30.8221C21.8329 30.8221 21.7597 30.8184 21.6907 30.8109C21.6217 30.8034 21.5583 30.7927 21.5005 30.7787C21.4427 30.7647 21.3919 30.7475 21.3481 30.727V30.499C21.418 30.5279 21.5033 30.555 21.604 30.5801C21.7047 30.6044 21.81 30.6165 21.92 30.6165C22.0226 30.6165 22.1093 30.603 22.1802 30.576C22.251 30.548 22.3046 30.5084 22.341 30.4571C22.3783 30.4049 22.3969 30.3424 22.3969 30.2697C22.3969 30.1998 22.3815 30.1415 22.3508 30.0949C22.32 30.0473 22.2687 30.0045 22.1969 29.9662C22.1261 29.9271 22.0291 29.8856 21.9061 29.8418C21.8193 29.811 21.7429 29.7774 21.6767 29.7411C21.6105 29.7038 21.555 29.6618 21.5103 29.6152C21.4655 29.5686 21.4315 29.5145 21.4082 29.453C21.3858 29.3915 21.3746 29.3211 21.3746 29.2418C21.3746 29.1327 21.4021 29.0395 21.4571 28.9621C21.5131 28.8838 21.59 28.8242 21.6879 28.7831C21.7867 28.7412 21.9 28.7202 22.0277 28.7202C22.1368 28.7202 22.2375 28.7305 22.3298 28.751C22.423 28.7715 22.5083 28.799 22.5857 28.8335L22.5116 29.0377C22.4379 29.0069 22.3596 28.9812 22.2766 28.9607C22.1946 28.9402 22.1098 28.93 22.0221 28.93C21.9345 28.93 21.8604 28.943 21.7998 28.9691C21.7401 28.9943 21.6944 29.0302 21.6627 29.0768C21.631 29.1234 21.6152 29.1789 21.6152 29.2432C21.6152 29.315 21.6301 29.3747 21.6599 29.4222C21.6907 29.4698 21.7392 29.5122 21.8054 29.5495C21.8725 29.5858 21.9611 29.6241 22.0711 29.6642C22.1913 29.708 22.2934 29.7546 22.3773 29.804C22.4612 29.8525 22.5251 29.9122 22.5689 29.983C22.6127 30.0529 22.6346 30.142 22.6346 30.2501Z" fill="#00040A"/>
<path d="M24.1819 30.7941H23.9428V28.9593H23.2995V28.7496H24.8224V28.9593H24.1819V30.7941Z" fill="#00040A"/>
<path d="M27.1821 30.7941H26.9444V29.8306H25.8704V30.7941H25.6327V28.7496H25.8704V29.6208H26.9444V28.7496H27.1821V30.7941Z" fill="#00040A"/>
<path d="M29.3839 30.7941H28.2455V28.7496H29.3839V28.9593H28.4833V29.6208H29.3321V29.8278H28.4833V30.5843H29.3839V30.7941Z" fill="#00040A"/>
<path d="M30.9661 30.7941H30.7269V28.9593H30.0837V28.7496H31.6066V28.9593H30.9661V30.7941Z" fill="#00040A"/>
<path d="M32.4168 30.7941V28.7496H32.6546V30.7941H32.4168Z" fill="#00040A"/>
<path d="M34.592 28.93C34.4792 28.93 34.3776 28.9496 34.2871 28.9887C34.1976 29.0269 34.1212 29.0829 34.0578 29.1565C33.9953 29.2292 33.9473 29.3173 33.9137 29.4208C33.8802 29.5243 33.8634 29.6409 33.8634 29.7704C33.8634 29.942 33.89 30.0912 33.9431 30.2179C33.9972 30.3438 34.0774 30.4412 34.1837 30.5102C34.2909 30.5792 34.4247 30.6137 34.585 30.6137C34.6764 30.6137 34.7621 30.6063 34.8423 30.5913C34.9234 30.5755 35.0022 30.5559 35.0787 30.5326V30.7396C35.0041 30.7675 34.9258 30.7881 34.8437 30.8011C34.7617 30.8151 34.6643 30.8221 34.5514 30.8221C34.3435 30.8221 34.1697 30.7792 34.0298 30.6934C33.8909 30.6067 33.7865 30.4846 33.7166 30.327C33.6476 30.1695 33.6131 29.9835 33.6131 29.769C33.6131 29.6143 33.6345 29.473 33.6774 29.3453C33.7212 29.2167 33.7846 29.1057 33.8676 29.0125C33.9515 28.9193 34.0541 28.8475 34.1753 28.7971C34.2974 28.7458 34.4372 28.7202 34.5948 28.7202C34.6983 28.7202 34.798 28.7305 34.8941 28.751C34.9901 28.7715 35.0768 28.8008 35.1542 28.8391L35.0591 29.0405C34.9938 29.0106 34.922 28.985 34.8437 28.9635C34.7663 28.9412 34.6824 28.93 34.592 28.93Z" fill="#00040A"/>
<path d="M37.1769 30.2501C37.1769 30.3713 37.1466 30.4748 37.086 30.5606C37.0263 30.6454 36.9424 30.7102 36.8343 30.755C36.7261 30.7997 36.5989 30.8221 36.4525 30.8221C36.3751 30.8221 36.3019 30.8184 36.2329 30.8109C36.164 30.8034 36.1006 30.7927 36.0428 30.7787C35.985 30.7647 35.9341 30.7475 35.8903 30.727V30.499C35.9603 30.5279 36.0456 30.555 36.1462 30.5801C36.2469 30.6044 36.3523 30.6165 36.4623 30.6165C36.5648 30.6165 36.6516 30.603 36.7224 30.576C36.7933 30.548 36.8469 30.5084 36.8832 30.4571C36.9205 30.4049 36.9392 30.3424 36.9392 30.2697C36.9392 30.1998 36.9238 30.1415 36.893 30.0949C36.8623 30.0473 36.811 30.0045 36.7392 29.9662C36.6683 29.9271 36.5714 29.8856 36.4483 29.8418C36.3616 29.811 36.2852 29.7774 36.219 29.7411C36.1528 29.7038 36.0973 29.6618 36.0525 29.6152C36.0078 29.5686 35.9738 29.5145 35.9505 29.453C35.9281 29.3915 35.9169 29.3211 35.9169 29.2418C35.9169 29.1327 35.9444 29.0395 35.9994 28.9621C36.0553 28.8838 36.1323 28.8242 36.2302 28.7831C36.329 28.7412 36.4423 28.7202 36.57 28.7202C36.6791 28.7202 36.7797 28.7305 36.872 28.751C36.9653 28.7715 37.0506 28.799 37.128 28.8335L37.0538 29.0377C36.9802 29.0069 36.9019 28.9812 36.8189 28.9607C36.7369 28.9402 36.652 28.93 36.5644 28.93C36.4767 28.93 36.4026 28.943 36.342 28.9691C36.2824 28.9943 36.2367 29.0302 36.205 29.0768C36.1733 29.1234 36.1574 29.1789 36.1574 29.2432C36.1574 29.315 36.1723 29.3747 36.2022 29.4222C36.2329 29.4698 36.2814 29.5122 36.3476 29.5495C36.4147 29.5858 36.5033 29.6241 36.6133 29.6642C36.7336 29.708 36.8357 29.7546 36.9196 29.804C37.0035 29.8525 37.0674 29.9122 37.1112 29.983C37.155 30.0529 37.1769 30.142 37.1769 30.2501Z" fill="#00040A"/>
<path d="M39.933 28.7174C40.0337 28.7174 40.1204 28.7351 40.1931 28.7705C40.2667 28.805 40.3232 28.8549 40.3623 28.9202C40.4024 28.9854 40.4224 29.0642 40.4224 29.1565C40.4224 29.2777 40.3828 29.3803 40.3036 29.4642C40.2253 29.5481 40.1255 29.6245 40.0043 29.6935L40.5721 30.2445C40.6234 30.1849 40.6653 30.1159 40.6979 30.0375C40.7306 29.9583 40.7581 29.8725 40.7804 29.7802H41.0154C40.9855 29.9033 40.9469 30.0166 40.8993 30.1201C40.8527 30.2235 40.794 30.3144 40.7231 30.3928L41.1329 30.7941H40.8182L40.5651 30.5466C40.5054 30.6016 40.4411 30.6501 40.3721 30.692C40.304 30.733 40.2281 30.7652 40.1441 30.7885C40.0612 30.8109 39.9661 30.8221 39.8589 30.8221C39.7283 30.8221 39.6151 30.8006 39.519 30.7578C39.423 30.7149 39.3484 30.6519 39.2953 30.569C39.2431 30.486 39.217 30.3844 39.217 30.2641C39.217 30.1653 39.2352 30.0804 39.2715 30.0096C39.3079 29.9387 39.3596 29.8758 39.4267 29.8208C39.4939 29.7658 39.574 29.7122 39.6673 29.66C39.6235 29.6115 39.582 29.5625 39.5428 29.5131C39.5037 29.4628 39.472 29.4092 39.4477 29.3523C39.4235 29.2945 39.4114 29.2311 39.4114 29.1621C39.4114 29.0689 39.4323 28.9892 39.4743 28.923C39.5172 28.8568 39.5773 28.806 39.6547 28.7705C39.733 28.7351 39.8258 28.7174 39.933 28.7174ZM39.8071 29.8068C39.7344 29.8488 39.6719 29.8902 39.6197 29.9313C39.5684 29.9723 39.5288 30.0184 39.5009 30.0697C39.4738 30.121 39.4603 30.183 39.4603 30.2557C39.4603 30.3648 39.4971 30.4524 39.5708 30.5186C39.6444 30.5839 39.7428 30.6165 39.8659 30.6165C39.9926 30.6165 40.1003 30.5955 40.1889 30.5536C40.2784 30.5116 40.3544 30.4608 40.4168 30.4011L39.8071 29.8068ZM39.9246 28.909C39.8397 28.909 39.7708 28.9314 39.7176 28.9761C39.6654 29.0199 39.6393 29.0815 39.6393 29.1607C39.6393 29.2316 39.6584 29.2968 39.6966 29.3565C39.7349 29.4162 39.7894 29.4824 39.8603 29.5551C39.9768 29.4908 40.0612 29.4288 40.1134 29.3691C40.1665 29.3085 40.1931 29.2376 40.1931 29.1565C40.1931 29.0829 40.1684 29.0232 40.119 28.9775C40.0705 28.9318 40.0057 28.909 39.9246 28.909Z" fill="#00040A"/>
<path d="M44.328 30.2501C44.328 30.3713 44.2977 30.4748 44.2371 30.5606C44.1775 30.6454 44.0936 30.7102 43.9854 30.755C43.8773 30.7997 43.75 30.8221 43.6036 30.8221C43.5263 30.8221 43.4531 30.8184 43.3841 30.8109C43.3151 30.8034 43.2517 30.7927 43.1939 30.7787C43.1361 30.7647 43.0853 30.7475 43.0415 30.727V30.499C43.1114 30.5279 43.1967 30.555 43.2974 30.5801C43.3981 30.6044 43.5034 30.6165 43.6134 30.6165C43.716 30.6165 43.8027 30.603 43.8735 30.576C43.9444 30.548 43.998 30.5084 44.0344 30.4571C44.0717 30.4049 44.0903 30.3424 44.0903 30.2697C44.0903 30.1998 44.0749 30.1415 44.0442 30.0949C44.0134 30.0473 43.9621 30.0045 43.8903 29.9662C43.8195 29.9271 43.7225 29.8856 43.5995 29.8418C43.5127 29.811 43.4363 29.7774 43.3701 29.7411C43.3039 29.7038 43.2484 29.6618 43.2037 29.6152C43.1589 29.5686 43.1249 29.5145 43.1016 29.453C43.0792 29.3915 43.068 29.3211 43.068 29.2418C43.068 29.1327 43.0955 29.0395 43.1506 28.9621C43.2065 28.8838 43.2834 28.8242 43.3813 28.7831C43.4801 28.7412 43.5934 28.7202 43.7211 28.7202C43.8302 28.7202 43.9309 28.7305 44.0232 28.751C44.1164 28.7715 44.2017 28.799 44.2791 28.8335L44.205 29.0377C44.1313 29.0069 44.053 28.9812 43.97 28.9607C43.888 28.9402 43.8032 28.93 43.7155 28.93C43.6279 28.93 43.5538 28.943 43.4932 28.9691C43.4335 28.9943 43.3878 29.0302 43.3561 29.0768C43.3244 29.1234 43.3086 29.1789 43.3086 29.2432C43.3086 29.315 43.3235 29.3747 43.3533 29.4222C43.3841 29.4698 43.4326 29.5122 43.4988 29.5495C43.5659 29.5858 43.6545 29.6241 43.7645 29.6642C43.8847 29.708 43.9868 29.7546 44.0707 29.804C44.1546 29.8525 44.2185 29.9122 44.2623 29.983C44.3061 30.0529 44.328 30.142 44.328 30.2501Z" fill="#00040A"/>
<path d="M45.7816 28.7496C46.0454 28.7496 46.238 28.8013 46.3592 28.9048C46.4813 29.0074 46.5424 29.1547 46.5424 29.3467C46.5424 29.4334 46.5279 29.5159 46.499 29.5942C46.471 29.6716 46.4254 29.7401 46.362 29.7998C46.2986 29.8585 46.2151 29.9052 46.1116 29.9397C46.0091 29.9732 45.8832 29.99 45.7341 29.99H45.4851V30.7941H45.2474V28.7496H45.7816ZM45.7592 28.9523H45.4851V29.7858H45.7075C45.838 29.7858 45.9466 29.7718 46.0333 29.7439C46.121 29.7159 46.1867 29.6707 46.2305 29.6082C46.2743 29.5448 46.2962 29.4609 46.2962 29.3565C46.2962 29.2204 46.2529 29.1192 46.1662 29.053C46.0795 28.9859 45.9438 28.9523 45.7592 28.9523Z" fill="#00040A"/>
<path d="M48.7539 30.7941L48.5022 30.1452H47.6827L47.4323 30.7941H47.1918L47.9917 28.7412H48.2057L49 30.7941H48.7539ZM48.4308 29.9341L48.1917 29.2894C48.1861 29.2726 48.1768 29.2451 48.1637 29.2069C48.1516 29.1686 48.139 29.129 48.126 29.088C48.1129 29.047 48.1022 29.0139 48.0938 28.9887C48.0845 29.0269 48.0742 29.0652 48.063 29.1034C48.0528 29.1407 48.0425 29.1756 48.0323 29.2083C48.022 29.24 48.0132 29.267 48.0057 29.2894L47.7624 29.9341H48.4308Z" fill="#00040A"/>
<circle cx="25.51" cy="6.53271" r="4.42004" fill="white"/>
<path d="M30.6688 4.49177C30.6688 3.69525 30.6633 2.89873 30.6688 2.10221C30.6688 1.84977 30.5849 1.69028 30.3389 1.61647C28.8465 1.16114 27.3013 0.901668 25.742 0.844552C24.0323 0.782581 22.37 1.097 20.7369 1.60097C20.2211 1.75955 20.0916 1.91083 20.0907 2.44762C20.0907 3.67703 20.0834 4.90826 20.0907 6.13493C20.1017 7.75349 20.6184 9.18704 21.6747 10.4237C22.6771 11.5957 23.9302 12.467 25.1706 13.3546C25.2378 13.4086 25.3214 13.4381 25.4075 13.4381C25.4937 13.4381 25.5773 13.4086 25.6445 13.3546C26.6123 12.6921 27.5684 12.0159 28.4186 11.202C29.5979 10.0783 30.4546 8.77694 30.6341 7.11919C30.7298 6.25068 30.6387 5.36758 30.6688 4.49177ZM28.2209 9.29549C28.2209 8.83253 28.2209 8.36865 28.2209 7.90386C28.2209 7.56302 28.3767 7.26592 28.5143 6.96791C28.5849 6.83839 28.6161 6.69109 28.6041 6.54409C28.5921 6.39709 28.5375 6.25678 28.4469 6.1404C27.9967 5.4979 27.5702 4.839 27.1346 4.18647C27.1057 4.13752 27.0731 4.0909 27.037 4.04703C26.924 3.92765 26.7791 3.88117 26.6379 3.9723C26.4966 4.06344 26.5413 4.2129 26.6123 4.33684C26.8858 4.81986 27.171 5.30014 27.4471 5.78315C27.5492 5.96542 27.6394 6.14769 27.7324 6.32996C27.7637 6.38472 27.7837 6.44515 27.7914 6.50774C27.7991 6.57033 27.7942 6.63382 27.7771 6.6945C27.747 6.79202 27.7205 6.90502 27.603 6.92781C27.4854 6.95059 27.4262 6.8467 27.3806 6.75465C27.1568 6.34543 26.894 5.95875 26.5959 5.59997C26.4975 5.47238 26.3991 5.29194 26.2232 5.38489C26.0473 5.47785 26.143 5.6747 26.2086 5.80776C26.9003 7.20395 26.606 8.68671 26.5732 10.1412C26.5732 10.1522 26.5732 10.1631 26.5732 10.1731C26.5495 10.4912 26.266 10.3946 25.9407 10.4301C25.9241 10.43 25.9076 10.4281 25.8915 10.4247C25.783 10.3991 25.8003 10.2907 25.8003 10.1348C25.7912 9.31463 25.793 8.49442 25.8003 7.6742C25.8003 7.41902 25.7593 7.21853 25.4358 7.21853C25.1123 7.21853 25.0713 7.4008 25.0713 7.66691C25.0785 8.49715 25.0621 9.3283 25.0813 10.1585C25.0877 10.4319 24.9829 10.4529 24.7632 10.4155C24.2747 10.3317 24.2738 10.3372 24.2611 9.84686C24.2438 9.16426 24.2219 8.47984 24.21 7.79997C24.1957 7.28666 24.2865 6.77584 24.4771 6.29898C24.5582 6.09939 24.6411 5.89981 24.7095 5.69475C24.7441 5.59177 24.7924 5.4578 24.6703 5.38489C24.5481 5.31199 24.426 5.39765 24.3495 5.49972C24.0706 5.87247 23.768 6.2288 23.5484 6.64438C23.4837 6.76741 23.4381 6.97884 23.2577 6.91778C23.0453 6.8385 23.0544 6.61521 23.0936 6.43295C23.1404 6.28107 23.2072 6.13611 23.2923 6.00188C23.6013 5.45507 23.9184 4.91919 24.2255 4.37512C24.3021 4.24024 24.4078 4.07164 24.2137 3.95954C24.0396 3.86021 23.8829 3.9477 23.7771 4.10718C23.2978 4.82624 22.822 5.54711 22.3436 6.26617C22.2829 6.3502 22.2479 6.45006 22.2429 6.55361C22.2378 6.65715 22.263 6.75993 22.3153 6.84943C22.7482 7.61588 22.6124 8.4607 22.6945 9.2964C21.8515 8.72043 21.1661 7.08638 21.5279 5.58448C21.9362 3.89393 23.3944 2.62351 25.0694 2.49956C26.8821 2.36924 28.5371 3.39177 29.1605 5.02582C29.7428 6.55142 29.3263 8.4206 28.2209 9.29549Z" fill="#B82B2B"/>
<path d="M25.4422 3.92666C25.3049 3.92678 25.1729 3.87385 25.0737 3.77891C24.9745 3.68398 24.9159 3.55438 24.91 3.41721C24.9076 3.34912 24.9187 3.28123 24.9429 3.21751C24.967 3.15379 25.0036 3.09553 25.0505 3.04613C25.0975 2.99674 25.1538 2.9572 25.2162 2.92985C25.2786 2.90249 25.3458 2.88786 25.414 2.88681C25.5516 2.88288 25.6853 2.93357 25.7857 3.02783C25.8861 3.12209 25.9451 3.25224 25.9498 3.38987C25.9498 3.52726 25.8972 3.65943 25.8028 3.75925C25.7084 3.85907 25.5794 3.91897 25.4422 3.92666Z" fill="#B82B2B"/>
<path d="M9.32255 21.5147C9.52669 21.0527 9.71443 20.6289 9.90034 20.2042C10.4007 19.0586 10.8955 17.9113 11.4032 16.7684C11.5134 16.5205 11.5854 16.2799 11.5071 16.0138C11.4451 15.8051 11.5408 15.7295 11.7367 15.6967C12.6025 15.5509 12.6052 15.5563 12.7064 16.4258C12.9442 18.4699 13.1848 20.5141 13.44 22.5564C13.4801 22.879 13.4099 23.0011 13.0682 23.0194C12.3336 23.0576 12.33 23.0759 12.248 22.345C12.0757 20.8649 11.9099 19.3849 11.7394 17.9049C11.7258 17.7809 11.7012 17.6579 11.6784 17.513C11.5818 17.5677 11.5718 17.6552 11.5417 17.7281C10.8609 19.3886 10.1674 21.0445 9.50937 22.715C9.37905 23.0467 9.15942 23.0367 8.89968 23.0595C8.62172 23.0841 8.59894 22.8708 8.53514 22.6949C7.91056 21.0466 7.28568 19.3989 6.6605 17.7518C6.62678 17.6606 6.62587 17.5467 6.47823 17.4665C6.38709 18.1765 6.30051 18.8664 6.21302 19.5572C6.07815 20.618 5.94327 21.6785 5.80839 22.7387C5.79563 22.8407 5.84393 22.9911 5.67351 23.0121C5.46116 23.033 5.24244 23.1132 5.03556 23.0221C4.93258 22.9765 5.00366 22.859 5.01916 22.7751C5.3837 20.7957 5.74003 18.8171 6.11278 16.8395C6.1629 16.5725 6.17566 16.3219 6.05354 16.0776C5.91593 15.8042 6.02893 15.7131 6.2996 15.693C7.24011 15.6119 7.02868 15.5235 7.3349 16.3155C7.9619 17.9486 8.58436 19.5839 9.20225 21.2213C9.2387 21.3015 9.27151 21.3853 9.32255 21.5147Z" fill="#2C3D52"/>
<path d="M20.9678 19.7137C20.9678 18.7687 20.9678 17.8245 20.9678 16.8804C20.9678 16.3937 20.8922 16.3117 20.3964 16.2916C20.2688 16.2862 20.2214 16.2616 20.2023 16.1312C20.1813 15.9845 20.2524 15.9572 20.3672 15.9389C21.8354 15.7102 23.3091 15.5498 24.7754 15.9043C26.6692 16.36 27.5797 17.6978 27.3682 19.6408C27.1696 21.4635 25.9456 22.6993 24.0874 23.0037C23.1049 23.165 22.1353 22.9946 21.1601 22.9727C20.9286 22.9673 20.9678 22.7905 20.9678 22.6501C20.9678 21.6725 20.9678 20.6937 20.9678 19.7137ZM22.1097 19.4176V21.6713C22.1097 22.5763 22.1097 22.5763 23.0402 22.5772C24.4446 22.5772 25.4626 21.962 25.8855 20.8165C26.2126 19.9567 26.229 19.0096 25.9319 18.1389C25.5911 17.1282 24.8566 16.5359 23.8204 16.308C23.3929 16.2169 22.96 16.2451 22.5281 16.2324C22.1991 16.2233 22.0988 16.3691 22.1043 16.6881C22.1198 17.5967 22.1097 18.5071 22.1097 19.4176Z" fill="#2C3D52"/>
<path d="M38.6479 19.2646C38.5914 20.607 38.2834 21.5712 37.4385 22.2966C36.3094 23.2617 34.2488 23.4385 32.9729 22.6803C31.9267 22.0588 31.4929 21.0781 31.4109 19.918C31.3197 18.592 31.5585 17.3717 32.6631 16.4786C33.9608 15.4296 36.3613 15.4478 37.5598 16.5223C38.4538 17.3279 38.6543 18.3942 38.6479 19.2646ZM37.3839 19.3849C37.3757 18.7998 37.2636 18.0042 36.8179 17.297C36.3319 16.526 35.6301 16.1721 34.7127 16.2352C33.9034 16.2908 33.3147 16.7 33.0167 17.42C32.4106 18.8845 32.4817 20.3454 33.3384 21.6951C34.1586 22.9938 36.2984 23.0102 37.0312 21.409C37.2918 20.8394 37.3884 20.2388 37.3839 19.3849Z" fill="#2C3D52"/>
<path d="M40.6473 17.4609C40.6473 17.8054 40.64 18.1335 40.6473 18.4634C40.682 19.8633 40.723 21.2631 40.7558 22.662C40.7558 22.7768 40.836 22.9527 40.6811 22.9937C40.455 23.0539 40.2081 23.1195 39.9784 23.0238C39.8754 22.9819 39.9237 22.8415 39.9255 22.7395C39.9666 20.9077 39.9957 19.0749 40.0622 17.2431C40.0786 16.7957 40.0048 16.4293 39.705 16.0903C39.4699 15.8251 39.5127 15.7576 39.869 15.7111C39.8909 15.7111 39.9146 15.7111 39.9365 15.7039C40.507 15.5708 40.8779 15.7558 41.237 16.2589C42.3989 17.8884 43.6293 19.4705 44.8359 21.0681C44.8942 21.1455 44.927 21.2503 45.0455 21.2777C45.1148 21.2239 45.0792 21.151 45.0774 21.0954C45.0327 19.455 44.9863 17.8145 44.9389 16.1796C44.9389 16.0657 44.8596 15.8843 45.0209 15.8542C45.2496 15.8132 45.4948 15.7148 45.7208 15.8278C45.8302 15.8825 45.7691 16.0383 45.7664 16.1468C45.7263 17.854 45.6844 19.561 45.6406 21.2676C45.6306 21.7115 45.6406 22.1562 45.6215 22.5991C45.6142 22.7422 45.7518 22.9773 45.4857 23.0211C45.2414 23.0603 44.9835 23.156 44.7757 22.8707C44.1879 22.0605 43.5773 21.2658 42.9758 20.4666L40.8196 17.5976C40.7804 17.5457 40.7558 17.4764 40.6473 17.4609Z" fill="#2C3D52"/>
<path d="M15.023 19.7931C15.023 18.8708 15.023 17.9495 15.023 17.0272C15.023 16.5715 14.9236 16.4649 14.468 16.4457C14.3285 16.4403 14.2656 16.4129 14.2474 16.2635C14.2292 16.114 14.3221 16.104 14.4297 16.0876C14.992 15.9964 15.5534 15.9053 16.1248 15.8989C17.0699 15.8989 18.0158 15.9044 18.96 15.8853C19.2188 15.8798 19.2999 15.9618 19.3018 16.2079C19.3018 16.5943 19.3309 16.9807 19.3501 17.3671C19.3546 17.4655 19.3546 17.5448 19.2188 17.5494C19.1149 17.5549 19.0366 17.5439 19.0119 17.43C19.0119 17.4191 19.0047 17.4081 19.0028 17.3972C18.7704 16.4029 18.4414 16.4038 17.5501 16.3947C17.1856 16.3947 16.8211 16.4002 16.4565 16.3947C16.2651 16.3902 16.1603 16.4348 16.164 16.6581C16.1731 17.3981 16.1749 18.1381 16.164 18.8772C16.164 19.1023 16.2688 19.1051 16.4374 19.0941C17.0753 19.054 17.7133 19.0249 18.3512 18.9884C18.5508 18.9766 18.7276 18.9802 18.7158 19.2545C18.703 19.4842 18.7221 19.6993 18.3585 19.6692C17.7351 19.6163 17.1072 19.6245 16.482 19.589C16.2533 19.5762 16.1622 19.6227 16.1685 19.877C16.1868 20.5933 16.1859 21.3114 16.1685 22.0278C16.1622 22.3331 16.2597 22.4652 16.5777 22.4534C17.0553 22.4351 17.5347 22.4333 18.0122 22.4397C18.6073 22.447 19.0056 22.1727 19.2343 21.6313C19.2826 21.5165 19.3464 21.408 19.392 21.2914C19.4375 21.1747 19.5177 21.2003 19.6134 21.2112C19.7365 21.2294 19.7602 21.295 19.7383 21.3998C19.6472 21.8446 19.556 22.2911 19.4585 22.7341C19.4418 22.8136 19.396 22.8841 19.3302 22.9318C19.2643 22.9795 19.183 23.0009 19.1022 22.992C17.8263 22.9856 16.5504 22.9765 15.2745 22.9746C15.0421 22.9746 15.0266 22.8389 15.0275 22.6611C15.0248 21.7051 15.023 20.7491 15.023 19.7931Z" fill="#2C3D52"/>
<path d="M29.9264 19.3784C29.9264 20.4356 29.9163 21.4927 29.9327 22.549C29.9382 22.8616 29.8571 22.9892 29.5254 23.0156C28.6432 23.0858 28.7872 23.1113 28.7854 22.3175C28.7799 20.5559 28.7854 18.7942 28.7854 17.0317C28.7854 16.412 28.7735 16.3937 28.1775 16.3108C28.0535 16.2944 28.0308 16.2397 28.0207 16.1395C28.0107 16.0392 28.038 15.9754 28.1574 15.9572C28.6601 15.8624 29.168 15.7978 29.6785 15.764C29.9409 15.7485 29.9291 15.9308 29.9291 16.1076L29.9264 19.3784Z" fill="#2C3D52"/>
</svg>
