<svg xmlns="http://www.w3.org/2000/svg" width="24" height="24" viewBox="0 0 24 24" fill="none">
  <path d="M13.7591 4.62305H11.8905V5.79092H13.1751V7.99042C13.1751 9.92229 11.6034 11.4941 9.67149 11.4941C7.73962 11.4941 6.16787 9.92232 6.16787 7.99045V5.79092H7.41362V4.62305H5.58394C5.26141 4.62305 5 4.88445 5 5.20698V7.99045C5 10.5664 7.09556 12.662 9.67153 12.662C12.2475 12.662 14.3431 10.5664 14.3431 7.99045V5.20698C14.3431 4.88445 14.0816 4.62305 13.7591 4.62305Z" fill="#808284"/>
  <path d="M16.0366 13.1487V15.9127C16.0366 17.5227 14.7268 18.8325 13.1169 18.8325C11.5069 18.8325 10.1972 17.5227 10.1972 15.9127V12.0977H9.0293V15.9127C9.0293 18.1666 10.8629 20.0003 13.1169 20.0003C15.3707 20.0003 17.2045 18.1666 17.2045 15.9127V13.1487H16.0366Z" fill="#808284"/>
  <path d="M16.6197 9.37207C15.4281 9.37207 14.4589 10.3412 14.4589 11.5327C14.4589 12.7239 15.4281 13.6933 16.6195 13.6933C17.811 13.6933 18.7801 12.7239 18.7803 11.5327C18.7803 10.3412 17.811 9.37207 16.6197 9.37207ZM16.6195 12.5254C16.072 12.5254 15.6266 12.08 15.6266 11.5327C15.6266 10.9853 16.072 10.54 16.6195 10.54C17.1669 10.54 17.6122 10.9853 17.6122 11.5327C17.6122 12.08 17.1669 12.5254 16.6195 12.5254Z" fill="#808284"/>
  <path d="M7.39448 4C7.07195 4 6.81055 4.26141 6.81055 4.58394V5.82969C6.81055 6.15222 7.07195 6.41362 7.39448 6.41362C7.71701 6.41362 7.97842 6.15222 7.97842 5.82969V4.58394C7.97842 4.26141 7.71701 4 7.39448 4Z" fill="#808284"/>
  <path d="M11.9101 4C11.5876 4 11.3262 4.26141 11.3262 4.58394V5.82969C11.3262 6.15222 11.5876 6.41362 11.9101 6.41362C12.2326 6.41362 12.494 6.15222 12.494 5.82969V4.58394C12.494 4.26141 12.2326 4 11.9101 4Z" fill="#808284"/>
</svg>