<svg width="18" height="22" viewBox="0 0 18 22" fill="none" xmlns="http://www.w3.org/2000/svg">
<path d="M18 8.3C18 7.025 16.95 5.9 15.6 5.9C14.25 5.9 13.2 6.95 13.2 8.3C13.2 9.35 13.875 10.25 14.85 10.55V15.65C14.85 18.05 12.9 20 10.5 20C8.1 20 6.15 18.05 6.15 15.65V13.1C8.775 12.725 10.875 10.325 10.875 7.4V3.35C10.875 2.225 9.975 1.325 8.85 1.325H8.475C8.475 0.875 8.175 0.575 7.725 0.575C7.275 0.575 6.975 0.875 6.975 1.325V2.9C6.975 3.35 7.275 3.65 7.725 3.65C8.175 3.65 8.475 3.35 8.475 2.9H8.85C9.15 2.9 9.375 3.125 9.375 3.425V7.475C9.375 9.8 7.575 11.75 5.4 11.75C3.225 11.75 1.5 9.725 1.5 7.4V3.35C1.5 3.05 1.725 2.75 2.025 2.75H2.325C2.325 3.2 2.625 3.5 3.075 3.5C3.525 3.5 3.825 3.2 3.825 2.75V1.25C3.825 0.8 3.525 0.5 3.075 0.5C2.625 0.5 2.325 0.8 2.325 1.25H2.025C0.9 1.25 0 2.225 0 3.35V7.4C0 10.325 2.025 12.725 4.725 13.1V15.65C4.725 18.875 7.35 21.5 10.575 21.5C13.8 21.5 16.425 18.875 16.425 15.65V10.55C17.325 10.25 18 9.35 18 8.3ZM15.6 9.2C15.15 9.2 14.7 8.825 14.7 8.3C14.7 7.85 15.075 7.4 15.6 7.4C16.125 7.4 16.5 7.775 16.5 8.3C16.5 8.825 16.125 9.2 15.6 9.2Z" fill="#D90506"/>
</svg>
