<svg xmlns="http://www.w3.org/2000/svg" width="32" height="32" viewBox="0 0 32 32" fill="none">
  <g clip-path="url(#clip0_61_9521)">
    <path d="M21.1166 0C19.4294 0 17.7154 0.391438 16.0167 1.16656C14.5649 0.509126 12.8175 0 10.8835 0C5.42547 0 2.56915 4.18276 2.56915 8.31439C2.56915 11.085 3.6564 12.5355 4.61578 13.8147C5.53678 15.0426 6.4066 16.2015 6.4066 18.5475C6.4066 22.3951 6.4066 26.3732 7.75354 29.0658C8.51973 30.5995 9.89223 32.2854 11.2455 31.9592C12.8022 31.5921 12.8022 28.9942 12.8022 28.141C12.8022 23.3442 12.8022 17.9079 16.0001 17.9079C19.1979 17.9079 19.1979 23.3442 19.1979 28.141C19.1979 28.9942 19.1979 31.5921 20.7546 31.9592C20.8671 31.9861 20.9797 31.9988 21.0923 31.9988C22.3304 31.9988 23.5443 30.4728 24.2466 29.0657C25.5935 26.3732 25.5935 22.395 25.5935 18.5474C25.5935 16.2015 26.4633 15.0426 27.3843 13.8147C28.3436 12.5355 29.4309 11.085 29.4309 8.31439C29.431 4.18276 26.5746 0 21.1166 0ZM26.361 13.0472C25.4016 14.3263 24.3144 15.7755 24.3144 18.5474C24.3144 22.2454 24.3144 26.0712 23.1031 28.4939C22.3638 29.9713 21.4006 30.8041 21.0475 30.7145C20.8889 30.6774 20.477 30.1414 20.477 28.1409C20.477 22.7442 20.477 16.6287 16.0001 16.6287C11.5231 16.6287 11.5231 22.7442 11.5231 28.1409C11.5231 30.1414 11.1112 30.6774 10.9526 30.7145C10.6072 30.8027 9.63635 29.9713 8.89704 28.4939C7.68573 26.0712 7.68573 22.2454 7.68573 18.5474C7.68573 15.7755 6.59847 14.3263 5.6391 13.0472C4.71809 11.8192 3.84828 10.659 3.84828 8.31433C3.84828 4.92589 6.04966 1.27913 10.8835 1.27913C12.6743 1.27913 14.3116 1.78569 15.6597 2.42269C15.7019 2.44826 15.7454 2.46876 15.7915 2.48538C17.9686 3.53938 19.3628 4.90676 19.3859 4.92982C19.6353 5.17795 20.0408 5.17795 20.2889 4.92857C20.5396 4.67913 20.5396 4.27495 20.2889 4.0242C20.2071 3.94232 19.1786 2.92926 17.5017 1.93919C18.7156 1.50044 19.9269 1.27913 21.1165 1.27913C25.9503 1.27913 28.1517 4.92595 28.1517 8.31433C28.1518 10.659 27.282 11.8192 26.361 13.0472Z" fill="#D90506"/>
  </g>
  <defs>
    <clipPath id="clip0_61_9521">
      <rect width="32" height="32" fill="white"/>
    </clipPath>
  </defs>
</svg>
