<svg xmlns="http://www.w3.org/2000/svg" width="22" height="33" viewBox="0 0 22 33" fill="none">
  <path d="M3.85009 13.1698L1.78714 12.1807C1.54758 12.0657 1.25995 12.1668 1.14508 12.4067C1.03015 12.6463 1.13128 12.9338 1.37104 13.0487L3.43398 14.0378C3.67406 14.1531 3.96136 14.0511 4.07604 13.8119C4.19091 13.5722 4.08978 13.2848 3.85009 13.1698Z" fill="#D90506"/>
  <path d="M3.43391 18.8194L1.37097 19.8086C1.13128 19.9235 1.03007 20.211 1.14501 20.4506C1.22773 20.6232 1.39997 20.724 1.57934 20.724C1.64916 20.724 1.72001 20.7088 1.78707 20.6766L3.85001 19.6875C4.0897 19.5725 4.19091 19.285 4.07597 19.0454C3.96103 18.8056 3.67328 18.7045 3.43391 18.8194Z" fill="#D90506"/>
  <path d="M3.64204 17.0159C3.90792 17.0159 4.12335 16.8005 4.12335 16.5346C4.12335 16.2687 3.90792 16.0533 3.64204 16.0533H1.43773C1.17185 16.0533 0.956421 16.2687 0.956421 16.5346C0.956421 16.8005 1.17185 17.0159 1.43773 17.0159H3.64204Z" fill="#D90506"/>
  <path d="M19.4232 14.0378L21.4861 13.0487C21.7258 12.9337 21.827 12.6462 21.7121 12.4066C21.5972 12.1668 21.3095 12.0657 21.07 12.1806L19.0071 13.1697C18.7674 13.2847 18.6662 13.5722 18.7811 13.8118C18.8962 14.052 19.1842 14.1526 19.4232 14.0378Z" fill="#D90506"/>
  <path d="M21.4861 19.8086L19.4232 18.8194C19.1836 18.7044 18.896 18.8056 18.7811 19.0454C18.6662 19.285 18.7673 19.5725 19.0071 19.6875L21.07 20.6766C21.1372 20.7088 21.2079 20.724 21.2778 20.724C21.4571 20.724 21.6294 20.6232 21.7121 20.4506C21.827 20.2109 21.7258 19.9235 21.4861 19.8086Z" fill="#D90506"/>
  <path d="M21.4194 16.0533H19.2151C18.9492 16.0533 18.7338 16.2687 18.7338 16.5346C18.7338 16.8005 18.9492 17.0159 19.2151 17.0159H21.4194C21.6853 17.0159 21.9007 16.8005 21.9007 16.5346C21.9007 16.2687 21.6853 16.0533 21.4194 16.0533Z" fill="#D90506"/>
  <path d="M13.9822 16.7235C13.0537 16.6788 12.1606 16.9539 11.4287 17.5034C10.6968 16.9538 9.80484 16.679 8.87502 16.7235C6.80534 16.8231 5.15876 18.5252 5.12635 20.5988C5.1071 21.8313 5.64911 22.9787 6.61339 23.747C7.53275 24.4795 8.06007 25.5456 8.06007 26.672V28.2152C8.06007 28.481 8.2755 28.6965 8.54138 28.6965C8.80725 28.6965 9.02268 28.481 9.02268 28.2152V26.672C9.02268 25.2508 8.36316 23.9102 7.21323 22.9941C6.48415 22.4133 6.07433 21.5457 6.08883 20.6139C6.11335 19.0467 7.35749 17.7603 8.92122 17.685C9.99813 17.6335 10.9382 18.1501 11.4969 18.9334C11.8968 19.494 12.4932 19.8764 13.176 20.0099L13.398 20.0533C13.657 20.1043 13.9115 19.9357 13.9628 19.6734C14.0139 19.4125 13.8438 19.1596 13.5829 19.1086L13.3609 19.0652C12.9206 18.979 12.5369 18.7337 12.2806 18.3744C12.234 18.309 12.1853 18.245 12.1347 18.1825C12.6623 17.8285 13.2874 17.6537 13.9361 17.685C15.4999 17.7601 16.7442 19.0466 16.7687 20.6138C16.7942 22.2471 15.4754 23.6419 13.7888 23.6419C13.4147 23.6419 13.0501 23.5737 12.7052 23.439C12.4577 23.3425 12.1786 23.4646 12.0818 23.7122C11.9851 23.9598 12.1074 24.2389 12.3551 24.3357C12.812 24.5141 13.2944 24.6045 13.7888 24.6045C13.8042 24.6045 13.8195 24.6044 13.8348 24.6042V32.3758C13.8348 32.6417 14.0503 32.8571 14.3161 32.8571C14.582 32.8571 14.7975 32.6417 14.7975 32.3758V24.4741C16.5236 24.0176 17.7597 22.4199 17.7312 20.5987C17.6987 18.5251 16.052 16.8229 13.9822 16.7235Z" fill="#D90506"/>
  <path d="M8.54136 29.5948C8.27549 29.5948 8.06006 29.8103 8.06006 30.0762V32.3758C8.06006 32.6417 8.27549 32.8571 8.54136 32.8571C8.80724 32.8571 9.02267 32.6417 9.02267 32.3758V30.0762C9.02267 29.8103 8.80724 29.5948 8.54136 29.5948Z" fill="#D90506"/>
  <path d="M16.4656 9.94891C16.2406 10.0904 16.1728 10.3875 16.3142 10.6125C16.6206 11.1001 16.7778 11.6641 16.7687 12.2433C16.7442 13.8105 15.5 15.097 13.9362 15.1722C12.8795 15.2234 11.9304 14.7228 11.3606 13.9239C10.9607 13.3632 10.3644 12.9809 9.68148 12.8474L9.4595 12.804C9.19863 12.7526 8.94572 12.923 8.89471 13.1839C8.84362 13.4447 9.01375 13.6976 9.27462 13.7487L9.49666 13.7921C9.93696 13.8782 10.3206 14.1236 10.5769 14.4829C10.6235 14.5483 10.6722 14.6123 10.7228 14.6748C10.1954 15.0289 9.57065 15.2038 8.92127 15.1722C7.35754 15.0972 6.11333 13.8107 6.08882 12.2435C6.06315 10.6025 7.3895 9.21534 9.06868 9.21534C9.44282 9.21534 9.80739 9.28362 10.1523 9.41832C10.402 9.51574 10.6798 9.39066 10.7757 9.14507C10.8724 8.89748 10.7501 8.61833 10.5025 8.52162C10.0455 8.34321 9.56308 8.25273 9.06868 8.25273C9.05334 8.25273 9.03801 8.25285 9.02267 8.25305V0.481306C9.02267 0.215432 8.80724 0 8.54136 0C8.27549 0 8.06006 0.215432 8.06006 0.481306V8.38306C6.3339 8.8396 5.09784 10.4373 5.12634 12.2585C5.15881 14.3321 6.80545 16.0343 8.87507 16.1337C9.80495 16.1778 10.6968 15.9034 11.4287 15.3538C12.1635 15.9057 13.0558 16.1782 13.9824 16.1337C16.0521 16.0343 17.6987 14.3321 17.7311 12.2584C17.7431 11.4924 17.5349 10.7462 17.1292 10.1004C16.9878 9.87543 16.6907 9.80766 16.4656 9.94891Z" fill="#D90506"/>
  <path d="M15.4099 9.46504C15.5248 9.46504 15.6401 9.42416 15.7321 9.34125C15.9295 9.16329 15.9453 8.85892 15.7674 8.66145C15.1419 7.9676 14.7975 7.08809 14.7975 6.1851V0.481306C14.7975 0.215432 14.5821 0 14.3162 0C14.0503 0 13.8349 0.215432 13.8349 0.481306V6.18516C13.8349 7.32663 14.2672 8.43504 15.0523 9.30602C15.1473 9.41139 15.2784 9.46504 15.4099 9.46504Z" fill="#D90506"/>
</svg>