<svg width="32" height="28" viewBox="0 0 32 28" fill="none" xmlns="http://www.w3.org/2000/svg">
<path d="M30.7691 8.50994C30.6551 8.27757 30.3744 8.18144 30.1418 8.29557C29.9093 8.40957 29.8134 8.69044 29.9274 8.92288C30.8656 10.8352 31.0625 12.8026 31.0625 14.1163C31.0625 15.8915 30.6942 19.238 28.2279 21.7043C27.4402 22.492 26.3929 22.9258 25.2789 22.9258C24.1651 22.9258 23.1178 22.492 22.3301 21.7043C21.5423 20.9166 21.1086 19.8694 21.1086 18.7554C21.1086 18.0452 21.2856 17.3625 21.6175 16.7565C21.6273 16.7416 21.6358 16.7261 21.6437 16.7102C21.8282 16.3834 22.0574 16.0791 22.33 15.8065C22.4931 15.6434 22.6286 15.4655 22.7366 15.2759C22.7383 15.2729 22.7401 15.2701 22.7417 15.2671C22.7684 15.2198 22.7936 15.1719 22.8168 15.1233C23.3027 15.4187 23.5937 15.8704 23.7368 16.1501C23.8198 16.3121 23.9841 16.4053 24.1544 16.4053C24.2263 16.4053 24.2993 16.3886 24.3677 16.3536C24.5982 16.2356 24.6892 15.9532 24.5713 15.7228C24.2109 15.0191 23.6752 14.4831 23.0397 14.1798C23.0403 14.1586 23.0413 14.1376 23.0413 14.1163C23.0413 13.9991 23.0328 13.8838 23.0165 13.7708C23.6628 13.4698 24.2054 12.9311 24.5713 12.2166C24.6893 11.9861 24.5981 11.7037 24.3676 11.5857C24.1371 11.4676 23.8547 11.5588 23.7367 11.7893C23.5803 12.0949 23.253 12.596 22.6943 12.8846C22.673 12.8501 22.6507 12.8161 22.6274 12.7824C22.6219 12.7743 22.6164 12.7663 22.6104 12.7586C22.5281 12.6423 22.4349 12.5309 22.33 12.4261C20.7039 10.8 20.7039 8.15425 22.33 6.52819C23.1176 5.7405 24.1649 5.30669 25.2789 5.30669C26.3928 5.30669 27.4401 5.7405 28.2279 6.52825C28.4286 6.729 28.6221 6.94282 28.803 7.16382C28.9669 7.36419 29.2624 7.39363 29.4626 7.22963C29.663 7.06563 29.6925 6.77032 29.5285 6.57C29.328 6.325 29.1134 6.08794 28.8908 5.86532C26.8992 3.87369 23.6586 3.87375 21.6671 5.86532C19.9867 7.54575 19.7242 10.1153 20.8795 12.0736L20.2453 11.8519C19.572 11.6165 19.0066 11.1458 18.6533 10.5262L17.7779 8.99125C17.5292 8.55525 17.3978 8.05957 17.3978 7.55763V2.17157C17.3978 1.40863 16.8129 0.783441 16.0662 0.748316C15.6791 0.730191 15.3131 0.866878 15.0339 1.13332C14.7586 1.396 14.6006 1.76482 14.6006 2.14532V7.55769C14.6006 8.05957 14.4692 8.55532 14.2206 8.99132L13.3453 10.5261C12.9919 11.1457 12.4264 11.6165 11.7532 11.8518L11.1221 12.0724C11.5826 11.2944 11.8289 10.4048 11.8289 9.47701C11.8289 8.11263 11.2976 6.82994 10.3328 5.86519C9.36806 4.90044 8.08537 4.36907 6.721 4.36907C5.35663 4.36907 4.07387 4.90038 3.10919 5.86519C0.403938 8.57057 0 12.1959 0 14.1163C0 15.7831 0.313062 18.9701 2.40981 21.5863C2.57169 21.7883 2.86675 21.8209 3.06875 21.6589C3.27075 21.4971 3.30325 21.202 3.14138 21C1.22381 18.6074 0.9375 15.6601 0.9375 14.1163C0.9375 12.341 1.30575 8.99457 3.77213 6.52819C4.55981 5.7405 5.60706 5.30669 6.72106 5.30669C7.835 5.30669 8.88231 5.7405 9.67 6.52819C10.4577 7.31588 10.8915 8.36313 10.8915 9.47713C10.8915 10.5911 10.4578 11.6384 9.67 12.4261C9.56525 12.5308 9.47231 12.6419 9.39006 12.7579C9.38412 12.7656 9.37862 12.7736 9.37319 12.7816C9.34975 12.8155 9.32719 12.8498 9.30569 12.8846C8.747 12.596 8.41969 12.0949 8.26319 11.7893C8.14519 11.5588 7.86269 11.4678 7.63231 11.5857C7.40188 11.7037 7.31075 11.9861 7.42875 12.2166C7.79463 12.9311 8.33731 13.4698 8.9835 13.7708C8.96719 13.8838 8.95881 13.9991 8.95881 14.1162C8.95881 14.1375 8.95981 14.1586 8.96031 14.1798C8.32475 14.4831 7.78906 15.019 7.42875 15.7228C7.31075 15.9532 7.40194 16.2356 7.63231 16.3536C7.70075 16.3886 7.77369 16.4053 7.84556 16.4053C8.01594 16.4053 8.18019 16.3121 8.26319 16.1501C8.40637 15.8704 8.69725 15.4187 9.18325 15.1233C9.20763 15.1744 9.23431 15.2248 9.26256 15.2744C9.26606 15.2807 9.26962 15.287 9.27337 15.2931C9.37975 15.4763 9.51187 15.6484 9.66994 15.8064C9.94244 16.0789 10.1714 16.383 10.3559 16.7096C10.364 16.7258 10.3728 16.7417 10.3827 16.7569C10.7144 17.3628 10.8914 18.0454 10.8914 18.7554C10.8914 19.8693 10.4576 20.9166 9.66988 21.7043C8.34 23.0341 6.27381 23.3096 4.64537 22.3739C4.42087 22.245 4.13438 22.3224 4.00537 22.5469C3.87644 22.7714 3.95387 23.0579 4.17831 23.1869C4.96944 23.6413 5.84469 23.8626 6.71462 23.8626C8.0385 23.8626 9.34994 23.3501 10.3328 22.3673C11.2975 21.4025 11.8288 20.1198 11.8288 18.7554C11.8288 18.238 11.752 17.7324 11.6045 17.2514L11.6706 17.2721C12.0842 17.4016 12.3621 17.7799 12.3621 18.2133V25.8548C12.3621 26.6259 12.9895 27.2533 13.7607 27.2533C14.5319 27.2533 15.1593 26.6259 15.1593 25.8548V18.2133C15.1593 16.5507 14.0933 15.0998 12.5067 14.6027L12.4295 14.5785L12.6761 14.4923C13.9866 14.0342 15.0871 13.1178 15.7749 11.9119L15.9991 11.5187L16.2233 11.9118C16.9111 13.1178 18.0116 14.0342 19.3222 14.4923L19.5695 14.5788L19.4931 14.6027C17.9064 15.0997 16.8405 16.5507 16.8405 18.2133V25.8548C16.8405 26.6259 17.4679 27.2533 18.2391 27.2533C19.0103 27.2533 19.6376 26.6259 19.6376 25.8548V18.2133C19.6376 17.7799 19.9155 17.4016 20.3292 17.2721L20.3953 17.2514C20.2478 17.7324 20.1709 18.238 20.1709 18.7554C20.1709 20.1198 20.7022 21.4026 21.6669 22.3673C22.6629 23.3632 23.9706 23.8611 25.2788 23.8609C26.5866 23.8608 27.8949 23.3629 28.8906 22.3673C31.5961 19.662 32 16.0365 32 14.1163C32 12.7033 31.7864 10.5838 30.7691 8.50994ZM14.2219 18.2133V25.8548C14.2219 26.109 14.0151 26.3158 13.7608 26.3158C13.5066 26.3158 13.2998 26.109 13.2998 25.8548V18.2133C13.2998 17.3679 12.7577 16.6301 11.9509 16.3774L11.0908 16.108C10.9096 15.81 10.6959 15.5294 10.4528 15.2695L10.9472 15.0967L12.2265 15.4974C13.4201 15.8712 14.2219 16.9627 14.2219 18.2133ZM17.0378 11.4473L16.4876 10.4826C16.3877 10.3076 16.2005 10.1989 15.9991 10.1989C15.7976 10.199 15.6105 10.3077 15.5108 10.4826L14.9605 11.4474C14.3849 12.4568 13.4637 13.2238 12.3667 13.6073L9.9375 14.4564C9.91106 14.3471 9.89612 14.234 9.89612 14.1162C9.89612 13.8693 9.95469 13.6409 10.0702 13.4332L12.0625 12.7368C12.9493 12.4268 13.6941 11.8067 14.1596 10.9906L15.0349 9.45576C15.3641 8.87851 15.5381 8.22219 15.5381 7.55769V2.14532C15.5381 2.018 15.5888 1.8995 15.6809 1.81163C15.773 1.72382 15.8944 1.67882 16.022 1.68475C16.2636 1.69613 16.4602 1.9145 16.4602 2.17157V7.55757C16.4602 8.22207 16.6342 8.87844 16.9634 9.45569L17.8388 10.9906C18.3041 11.8066 19.0489 12.4268 19.9359 12.7368L21.93 13.4338C22.0453 13.6414 22.1037 13.8696 22.1037 14.1162C22.1037 14.2342 22.0887 14.3475 22.0622 14.4569L19.6316 13.6073C18.5347 13.2239 17.6135 12.4568 17.0378 11.4473ZM20.049 16.3774C19.2423 16.6301 18.7002 17.3679 18.7002 18.2133V25.8548C18.7002 26.109 18.4933 26.3158 18.2391 26.3158C17.9849 26.3158 17.7781 26.109 17.7781 25.8548V18.2133C17.7781 16.9627 18.5799 15.8712 19.7734 15.4974L21.052 15.0969L21.5468 15.2699C21.3038 15.5297 21.0903 15.8101 20.9091 16.1079L20.049 16.3774Z" fill="#D90506"/>
</svg>
