<svg xmlns="http://www.w3.org/2000/svg" width="24" height="24" viewBox="0 0 24 24" fill="none">
  <path d="M20.5021 5H3.49785C2.67059 5 2 5.67059 2 6.49785V16.6056C2 17.4329 2.67059 18.1035 3.49785 18.1035H20.5021C21.3294 18.1035 22 17.4329 22 16.6056V6.49785C22 5.67059 21.3294 5 20.5021 5Z" fill="#F5F5F5"/>
  <path d="M2.0824 6.00797H21.9176C21.7146 5.42137 21.1577 5 20.5022 5H3.49787C2.84224 5 2.28541 5.42137 2.0824 6.00797Z" fill="#FF4B55"/>
  <path d="M22 9.03125H2V10.0392H22V9.03125Z" fill="#FF4B55"/>
  <path d="M22 7.01562H2V8.02355H22V7.01562Z" fill="#FF4B55"/>
  <path d="M2 11.71C2 11.9004 2.15441 12.0548 2.34484 12.0548H22V11.0469H2V11.71Z" fill="#FF4B55"/>
  <path d="M22 15.0801H2V16.088H22V15.0801Z" fill="#FF4B55"/>
  <path d="M21.9176 17.0957H2.0824C2.28541 17.6823 2.84228 18.1037 3.49787 18.1037H20.5022C21.1578 18.1037 21.7146 17.6823 21.9176 17.0957Z" fill="#FF4B55"/>
  <path d="M22 13.0645H2V14.0724H22V13.0645Z" fill="#FF4B55"/>
  <path d="M2.34484 12.0557H10.9655C11.156 12.0557 11.3104 11.9013 11.3104 11.7109V5.34484C11.3104 5.15437 11.156 5 10.9655 5H3.49785C2.67059 5.00004 2 5.67063 2 6.49789V11.7109C2 11.9014 2.15441 12.0557 2.34484 12.0557Z" fill="#41479B"/>
  <path d="M2.96829 5.79176L3.04462 6.02067L3.28591 6.0225C3.31716 6.02278 3.33009 6.06262 3.30497 6.08118L3.11087 6.2245L3.18368 6.45454C3.19314 6.4843 3.15919 6.50899 3.13376 6.49079L2.93747 6.35051L2.74118 6.49083C2.71575 6.50903 2.68189 6.48434 2.69126 6.45458L2.76407 6.22454L2.56997 6.08122C2.54486 6.06262 2.55779 6.02278 2.58904 6.02254L2.83032 6.02071L2.90665 5.7918C2.9165 5.76211 2.95837 5.76211 2.96829 5.79176Z" fill="#F5F5F5"/>
  <path d="M2.96829 6.989L3.04462 7.21791L3.28591 7.21974C3.31716 7.22002 3.33009 7.25982 3.30497 7.27841L3.11087 7.42177L3.18368 7.65181C3.19314 7.68158 3.15919 7.70626 3.13376 7.68806L2.93747 7.54779L2.74118 7.6881C2.71575 7.70626 2.68189 7.68162 2.69126 7.65185L2.76407 7.42181L2.56997 7.27845C2.54486 7.25986 2.55779 7.22005 2.58904 7.21978L2.83032 7.21794L2.90665 6.98904C2.9165 6.95939 2.95837 6.95939 2.96829 6.989Z" fill="#F5F5F5"/>
  <path d="M2.96829 8.18629L3.04462 8.4152L3.28591 8.41704C3.31716 8.41731 3.33009 8.45711 3.30497 8.47571L3.11087 8.61907L3.18368 8.84911C3.19314 8.87887 3.15919 8.90356 3.13376 8.88536L2.93747 8.74508L2.74118 8.8854C2.71575 8.90356 2.68189 8.87895 2.69126 8.84915L2.76407 8.61911L2.56997 8.47575C2.54486 8.45715 2.55779 8.41735 2.58904 8.41708L2.83032 8.41524L2.90665 8.18633C2.9165 8.15665 2.95837 8.15665 2.96829 8.18629Z" fill="#F5F5F5"/>
  <path d="M2.96829 9.38356L3.04462 9.61247L3.28591 9.6143C3.31716 9.61457 3.33009 9.65442 3.30497 9.67297L3.11087 9.81633L3.18368 10.0464C3.19314 10.0761 3.15919 10.1008 3.13376 10.0826L2.93747 9.94235L2.74118 10.0827C2.71575 10.1008 2.68189 10.0762 2.69126 10.0464L2.76407 9.81637L2.56997 9.67301C2.54486 9.6545 2.55779 9.61461 2.58904 9.61434L2.83032 9.6125L2.90665 9.3836C2.9165 9.35391 2.95837 9.35391 2.96829 9.38356Z" fill="#F5F5F5"/>
  <path d="M2.96829 10.5808L3.04462 10.8097L3.28591 10.8115C3.31716 10.8118 3.33009 10.8516 3.30497 10.8702L3.11087 11.0136L3.18368 11.2436C3.19314 11.2734 3.15919 11.2981 3.13376 11.2799L2.93747 11.1396L2.74118 11.2799C2.71575 11.2981 2.68189 11.2734 2.69126 11.2436L2.76407 11.0136L2.56997 10.8702C2.54486 10.8517 2.55779 10.8119 2.58904 10.8116L2.83032 10.8097L2.90665 10.5808C2.9165 10.5512 2.95837 10.5512 2.96829 10.5808Z" fill="#F5F5F5"/>
  <path d="M3.89775 6.37768L3.97408 6.60658L4.21537 6.60842C4.24662 6.60869 4.25955 6.64854 4.23443 6.66709L4.04033 6.81045L4.11314 7.04049C4.1226 7.07025 4.08865 7.09494 4.06322 7.07674L3.86693 6.93643L3.67064 7.07674C3.64521 7.0949 3.61135 7.07025 3.62072 7.04049L3.69353 6.81045L3.49943 6.66709C3.47431 6.6485 3.48724 6.60869 3.51849 6.60842L3.75978 6.60658L3.83611 6.37768C3.84596 6.34807 3.88787 6.34807 3.89775 6.37768Z" fill="#F5F5F5"/>
  <path d="M3.89775 7.57692L3.97408 7.80583L4.21537 7.80767C4.24662 7.80794 4.25955 7.84778 4.23443 7.86634L4.04033 8.0097L4.11314 8.23974C4.1226 8.2695 4.08865 8.29419 4.06322 8.27599L3.86693 8.13567L3.67064 8.27599C3.64521 8.29415 3.61135 8.26954 3.62072 8.23974L3.69353 8.0097L3.49943 7.86634C3.47431 7.84782 3.48724 7.80794 3.51849 7.80767L3.75978 7.80583L3.83611 7.57692C3.84596 7.54728 3.88787 7.54728 3.89775 7.57692Z" fill="#F5F5F5"/>
  <path d="M3.89775 8.77419L3.97408 9.0031L4.21537 9.00493C4.24662 9.00521 4.25955 9.04501 4.23443 9.0636L4.04033 9.20696L4.11314 9.437C4.1226 9.46677 4.08865 9.49145 4.06322 9.47325L3.86693 9.33294L3.67064 9.47325C3.64521 9.49142 3.61135 9.46677 3.62072 9.437L3.69353 9.20696L3.49943 9.0636C3.47431 9.04501 3.48724 9.00521 3.51849 9.00493L3.75978 9.0031L3.83611 8.77419C3.84596 8.74454 3.88787 8.74454 3.89775 8.77419Z" fill="#F5F5F5"/>
  <path d="M3.89775 9.97143L3.97408 10.2003L4.21537 10.2022C4.24662 10.2024 4.25955 10.2422 4.23443 10.2608L4.04033 10.4042L4.11314 10.6342C4.1226 10.664 4.08865 10.6887 4.06322 10.6705L3.86693 10.5302L3.67064 10.6705C3.64521 10.6887 3.61135 10.664 3.62072 10.6342L3.69353 10.4042L3.49943 10.2608C3.47431 10.2422 3.48724 10.2024 3.51849 10.2022L3.75978 10.2003L3.83611 9.97143C3.84596 9.94182 3.88787 9.94182 3.89775 9.97143Z" fill="#F5F5F5"/>
  <path d="M4.82712 5.79177L4.90345 6.02067L5.14474 6.02251C5.17599 6.02278 5.18892 6.06263 5.1638 6.08118L4.9697 6.2245L5.04251 6.45454C5.05196 6.48431 5.01802 6.50899 4.99259 6.49079L4.7963 6.35048L4.60001 6.49079C4.57458 6.50899 4.54071 6.48431 4.55009 6.45454L4.6229 6.2245L4.4288 6.08118C4.40368 6.06259 4.41661 6.02274 4.44786 6.02251L4.68915 6.02067L4.76548 5.79177C4.77532 5.76212 4.81724 5.76212 4.82712 5.79177Z" fill="#F5F5F5"/>
  <path d="M4.82712 6.989L4.90345 7.21791L5.14474 7.21975C5.17599 7.22002 5.18892 7.25982 5.1638 7.27842L4.9697 7.42178L5.04251 7.65182C5.05196 7.68158 5.01802 7.70627 4.99259 7.68807L4.7963 7.54775L4.60001 7.68807C4.57458 7.70623 4.54071 7.68158 4.55009 7.65182L4.6229 7.42178L4.4288 7.27842C4.40368 7.25982 4.41661 7.22002 4.44786 7.21975L4.68915 7.21791L4.76548 6.989C4.77532 6.95939 4.81724 6.95939 4.82712 6.989Z" fill="#F5F5F5"/>
  <path d="M4.82712 8.1863L4.90345 8.41521L5.14474 8.41704C5.17599 8.41731 5.18892 8.45712 5.1638 8.47571L4.9697 8.61907L5.04251 8.84911C5.05196 8.87888 5.01802 8.90356 4.99259 8.88536L4.7963 8.74505L4.60001 8.88536C4.57458 8.90353 4.54071 8.87892 4.55009 8.84911L4.6229 8.61907L4.4288 8.47571C4.40368 8.45712 4.41661 8.41731 4.44786 8.41704L4.68915 8.41521L4.76548 8.1863C4.77532 8.15665 4.81724 8.15665 4.82712 8.1863Z" fill="#F5F5F5"/>
  <path d="M4.82712 9.38356L4.90345 9.61247L5.14474 9.61431C5.17599 9.61458 5.18892 9.65442 5.1638 9.67298L4.9697 9.81634L5.04251 10.0464C5.05196 10.0761 5.01802 10.1008 4.99259 10.0826L4.7963 9.94231L4.60001 10.0826C4.57458 10.1008 4.54071 10.0761 4.55009 10.0464L4.6229 9.81634L4.4288 9.67298C4.40368 9.65446 4.41661 9.61458 4.44786 9.61431L4.68915 9.61247L4.76548 9.38356C4.77532 9.35392 4.81724 9.35392 4.82712 9.38356Z" fill="#F5F5F5"/>
  <path d="M4.82712 10.5808L4.90345 10.8097L5.14474 10.8115C5.17599 10.8118 5.18892 10.8516 5.1638 10.8702L4.9697 11.0136L5.04251 11.2436C5.05196 11.2734 5.01802 11.2981 4.99259 11.2799L4.7963 11.1396L4.60001 11.2799C4.57458 11.298 4.54071 11.2734 4.55009 11.2436L4.6229 11.0136L4.4288 10.8702C4.40368 10.8516 4.41661 10.8118 4.44786 10.8115L4.68915 10.8097L4.76548 10.5808C4.77532 10.5512 4.81724 10.5512 4.82712 10.5808Z" fill="#F5F5F5"/>
  <path d="M5.75658 6.37768L5.83291 6.60658L6.0742 6.60842C6.10545 6.60869 6.11837 6.64854 6.09326 6.66709L5.89916 6.81045L5.97197 7.04049C5.98142 7.07025 5.94748 7.09494 5.92205 7.07674L5.72576 6.93643L5.52947 7.07674C5.50404 7.0949 5.47017 7.07025 5.47955 7.04049L5.55236 6.81045L5.35826 6.66709C5.33314 6.6485 5.34607 6.60869 5.37732 6.60842L5.61861 6.60658L5.69494 6.37768C5.70474 6.34807 5.74669 6.34807 5.75658 6.37768Z" fill="#F5F5F5"/>
  <path d="M5.75658 7.57692L5.83291 7.80583L6.0742 7.80767C6.10545 7.80794 6.11837 7.84778 6.09326 7.86634L5.89916 8.0097L5.97197 8.23974C5.98142 8.2695 5.94748 8.29419 5.92205 8.27599L5.72576 8.13567L5.52947 8.27599C5.50404 8.29415 5.47017 8.26954 5.47955 8.23974L5.55236 8.0097L5.35826 7.86634C5.33314 7.84782 5.34607 7.80794 5.37732 7.80767L5.61861 7.80583L5.69494 7.57692C5.70474 7.54728 5.74669 7.54728 5.75658 7.57692Z" fill="#F5F5F5"/>
  <path d="M5.75658 8.77419L5.83291 9.0031L6.0742 9.00493C6.10545 9.00521 6.11837 9.04501 6.09326 9.0636L5.89916 9.20696L5.97197 9.437C5.98142 9.46677 5.94748 9.49145 5.92205 9.47325L5.72576 9.33294L5.52947 9.47325C5.50404 9.49142 5.47017 9.46677 5.47955 9.437L5.55236 9.20696L5.35826 9.0636C5.33314 9.04501 5.34607 9.00521 5.37732 9.00493L5.61861 9.0031L5.69494 8.77419C5.70474 8.74454 5.74669 8.74454 5.75658 8.77419Z" fill="#F5F5F5"/>
  <path d="M5.75658 9.97143L5.83291 10.2003L6.0742 10.2022C6.10545 10.2024 6.11837 10.2422 6.09326 10.2608L5.89916 10.4042L5.97197 10.6342C5.98142 10.664 5.94748 10.6887 5.92205 10.6705L5.72576 10.5302L5.52947 10.6705C5.50404 10.6887 5.47017 10.664 5.47955 10.6342L5.55236 10.4042L5.35826 10.2608C5.33314 10.2422 5.34607 10.2024 5.37732 10.2022L5.61861 10.2003L5.69494 9.97143C5.70474 9.94182 5.74669 9.94182 5.75658 9.97143Z" fill="#F5F5F5"/>
  <path d="M6.68598 5.79176L6.76231 6.02067L7.0036 6.0225C7.03485 6.02278 7.04778 6.06262 7.02266 6.08118L6.82856 6.2245L6.90137 6.45454C6.91083 6.4843 6.87688 6.50899 6.85145 6.49079L6.65512 6.35051L6.45884 6.49083C6.43341 6.50903 6.39954 6.48434 6.40891 6.45458L6.48173 6.22454L6.28762 6.08122C6.26251 6.06262 6.27544 6.02278 6.30669 6.02254L6.54798 6.02071L6.6243 5.7918C6.63419 5.76211 6.6761 5.76211 6.68598 5.79176Z" fill="#F5F5F5"/>
  <path d="M6.68598 6.989L6.76231 7.21791L7.0036 7.21975C7.03485 7.22002 7.04778 7.25982 7.02266 7.27842L6.82856 7.42178L6.90137 7.65182C6.91083 7.68158 6.87688 7.70627 6.85145 7.68807L6.65512 7.54775L6.45884 7.68807C6.43341 7.70623 6.39954 7.68158 6.40891 7.65182L6.48173 7.42178L6.28762 7.27842C6.26251 7.25982 6.27544 7.22002 6.30669 7.21975L6.54798 7.21791L6.6243 6.989C6.63419 6.95939 6.6761 6.95939 6.68598 6.989Z" fill="#F5F5F5"/>
  <path d="M6.68598 8.1863L6.76231 8.41521L7.0036 8.41705C7.03485 8.41732 7.04778 8.45712 7.02266 8.47572L6.82856 8.61908L6.90137 8.84912C6.91083 8.87888 6.87688 8.90357 6.85145 8.88537L6.65512 8.74501L6.45884 8.88533C6.43341 8.90349 6.39954 8.87884 6.40891 8.84908L6.48173 8.61904L6.28762 8.47568C6.26251 8.45708 6.27544 8.41728 6.30669 8.41701L6.54798 8.41517L6.6243 8.18626C6.63419 8.15666 6.6761 8.15666 6.68598 8.1863Z" fill="#F5F5F5"/>
  <path d="M6.68598 9.38356L6.76231 9.61247L7.0036 9.61431C7.03485 9.61458 7.04778 9.65442 7.02266 9.67298L6.82856 9.81634L6.90137 10.0464C6.91083 10.0761 6.87688 10.1008 6.85145 10.0826L6.65512 9.94231L6.45884 10.0826C6.43341 10.1008 6.39954 10.0761 6.40891 10.0464L6.48173 9.81634L6.28762 9.67298C6.26251 9.65446 6.27544 9.61458 6.30669 9.61431L6.54798 9.61247L6.6243 9.38356C6.63419 9.35392 6.6761 9.35392 6.68598 9.38356Z" fill="#F5F5F5"/>
  <path d="M6.68598 10.5808L6.76231 10.8097L7.0036 10.8115C7.03485 10.8118 7.04778 10.8516 7.02266 10.8702L6.82856 11.0136L6.90137 11.2436C6.91083 11.2734 6.87688 11.2981 6.85145 11.2799L6.65512 11.1396L6.45884 11.2799C6.43341 11.298 6.39954 11.2734 6.40891 11.2436L6.48173 11.0136L6.28762 10.8702C6.26251 10.8516 6.27544 10.8118 6.30669 10.8115L6.54798 10.8097L6.6243 10.5808C6.63419 10.5512 6.6761 10.5512 6.68598 10.5808Z" fill="#F5F5F5"/>
  <path d="M7.6154 6.37768L7.69173 6.60658L7.93302 6.60842C7.96427 6.60869 7.9772 6.64854 7.95208 6.66709L7.75798 6.81045L7.83079 7.04049C7.84025 7.07025 7.8063 7.09494 7.78087 7.07674L7.58458 6.93643L7.38829 7.07674C7.36286 7.0949 7.329 7.07025 7.33837 7.04049L7.41118 6.81045L7.21708 6.66709C7.19197 6.6485 7.2049 6.60869 7.23615 6.60842L7.47743 6.60658L7.55376 6.37768C7.56365 6.34807 7.60552 6.34807 7.6154 6.37768Z" fill="#F5F5F5"/>
  <path d="M7.6154 7.57692L7.69173 7.80583L7.93302 7.80767C7.96427 7.80794 7.9772 7.84778 7.95208 7.86634L7.75798 8.0097L7.83079 8.23974C7.84025 8.2695 7.8063 8.29419 7.78087 8.27599L7.58458 8.13567L7.38829 8.27599C7.36286 8.29415 7.329 8.26954 7.33837 8.23974L7.41118 8.0097L7.21708 7.86634C7.19197 7.84782 7.2049 7.80794 7.23615 7.80767L7.47743 7.80583L7.55376 7.57692C7.56365 7.54728 7.60552 7.54728 7.6154 7.57692Z" fill="#F5F5F5"/>
  <path d="M7.6154 8.77419L7.69173 9.0031L7.93302 9.00493C7.96427 9.00521 7.9772 9.04501 7.95208 9.0636L7.75798 9.20696L7.83079 9.437C7.84025 9.46677 7.8063 9.49145 7.78087 9.47325L7.58458 9.33294L7.38829 9.47325C7.36286 9.49142 7.329 9.46677 7.33837 9.437L7.41118 9.20696L7.21708 9.0636C7.19197 9.04501 7.2049 9.00521 7.23615 9.00493L7.47743 9.0031L7.55376 8.77419C7.56365 8.74454 7.60552 8.74454 7.6154 8.77419Z" fill="#F5F5F5"/>
  <path d="M7.6154 9.97143L7.69173 10.2003L7.93302 10.2022C7.96427 10.2024 7.9772 10.2422 7.95208 10.2608L7.75798 10.4042L7.83079 10.6342C7.84025 10.664 7.8063 10.6887 7.78087 10.6705L7.58458 10.5302L7.38829 10.6705C7.36286 10.6887 7.329 10.664 7.33837 10.6342L7.41118 10.4042L7.21708 10.2608C7.19197 10.2422 7.2049 10.2024 7.23615 10.2022L7.47743 10.2003L7.55376 9.97143C7.56365 9.94182 7.60552 9.94182 7.6154 9.97143Z" fill="#F5F5F5"/>
  <path d="M8.54488 5.79177L8.62121 6.02067L8.86249 6.02251C8.89374 6.02278 8.90667 6.06263 8.88156 6.08118L8.68746 6.2245L8.76027 6.45454C8.76972 6.48431 8.73578 6.50899 8.71035 6.49079L8.51406 6.35048L8.31777 6.49079C8.29234 6.50899 8.25847 6.48431 8.26785 6.45454L8.34066 6.2245L8.14656 6.08118C8.12144 6.06259 8.13437 6.02274 8.16562 6.02251L8.40691 6.02067L8.48324 5.79177C8.49304 5.76212 8.53499 5.76212 8.54488 5.79177Z" fill="#F5F5F5"/>
  <path d="M8.54488 6.989L8.62121 7.21791L8.86249 7.21975C8.89374 7.22002 8.90667 7.25982 8.88156 7.27842L8.68746 7.42178L8.76027 7.65182C8.76972 7.68158 8.73578 7.70627 8.71035 7.68807L8.51406 7.54775L8.31777 7.68807C8.29234 7.70623 8.25847 7.68158 8.26785 7.65182L8.34066 7.42178L8.14656 7.27842C8.12144 7.25982 8.13437 7.22002 8.16562 7.21975L8.40691 7.21791L8.48324 6.989C8.49304 6.95939 8.53499 6.95939 8.54488 6.989Z" fill="#F5F5F5"/>
  <path d="M8.54488 8.1863L8.62121 8.41521L8.86249 8.41704C8.89374 8.41731 8.90667 8.45712 8.88156 8.47571L8.68746 8.61907L8.76027 8.84911C8.76972 8.87888 8.73578 8.90356 8.71035 8.88536L8.51406 8.74505L8.31777 8.88536C8.29234 8.90353 8.25847 8.87892 8.26785 8.84911L8.34066 8.61907L8.14656 8.47571C8.12144 8.45712 8.13437 8.41731 8.16562 8.41704L8.40691 8.41521L8.48324 8.1863C8.49304 8.15665 8.53499 8.15665 8.54488 8.1863Z" fill="#F5F5F5"/>
  <path d="M8.54488 9.38356L8.62121 9.61247L8.86249 9.61431C8.89374 9.61458 8.90667 9.65442 8.88156 9.67298L8.68746 9.81634L8.76027 10.0464C8.76972 10.0761 8.73578 10.1008 8.71035 10.0826L8.51406 9.94231L8.31777 10.0826C8.29234 10.1008 8.25847 10.0761 8.26785 10.0464L8.34066 9.81634L8.14656 9.67298C8.12144 9.65446 8.13437 9.61458 8.16562 9.61431L8.40691 9.61247L8.48324 9.38356C8.49304 9.35392 8.53499 9.35392 8.54488 9.38356Z" fill="#F5F5F5"/>
  <path d="M8.54488 10.5808L8.62121 10.8097L8.86249 10.8115C8.89374 10.8118 8.90667 10.8516 8.88156 10.8702L8.68746 11.0136L8.76027 11.2436C8.76972 11.2734 8.73578 11.2981 8.71035 11.2799L8.51406 11.1396L8.31777 11.2799C8.29234 11.298 8.25847 11.2734 8.26785 11.2436L8.34066 11.0136L8.14656 10.8702C8.12144 10.8516 8.13437 10.8118 8.16562 10.8115L8.40691 10.8097L8.48324 10.5808C8.49304 10.5512 8.53499 10.5512 8.54488 10.5808Z" fill="#F5F5F5"/>
  <path d="M9.47423 6.37768L9.55056 6.60658L9.79185 6.60842C9.8231 6.60869 9.83603 6.64854 9.81091 6.66709L9.61681 6.81045L9.68962 7.04049C9.69907 7.07025 9.66513 7.09494 9.6397 7.07674L9.44341 6.93643L9.24712 7.07674C9.22169 7.0949 9.18782 7.07025 9.1972 7.04049L9.27001 6.81045L9.07591 6.66709C9.05079 6.6485 9.06372 6.60869 9.09497 6.60842L9.33626 6.60658L9.41259 6.37768C9.42243 6.34807 9.46435 6.34807 9.47423 6.37768Z" fill="#F5F5F5"/>
  <path d="M9.47423 7.57692L9.55056 7.80583L9.79185 7.80767C9.8231 7.80794 9.83603 7.84778 9.81091 7.86634L9.61681 8.0097L9.68962 8.23974C9.69907 8.2695 9.66513 8.29419 9.6397 8.27599L9.44341 8.13567L9.24712 8.27599C9.22169 8.29415 9.18782 8.26954 9.1972 8.23974L9.27001 8.0097L9.07591 7.86634C9.05079 7.84782 9.06372 7.80794 9.09497 7.80767L9.33626 7.80583L9.41259 7.57692C9.42243 7.54728 9.46435 7.54728 9.47423 7.57692Z" fill="#F5F5F5"/>
  <path d="M9.47423 8.77419L9.55056 9.0031L9.79185 9.00493C9.8231 9.00521 9.83603 9.04501 9.81091 9.0636L9.61681 9.20696L9.68962 9.437C9.69907 9.46677 9.66513 9.49145 9.6397 9.47325L9.44341 9.33294L9.24712 9.47325C9.22169 9.49142 9.18782 9.46677 9.1972 9.437L9.27001 9.20696L9.07591 9.0636C9.05079 9.04501 9.06372 9.00521 9.09497 9.00493L9.33626 9.0031L9.41259 8.77419C9.42243 8.74454 9.46435 8.74454 9.47423 8.77419Z" fill="#F5F5F5"/>
  <path d="M9.47423 9.97143L9.55056 10.2003L9.79185 10.2022C9.8231 10.2024 9.83603 10.2422 9.81091 10.2608L9.61681 10.4042L9.68962 10.6342C9.69907 10.664 9.66513 10.6887 9.6397 10.6705L9.44341 10.5302L9.24712 10.6705C9.22169 10.6887 9.18782 10.664 9.1972 10.6342L9.27001 10.4042L9.07591 10.2608C9.05079 10.2422 9.06372 10.2024 9.09497 10.2022L9.33626 10.2003L9.41259 9.97143C9.42243 9.94182 9.46435 9.94182 9.47423 9.97143Z" fill="#F5F5F5"/>
  <path d="M10.4037 5.79177L10.48 6.02067L10.7213 6.02251C10.7526 6.02278 10.7655 6.06263 10.7404 6.08118L10.5463 6.2245L10.6191 6.45454C10.6285 6.48431 10.5946 6.50899 10.5692 6.49079L10.3729 6.35048L10.1766 6.49079C10.1512 6.50899 10.1173 6.48431 10.1267 6.45454L10.1995 6.2245L10.0054 6.08118C9.98027 6.06259 9.9932 6.02274 10.0244 6.02251L10.2657 6.02067L10.3421 5.79177C10.3519 5.76212 10.3938 5.76212 10.4037 5.79177Z" fill="#F5F5F5"/>
  <path d="M10.4037 6.989L10.48 7.21791L10.7213 7.21975C10.7526 7.22002 10.7655 7.25982 10.7404 7.27842L10.5463 7.42178L10.6191 7.65182C10.6285 7.68158 10.5946 7.70627 10.5692 7.68807L10.3729 7.54775L10.1766 7.68807C10.1512 7.70623 10.1173 7.68158 10.1267 7.65182L10.1995 7.42178L10.0054 7.27842C9.98027 7.25982 9.9932 7.22002 10.0244 7.21975L10.2657 7.21791L10.3421 6.989C10.3519 6.95939 10.3938 6.95939 10.4037 6.989Z" fill="#F5F5F5"/>
  <path d="M10.4037 8.1863L10.48 8.41521L10.7213 8.41704C10.7526 8.41731 10.7655 8.45712 10.7404 8.47571L10.5463 8.61907L10.6191 8.84911C10.6285 8.87888 10.5946 8.90356 10.5692 8.88536L10.3729 8.74505L10.1766 8.88536C10.1512 8.90353 10.1173 8.87892 10.1267 8.84911L10.1995 8.61907L10.0054 8.47571C9.98027 8.45712 9.9932 8.41731 10.0244 8.41704L10.2657 8.41521L10.3421 8.1863C10.3519 8.15665 10.3938 8.15665 10.4037 8.1863Z" fill="#F5F5F5"/>
  <path d="M10.4037 9.38356L10.48 9.61247L10.7213 9.61431C10.7526 9.61458 10.7655 9.65442 10.7404 9.67298L10.5463 9.81634L10.6191 10.0464C10.6285 10.0761 10.5946 10.1008 10.5692 10.0826L10.3729 9.94231L10.1766 10.0826C10.1512 10.1008 10.1173 10.0761 10.1267 10.0464L10.1995 9.81634L10.0054 9.67298C9.98027 9.65446 9.9932 9.61458 10.0244 9.61431L10.2657 9.61247L10.3421 9.38356C10.3519 9.35392 10.3938 9.35392 10.4037 9.38356Z" fill="#F5F5F5"/>
  <path d="M10.4037 10.5808L10.48 10.8097L10.7213 10.8115C10.7526 10.8118 10.7655 10.8516 10.7404 10.8702L10.5463 11.0136L10.6191 11.2436C10.6285 11.2734 10.5946 11.2981 10.5692 11.2799L10.3729 11.1396L10.1766 11.2799C10.1512 11.298 10.1173 11.2734 10.1267 11.2436L10.1995 11.0136L10.0054 10.8702C9.98027 10.8516 9.9932 10.8118 10.0244 10.8115L10.2657 10.8097L10.3421 10.5808C10.3519 10.5512 10.3938 10.5512 10.4037 10.5808Z" fill="#F5F5F5"/>
</svg>