<svg xmlns="http://www.w3.org/2000/svg" width="25" height="24" viewBox="0 0 25 24" fill="none">
  <path fill-rule="evenodd" clip-rule="evenodd" d="M12.5 3.75C10.4289 3.75 8.75001 5.42893 8.75001 7.5C8.75001 9.57107 10.4289 11.25 12.5 11.25C14.5711 11.25 16.25 9.57107 16.25 7.5C16.25 5.42893 14.5711 3.75 12.5 3.75ZM7.25001 7.5C7.25001 4.6005 9.60052 2.25 12.5 2.25C15.3995 2.25 17.75 4.6005 17.75 7.5C17.75 10.3995 15.3995 12.75 12.5 12.75C9.60052 12.75 7.25001 10.3995 7.25001 7.5ZM9.857 14.75C9.90403 14.75 9.95169 14.75 10 14.75H15C15.0483 14.75 15.096 14.75 15.143 14.75C16.4011 14.7497 17.203 14.7495 17.8789 14.9545C19.397 15.415 20.585 16.603 21.0455 18.1211C21.2505 18.797 21.2503 19.5989 21.25 20.857C21.25 20.904 21.25 20.9517 21.25 21C21.25 21.4142 20.9142 21.75 20.5 21.75C20.0858 21.75 19.75 21.4142 19.75 21C19.75 19.5499 19.7419 18.9911 19.6101 18.5566C19.295 17.5179 18.4821 16.705 17.4434 16.3899C17.0089 16.2581 16.4501 16.25 15 16.25H10C8.54988 16.25 7.99108 16.2581 7.55658 16.3899C6.51788 16.705 5.70504 17.5179 5.38996 18.5566C5.25815 18.9911 5.25001 19.5499 5.25001 21C5.25001 21.4142 4.91422 21.75 4.50001 21.75C4.0858 21.75 3.75001 21.4142 3.75001 21C3.75001 20.9517 3.75 20.904 3.74999 20.857C3.74971 19.5989 3.74953 18.797 3.95455 18.1211C4.41506 16.603 5.60305 15.415 7.12115 14.9545C7.79699 14.7495 8.59889 14.7497 9.857 14.75Z" fill="#323232"/>
</svg>