<svg xmlns="http://www.w3.org/2000/svg" width="24" height="24" viewBox="0 0 24 24" fill="none">
  <path d="M20.5021 5H3.49785C2.67059 5 2 5.67059 2 6.49785V8.97984H22V6.49785C22 5.67059 21.3294 5 20.5021 5Z" fill="#82AFFF"/>
  <path d="M2 16.605C2 17.4323 2.67059 18.1029 3.49785 18.1029H20.5021C21.3294 18.1029 22 17.4323 22 16.605V14.123H2V16.605Z" fill="#73AF00"/>
  <path d="M22 9.52539H2V13.5797H22V9.52539Z" fill="#F5F5F5"/>
  <path d="M2 9.36848V9.52512H22V9.36848V8.98047H2V9.36848Z" fill="#FF4B55"/>
  <path d="M2 13.7348V14.1228H22V13.7348V13.5781H2V13.7348Z" fill="#FF4B55"/>
  <path d="M6.43327 8.27336C5.72734 8.27336 5.15511 7.7025 5.15511 6.9991C5.15511 6.29313 5.7273 5.71969 6.43327 5.71969C6.43601 5.71969 6.43866 5.71969 6.44132 5.71973C6.48288 5.72027 6.49745 5.66508 6.46081 5.64543C6.24343 5.52891 5.99534 5.46297 5.73159 5.46488C4.88691 5.4709 4.20077 6.17086 4.20976 7.01555C4.21859 7.85153 4.90202 8.5282 5.74265 8.5282C6.00277 8.5282 6.24738 8.46238 6.46206 8.34746C6.49859 8.32789 6.48382 8.2727 6.44241 8.27328C6.43929 8.27336 6.43628 8.27336 6.43327 8.27336Z" fill="#F5F5F5"/>
  <path d="M7.43405 7.92091L7.37698 8.09208L7.19655 8.09345C7.17319 8.0936 7.1635 8.12345 7.18229 8.13731L7.32745 8.2445L7.27299 8.41653C7.26596 8.4388 7.29131 8.45724 7.31034 8.44364L7.45713 8.33872L7.60393 8.44364C7.62296 8.45724 7.64827 8.4388 7.64128 8.41653L7.58682 8.2445L7.73194 8.13731C7.75073 8.12345 7.74104 8.0936 7.71768 8.09345L7.53725 8.09208L7.48018 7.92091C7.4728 7.89876 7.44147 7.89876 7.43405 7.92091Z" fill="#F5F5F5"/>
  <path d="M8.7053 7.92091L8.64823 8.09208L8.4678 8.09345C8.44445 8.0936 8.43476 8.12345 8.45355 8.13731L8.59866 8.2445L8.54421 8.41653C8.53718 8.4388 8.56253 8.45724 8.58155 8.44364L8.72835 8.33872L8.87515 8.44364C8.89417 8.45724 8.91948 8.4388 8.91249 8.41653L8.85804 8.2445L9.00316 8.13731C9.02195 8.12345 9.01226 8.0936 8.9889 8.09345L8.80847 8.09208L8.7514 7.92091C8.74402 7.89876 8.71265 7.89876 8.7053 7.92091Z" fill="#F5F5F5"/>
  <path d="M9.97647 7.92091L9.9194 8.09208L9.73897 8.09345C9.71561 8.0936 9.70592 8.12345 9.72471 8.13731L9.86987 8.2445L9.81541 8.41653C9.80838 8.4388 9.83373 8.45724 9.85276 8.44364L9.99955 8.33872L10.1464 8.44364C10.1654 8.45724 10.1907 8.4388 10.1837 8.41653L10.1292 8.2445L10.2744 8.13731C10.2931 8.12345 10.2835 8.0936 10.2601 8.09345L10.0797 8.09208L10.0226 7.92091C10.0152 7.89876 9.98385 7.89876 9.97647 7.92091Z" fill="#F5F5F5"/>
  <path d="M11.2476 7.92091L11.1906 8.09208L11.0101 8.09345C10.9868 8.0936 10.9771 8.12345 10.9959 8.13731L11.141 8.2445L11.0865 8.41653C11.0795 8.4388 11.1049 8.45724 11.1239 8.44364L11.2707 8.33872L11.4175 8.44364C11.4365 8.45724 11.4618 8.4388 11.4548 8.41653L11.4004 8.2445L11.5455 8.13731C11.5643 8.12345 11.5546 8.0936 11.5312 8.09345L11.3508 8.09208L11.2937 7.92091C11.2864 7.89876 11.255 7.89876 11.2476 7.92091Z" fill="#F5F5F5"/>
  <path d="M12.5189 7.92091L12.4618 8.09208L12.2814 8.09345C12.258 8.0936 12.2483 8.12345 12.2671 8.13731L12.4123 8.2445L12.3578 8.41653C12.3508 8.4388 12.3762 8.45724 12.3952 8.44364L12.542 8.33872L12.6888 8.44364C12.7078 8.45724 12.7331 8.4388 12.7261 8.41653L12.6717 8.2445L12.8168 8.13731C12.8356 8.12345 12.8259 8.0936 12.8026 8.09345L12.6221 8.09208L12.5651 7.92091C12.5576 7.89876 12.5263 7.89876 12.5189 7.92091Z" fill="#F5F5F5"/>
  <path d="M8.7053 6.73542L8.64823 6.90659L8.4678 6.90796C8.44445 6.90812 8.43476 6.93796 8.45355 6.95183L8.59866 7.05901L8.54421 7.23105C8.53718 7.25331 8.56253 7.27175 8.58155 7.25815L8.72835 7.15323L8.87515 7.25815C8.89417 7.27175 8.91948 7.25331 8.91249 7.23105L8.85804 7.05901L9.00316 6.95183C9.02195 6.93796 9.01226 6.90812 8.9889 6.90796L8.80847 6.90659L8.7514 6.73542C8.74402 6.71319 8.71265 6.71319 8.7053 6.73542Z" fill="#F5F5F5"/>
  <path d="M9.97647 6.73542L9.9194 6.90659L9.73897 6.90796C9.71561 6.90812 9.70592 6.93796 9.72471 6.95183L9.86987 7.05901L9.81541 7.23105C9.80838 7.25331 9.83373 7.27175 9.85276 7.25815L9.99955 7.15323L10.1464 7.25815C10.1654 7.27175 10.1907 7.25331 10.1837 7.23105L10.1292 7.05901L10.2744 6.95183C10.2931 6.93796 10.2835 6.90812 10.2601 6.90796L10.0797 6.90659L10.0226 6.73542C10.0152 6.71319 9.98385 6.71319 9.97647 6.73542Z" fill="#F5F5F5"/>
  <path d="M11.2476 6.73542L11.1906 6.90659L11.0101 6.90796C10.9868 6.90812 10.9771 6.93796 10.9959 6.95183L11.141 7.05901L11.0865 7.23105C11.0795 7.25331 11.1049 7.27175 11.1239 7.25815L11.2707 7.15323L11.4175 7.25815C11.4365 7.27175 11.4618 7.25331 11.4548 7.23105L11.4004 7.05901L11.5455 6.95183C11.5643 6.93796 11.5546 6.90812 11.5312 6.90796L11.3508 6.90659L11.2937 6.73542C11.2864 6.71319 11.255 6.71319 11.2476 6.73542Z" fill="#F5F5F5"/>
  <path d="M12.5189 6.73542L12.4618 6.90659L12.2814 6.90796C12.258 6.90812 12.2483 6.93796 12.2671 6.95183L12.4123 7.05901L12.3578 7.23105C12.3508 7.25331 12.3762 7.27175 12.3952 7.25815L12.542 7.15323L12.6888 7.25815C12.7078 7.27175 12.7331 7.25331 12.7261 7.23105L12.6717 7.05901L12.8168 6.95183C12.8356 6.93796 12.8259 6.90812 12.8026 6.90796L12.6221 6.90659L12.5651 6.73542C12.5576 6.71319 12.5263 6.71319 12.5189 6.73542Z" fill="#F5F5F5"/>
  <path d="M9.97647 7.92091L9.9194 8.09208L9.73897 8.09345C9.71561 8.0936 9.70592 8.12345 9.72471 8.13731L9.86987 8.2445L9.81541 8.41653C9.80838 8.4388 9.83373 8.45724 9.85276 8.44364L9.99955 8.33872L10.1464 8.44364C10.1654 8.45724 10.1907 8.4388 10.1837 8.41653L10.1292 8.2445L10.2744 8.13731C10.2931 8.12345 10.2835 8.0936 10.2601 8.09345L10.0797 8.09208L10.0226 7.92091C10.0152 7.89876 9.98385 7.89876 9.97647 7.92091Z" fill="#F5F5F5"/>
  <path d="M9.97647 5.54786L9.9194 5.71903L9.73897 5.7204C9.71561 5.72056 9.70592 5.7504 9.72471 5.76427L9.86987 5.87145L9.81541 6.04349C9.80838 6.06575 9.83373 6.08419 9.85276 6.0706L9.99955 5.96567L10.1464 6.0706C10.1654 6.08419 10.1907 6.06575 10.1837 6.04349L10.1292 5.87145L10.2744 5.76427C10.2931 5.7504 10.2835 5.72056 10.2601 5.7204L10.0797 5.71903L10.0226 5.54786C10.0152 5.52571 9.98385 5.52571 9.97647 5.54786Z" fill="#F5F5F5"/>
  <path d="M11.2476 7.92091L11.1906 8.09208L11.0101 8.09345C10.9868 8.0936 10.9771 8.12345 10.9959 8.13731L11.141 8.2445L11.0865 8.41653C11.0795 8.4388 11.1049 8.45724 11.1239 8.44364L11.2707 8.33872L11.4175 8.44364C11.4365 8.45724 11.4618 8.4388 11.4548 8.41653L11.4004 8.2445L11.5455 8.13731C11.5643 8.12345 11.5546 8.0936 11.5312 8.09345L11.3508 8.09208L11.2937 7.92091C11.2864 7.89876 11.255 7.89876 11.2476 7.92091Z" fill="#F5F5F5"/>
  <path d="M12.5189 7.92091L12.4618 8.09208L12.2814 8.09345C12.258 8.0936 12.2483 8.12345 12.2671 8.13731L12.4123 8.2445L12.3578 8.41653C12.3508 8.4388 12.3762 8.45724 12.3952 8.44364L12.542 8.33872L12.6888 8.44364C12.7078 8.45724 12.7331 8.4388 12.7261 8.41653L12.6717 8.2445L12.8168 8.13731C12.8356 8.12345 12.8259 8.0936 12.8026 8.09345L12.6221 8.09208L12.5651 7.92091C12.5576 7.89876 12.5263 7.89876 12.5189 7.92091Z" fill="#F5F5F5"/>
  <path d="M11.2476 5.54786L11.1906 5.71903L11.0101 5.7204C10.9868 5.72056 10.9771 5.7504 10.9959 5.76427L11.141 5.87145L11.0865 6.04349C11.0795 6.06575 11.1049 6.08419 11.1239 6.0706L11.2707 5.96567L11.4175 6.0706C11.4365 6.08419 11.4618 6.06575 11.4548 6.04349L11.4004 5.87145L11.5455 5.76427C11.5643 5.7504 11.5546 5.72056 11.5312 5.7204L11.3508 5.71903L11.2937 5.54786C11.2864 5.52571 11.255 5.52571 11.2476 5.54786Z" fill="#F5F5F5"/>
  <path d="M12.5189 5.54786L12.4618 5.71903L12.2814 5.7204C12.258 5.72056 12.2483 5.7504 12.2671 5.76427L12.4123 5.87145L12.3578 6.04349C12.3508 6.06575 12.3762 6.08419 12.3952 6.0706L12.542 5.96567L12.6888 6.0706C12.7078 6.08419 12.7331 6.06575 12.7261 6.04349L12.6717 5.87145L12.8168 5.76427C12.8356 5.7504 12.8259 5.72056 12.8026 5.7204L12.6221 5.71903L12.5651 5.54786C12.5576 5.52571 12.5263 5.52571 12.5189 5.54786Z" fill="#F5F5F5"/>
</svg>