<svg width="20" height="20" viewBox="0 0 20 20" fill="none" xmlns="http://www.w3.org/2000/svg">
<path d="M18.2809 10.8748C18.0088 13.4315 16.5601 15.8274 14.1629 17.2115C10.1802 19.5109 5.08751 18.1463 2.78809 14.1636L2.54318 13.7394M1.71827 9.12507C1.99042 6.56831 3.4391 4.17238 5.83627 2.78838C9.81898 0.488954 14.9117 1.85353 17.2111 5.83625L17.456 6.26045M1.66638 15.9424L2.38353 13.266L5.05996 13.9832M14.9398 6.01668L17.6162 6.73382L18.3333 4.0574" stroke="#28303F" stroke-width="1.3" stroke-linecap="round" stroke-linejoin="round"/>
<path d="M10.0142 14.7854V14.0816C9.31382 14.068 8.79362 13.8402 8.45362 13.3982C8.11362 12.9562 7.92662 12.385 7.89262 11.6846L8.91262 11.4092C8.93302 11.7016 8.97722 11.9838 9.04522 12.2558C9.12002 12.5278 9.23902 12.7522 9.40222 12.929C9.56542 13.099 9.79322 13.184 10.0856 13.184C10.3848 13.184 10.6092 13.1024 10.7588 12.9392C10.9152 12.7692 10.9934 12.5278 10.9934 12.215C10.9934 11.841 10.9084 11.5418 10.7384 11.3174C10.5684 11.0862 10.3542 10.855 10.0958 10.6238L8.70862 9.3998C8.53182 9.2366 8.38222 9.0666 8.25982 8.8898C8.14422 8.713 8.05582 8.5192 7.99462 8.3084C7.94022 8.0908 7.91302 7.846 7.91302 7.574C7.91302 6.9824 8.07962 6.5234 8.41282 6.197C8.74602 5.8638 9.19822 5.687 9.76942 5.6666V4.9832H10.1264V5.6666C10.412 5.687 10.6602 5.7482 10.871 5.8502C11.0886 5.9454 11.2688 6.0814 11.4116 6.2582C11.5612 6.435 11.6768 6.6526 11.7584 6.911C11.8468 7.1626 11.9046 7.4584 11.9318 7.7984L10.9526 8.0636C10.9322 7.7916 10.8914 7.54 10.8302 7.3088C10.769 7.0708 10.6602 6.8804 10.5038 6.7376C10.3542 6.5948 10.1366 6.5336 9.85102 6.554C9.56542 6.5744 9.34102 6.656 9.17782 6.7988C9.02142 6.9416 8.94322 7.1626 8.94322 7.4618C8.94322 7.7134 8.98402 7.9208 9.06562 8.084C9.15402 8.2404 9.29342 8.407 9.48382 8.5838L10.8812 9.8078C11.0852 9.9914 11.2756 10.1988 11.4524 10.43C11.636 10.6544 11.7822 10.906 11.891 11.1848C12.0066 11.4636 12.0644 11.7764 12.0644 12.1232C12.0644 12.4972 11.993 12.827 11.8502 13.1126C11.7074 13.3914 11.5068 13.6124 11.2484 13.7756C10.9968 13.9388 10.701 14.0374 10.361 14.0714V14.7854H10.0142Z" fill="#28303F"/>
</svg>
