<svg xmlns="http://www.w3.org/2000/svg" width="24" height="24" viewBox="0 0 24 24" fill="none">
  <path d="M21.636 10.023C21.3994 9.8046 21.09 9.659 20.7443 9.659C20.7625 9.659 20.7807 9.659 20.7989 9.659V7.78448C20.7989 7.02011 20.4895 6.32854 19.9799 5.81897C19.4703 5.30939 18.7787 5 18.0144 5H5.78448C5.02011 5 4.32854 5.30939 3.81897 5.81897C3.30939 6.32854 3 7.02011 3 7.78448V17.1935C3 17.9579 3.30939 18.6494 3.81897 19.159C4.32854 19.6686 5.02011 19.978 5.78448 19.978H18.0144C18.7787 19.978 19.4703 19.6686 19.9799 19.159C20.4895 18.6494 20.7989 17.9579 20.7989 17.1935V15.3008C20.7807 15.3008 20.7625 15.3008 20.7443 15.3008C21.09 15.3008 21.3994 15.1552 21.636 14.9368C21.8544 14.7184 22 14.3908 22 14.045V10.9148C22 10.569 21.8544 10.2596 21.636 10.023ZM19.7979 17.1753C19.7979 17.6667 19.5977 18.1034 19.2701 18.431C18.9425 18.7586 18.5057 18.9588 18.0144 18.9588H5.78448C5.2931 18.9588 4.85632 18.7586 4.52874 18.431C4.20115 18.1034 4.00096 17.6667 4.00096 17.1753V7.78448C4.00096 7.2931 4.20115 6.85632 4.52874 6.52874C4.85632 6.20115 5.2931 6.00096 5.78448 6.00096H18.0144C18.5057 6.00096 18.9425 6.20115 19.2701 6.52874C19.5977 6.85632 19.7979 7.2931 19.7979 7.78448V9.659H14.1561C13.3918 9.659 12.7184 9.96839 12.2088 10.4598C11.7174 10.9511 11.408 11.6427 11.408 12.4071V12.5345C11.408 13.2989 11.7174 13.9722 12.2088 14.4818C12.7002 14.9732 13.3918 15.2826 14.1561 15.2826H19.7979V17.1753ZM20.999 14.045C20.999 14.1178 20.9626 14.1906 20.9262 14.227C20.8716 14.2816 20.817 14.2998 20.7443 14.2998H14.1561C13.683 14.2998 13.228 14.0996 12.9186 13.7902C12.6092 13.4808 12.409 13.0259 12.409 12.5527V12.4253C12.409 11.9339 12.6092 11.4971 12.9186 11.1877C13.2462 10.8602 13.683 10.6782 14.1561 10.6782H20.7443C20.817 10.6782 20.8898 10.7146 20.9262 10.751C20.9808 10.8056 20.999 10.8602 20.999 10.933V14.045Z" fill="black"/>
  <path d="M14.2837 11.6602C14.0653 11.6602 13.8651 11.7512 13.7195 11.8967C13.5739 12.0423 13.4829 12.2425 13.4829 12.4609C13.4829 12.6793 13.5739 12.8795 13.7195 13.0251C13.8651 13.1707 14.0653 13.2617 14.2837 13.2617C14.5021 13.2617 14.7023 13.1707 14.8661 13.0251C15.0116 12.8795 15.1026 12.6793 15.1026 12.4427C15.1026 12.2243 15.0116 12.0241 14.8661 11.8603C14.7023 11.7512 14.5021 11.6602 14.2837 11.6602Z" fill="black"/>
</svg>