<svg width="28" height="28" viewBox="0 0 28 28" fill="none" xmlns="http://www.w3.org/2000/svg">
<rect width="28" height="28" rx="6" fill="#FFC300"/>
<path d="M13.9999 11.5V14.8333M13.9999 18.1667H14.0082M12.5332 7.2975L5.51485 19.0142C5.37025 19.2648 5.29376 19.5488 5.29297 19.8381C5.29219 20.1275 5.36716 20.4119 5.51041 20.6633C5.65366 20.9147 5.86021 21.1241 6.10952 21.2709C6.35883 21.4177 6.64222 21.4967 6.93152 21.5H20.969C21.2583 21.4967 21.5417 21.4177 21.791 21.2709C22.0403 21.1241 22.2469 20.9147 22.3901 20.6633C22.5334 20.4119 22.6083 20.1275 22.6076 19.8381C22.6068 19.5488 22.5303 19.2648 22.3857 19.0142L15.3665 7.2975C15.2187 7.05416 15.0107 6.85299 14.7626 6.71339C14.5145 6.57378 14.2346 6.50044 13.9499 6.50044C13.6651 6.50044 13.3852 6.57378 13.1371 6.71339C12.889 6.85299 12.681 7.05416 12.5332 7.2975Z" stroke="white" stroke-width="1.5" stroke-linecap="round" stroke-linejoin="round"/>
</svg>
